G04 #@! TF.GenerationSoftware,KiCad,Pcbnew,5.0.2-bee76a0~70~ubuntu18.04.1*
G04 #@! TF.CreationDate,2019-07-08T10:40:53+02:00*
G04 #@! TF.ProjectId,neuromime_1.0.1,6e657572-6f6d-4696-9d65-5f312e302e31,rev?*
G04 #@! TF.SameCoordinates,Original*
G04 #@! TF.FileFunction,Drawing*
%FSLAX46Y46*%
G04 Gerber Fmt 4.6, Leading zero omitted, Abs format (unit mm)*
G04 Created by KiCad (PCBNEW 5.0.2-bee76a0~70~ubuntu18.04.1) date Mon 08 Jul 2019 10:40:53 AM CEST*
%MOMM*%
%LPD*%
G01*
G04 APERTURE LIST*
%ADD10C,0.200000*%
%ADD11C,0.300000*%
G04 APERTURE END LIST*
D10*
X150000000Y-9360000D02*
X150000000Y-90640000D01*
X104280000Y-50000000D02*
X188100000Y-50000000D01*
X177000000Y-50000000D02*
G75*
G03X177000000Y-50000000I-27000000J0D01*
G01*
D11*
X144571428Y-3061602D02*
X143857142Y-3061602D01*
X143785714Y-3775888D01*
X143857142Y-3704459D01*
X144000000Y-3633031D01*
X144357142Y-3633031D01*
X144500000Y-3704459D01*
X144571428Y-3775888D01*
X144642857Y-3918745D01*
X144642857Y-4275888D01*
X144571428Y-4418745D01*
X144500000Y-4490173D01*
X144357142Y-4561602D01*
X144000000Y-4561602D01*
X143857142Y-4490173D01*
X143785714Y-4418745D01*
X145928571Y-3061602D02*
X145642857Y-3061602D01*
X145500000Y-3133031D01*
X145428571Y-3204459D01*
X145285714Y-3418745D01*
X145214285Y-3704459D01*
X145214285Y-4275888D01*
X145285714Y-4418745D01*
X145357142Y-4490173D01*
X145500000Y-4561602D01*
X145785714Y-4561602D01*
X145928571Y-4490173D01*
X146000000Y-4418745D01*
X146071428Y-4275888D01*
X146071428Y-3918745D01*
X146000000Y-3775888D01*
X145928571Y-3704459D01*
X145785714Y-3633031D01*
X145500000Y-3633031D01*
X145357142Y-3704459D01*
X145285714Y-3775888D01*
X145214285Y-3918745D01*
X146714285Y-4418745D02*
X146785714Y-4490173D01*
X146714285Y-4561602D01*
X146642857Y-4490173D01*
X146714285Y-4418745D01*
X146714285Y-4561602D01*
X147714285Y-3061602D02*
X147857142Y-3061602D01*
X148000000Y-3133031D01*
X148071428Y-3204459D01*
X148142857Y-3347316D01*
X148214285Y-3633031D01*
X148214285Y-3990173D01*
X148142857Y-4275888D01*
X148071428Y-4418745D01*
X148000000Y-4490173D01*
X147857142Y-4561602D01*
X147714285Y-4561602D01*
X147571428Y-4490173D01*
X147500000Y-4418745D01*
X147428571Y-4275888D01*
X147357142Y-3990173D01*
X147357142Y-3633031D01*
X147428571Y-3347316D01*
X147500000Y-3204459D01*
X147571428Y-3133031D01*
X147714285Y-3061602D01*
X149142857Y-3061602D02*
X149285714Y-3061602D01*
X149428571Y-3133031D01*
X149500000Y-3204459D01*
X149571428Y-3347316D01*
X149642857Y-3633031D01*
X149642857Y-3990173D01*
X149571428Y-4275888D01*
X149500000Y-4418745D01*
X149428571Y-4490173D01*
X149285714Y-4561602D01*
X149142857Y-4561602D01*
X149000000Y-4490173D01*
X148928571Y-4418745D01*
X148857142Y-4275888D01*
X148785714Y-3990173D01*
X148785714Y-3633031D01*
X148857142Y-3347316D01*
X148928571Y-3204459D01*
X149000000Y-3133031D01*
X149142857Y-3061602D01*
X150571428Y-3061602D02*
X150714285Y-3061602D01*
X150857142Y-3133031D01*
X150928571Y-3204459D01*
X151000000Y-3347316D01*
X151071428Y-3633031D01*
X151071428Y-3990173D01*
X151000000Y-4275888D01*
X150928571Y-4418745D01*
X150857142Y-4490173D01*
X150714285Y-4561602D01*
X150571428Y-4561602D01*
X150428571Y-4490173D01*
X150357142Y-4418745D01*
X150285714Y-4275888D01*
X150214285Y-3990173D01*
X150214285Y-3633031D01*
X150285714Y-3347316D01*
X150357142Y-3204459D01*
X150428571Y-3133031D01*
X150571428Y-3061602D01*
X152857142Y-4561602D02*
X152857142Y-3561602D01*
X152857142Y-3704459D02*
X152928571Y-3633031D01*
X153071428Y-3561602D01*
X153285714Y-3561602D01*
X153428571Y-3633031D01*
X153500000Y-3775888D01*
X153500000Y-4561602D01*
X153500000Y-3775888D02*
X153571428Y-3633031D01*
X153714285Y-3561602D01*
X153928571Y-3561602D01*
X154071428Y-3633031D01*
X154142857Y-3775888D01*
X154142857Y-4561602D01*
X154857142Y-4561602D02*
X154857142Y-3561602D01*
X154857142Y-3704459D02*
X154928571Y-3633031D01*
X155071428Y-3561602D01*
X155285714Y-3561602D01*
X155428571Y-3633031D01*
X155500000Y-3775888D01*
X155500000Y-4561602D01*
X155500000Y-3775888D02*
X155571428Y-3633031D01*
X155714285Y-3561602D01*
X155928571Y-3561602D01*
X156071428Y-3633031D01*
X156142857Y-3775888D01*
X156142857Y-4561602D01*
X122000000Y-5983031D02*
X178000000Y-5983031D01*
X122000000Y-49983031D02*
X122000000Y-5396610D01*
X178000000Y-49983031D02*
X178000000Y-5396610D01*
X178000000Y-5983031D02*
X176873496Y-6569452D01*
X178000000Y-5983031D02*
X176873496Y-5396610D01*
X122000000Y-5983031D02*
X123126504Y-6569452D01*
X122000000Y-5983031D02*
X123126504Y-5396610D01*
D10*
X175400000Y-24600000D02*
X124600000Y-75400000D01*
X124600000Y-24600000D02*
X175400000Y-75400000D01*
M02*
