G04 #@! TF.GenerationSoftware,KiCad,Pcbnew,5.0.2-bee76a0~70~ubuntu18.04.1*
G04 #@! TF.CreationDate,2019-07-08T10:40:53+02:00*
G04 #@! TF.ProjectId,neuromime_1.0.1,6e657572-6f6d-4696-9d65-5f312e302e31,rev?*
G04 #@! TF.SameCoordinates,Original*
G04 #@! TF.FileFunction,Soldermask,Bot*
G04 #@! TF.FilePolarity,Negative*
%FSLAX46Y46*%
G04 Gerber Fmt 4.6, Leading zero omitted, Abs format (unit mm)*
G04 Created by KiCad (PCBNEW 5.0.2-bee76a0~70~ubuntu18.04.1) date Mon 08 Jul 2019 10:40:53 AM CEST*
%MOMM*%
%LPD*%
G01*
G04 APERTURE LIST*
%ADD10C,0.150000*%
G04 APERTURE END LIST*
D10*
G36*
X147636628Y-75655037D02*
X147749854Y-75689384D01*
X147806468Y-75706557D01*
X147945088Y-75780652D01*
X147962992Y-75790222D01*
X147998730Y-75819552D01*
X148100187Y-75902814D01*
X148183449Y-76004271D01*
X148212779Y-76040009D01*
X148212780Y-76040011D01*
X148296444Y-76196533D01*
X148296444Y-76196534D01*
X148347964Y-76366373D01*
X148361001Y-76498742D01*
X148361001Y-77887258D01*
X148347964Y-78019627D01*
X148313617Y-78132853D01*
X148296444Y-78189467D01*
X148222349Y-78328087D01*
X148212779Y-78345991D01*
X148183449Y-78381729D01*
X148100187Y-78483186D01*
X147962990Y-78595779D01*
X147806467Y-78679443D01*
X147749853Y-78696616D01*
X147636627Y-78730963D01*
X147460001Y-78748359D01*
X147283374Y-78730963D01*
X147170148Y-78696616D01*
X147113534Y-78679443D01*
X146957012Y-78595779D01*
X146957010Y-78595778D01*
X146921272Y-78566448D01*
X146819815Y-78483186D01*
X146707222Y-78345989D01*
X146623558Y-78189466D01*
X146606385Y-78132852D01*
X146572038Y-78019626D01*
X146559001Y-77887257D01*
X146559002Y-76498742D01*
X146572039Y-76366373D01*
X146623559Y-76196534D01*
X146623559Y-76196533D01*
X146707223Y-76040011D01*
X146707224Y-76040009D01*
X146736554Y-76004271D01*
X146819816Y-75902814D01*
X146921273Y-75819552D01*
X146957011Y-75790222D01*
X146974915Y-75780652D01*
X147113535Y-75706557D01*
X147170149Y-75689384D01*
X147283375Y-75655037D01*
X147460001Y-75637641D01*
X147636628Y-75655037D01*
X147636628Y-75655037D01*
G37*
G36*
X150176627Y-75655037D02*
X150289853Y-75689384D01*
X150346467Y-75706557D01*
X150485087Y-75780652D01*
X150502991Y-75790222D01*
X150538729Y-75819552D01*
X150640186Y-75902814D01*
X150723448Y-76004271D01*
X150752778Y-76040009D01*
X150752779Y-76040011D01*
X150836443Y-76196533D01*
X150836443Y-76196534D01*
X150887963Y-76366373D01*
X150901000Y-76498742D01*
X150901000Y-77887258D01*
X150887963Y-78019627D01*
X150853616Y-78132853D01*
X150836443Y-78189467D01*
X150762348Y-78328087D01*
X150752778Y-78345991D01*
X150723448Y-78381729D01*
X150640186Y-78483186D01*
X150502989Y-78595779D01*
X150346466Y-78679443D01*
X150289852Y-78696616D01*
X150176626Y-78730963D01*
X150000000Y-78748359D01*
X149823373Y-78730963D01*
X149710147Y-78696616D01*
X149653533Y-78679443D01*
X149497011Y-78595779D01*
X149497009Y-78595778D01*
X149461271Y-78566448D01*
X149359814Y-78483186D01*
X149247221Y-78345989D01*
X149163557Y-78189466D01*
X149146384Y-78132852D01*
X149112037Y-78019626D01*
X149099000Y-77887257D01*
X149099001Y-76498742D01*
X149112038Y-76366373D01*
X149163558Y-76196534D01*
X149163558Y-76196533D01*
X149247222Y-76040011D01*
X149247223Y-76040009D01*
X149276553Y-76004271D01*
X149359815Y-75902814D01*
X149461272Y-75819552D01*
X149497010Y-75790222D01*
X149514914Y-75780652D01*
X149653534Y-75706557D01*
X149710148Y-75689384D01*
X149823374Y-75655037D01*
X150000000Y-75637641D01*
X150176627Y-75655037D01*
X150176627Y-75655037D01*
G37*
G36*
X153441000Y-78744000D02*
X151639000Y-78744000D01*
X151639000Y-75642000D01*
X153441000Y-75642000D01*
X153441000Y-78744000D01*
X153441000Y-78744000D01*
G37*
G36*
X142292821Y-71957813D02*
X142292824Y-71957814D01*
X142292825Y-71957814D01*
X142453239Y-72006475D01*
X142453241Y-72006476D01*
X142453244Y-72006477D01*
X142601078Y-72085495D01*
X142730659Y-72191841D01*
X142837005Y-72321422D01*
X142916023Y-72469256D01*
X142964687Y-72629679D01*
X142981117Y-72796500D01*
X142964687Y-72963321D01*
X142916023Y-73123744D01*
X142837005Y-73271578D01*
X142730659Y-73401159D01*
X142601078Y-73507505D01*
X142453244Y-73586523D01*
X142453241Y-73586524D01*
X142453239Y-73586525D01*
X142292825Y-73635186D01*
X142292824Y-73635186D01*
X142292821Y-73635187D01*
X142167804Y-73647500D01*
X142084196Y-73647500D01*
X141959179Y-73635187D01*
X141959176Y-73635186D01*
X141959175Y-73635186D01*
X141798761Y-73586525D01*
X141798759Y-73586524D01*
X141798756Y-73586523D01*
X141650922Y-73507505D01*
X141521341Y-73401159D01*
X141414995Y-73271578D01*
X141335977Y-73123744D01*
X141287313Y-72963321D01*
X141270883Y-72796500D01*
X141287313Y-72629679D01*
X141335977Y-72469256D01*
X141414995Y-72321422D01*
X141521341Y-72191841D01*
X141650922Y-72085495D01*
X141798756Y-72006477D01*
X141798759Y-72006476D01*
X141798761Y-72006475D01*
X141959175Y-71957814D01*
X141959176Y-71957814D01*
X141959179Y-71957813D01*
X142084196Y-71945500D01*
X142167804Y-71945500D01*
X142292821Y-71957813D01*
X142292821Y-71957813D01*
G37*
G36*
X138609821Y-71957813D02*
X138609824Y-71957814D01*
X138609825Y-71957814D01*
X138770239Y-72006475D01*
X138770241Y-72006476D01*
X138770244Y-72006477D01*
X138918078Y-72085495D01*
X139047659Y-72191841D01*
X139154005Y-72321422D01*
X139233023Y-72469256D01*
X139281687Y-72629679D01*
X139298117Y-72796500D01*
X139281687Y-72963321D01*
X139233023Y-73123744D01*
X139154005Y-73271578D01*
X139047659Y-73401159D01*
X138918078Y-73507505D01*
X138770244Y-73586523D01*
X138770241Y-73586524D01*
X138770239Y-73586525D01*
X138609825Y-73635186D01*
X138609824Y-73635186D01*
X138609821Y-73635187D01*
X138484804Y-73647500D01*
X138401196Y-73647500D01*
X138276179Y-73635187D01*
X138276176Y-73635186D01*
X138276175Y-73635186D01*
X138115761Y-73586525D01*
X138115759Y-73586524D01*
X138115756Y-73586523D01*
X137967922Y-73507505D01*
X137838341Y-73401159D01*
X137731995Y-73271578D01*
X137652977Y-73123744D01*
X137604313Y-72963321D01*
X137587883Y-72796500D01*
X137604313Y-72629679D01*
X137652977Y-72469256D01*
X137731995Y-72321422D01*
X137838341Y-72191841D01*
X137967922Y-72085495D01*
X138115756Y-72006477D01*
X138115759Y-72006476D01*
X138115761Y-72006475D01*
X138276175Y-71957814D01*
X138276176Y-71957814D01*
X138276179Y-71957813D01*
X138401196Y-71945500D01*
X138484804Y-71945500D01*
X138609821Y-71957813D01*
X138609821Y-71957813D01*
G37*
G36*
X167176522Y-69704039D02*
X167346365Y-69755560D01*
X167398539Y-69783448D01*
X167502888Y-69839224D01*
X167605706Y-69923604D01*
X167605712Y-69923610D01*
X168587534Y-70905431D01*
X168671914Y-71008248D01*
X168755579Y-71164773D01*
X168807099Y-71334615D01*
X168824495Y-71511240D01*
X168807099Y-71687864D01*
X168755579Y-71857707D01*
X168671914Y-72014231D01*
X168559321Y-72151425D01*
X168422127Y-72264018D01*
X168265603Y-72347683D01*
X168095760Y-72399203D01*
X167919136Y-72416599D01*
X167742511Y-72399203D01*
X167572669Y-72347683D01*
X167416144Y-72264018D01*
X167313327Y-72179638D01*
X166331506Y-71197816D01*
X166331500Y-71197810D01*
X166247120Y-71094992D01*
X166191344Y-70990643D01*
X166163456Y-70938469D01*
X166111935Y-70768626D01*
X166094539Y-70592002D01*
X166111935Y-70415378D01*
X166163456Y-70245535D01*
X166202347Y-70172777D01*
X166247120Y-70089012D01*
X166359713Y-69951817D01*
X166496908Y-69839224D01*
X166601257Y-69783448D01*
X166653431Y-69755560D01*
X166823274Y-69704039D01*
X166999898Y-69686643D01*
X167176522Y-69704039D01*
X167176522Y-69704039D01*
G37*
G36*
X133258726Y-69658639D02*
X133428569Y-69710159D01*
X133585093Y-69793824D01*
X133722287Y-69906417D01*
X133834880Y-70043611D01*
X133918545Y-70200135D01*
X133970065Y-70369978D01*
X133987461Y-70546602D01*
X133970065Y-70723227D01*
X133918545Y-70893068D01*
X133834880Y-71049594D01*
X133750500Y-71152411D01*
X133215046Y-71687864D01*
X132768672Y-72134238D01*
X132665854Y-72218618D01*
X132561505Y-72274394D01*
X132509331Y-72302282D01*
X132339488Y-72353803D01*
X132162864Y-72371199D01*
X131986240Y-72353803D01*
X131816397Y-72302282D01*
X131764223Y-72274394D01*
X131659874Y-72218618D01*
X131522679Y-72106025D01*
X131410086Y-71968830D01*
X131350689Y-71857706D01*
X131326422Y-71812307D01*
X131274901Y-71642464D01*
X131257505Y-71465840D01*
X131274901Y-71289216D01*
X131326422Y-71119373D01*
X131384538Y-71010647D01*
X131410086Y-70962850D01*
X131494466Y-70860032D01*
X131984522Y-70369976D01*
X132476293Y-69878204D01*
X132579110Y-69793824D01*
X132735635Y-69710159D01*
X132905477Y-69658639D01*
X133082102Y-69641243D01*
X133258726Y-69658639D01*
X133258726Y-69658639D01*
G37*
G36*
X138691228Y-69438203D02*
X138846100Y-69502353D01*
X138985481Y-69595485D01*
X139104015Y-69714019D01*
X139197147Y-69853400D01*
X139261297Y-70008272D01*
X139294000Y-70172684D01*
X139294000Y-70340316D01*
X139261297Y-70504728D01*
X139197147Y-70659600D01*
X139104015Y-70798981D01*
X138985481Y-70917515D01*
X138846100Y-71010647D01*
X138691228Y-71074797D01*
X138526816Y-71107500D01*
X138359184Y-71107500D01*
X138194772Y-71074797D01*
X138039900Y-71010647D01*
X137900519Y-70917515D01*
X137781985Y-70798981D01*
X137688853Y-70659600D01*
X137624703Y-70504728D01*
X137592000Y-70340316D01*
X137592000Y-70172684D01*
X137624703Y-70008272D01*
X137688853Y-69853400D01*
X137781985Y-69714019D01*
X137900519Y-69595485D01*
X138039900Y-69502353D01*
X138194772Y-69438203D01*
X138359184Y-69405500D01*
X138526816Y-69405500D01*
X138691228Y-69438203D01*
X138691228Y-69438203D01*
G37*
G36*
X142374228Y-69438203D02*
X142529100Y-69502353D01*
X142668481Y-69595485D01*
X142787015Y-69714019D01*
X142880147Y-69853400D01*
X142944297Y-70008272D01*
X142977000Y-70172684D01*
X142977000Y-70340316D01*
X142944297Y-70504728D01*
X142880147Y-70659600D01*
X142787015Y-70798981D01*
X142668481Y-70917515D01*
X142529100Y-71010647D01*
X142374228Y-71074797D01*
X142209816Y-71107500D01*
X142042184Y-71107500D01*
X141877772Y-71074797D01*
X141722900Y-71010647D01*
X141583519Y-70917515D01*
X141464985Y-70798981D01*
X141371853Y-70659600D01*
X141307703Y-70504728D01*
X141275000Y-70340316D01*
X141275000Y-70172684D01*
X141307703Y-70008272D01*
X141371853Y-69853400D01*
X141464985Y-69714019D01*
X141583519Y-69595485D01*
X141722900Y-69502353D01*
X141877772Y-69438203D01*
X142042184Y-69405500D01*
X142209816Y-69405500D01*
X142374228Y-69438203D01*
X142374228Y-69438203D01*
G37*
G36*
X168972573Y-67907988D02*
X169142416Y-67959509D01*
X169194590Y-67987397D01*
X169298939Y-68043173D01*
X169401757Y-68127553D01*
X169401763Y-68127559D01*
X170383585Y-69109380D01*
X170467965Y-69212197D01*
X170551630Y-69368722D01*
X170603150Y-69538564D01*
X170620546Y-69715189D01*
X170603150Y-69891813D01*
X170551630Y-70061656D01*
X170467965Y-70218180D01*
X170355372Y-70355374D01*
X170218178Y-70467967D01*
X170061654Y-70551632D01*
X169891811Y-70603152D01*
X169715187Y-70620548D01*
X169538562Y-70603152D01*
X169368720Y-70551632D01*
X169212195Y-70467967D01*
X169109378Y-70383587D01*
X168127557Y-69401765D01*
X168127551Y-69401759D01*
X168043171Y-69298941D01*
X167986729Y-69193345D01*
X167959507Y-69142418D01*
X167907986Y-68972575D01*
X167890590Y-68795951D01*
X167907986Y-68619327D01*
X167959507Y-68449484D01*
X167998251Y-68377000D01*
X168043171Y-68292961D01*
X168155764Y-68155766D01*
X168292959Y-68043173D01*
X168397308Y-67987397D01*
X168449482Y-67959509D01*
X168619325Y-67907988D01*
X168795949Y-67890592D01*
X168972573Y-67907988D01*
X168972573Y-67907988D01*
G37*
G36*
X131462675Y-67862588D02*
X131632518Y-67914108D01*
X131789042Y-67997773D01*
X131926236Y-68110366D01*
X132038829Y-68247560D01*
X132122494Y-68404084D01*
X132174014Y-68573927D01*
X132191410Y-68750551D01*
X132174014Y-68927176D01*
X132122494Y-69097017D01*
X132038829Y-69253543D01*
X131954449Y-69356360D01*
X131457408Y-69853400D01*
X130972621Y-70338187D01*
X130869803Y-70422567D01*
X130765454Y-70478343D01*
X130713280Y-70506231D01*
X130543437Y-70557752D01*
X130366813Y-70575148D01*
X130190189Y-70557752D01*
X130020346Y-70506231D01*
X129968172Y-70478343D01*
X129863823Y-70422567D01*
X129726628Y-70309974D01*
X129614035Y-70172779D01*
X129554638Y-70061655D01*
X129530371Y-70016256D01*
X129478850Y-69846413D01*
X129461454Y-69669789D01*
X129478850Y-69493165D01*
X129530371Y-69323322D01*
X129589769Y-69212198D01*
X129614035Y-69166799D01*
X129698415Y-69063981D01*
X130188471Y-68573925D01*
X130680242Y-68082153D01*
X130783059Y-67997773D01*
X130939584Y-67914108D01*
X131109426Y-67862588D01*
X131286051Y-67845192D01*
X131462675Y-67862588D01*
X131462675Y-67862588D01*
G37*
G36*
X172785446Y-67919138D02*
X171511238Y-69193346D01*
X169317792Y-66999900D01*
X170592000Y-65725692D01*
X172785446Y-67919138D01*
X172785446Y-67919138D01*
G37*
G36*
X130764208Y-66954500D02*
X128570762Y-69147946D01*
X127296554Y-67873738D01*
X129490000Y-65680292D01*
X130764208Y-66954500D01*
X130764208Y-66954500D01*
G37*
G36*
X139199228Y-66707703D02*
X139354100Y-66771853D01*
X139493481Y-66864985D01*
X139612015Y-66983519D01*
X139705147Y-67122900D01*
X139769297Y-67277772D01*
X139802000Y-67442184D01*
X139802000Y-67609816D01*
X139769297Y-67774228D01*
X139705147Y-67929100D01*
X139612015Y-68068481D01*
X139493481Y-68187015D01*
X139354100Y-68280147D01*
X139199228Y-68344297D01*
X139034816Y-68377000D01*
X138867184Y-68377000D01*
X138702772Y-68344297D01*
X138547900Y-68280147D01*
X138408519Y-68187015D01*
X138289985Y-68068481D01*
X138196853Y-67929100D01*
X138132703Y-67774228D01*
X138100000Y-67609816D01*
X138100000Y-67442184D01*
X138132703Y-67277772D01*
X138196853Y-67122900D01*
X138289985Y-66983519D01*
X138408519Y-66864985D01*
X138547900Y-66771853D01*
X138702772Y-66707703D01*
X138867184Y-66675000D01*
X139034816Y-66675000D01*
X139199228Y-66707703D01*
X139199228Y-66707703D01*
G37*
G36*
X141699228Y-66707703D02*
X141854100Y-66771853D01*
X141993481Y-66864985D01*
X142112015Y-66983519D01*
X142205147Y-67122900D01*
X142269297Y-67277772D01*
X142302000Y-67442184D01*
X142302000Y-67609816D01*
X142269297Y-67774228D01*
X142205147Y-67929100D01*
X142112015Y-68068481D01*
X141993481Y-68187015D01*
X141854100Y-68280147D01*
X141699228Y-68344297D01*
X141534816Y-68377000D01*
X141367184Y-68377000D01*
X141202772Y-68344297D01*
X141047900Y-68280147D01*
X140908519Y-68187015D01*
X140789985Y-68068481D01*
X140696853Y-67929100D01*
X140632703Y-67774228D01*
X140600000Y-67609816D01*
X140600000Y-67442184D01*
X140632703Y-67277772D01*
X140696853Y-67122900D01*
X140789985Y-66983519D01*
X140908519Y-66864985D01*
X141047900Y-66771853D01*
X141202772Y-66707703D01*
X141367184Y-66675000D01*
X141534816Y-66675000D01*
X141699228Y-66707703D01*
X141699228Y-66707703D01*
G37*
G36*
X140006821Y-63766313D02*
X140006824Y-63766314D01*
X140006825Y-63766314D01*
X140167239Y-63814975D01*
X140167241Y-63814976D01*
X140167244Y-63814977D01*
X140315078Y-63893995D01*
X140444659Y-64000341D01*
X140551005Y-64129922D01*
X140630023Y-64277756D01*
X140630024Y-64277759D01*
X140630025Y-64277761D01*
X140678686Y-64438175D01*
X140678687Y-64438179D01*
X140695117Y-64605000D01*
X140678687Y-64771821D01*
X140678686Y-64771824D01*
X140678686Y-64771825D01*
X140666127Y-64813228D01*
X140630023Y-64932244D01*
X140551005Y-65080078D01*
X140444659Y-65209659D01*
X140315078Y-65316005D01*
X140167244Y-65395023D01*
X140167241Y-65395024D01*
X140167239Y-65395025D01*
X140006825Y-65443686D01*
X140006824Y-65443686D01*
X140006821Y-65443687D01*
X139881804Y-65456000D01*
X139798196Y-65456000D01*
X139673179Y-65443687D01*
X139673176Y-65443686D01*
X139673175Y-65443686D01*
X139512761Y-65395025D01*
X139512759Y-65395024D01*
X139512756Y-65395023D01*
X139364922Y-65316005D01*
X139235341Y-65209659D01*
X139128995Y-65080078D01*
X139049977Y-64932244D01*
X139013874Y-64813228D01*
X139001314Y-64771825D01*
X139001314Y-64771824D01*
X139001313Y-64771821D01*
X138984883Y-64605000D01*
X139001313Y-64438179D01*
X139001314Y-64438175D01*
X139049975Y-64277761D01*
X139049976Y-64277759D01*
X139049977Y-64277756D01*
X139128995Y-64129922D01*
X139235341Y-64000341D01*
X139364922Y-63893995D01*
X139512756Y-63814977D01*
X139512759Y-63814976D01*
X139512761Y-63814975D01*
X139673175Y-63766314D01*
X139673176Y-63766314D01*
X139673179Y-63766313D01*
X139798196Y-63754000D01*
X139881804Y-63754000D01*
X140006821Y-63766313D01*
X140006821Y-63766313D01*
G37*
G36*
X147626821Y-63766313D02*
X147626824Y-63766314D01*
X147626825Y-63766314D01*
X147787239Y-63814975D01*
X147787241Y-63814976D01*
X147787244Y-63814977D01*
X147935078Y-63893995D01*
X148064659Y-64000341D01*
X148171005Y-64129922D01*
X148250023Y-64277756D01*
X148250024Y-64277759D01*
X148250025Y-64277761D01*
X148298686Y-64438175D01*
X148298687Y-64438179D01*
X148315117Y-64605000D01*
X148298687Y-64771821D01*
X148298686Y-64771824D01*
X148298686Y-64771825D01*
X148286127Y-64813228D01*
X148250023Y-64932244D01*
X148171005Y-65080078D01*
X148064659Y-65209659D01*
X147935078Y-65316005D01*
X147787244Y-65395023D01*
X147787241Y-65395024D01*
X147787239Y-65395025D01*
X147626825Y-65443686D01*
X147626824Y-65443686D01*
X147626821Y-65443687D01*
X147501804Y-65456000D01*
X147418196Y-65456000D01*
X147293179Y-65443687D01*
X147293176Y-65443686D01*
X147293175Y-65443686D01*
X147132761Y-65395025D01*
X147132759Y-65395024D01*
X147132756Y-65395023D01*
X146984922Y-65316005D01*
X146855341Y-65209659D01*
X146748995Y-65080078D01*
X146669977Y-64932244D01*
X146633874Y-64813228D01*
X146621314Y-64771825D01*
X146621314Y-64771824D01*
X146621313Y-64771821D01*
X146604883Y-64605000D01*
X146621313Y-64438179D01*
X146621314Y-64438175D01*
X146669975Y-64277761D01*
X146669976Y-64277759D01*
X146669977Y-64277756D01*
X146748995Y-64129922D01*
X146855341Y-64000341D01*
X146984922Y-63893995D01*
X147132756Y-63814977D01*
X147132759Y-63814976D01*
X147132761Y-63814975D01*
X147293175Y-63766314D01*
X147293176Y-63766314D01*
X147293179Y-63766313D01*
X147418196Y-63754000D01*
X147501804Y-63754000D01*
X147626821Y-63766313D01*
X147626821Y-63766313D01*
G37*
G36*
X143898228Y-63746703D02*
X144053100Y-63810853D01*
X144192481Y-63903985D01*
X144311015Y-64022519D01*
X144404147Y-64161900D01*
X144468297Y-64316772D01*
X144501000Y-64481184D01*
X144501000Y-64648816D01*
X144468297Y-64813228D01*
X144404147Y-64968100D01*
X144311015Y-65107481D01*
X144192481Y-65226015D01*
X144053100Y-65319147D01*
X143898228Y-65383297D01*
X143733816Y-65416000D01*
X143566184Y-65416000D01*
X143401772Y-65383297D01*
X143246900Y-65319147D01*
X143107519Y-65226015D01*
X142988985Y-65107481D01*
X142895853Y-64968100D01*
X142831703Y-64813228D01*
X142799000Y-64648816D01*
X142799000Y-64481184D01*
X142831703Y-64316772D01*
X142895853Y-64161900D01*
X142988985Y-64022519D01*
X143107519Y-63903985D01*
X143246900Y-63810853D01*
X143401772Y-63746703D01*
X143566184Y-63714000D01*
X143733816Y-63714000D01*
X143898228Y-63746703D01*
X143898228Y-63746703D01*
G37*
G36*
X151200228Y-63723203D02*
X151355100Y-63787353D01*
X151494481Y-63880485D01*
X151613015Y-63999019D01*
X151706147Y-64138400D01*
X151770297Y-64293272D01*
X151803000Y-64457684D01*
X151803000Y-64625316D01*
X151770297Y-64789728D01*
X151706147Y-64944600D01*
X151613015Y-65083981D01*
X151494481Y-65202515D01*
X151355100Y-65295647D01*
X151200228Y-65359797D01*
X151035816Y-65392500D01*
X150868184Y-65392500D01*
X150703772Y-65359797D01*
X150548900Y-65295647D01*
X150409519Y-65202515D01*
X150290985Y-65083981D01*
X150197853Y-64944600D01*
X150133703Y-64789728D01*
X150101000Y-64625316D01*
X150101000Y-64457684D01*
X150133703Y-64293272D01*
X150197853Y-64138400D01*
X150290985Y-63999019D01*
X150409519Y-63880485D01*
X150548900Y-63787353D01*
X150703772Y-63723203D01*
X150868184Y-63690500D01*
X151035816Y-63690500D01*
X151200228Y-63723203D01*
X151200228Y-63723203D01*
G37*
G36*
X168644821Y-62242313D02*
X168644824Y-62242314D01*
X168644825Y-62242314D01*
X168805239Y-62290975D01*
X168805241Y-62290976D01*
X168805244Y-62290977D01*
X168953078Y-62369995D01*
X169082659Y-62476341D01*
X169189005Y-62605922D01*
X169268023Y-62753756D01*
X169268024Y-62753759D01*
X169268025Y-62753761D01*
X169316686Y-62914175D01*
X169316687Y-62914179D01*
X169333117Y-63081000D01*
X169316687Y-63247821D01*
X169316686Y-63247824D01*
X169316686Y-63247825D01*
X169273362Y-63390646D01*
X169268023Y-63408244D01*
X169189005Y-63556078D01*
X169082659Y-63685659D01*
X168953078Y-63792005D01*
X168805244Y-63871023D01*
X168805241Y-63871024D01*
X168805239Y-63871025D01*
X168644825Y-63919686D01*
X168644824Y-63919686D01*
X168644821Y-63919687D01*
X168519804Y-63932000D01*
X168436196Y-63932000D01*
X168311179Y-63919687D01*
X168311176Y-63919686D01*
X168311175Y-63919686D01*
X168150761Y-63871025D01*
X168150759Y-63871024D01*
X168150756Y-63871023D01*
X168002922Y-63792005D01*
X167873341Y-63685659D01*
X167766995Y-63556078D01*
X167687977Y-63408244D01*
X167682639Y-63390646D01*
X167639314Y-63247825D01*
X167639314Y-63247824D01*
X167639313Y-63247821D01*
X167622883Y-63081000D01*
X167639313Y-62914179D01*
X167639314Y-62914175D01*
X167687975Y-62753761D01*
X167687976Y-62753759D01*
X167687977Y-62753756D01*
X167766995Y-62605922D01*
X167873341Y-62476341D01*
X168002922Y-62369995D01*
X168150756Y-62290977D01*
X168150759Y-62290976D01*
X168150761Y-62290975D01*
X168311175Y-62242314D01*
X168311176Y-62242314D01*
X168311179Y-62242313D01*
X168436196Y-62230000D01*
X168519804Y-62230000D01*
X168644821Y-62242313D01*
X168644821Y-62242313D01*
G37*
G36*
X166186228Y-62262703D02*
X166341100Y-62326853D01*
X166480481Y-62419985D01*
X166599015Y-62538519D01*
X166692147Y-62677900D01*
X166756297Y-62832772D01*
X166789000Y-62997184D01*
X166789000Y-63164816D01*
X166756297Y-63329228D01*
X166692147Y-63484100D01*
X166599015Y-63623481D01*
X166480481Y-63742015D01*
X166341100Y-63835147D01*
X166186228Y-63899297D01*
X166021816Y-63932000D01*
X165854184Y-63932000D01*
X165689772Y-63899297D01*
X165534900Y-63835147D01*
X165395519Y-63742015D01*
X165276985Y-63623481D01*
X165183853Y-63484100D01*
X165119703Y-63329228D01*
X165087000Y-63164816D01*
X165087000Y-62997184D01*
X165119703Y-62832772D01*
X165183853Y-62677900D01*
X165276985Y-62538519D01*
X165395519Y-62419985D01*
X165534900Y-62326853D01*
X165689772Y-62262703D01*
X165854184Y-62230000D01*
X166021816Y-62230000D01*
X166186228Y-62262703D01*
X166186228Y-62262703D01*
G37*
G36*
X158058228Y-62199203D02*
X158213100Y-62263353D01*
X158352481Y-62356485D01*
X158471015Y-62475019D01*
X158564147Y-62614400D01*
X158628297Y-62769272D01*
X158661000Y-62933684D01*
X158661000Y-63101316D01*
X158628297Y-63265728D01*
X158564147Y-63420600D01*
X158471015Y-63559981D01*
X158352481Y-63678515D01*
X158213100Y-63771647D01*
X158058228Y-63835797D01*
X157893816Y-63868500D01*
X157726184Y-63868500D01*
X157561772Y-63835797D01*
X157406900Y-63771647D01*
X157267519Y-63678515D01*
X157148985Y-63559981D01*
X157055853Y-63420600D01*
X156991703Y-63265728D01*
X156959000Y-63101316D01*
X156959000Y-62933684D01*
X156991703Y-62769272D01*
X157055853Y-62614400D01*
X157148985Y-62475019D01*
X157267519Y-62356485D01*
X157406900Y-62263353D01*
X157561772Y-62199203D01*
X157726184Y-62166500D01*
X157893816Y-62166500D01*
X158058228Y-62199203D01*
X158058228Y-62199203D01*
G37*
G36*
X155436821Y-62178813D02*
X155436824Y-62178814D01*
X155436825Y-62178814D01*
X155597239Y-62227475D01*
X155597241Y-62227476D01*
X155597244Y-62227477D01*
X155745078Y-62306495D01*
X155874659Y-62412841D01*
X155981005Y-62542422D01*
X156060023Y-62690256D01*
X156060024Y-62690259D01*
X156060025Y-62690261D01*
X156108686Y-62850675D01*
X156108687Y-62850679D01*
X156125117Y-63017500D01*
X156108687Y-63184321D01*
X156108686Y-63184324D01*
X156108686Y-63184325D01*
X156074351Y-63297514D01*
X156060023Y-63344744D01*
X155981005Y-63492578D01*
X155874659Y-63622159D01*
X155745078Y-63728505D01*
X155597244Y-63807523D01*
X155597241Y-63807524D01*
X155597239Y-63807525D01*
X155436825Y-63856186D01*
X155436824Y-63856186D01*
X155436821Y-63856187D01*
X155311804Y-63868500D01*
X155228196Y-63868500D01*
X155103179Y-63856187D01*
X155103176Y-63856186D01*
X155103175Y-63856186D01*
X154942761Y-63807525D01*
X154942759Y-63807524D01*
X154942756Y-63807523D01*
X154794922Y-63728505D01*
X154665341Y-63622159D01*
X154558995Y-63492578D01*
X154479977Y-63344744D01*
X154465650Y-63297514D01*
X154431314Y-63184325D01*
X154431314Y-63184324D01*
X154431313Y-63184321D01*
X154414883Y-63017500D01*
X154431313Y-62850679D01*
X154431314Y-62850675D01*
X154479975Y-62690261D01*
X154479976Y-62690259D01*
X154479977Y-62690256D01*
X154558995Y-62542422D01*
X154665341Y-62412841D01*
X154794922Y-62306495D01*
X154942756Y-62227477D01*
X154942759Y-62227476D01*
X154942761Y-62227475D01*
X155103175Y-62178814D01*
X155103176Y-62178814D01*
X155103179Y-62178813D01*
X155228196Y-62166500D01*
X155311804Y-62166500D01*
X155436821Y-62178813D01*
X155436821Y-62178813D01*
G37*
G36*
X160852228Y-61818203D02*
X161007100Y-61882353D01*
X161146481Y-61975485D01*
X161265015Y-62094019D01*
X161358147Y-62233400D01*
X161422297Y-62388272D01*
X161455000Y-62552684D01*
X161455000Y-62720316D01*
X161422297Y-62884728D01*
X161358147Y-63039600D01*
X161265015Y-63178981D01*
X161146481Y-63297515D01*
X161007100Y-63390647D01*
X160852228Y-63454797D01*
X160687816Y-63487500D01*
X160520184Y-63487500D01*
X160355772Y-63454797D01*
X160200900Y-63390647D01*
X160061519Y-63297515D01*
X159942985Y-63178981D01*
X159849853Y-63039600D01*
X159785703Y-62884728D01*
X159753000Y-62720316D01*
X159753000Y-62552684D01*
X159785703Y-62388272D01*
X159849853Y-62233400D01*
X159942985Y-62094019D01*
X160061519Y-61975485D01*
X160200900Y-61882353D01*
X160355772Y-61818203D01*
X160520184Y-61785500D01*
X160687816Y-61785500D01*
X160852228Y-61818203D01*
X160852228Y-61818203D01*
G37*
G36*
X163352228Y-61818203D02*
X163507100Y-61882353D01*
X163646481Y-61975485D01*
X163765015Y-62094019D01*
X163858147Y-62233400D01*
X163922297Y-62388272D01*
X163955000Y-62552684D01*
X163955000Y-62720316D01*
X163922297Y-62884728D01*
X163858147Y-63039600D01*
X163765015Y-63178981D01*
X163646481Y-63297515D01*
X163507100Y-63390647D01*
X163352228Y-63454797D01*
X163187816Y-63487500D01*
X163020184Y-63487500D01*
X162855772Y-63454797D01*
X162700900Y-63390647D01*
X162561519Y-63297515D01*
X162442985Y-63178981D01*
X162349853Y-63039600D01*
X162285703Y-62884728D01*
X162253000Y-62720316D01*
X162253000Y-62552684D01*
X162285703Y-62388272D01*
X162349853Y-62233400D01*
X162442985Y-62094019D01*
X162561519Y-61975485D01*
X162700900Y-61882353D01*
X162855772Y-61818203D01*
X163020184Y-61785500D01*
X163187816Y-61785500D01*
X163352228Y-61818203D01*
X163352228Y-61818203D01*
G37*
G36*
X136013443Y-61170519D02*
X136079627Y-61177037D01*
X136192853Y-61211384D01*
X136249467Y-61228557D01*
X136336311Y-61274977D01*
X136405991Y-61312222D01*
X136441729Y-61341552D01*
X136543186Y-61424814D01*
X136623369Y-61522519D01*
X136655778Y-61562009D01*
X136655779Y-61562011D01*
X136739443Y-61718533D01*
X136756616Y-61775147D01*
X136790963Y-61888373D01*
X136808359Y-62065000D01*
X136790963Y-62241627D01*
X136771285Y-62306496D01*
X136739443Y-62411467D01*
X136704640Y-62476578D01*
X136655778Y-62567991D01*
X136626448Y-62603729D01*
X136543186Y-62705186D01*
X136441729Y-62788448D01*
X136405991Y-62817778D01*
X136405989Y-62817779D01*
X136249467Y-62901443D01*
X136242069Y-62903687D01*
X136079627Y-62952963D01*
X136013443Y-62959481D01*
X135947260Y-62966000D01*
X135858740Y-62966000D01*
X135792557Y-62959481D01*
X135726373Y-62952963D01*
X135563931Y-62903687D01*
X135556533Y-62901443D01*
X135400011Y-62817779D01*
X135400009Y-62817778D01*
X135364271Y-62788448D01*
X135262814Y-62705186D01*
X135179552Y-62603729D01*
X135150222Y-62567991D01*
X135101360Y-62476578D01*
X135066557Y-62411467D01*
X135034715Y-62306496D01*
X135015037Y-62241627D01*
X134997641Y-62065000D01*
X135015037Y-61888373D01*
X135049384Y-61775147D01*
X135066557Y-61718533D01*
X135150221Y-61562011D01*
X135150222Y-61562009D01*
X135182631Y-61522519D01*
X135262814Y-61424814D01*
X135364271Y-61341552D01*
X135400009Y-61312222D01*
X135469689Y-61274977D01*
X135556533Y-61228557D01*
X135613147Y-61211384D01*
X135726373Y-61177037D01*
X135792557Y-61170519D01*
X135858740Y-61164000D01*
X135947260Y-61164000D01*
X136013443Y-61170519D01*
X136013443Y-61170519D01*
G37*
G36*
X140006821Y-61226313D02*
X140006824Y-61226314D01*
X140006825Y-61226314D01*
X140167239Y-61274975D01*
X140167241Y-61274976D01*
X140167244Y-61274977D01*
X140315078Y-61353995D01*
X140444659Y-61460341D01*
X140551005Y-61589922D01*
X140630023Y-61737756D01*
X140630024Y-61737759D01*
X140630025Y-61737761D01*
X140675713Y-61888375D01*
X140678687Y-61898179D01*
X140695117Y-62065000D01*
X140678687Y-62231821D01*
X140678686Y-62231824D01*
X140678686Y-62231825D01*
X140636773Y-62369995D01*
X140630023Y-62392244D01*
X140551005Y-62540078D01*
X140444659Y-62669659D01*
X140315078Y-62776005D01*
X140167244Y-62855023D01*
X140167241Y-62855024D01*
X140167239Y-62855025D01*
X140006825Y-62903686D01*
X140006824Y-62903686D01*
X140006821Y-62903687D01*
X139881804Y-62916000D01*
X139798196Y-62916000D01*
X139673179Y-62903687D01*
X139673176Y-62903686D01*
X139673175Y-62903686D01*
X139512761Y-62855025D01*
X139512759Y-62855024D01*
X139512756Y-62855023D01*
X139364922Y-62776005D01*
X139235341Y-62669659D01*
X139128995Y-62540078D01*
X139049977Y-62392244D01*
X139043228Y-62369995D01*
X139001314Y-62231825D01*
X139001314Y-62231824D01*
X139001313Y-62231821D01*
X138984883Y-62065000D01*
X139001313Y-61898179D01*
X139004287Y-61888375D01*
X139049975Y-61737761D01*
X139049976Y-61737759D01*
X139049977Y-61737756D01*
X139128995Y-61589922D01*
X139235341Y-61460341D01*
X139364922Y-61353995D01*
X139512756Y-61274977D01*
X139512759Y-61274976D01*
X139512761Y-61274975D01*
X139673175Y-61226314D01*
X139673176Y-61226314D01*
X139673179Y-61226313D01*
X139798196Y-61214000D01*
X139881804Y-61214000D01*
X140006821Y-61226313D01*
X140006821Y-61226313D01*
G37*
G36*
X143898228Y-61246703D02*
X144053100Y-61310853D01*
X144192481Y-61403985D01*
X144311015Y-61522519D01*
X144404147Y-61661900D01*
X144468297Y-61816772D01*
X144501000Y-61981184D01*
X144501000Y-62148816D01*
X144468297Y-62313228D01*
X144404147Y-62468100D01*
X144311015Y-62607481D01*
X144192481Y-62726015D01*
X144053100Y-62819147D01*
X143898228Y-62883297D01*
X143733816Y-62916000D01*
X143566184Y-62916000D01*
X143401772Y-62883297D01*
X143246900Y-62819147D01*
X143107519Y-62726015D01*
X142988985Y-62607481D01*
X142895853Y-62468100D01*
X142831703Y-62313228D01*
X142799000Y-62148816D01*
X142799000Y-61981184D01*
X142831703Y-61816772D01*
X142895853Y-61661900D01*
X142988985Y-61522519D01*
X143107519Y-61403985D01*
X143246900Y-61310853D01*
X143401772Y-61246703D01*
X143566184Y-61214000D01*
X143733816Y-61214000D01*
X143898228Y-61246703D01*
X143898228Y-61246703D01*
G37*
G36*
X147626821Y-61226313D02*
X147626824Y-61226314D01*
X147626825Y-61226314D01*
X147787239Y-61274975D01*
X147787241Y-61274976D01*
X147787244Y-61274977D01*
X147935078Y-61353995D01*
X148064659Y-61460341D01*
X148171005Y-61589922D01*
X148250023Y-61737756D01*
X148250024Y-61737759D01*
X148250025Y-61737761D01*
X148295713Y-61888375D01*
X148298687Y-61898179D01*
X148315117Y-62065000D01*
X148298687Y-62231821D01*
X148298686Y-62231824D01*
X148298686Y-62231825D01*
X148256773Y-62369995D01*
X148250023Y-62392244D01*
X148171005Y-62540078D01*
X148064659Y-62669659D01*
X147935078Y-62776005D01*
X147787244Y-62855023D01*
X147787241Y-62855024D01*
X147787239Y-62855025D01*
X147626825Y-62903686D01*
X147626824Y-62903686D01*
X147626821Y-62903687D01*
X147501804Y-62916000D01*
X147418196Y-62916000D01*
X147293179Y-62903687D01*
X147293176Y-62903686D01*
X147293175Y-62903686D01*
X147132761Y-62855025D01*
X147132759Y-62855024D01*
X147132756Y-62855023D01*
X146984922Y-62776005D01*
X146855341Y-62669659D01*
X146748995Y-62540078D01*
X146669977Y-62392244D01*
X146663228Y-62369995D01*
X146621314Y-62231825D01*
X146621314Y-62231824D01*
X146621313Y-62231821D01*
X146604883Y-62065000D01*
X146621313Y-61898179D01*
X146624287Y-61888375D01*
X146669975Y-61737761D01*
X146669976Y-61737759D01*
X146669977Y-61737756D01*
X146748995Y-61589922D01*
X146855341Y-61460341D01*
X146984922Y-61353995D01*
X147132756Y-61274977D01*
X147132759Y-61274976D01*
X147132761Y-61274975D01*
X147293175Y-61226314D01*
X147293176Y-61226314D01*
X147293179Y-61226313D01*
X147418196Y-61214000D01*
X147501804Y-61214000D01*
X147626821Y-61226313D01*
X147626821Y-61226313D01*
G37*
G36*
X151118821Y-61162813D02*
X151118824Y-61162814D01*
X151118825Y-61162814D01*
X151279239Y-61211475D01*
X151279241Y-61211476D01*
X151279244Y-61211477D01*
X151427078Y-61290495D01*
X151556659Y-61396841D01*
X151663005Y-61526422D01*
X151742023Y-61674256D01*
X151742024Y-61674259D01*
X151742025Y-61674261D01*
X151790686Y-61834675D01*
X151790687Y-61834679D01*
X151807117Y-62001500D01*
X151790687Y-62168321D01*
X151790686Y-62168324D01*
X151790686Y-62168325D01*
X151742597Y-62326854D01*
X151742023Y-62328744D01*
X151663005Y-62476578D01*
X151556659Y-62606159D01*
X151427078Y-62712505D01*
X151279244Y-62791523D01*
X151279241Y-62791524D01*
X151279239Y-62791525D01*
X151118825Y-62840186D01*
X151118824Y-62840186D01*
X151118821Y-62840187D01*
X150993804Y-62852500D01*
X150910196Y-62852500D01*
X150785179Y-62840187D01*
X150785176Y-62840186D01*
X150785175Y-62840186D01*
X150624761Y-62791525D01*
X150624759Y-62791524D01*
X150624756Y-62791523D01*
X150476922Y-62712505D01*
X150347341Y-62606159D01*
X150240995Y-62476578D01*
X150161977Y-62328744D01*
X150161404Y-62326854D01*
X150113314Y-62168325D01*
X150113314Y-62168324D01*
X150113313Y-62168321D01*
X150096883Y-62001500D01*
X150113313Y-61834679D01*
X150113314Y-61834675D01*
X150161975Y-61674261D01*
X150161976Y-61674259D01*
X150161977Y-61674256D01*
X150240995Y-61526422D01*
X150347341Y-61396841D01*
X150476922Y-61290495D01*
X150624756Y-61211477D01*
X150624759Y-61211476D01*
X150624761Y-61211475D01*
X150785175Y-61162814D01*
X150785176Y-61162814D01*
X150785179Y-61162813D01*
X150910196Y-61150500D01*
X150993804Y-61150500D01*
X151118821Y-61162813D01*
X151118821Y-61162813D01*
G37*
G36*
X129868180Y-58380662D02*
X129969635Y-58390654D01*
X130186600Y-58456470D01*
X130186602Y-58456471D01*
X130186605Y-58456472D01*
X130386556Y-58563347D01*
X130561818Y-58707182D01*
X130705653Y-58882444D01*
X130812528Y-59082395D01*
X130812529Y-59082398D01*
X130812530Y-59082400D01*
X130878346Y-59299365D01*
X130883602Y-59352731D01*
X130888383Y-59376765D01*
X130897760Y-59399404D01*
X130911374Y-59419778D01*
X130928701Y-59437105D01*
X130949076Y-59450719D01*
X130971715Y-59460097D01*
X130995748Y-59464877D01*
X131020252Y-59464877D01*
X131044286Y-59460096D01*
X131066925Y-59450719D01*
X131087299Y-59437105D01*
X131104626Y-59419778D01*
X131118240Y-59399403D01*
X131127618Y-59376764D01*
X131133000Y-59340479D01*
X131133000Y-58374000D01*
X133435000Y-58374000D01*
X133435000Y-60676000D01*
X131133000Y-60676000D01*
X131133000Y-59709521D01*
X131130598Y-59685135D01*
X131123485Y-59661686D01*
X131111934Y-59640075D01*
X131096388Y-59621133D01*
X131077446Y-59605587D01*
X131055835Y-59594036D01*
X131032386Y-59586923D01*
X131008000Y-59584521D01*
X130983614Y-59586923D01*
X130960165Y-59594036D01*
X130938554Y-59605587D01*
X130919612Y-59621133D01*
X130904066Y-59640075D01*
X130892515Y-59661686D01*
X130883602Y-59697269D01*
X130878346Y-59750635D01*
X130816352Y-59955000D01*
X130812528Y-59967605D01*
X130705653Y-60167556D01*
X130561818Y-60342818D01*
X130386556Y-60486653D01*
X130186605Y-60593528D01*
X130186602Y-60593529D01*
X130186600Y-60593530D01*
X129969635Y-60659346D01*
X129868180Y-60669338D01*
X129800545Y-60676000D01*
X129687455Y-60676000D01*
X129619820Y-60669338D01*
X129518365Y-60659346D01*
X129301400Y-60593530D01*
X129301398Y-60593529D01*
X129301395Y-60593528D01*
X129101444Y-60486653D01*
X128926182Y-60342818D01*
X128782347Y-60167556D01*
X128675472Y-59967605D01*
X128671648Y-59955000D01*
X128609654Y-59750635D01*
X128587431Y-59525000D01*
X128609654Y-59299365D01*
X128675470Y-59082400D01*
X128675471Y-59082398D01*
X128675472Y-59082395D01*
X128782347Y-58882444D01*
X128926182Y-58707182D01*
X129101444Y-58563347D01*
X129301395Y-58456472D01*
X129301398Y-58456471D01*
X129301400Y-58456470D01*
X129518365Y-58390654D01*
X129619820Y-58380662D01*
X129687455Y-58374000D01*
X129800545Y-58374000D01*
X129868180Y-58380662D01*
X129868180Y-58380662D01*
G37*
G36*
X168136821Y-58813313D02*
X168136824Y-58813314D01*
X168136825Y-58813314D01*
X168297239Y-58861975D01*
X168297241Y-58861976D01*
X168297244Y-58861977D01*
X168445078Y-58940995D01*
X168574659Y-59047341D01*
X168681005Y-59176922D01*
X168760023Y-59324756D01*
X168760024Y-59324759D01*
X168760025Y-59324761D01*
X168808686Y-59485175D01*
X168808687Y-59485179D01*
X168825117Y-59652000D01*
X168808687Y-59818821D01*
X168808686Y-59818824D01*
X168808686Y-59818825D01*
X168763556Y-59967600D01*
X168760023Y-59979244D01*
X168681005Y-60127078D01*
X168574659Y-60256659D01*
X168445078Y-60363005D01*
X168297244Y-60442023D01*
X168297241Y-60442024D01*
X168297239Y-60442025D01*
X168136825Y-60490686D01*
X168136824Y-60490686D01*
X168136821Y-60490687D01*
X168011804Y-60503000D01*
X167928196Y-60503000D01*
X167803179Y-60490687D01*
X167803176Y-60490686D01*
X167803175Y-60490686D01*
X167642761Y-60442025D01*
X167642759Y-60442024D01*
X167642756Y-60442023D01*
X167494922Y-60363005D01*
X167365341Y-60256659D01*
X167258995Y-60127078D01*
X167179977Y-59979244D01*
X167176445Y-59967600D01*
X167131314Y-59818825D01*
X167131314Y-59818824D01*
X167131313Y-59818821D01*
X167114883Y-59652000D01*
X167131313Y-59485179D01*
X167131314Y-59485175D01*
X167179975Y-59324761D01*
X167179976Y-59324759D01*
X167179977Y-59324756D01*
X167258995Y-59176922D01*
X167365341Y-59047341D01*
X167494922Y-58940995D01*
X167642756Y-58861977D01*
X167642759Y-58861976D01*
X167642761Y-58861975D01*
X167803175Y-58813314D01*
X167803176Y-58813314D01*
X167803179Y-58813313D01*
X167928196Y-58801000D01*
X168011804Y-58801000D01*
X168136821Y-58813313D01*
X168136821Y-58813313D01*
G37*
G36*
X157088821Y-58813313D02*
X157088824Y-58813314D01*
X157088825Y-58813314D01*
X157249239Y-58861975D01*
X157249241Y-58861976D01*
X157249244Y-58861977D01*
X157397078Y-58940995D01*
X157526659Y-59047341D01*
X157633005Y-59176922D01*
X157712023Y-59324756D01*
X157712024Y-59324759D01*
X157712025Y-59324761D01*
X157760686Y-59485175D01*
X157760687Y-59485179D01*
X157777117Y-59652000D01*
X157760687Y-59818821D01*
X157760686Y-59818824D01*
X157760686Y-59818825D01*
X157715556Y-59967600D01*
X157712023Y-59979244D01*
X157633005Y-60127078D01*
X157526659Y-60256659D01*
X157397078Y-60363005D01*
X157249244Y-60442023D01*
X157249241Y-60442024D01*
X157249239Y-60442025D01*
X157088825Y-60490686D01*
X157088824Y-60490686D01*
X157088821Y-60490687D01*
X156963804Y-60503000D01*
X156880196Y-60503000D01*
X156755179Y-60490687D01*
X156755176Y-60490686D01*
X156755175Y-60490686D01*
X156594761Y-60442025D01*
X156594759Y-60442024D01*
X156594756Y-60442023D01*
X156446922Y-60363005D01*
X156317341Y-60256659D01*
X156210995Y-60127078D01*
X156131977Y-59979244D01*
X156128445Y-59967600D01*
X156083314Y-59818825D01*
X156083314Y-59818824D01*
X156083313Y-59818821D01*
X156066883Y-59652000D01*
X156083313Y-59485179D01*
X156083314Y-59485175D01*
X156131975Y-59324761D01*
X156131976Y-59324759D01*
X156131977Y-59324756D01*
X156210995Y-59176922D01*
X156317341Y-59047341D01*
X156446922Y-58940995D01*
X156594756Y-58861977D01*
X156594759Y-58861976D01*
X156594761Y-58861975D01*
X156755175Y-58813314D01*
X156755176Y-58813314D01*
X156755179Y-58813313D01*
X156880196Y-58801000D01*
X156963804Y-58801000D01*
X157088821Y-58813313D01*
X157088821Y-58813313D01*
G37*
G36*
X160980228Y-58833703D02*
X161135100Y-58897853D01*
X161274481Y-58990985D01*
X161393015Y-59109519D01*
X161486147Y-59248900D01*
X161550297Y-59403772D01*
X161583000Y-59568184D01*
X161583000Y-59735816D01*
X161550297Y-59900228D01*
X161486147Y-60055100D01*
X161393015Y-60194481D01*
X161274481Y-60313015D01*
X161135100Y-60406147D01*
X160980228Y-60470297D01*
X160815816Y-60503000D01*
X160648184Y-60503000D01*
X160483772Y-60470297D01*
X160328900Y-60406147D01*
X160189519Y-60313015D01*
X160070985Y-60194481D01*
X159977853Y-60055100D01*
X159913703Y-59900228D01*
X159881000Y-59735816D01*
X159881000Y-59568184D01*
X159913703Y-59403772D01*
X159977853Y-59248900D01*
X160070985Y-59109519D01*
X160189519Y-58990985D01*
X160328900Y-58897853D01*
X160483772Y-58833703D01*
X160648184Y-58801000D01*
X160815816Y-58801000D01*
X160980228Y-58833703D01*
X160980228Y-58833703D01*
G37*
G36*
X164708821Y-58813313D02*
X164708824Y-58813314D01*
X164708825Y-58813314D01*
X164869239Y-58861975D01*
X164869241Y-58861976D01*
X164869244Y-58861977D01*
X165017078Y-58940995D01*
X165146659Y-59047341D01*
X165253005Y-59176922D01*
X165332023Y-59324756D01*
X165332024Y-59324759D01*
X165332025Y-59324761D01*
X165380686Y-59485175D01*
X165380687Y-59485179D01*
X165397117Y-59652000D01*
X165380687Y-59818821D01*
X165380686Y-59818824D01*
X165380686Y-59818825D01*
X165335556Y-59967600D01*
X165332023Y-59979244D01*
X165253005Y-60127078D01*
X165146659Y-60256659D01*
X165017078Y-60363005D01*
X164869244Y-60442023D01*
X164869241Y-60442024D01*
X164869239Y-60442025D01*
X164708825Y-60490686D01*
X164708824Y-60490686D01*
X164708821Y-60490687D01*
X164583804Y-60503000D01*
X164500196Y-60503000D01*
X164375179Y-60490687D01*
X164375176Y-60490686D01*
X164375175Y-60490686D01*
X164214761Y-60442025D01*
X164214759Y-60442024D01*
X164214756Y-60442023D01*
X164066922Y-60363005D01*
X163937341Y-60256659D01*
X163830995Y-60127078D01*
X163751977Y-59979244D01*
X163748445Y-59967600D01*
X163703314Y-59818825D01*
X163703314Y-59818824D01*
X163703313Y-59818821D01*
X163686883Y-59652000D01*
X163703313Y-59485179D01*
X163703314Y-59485175D01*
X163751975Y-59324761D01*
X163751976Y-59324759D01*
X163751977Y-59324756D01*
X163830995Y-59176922D01*
X163937341Y-59047341D01*
X164066922Y-58940995D01*
X164214756Y-58861977D01*
X164214759Y-58861976D01*
X164214761Y-58861975D01*
X164375175Y-58813314D01*
X164375176Y-58813314D01*
X164375179Y-58813313D01*
X164500196Y-58801000D01*
X164583804Y-58801000D01*
X164708821Y-58813313D01*
X164708821Y-58813313D01*
G37*
G36*
X172790228Y-58793703D02*
X172945100Y-58857853D01*
X173084481Y-58950985D01*
X173203015Y-59069519D01*
X173296147Y-59208900D01*
X173360297Y-59363772D01*
X173393000Y-59528184D01*
X173393000Y-59695816D01*
X173360297Y-59860228D01*
X173296147Y-60015100D01*
X173203015Y-60154481D01*
X173084481Y-60273015D01*
X172945100Y-60366147D01*
X172790228Y-60430297D01*
X172625816Y-60463000D01*
X172458184Y-60463000D01*
X172293772Y-60430297D01*
X172138900Y-60366147D01*
X171999519Y-60273015D01*
X171880985Y-60154481D01*
X171787853Y-60015100D01*
X171723703Y-59860228D01*
X171691000Y-59695816D01*
X171691000Y-59528184D01*
X171723703Y-59363772D01*
X171787853Y-59208900D01*
X171880985Y-59069519D01*
X171999519Y-58950985D01*
X172138900Y-58857853D01*
X172293772Y-58793703D01*
X172458184Y-58761000D01*
X172625816Y-58761000D01*
X172790228Y-58793703D01*
X172790228Y-58793703D01*
G37*
G36*
X136804000Y-60426000D02*
X135002000Y-60426000D01*
X135002000Y-58624000D01*
X136804000Y-58624000D01*
X136804000Y-60426000D01*
X136804000Y-60426000D01*
G37*
G36*
X147626821Y-58686313D02*
X147626824Y-58686314D01*
X147626825Y-58686314D01*
X147787239Y-58734975D01*
X147787241Y-58734976D01*
X147787244Y-58734977D01*
X147935078Y-58813995D01*
X148064659Y-58920341D01*
X148171005Y-59049922D01*
X148250023Y-59197756D01*
X148250024Y-59197759D01*
X148250025Y-59197761D01*
X148298686Y-59358175D01*
X148298687Y-59358179D01*
X148315117Y-59525000D01*
X148298687Y-59691821D01*
X148298686Y-59691824D01*
X148298686Y-59691825D01*
X148286127Y-59733228D01*
X148250023Y-59852244D01*
X148171005Y-60000078D01*
X148064659Y-60129659D01*
X147935078Y-60236005D01*
X147787244Y-60315023D01*
X147787241Y-60315024D01*
X147787239Y-60315025D01*
X147626825Y-60363686D01*
X147626824Y-60363686D01*
X147626821Y-60363687D01*
X147501804Y-60376000D01*
X147418196Y-60376000D01*
X147293179Y-60363687D01*
X147293176Y-60363686D01*
X147293175Y-60363686D01*
X147132761Y-60315025D01*
X147132759Y-60315024D01*
X147132756Y-60315023D01*
X146984922Y-60236005D01*
X146855341Y-60129659D01*
X146748995Y-60000078D01*
X146669977Y-59852244D01*
X146633874Y-59733228D01*
X146621314Y-59691825D01*
X146621314Y-59691824D01*
X146621313Y-59691821D01*
X146604883Y-59525000D01*
X146621313Y-59358179D01*
X146621314Y-59358175D01*
X146669975Y-59197761D01*
X146669976Y-59197759D01*
X146669977Y-59197756D01*
X146748995Y-59049922D01*
X146855341Y-58920341D01*
X146984922Y-58813995D01*
X147132756Y-58734977D01*
X147132759Y-58734976D01*
X147132761Y-58734975D01*
X147293175Y-58686314D01*
X147293176Y-58686314D01*
X147293179Y-58686313D01*
X147418196Y-58674000D01*
X147501804Y-58674000D01*
X147626821Y-58686313D01*
X147626821Y-58686313D01*
G37*
G36*
X140006821Y-58686313D02*
X140006824Y-58686314D01*
X140006825Y-58686314D01*
X140167239Y-58734975D01*
X140167241Y-58734976D01*
X140167244Y-58734977D01*
X140315078Y-58813995D01*
X140444659Y-58920341D01*
X140551005Y-59049922D01*
X140630023Y-59197756D01*
X140630024Y-59197759D01*
X140630025Y-59197761D01*
X140678686Y-59358175D01*
X140678687Y-59358179D01*
X140695117Y-59525000D01*
X140678687Y-59691821D01*
X140678686Y-59691824D01*
X140678686Y-59691825D01*
X140666127Y-59733228D01*
X140630023Y-59852244D01*
X140551005Y-60000078D01*
X140444659Y-60129659D01*
X140315078Y-60236005D01*
X140167244Y-60315023D01*
X140167241Y-60315024D01*
X140167239Y-60315025D01*
X140006825Y-60363686D01*
X140006824Y-60363686D01*
X140006821Y-60363687D01*
X139881804Y-60376000D01*
X139798196Y-60376000D01*
X139673179Y-60363687D01*
X139673176Y-60363686D01*
X139673175Y-60363686D01*
X139512761Y-60315025D01*
X139512759Y-60315024D01*
X139512756Y-60315023D01*
X139364922Y-60236005D01*
X139235341Y-60129659D01*
X139128995Y-60000078D01*
X139049977Y-59852244D01*
X139013874Y-59733228D01*
X139001314Y-59691825D01*
X139001314Y-59691824D01*
X139001313Y-59691821D01*
X138984883Y-59525000D01*
X139001313Y-59358179D01*
X139001314Y-59358175D01*
X139049975Y-59197761D01*
X139049976Y-59197759D01*
X139049977Y-59197756D01*
X139128995Y-59049922D01*
X139235341Y-58920341D01*
X139364922Y-58813995D01*
X139512756Y-58734977D01*
X139512759Y-58734976D01*
X139512761Y-58734975D01*
X139673175Y-58686314D01*
X139673176Y-58686314D01*
X139673179Y-58686313D01*
X139798196Y-58674000D01*
X139881804Y-58674000D01*
X140006821Y-58686313D01*
X140006821Y-58686313D01*
G37*
G36*
X143898228Y-58666703D02*
X144053100Y-58730853D01*
X144192481Y-58823985D01*
X144311015Y-58942519D01*
X144404147Y-59081900D01*
X144468297Y-59236772D01*
X144501000Y-59401184D01*
X144501000Y-59568816D01*
X144468297Y-59733228D01*
X144404147Y-59888100D01*
X144311015Y-60027481D01*
X144192481Y-60146015D01*
X144053100Y-60239147D01*
X143898228Y-60303297D01*
X143733816Y-60336000D01*
X143566184Y-60336000D01*
X143401772Y-60303297D01*
X143246900Y-60239147D01*
X143107519Y-60146015D01*
X142988985Y-60027481D01*
X142895853Y-59888100D01*
X142831703Y-59733228D01*
X142799000Y-59568816D01*
X142799000Y-59401184D01*
X142831703Y-59236772D01*
X142895853Y-59081900D01*
X142988985Y-58942519D01*
X143107519Y-58823985D01*
X143246900Y-58730853D01*
X143401772Y-58666703D01*
X143566184Y-58634000D01*
X143733816Y-58634000D01*
X143898228Y-58666703D01*
X143898228Y-58666703D01*
G37*
G36*
X152470228Y-58285703D02*
X152625100Y-58349853D01*
X152764481Y-58442985D01*
X152883015Y-58561519D01*
X152976147Y-58700900D01*
X153040297Y-58855772D01*
X153073000Y-59020184D01*
X153073000Y-59187816D01*
X153040297Y-59352228D01*
X152976147Y-59507100D01*
X152883015Y-59646481D01*
X152764481Y-59765015D01*
X152625100Y-59858147D01*
X152470228Y-59922297D01*
X152305816Y-59955000D01*
X152138184Y-59955000D01*
X151973772Y-59922297D01*
X151818900Y-59858147D01*
X151679519Y-59765015D01*
X151560985Y-59646481D01*
X151467853Y-59507100D01*
X151403703Y-59352228D01*
X151371000Y-59187816D01*
X151371000Y-59020184D01*
X151403703Y-58855772D01*
X151467853Y-58700900D01*
X151560985Y-58561519D01*
X151679519Y-58442985D01*
X151818900Y-58349853D01*
X151973772Y-58285703D01*
X152138184Y-58253000D01*
X152305816Y-58253000D01*
X152470228Y-58285703D01*
X152470228Y-58285703D01*
G37*
G36*
X160980228Y-56333703D02*
X161135100Y-56397853D01*
X161274481Y-56490985D01*
X161393015Y-56609519D01*
X161486147Y-56748900D01*
X161550297Y-56903772D01*
X161583000Y-57068184D01*
X161583000Y-57235816D01*
X161550297Y-57400228D01*
X161486147Y-57555100D01*
X161393015Y-57694481D01*
X161274481Y-57813015D01*
X161135100Y-57906147D01*
X160980228Y-57970297D01*
X160815816Y-58003000D01*
X160648184Y-58003000D01*
X160483772Y-57970297D01*
X160328900Y-57906147D01*
X160189519Y-57813015D01*
X160070985Y-57694481D01*
X159977853Y-57555100D01*
X159913703Y-57400228D01*
X159881000Y-57235816D01*
X159881000Y-57068184D01*
X159913703Y-56903772D01*
X159977853Y-56748900D01*
X160070985Y-56609519D01*
X160189519Y-56490985D01*
X160328900Y-56397853D01*
X160483772Y-56333703D01*
X160648184Y-56301000D01*
X160815816Y-56301000D01*
X160980228Y-56333703D01*
X160980228Y-56333703D01*
G37*
G36*
X168218228Y-56293703D02*
X168373100Y-56357853D01*
X168512481Y-56450985D01*
X168631015Y-56569519D01*
X168724147Y-56708900D01*
X168788297Y-56863772D01*
X168821000Y-57028184D01*
X168821000Y-57195816D01*
X168788297Y-57360228D01*
X168724147Y-57515100D01*
X168631015Y-57654481D01*
X168512481Y-57773015D01*
X168373100Y-57866147D01*
X168218228Y-57930297D01*
X168053816Y-57963000D01*
X167886184Y-57963000D01*
X167721772Y-57930297D01*
X167566900Y-57866147D01*
X167427519Y-57773015D01*
X167308985Y-57654481D01*
X167215853Y-57515100D01*
X167151703Y-57360228D01*
X167119000Y-57195816D01*
X167119000Y-57028184D01*
X167151703Y-56863772D01*
X167215853Y-56708900D01*
X167308985Y-56569519D01*
X167427519Y-56450985D01*
X167566900Y-56357853D01*
X167721772Y-56293703D01*
X167886184Y-56261000D01*
X168053816Y-56261000D01*
X168218228Y-56293703D01*
X168218228Y-56293703D01*
G37*
G36*
X157088821Y-56273313D02*
X157088824Y-56273314D01*
X157088825Y-56273314D01*
X157249239Y-56321975D01*
X157249241Y-56321976D01*
X157249244Y-56321977D01*
X157397078Y-56400995D01*
X157526659Y-56507341D01*
X157633005Y-56636922D01*
X157712023Y-56784756D01*
X157712024Y-56784759D01*
X157712025Y-56784761D01*
X157760686Y-56945175D01*
X157760687Y-56945179D01*
X157777117Y-57112000D01*
X157760687Y-57278821D01*
X157760686Y-57278824D01*
X157760686Y-57278825D01*
X157723859Y-57400228D01*
X157712023Y-57439244D01*
X157633005Y-57587078D01*
X157526659Y-57716659D01*
X157397078Y-57823005D01*
X157249244Y-57902023D01*
X157249241Y-57902024D01*
X157249239Y-57902025D01*
X157088825Y-57950686D01*
X157088824Y-57950686D01*
X157088821Y-57950687D01*
X156963804Y-57963000D01*
X156880196Y-57963000D01*
X156755179Y-57950687D01*
X156755176Y-57950686D01*
X156755175Y-57950686D01*
X156594761Y-57902025D01*
X156594759Y-57902024D01*
X156594756Y-57902023D01*
X156446922Y-57823005D01*
X156317341Y-57716659D01*
X156210995Y-57587078D01*
X156131977Y-57439244D01*
X156120142Y-57400228D01*
X156083314Y-57278825D01*
X156083314Y-57278824D01*
X156083313Y-57278821D01*
X156066883Y-57112000D01*
X156083313Y-56945179D01*
X156083314Y-56945175D01*
X156131975Y-56784761D01*
X156131976Y-56784759D01*
X156131977Y-56784756D01*
X156210995Y-56636922D01*
X156317341Y-56507341D01*
X156446922Y-56400995D01*
X156594756Y-56321977D01*
X156594759Y-56321976D01*
X156594761Y-56321975D01*
X156755175Y-56273314D01*
X156755176Y-56273314D01*
X156755179Y-56273313D01*
X156880196Y-56261000D01*
X156963804Y-56261000D01*
X157088821Y-56273313D01*
X157088821Y-56273313D01*
G37*
G36*
X164708821Y-56273313D02*
X164708824Y-56273314D01*
X164708825Y-56273314D01*
X164869239Y-56321975D01*
X164869241Y-56321976D01*
X164869244Y-56321977D01*
X165017078Y-56400995D01*
X165146659Y-56507341D01*
X165253005Y-56636922D01*
X165332023Y-56784756D01*
X165332024Y-56784759D01*
X165332025Y-56784761D01*
X165380686Y-56945175D01*
X165380687Y-56945179D01*
X165397117Y-57112000D01*
X165380687Y-57278821D01*
X165380686Y-57278824D01*
X165380686Y-57278825D01*
X165343859Y-57400228D01*
X165332023Y-57439244D01*
X165253005Y-57587078D01*
X165146659Y-57716659D01*
X165017078Y-57823005D01*
X164869244Y-57902023D01*
X164869241Y-57902024D01*
X164869239Y-57902025D01*
X164708825Y-57950686D01*
X164708824Y-57950686D01*
X164708821Y-57950687D01*
X164583804Y-57963000D01*
X164500196Y-57963000D01*
X164375179Y-57950687D01*
X164375176Y-57950686D01*
X164375175Y-57950686D01*
X164214761Y-57902025D01*
X164214759Y-57902024D01*
X164214756Y-57902023D01*
X164066922Y-57823005D01*
X163937341Y-57716659D01*
X163830995Y-57587078D01*
X163751977Y-57439244D01*
X163740142Y-57400228D01*
X163703314Y-57278825D01*
X163703314Y-57278824D01*
X163703313Y-57278821D01*
X163686883Y-57112000D01*
X163703313Y-56945179D01*
X163703314Y-56945175D01*
X163751975Y-56784761D01*
X163751976Y-56784759D01*
X163751977Y-56784756D01*
X163830995Y-56636922D01*
X163937341Y-56507341D01*
X164066922Y-56400995D01*
X164214756Y-56321977D01*
X164214759Y-56321976D01*
X164214761Y-56321975D01*
X164375175Y-56273314D01*
X164375176Y-56273314D01*
X164375179Y-56273313D01*
X164500196Y-56261000D01*
X164583804Y-56261000D01*
X164708821Y-56273313D01*
X164708821Y-56273313D01*
G37*
G36*
X173393000Y-57963000D02*
X171691000Y-57963000D01*
X171691000Y-56261000D01*
X173393000Y-56261000D01*
X173393000Y-57963000D01*
X173393000Y-57963000D01*
G37*
G36*
X143898228Y-56166703D02*
X144053100Y-56230853D01*
X144192481Y-56323985D01*
X144311015Y-56442519D01*
X144404147Y-56581900D01*
X144468297Y-56736772D01*
X144501000Y-56901184D01*
X144501000Y-57068816D01*
X144468297Y-57233228D01*
X144404147Y-57388100D01*
X144311015Y-57527481D01*
X144192481Y-57646015D01*
X144053100Y-57739147D01*
X143898228Y-57803297D01*
X143733816Y-57836000D01*
X143566184Y-57836000D01*
X143401772Y-57803297D01*
X143246900Y-57739147D01*
X143107519Y-57646015D01*
X142988985Y-57527481D01*
X142895853Y-57388100D01*
X142831703Y-57233228D01*
X142799000Y-57068816D01*
X142799000Y-56901184D01*
X142831703Y-56736772D01*
X142895853Y-56581900D01*
X142988985Y-56442519D01*
X143107519Y-56323985D01*
X143246900Y-56230853D01*
X143401772Y-56166703D01*
X143566184Y-56134000D01*
X143733816Y-56134000D01*
X143898228Y-56166703D01*
X143898228Y-56166703D01*
G37*
G36*
X147626821Y-56146313D02*
X147626824Y-56146314D01*
X147626825Y-56146314D01*
X147787239Y-56194975D01*
X147787241Y-56194976D01*
X147787244Y-56194977D01*
X147935078Y-56273995D01*
X148064659Y-56380341D01*
X148171005Y-56509922D01*
X148250023Y-56657756D01*
X148250024Y-56657759D01*
X148250025Y-56657761D01*
X148288548Y-56784756D01*
X148298687Y-56818179D01*
X148315117Y-56985000D01*
X148298687Y-57151821D01*
X148298686Y-57151824D01*
X148298686Y-57151825D01*
X148273208Y-57235816D01*
X148250023Y-57312244D01*
X148171005Y-57460078D01*
X148064659Y-57589659D01*
X147935078Y-57696005D01*
X147787244Y-57775023D01*
X147787241Y-57775024D01*
X147787239Y-57775025D01*
X147626825Y-57823686D01*
X147626824Y-57823686D01*
X147626821Y-57823687D01*
X147501804Y-57836000D01*
X147418196Y-57836000D01*
X147293179Y-57823687D01*
X147293176Y-57823686D01*
X147293175Y-57823686D01*
X147132761Y-57775025D01*
X147132759Y-57775024D01*
X147132756Y-57775023D01*
X146984922Y-57696005D01*
X146855341Y-57589659D01*
X146748995Y-57460078D01*
X146669977Y-57312244D01*
X146646793Y-57235816D01*
X146621314Y-57151825D01*
X146621314Y-57151824D01*
X146621313Y-57151821D01*
X146604883Y-56985000D01*
X146621313Y-56818179D01*
X146631452Y-56784756D01*
X146669975Y-56657761D01*
X146669976Y-56657759D01*
X146669977Y-56657756D01*
X146748995Y-56509922D01*
X146855341Y-56380341D01*
X146984922Y-56273995D01*
X147132756Y-56194977D01*
X147132759Y-56194976D01*
X147132761Y-56194975D01*
X147293175Y-56146314D01*
X147293176Y-56146314D01*
X147293179Y-56146313D01*
X147418196Y-56134000D01*
X147501804Y-56134000D01*
X147626821Y-56146313D01*
X147626821Y-56146313D01*
G37*
G36*
X140691000Y-57836000D02*
X138989000Y-57836000D01*
X138989000Y-56134000D01*
X140691000Y-56134000D01*
X140691000Y-57836000D01*
X140691000Y-57836000D01*
G37*
G36*
X153073000Y-57455000D02*
X151371000Y-57455000D01*
X151371000Y-55753000D01*
X153073000Y-55753000D01*
X153073000Y-57455000D01*
X153073000Y-57455000D01*
G37*
G36*
X164708821Y-53733313D02*
X164708824Y-53733314D01*
X164708825Y-53733314D01*
X164869239Y-53781975D01*
X164869241Y-53781976D01*
X164869244Y-53781977D01*
X165017078Y-53860995D01*
X165146659Y-53967341D01*
X165253005Y-54096922D01*
X165332023Y-54244756D01*
X165332024Y-54244759D01*
X165332025Y-54244761D01*
X165380686Y-54405175D01*
X165380687Y-54405179D01*
X165397117Y-54572000D01*
X165380687Y-54738821D01*
X165380686Y-54738824D01*
X165380686Y-54738825D01*
X165368127Y-54780228D01*
X165332023Y-54899244D01*
X165253005Y-55047078D01*
X165146659Y-55176659D01*
X165017078Y-55283005D01*
X164869244Y-55362023D01*
X164869241Y-55362024D01*
X164869239Y-55362025D01*
X164708825Y-55410686D01*
X164708824Y-55410686D01*
X164708821Y-55410687D01*
X164583804Y-55423000D01*
X164500196Y-55423000D01*
X164375179Y-55410687D01*
X164375176Y-55410686D01*
X164375175Y-55410686D01*
X164214761Y-55362025D01*
X164214759Y-55362024D01*
X164214756Y-55362023D01*
X164066922Y-55283005D01*
X163937341Y-55176659D01*
X163830995Y-55047078D01*
X163751977Y-54899244D01*
X163715874Y-54780228D01*
X163703314Y-54738825D01*
X163703314Y-54738824D01*
X163703313Y-54738821D01*
X163686883Y-54572000D01*
X163703313Y-54405179D01*
X163703314Y-54405175D01*
X163751975Y-54244761D01*
X163751976Y-54244759D01*
X163751977Y-54244756D01*
X163830995Y-54096922D01*
X163937341Y-53967341D01*
X164066922Y-53860995D01*
X164214756Y-53781977D01*
X164214759Y-53781976D01*
X164214761Y-53781975D01*
X164375175Y-53733314D01*
X164375176Y-53733314D01*
X164375179Y-53733313D01*
X164500196Y-53721000D01*
X164583804Y-53721000D01*
X164708821Y-53733313D01*
X164708821Y-53733313D01*
G37*
G36*
X157088821Y-53733313D02*
X157088824Y-53733314D01*
X157088825Y-53733314D01*
X157249239Y-53781975D01*
X157249241Y-53781976D01*
X157249244Y-53781977D01*
X157397078Y-53860995D01*
X157526659Y-53967341D01*
X157633005Y-54096922D01*
X157712023Y-54244756D01*
X157712024Y-54244759D01*
X157712025Y-54244761D01*
X157760686Y-54405175D01*
X157760687Y-54405179D01*
X157777117Y-54572000D01*
X157760687Y-54738821D01*
X157760686Y-54738824D01*
X157760686Y-54738825D01*
X157748127Y-54780228D01*
X157712023Y-54899244D01*
X157633005Y-55047078D01*
X157526659Y-55176659D01*
X157397078Y-55283005D01*
X157249244Y-55362023D01*
X157249241Y-55362024D01*
X157249239Y-55362025D01*
X157088825Y-55410686D01*
X157088824Y-55410686D01*
X157088821Y-55410687D01*
X156963804Y-55423000D01*
X156880196Y-55423000D01*
X156755179Y-55410687D01*
X156755176Y-55410686D01*
X156755175Y-55410686D01*
X156594761Y-55362025D01*
X156594759Y-55362024D01*
X156594756Y-55362023D01*
X156446922Y-55283005D01*
X156317341Y-55176659D01*
X156210995Y-55047078D01*
X156131977Y-54899244D01*
X156095874Y-54780228D01*
X156083314Y-54738825D01*
X156083314Y-54738824D01*
X156083313Y-54738821D01*
X156066883Y-54572000D01*
X156083313Y-54405179D01*
X156083314Y-54405175D01*
X156131975Y-54244761D01*
X156131976Y-54244759D01*
X156131977Y-54244756D01*
X156210995Y-54096922D01*
X156317341Y-53967341D01*
X156446922Y-53860995D01*
X156594756Y-53781977D01*
X156594759Y-53781976D01*
X156594761Y-53781975D01*
X156755175Y-53733314D01*
X156755176Y-53733314D01*
X156755179Y-53733313D01*
X156880196Y-53721000D01*
X156963804Y-53721000D01*
X157088821Y-53733313D01*
X157088821Y-53733313D01*
G37*
G36*
X160980228Y-53713703D02*
X161135100Y-53777853D01*
X161274481Y-53870985D01*
X161393015Y-53989519D01*
X161486147Y-54128900D01*
X161550297Y-54283772D01*
X161583000Y-54448184D01*
X161583000Y-54615816D01*
X161550297Y-54780228D01*
X161486147Y-54935100D01*
X161393015Y-55074481D01*
X161274481Y-55193015D01*
X161135100Y-55286147D01*
X160980228Y-55350297D01*
X160815816Y-55383000D01*
X160648184Y-55383000D01*
X160483772Y-55350297D01*
X160328900Y-55286147D01*
X160189519Y-55193015D01*
X160070985Y-55074481D01*
X159977853Y-54935100D01*
X159913703Y-54780228D01*
X159881000Y-54615816D01*
X159881000Y-54448184D01*
X159913703Y-54283772D01*
X159977853Y-54128900D01*
X160070985Y-53989519D01*
X160189519Y-53870985D01*
X160328900Y-53777853D01*
X160483772Y-53713703D01*
X160648184Y-53681000D01*
X160815816Y-53681000D01*
X160980228Y-53713703D01*
X160980228Y-53713703D01*
G37*
G36*
X129815000Y-53371479D02*
X129817402Y-53395865D01*
X129824515Y-53419314D01*
X129836066Y-53440925D01*
X129851612Y-53459867D01*
X129870554Y-53475413D01*
X129892165Y-53486964D01*
X129915614Y-53494077D01*
X129940000Y-53496479D01*
X129964386Y-53494077D01*
X129987835Y-53486964D01*
X130009446Y-53475413D01*
X130028388Y-53459867D01*
X130043934Y-53440925D01*
X130055485Y-53419314D01*
X130064398Y-53383731D01*
X130069654Y-53330368D01*
X130069654Y-53330365D01*
X130135470Y-53113400D01*
X130135471Y-53113398D01*
X130135472Y-53113395D01*
X130242347Y-52913444D01*
X130386182Y-52738182D01*
X130561444Y-52594347D01*
X130761395Y-52487472D01*
X130761398Y-52487471D01*
X130761400Y-52487470D01*
X130978365Y-52421654D01*
X131079820Y-52411662D01*
X131147455Y-52405000D01*
X131260545Y-52405000D01*
X131328180Y-52411662D01*
X131429635Y-52421654D01*
X131646600Y-52487470D01*
X131646602Y-52487471D01*
X131646605Y-52487472D01*
X131846556Y-52594347D01*
X132021818Y-52738182D01*
X132165653Y-52913444D01*
X132272528Y-53113395D01*
X132272529Y-53113398D01*
X132272530Y-53113400D01*
X132338346Y-53330365D01*
X132360569Y-53556000D01*
X132338346Y-53781635D01*
X132272530Y-53998600D01*
X132272528Y-53998605D01*
X132165653Y-54198556D01*
X132021818Y-54373818D01*
X131846556Y-54517653D01*
X131646605Y-54624528D01*
X131646602Y-54624529D01*
X131646600Y-54624530D01*
X131429635Y-54690346D01*
X131328180Y-54700338D01*
X131260545Y-54707000D01*
X131147455Y-54707000D01*
X131079820Y-54700338D01*
X130978365Y-54690346D01*
X130761400Y-54624530D01*
X130761398Y-54624529D01*
X130761395Y-54624528D01*
X130561444Y-54517653D01*
X130386182Y-54373818D01*
X130242347Y-54198556D01*
X130135472Y-53998605D01*
X130135470Y-53998600D01*
X130069654Y-53781635D01*
X130064398Y-53728268D01*
X130059617Y-53704235D01*
X130050240Y-53681596D01*
X130036626Y-53661222D01*
X130019299Y-53643895D01*
X129998924Y-53630281D01*
X129976285Y-53620903D01*
X129952252Y-53616123D01*
X129927748Y-53616123D01*
X129903714Y-53620904D01*
X129881075Y-53630281D01*
X129860701Y-53643895D01*
X129843374Y-53661222D01*
X129829760Y-53681597D01*
X129820382Y-53704236D01*
X129815000Y-53740521D01*
X129815000Y-54707000D01*
X127513000Y-54707000D01*
X127513000Y-52405000D01*
X129815000Y-52405000D01*
X129815000Y-53371479D01*
X129815000Y-53371479D01*
G37*
G36*
X134754228Y-52737703D02*
X134909100Y-52801853D01*
X135048481Y-52894985D01*
X135167015Y-53013519D01*
X135260147Y-53152900D01*
X135324297Y-53307772D01*
X135357000Y-53472184D01*
X135357000Y-53639816D01*
X135324297Y-53804228D01*
X135260147Y-53959100D01*
X135167015Y-54098481D01*
X135048481Y-54217015D01*
X134909100Y-54310147D01*
X134754228Y-54374297D01*
X134589816Y-54407000D01*
X134422184Y-54407000D01*
X134257772Y-54374297D01*
X134102900Y-54310147D01*
X133963519Y-54217015D01*
X133844985Y-54098481D01*
X133751853Y-53959100D01*
X133687703Y-53804228D01*
X133655000Y-53639816D01*
X133655000Y-53472184D01*
X133687703Y-53307772D01*
X133751853Y-53152900D01*
X133844985Y-53013519D01*
X133963519Y-52894985D01*
X134102900Y-52801853D01*
X134257772Y-52737703D01*
X134422184Y-52705000D01*
X134589816Y-52705000D01*
X134754228Y-52737703D01*
X134754228Y-52737703D01*
G37*
G36*
X137212821Y-52717313D02*
X137212824Y-52717314D01*
X137212825Y-52717314D01*
X137373239Y-52765975D01*
X137373241Y-52765976D01*
X137373244Y-52765977D01*
X137521078Y-52844995D01*
X137650659Y-52951341D01*
X137757005Y-53080922D01*
X137836023Y-53228756D01*
X137836024Y-53228759D01*
X137836025Y-53228761D01*
X137884686Y-53389175D01*
X137884687Y-53389179D01*
X137901117Y-53556000D01*
X137884687Y-53722821D01*
X137884686Y-53722824D01*
X137884686Y-53722825D01*
X137839742Y-53870986D01*
X137836023Y-53883244D01*
X137757005Y-54031078D01*
X137650659Y-54160659D01*
X137521078Y-54267005D01*
X137373244Y-54346023D01*
X137373241Y-54346024D01*
X137373239Y-54346025D01*
X137212825Y-54394686D01*
X137212824Y-54394686D01*
X137212821Y-54394687D01*
X137087804Y-54407000D01*
X137004196Y-54407000D01*
X136879179Y-54394687D01*
X136879176Y-54394686D01*
X136879175Y-54394686D01*
X136718761Y-54346025D01*
X136718759Y-54346024D01*
X136718756Y-54346023D01*
X136570922Y-54267005D01*
X136441341Y-54160659D01*
X136334995Y-54031078D01*
X136255977Y-53883244D01*
X136252259Y-53870986D01*
X136207314Y-53722825D01*
X136207314Y-53722824D01*
X136207313Y-53722821D01*
X136190883Y-53556000D01*
X136207313Y-53389179D01*
X136207314Y-53389175D01*
X136255975Y-53228761D01*
X136255976Y-53228759D01*
X136255977Y-53228756D01*
X136334995Y-53080922D01*
X136441341Y-52951341D01*
X136570922Y-52844995D01*
X136718756Y-52765977D01*
X136718759Y-52765976D01*
X136718761Y-52765975D01*
X136879175Y-52717314D01*
X136879176Y-52717314D01*
X136879179Y-52717313D01*
X137004196Y-52705000D01*
X137087804Y-52705000D01*
X137212821Y-52717313D01*
X137212821Y-52717313D01*
G37*
G36*
X123567443Y-51645519D02*
X123633627Y-51652037D01*
X123746853Y-51686384D01*
X123803467Y-51703557D01*
X123942087Y-51777652D01*
X123959991Y-51787222D01*
X123995729Y-51816552D01*
X124097186Y-51899814D01*
X124180448Y-52001271D01*
X124209778Y-52037009D01*
X124209779Y-52037011D01*
X124293443Y-52193533D01*
X124293443Y-52193534D01*
X124344963Y-52363373D01*
X124362359Y-52540000D01*
X124344963Y-52716627D01*
X124312991Y-52822025D01*
X124293443Y-52886467D01*
X124225531Y-53013519D01*
X124209778Y-53042991D01*
X124180448Y-53078729D01*
X124097186Y-53180186D01*
X123995729Y-53263448D01*
X123959991Y-53292778D01*
X123959989Y-53292779D01*
X123803467Y-53376443D01*
X123779441Y-53383731D01*
X123633627Y-53427963D01*
X123567443Y-53434481D01*
X123501260Y-53441000D01*
X122112740Y-53441000D01*
X122046557Y-53434481D01*
X121980373Y-53427963D01*
X121834559Y-53383731D01*
X121810533Y-53376443D01*
X121654011Y-53292779D01*
X121654009Y-53292778D01*
X121618271Y-53263448D01*
X121516814Y-53180186D01*
X121433552Y-53078729D01*
X121404222Y-53042991D01*
X121388469Y-53013519D01*
X121320557Y-52886467D01*
X121301009Y-52822025D01*
X121269037Y-52716627D01*
X121251641Y-52540000D01*
X121269037Y-52363373D01*
X121320557Y-52193534D01*
X121320557Y-52193533D01*
X121404221Y-52037011D01*
X121404222Y-52037009D01*
X121433552Y-52001271D01*
X121516814Y-51899814D01*
X121618271Y-51816552D01*
X121654009Y-51787222D01*
X121671913Y-51777652D01*
X121810533Y-51703557D01*
X121867147Y-51686384D01*
X121980373Y-51652037D01*
X122046557Y-51645519D01*
X122112740Y-51639000D01*
X123501260Y-51639000D01*
X123567443Y-51645519D01*
X123567443Y-51645519D01*
G37*
G36*
X177953443Y-51645518D02*
X178019627Y-51652036D01*
X178132853Y-51686383D01*
X178189467Y-51703556D01*
X178328087Y-51777651D01*
X178345991Y-51787221D01*
X178381729Y-51816551D01*
X178483186Y-51899813D01*
X178522882Y-51948184D01*
X178595778Y-52037008D01*
X178595779Y-52037010D01*
X178679443Y-52193532D01*
X178685219Y-52212574D01*
X178730963Y-52363372D01*
X178748359Y-52539999D01*
X178730963Y-52716626D01*
X178709874Y-52786146D01*
X178679443Y-52886466D01*
X178665022Y-52913445D01*
X178595778Y-53042990D01*
X178595777Y-53042991D01*
X178483186Y-53180185D01*
X178381729Y-53263447D01*
X178345991Y-53292777D01*
X178345989Y-53292778D01*
X178189467Y-53376442D01*
X178147491Y-53389175D01*
X178019627Y-53427962D01*
X177953442Y-53434481D01*
X177887260Y-53440999D01*
X176498740Y-53440999D01*
X176432558Y-53434481D01*
X176366373Y-53427962D01*
X176238509Y-53389175D01*
X176196533Y-53376442D01*
X176040011Y-53292778D01*
X176040009Y-53292777D01*
X176004271Y-53263447D01*
X175902814Y-53180185D01*
X175790223Y-53042991D01*
X175790222Y-53042990D01*
X175720978Y-52913445D01*
X175706557Y-52886466D01*
X175676126Y-52786146D01*
X175655037Y-52716626D01*
X175637641Y-52539999D01*
X175655037Y-52363372D01*
X175700781Y-52212574D01*
X175706557Y-52193532D01*
X175790221Y-52037010D01*
X175790222Y-52037008D01*
X175863118Y-51948184D01*
X175902814Y-51899813D01*
X176004271Y-51816551D01*
X176040009Y-51787221D01*
X176057913Y-51777651D01*
X176196533Y-51703556D01*
X176253147Y-51686383D01*
X176366373Y-51652036D01*
X176432558Y-51645517D01*
X176498740Y-51638999D01*
X177887260Y-51638999D01*
X177953443Y-51645518D01*
X177953443Y-51645518D01*
G37*
G36*
X157773000Y-52883000D02*
X156071000Y-52883000D01*
X156071000Y-51181000D01*
X157773000Y-51181000D01*
X157773000Y-52883000D01*
X157773000Y-52883000D01*
G37*
G36*
X164708821Y-51193313D02*
X164708824Y-51193314D01*
X164708825Y-51193314D01*
X164869239Y-51241975D01*
X164869241Y-51241976D01*
X164869244Y-51241977D01*
X165017078Y-51320995D01*
X165146659Y-51427341D01*
X165253005Y-51556922D01*
X165332023Y-51704756D01*
X165332024Y-51704759D01*
X165332025Y-51704761D01*
X165368879Y-51826252D01*
X165380687Y-51865179D01*
X165397117Y-52032000D01*
X165380687Y-52198821D01*
X165380686Y-52198824D01*
X165380686Y-52198825D01*
X165349692Y-52301000D01*
X165332023Y-52359244D01*
X165253005Y-52507078D01*
X165146659Y-52636659D01*
X165017078Y-52743005D01*
X164869244Y-52822023D01*
X164869241Y-52822024D01*
X164869239Y-52822025D01*
X164708825Y-52870686D01*
X164708824Y-52870686D01*
X164708821Y-52870687D01*
X164583804Y-52883000D01*
X164500196Y-52883000D01*
X164375179Y-52870687D01*
X164375176Y-52870686D01*
X164375175Y-52870686D01*
X164214761Y-52822025D01*
X164214759Y-52822024D01*
X164214756Y-52822023D01*
X164066922Y-52743005D01*
X163937341Y-52636659D01*
X163830995Y-52507078D01*
X163751977Y-52359244D01*
X163734309Y-52301000D01*
X163703314Y-52198825D01*
X163703314Y-52198824D01*
X163703313Y-52198821D01*
X163686883Y-52032000D01*
X163703313Y-51865179D01*
X163715121Y-51826252D01*
X163751975Y-51704761D01*
X163751976Y-51704759D01*
X163751977Y-51704756D01*
X163830995Y-51556922D01*
X163937341Y-51427341D01*
X164066922Y-51320995D01*
X164214756Y-51241977D01*
X164214759Y-51241976D01*
X164214761Y-51241975D01*
X164375175Y-51193314D01*
X164375176Y-51193314D01*
X164375179Y-51193313D01*
X164500196Y-51181000D01*
X164583804Y-51181000D01*
X164708821Y-51193313D01*
X164708821Y-51193313D01*
G37*
G36*
X160980228Y-51213703D02*
X161135100Y-51277853D01*
X161274481Y-51370985D01*
X161393015Y-51489519D01*
X161486147Y-51628900D01*
X161550297Y-51783772D01*
X161583000Y-51948184D01*
X161583000Y-52115816D01*
X161550297Y-52280228D01*
X161486147Y-52435100D01*
X161393015Y-52574481D01*
X161274481Y-52693015D01*
X161135100Y-52786147D01*
X160980228Y-52850297D01*
X160815816Y-52883000D01*
X160648184Y-52883000D01*
X160483772Y-52850297D01*
X160328900Y-52786147D01*
X160189519Y-52693015D01*
X160070985Y-52574481D01*
X159977853Y-52435100D01*
X159913703Y-52280228D01*
X159881000Y-52115816D01*
X159881000Y-51948184D01*
X159913703Y-51783772D01*
X159977853Y-51628900D01*
X160070985Y-51489519D01*
X160189519Y-51370985D01*
X160328900Y-51277853D01*
X160483772Y-51213703D01*
X160648184Y-51181000D01*
X160815816Y-51181000D01*
X160980228Y-51213703D01*
X160980228Y-51213703D01*
G37*
G36*
X150448903Y-47743213D02*
X150671177Y-47787426D01*
X151089932Y-47960880D01*
X151466802Y-48212696D01*
X151787304Y-48533198D01*
X152039120Y-48910068D01*
X152212574Y-49328823D01*
X152215667Y-49344371D01*
X152301000Y-49773370D01*
X152301000Y-50226630D01*
X152277163Y-50346466D01*
X152212574Y-50671177D01*
X152039120Y-51089932D01*
X151787304Y-51466802D01*
X151466802Y-51787304D01*
X151089932Y-52039120D01*
X150671177Y-52212574D01*
X150448903Y-52256787D01*
X150226630Y-52301000D01*
X149773370Y-52301000D01*
X149551097Y-52256787D01*
X149328823Y-52212574D01*
X148910068Y-52039120D01*
X148533198Y-51787304D01*
X148212696Y-51466802D01*
X147960880Y-51089932D01*
X147787426Y-50671177D01*
X147722837Y-50346466D01*
X147699000Y-50226630D01*
X147699000Y-49773370D01*
X147784333Y-49344371D01*
X147787426Y-49328823D01*
X147960880Y-48910068D01*
X148212696Y-48533198D01*
X148533198Y-48212696D01*
X148910068Y-47960880D01*
X149328823Y-47787426D01*
X149551097Y-47743213D01*
X149773370Y-47699000D01*
X150226630Y-47699000D01*
X150448903Y-47743213D01*
X150448903Y-47743213D01*
G37*
G36*
X141362589Y-50381876D02*
X141461893Y-50401629D01*
X141602206Y-50459748D01*
X141728484Y-50544125D01*
X141835875Y-50651516D01*
X141920252Y-50777794D01*
X141978371Y-50918107D01*
X141987033Y-50961653D01*
X142008000Y-51067062D01*
X142008000Y-51218938D01*
X142003417Y-51241977D01*
X141978371Y-51367893D01*
X141920252Y-51508206D01*
X141835875Y-51634484D01*
X141728484Y-51741875D01*
X141602206Y-51826252D01*
X141461893Y-51884371D01*
X141384260Y-51899813D01*
X141312938Y-51914000D01*
X141161062Y-51914000D01*
X141089740Y-51899813D01*
X141012107Y-51884371D01*
X140871794Y-51826252D01*
X140745516Y-51741875D01*
X140638125Y-51634484D01*
X140553748Y-51508206D01*
X140495629Y-51367893D01*
X140470583Y-51241977D01*
X140466000Y-51218938D01*
X140466000Y-51067062D01*
X140486967Y-50961653D01*
X140495629Y-50918107D01*
X140553748Y-50777794D01*
X140638125Y-50651516D01*
X140745516Y-50544125D01*
X140871794Y-50459748D01*
X141012107Y-50401629D01*
X141111411Y-50381876D01*
X141161062Y-50372000D01*
X141312938Y-50372000D01*
X141362589Y-50381876D01*
X141362589Y-50381876D01*
G37*
G36*
X129815000Y-49815479D02*
X129817402Y-49839865D01*
X129824515Y-49863314D01*
X129836066Y-49884925D01*
X129851612Y-49903867D01*
X129870554Y-49919413D01*
X129892165Y-49930964D01*
X129915614Y-49938077D01*
X129940000Y-49940479D01*
X129964386Y-49938077D01*
X129987835Y-49930964D01*
X130009446Y-49919413D01*
X130028388Y-49903867D01*
X130043934Y-49884925D01*
X130055485Y-49863314D01*
X130064398Y-49827731D01*
X130069654Y-49774368D01*
X130069654Y-49774365D01*
X130135470Y-49557400D01*
X130135471Y-49557398D01*
X130135472Y-49557395D01*
X130242347Y-49357444D01*
X130386182Y-49182182D01*
X130561444Y-49038347D01*
X130761395Y-48931472D01*
X130761398Y-48931471D01*
X130761400Y-48931470D01*
X130978365Y-48865654D01*
X131079820Y-48855662D01*
X131147455Y-48849000D01*
X131260545Y-48849000D01*
X131328180Y-48855662D01*
X131429635Y-48865654D01*
X131646600Y-48931470D01*
X131646602Y-48931471D01*
X131646605Y-48931472D01*
X131846556Y-49038347D01*
X132021818Y-49182182D01*
X132165653Y-49357444D01*
X132272528Y-49557395D01*
X132272529Y-49557398D01*
X132272530Y-49557400D01*
X132338346Y-49774365D01*
X132360569Y-50000000D01*
X132338346Y-50225635D01*
X132272530Y-50442600D01*
X132272528Y-50442605D01*
X132165653Y-50642556D01*
X132021818Y-50817818D01*
X131846556Y-50961653D01*
X131646605Y-51068528D01*
X131646602Y-51068529D01*
X131646600Y-51068530D01*
X131429635Y-51134346D01*
X131328180Y-51144338D01*
X131260545Y-51151000D01*
X131147455Y-51151000D01*
X131079820Y-51144338D01*
X130978365Y-51134346D01*
X130761400Y-51068530D01*
X130761398Y-51068529D01*
X130761395Y-51068528D01*
X130561444Y-50961653D01*
X130386182Y-50817818D01*
X130242347Y-50642556D01*
X130135472Y-50442605D01*
X130135470Y-50442600D01*
X130069654Y-50225635D01*
X130064398Y-50172268D01*
X130059617Y-50148235D01*
X130050240Y-50125596D01*
X130036626Y-50105222D01*
X130019299Y-50087895D01*
X129998924Y-50074281D01*
X129976285Y-50064903D01*
X129952252Y-50060123D01*
X129927748Y-50060123D01*
X129903714Y-50064904D01*
X129881075Y-50074281D01*
X129860701Y-50087895D01*
X129843374Y-50105222D01*
X129829760Y-50125597D01*
X129820382Y-50148236D01*
X129815000Y-50184521D01*
X129815000Y-51151000D01*
X127513000Y-51151000D01*
X127513000Y-48849000D01*
X129815000Y-48849000D01*
X129815000Y-49815479D01*
X129815000Y-49815479D01*
G37*
G36*
X177953443Y-49105519D02*
X178019627Y-49112037D01*
X178132853Y-49146384D01*
X178189467Y-49163557D01*
X178276311Y-49209977D01*
X178345991Y-49247222D01*
X178381729Y-49276552D01*
X178483186Y-49359814D01*
X178563369Y-49457519D01*
X178595778Y-49497009D01*
X178595779Y-49497011D01*
X178679443Y-49653533D01*
X178696616Y-49710147D01*
X178730963Y-49823373D01*
X178748359Y-50000000D01*
X178730963Y-50176627D01*
X178709243Y-50248228D01*
X178679443Y-50346467D01*
X178628058Y-50442600D01*
X178595778Y-50502991D01*
X178566448Y-50538729D01*
X178483186Y-50640186D01*
X178381729Y-50723448D01*
X178345991Y-50752778D01*
X178345989Y-50752779D01*
X178189467Y-50836443D01*
X178182069Y-50838687D01*
X178019627Y-50887963D01*
X177953443Y-50894481D01*
X177887260Y-50901000D01*
X176498740Y-50901000D01*
X176432557Y-50894481D01*
X176366373Y-50887963D01*
X176203931Y-50838687D01*
X176196533Y-50836443D01*
X176040011Y-50752779D01*
X176040009Y-50752778D01*
X176004271Y-50723448D01*
X175902814Y-50640186D01*
X175819552Y-50538729D01*
X175790222Y-50502991D01*
X175757942Y-50442600D01*
X175706557Y-50346467D01*
X175676757Y-50248228D01*
X175655037Y-50176627D01*
X175637641Y-50000000D01*
X175655037Y-49823373D01*
X175689384Y-49710147D01*
X175706557Y-49653533D01*
X175790221Y-49497011D01*
X175790222Y-49497009D01*
X175822631Y-49457519D01*
X175902814Y-49359814D01*
X176004271Y-49276552D01*
X176040009Y-49247222D01*
X176109689Y-49209977D01*
X176196533Y-49163557D01*
X176253147Y-49146384D01*
X176366373Y-49112037D01*
X176432557Y-49105519D01*
X176498740Y-49099000D01*
X177887260Y-49099000D01*
X177953443Y-49105519D01*
X177953443Y-49105519D01*
G37*
G36*
X123567443Y-49105519D02*
X123633627Y-49112037D01*
X123746853Y-49146384D01*
X123803467Y-49163557D01*
X123890311Y-49209977D01*
X123959991Y-49247222D01*
X123995729Y-49276552D01*
X124097186Y-49359814D01*
X124177369Y-49457519D01*
X124209778Y-49497009D01*
X124209779Y-49497011D01*
X124293443Y-49653533D01*
X124310616Y-49710147D01*
X124344963Y-49823373D01*
X124362359Y-50000000D01*
X124344963Y-50176627D01*
X124323243Y-50248228D01*
X124293443Y-50346467D01*
X124242058Y-50442600D01*
X124209778Y-50502991D01*
X124180448Y-50538729D01*
X124097186Y-50640186D01*
X123995729Y-50723448D01*
X123959991Y-50752778D01*
X123959989Y-50752779D01*
X123803467Y-50836443D01*
X123796069Y-50838687D01*
X123633627Y-50887963D01*
X123567443Y-50894481D01*
X123501260Y-50901000D01*
X122112740Y-50901000D01*
X122046557Y-50894481D01*
X121980373Y-50887963D01*
X121817931Y-50838687D01*
X121810533Y-50836443D01*
X121654011Y-50752779D01*
X121654009Y-50752778D01*
X121618271Y-50723448D01*
X121516814Y-50640186D01*
X121433552Y-50538729D01*
X121404222Y-50502991D01*
X121371942Y-50442600D01*
X121320557Y-50346467D01*
X121290757Y-50248228D01*
X121269037Y-50176627D01*
X121251641Y-50000000D01*
X121269037Y-49823373D01*
X121303384Y-49710147D01*
X121320557Y-49653533D01*
X121404221Y-49497011D01*
X121404222Y-49497009D01*
X121436631Y-49457519D01*
X121516814Y-49359814D01*
X121618271Y-49276552D01*
X121654009Y-49247222D01*
X121723689Y-49209977D01*
X121810533Y-49163557D01*
X121867147Y-49146384D01*
X121980373Y-49112037D01*
X122046557Y-49105519D01*
X122112740Y-49099000D01*
X123501260Y-49099000D01*
X123567443Y-49105519D01*
X123567443Y-49105519D01*
G37*
G36*
X134754228Y-49181703D02*
X134909100Y-49245853D01*
X135048481Y-49338985D01*
X135167015Y-49457519D01*
X135260147Y-49596900D01*
X135324297Y-49751772D01*
X135357000Y-49916184D01*
X135357000Y-50083816D01*
X135324297Y-50248228D01*
X135260147Y-50403100D01*
X135167015Y-50542481D01*
X135048481Y-50661015D01*
X134909100Y-50754147D01*
X134754228Y-50818297D01*
X134589816Y-50851000D01*
X134422184Y-50851000D01*
X134257772Y-50818297D01*
X134102900Y-50754147D01*
X133963519Y-50661015D01*
X133844985Y-50542481D01*
X133751853Y-50403100D01*
X133687703Y-50248228D01*
X133655000Y-50083816D01*
X133655000Y-49916184D01*
X133687703Y-49751772D01*
X133751853Y-49596900D01*
X133844985Y-49457519D01*
X133963519Y-49338985D01*
X134102900Y-49245853D01*
X134257772Y-49181703D01*
X134422184Y-49149000D01*
X134589816Y-49149000D01*
X134754228Y-49181703D01*
X134754228Y-49181703D01*
G37*
G36*
X137212821Y-49161313D02*
X137212824Y-49161314D01*
X137212825Y-49161314D01*
X137373239Y-49209975D01*
X137373241Y-49209976D01*
X137373244Y-49209977D01*
X137521078Y-49288995D01*
X137650659Y-49395341D01*
X137757005Y-49524922D01*
X137836023Y-49672756D01*
X137836024Y-49672759D01*
X137836025Y-49672761D01*
X137884686Y-49833175D01*
X137884687Y-49833179D01*
X137901117Y-50000000D01*
X137884687Y-50166821D01*
X137884686Y-50166824D01*
X137884686Y-50166825D01*
X137856432Y-50259967D01*
X137836023Y-50327244D01*
X137757005Y-50475078D01*
X137650659Y-50604659D01*
X137521078Y-50711005D01*
X137373244Y-50790023D01*
X137373241Y-50790024D01*
X137373239Y-50790025D01*
X137212825Y-50838686D01*
X137212824Y-50838686D01*
X137212821Y-50838687D01*
X137087804Y-50851000D01*
X137004196Y-50851000D01*
X136879179Y-50838687D01*
X136879176Y-50838686D01*
X136879175Y-50838686D01*
X136718761Y-50790025D01*
X136718759Y-50790024D01*
X136718756Y-50790023D01*
X136570922Y-50711005D01*
X136441341Y-50604659D01*
X136334995Y-50475078D01*
X136255977Y-50327244D01*
X136235569Y-50259967D01*
X136207314Y-50166825D01*
X136207314Y-50166824D01*
X136207313Y-50166821D01*
X136190883Y-50000000D01*
X136207313Y-49833179D01*
X136207314Y-49833175D01*
X136255975Y-49672761D01*
X136255976Y-49672759D01*
X136255977Y-49672756D01*
X136334995Y-49524922D01*
X136441341Y-49395341D01*
X136570922Y-49288995D01*
X136718756Y-49209977D01*
X136718759Y-49209976D01*
X136718761Y-49209975D01*
X136879175Y-49161314D01*
X136879176Y-49161314D01*
X136879179Y-49161313D01*
X137004196Y-49149000D01*
X137087804Y-49149000D01*
X137212821Y-49161313D01*
X137212821Y-49161313D01*
G37*
G36*
X169581396Y-48895046D02*
X169754466Y-48966734D01*
X169910230Y-49070812D01*
X170042688Y-49203270D01*
X170146766Y-49359034D01*
X170218454Y-49532104D01*
X170255000Y-49715833D01*
X170255000Y-49903167D01*
X170218454Y-50086896D01*
X170146766Y-50259966D01*
X170042688Y-50415730D01*
X169910230Y-50548188D01*
X169754466Y-50652266D01*
X169581396Y-50723954D01*
X169397667Y-50760500D01*
X169210333Y-50760500D01*
X169026604Y-50723954D01*
X168853534Y-50652266D01*
X168697770Y-50548188D01*
X168565312Y-50415730D01*
X168461234Y-50259966D01*
X168389546Y-50086896D01*
X168353000Y-49903167D01*
X168353000Y-49715833D01*
X168389546Y-49532104D01*
X168461234Y-49359034D01*
X168565312Y-49203270D01*
X168697770Y-49070812D01*
X168853534Y-48966734D01*
X169026604Y-48895046D01*
X169210333Y-48858500D01*
X169397667Y-48858500D01*
X169581396Y-48895046D01*
X169581396Y-48895046D01*
G37*
G36*
X172795000Y-50760500D02*
X170893000Y-50760500D01*
X170893000Y-48858500D01*
X172795000Y-48858500D01*
X172795000Y-50760500D01*
X172795000Y-50760500D01*
G37*
G36*
X141362589Y-47841876D02*
X141461893Y-47861629D01*
X141602206Y-47919748D01*
X141728484Y-48004125D01*
X141835875Y-48111516D01*
X141920252Y-48237794D01*
X141978371Y-48378107D01*
X141978371Y-48378109D01*
X142008000Y-48527062D01*
X142008000Y-48678938D01*
X141999405Y-48722146D01*
X141978371Y-48827893D01*
X141920252Y-48968206D01*
X141835875Y-49094484D01*
X141728484Y-49201875D01*
X141602206Y-49286252D01*
X141461893Y-49344371D01*
X141384255Y-49359814D01*
X141312938Y-49374000D01*
X141161062Y-49374000D01*
X141089745Y-49359814D01*
X141012107Y-49344371D01*
X140871794Y-49286252D01*
X140745516Y-49201875D01*
X140638125Y-49094484D01*
X140553748Y-48968206D01*
X140495629Y-48827893D01*
X140474595Y-48722146D01*
X140466000Y-48678938D01*
X140466000Y-48527062D01*
X140495629Y-48378109D01*
X140495629Y-48378107D01*
X140553748Y-48237794D01*
X140638125Y-48111516D01*
X140745516Y-48004125D01*
X140871794Y-47919748D01*
X141012107Y-47861629D01*
X141111411Y-47841876D01*
X141161062Y-47832000D01*
X141312938Y-47832000D01*
X141362589Y-47841876D01*
X141362589Y-47841876D01*
G37*
G36*
X143902589Y-47841876D02*
X144001893Y-47861629D01*
X144142206Y-47919748D01*
X144268484Y-48004125D01*
X144375875Y-48111516D01*
X144460252Y-48237794D01*
X144518371Y-48378107D01*
X144518371Y-48378109D01*
X144548000Y-48527062D01*
X144548000Y-48678938D01*
X144539405Y-48722146D01*
X144518371Y-48827893D01*
X144460252Y-48968206D01*
X144375875Y-49094484D01*
X144268484Y-49201875D01*
X144142206Y-49286252D01*
X144001893Y-49344371D01*
X143924255Y-49359814D01*
X143852938Y-49374000D01*
X143701062Y-49374000D01*
X143629745Y-49359814D01*
X143552107Y-49344371D01*
X143411794Y-49286252D01*
X143285516Y-49201875D01*
X143178125Y-49094484D01*
X143093748Y-48968206D01*
X143035629Y-48827893D01*
X143014595Y-48722146D01*
X143006000Y-48678938D01*
X143006000Y-48527062D01*
X143035629Y-48378109D01*
X143035629Y-48378107D01*
X143093748Y-48237794D01*
X143178125Y-48111516D01*
X143285516Y-48004125D01*
X143411794Y-47919748D01*
X143552107Y-47861629D01*
X143651411Y-47841876D01*
X143701062Y-47832000D01*
X143852938Y-47832000D01*
X143902589Y-47841876D01*
X143902589Y-47841876D01*
G37*
G36*
X164708821Y-47129313D02*
X164708824Y-47129314D01*
X164708825Y-47129314D01*
X164869239Y-47177975D01*
X164869241Y-47177976D01*
X164869244Y-47177977D01*
X165017078Y-47256995D01*
X165146659Y-47363341D01*
X165253005Y-47492922D01*
X165332023Y-47640756D01*
X165332024Y-47640759D01*
X165332025Y-47640761D01*
X165376515Y-47787426D01*
X165380687Y-47801179D01*
X165397117Y-47968000D01*
X165380687Y-48134821D01*
X165380686Y-48134824D01*
X165380686Y-48134825D01*
X165349451Y-48237794D01*
X165332023Y-48295244D01*
X165253005Y-48443078D01*
X165146659Y-48572659D01*
X165017078Y-48679005D01*
X164869244Y-48758023D01*
X164869241Y-48758024D01*
X164869239Y-48758025D01*
X164708825Y-48806686D01*
X164708824Y-48806686D01*
X164708821Y-48806687D01*
X164583804Y-48819000D01*
X164500196Y-48819000D01*
X164375179Y-48806687D01*
X164375176Y-48806686D01*
X164375175Y-48806686D01*
X164214761Y-48758025D01*
X164214759Y-48758024D01*
X164214756Y-48758023D01*
X164066922Y-48679005D01*
X163937341Y-48572659D01*
X163830995Y-48443078D01*
X163751977Y-48295244D01*
X163734550Y-48237794D01*
X163703314Y-48134825D01*
X163703314Y-48134824D01*
X163703313Y-48134821D01*
X163686883Y-47968000D01*
X163703313Y-47801179D01*
X163707485Y-47787426D01*
X163751975Y-47640761D01*
X163751976Y-47640759D01*
X163751977Y-47640756D01*
X163830995Y-47492922D01*
X163937341Y-47363341D01*
X164066922Y-47256995D01*
X164214756Y-47177977D01*
X164214759Y-47177976D01*
X164214761Y-47177975D01*
X164375175Y-47129314D01*
X164375176Y-47129314D01*
X164375179Y-47129313D01*
X164500196Y-47117000D01*
X164583804Y-47117000D01*
X164708821Y-47129313D01*
X164708821Y-47129313D01*
G37*
G36*
X160980228Y-47149703D02*
X161135100Y-47213853D01*
X161274481Y-47306985D01*
X161393015Y-47425519D01*
X161486147Y-47564900D01*
X161550297Y-47719772D01*
X161583000Y-47884184D01*
X161583000Y-48051816D01*
X161550297Y-48216228D01*
X161486147Y-48371100D01*
X161393015Y-48510481D01*
X161274481Y-48629015D01*
X161135100Y-48722147D01*
X160980228Y-48786297D01*
X160815816Y-48819000D01*
X160648184Y-48819000D01*
X160483772Y-48786297D01*
X160328900Y-48722147D01*
X160189519Y-48629015D01*
X160070985Y-48510481D01*
X159977853Y-48371100D01*
X159913703Y-48216228D01*
X159881000Y-48051816D01*
X159881000Y-47884184D01*
X159913703Y-47719772D01*
X159977853Y-47564900D01*
X160070985Y-47425519D01*
X160189519Y-47306985D01*
X160328900Y-47213853D01*
X160483772Y-47149703D01*
X160648184Y-47117000D01*
X160815816Y-47117000D01*
X160980228Y-47149703D01*
X160980228Y-47149703D01*
G37*
G36*
X157088821Y-47129313D02*
X157088824Y-47129314D01*
X157088825Y-47129314D01*
X157249239Y-47177975D01*
X157249241Y-47177976D01*
X157249244Y-47177977D01*
X157397078Y-47256995D01*
X157526659Y-47363341D01*
X157633005Y-47492922D01*
X157712023Y-47640756D01*
X157712024Y-47640759D01*
X157712025Y-47640761D01*
X157756515Y-47787426D01*
X157760687Y-47801179D01*
X157777117Y-47968000D01*
X157760687Y-48134821D01*
X157760686Y-48134824D01*
X157760686Y-48134825D01*
X157729451Y-48237794D01*
X157712023Y-48295244D01*
X157633005Y-48443078D01*
X157526659Y-48572659D01*
X157397078Y-48679005D01*
X157249244Y-48758023D01*
X157249241Y-48758024D01*
X157249239Y-48758025D01*
X157088825Y-48806686D01*
X157088824Y-48806686D01*
X157088821Y-48806687D01*
X156963804Y-48819000D01*
X156880196Y-48819000D01*
X156755179Y-48806687D01*
X156755176Y-48806686D01*
X156755175Y-48806686D01*
X156594761Y-48758025D01*
X156594759Y-48758024D01*
X156594756Y-48758023D01*
X156446922Y-48679005D01*
X156317341Y-48572659D01*
X156210995Y-48443078D01*
X156131977Y-48295244D01*
X156114550Y-48237794D01*
X156083314Y-48134825D01*
X156083314Y-48134824D01*
X156083313Y-48134821D01*
X156066883Y-47968000D01*
X156083313Y-47801179D01*
X156087485Y-47787426D01*
X156131975Y-47640761D01*
X156131976Y-47640759D01*
X156131977Y-47640756D01*
X156210995Y-47492922D01*
X156317341Y-47363341D01*
X156446922Y-47256995D01*
X156594756Y-47177977D01*
X156594759Y-47177976D01*
X156594761Y-47177975D01*
X156755175Y-47129314D01*
X156755176Y-47129314D01*
X156755179Y-47129313D01*
X156880196Y-47117000D01*
X156963804Y-47117000D01*
X157088821Y-47129313D01*
X157088821Y-47129313D01*
G37*
G36*
X124358000Y-48361000D02*
X121256000Y-48361000D01*
X121256000Y-46559000D01*
X124358000Y-46559000D01*
X124358000Y-48361000D01*
X124358000Y-48361000D01*
G37*
G36*
X178744000Y-48361000D02*
X175642000Y-48361000D01*
X175642000Y-46559000D01*
X178744000Y-46559000D01*
X178744000Y-48361000D01*
X178744000Y-48361000D01*
G37*
G36*
X129815000Y-46259479D02*
X129817402Y-46283865D01*
X129824515Y-46307314D01*
X129836066Y-46328925D01*
X129851612Y-46347867D01*
X129870554Y-46363413D01*
X129892165Y-46374964D01*
X129915614Y-46382077D01*
X129940000Y-46384479D01*
X129964386Y-46382077D01*
X129987835Y-46374964D01*
X130009446Y-46363413D01*
X130028388Y-46347867D01*
X130043934Y-46328925D01*
X130055485Y-46307314D01*
X130064398Y-46271731D01*
X130069654Y-46218368D01*
X130069654Y-46218365D01*
X130135470Y-46001400D01*
X130135471Y-46001398D01*
X130135472Y-46001395D01*
X130242347Y-45801444D01*
X130386182Y-45626182D01*
X130561444Y-45482347D01*
X130761395Y-45375472D01*
X130761398Y-45375471D01*
X130761400Y-45375470D01*
X130978365Y-45309654D01*
X131079820Y-45299662D01*
X131147455Y-45293000D01*
X131260545Y-45293000D01*
X131328180Y-45299662D01*
X131429635Y-45309654D01*
X131646600Y-45375470D01*
X131646602Y-45375471D01*
X131646605Y-45375472D01*
X131846556Y-45482347D01*
X132021818Y-45626182D01*
X132165653Y-45801444D01*
X132272528Y-46001395D01*
X132272529Y-46001398D01*
X132272530Y-46001400D01*
X132338346Y-46218365D01*
X132360569Y-46444000D01*
X132338346Y-46669635D01*
X132288486Y-46834000D01*
X132272528Y-46886605D01*
X132165653Y-47086556D01*
X132021818Y-47261818D01*
X131846556Y-47405653D01*
X131646605Y-47512528D01*
X131646602Y-47512529D01*
X131646600Y-47512530D01*
X131429635Y-47578346D01*
X131328180Y-47588338D01*
X131260545Y-47595000D01*
X131147455Y-47595000D01*
X131079820Y-47588338D01*
X130978365Y-47578346D01*
X130761400Y-47512530D01*
X130761398Y-47512529D01*
X130761395Y-47512528D01*
X130561444Y-47405653D01*
X130386182Y-47261818D01*
X130242347Y-47086556D01*
X130135472Y-46886605D01*
X130119514Y-46834000D01*
X130069654Y-46669635D01*
X130064398Y-46616268D01*
X130059617Y-46592235D01*
X130050240Y-46569596D01*
X130036626Y-46549222D01*
X130019299Y-46531895D01*
X129998924Y-46518281D01*
X129976285Y-46508903D01*
X129952252Y-46504123D01*
X129927748Y-46504123D01*
X129903714Y-46508904D01*
X129881075Y-46518281D01*
X129860701Y-46531895D01*
X129843374Y-46549222D01*
X129829760Y-46569597D01*
X129820382Y-46592236D01*
X129815000Y-46628521D01*
X129815000Y-47595000D01*
X127513000Y-47595000D01*
X127513000Y-45293000D01*
X129815000Y-45293000D01*
X129815000Y-46259479D01*
X129815000Y-46259479D01*
G37*
G36*
X137212821Y-45605313D02*
X137212824Y-45605314D01*
X137212825Y-45605314D01*
X137373239Y-45653975D01*
X137373241Y-45653976D01*
X137373244Y-45653977D01*
X137521078Y-45732995D01*
X137650659Y-45839341D01*
X137757005Y-45968922D01*
X137836023Y-46116756D01*
X137836024Y-46116759D01*
X137836025Y-46116761D01*
X137884686Y-46277175D01*
X137884687Y-46277179D01*
X137901117Y-46444000D01*
X137884687Y-46610821D01*
X137884686Y-46610824D01*
X137884686Y-46610825D01*
X137843605Y-46746252D01*
X137836023Y-46771244D01*
X137757005Y-46919078D01*
X137650659Y-47048659D01*
X137521078Y-47155005D01*
X137373244Y-47234023D01*
X137373241Y-47234024D01*
X137373239Y-47234025D01*
X137212825Y-47282686D01*
X137212824Y-47282686D01*
X137212821Y-47282687D01*
X137087804Y-47295000D01*
X137004196Y-47295000D01*
X136879179Y-47282687D01*
X136879176Y-47282686D01*
X136879175Y-47282686D01*
X136718761Y-47234025D01*
X136718759Y-47234024D01*
X136718756Y-47234023D01*
X136570922Y-47155005D01*
X136441341Y-47048659D01*
X136334995Y-46919078D01*
X136255977Y-46771244D01*
X136248396Y-46746252D01*
X136207314Y-46610825D01*
X136207314Y-46610824D01*
X136207313Y-46610821D01*
X136190883Y-46444000D01*
X136207313Y-46277179D01*
X136207314Y-46277175D01*
X136255975Y-46116761D01*
X136255976Y-46116759D01*
X136255977Y-46116756D01*
X136334995Y-45968922D01*
X136441341Y-45839341D01*
X136570922Y-45732995D01*
X136718756Y-45653977D01*
X136718759Y-45653976D01*
X136718761Y-45653975D01*
X136879175Y-45605314D01*
X136879176Y-45605314D01*
X136879179Y-45605313D01*
X137004196Y-45593000D01*
X137087804Y-45593000D01*
X137212821Y-45605313D01*
X137212821Y-45605313D01*
G37*
G36*
X134754228Y-45625703D02*
X134909100Y-45689853D01*
X135048481Y-45782985D01*
X135167015Y-45901519D01*
X135260147Y-46040900D01*
X135324297Y-46195772D01*
X135357000Y-46360184D01*
X135357000Y-46527816D01*
X135324297Y-46692228D01*
X135260147Y-46847100D01*
X135167015Y-46986481D01*
X135048481Y-47105015D01*
X134909100Y-47198147D01*
X134754228Y-47262297D01*
X134589816Y-47295000D01*
X134422184Y-47295000D01*
X134257772Y-47262297D01*
X134102900Y-47198147D01*
X133963519Y-47105015D01*
X133844985Y-46986481D01*
X133751853Y-46847100D01*
X133687703Y-46692228D01*
X133655000Y-46527816D01*
X133655000Y-46360184D01*
X133687703Y-46195772D01*
X133751853Y-46040900D01*
X133844985Y-45901519D01*
X133963519Y-45782985D01*
X134102900Y-45689853D01*
X134257772Y-45625703D01*
X134422184Y-45593000D01*
X134589816Y-45593000D01*
X134754228Y-45625703D01*
X134754228Y-45625703D01*
G37*
G36*
X141362589Y-45301876D02*
X141461893Y-45321629D01*
X141602206Y-45379748D01*
X141728484Y-45464125D01*
X141835875Y-45571516D01*
X141920252Y-45697794D01*
X141978371Y-45838107D01*
X141989253Y-45892816D01*
X142008000Y-45987062D01*
X142008000Y-46138938D01*
X141998124Y-46188589D01*
X141978371Y-46287893D01*
X141920252Y-46428206D01*
X141835875Y-46554484D01*
X141728484Y-46661875D01*
X141602206Y-46746252D01*
X141461893Y-46804371D01*
X141362589Y-46824124D01*
X141312938Y-46834000D01*
X141161062Y-46834000D01*
X141111411Y-46824124D01*
X141012107Y-46804371D01*
X140871794Y-46746252D01*
X140745516Y-46661875D01*
X140638125Y-46554484D01*
X140553748Y-46428206D01*
X140495629Y-46287893D01*
X140475876Y-46188589D01*
X140466000Y-46138938D01*
X140466000Y-45987062D01*
X140484747Y-45892816D01*
X140495629Y-45838107D01*
X140553748Y-45697794D01*
X140638125Y-45571516D01*
X140745516Y-45464125D01*
X140871794Y-45379748D01*
X141012107Y-45321629D01*
X141111411Y-45301876D01*
X141161062Y-45292000D01*
X141312938Y-45292000D01*
X141362589Y-45301876D01*
X141362589Y-45301876D01*
G37*
G36*
X169616228Y-44990703D02*
X169771100Y-45054853D01*
X169910481Y-45147985D01*
X170029015Y-45266519D01*
X170122147Y-45405900D01*
X170186297Y-45560772D01*
X170219000Y-45725184D01*
X170219000Y-45892816D01*
X170186297Y-46057228D01*
X170122147Y-46212100D01*
X170029015Y-46351481D01*
X169910481Y-46470015D01*
X169771100Y-46563147D01*
X169616228Y-46627297D01*
X169451816Y-46660000D01*
X169284184Y-46660000D01*
X169119772Y-46627297D01*
X168964900Y-46563147D01*
X168825519Y-46470015D01*
X168706985Y-46351481D01*
X168613853Y-46212100D01*
X168549703Y-46057228D01*
X168517000Y-45892816D01*
X168517000Y-45725184D01*
X168549703Y-45560772D01*
X168613853Y-45405900D01*
X168706985Y-45266519D01*
X168825519Y-45147985D01*
X168964900Y-45054853D01*
X169119772Y-44990703D01*
X169284184Y-44958000D01*
X169451816Y-44958000D01*
X169616228Y-44990703D01*
X169616228Y-44990703D01*
G37*
G36*
X172074821Y-44970313D02*
X172074824Y-44970314D01*
X172074825Y-44970314D01*
X172235239Y-45018975D01*
X172235241Y-45018976D01*
X172235244Y-45018977D01*
X172383078Y-45097995D01*
X172512659Y-45204341D01*
X172619005Y-45333922D01*
X172698023Y-45481756D01*
X172698024Y-45481759D01*
X172698025Y-45481761D01*
X172746686Y-45642175D01*
X172746687Y-45642179D01*
X172763117Y-45809000D01*
X172746687Y-45975821D01*
X172746686Y-45975824D01*
X172746686Y-45975825D01*
X172700217Y-46129014D01*
X172698023Y-46136244D01*
X172619005Y-46284078D01*
X172512659Y-46413659D01*
X172383078Y-46520005D01*
X172235244Y-46599023D01*
X172235241Y-46599024D01*
X172235239Y-46599025D01*
X172074825Y-46647686D01*
X172074824Y-46647686D01*
X172074821Y-46647687D01*
X171949804Y-46660000D01*
X171866196Y-46660000D01*
X171741179Y-46647687D01*
X171741176Y-46647686D01*
X171741175Y-46647686D01*
X171580761Y-46599025D01*
X171580759Y-46599024D01*
X171580756Y-46599023D01*
X171432922Y-46520005D01*
X171303341Y-46413659D01*
X171196995Y-46284078D01*
X171117977Y-46136244D01*
X171115784Y-46129014D01*
X171069314Y-45975825D01*
X171069314Y-45975824D01*
X171069313Y-45975821D01*
X171052883Y-45809000D01*
X171069313Y-45642179D01*
X171069314Y-45642175D01*
X171117975Y-45481761D01*
X171117976Y-45481759D01*
X171117977Y-45481756D01*
X171196995Y-45333922D01*
X171303341Y-45204341D01*
X171432922Y-45097995D01*
X171580756Y-45018977D01*
X171580759Y-45018976D01*
X171580761Y-45018975D01*
X171741175Y-44970314D01*
X171741176Y-44970314D01*
X171741179Y-44970313D01*
X171866196Y-44958000D01*
X171949804Y-44958000D01*
X172074821Y-44970313D01*
X172074821Y-44970313D01*
G37*
G36*
X160980228Y-44649703D02*
X161135100Y-44713853D01*
X161274481Y-44806985D01*
X161393015Y-44925519D01*
X161486147Y-45064900D01*
X161550297Y-45219772D01*
X161583000Y-45384184D01*
X161583000Y-45551816D01*
X161550297Y-45716228D01*
X161486147Y-45871100D01*
X161393015Y-46010481D01*
X161274481Y-46129015D01*
X161135100Y-46222147D01*
X160980228Y-46286297D01*
X160815816Y-46319000D01*
X160648184Y-46319000D01*
X160483772Y-46286297D01*
X160328900Y-46222147D01*
X160189519Y-46129015D01*
X160070985Y-46010481D01*
X159977853Y-45871100D01*
X159913703Y-45716228D01*
X159881000Y-45551816D01*
X159881000Y-45384184D01*
X159913703Y-45219772D01*
X159977853Y-45064900D01*
X160070985Y-44925519D01*
X160189519Y-44806985D01*
X160328900Y-44713853D01*
X160483772Y-44649703D01*
X160648184Y-44617000D01*
X160815816Y-44617000D01*
X160980228Y-44649703D01*
X160980228Y-44649703D01*
G37*
G36*
X164708821Y-44589313D02*
X164708824Y-44589314D01*
X164708825Y-44589314D01*
X164869239Y-44637975D01*
X164869241Y-44637976D01*
X164869244Y-44637977D01*
X165017078Y-44716995D01*
X165146659Y-44823341D01*
X165253005Y-44952922D01*
X165332023Y-45100756D01*
X165332024Y-45100759D01*
X165332025Y-45100761D01*
X165380686Y-45261175D01*
X165380687Y-45261179D01*
X165397117Y-45428000D01*
X165380687Y-45594821D01*
X165380686Y-45594824D01*
X165380686Y-45594825D01*
X165338773Y-45732995D01*
X165332023Y-45755244D01*
X165253005Y-45903078D01*
X165146659Y-46032659D01*
X165017078Y-46139005D01*
X164869244Y-46218023D01*
X164869241Y-46218024D01*
X164869239Y-46218025D01*
X164708825Y-46266686D01*
X164708824Y-46266686D01*
X164708821Y-46266687D01*
X164583804Y-46279000D01*
X164500196Y-46279000D01*
X164375179Y-46266687D01*
X164375176Y-46266686D01*
X164375175Y-46266686D01*
X164214761Y-46218025D01*
X164214759Y-46218024D01*
X164214756Y-46218023D01*
X164066922Y-46139005D01*
X163937341Y-46032659D01*
X163830995Y-45903078D01*
X163751977Y-45755244D01*
X163745228Y-45732995D01*
X163703314Y-45594825D01*
X163703314Y-45594824D01*
X163703313Y-45594821D01*
X163686883Y-45428000D01*
X163703313Y-45261179D01*
X163703314Y-45261175D01*
X163751975Y-45100761D01*
X163751976Y-45100759D01*
X163751977Y-45100756D01*
X163830995Y-44952922D01*
X163937341Y-44823341D01*
X164066922Y-44716995D01*
X164214756Y-44637977D01*
X164214759Y-44637976D01*
X164214761Y-44637975D01*
X164375175Y-44589314D01*
X164375176Y-44589314D01*
X164375179Y-44589313D01*
X164500196Y-44577000D01*
X164583804Y-44577000D01*
X164708821Y-44589313D01*
X164708821Y-44589313D01*
G37*
G36*
X157088821Y-44589313D02*
X157088824Y-44589314D01*
X157088825Y-44589314D01*
X157249239Y-44637975D01*
X157249241Y-44637976D01*
X157249244Y-44637977D01*
X157397078Y-44716995D01*
X157526659Y-44823341D01*
X157633005Y-44952922D01*
X157712023Y-45100756D01*
X157712024Y-45100759D01*
X157712025Y-45100761D01*
X157760686Y-45261175D01*
X157760687Y-45261179D01*
X157777117Y-45428000D01*
X157760687Y-45594821D01*
X157760686Y-45594824D01*
X157760686Y-45594825D01*
X157718773Y-45732995D01*
X157712023Y-45755244D01*
X157633005Y-45903078D01*
X157526659Y-46032659D01*
X157397078Y-46139005D01*
X157249244Y-46218023D01*
X157249241Y-46218024D01*
X157249239Y-46218025D01*
X157088825Y-46266686D01*
X157088824Y-46266686D01*
X157088821Y-46266687D01*
X156963804Y-46279000D01*
X156880196Y-46279000D01*
X156755179Y-46266687D01*
X156755176Y-46266686D01*
X156755175Y-46266686D01*
X156594761Y-46218025D01*
X156594759Y-46218024D01*
X156594756Y-46218023D01*
X156446922Y-46139005D01*
X156317341Y-46032659D01*
X156210995Y-45903078D01*
X156131977Y-45755244D01*
X156125228Y-45732995D01*
X156083314Y-45594825D01*
X156083314Y-45594824D01*
X156083313Y-45594821D01*
X156066883Y-45428000D01*
X156083313Y-45261179D01*
X156083314Y-45261175D01*
X156131975Y-45100761D01*
X156131976Y-45100759D01*
X156131977Y-45100756D01*
X156210995Y-44952922D01*
X156317341Y-44823341D01*
X156446922Y-44716995D01*
X156594756Y-44637977D01*
X156594759Y-44637976D01*
X156594761Y-44637975D01*
X156755175Y-44589314D01*
X156755176Y-44589314D01*
X156755179Y-44589313D01*
X156880196Y-44577000D01*
X156963804Y-44577000D01*
X157088821Y-44589313D01*
X157088821Y-44589313D01*
G37*
G36*
X149236589Y-43015876D02*
X149335893Y-43035629D01*
X149476206Y-43093748D01*
X149602484Y-43178125D01*
X149709875Y-43285516D01*
X149794252Y-43411794D01*
X149852371Y-43552107D01*
X149872124Y-43651411D01*
X149877418Y-43678025D01*
X149882000Y-43701063D01*
X149882000Y-43852937D01*
X149852371Y-44001893D01*
X149794252Y-44142206D01*
X149709875Y-44268484D01*
X149602484Y-44375875D01*
X149476206Y-44460252D01*
X149335893Y-44518371D01*
X149236589Y-44538124D01*
X149186938Y-44548000D01*
X149035062Y-44548000D01*
X148985411Y-44538124D01*
X148886107Y-44518371D01*
X148745794Y-44460252D01*
X148619516Y-44375875D01*
X148512125Y-44268484D01*
X148427748Y-44142206D01*
X148369629Y-44001893D01*
X148340000Y-43852937D01*
X148340000Y-43701063D01*
X148344583Y-43678025D01*
X148349876Y-43651411D01*
X148369629Y-43552107D01*
X148427748Y-43411794D01*
X148512125Y-43285516D01*
X148619516Y-43178125D01*
X148745794Y-43093748D01*
X148886107Y-43035629D01*
X148985411Y-43015876D01*
X149035062Y-43006000D01*
X149186938Y-43006000D01*
X149236589Y-43015876D01*
X149236589Y-43015876D01*
G37*
G36*
X157088821Y-42049313D02*
X157088824Y-42049314D01*
X157088825Y-42049314D01*
X157249239Y-42097975D01*
X157249241Y-42097976D01*
X157249244Y-42097977D01*
X157397078Y-42176995D01*
X157526659Y-42283341D01*
X157633005Y-42412922D01*
X157712023Y-42560756D01*
X157712024Y-42560759D01*
X157712025Y-42560761D01*
X157760686Y-42721175D01*
X157760687Y-42721179D01*
X157777117Y-42888000D01*
X157760687Y-43054821D01*
X157760686Y-43054824D01*
X157760686Y-43054825D01*
X157726351Y-43168014D01*
X157712023Y-43215244D01*
X157633005Y-43363078D01*
X157526659Y-43492659D01*
X157397078Y-43599005D01*
X157249244Y-43678023D01*
X157249241Y-43678024D01*
X157249239Y-43678025D01*
X157088825Y-43726686D01*
X157088824Y-43726686D01*
X157088821Y-43726687D01*
X156963804Y-43739000D01*
X156880196Y-43739000D01*
X156755179Y-43726687D01*
X156755176Y-43726686D01*
X156755175Y-43726686D01*
X156594761Y-43678025D01*
X156594759Y-43678024D01*
X156594756Y-43678023D01*
X156446922Y-43599005D01*
X156317341Y-43492659D01*
X156210995Y-43363078D01*
X156131977Y-43215244D01*
X156117650Y-43168014D01*
X156083314Y-43054825D01*
X156083314Y-43054824D01*
X156083313Y-43054821D01*
X156066883Y-42888000D01*
X156083313Y-42721179D01*
X156083314Y-42721175D01*
X156131975Y-42560761D01*
X156131976Y-42560759D01*
X156131977Y-42560756D01*
X156210995Y-42412922D01*
X156317341Y-42283341D01*
X156446922Y-42176995D01*
X156594756Y-42097977D01*
X156594759Y-42097976D01*
X156594761Y-42097975D01*
X156755175Y-42049314D01*
X156755176Y-42049314D01*
X156755179Y-42049313D01*
X156880196Y-42037000D01*
X156963804Y-42037000D01*
X157088821Y-42049313D01*
X157088821Y-42049313D01*
G37*
G36*
X164708821Y-42049313D02*
X164708824Y-42049314D01*
X164708825Y-42049314D01*
X164869239Y-42097975D01*
X164869241Y-42097976D01*
X164869244Y-42097977D01*
X165017078Y-42176995D01*
X165146659Y-42283341D01*
X165253005Y-42412922D01*
X165332023Y-42560756D01*
X165332024Y-42560759D01*
X165332025Y-42560761D01*
X165380686Y-42721175D01*
X165380687Y-42721179D01*
X165397117Y-42888000D01*
X165380687Y-43054821D01*
X165380686Y-43054824D01*
X165380686Y-43054825D01*
X165346351Y-43168014D01*
X165332023Y-43215244D01*
X165253005Y-43363078D01*
X165146659Y-43492659D01*
X165017078Y-43599005D01*
X164869244Y-43678023D01*
X164869241Y-43678024D01*
X164869239Y-43678025D01*
X164708825Y-43726686D01*
X164708824Y-43726686D01*
X164708821Y-43726687D01*
X164583804Y-43739000D01*
X164500196Y-43739000D01*
X164375179Y-43726687D01*
X164375176Y-43726686D01*
X164375175Y-43726686D01*
X164214761Y-43678025D01*
X164214759Y-43678024D01*
X164214756Y-43678023D01*
X164066922Y-43599005D01*
X163937341Y-43492659D01*
X163830995Y-43363078D01*
X163751977Y-43215244D01*
X163737650Y-43168014D01*
X163703314Y-43054825D01*
X163703314Y-43054824D01*
X163703313Y-43054821D01*
X163686883Y-42888000D01*
X163703313Y-42721179D01*
X163703314Y-42721175D01*
X163751975Y-42560761D01*
X163751976Y-42560759D01*
X163751977Y-42560756D01*
X163830995Y-42412922D01*
X163937341Y-42283341D01*
X164066922Y-42176995D01*
X164214756Y-42097977D01*
X164214759Y-42097976D01*
X164214761Y-42097975D01*
X164375175Y-42049314D01*
X164375176Y-42049314D01*
X164375179Y-42049313D01*
X164500196Y-42037000D01*
X164583804Y-42037000D01*
X164708821Y-42049313D01*
X164708821Y-42049313D01*
G37*
G36*
X160980228Y-42029703D02*
X161135100Y-42093853D01*
X161274481Y-42186985D01*
X161393015Y-42305519D01*
X161486147Y-42444900D01*
X161550297Y-42599772D01*
X161583000Y-42764184D01*
X161583000Y-42931816D01*
X161550297Y-43096228D01*
X161486147Y-43251100D01*
X161393015Y-43390481D01*
X161274481Y-43509015D01*
X161135100Y-43602147D01*
X160980228Y-43666297D01*
X160815816Y-43699000D01*
X160648184Y-43699000D01*
X160483772Y-43666297D01*
X160328900Y-43602147D01*
X160189519Y-43509015D01*
X160070985Y-43390481D01*
X159977853Y-43251100D01*
X159913703Y-43096228D01*
X159881000Y-42931816D01*
X159881000Y-42764184D01*
X159913703Y-42599772D01*
X159977853Y-42444900D01*
X160070985Y-42305519D01*
X160189519Y-42186985D01*
X160328900Y-42093853D01*
X160483772Y-42029703D01*
X160648184Y-41997000D01*
X160815816Y-41997000D01*
X160980228Y-42029703D01*
X160980228Y-42029703D01*
G37*
G36*
X167946821Y-41668313D02*
X167946824Y-41668314D01*
X167946825Y-41668314D01*
X168107239Y-41716975D01*
X168107241Y-41716976D01*
X168107244Y-41716977D01*
X168255078Y-41795995D01*
X168384659Y-41902341D01*
X168491005Y-42031922D01*
X168570023Y-42179756D01*
X168570024Y-42179759D01*
X168570025Y-42179761D01*
X168608173Y-42305519D01*
X168618687Y-42340179D01*
X168635117Y-42507000D01*
X168618687Y-42673821D01*
X168618686Y-42673824D01*
X168618686Y-42673825D01*
X168593993Y-42755228D01*
X168570023Y-42834244D01*
X168491005Y-42982078D01*
X168384659Y-43111659D01*
X168255078Y-43218005D01*
X168107244Y-43297023D01*
X168107241Y-43297024D01*
X168107239Y-43297025D01*
X167946825Y-43345686D01*
X167946824Y-43345686D01*
X167946821Y-43345687D01*
X167821804Y-43358000D01*
X167738196Y-43358000D01*
X167613179Y-43345687D01*
X167613176Y-43345686D01*
X167613175Y-43345686D01*
X167452761Y-43297025D01*
X167452759Y-43297024D01*
X167452756Y-43297023D01*
X167304922Y-43218005D01*
X167175341Y-43111659D01*
X167068995Y-42982078D01*
X166989977Y-42834244D01*
X166966008Y-42755228D01*
X166941314Y-42673825D01*
X166941314Y-42673824D01*
X166941313Y-42673821D01*
X166924883Y-42507000D01*
X166941313Y-42340179D01*
X166951827Y-42305519D01*
X166989975Y-42179761D01*
X166989976Y-42179759D01*
X166989977Y-42179756D01*
X167068995Y-42031922D01*
X167175341Y-41902341D01*
X167304922Y-41795995D01*
X167452756Y-41716977D01*
X167452759Y-41716976D01*
X167452761Y-41716975D01*
X167613175Y-41668314D01*
X167613176Y-41668314D01*
X167613179Y-41668313D01*
X167738196Y-41656000D01*
X167821804Y-41656000D01*
X167946821Y-41668313D01*
X167946821Y-41668313D01*
G37*
G36*
X170568228Y-41688703D02*
X170723100Y-41752853D01*
X170862481Y-41845985D01*
X170981015Y-41964519D01*
X171074147Y-42103900D01*
X171138297Y-42258772D01*
X171171000Y-42423184D01*
X171171000Y-42590816D01*
X171138297Y-42755228D01*
X171074147Y-42910100D01*
X170981015Y-43049481D01*
X170862481Y-43168015D01*
X170723100Y-43261147D01*
X170568228Y-43325297D01*
X170403816Y-43358000D01*
X170236184Y-43358000D01*
X170071772Y-43325297D01*
X169916900Y-43261147D01*
X169777519Y-43168015D01*
X169658985Y-43049481D01*
X169565853Y-42910100D01*
X169501703Y-42755228D01*
X169469000Y-42590816D01*
X169469000Y-42423184D01*
X169501703Y-42258772D01*
X169565853Y-42103900D01*
X169658985Y-41964519D01*
X169777519Y-41845985D01*
X169916900Y-41752853D01*
X170071772Y-41688703D01*
X170236184Y-41656000D01*
X170403816Y-41656000D01*
X170568228Y-41688703D01*
X170568228Y-41688703D01*
G37*
G36*
X151776589Y-40475876D02*
X151875893Y-40495629D01*
X152016206Y-40553748D01*
X152142484Y-40638125D01*
X152249875Y-40745516D01*
X152334252Y-40871794D01*
X152392371Y-41012107D01*
X152410281Y-41102146D01*
X152420559Y-41153816D01*
X152422000Y-41161063D01*
X152422000Y-41312937D01*
X152392371Y-41461893D01*
X152334252Y-41602206D01*
X152249875Y-41728484D01*
X152142484Y-41835875D01*
X152016206Y-41920252D01*
X151875893Y-41978371D01*
X151782238Y-41997000D01*
X151726938Y-42008000D01*
X151575062Y-42008000D01*
X151519762Y-41997000D01*
X151426107Y-41978371D01*
X151285794Y-41920252D01*
X151159516Y-41835875D01*
X151052125Y-41728484D01*
X150967748Y-41602206D01*
X150909629Y-41461893D01*
X150880000Y-41312937D01*
X150880000Y-41161063D01*
X150881442Y-41153816D01*
X150891719Y-41102146D01*
X150909629Y-41012107D01*
X150967748Y-40871794D01*
X151052125Y-40745516D01*
X151159516Y-40638125D01*
X151285794Y-40553748D01*
X151426107Y-40495629D01*
X151525411Y-40475876D01*
X151575062Y-40466000D01*
X151726938Y-40466000D01*
X151776589Y-40475876D01*
X151776589Y-40475876D01*
G37*
G36*
X146696589Y-40475876D02*
X146795893Y-40495629D01*
X146936206Y-40553748D01*
X147062484Y-40638125D01*
X147169875Y-40745516D01*
X147254252Y-40871794D01*
X147312371Y-41012107D01*
X147330281Y-41102146D01*
X147340559Y-41153816D01*
X147342000Y-41161063D01*
X147342000Y-41312937D01*
X147312371Y-41461893D01*
X147254252Y-41602206D01*
X147169875Y-41728484D01*
X147062484Y-41835875D01*
X146936206Y-41920252D01*
X146795893Y-41978371D01*
X146702238Y-41997000D01*
X146646938Y-42008000D01*
X146495062Y-42008000D01*
X146439762Y-41997000D01*
X146346107Y-41978371D01*
X146205794Y-41920252D01*
X146079516Y-41835875D01*
X145972125Y-41728484D01*
X145887748Y-41602206D01*
X145829629Y-41461893D01*
X145800000Y-41312937D01*
X145800000Y-41161063D01*
X145801442Y-41153816D01*
X145811719Y-41102146D01*
X145829629Y-41012107D01*
X145887748Y-40871794D01*
X145972125Y-40745516D01*
X146079516Y-40638125D01*
X146205794Y-40553748D01*
X146346107Y-40495629D01*
X146445411Y-40475876D01*
X146495062Y-40466000D01*
X146646938Y-40466000D01*
X146696589Y-40475876D01*
X146696589Y-40475876D01*
G37*
G36*
X149236589Y-40475876D02*
X149335893Y-40495629D01*
X149476206Y-40553748D01*
X149602484Y-40638125D01*
X149709875Y-40745516D01*
X149794252Y-40871794D01*
X149852371Y-41012107D01*
X149870281Y-41102146D01*
X149880559Y-41153816D01*
X149882000Y-41161063D01*
X149882000Y-41312937D01*
X149852371Y-41461893D01*
X149794252Y-41602206D01*
X149709875Y-41728484D01*
X149602484Y-41835875D01*
X149476206Y-41920252D01*
X149335893Y-41978371D01*
X149242238Y-41997000D01*
X149186938Y-42008000D01*
X149035062Y-42008000D01*
X148979762Y-41997000D01*
X148886107Y-41978371D01*
X148745794Y-41920252D01*
X148619516Y-41835875D01*
X148512125Y-41728484D01*
X148427748Y-41602206D01*
X148369629Y-41461893D01*
X148340000Y-41312937D01*
X148340000Y-41161063D01*
X148341442Y-41153816D01*
X148351719Y-41102146D01*
X148369629Y-41012107D01*
X148427748Y-40871794D01*
X148512125Y-40745516D01*
X148619516Y-40638125D01*
X148745794Y-40553748D01*
X148886107Y-40495629D01*
X148985411Y-40475876D01*
X149035062Y-40466000D01*
X149186938Y-40466000D01*
X149236589Y-40475876D01*
X149236589Y-40475876D01*
G37*
G36*
X137466821Y-40271313D02*
X137466824Y-40271314D01*
X137466825Y-40271314D01*
X137627239Y-40319975D01*
X137627241Y-40319976D01*
X137627244Y-40319977D01*
X137775078Y-40398995D01*
X137904659Y-40505341D01*
X138011005Y-40634922D01*
X138090023Y-40782756D01*
X138090024Y-40782759D01*
X138090025Y-40782761D01*
X138102255Y-40823078D01*
X138138687Y-40943179D01*
X138155117Y-41110000D01*
X138138687Y-41276821D01*
X138138686Y-41276824D01*
X138138686Y-41276825D01*
X138126127Y-41318228D01*
X138090023Y-41437244D01*
X138011005Y-41585078D01*
X137904659Y-41714659D01*
X137775078Y-41821005D01*
X137627244Y-41900023D01*
X137627241Y-41900024D01*
X137627239Y-41900025D01*
X137466825Y-41948686D01*
X137466824Y-41948686D01*
X137466821Y-41948687D01*
X137341804Y-41961000D01*
X137258196Y-41961000D01*
X137133179Y-41948687D01*
X137133176Y-41948686D01*
X137133175Y-41948686D01*
X136972761Y-41900025D01*
X136972759Y-41900024D01*
X136972756Y-41900023D01*
X136824922Y-41821005D01*
X136695341Y-41714659D01*
X136588995Y-41585078D01*
X136509977Y-41437244D01*
X136473874Y-41318228D01*
X136461314Y-41276825D01*
X136461314Y-41276824D01*
X136461313Y-41276821D01*
X136444883Y-41110000D01*
X136461313Y-40943179D01*
X136497745Y-40823078D01*
X136509975Y-40782761D01*
X136509976Y-40782759D01*
X136509977Y-40782756D01*
X136588995Y-40634922D01*
X136695341Y-40505341D01*
X136824922Y-40398995D01*
X136972756Y-40319977D01*
X136972759Y-40319976D01*
X136972761Y-40319975D01*
X137133175Y-40271314D01*
X137133176Y-40271314D01*
X137133179Y-40271313D01*
X137258196Y-40259000D01*
X137341804Y-40259000D01*
X137466821Y-40271313D01*
X137466821Y-40271313D01*
G37*
G36*
X128322821Y-40271313D02*
X128322824Y-40271314D01*
X128322825Y-40271314D01*
X128483239Y-40319975D01*
X128483241Y-40319976D01*
X128483244Y-40319977D01*
X128631078Y-40398995D01*
X128760659Y-40505341D01*
X128867005Y-40634922D01*
X128946023Y-40782756D01*
X128946024Y-40782759D01*
X128946025Y-40782761D01*
X128958255Y-40823078D01*
X128994687Y-40943179D01*
X129011117Y-41110000D01*
X128994687Y-41276821D01*
X128994686Y-41276824D01*
X128994686Y-41276825D01*
X128982127Y-41318228D01*
X128946023Y-41437244D01*
X128867005Y-41585078D01*
X128760659Y-41714659D01*
X128631078Y-41821005D01*
X128483244Y-41900023D01*
X128483241Y-41900024D01*
X128483239Y-41900025D01*
X128322825Y-41948686D01*
X128322824Y-41948686D01*
X128322821Y-41948687D01*
X128197804Y-41961000D01*
X128114196Y-41961000D01*
X127989179Y-41948687D01*
X127989176Y-41948686D01*
X127989175Y-41948686D01*
X127828761Y-41900025D01*
X127828759Y-41900024D01*
X127828756Y-41900023D01*
X127680922Y-41821005D01*
X127551341Y-41714659D01*
X127444995Y-41585078D01*
X127365977Y-41437244D01*
X127329874Y-41318228D01*
X127317314Y-41276825D01*
X127317314Y-41276824D01*
X127317313Y-41276821D01*
X127300883Y-41110000D01*
X127317313Y-40943179D01*
X127353745Y-40823078D01*
X127365975Y-40782761D01*
X127365976Y-40782759D01*
X127365977Y-40782756D01*
X127444995Y-40634922D01*
X127551341Y-40505341D01*
X127680922Y-40398995D01*
X127828756Y-40319977D01*
X127828759Y-40319976D01*
X127828761Y-40319975D01*
X127989175Y-40271314D01*
X127989176Y-40271314D01*
X127989179Y-40271313D01*
X128114196Y-40259000D01*
X128197804Y-40259000D01*
X128322821Y-40271313D01*
X128322821Y-40271313D01*
G37*
G36*
X142120228Y-40251703D02*
X142275100Y-40315853D01*
X142414481Y-40408985D01*
X142533015Y-40527519D01*
X142626147Y-40666900D01*
X142690297Y-40821772D01*
X142723000Y-40986184D01*
X142723000Y-41153816D01*
X142690297Y-41318228D01*
X142626147Y-41473100D01*
X142533015Y-41612481D01*
X142414481Y-41731015D01*
X142275100Y-41824147D01*
X142120228Y-41888297D01*
X141955816Y-41921000D01*
X141788184Y-41921000D01*
X141623772Y-41888297D01*
X141468900Y-41824147D01*
X141329519Y-41731015D01*
X141210985Y-41612481D01*
X141117853Y-41473100D01*
X141053703Y-41318228D01*
X141021000Y-41153816D01*
X141021000Y-40986184D01*
X141053703Y-40821772D01*
X141117853Y-40666900D01*
X141210985Y-40527519D01*
X141329519Y-40408985D01*
X141468900Y-40315853D01*
X141623772Y-40251703D01*
X141788184Y-40219000D01*
X141955816Y-40219000D01*
X142120228Y-40251703D01*
X142120228Y-40251703D01*
G37*
G36*
X132976228Y-40251703D02*
X133131100Y-40315853D01*
X133270481Y-40408985D01*
X133389015Y-40527519D01*
X133482147Y-40666900D01*
X133546297Y-40821772D01*
X133579000Y-40986184D01*
X133579000Y-41153816D01*
X133546297Y-41318228D01*
X133482147Y-41473100D01*
X133389015Y-41612481D01*
X133270481Y-41731015D01*
X133131100Y-41824147D01*
X132976228Y-41888297D01*
X132811816Y-41921000D01*
X132644184Y-41921000D01*
X132479772Y-41888297D01*
X132324900Y-41824147D01*
X132185519Y-41731015D01*
X132066985Y-41612481D01*
X131973853Y-41473100D01*
X131909703Y-41318228D01*
X131877000Y-41153816D01*
X131877000Y-40986184D01*
X131909703Y-40821772D01*
X131973853Y-40666900D01*
X132066985Y-40527519D01*
X132185519Y-40408985D01*
X132324900Y-40315853D01*
X132479772Y-40251703D01*
X132644184Y-40219000D01*
X132811816Y-40219000D01*
X132976228Y-40251703D01*
X132976228Y-40251703D01*
G37*
G36*
X160980228Y-39529703D02*
X161135100Y-39593853D01*
X161274481Y-39686985D01*
X161393015Y-39805519D01*
X161486147Y-39944900D01*
X161550297Y-40099772D01*
X161583000Y-40264184D01*
X161583000Y-40431816D01*
X161550297Y-40596228D01*
X161486147Y-40751100D01*
X161393015Y-40890481D01*
X161274481Y-41009015D01*
X161135100Y-41102147D01*
X160980228Y-41166297D01*
X160815816Y-41199000D01*
X160648184Y-41199000D01*
X160483772Y-41166297D01*
X160328900Y-41102147D01*
X160189519Y-41009015D01*
X160070985Y-40890481D01*
X159977853Y-40751100D01*
X159913703Y-40596228D01*
X159881000Y-40431816D01*
X159881000Y-40264184D01*
X159913703Y-40099772D01*
X159977853Y-39944900D01*
X160070985Y-39805519D01*
X160189519Y-39686985D01*
X160328900Y-39593853D01*
X160483772Y-39529703D01*
X160648184Y-39497000D01*
X160815816Y-39497000D01*
X160980228Y-39529703D01*
X160980228Y-39529703D01*
G37*
G36*
X157773000Y-41199000D02*
X156071000Y-41199000D01*
X156071000Y-39497000D01*
X157773000Y-39497000D01*
X157773000Y-41199000D01*
X157773000Y-41199000D01*
G37*
G36*
X164708821Y-39509313D02*
X164708824Y-39509314D01*
X164708825Y-39509314D01*
X164869239Y-39557975D01*
X164869241Y-39557976D01*
X164869244Y-39557977D01*
X165017078Y-39636995D01*
X165146659Y-39743341D01*
X165253005Y-39872922D01*
X165332023Y-40020756D01*
X165332024Y-40020759D01*
X165332025Y-40020761D01*
X165380686Y-40181175D01*
X165380687Y-40181179D01*
X165397117Y-40348000D01*
X165380687Y-40514821D01*
X165380686Y-40514824D01*
X165380686Y-40514825D01*
X165334555Y-40666900D01*
X165332023Y-40675244D01*
X165253005Y-40823078D01*
X165146659Y-40952659D01*
X165017078Y-41059005D01*
X164869244Y-41138023D01*
X164869241Y-41138024D01*
X164869239Y-41138025D01*
X164708825Y-41186686D01*
X164708824Y-41186686D01*
X164708821Y-41186687D01*
X164583804Y-41199000D01*
X164500196Y-41199000D01*
X164375179Y-41186687D01*
X164375176Y-41186686D01*
X164375175Y-41186686D01*
X164214761Y-41138025D01*
X164214759Y-41138024D01*
X164214756Y-41138023D01*
X164066922Y-41059005D01*
X163937341Y-40952659D01*
X163830995Y-40823078D01*
X163751977Y-40675244D01*
X163749446Y-40666900D01*
X163703314Y-40514825D01*
X163703314Y-40514824D01*
X163703313Y-40514821D01*
X163686883Y-40348000D01*
X163703313Y-40181179D01*
X163703314Y-40181175D01*
X163751975Y-40020761D01*
X163751976Y-40020759D01*
X163751977Y-40020756D01*
X163830995Y-39872922D01*
X163937341Y-39743341D01*
X164066922Y-39636995D01*
X164214756Y-39557977D01*
X164214759Y-39557976D01*
X164214761Y-39557975D01*
X164375175Y-39509314D01*
X164375176Y-39509314D01*
X164375179Y-39509313D01*
X164500196Y-39497000D01*
X164583804Y-39497000D01*
X164708821Y-39509313D01*
X164708821Y-39509313D01*
G37*
G36*
X142723000Y-39421000D02*
X141021000Y-39421000D01*
X141021000Y-37719000D01*
X142723000Y-37719000D01*
X142723000Y-39421000D01*
X142723000Y-39421000D01*
G37*
G36*
X137548228Y-37751703D02*
X137703100Y-37815853D01*
X137842481Y-37908985D01*
X137961015Y-38027519D01*
X138054147Y-38166900D01*
X138118297Y-38321772D01*
X138151000Y-38486184D01*
X138151000Y-38653816D01*
X138118297Y-38818228D01*
X138054147Y-38973100D01*
X137961015Y-39112481D01*
X137842481Y-39231015D01*
X137703100Y-39324147D01*
X137548228Y-39388297D01*
X137383816Y-39421000D01*
X137216184Y-39421000D01*
X137051772Y-39388297D01*
X136896900Y-39324147D01*
X136757519Y-39231015D01*
X136638985Y-39112481D01*
X136545853Y-38973100D01*
X136481703Y-38818228D01*
X136449000Y-38653816D01*
X136449000Y-38486184D01*
X136481703Y-38321772D01*
X136545853Y-38166900D01*
X136638985Y-38027519D01*
X136757519Y-37908985D01*
X136896900Y-37815853D01*
X137051772Y-37751703D01*
X137216184Y-37719000D01*
X137383816Y-37719000D01*
X137548228Y-37751703D01*
X137548228Y-37751703D01*
G37*
G36*
X128404228Y-37751703D02*
X128559100Y-37815853D01*
X128698481Y-37908985D01*
X128817015Y-38027519D01*
X128910147Y-38166900D01*
X128974297Y-38321772D01*
X129007000Y-38486184D01*
X129007000Y-38653816D01*
X128974297Y-38818228D01*
X128910147Y-38973100D01*
X128817015Y-39112481D01*
X128698481Y-39231015D01*
X128559100Y-39324147D01*
X128404228Y-39388297D01*
X128239816Y-39421000D01*
X128072184Y-39421000D01*
X127907772Y-39388297D01*
X127752900Y-39324147D01*
X127613519Y-39231015D01*
X127494985Y-39112481D01*
X127401853Y-38973100D01*
X127337703Y-38818228D01*
X127305000Y-38653816D01*
X127305000Y-38486184D01*
X127337703Y-38321772D01*
X127401853Y-38166900D01*
X127494985Y-38027519D01*
X127613519Y-37908985D01*
X127752900Y-37815853D01*
X127907772Y-37751703D01*
X128072184Y-37719000D01*
X128239816Y-37719000D01*
X128404228Y-37751703D01*
X128404228Y-37751703D01*
G37*
G36*
X133579000Y-39421000D02*
X131877000Y-39421000D01*
X131877000Y-37719000D01*
X133579000Y-37719000D01*
X133579000Y-39421000D01*
X133579000Y-39421000D01*
G37*
G36*
X168068228Y-37307203D02*
X168223100Y-37371353D01*
X168362481Y-37464485D01*
X168481015Y-37583019D01*
X168574147Y-37722400D01*
X168638297Y-37877272D01*
X168671000Y-38041684D01*
X168671000Y-38209316D01*
X168638297Y-38373728D01*
X168574147Y-38528600D01*
X168481015Y-38667981D01*
X168362481Y-38786515D01*
X168223100Y-38879647D01*
X168068228Y-38943797D01*
X167903816Y-38976500D01*
X167736184Y-38976500D01*
X167571772Y-38943797D01*
X167416900Y-38879647D01*
X167277519Y-38786515D01*
X167158985Y-38667981D01*
X167065853Y-38528600D01*
X167001703Y-38373728D01*
X166969000Y-38209316D01*
X166969000Y-38041684D01*
X167001703Y-37877272D01*
X167065853Y-37722400D01*
X167158985Y-37583019D01*
X167277519Y-37464485D01*
X167416900Y-37371353D01*
X167571772Y-37307203D01*
X167736184Y-37274500D01*
X167903816Y-37274500D01*
X168068228Y-37307203D01*
X168068228Y-37307203D01*
G37*
G36*
X171171000Y-38976500D02*
X169469000Y-38976500D01*
X169469000Y-37274500D01*
X171171000Y-37274500D01*
X171171000Y-38976500D01*
X171171000Y-38976500D01*
G37*
G36*
X160136821Y-36016813D02*
X160136824Y-36016814D01*
X160136825Y-36016814D01*
X160297239Y-36065475D01*
X160297241Y-36065476D01*
X160297244Y-36065477D01*
X160445078Y-36144495D01*
X160574659Y-36250841D01*
X160681005Y-36380422D01*
X160760023Y-36528256D01*
X160760024Y-36528259D01*
X160760025Y-36528261D01*
X160808686Y-36688675D01*
X160808687Y-36688679D01*
X160825117Y-36855500D01*
X160808687Y-37022321D01*
X160808686Y-37022324D01*
X160808686Y-37022325D01*
X160783993Y-37103728D01*
X160760023Y-37182744D01*
X160681005Y-37330578D01*
X160574659Y-37460159D01*
X160445078Y-37566505D01*
X160297244Y-37645523D01*
X160297241Y-37645524D01*
X160297239Y-37645525D01*
X160136825Y-37694186D01*
X160136824Y-37694186D01*
X160136821Y-37694187D01*
X160011804Y-37706500D01*
X159928196Y-37706500D01*
X159803179Y-37694187D01*
X159803176Y-37694186D01*
X159803175Y-37694186D01*
X159642761Y-37645525D01*
X159642759Y-37645524D01*
X159642756Y-37645523D01*
X159494922Y-37566505D01*
X159365341Y-37460159D01*
X159258995Y-37330578D01*
X159179977Y-37182744D01*
X159156008Y-37103728D01*
X159131314Y-37022325D01*
X159131314Y-37022324D01*
X159131313Y-37022321D01*
X159114883Y-36855500D01*
X159131313Y-36688679D01*
X159131314Y-36688675D01*
X159179975Y-36528261D01*
X159179976Y-36528259D01*
X159179977Y-36528256D01*
X159258995Y-36380422D01*
X159365341Y-36250841D01*
X159494922Y-36144495D01*
X159642756Y-36065477D01*
X159642759Y-36065476D01*
X159642761Y-36065475D01*
X159803175Y-36016814D01*
X159803176Y-36016814D01*
X159803179Y-36016813D01*
X159928196Y-36004500D01*
X160011804Y-36004500D01*
X160136821Y-36016813D01*
X160136821Y-36016813D01*
G37*
G36*
X157678228Y-36037203D02*
X157833100Y-36101353D01*
X157972481Y-36194485D01*
X158091015Y-36313019D01*
X158184147Y-36452400D01*
X158248297Y-36607272D01*
X158281000Y-36771684D01*
X158281000Y-36939316D01*
X158248297Y-37103728D01*
X158184147Y-37258600D01*
X158091015Y-37397981D01*
X157972481Y-37516515D01*
X157833100Y-37609647D01*
X157678228Y-37673797D01*
X157513816Y-37706500D01*
X157346184Y-37706500D01*
X157181772Y-37673797D01*
X157026900Y-37609647D01*
X156887519Y-37516515D01*
X156768985Y-37397981D01*
X156675853Y-37258600D01*
X156611703Y-37103728D01*
X156579000Y-36939316D01*
X156579000Y-36771684D01*
X156611703Y-36607272D01*
X156675853Y-36452400D01*
X156768985Y-36313019D01*
X156887519Y-36194485D01*
X157026900Y-36101353D01*
X157181772Y-36037203D01*
X157346184Y-36004500D01*
X157513816Y-36004500D01*
X157678228Y-36037203D01*
X157678228Y-36037203D01*
G37*
G36*
X154230821Y-35953313D02*
X154230824Y-35953314D01*
X154230825Y-35953314D01*
X154391239Y-36001975D01*
X154391241Y-36001976D01*
X154391244Y-36001977D01*
X154539078Y-36080995D01*
X154668659Y-36187341D01*
X154775005Y-36316922D01*
X154854023Y-36464756D01*
X154902687Y-36625179D01*
X154919117Y-36792000D01*
X154902687Y-36958821D01*
X154902686Y-36958824D01*
X154902686Y-36958825D01*
X154883424Y-37022325D01*
X154854023Y-37119244D01*
X154775005Y-37267078D01*
X154668659Y-37396659D01*
X154539078Y-37503005D01*
X154391244Y-37582023D01*
X154391241Y-37582024D01*
X154391239Y-37582025D01*
X154230825Y-37630686D01*
X154230824Y-37630686D01*
X154230821Y-37630687D01*
X154105804Y-37643000D01*
X154022196Y-37643000D01*
X153897179Y-37630687D01*
X153897176Y-37630686D01*
X153897175Y-37630686D01*
X153736761Y-37582025D01*
X153736759Y-37582024D01*
X153736756Y-37582023D01*
X153588922Y-37503005D01*
X153459341Y-37396659D01*
X153352995Y-37267078D01*
X153273977Y-37119244D01*
X153244577Y-37022325D01*
X153225314Y-36958825D01*
X153225314Y-36958824D01*
X153225313Y-36958821D01*
X153208883Y-36792000D01*
X153225313Y-36625179D01*
X153273977Y-36464756D01*
X153352995Y-36316922D01*
X153459341Y-36187341D01*
X153588922Y-36080995D01*
X153736756Y-36001977D01*
X153736759Y-36001976D01*
X153736761Y-36001975D01*
X153897175Y-35953314D01*
X153897176Y-35953314D01*
X153897179Y-35953313D01*
X154022196Y-35941000D01*
X154105804Y-35941000D01*
X154230821Y-35953313D01*
X154230821Y-35953313D01*
G37*
G36*
X146610821Y-35953313D02*
X146610824Y-35953314D01*
X146610825Y-35953314D01*
X146771239Y-36001975D01*
X146771241Y-36001976D01*
X146771244Y-36001977D01*
X146919078Y-36080995D01*
X147048659Y-36187341D01*
X147155005Y-36316922D01*
X147234023Y-36464756D01*
X147282687Y-36625179D01*
X147299117Y-36792000D01*
X147282687Y-36958821D01*
X147282686Y-36958824D01*
X147282686Y-36958825D01*
X147263424Y-37022325D01*
X147234023Y-37119244D01*
X147155005Y-37267078D01*
X147048659Y-37396659D01*
X146919078Y-37503005D01*
X146771244Y-37582023D01*
X146771241Y-37582024D01*
X146771239Y-37582025D01*
X146610825Y-37630686D01*
X146610824Y-37630686D01*
X146610821Y-37630687D01*
X146485804Y-37643000D01*
X146402196Y-37643000D01*
X146277179Y-37630687D01*
X146277176Y-37630686D01*
X146277175Y-37630686D01*
X146116761Y-37582025D01*
X146116759Y-37582024D01*
X146116756Y-37582023D01*
X145968922Y-37503005D01*
X145839341Y-37396659D01*
X145732995Y-37267078D01*
X145653977Y-37119244D01*
X145624577Y-37022325D01*
X145605314Y-36958825D01*
X145605314Y-36958824D01*
X145605313Y-36958821D01*
X145588883Y-36792000D01*
X145605313Y-36625179D01*
X145653977Y-36464756D01*
X145732995Y-36316922D01*
X145839341Y-36187341D01*
X145968922Y-36080995D01*
X146116756Y-36001977D01*
X146116759Y-36001976D01*
X146116761Y-36001975D01*
X146277175Y-35953314D01*
X146277176Y-35953314D01*
X146277179Y-35953313D01*
X146402196Y-35941000D01*
X146485804Y-35941000D01*
X146610821Y-35953313D01*
X146610821Y-35953313D01*
G37*
G36*
X163310821Y-34048313D02*
X163310824Y-34048314D01*
X163310825Y-34048314D01*
X163471239Y-34096975D01*
X163471241Y-34096976D01*
X163471244Y-34096977D01*
X163619078Y-34175995D01*
X163748659Y-34282341D01*
X163855005Y-34411922D01*
X163934023Y-34559756D01*
X163934024Y-34559759D01*
X163934025Y-34559761D01*
X163939935Y-34579244D01*
X163982687Y-34720179D01*
X163999117Y-34887000D01*
X163982687Y-35053821D01*
X163934023Y-35214244D01*
X163855005Y-35362078D01*
X163748659Y-35491659D01*
X163619078Y-35598005D01*
X163471244Y-35677023D01*
X163471241Y-35677024D01*
X163471239Y-35677025D01*
X163310825Y-35725686D01*
X163310824Y-35725686D01*
X163310821Y-35725687D01*
X163185804Y-35738000D01*
X163102196Y-35738000D01*
X162977179Y-35725687D01*
X162977176Y-35725686D01*
X162977175Y-35725686D01*
X162816761Y-35677025D01*
X162816759Y-35677024D01*
X162816756Y-35677023D01*
X162668922Y-35598005D01*
X162539341Y-35491659D01*
X162432995Y-35362078D01*
X162353977Y-35214244D01*
X162305313Y-35053821D01*
X162288883Y-34887000D01*
X162305313Y-34720179D01*
X162348065Y-34579244D01*
X162353975Y-34559761D01*
X162353976Y-34559759D01*
X162353977Y-34559756D01*
X162432995Y-34411922D01*
X162539341Y-34282341D01*
X162668922Y-34175995D01*
X162816756Y-34096977D01*
X162816759Y-34096976D01*
X162816761Y-34096975D01*
X162977175Y-34048314D01*
X162977176Y-34048314D01*
X162977179Y-34048313D01*
X163102196Y-34036000D01*
X163185804Y-34036000D01*
X163310821Y-34048313D01*
X163310821Y-34048313D01*
G37*
G36*
X146610821Y-33413313D02*
X146610824Y-33413314D01*
X146610825Y-33413314D01*
X146771239Y-33461975D01*
X146771241Y-33461976D01*
X146771244Y-33461977D01*
X146919078Y-33540995D01*
X147048659Y-33647341D01*
X147155005Y-33776922D01*
X147234023Y-33924756D01*
X147282687Y-34085179D01*
X147299117Y-34252000D01*
X147282687Y-34418821D01*
X147282686Y-34418824D01*
X147282686Y-34418825D01*
X147239934Y-34559761D01*
X147234023Y-34579244D01*
X147155005Y-34727078D01*
X147048659Y-34856659D01*
X146919078Y-34963005D01*
X146771244Y-35042023D01*
X146771241Y-35042024D01*
X146771239Y-35042025D01*
X146610825Y-35090686D01*
X146610824Y-35090686D01*
X146610821Y-35090687D01*
X146485804Y-35103000D01*
X146402196Y-35103000D01*
X146277179Y-35090687D01*
X146277176Y-35090686D01*
X146277175Y-35090686D01*
X146116761Y-35042025D01*
X146116759Y-35042024D01*
X146116756Y-35042023D01*
X145968922Y-34963005D01*
X145839341Y-34856659D01*
X145732995Y-34727078D01*
X145653977Y-34579244D01*
X145648067Y-34559761D01*
X145605314Y-34418825D01*
X145605314Y-34418824D01*
X145605313Y-34418821D01*
X145588883Y-34252000D01*
X145605313Y-34085179D01*
X145653977Y-33924756D01*
X145732995Y-33776922D01*
X145839341Y-33647341D01*
X145968922Y-33540995D01*
X146116756Y-33461977D01*
X146116759Y-33461976D01*
X146116761Y-33461975D01*
X146277175Y-33413314D01*
X146277176Y-33413314D01*
X146277179Y-33413313D01*
X146402196Y-33401000D01*
X146485804Y-33401000D01*
X146610821Y-33413313D01*
X146610821Y-33413313D01*
G37*
G36*
X154230821Y-33413313D02*
X154230824Y-33413314D01*
X154230825Y-33413314D01*
X154391239Y-33461975D01*
X154391241Y-33461976D01*
X154391244Y-33461977D01*
X154539078Y-33540995D01*
X154668659Y-33647341D01*
X154775005Y-33776922D01*
X154854023Y-33924756D01*
X154902687Y-34085179D01*
X154919117Y-34252000D01*
X154902687Y-34418821D01*
X154902686Y-34418824D01*
X154902686Y-34418825D01*
X154859934Y-34559761D01*
X154854023Y-34579244D01*
X154775005Y-34727078D01*
X154668659Y-34856659D01*
X154539078Y-34963005D01*
X154391244Y-35042023D01*
X154391241Y-35042024D01*
X154391239Y-35042025D01*
X154230825Y-35090686D01*
X154230824Y-35090686D01*
X154230821Y-35090687D01*
X154105804Y-35103000D01*
X154022196Y-35103000D01*
X153897179Y-35090687D01*
X153897176Y-35090686D01*
X153897175Y-35090686D01*
X153736761Y-35042025D01*
X153736759Y-35042024D01*
X153736756Y-35042023D01*
X153588922Y-34963005D01*
X153459341Y-34856659D01*
X153352995Y-34727078D01*
X153273977Y-34579244D01*
X153268067Y-34559761D01*
X153225314Y-34418825D01*
X153225314Y-34418824D01*
X153225313Y-34418821D01*
X153208883Y-34252000D01*
X153225313Y-34085179D01*
X153273977Y-33924756D01*
X153352995Y-33776922D01*
X153459341Y-33647341D01*
X153588922Y-33540995D01*
X153736756Y-33461977D01*
X153736759Y-33461976D01*
X153736761Y-33461975D01*
X153897175Y-33413314D01*
X153897176Y-33413314D01*
X153897179Y-33413313D01*
X154022196Y-33401000D01*
X154105804Y-33401000D01*
X154230821Y-33413313D01*
X154230821Y-33413313D01*
G37*
G36*
X171705964Y-31210901D02*
X171875807Y-31262421D01*
X172032331Y-31346086D01*
X172169525Y-31458679D01*
X172282118Y-31595873D01*
X172365783Y-31752397D01*
X172417303Y-31922240D01*
X172434699Y-32098864D01*
X172417303Y-32275489D01*
X172365783Y-32445330D01*
X172282118Y-32601856D01*
X172197738Y-32704673D01*
X171704410Y-33198000D01*
X171215910Y-33686500D01*
X171113092Y-33770880D01*
X171008743Y-33826656D01*
X170956569Y-33854544D01*
X170786726Y-33906065D01*
X170610102Y-33923461D01*
X170433478Y-33906065D01*
X170263635Y-33854544D01*
X170211461Y-33826656D01*
X170107112Y-33770880D01*
X169969917Y-33658287D01*
X169857324Y-33521092D01*
X169790546Y-33396159D01*
X169773660Y-33364569D01*
X169722139Y-33194726D01*
X169704743Y-33018102D01*
X169722139Y-32841478D01*
X169773660Y-32671635D01*
X169810959Y-32601855D01*
X169857324Y-32515112D01*
X169941704Y-32412294D01*
X170431760Y-31922238D01*
X170923531Y-31430466D01*
X171026348Y-31346086D01*
X171182873Y-31262421D01*
X171352715Y-31210901D01*
X171529340Y-31193505D01*
X171705964Y-31210901D01*
X171705964Y-31210901D01*
G37*
G36*
X128647284Y-31210901D02*
X128817127Y-31262422D01*
X128869301Y-31290310D01*
X128973650Y-31346086D01*
X129076468Y-31430466D01*
X129076474Y-31430472D01*
X130058296Y-32412293D01*
X130142676Y-32515110D01*
X130226341Y-32671635D01*
X130277861Y-32841477D01*
X130295257Y-33018102D01*
X130277861Y-33194726D01*
X130226341Y-33364569D01*
X130142676Y-33521093D01*
X130030083Y-33658287D01*
X129892889Y-33770880D01*
X129736365Y-33854545D01*
X129566522Y-33906065D01*
X129389898Y-33923461D01*
X129213273Y-33906065D01*
X129043431Y-33854545D01*
X128886906Y-33770880D01*
X128784089Y-33686500D01*
X127802268Y-32704678D01*
X127802262Y-32704672D01*
X127717882Y-32601854D01*
X127634218Y-32445330D01*
X127627446Y-32423005D01*
X127582697Y-32275488D01*
X127565301Y-32098864D01*
X127582697Y-31922240D01*
X127634218Y-31752397D01*
X127669717Y-31685985D01*
X127717882Y-31595874D01*
X127830475Y-31458679D01*
X127967670Y-31346086D01*
X128072019Y-31290310D01*
X128124193Y-31262422D01*
X128294036Y-31210901D01*
X128470660Y-31193505D01*
X128647284Y-31210901D01*
X128647284Y-31210901D01*
G37*
G36*
X143244821Y-31952813D02*
X143244824Y-31952814D01*
X143244825Y-31952814D01*
X143405239Y-32001475D01*
X143405241Y-32001476D01*
X143405244Y-32001477D01*
X143553078Y-32080495D01*
X143682659Y-32186841D01*
X143789005Y-32316422D01*
X143868023Y-32464256D01*
X143868024Y-32464259D01*
X143868025Y-32464261D01*
X143909764Y-32601856D01*
X143916687Y-32624679D01*
X143933117Y-32791500D01*
X143916687Y-32958321D01*
X143916686Y-32958324D01*
X143916686Y-32958325D01*
X143873362Y-33101146D01*
X143868023Y-33118744D01*
X143789005Y-33266578D01*
X143682659Y-33396159D01*
X143553078Y-33502505D01*
X143405244Y-33581523D01*
X143405241Y-33581524D01*
X143405239Y-33581525D01*
X143244825Y-33630186D01*
X143244824Y-33630186D01*
X143244821Y-33630187D01*
X143119804Y-33642500D01*
X143036196Y-33642500D01*
X142911179Y-33630187D01*
X142911176Y-33630186D01*
X142911175Y-33630186D01*
X142750761Y-33581525D01*
X142750759Y-33581524D01*
X142750756Y-33581523D01*
X142602922Y-33502505D01*
X142473341Y-33396159D01*
X142366995Y-33266578D01*
X142287977Y-33118744D01*
X142282639Y-33101146D01*
X142239314Y-32958325D01*
X142239314Y-32958324D01*
X142239313Y-32958321D01*
X142222883Y-32791500D01*
X142239313Y-32624679D01*
X142246236Y-32601856D01*
X142287975Y-32464261D01*
X142287976Y-32464259D01*
X142287977Y-32464256D01*
X142366995Y-32316422D01*
X142473341Y-32186841D01*
X142602922Y-32080495D01*
X142750756Y-32001477D01*
X142750759Y-32001476D01*
X142750761Y-32001475D01*
X142911175Y-31952814D01*
X142911176Y-31952814D01*
X142911179Y-31952813D01*
X143036196Y-31940500D01*
X143119804Y-31940500D01*
X143244821Y-31952813D01*
X143244821Y-31952813D01*
G37*
G36*
X163392228Y-31528703D02*
X163547100Y-31592853D01*
X163686481Y-31685985D01*
X163805015Y-31804519D01*
X163898147Y-31943900D01*
X163962297Y-32098772D01*
X163995000Y-32263184D01*
X163995000Y-32430816D01*
X163962297Y-32595228D01*
X163898147Y-32750100D01*
X163805015Y-32889481D01*
X163686481Y-33008015D01*
X163547100Y-33101147D01*
X163392228Y-33165297D01*
X163227816Y-33198000D01*
X163060184Y-33198000D01*
X162895772Y-33165297D01*
X162740900Y-33101147D01*
X162601519Y-33008015D01*
X162482985Y-32889481D01*
X162389853Y-32750100D01*
X162325703Y-32595228D01*
X162293000Y-32430816D01*
X162293000Y-32263184D01*
X162325703Y-32098772D01*
X162389853Y-31943900D01*
X162482985Y-31804519D01*
X162601519Y-31685985D01*
X162740900Y-31592853D01*
X162895772Y-31528703D01*
X163060184Y-31496000D01*
X163227816Y-31496000D01*
X163392228Y-31528703D01*
X163392228Y-31528703D01*
G37*
G36*
X160757000Y-33198000D02*
X159055000Y-33198000D01*
X159055000Y-31496000D01*
X160757000Y-31496000D01*
X160757000Y-33198000D01*
X160757000Y-33198000D01*
G37*
G36*
X157654228Y-31528703D02*
X157809100Y-31592853D01*
X157948481Y-31685985D01*
X158067015Y-31804519D01*
X158160147Y-31943900D01*
X158224297Y-32098772D01*
X158257000Y-32263184D01*
X158257000Y-32430816D01*
X158224297Y-32595228D01*
X158160147Y-32750100D01*
X158067015Y-32889481D01*
X157948481Y-33008015D01*
X157809100Y-33101147D01*
X157654228Y-33165297D01*
X157489816Y-33198000D01*
X157322184Y-33198000D01*
X157157772Y-33165297D01*
X157002900Y-33101147D01*
X156863519Y-33008015D01*
X156744985Y-32889481D01*
X156651853Y-32750100D01*
X156587703Y-32595228D01*
X156555000Y-32430816D01*
X156555000Y-32263184D01*
X156587703Y-32098772D01*
X156651853Y-31943900D01*
X156744985Y-31804519D01*
X156863519Y-31685985D01*
X157002900Y-31592853D01*
X157157772Y-31528703D01*
X157322184Y-31496000D01*
X157489816Y-31496000D01*
X157654228Y-31528703D01*
X157654228Y-31528703D01*
G37*
G36*
X146610821Y-30873313D02*
X146610824Y-30873314D01*
X146610825Y-30873314D01*
X146771239Y-30921975D01*
X146771241Y-30921976D01*
X146771244Y-30921977D01*
X146919078Y-31000995D01*
X147048659Y-31107341D01*
X147155005Y-31236922D01*
X147234023Y-31384756D01*
X147234024Y-31384759D01*
X147234025Y-31384761D01*
X147282686Y-31545175D01*
X147282687Y-31545179D01*
X147299117Y-31712000D01*
X147282687Y-31878821D01*
X147282686Y-31878824D01*
X147282686Y-31878825D01*
X147245481Y-32001475D01*
X147234023Y-32039244D01*
X147155005Y-32187078D01*
X147048659Y-32316659D01*
X146919078Y-32423005D01*
X146771244Y-32502023D01*
X146771241Y-32502024D01*
X146771239Y-32502025D01*
X146610825Y-32550686D01*
X146610824Y-32550686D01*
X146610821Y-32550687D01*
X146485804Y-32563000D01*
X146402196Y-32563000D01*
X146277179Y-32550687D01*
X146277176Y-32550686D01*
X146277175Y-32550686D01*
X146116761Y-32502025D01*
X146116759Y-32502024D01*
X146116756Y-32502023D01*
X145968922Y-32423005D01*
X145839341Y-32316659D01*
X145732995Y-32187078D01*
X145653977Y-32039244D01*
X145642520Y-32001475D01*
X145605314Y-31878825D01*
X145605314Y-31878824D01*
X145605313Y-31878821D01*
X145588883Y-31712000D01*
X145605313Y-31545179D01*
X145605314Y-31545175D01*
X145653975Y-31384761D01*
X145653976Y-31384759D01*
X145653977Y-31384756D01*
X145732995Y-31236922D01*
X145839341Y-31107341D01*
X145968922Y-31000995D01*
X146116756Y-30921977D01*
X146116759Y-30921976D01*
X146116761Y-30921975D01*
X146277175Y-30873314D01*
X146277176Y-30873314D01*
X146277179Y-30873313D01*
X146402196Y-30861000D01*
X146485804Y-30861000D01*
X146610821Y-30873313D01*
X146610821Y-30873313D01*
G37*
G36*
X154230821Y-30873313D02*
X154230824Y-30873314D01*
X154230825Y-30873314D01*
X154391239Y-30921975D01*
X154391241Y-30921976D01*
X154391244Y-30921977D01*
X154539078Y-31000995D01*
X154668659Y-31107341D01*
X154775005Y-31236922D01*
X154854023Y-31384756D01*
X154854024Y-31384759D01*
X154854025Y-31384761D01*
X154902686Y-31545175D01*
X154902687Y-31545179D01*
X154919117Y-31712000D01*
X154902687Y-31878821D01*
X154902686Y-31878824D01*
X154902686Y-31878825D01*
X154865481Y-32001475D01*
X154854023Y-32039244D01*
X154775005Y-32187078D01*
X154668659Y-32316659D01*
X154539078Y-32423005D01*
X154391244Y-32502023D01*
X154391241Y-32502024D01*
X154391239Y-32502025D01*
X154230825Y-32550686D01*
X154230824Y-32550686D01*
X154230821Y-32550687D01*
X154105804Y-32563000D01*
X154022196Y-32563000D01*
X153897179Y-32550687D01*
X153897176Y-32550686D01*
X153897175Y-32550686D01*
X153736761Y-32502025D01*
X153736759Y-32502024D01*
X153736756Y-32502023D01*
X153588922Y-32423005D01*
X153459341Y-32316659D01*
X153352995Y-32187078D01*
X153273977Y-32039244D01*
X153262520Y-32001475D01*
X153225314Y-31878825D01*
X153225314Y-31878824D01*
X153225313Y-31878821D01*
X153208883Y-31712000D01*
X153225313Y-31545179D01*
X153225314Y-31545175D01*
X153273975Y-31384761D01*
X153273976Y-31384759D01*
X153273977Y-31384756D01*
X153352995Y-31236922D01*
X153459341Y-31107341D01*
X153588922Y-31000995D01*
X153736756Y-30921977D01*
X153736759Y-30921976D01*
X153736761Y-30921975D01*
X153897175Y-30873314D01*
X153897176Y-30873314D01*
X153897179Y-30873313D01*
X154022196Y-30861000D01*
X154105804Y-30861000D01*
X154230821Y-30873313D01*
X154230821Y-30873313D01*
G37*
G36*
X130443335Y-29414850D02*
X130613178Y-29466371D01*
X130665352Y-29494259D01*
X130769701Y-29550035D01*
X130872519Y-29634415D01*
X130872525Y-29634421D01*
X131854347Y-30616242D01*
X131938727Y-30719059D01*
X132022392Y-30875584D01*
X132073912Y-31045426D01*
X132091308Y-31222051D01*
X132073912Y-31398675D01*
X132022392Y-31568518D01*
X131938727Y-31725042D01*
X131826134Y-31862236D01*
X131688940Y-31974829D01*
X131532416Y-32058494D01*
X131362573Y-32110014D01*
X131185949Y-32127410D01*
X131009324Y-32110014D01*
X130839482Y-32058494D01*
X130682957Y-31974829D01*
X130580140Y-31890449D01*
X129598319Y-30908627D01*
X129598313Y-30908621D01*
X129513933Y-30805803D01*
X129430269Y-30649279D01*
X129420246Y-30616237D01*
X129378748Y-30479437D01*
X129361352Y-30302813D01*
X129378748Y-30126189D01*
X129430269Y-29956346D01*
X129469472Y-29883004D01*
X129513933Y-29799823D01*
X129626526Y-29662628D01*
X129763721Y-29550035D01*
X129868070Y-29494259D01*
X129920244Y-29466371D01*
X130090087Y-29414850D01*
X130266711Y-29397454D01*
X130443335Y-29414850D01*
X130443335Y-29414850D01*
G37*
G36*
X169909913Y-29414850D02*
X170079756Y-29466370D01*
X170236280Y-29550035D01*
X170373474Y-29662628D01*
X170486067Y-29799822D01*
X170569732Y-29956346D01*
X170621252Y-30126189D01*
X170638648Y-30302813D01*
X170621252Y-30479438D01*
X170569732Y-30649279D01*
X170486067Y-30805805D01*
X170401687Y-30908622D01*
X169879842Y-31430466D01*
X169419859Y-31890449D01*
X169317041Y-31974829D01*
X169212692Y-32030605D01*
X169160518Y-32058493D01*
X168990675Y-32110014D01*
X168814051Y-32127410D01*
X168637427Y-32110014D01*
X168467584Y-32058493D01*
X168415410Y-32030605D01*
X168311061Y-31974829D01*
X168173866Y-31862236D01*
X168061273Y-31725041D01*
X168005497Y-31620692D01*
X167977609Y-31568518D01*
X167926088Y-31398675D01*
X167908692Y-31222051D01*
X167926088Y-31045427D01*
X167977609Y-30875584D01*
X168014908Y-30805804D01*
X168061273Y-30719061D01*
X168145653Y-30616243D01*
X168635709Y-30126187D01*
X169127480Y-29634415D01*
X169230297Y-29550035D01*
X169386822Y-29466370D01*
X169556664Y-29414850D01*
X169733289Y-29397454D01*
X169909913Y-29414850D01*
X169909913Y-29414850D01*
G37*
G36*
X143326228Y-29433203D02*
X143481100Y-29497353D01*
X143620481Y-29590485D01*
X143739015Y-29709019D01*
X143832147Y-29848400D01*
X143896297Y-30003272D01*
X143929000Y-30167684D01*
X143929000Y-30335316D01*
X143896297Y-30499728D01*
X143832147Y-30654600D01*
X143739015Y-30793981D01*
X143620481Y-30912515D01*
X143481100Y-31005647D01*
X143326228Y-31069797D01*
X143161816Y-31102500D01*
X142994184Y-31102500D01*
X142829772Y-31069797D01*
X142674900Y-31005647D01*
X142535519Y-30912515D01*
X142416985Y-30793981D01*
X142323853Y-30654600D01*
X142259703Y-30499728D01*
X142227000Y-30335316D01*
X142227000Y-30167684D01*
X142259703Y-30003272D01*
X142323853Y-29848400D01*
X142416985Y-29709019D01*
X142535519Y-29590485D01*
X142674900Y-29497353D01*
X142829772Y-29433203D01*
X142994184Y-29400500D01*
X143161816Y-29400500D01*
X143326228Y-29433203D01*
X143326228Y-29433203D01*
G37*
G36*
X134256208Y-29426000D02*
X132982000Y-30700208D01*
X130788554Y-28506762D01*
X132062762Y-27232554D01*
X134256208Y-29426000D01*
X134256208Y-29426000D01*
G37*
G36*
X169211446Y-28506762D02*
X167018000Y-30700208D01*
X165743792Y-29426000D01*
X167937238Y-27232554D01*
X169211446Y-28506762D01*
X169211446Y-28506762D01*
G37*
G36*
X154230821Y-28333313D02*
X154230824Y-28333314D01*
X154230825Y-28333314D01*
X154391239Y-28381975D01*
X154391241Y-28381976D01*
X154391244Y-28381977D01*
X154539078Y-28460995D01*
X154668659Y-28567341D01*
X154775005Y-28696922D01*
X154854023Y-28844756D01*
X154902687Y-29005179D01*
X154919117Y-29172000D01*
X154902687Y-29338821D01*
X154902686Y-29338824D01*
X154902686Y-29338825D01*
X154854597Y-29497354D01*
X154854023Y-29499244D01*
X154775005Y-29647078D01*
X154668659Y-29776659D01*
X154539078Y-29883005D01*
X154391244Y-29962023D01*
X154391241Y-29962024D01*
X154391239Y-29962025D01*
X154230825Y-30010686D01*
X154230824Y-30010686D01*
X154230821Y-30010687D01*
X154105804Y-30023000D01*
X154022196Y-30023000D01*
X153897179Y-30010687D01*
X153897176Y-30010686D01*
X153897175Y-30010686D01*
X153736761Y-29962025D01*
X153736759Y-29962024D01*
X153736756Y-29962023D01*
X153588922Y-29883005D01*
X153459341Y-29776659D01*
X153352995Y-29647078D01*
X153273977Y-29499244D01*
X153273404Y-29497354D01*
X153225314Y-29338825D01*
X153225314Y-29338824D01*
X153225313Y-29338821D01*
X153208883Y-29172000D01*
X153225313Y-29005179D01*
X153273977Y-28844756D01*
X153352995Y-28696922D01*
X153459341Y-28567341D01*
X153588922Y-28460995D01*
X153736756Y-28381977D01*
X153736759Y-28381976D01*
X153736761Y-28381975D01*
X153897175Y-28333314D01*
X153897176Y-28333314D01*
X153897179Y-28333313D01*
X154022196Y-28321000D01*
X154105804Y-28321000D01*
X154230821Y-28333313D01*
X154230821Y-28333313D01*
G37*
G36*
X147295000Y-30023000D02*
X145593000Y-30023000D01*
X145593000Y-28321000D01*
X147295000Y-28321000D01*
X147295000Y-30023000D01*
X147295000Y-30023000D01*
G37*
G36*
X140599180Y-25741662D02*
X140700635Y-25751654D01*
X140917600Y-25817470D01*
X140917602Y-25817471D01*
X140917605Y-25817472D01*
X141117556Y-25924347D01*
X141292818Y-26068182D01*
X141436653Y-26243444D01*
X141543528Y-26443395D01*
X141543529Y-26443398D01*
X141543530Y-26443400D01*
X141609346Y-26660365D01*
X141609346Y-26660368D01*
X141614602Y-26713731D01*
X141619383Y-26737765D01*
X141628760Y-26760404D01*
X141642374Y-26780778D01*
X141659701Y-26798105D01*
X141680076Y-26811719D01*
X141702715Y-26821097D01*
X141726748Y-26825877D01*
X141751252Y-26825877D01*
X141775286Y-26821096D01*
X141797925Y-26811719D01*
X141818299Y-26798105D01*
X141835626Y-26780778D01*
X141849240Y-26760403D01*
X141858618Y-26737764D01*
X141864000Y-26701479D01*
X141864000Y-25735000D01*
X144166000Y-25735000D01*
X144166000Y-28037000D01*
X141864000Y-28037000D01*
X141864000Y-27070521D01*
X141861598Y-27046135D01*
X141854485Y-27022686D01*
X141842934Y-27001075D01*
X141827388Y-26982133D01*
X141808446Y-26966587D01*
X141786835Y-26955036D01*
X141763386Y-26947923D01*
X141739000Y-26945521D01*
X141714614Y-26947923D01*
X141691165Y-26955036D01*
X141669554Y-26966587D01*
X141650612Y-26982133D01*
X141635066Y-27001075D01*
X141623515Y-27022686D01*
X141614602Y-27058269D01*
X141609346Y-27111635D01*
X141543530Y-27328600D01*
X141543528Y-27328605D01*
X141436653Y-27528556D01*
X141292818Y-27703818D01*
X141117556Y-27847653D01*
X140917605Y-27954528D01*
X140917602Y-27954529D01*
X140917600Y-27954530D01*
X140700635Y-28020346D01*
X140599180Y-28030338D01*
X140531545Y-28037000D01*
X140418455Y-28037000D01*
X140350820Y-28030338D01*
X140249365Y-28020346D01*
X140032400Y-27954530D01*
X140032398Y-27954529D01*
X140032395Y-27954528D01*
X139832444Y-27847653D01*
X139657182Y-27703818D01*
X139513347Y-27528556D01*
X139406472Y-27328605D01*
X139406470Y-27328600D01*
X139340654Y-27111635D01*
X139318431Y-26886000D01*
X139340654Y-26660365D01*
X139406470Y-26443400D01*
X139406471Y-26443398D01*
X139406472Y-26443395D01*
X139513347Y-26243444D01*
X139657182Y-26068182D01*
X139832444Y-25924347D01*
X140032395Y-25817472D01*
X140032398Y-25817471D01*
X140032400Y-25817470D01*
X140249365Y-25751654D01*
X140350820Y-25741662D01*
X140418455Y-25735000D01*
X140531545Y-25735000D01*
X140599180Y-25741662D01*
X140599180Y-25741662D01*
G37*
G36*
X157654228Y-25686703D02*
X157809100Y-25750853D01*
X157948481Y-25843985D01*
X158067015Y-25962519D01*
X158160147Y-26101900D01*
X158224297Y-26256772D01*
X158257000Y-26421184D01*
X158257000Y-26588816D01*
X158224297Y-26753228D01*
X158160147Y-26908100D01*
X158067015Y-27047481D01*
X157948481Y-27166015D01*
X157809100Y-27259147D01*
X157654228Y-27323297D01*
X157489816Y-27356000D01*
X157322184Y-27356000D01*
X157157772Y-27323297D01*
X157002900Y-27259147D01*
X156863519Y-27166015D01*
X156744985Y-27047481D01*
X156651853Y-26908100D01*
X156587703Y-26753228D01*
X156555000Y-26588816D01*
X156555000Y-26421184D01*
X156587703Y-26256772D01*
X156651853Y-26101900D01*
X156744985Y-25962519D01*
X156863519Y-25843985D01*
X157002900Y-25750853D01*
X157157772Y-25686703D01*
X157322184Y-25654000D01*
X157489816Y-25654000D01*
X157654228Y-25686703D01*
X157654228Y-25686703D01*
G37*
G36*
X160757000Y-27356000D02*
X159055000Y-27356000D01*
X159055000Y-25654000D01*
X160757000Y-25654000D01*
X160757000Y-27356000D01*
X160757000Y-27356000D01*
G37*
G36*
X147636627Y-21269037D02*
X147749853Y-21303384D01*
X147806467Y-21320557D01*
X147945087Y-21394652D01*
X147962991Y-21404222D01*
X147998729Y-21433552D01*
X148100186Y-21516814D01*
X148183448Y-21618271D01*
X148212778Y-21654009D01*
X148212779Y-21654011D01*
X148296443Y-21810533D01*
X148296443Y-21810534D01*
X148347963Y-21980373D01*
X148361000Y-22112742D01*
X148361000Y-23501258D01*
X148347963Y-23633627D01*
X148313616Y-23746853D01*
X148296443Y-23803467D01*
X148222348Y-23942087D01*
X148212778Y-23959991D01*
X148183448Y-23995729D01*
X148100186Y-24097186D01*
X147962989Y-24209779D01*
X147806466Y-24293443D01*
X147749852Y-24310616D01*
X147636626Y-24344963D01*
X147460000Y-24362359D01*
X147283373Y-24344963D01*
X147170147Y-24310616D01*
X147113533Y-24293443D01*
X146957011Y-24209779D01*
X146957009Y-24209778D01*
X146921271Y-24180448D01*
X146819814Y-24097186D01*
X146707221Y-23959989D01*
X146623557Y-23803466D01*
X146606384Y-23746852D01*
X146572037Y-23633626D01*
X146559000Y-23501257D01*
X146559001Y-22112742D01*
X146572038Y-21980373D01*
X146623558Y-21810534D01*
X146623558Y-21810533D01*
X146707222Y-21654011D01*
X146707223Y-21654009D01*
X146736553Y-21618271D01*
X146819815Y-21516814D01*
X146921272Y-21433552D01*
X146957010Y-21404222D01*
X146974914Y-21394652D01*
X147113534Y-21320557D01*
X147170148Y-21303384D01*
X147283374Y-21269037D01*
X147460000Y-21251641D01*
X147636627Y-21269037D01*
X147636627Y-21269037D01*
G37*
G36*
X150176627Y-21269037D02*
X150289853Y-21303384D01*
X150346467Y-21320557D01*
X150485087Y-21394652D01*
X150502991Y-21404222D01*
X150538729Y-21433552D01*
X150640186Y-21516814D01*
X150723448Y-21618271D01*
X150752778Y-21654009D01*
X150752779Y-21654011D01*
X150836443Y-21810533D01*
X150836443Y-21810534D01*
X150887963Y-21980373D01*
X150901000Y-22112742D01*
X150901000Y-23501258D01*
X150887963Y-23633627D01*
X150853616Y-23746853D01*
X150836443Y-23803467D01*
X150762348Y-23942087D01*
X150752778Y-23959991D01*
X150723448Y-23995729D01*
X150640186Y-24097186D01*
X150502989Y-24209779D01*
X150346466Y-24293443D01*
X150289852Y-24310616D01*
X150176626Y-24344963D01*
X150000000Y-24362359D01*
X149823373Y-24344963D01*
X149710147Y-24310616D01*
X149653533Y-24293443D01*
X149497011Y-24209779D01*
X149497009Y-24209778D01*
X149461271Y-24180448D01*
X149359814Y-24097186D01*
X149247221Y-23959989D01*
X149163557Y-23803466D01*
X149146384Y-23746852D01*
X149112037Y-23633626D01*
X149099000Y-23501257D01*
X149099001Y-22112742D01*
X149112038Y-21980373D01*
X149163558Y-21810534D01*
X149163558Y-21810533D01*
X149247222Y-21654011D01*
X149247223Y-21654009D01*
X149276553Y-21618271D01*
X149359815Y-21516814D01*
X149461272Y-21433552D01*
X149497010Y-21404222D01*
X149514914Y-21394652D01*
X149653534Y-21320557D01*
X149710148Y-21303384D01*
X149823374Y-21269037D01*
X150000000Y-21251641D01*
X150176627Y-21269037D01*
X150176627Y-21269037D01*
G37*
G36*
X153441000Y-24358000D02*
X151639000Y-24358000D01*
X151639000Y-21256000D01*
X153441000Y-21256000D01*
X153441000Y-24358000D01*
X153441000Y-24358000D01*
G37*
M02*
