G04 (created by PCBNEW (2012-apr-16-27)-stable) date Mon 30 Jun 2014 11:26:00 PM CST*
G01*
G70*
G90*
%MOIN*%
G04 Gerber Fmt 3.4, Leading zero omitted, Abs format*
%FSLAX34Y34*%
G04 APERTURE LIST*
%ADD10C,0.001000*%
%ADD11C,0.015000*%
%ADD12C,0.008000*%
G04 APERTURE END LIST*
G54D10*
G54D11*
X58500Y-40000D02*
X58290Y-42136D01*
X57670Y-44191D01*
X56662Y-46087D01*
X55305Y-47750D01*
X53651Y-49119D01*
X51762Y-50140D01*
X49711Y-50775D01*
X47576Y-50999D01*
X45439Y-50805D01*
X43380Y-50199D01*
X41477Y-49204D01*
X39804Y-47859D01*
X38424Y-46214D01*
X37390Y-44333D01*
X36741Y-42287D01*
X36502Y-40153D01*
X36681Y-38015D01*
X37273Y-35951D01*
X38254Y-34042D01*
X39588Y-32359D01*
X41223Y-30968D01*
X43097Y-29921D01*
X45138Y-29257D01*
X47270Y-29003D01*
X49410Y-29168D01*
X51477Y-29745D01*
X53394Y-30713D01*
X55085Y-32035D01*
X56488Y-33660D01*
X57549Y-35526D01*
X58226Y-37563D01*
X58495Y-39693D01*
X58500Y-40000D01*
G54D10*
X40300Y-34800D02*
X40500Y-35000D01*
X40500Y-34800D02*
X40300Y-35000D01*
X41300Y-44850D02*
X41500Y-45050D01*
X41500Y-44850D02*
X41300Y-45050D01*
X51350Y-41650D02*
X51550Y-41850D01*
X51550Y-41650D02*
X51350Y-41850D01*
X39840Y-37500D02*
X39837Y-37527D01*
X39829Y-37553D01*
X39816Y-37577D01*
X39799Y-37598D01*
X39778Y-37616D01*
X39754Y-37629D01*
X39728Y-37637D01*
X39700Y-37639D01*
X39674Y-37637D01*
X39648Y-37629D01*
X39624Y-37617D01*
X39603Y-37600D01*
X39585Y-37579D01*
X39572Y-37555D01*
X39564Y-37529D01*
X39561Y-37501D01*
X39563Y-37475D01*
X39570Y-37449D01*
X39583Y-37425D01*
X39600Y-37403D01*
X39621Y-37386D01*
X39644Y-37372D01*
X39670Y-37364D01*
X39698Y-37361D01*
X39724Y-37363D01*
X39750Y-37370D01*
X39775Y-37382D01*
X39796Y-37399D01*
X39814Y-37420D01*
X39827Y-37444D01*
X39836Y-37469D01*
X39839Y-37497D01*
X39840Y-37500D01*
X39840Y-38500D02*
X39837Y-38527D01*
X39829Y-38553D01*
X39816Y-38577D01*
X39799Y-38598D01*
X39778Y-38616D01*
X39754Y-38629D01*
X39728Y-38637D01*
X39700Y-38639D01*
X39674Y-38637D01*
X39648Y-38629D01*
X39624Y-38617D01*
X39603Y-38600D01*
X39585Y-38579D01*
X39572Y-38555D01*
X39564Y-38529D01*
X39561Y-38501D01*
X39563Y-38475D01*
X39570Y-38449D01*
X39583Y-38425D01*
X39600Y-38403D01*
X39621Y-38386D01*
X39644Y-38372D01*
X39670Y-38364D01*
X39698Y-38361D01*
X39724Y-38363D01*
X39750Y-38370D01*
X39775Y-38382D01*
X39796Y-38399D01*
X39814Y-38420D01*
X39827Y-38444D01*
X39836Y-38469D01*
X39839Y-38497D01*
X39840Y-38500D01*
X39840Y-39500D02*
X39837Y-39527D01*
X39829Y-39553D01*
X39816Y-39577D01*
X39799Y-39598D01*
X39778Y-39616D01*
X39754Y-39629D01*
X39728Y-39637D01*
X39700Y-39639D01*
X39674Y-39637D01*
X39648Y-39629D01*
X39624Y-39617D01*
X39603Y-39600D01*
X39585Y-39579D01*
X39572Y-39555D01*
X39564Y-39529D01*
X39561Y-39501D01*
X39563Y-39475D01*
X39570Y-39449D01*
X39583Y-39425D01*
X39600Y-39403D01*
X39621Y-39386D01*
X39644Y-39372D01*
X39670Y-39364D01*
X39698Y-39361D01*
X39724Y-39363D01*
X39750Y-39370D01*
X39775Y-39382D01*
X39796Y-39399D01*
X39814Y-39420D01*
X39827Y-39444D01*
X39836Y-39469D01*
X39839Y-39497D01*
X39840Y-39500D01*
X39840Y-40500D02*
X39837Y-40527D01*
X39829Y-40553D01*
X39816Y-40577D01*
X39799Y-40598D01*
X39778Y-40616D01*
X39754Y-40629D01*
X39728Y-40637D01*
X39700Y-40639D01*
X39674Y-40637D01*
X39648Y-40629D01*
X39624Y-40617D01*
X39603Y-40600D01*
X39585Y-40579D01*
X39572Y-40555D01*
X39564Y-40529D01*
X39561Y-40501D01*
X39563Y-40475D01*
X39570Y-40449D01*
X39583Y-40425D01*
X39600Y-40403D01*
X39621Y-40386D01*
X39644Y-40372D01*
X39670Y-40364D01*
X39698Y-40361D01*
X39724Y-40363D01*
X39750Y-40370D01*
X39775Y-40382D01*
X39796Y-40399D01*
X39814Y-40420D01*
X39827Y-40444D01*
X39836Y-40469D01*
X39839Y-40497D01*
X39840Y-40500D01*
X39840Y-41500D02*
X39837Y-41527D01*
X39829Y-41553D01*
X39816Y-41577D01*
X39799Y-41598D01*
X39778Y-41616D01*
X39754Y-41629D01*
X39728Y-41637D01*
X39700Y-41639D01*
X39674Y-41637D01*
X39648Y-41629D01*
X39624Y-41617D01*
X39603Y-41600D01*
X39585Y-41579D01*
X39572Y-41555D01*
X39564Y-41529D01*
X39561Y-41501D01*
X39563Y-41475D01*
X39570Y-41449D01*
X39583Y-41425D01*
X39600Y-41403D01*
X39621Y-41386D01*
X39644Y-41372D01*
X39670Y-41364D01*
X39698Y-41361D01*
X39724Y-41363D01*
X39750Y-41370D01*
X39775Y-41382D01*
X39796Y-41399D01*
X39814Y-41420D01*
X39827Y-41444D01*
X39836Y-41469D01*
X39839Y-41497D01*
X39840Y-41500D01*
X39840Y-42500D02*
X39837Y-42527D01*
X39829Y-42553D01*
X39816Y-42577D01*
X39799Y-42598D01*
X39778Y-42616D01*
X39754Y-42629D01*
X39728Y-42637D01*
X39700Y-42639D01*
X39674Y-42637D01*
X39648Y-42629D01*
X39624Y-42617D01*
X39603Y-42600D01*
X39585Y-42579D01*
X39572Y-42555D01*
X39564Y-42529D01*
X39561Y-42501D01*
X39563Y-42475D01*
X39570Y-42449D01*
X39583Y-42425D01*
X39600Y-42403D01*
X39621Y-42386D01*
X39644Y-42372D01*
X39670Y-42364D01*
X39698Y-42361D01*
X39724Y-42363D01*
X39750Y-42370D01*
X39775Y-42382D01*
X39796Y-42399D01*
X39814Y-42420D01*
X39827Y-42444D01*
X39836Y-42469D01*
X39839Y-42497D01*
X39840Y-42500D01*
X54390Y-38500D02*
X54387Y-38527D01*
X54379Y-38553D01*
X54366Y-38577D01*
X54349Y-38598D01*
X54328Y-38616D01*
X54304Y-38629D01*
X54278Y-38637D01*
X54250Y-38639D01*
X54224Y-38637D01*
X54198Y-38629D01*
X54174Y-38617D01*
X54153Y-38600D01*
X54135Y-38579D01*
X54122Y-38555D01*
X54114Y-38529D01*
X54111Y-38501D01*
X54113Y-38475D01*
X54120Y-38449D01*
X54133Y-38425D01*
X54150Y-38403D01*
X54171Y-38386D01*
X54194Y-38372D01*
X54220Y-38364D01*
X54248Y-38361D01*
X54274Y-38363D01*
X54300Y-38370D01*
X54325Y-38382D01*
X54346Y-38399D01*
X54364Y-38420D01*
X54377Y-38444D01*
X54386Y-38469D01*
X54389Y-38497D01*
X54390Y-38500D01*
X54390Y-42500D02*
X54387Y-42527D01*
X54379Y-42553D01*
X54366Y-42577D01*
X54349Y-42598D01*
X54328Y-42616D01*
X54304Y-42629D01*
X54278Y-42637D01*
X54250Y-42639D01*
X54224Y-42637D01*
X54198Y-42629D01*
X54174Y-42617D01*
X54153Y-42600D01*
X54135Y-42579D01*
X54122Y-42555D01*
X54114Y-42529D01*
X54111Y-42501D01*
X54113Y-42475D01*
X54120Y-42449D01*
X54133Y-42425D01*
X54150Y-42403D01*
X54171Y-42386D01*
X54194Y-42372D01*
X54220Y-42364D01*
X54248Y-42361D01*
X54274Y-42363D01*
X54300Y-42370D01*
X54325Y-42382D01*
X54346Y-42399D01*
X54364Y-42420D01*
X54377Y-42444D01*
X54386Y-42469D01*
X54389Y-42497D01*
X54390Y-42500D01*
X54490Y-40500D02*
X54487Y-40527D01*
X54479Y-40553D01*
X54466Y-40577D01*
X54449Y-40598D01*
X54428Y-40616D01*
X54404Y-40629D01*
X54378Y-40637D01*
X54350Y-40639D01*
X54324Y-40637D01*
X54298Y-40629D01*
X54274Y-40617D01*
X54253Y-40600D01*
X54235Y-40579D01*
X54222Y-40555D01*
X54214Y-40529D01*
X54211Y-40501D01*
X54213Y-40475D01*
X54220Y-40449D01*
X54233Y-40425D01*
X54250Y-40403D01*
X54271Y-40386D01*
X54294Y-40372D01*
X54320Y-40364D01*
X54348Y-40361D01*
X54374Y-40363D01*
X54400Y-40370D01*
X54425Y-40382D01*
X54446Y-40399D01*
X54464Y-40420D01*
X54477Y-40444D01*
X54486Y-40469D01*
X54489Y-40497D01*
X54490Y-40500D01*
X55390Y-38500D02*
X55387Y-38527D01*
X55379Y-38553D01*
X55366Y-38577D01*
X55349Y-38598D01*
X55328Y-38616D01*
X55304Y-38629D01*
X55278Y-38637D01*
X55250Y-38639D01*
X55224Y-38637D01*
X55198Y-38629D01*
X55174Y-38617D01*
X55153Y-38600D01*
X55135Y-38579D01*
X55122Y-38555D01*
X55114Y-38529D01*
X55111Y-38501D01*
X55113Y-38475D01*
X55120Y-38449D01*
X55133Y-38425D01*
X55150Y-38403D01*
X55171Y-38386D01*
X55194Y-38372D01*
X55220Y-38364D01*
X55248Y-38361D01*
X55274Y-38363D01*
X55300Y-38370D01*
X55325Y-38382D01*
X55346Y-38399D01*
X55364Y-38420D01*
X55377Y-38444D01*
X55386Y-38469D01*
X55389Y-38497D01*
X55390Y-38500D01*
X55390Y-42500D02*
X55387Y-42527D01*
X55379Y-42553D01*
X55366Y-42577D01*
X55349Y-42598D01*
X55328Y-42616D01*
X55304Y-42629D01*
X55278Y-42637D01*
X55250Y-42639D01*
X55224Y-42637D01*
X55198Y-42629D01*
X55174Y-42617D01*
X55153Y-42600D01*
X55135Y-42579D01*
X55122Y-42555D01*
X55114Y-42529D01*
X55111Y-42501D01*
X55113Y-42475D01*
X55120Y-42449D01*
X55133Y-42425D01*
X55150Y-42403D01*
X55171Y-42386D01*
X55194Y-42372D01*
X55220Y-42364D01*
X55248Y-42361D01*
X55274Y-42363D01*
X55300Y-42370D01*
X55325Y-42382D01*
X55346Y-42399D01*
X55364Y-42420D01*
X55377Y-42444D01*
X55386Y-42469D01*
X55389Y-42497D01*
X55390Y-42500D01*
X55490Y-40500D02*
X55487Y-40527D01*
X55479Y-40553D01*
X55466Y-40577D01*
X55449Y-40598D01*
X55428Y-40616D01*
X55404Y-40629D01*
X55378Y-40637D01*
X55350Y-40639D01*
X55324Y-40637D01*
X55298Y-40629D01*
X55274Y-40617D01*
X55253Y-40600D01*
X55235Y-40579D01*
X55222Y-40555D01*
X55214Y-40529D01*
X55211Y-40501D01*
X55213Y-40475D01*
X55220Y-40449D01*
X55233Y-40425D01*
X55250Y-40403D01*
X55271Y-40386D01*
X55294Y-40372D01*
X55320Y-40364D01*
X55348Y-40361D01*
X55374Y-40363D01*
X55400Y-40370D01*
X55425Y-40382D01*
X55446Y-40399D01*
X55464Y-40420D01*
X55477Y-40444D01*
X55486Y-40469D01*
X55489Y-40497D01*
X55490Y-40500D01*
X39200Y-43490D02*
X39200Y-43810D01*
X39360Y-43650D02*
X39040Y-43650D01*
X40200Y-43490D02*
X40200Y-43810D01*
X40360Y-43650D02*
X40040Y-43650D01*
X40750Y-37340D02*
X40750Y-37660D01*
X40910Y-37500D02*
X40590Y-37500D01*
X40750Y-38340D02*
X40750Y-38660D01*
X40910Y-38500D02*
X40590Y-38500D01*
X40750Y-39340D02*
X40750Y-39660D01*
X40910Y-39500D02*
X40590Y-39500D01*
X40750Y-40340D02*
X40750Y-40660D01*
X40910Y-40500D02*
X40590Y-40500D01*
X40750Y-41340D02*
X40750Y-41660D01*
X40910Y-41500D02*
X40590Y-41500D01*
X40750Y-42340D02*
X40750Y-42660D01*
X40910Y-42500D02*
X40590Y-42500D01*
X41750Y-37340D02*
X41750Y-37660D01*
X41910Y-37500D02*
X41590Y-37500D01*
X41750Y-38340D02*
X41750Y-38660D01*
X41910Y-38500D02*
X41590Y-38500D01*
X41750Y-39340D02*
X41750Y-39660D01*
X41910Y-39500D02*
X41590Y-39500D01*
X41750Y-40340D02*
X41750Y-40660D01*
X41910Y-40500D02*
X41590Y-40500D01*
X42750Y-35340D02*
X42750Y-35660D01*
X42910Y-35500D02*
X42590Y-35500D01*
X42750Y-36340D02*
X42750Y-36660D01*
X42910Y-36500D02*
X42590Y-36500D01*
X42750Y-37340D02*
X42750Y-37660D01*
X42910Y-37500D02*
X42590Y-37500D01*
X42750Y-38340D02*
X42750Y-38660D01*
X42910Y-38500D02*
X42590Y-38500D01*
X42750Y-39340D02*
X42750Y-39660D01*
X42910Y-39500D02*
X42590Y-39500D01*
X42750Y-40340D02*
X42750Y-40660D01*
X42910Y-40500D02*
X42590Y-40500D01*
X42750Y-41340D02*
X42750Y-41660D01*
X42910Y-41500D02*
X42590Y-41500D01*
X42750Y-42340D02*
X42750Y-42660D01*
X42910Y-42500D02*
X42590Y-42500D01*
X43750Y-35340D02*
X43750Y-35660D01*
X43910Y-35500D02*
X43590Y-35500D01*
X43750Y-36340D02*
X43750Y-36660D01*
X43910Y-36500D02*
X43590Y-36500D01*
X43750Y-37340D02*
X43750Y-37660D01*
X43910Y-37500D02*
X43590Y-37500D01*
X43750Y-38340D02*
X43750Y-38660D01*
X43910Y-38500D02*
X43590Y-38500D01*
X43750Y-39340D02*
X43750Y-39660D01*
X43910Y-39500D02*
X43590Y-39500D01*
X43750Y-40340D02*
X43750Y-40660D01*
X43910Y-40500D02*
X43590Y-40500D01*
X44750Y-35340D02*
X44750Y-35660D01*
X44910Y-35500D02*
X44590Y-35500D01*
X44750Y-36340D02*
X44750Y-36660D01*
X44910Y-36500D02*
X44590Y-36500D01*
X44750Y-37340D02*
X44750Y-37660D01*
X44910Y-37500D02*
X44590Y-37500D01*
X44750Y-38340D02*
X44750Y-38660D01*
X44910Y-38500D02*
X44590Y-38500D01*
X44750Y-39340D02*
X44750Y-39660D01*
X44910Y-39500D02*
X44590Y-39500D01*
X44750Y-40340D02*
X44750Y-40660D01*
X44910Y-40500D02*
X44590Y-40500D01*
X44750Y-41340D02*
X44750Y-41660D01*
X44910Y-41500D02*
X44590Y-41500D01*
X44750Y-42340D02*
X44750Y-42660D01*
X44910Y-42500D02*
X44590Y-42500D01*
X45300Y-45240D02*
X45300Y-45560D01*
X45460Y-45400D02*
X45140Y-45400D01*
X45300Y-46240D02*
X45300Y-46560D01*
X45460Y-46400D02*
X45140Y-46400D01*
X45300Y-47240D02*
X45300Y-47560D01*
X45460Y-47400D02*
X45140Y-47400D01*
X45300Y-48240D02*
X45300Y-48560D01*
X45460Y-48400D02*
X45140Y-48400D01*
X45350Y-43940D02*
X45350Y-44260D01*
X45510Y-44100D02*
X45190Y-44100D01*
X45750Y-37340D02*
X45750Y-37660D01*
X45910Y-37500D02*
X45590Y-37500D01*
X45750Y-38340D02*
X45750Y-38660D01*
X45910Y-38500D02*
X45590Y-38500D01*
X45750Y-39340D02*
X45750Y-39660D01*
X45910Y-39500D02*
X45590Y-39500D01*
X45750Y-40340D02*
X45750Y-40660D01*
X45910Y-40500D02*
X45590Y-40500D01*
X46350Y-43940D02*
X46350Y-44260D01*
X46510Y-44100D02*
X46190Y-44100D01*
X46800Y-46390D02*
X46800Y-46710D01*
X46960Y-46550D02*
X46640Y-46550D01*
X46800Y-47390D02*
X46800Y-47710D01*
X46960Y-47550D02*
X46640Y-47550D01*
X47350Y-43940D02*
X47350Y-44260D01*
X47510Y-44100D02*
X47190Y-44100D01*
X47500Y-37090D02*
X47500Y-37410D01*
X47660Y-37250D02*
X47340Y-37250D01*
X47500Y-38090D02*
X47500Y-38410D01*
X47660Y-38250D02*
X47340Y-38250D01*
X47900Y-33890D02*
X47900Y-34210D01*
X48060Y-34050D02*
X47740Y-34050D01*
X48300Y-45240D02*
X48300Y-45560D01*
X48460Y-45400D02*
X48140Y-45400D01*
X48300Y-46240D02*
X48300Y-46560D01*
X48460Y-46400D02*
X48140Y-46400D01*
X48300Y-47240D02*
X48300Y-47560D01*
X48460Y-47400D02*
X48140Y-47400D01*
X48300Y-48240D02*
X48300Y-48560D01*
X48460Y-48400D02*
X48140Y-48400D01*
X48350Y-43940D02*
X48350Y-44260D01*
X48510Y-44100D02*
X48190Y-44100D01*
X48900Y-33890D02*
X48900Y-34210D01*
X49060Y-34050D02*
X48740Y-34050D01*
X49100Y-37090D02*
X49100Y-37410D01*
X49260Y-37250D02*
X48940Y-37250D01*
X49100Y-38090D02*
X49100Y-38410D01*
X49260Y-38250D02*
X48940Y-38250D01*
X49100Y-39090D02*
X49100Y-39410D01*
X49260Y-39250D02*
X48940Y-39250D01*
X49100Y-40090D02*
X49100Y-40410D01*
X49260Y-40250D02*
X48940Y-40250D01*
X49100Y-41090D02*
X49100Y-41410D01*
X49260Y-41250D02*
X48940Y-41250D01*
X49100Y-42090D02*
X49100Y-42410D01*
X49260Y-42250D02*
X48940Y-42250D01*
X49100Y-43090D02*
X49100Y-43410D01*
X49260Y-43250D02*
X48940Y-43250D01*
X49750Y-45990D02*
X49750Y-46310D01*
X49910Y-46150D02*
X49590Y-46150D01*
X49750Y-46990D02*
X49750Y-47310D01*
X49910Y-47150D02*
X49590Y-47150D01*
X49750Y-48140D02*
X49750Y-48460D01*
X49910Y-48300D02*
X49590Y-48300D01*
X49750Y-49140D02*
X49750Y-49460D01*
X49910Y-49300D02*
X49590Y-49300D01*
X49950Y-33390D02*
X49950Y-33710D01*
X50110Y-33550D02*
X49790Y-33550D01*
X49950Y-34390D02*
X49950Y-34710D01*
X50110Y-34550D02*
X49790Y-34550D01*
X50600Y-36590D02*
X50600Y-36910D01*
X50760Y-36750D02*
X50440Y-36750D01*
X50600Y-37590D02*
X50600Y-37910D01*
X50760Y-37750D02*
X50440Y-37750D01*
X50600Y-38590D02*
X50600Y-38910D01*
X50760Y-38750D02*
X50440Y-38750D01*
X50600Y-39590D02*
X50600Y-39910D01*
X50760Y-39750D02*
X50440Y-39750D01*
X50600Y-40590D02*
X50600Y-40910D01*
X50760Y-40750D02*
X50440Y-40750D01*
X50600Y-41590D02*
X50600Y-41910D01*
X50760Y-41750D02*
X50440Y-41750D01*
X50600Y-42590D02*
X50600Y-42910D01*
X50760Y-42750D02*
X50440Y-42750D01*
X50600Y-43590D02*
X50600Y-43910D01*
X50760Y-43750D02*
X50440Y-43750D01*
X50750Y-45990D02*
X50750Y-46310D01*
X50910Y-46150D02*
X50590Y-46150D01*
X50750Y-46990D02*
X50750Y-47310D01*
X50910Y-47150D02*
X50590Y-47150D01*
X50950Y-33390D02*
X50950Y-33710D01*
X51110Y-33550D02*
X50790Y-33550D01*
X50950Y-34390D02*
X50950Y-34710D01*
X51110Y-34550D02*
X50790Y-34550D01*
X51750Y-45990D02*
X51750Y-46310D01*
X51910Y-46150D02*
X51590Y-46150D01*
X51750Y-46990D02*
X51750Y-47310D01*
X51910Y-47150D02*
X51590Y-47150D01*
X51950Y-33390D02*
X51950Y-33710D01*
X52110Y-33550D02*
X51790Y-33550D01*
X51950Y-34390D02*
X51950Y-34710D01*
X52110Y-34550D02*
X51790Y-34550D01*
X52100Y-37090D02*
X52100Y-37410D01*
X52260Y-37250D02*
X51940Y-37250D01*
X52100Y-38090D02*
X52100Y-38410D01*
X52260Y-38250D02*
X51940Y-38250D01*
X52100Y-39090D02*
X52100Y-39410D01*
X52260Y-39250D02*
X51940Y-39250D01*
X52100Y-40090D02*
X52100Y-40410D01*
X52260Y-40250D02*
X51940Y-40250D01*
X52100Y-41090D02*
X52100Y-41410D01*
X52260Y-41250D02*
X51940Y-41250D01*
X52100Y-42090D02*
X52100Y-42410D01*
X52260Y-42250D02*
X51940Y-42250D01*
X52100Y-43090D02*
X52100Y-43410D01*
X52260Y-43250D02*
X51940Y-43250D01*
X53200Y-40340D02*
X53200Y-40660D01*
X53360Y-40500D02*
X53040Y-40500D01*
X53200Y-41340D02*
X53200Y-41660D01*
X53360Y-41500D02*
X53040Y-41500D01*
X53200Y-42340D02*
X53200Y-42660D01*
X53360Y-42500D02*
X53040Y-42500D01*
X54250Y-37340D02*
X54250Y-37660D01*
X54410Y-37500D02*
X54090Y-37500D01*
X54250Y-39340D02*
X54250Y-39660D01*
X54410Y-39500D02*
X54090Y-39500D01*
X54250Y-41340D02*
X54250Y-41660D01*
X54410Y-41500D02*
X54090Y-41500D01*
X55250Y-37340D02*
X55250Y-37660D01*
X55410Y-37500D02*
X55090Y-37500D01*
X55250Y-39340D02*
X55250Y-39660D01*
X55410Y-39500D02*
X55090Y-39500D01*
X55250Y-41340D02*
X55250Y-41660D01*
X55410Y-41500D02*
X55090Y-41500D01*
X38825Y-36250D02*
X38821Y-36283D01*
X38811Y-36316D01*
X38795Y-36346D01*
X38774Y-36373D01*
X38747Y-36395D01*
X38717Y-36411D01*
X38685Y-36421D01*
X38651Y-36424D01*
X38618Y-36421D01*
X38585Y-36412D01*
X38555Y-36396D01*
X38528Y-36375D01*
X38506Y-36348D01*
X38490Y-36318D01*
X38479Y-36286D01*
X38476Y-36252D01*
X38478Y-36219D01*
X38488Y-36186D01*
X38503Y-36156D01*
X38525Y-36129D01*
X38551Y-36107D01*
X38580Y-36090D01*
X38613Y-36080D01*
X38647Y-36076D01*
X38680Y-36078D01*
X38713Y-36087D01*
X38743Y-36103D01*
X38770Y-36124D01*
X38793Y-36150D01*
X38809Y-36179D01*
X38820Y-36212D01*
X38824Y-36246D01*
X38825Y-36250D01*
X38475Y-36075D02*
X38825Y-36425D01*
X38825Y-36075D02*
X38475Y-36425D01*
X39825Y-36250D02*
X39821Y-36283D01*
X39811Y-36316D01*
X39795Y-36346D01*
X39774Y-36373D01*
X39747Y-36395D01*
X39717Y-36411D01*
X39685Y-36421D01*
X39651Y-36424D01*
X39618Y-36421D01*
X39585Y-36412D01*
X39555Y-36396D01*
X39528Y-36375D01*
X39506Y-36348D01*
X39490Y-36318D01*
X39479Y-36286D01*
X39476Y-36252D01*
X39478Y-36219D01*
X39488Y-36186D01*
X39503Y-36156D01*
X39525Y-36129D01*
X39551Y-36107D01*
X39580Y-36090D01*
X39613Y-36080D01*
X39647Y-36076D01*
X39680Y-36078D01*
X39713Y-36087D01*
X39743Y-36103D01*
X39770Y-36124D01*
X39793Y-36150D01*
X39809Y-36179D01*
X39820Y-36212D01*
X39824Y-36246D01*
X39825Y-36250D01*
X39475Y-36075D02*
X39825Y-36425D01*
X39825Y-36075D02*
X39475Y-36425D01*
X42268Y-44043D02*
X42264Y-44076D01*
X42254Y-44109D01*
X42238Y-44139D01*
X42217Y-44166D01*
X42190Y-44188D01*
X42160Y-44204D01*
X42128Y-44214D01*
X42094Y-44217D01*
X42061Y-44214D01*
X42028Y-44205D01*
X41998Y-44189D01*
X41971Y-44168D01*
X41949Y-44141D01*
X41933Y-44111D01*
X41922Y-44079D01*
X41919Y-44045D01*
X41921Y-44012D01*
X41931Y-43979D01*
X41946Y-43949D01*
X41968Y-43922D01*
X41994Y-43900D01*
X42023Y-43883D01*
X42056Y-43873D01*
X42090Y-43869D01*
X42123Y-43871D01*
X42156Y-43880D01*
X42186Y-43896D01*
X42213Y-43917D01*
X42236Y-43943D01*
X42252Y-43972D01*
X42263Y-44005D01*
X42267Y-44039D01*
X42268Y-44043D01*
X41918Y-43868D02*
X42268Y-44218D01*
X42268Y-43868D02*
X41918Y-44218D01*
X42268Y-45457D02*
X42264Y-45490D01*
X42254Y-45523D01*
X42238Y-45553D01*
X42217Y-45580D01*
X42190Y-45602D01*
X42160Y-45618D01*
X42128Y-45628D01*
X42094Y-45631D01*
X42061Y-45628D01*
X42028Y-45619D01*
X41998Y-45603D01*
X41971Y-45582D01*
X41949Y-45555D01*
X41933Y-45525D01*
X41922Y-45493D01*
X41919Y-45459D01*
X41921Y-45426D01*
X41931Y-45393D01*
X41946Y-45363D01*
X41968Y-45336D01*
X41994Y-45314D01*
X42023Y-45297D01*
X42056Y-45287D01*
X42090Y-45283D01*
X42123Y-45285D01*
X42156Y-45294D01*
X42186Y-45310D01*
X42213Y-45331D01*
X42236Y-45357D01*
X42252Y-45386D01*
X42263Y-45419D01*
X42267Y-45453D01*
X42268Y-45457D01*
X41918Y-45282D02*
X42268Y-45632D01*
X42268Y-45282D02*
X41918Y-45632D01*
X42975Y-44750D02*
X42971Y-44783D01*
X42961Y-44816D01*
X42945Y-44846D01*
X42924Y-44873D01*
X42897Y-44895D01*
X42867Y-44911D01*
X42835Y-44921D01*
X42801Y-44924D01*
X42768Y-44921D01*
X42735Y-44912D01*
X42705Y-44896D01*
X42678Y-44875D01*
X42656Y-44848D01*
X42640Y-44818D01*
X42629Y-44786D01*
X42626Y-44752D01*
X42628Y-44719D01*
X42638Y-44686D01*
X42653Y-44656D01*
X42675Y-44629D01*
X42701Y-44607D01*
X42730Y-44590D01*
X42763Y-44580D01*
X42797Y-44576D01*
X42830Y-44578D01*
X42863Y-44587D01*
X42893Y-44603D01*
X42920Y-44624D01*
X42943Y-44650D01*
X42959Y-44679D01*
X42970Y-44712D01*
X42974Y-44746D01*
X42975Y-44750D01*
X42625Y-44575D02*
X42975Y-44925D01*
X42975Y-44575D02*
X42625Y-44925D01*
X43682Y-45457D02*
X43678Y-45490D01*
X43668Y-45523D01*
X43652Y-45553D01*
X43631Y-45580D01*
X43604Y-45602D01*
X43574Y-45618D01*
X43542Y-45628D01*
X43508Y-45631D01*
X43475Y-45628D01*
X43442Y-45619D01*
X43412Y-45603D01*
X43385Y-45582D01*
X43363Y-45555D01*
X43347Y-45525D01*
X43336Y-45493D01*
X43333Y-45459D01*
X43335Y-45426D01*
X43345Y-45393D01*
X43360Y-45363D01*
X43382Y-45336D01*
X43408Y-45314D01*
X43437Y-45297D01*
X43470Y-45287D01*
X43504Y-45283D01*
X43537Y-45285D01*
X43570Y-45294D01*
X43600Y-45310D01*
X43627Y-45331D01*
X43650Y-45357D01*
X43666Y-45386D01*
X43677Y-45419D01*
X43681Y-45453D01*
X43682Y-45457D01*
X43332Y-45282D02*
X43682Y-45632D01*
X43682Y-45282D02*
X43332Y-45632D01*
X43975Y-32350D02*
X43971Y-32383D01*
X43961Y-32416D01*
X43945Y-32446D01*
X43924Y-32473D01*
X43897Y-32495D01*
X43867Y-32511D01*
X43835Y-32521D01*
X43801Y-32524D01*
X43768Y-32521D01*
X43735Y-32512D01*
X43705Y-32496D01*
X43678Y-32475D01*
X43656Y-32448D01*
X43640Y-32418D01*
X43629Y-32386D01*
X43626Y-32352D01*
X43628Y-32319D01*
X43638Y-32286D01*
X43653Y-32256D01*
X43675Y-32229D01*
X43701Y-32207D01*
X43730Y-32190D01*
X43763Y-32180D01*
X43797Y-32176D01*
X43830Y-32178D01*
X43863Y-32187D01*
X43893Y-32203D01*
X43920Y-32224D01*
X43943Y-32250D01*
X43959Y-32279D01*
X43970Y-32312D01*
X43974Y-32346D01*
X43975Y-32350D01*
X43625Y-32175D02*
X43975Y-32525D01*
X43975Y-32175D02*
X43625Y-32525D01*
X43975Y-33350D02*
X43971Y-33383D01*
X43961Y-33416D01*
X43945Y-33446D01*
X43924Y-33473D01*
X43897Y-33495D01*
X43867Y-33511D01*
X43835Y-33521D01*
X43801Y-33524D01*
X43768Y-33521D01*
X43735Y-33512D01*
X43705Y-33496D01*
X43678Y-33475D01*
X43656Y-33448D01*
X43640Y-33418D01*
X43629Y-33386D01*
X43626Y-33352D01*
X43628Y-33319D01*
X43638Y-33286D01*
X43653Y-33256D01*
X43675Y-33229D01*
X43701Y-33207D01*
X43730Y-33190D01*
X43763Y-33180D01*
X43797Y-33176D01*
X43830Y-33178D01*
X43863Y-33187D01*
X43893Y-33203D01*
X43920Y-33224D01*
X43943Y-33250D01*
X43959Y-33279D01*
X43970Y-33312D01*
X43974Y-33346D01*
X43975Y-33350D01*
X43625Y-33175D02*
X43975Y-33525D01*
X43975Y-33175D02*
X43625Y-33525D01*
X45825Y-33400D02*
X45821Y-33433D01*
X45811Y-33466D01*
X45795Y-33496D01*
X45774Y-33523D01*
X45747Y-33545D01*
X45717Y-33561D01*
X45685Y-33571D01*
X45651Y-33574D01*
X45618Y-33571D01*
X45585Y-33562D01*
X45555Y-33546D01*
X45528Y-33525D01*
X45506Y-33498D01*
X45490Y-33468D01*
X45479Y-33436D01*
X45476Y-33402D01*
X45478Y-33369D01*
X45488Y-33336D01*
X45503Y-33306D01*
X45525Y-33279D01*
X45551Y-33257D01*
X45580Y-33240D01*
X45613Y-33230D01*
X45647Y-33226D01*
X45680Y-33228D01*
X45713Y-33237D01*
X45743Y-33253D01*
X45770Y-33274D01*
X45793Y-33300D01*
X45809Y-33329D01*
X45820Y-33362D01*
X45824Y-33396D01*
X45825Y-33400D01*
X45475Y-33225D02*
X45825Y-33575D01*
X45825Y-33225D02*
X45475Y-33575D01*
X46125Y-35200D02*
X46121Y-35233D01*
X46111Y-35266D01*
X46095Y-35296D01*
X46074Y-35323D01*
X46047Y-35345D01*
X46017Y-35361D01*
X45985Y-35371D01*
X45951Y-35374D01*
X45918Y-35371D01*
X45885Y-35362D01*
X45855Y-35346D01*
X45828Y-35325D01*
X45806Y-35298D01*
X45790Y-35268D01*
X45779Y-35236D01*
X45776Y-35202D01*
X45778Y-35169D01*
X45788Y-35136D01*
X45803Y-35106D01*
X45825Y-35079D01*
X45851Y-35057D01*
X45880Y-35040D01*
X45913Y-35030D01*
X45947Y-35026D01*
X45980Y-35028D01*
X46013Y-35037D01*
X46043Y-35053D01*
X46070Y-35074D01*
X46093Y-35100D01*
X46109Y-35129D01*
X46120Y-35162D01*
X46124Y-35196D01*
X46125Y-35200D01*
X45775Y-35025D02*
X46125Y-35375D01*
X46125Y-35025D02*
X45775Y-35375D01*
X46125Y-36200D02*
X46121Y-36233D01*
X46111Y-36266D01*
X46095Y-36296D01*
X46074Y-36323D01*
X46047Y-36345D01*
X46017Y-36361D01*
X45985Y-36371D01*
X45951Y-36374D01*
X45918Y-36371D01*
X45885Y-36362D01*
X45855Y-36346D01*
X45828Y-36325D01*
X45806Y-36298D01*
X45790Y-36268D01*
X45779Y-36236D01*
X45776Y-36202D01*
X45778Y-36169D01*
X45788Y-36136D01*
X45803Y-36106D01*
X45825Y-36079D01*
X45851Y-36057D01*
X45880Y-36040D01*
X45913Y-36030D01*
X45947Y-36026D01*
X45980Y-36028D01*
X46013Y-36037D01*
X46043Y-36053D01*
X46070Y-36074D01*
X46093Y-36100D01*
X46109Y-36129D01*
X46120Y-36162D01*
X46124Y-36196D01*
X46125Y-36200D01*
X45775Y-36025D02*
X46125Y-36375D01*
X46125Y-36025D02*
X45775Y-36375D01*
X46825Y-33400D02*
X46821Y-33433D01*
X46811Y-33466D01*
X46795Y-33496D01*
X46774Y-33523D01*
X46747Y-33545D01*
X46717Y-33561D01*
X46685Y-33571D01*
X46651Y-33574D01*
X46618Y-33571D01*
X46585Y-33562D01*
X46555Y-33546D01*
X46528Y-33525D01*
X46506Y-33498D01*
X46490Y-33468D01*
X46479Y-33436D01*
X46476Y-33402D01*
X46478Y-33369D01*
X46488Y-33336D01*
X46503Y-33306D01*
X46525Y-33279D01*
X46551Y-33257D01*
X46580Y-33240D01*
X46613Y-33230D01*
X46647Y-33226D01*
X46680Y-33228D01*
X46713Y-33237D01*
X46743Y-33253D01*
X46770Y-33274D01*
X46793Y-33300D01*
X46809Y-33329D01*
X46820Y-33362D01*
X46824Y-33396D01*
X46825Y-33400D01*
X46475Y-33225D02*
X46825Y-33575D01*
X46825Y-33225D02*
X46475Y-33575D01*
X47425Y-41900D02*
X47421Y-41933D01*
X47411Y-41966D01*
X47395Y-41996D01*
X47374Y-42023D01*
X47347Y-42045D01*
X47317Y-42061D01*
X47285Y-42071D01*
X47251Y-42074D01*
X47218Y-42071D01*
X47185Y-42062D01*
X47155Y-42046D01*
X47128Y-42025D01*
X47106Y-41998D01*
X47090Y-41968D01*
X47079Y-41936D01*
X47076Y-41902D01*
X47078Y-41869D01*
X47088Y-41836D01*
X47103Y-41806D01*
X47125Y-41779D01*
X47151Y-41757D01*
X47180Y-41740D01*
X47213Y-41730D01*
X47247Y-41726D01*
X47280Y-41728D01*
X47313Y-41737D01*
X47343Y-41753D01*
X47370Y-41774D01*
X47393Y-41800D01*
X47409Y-41829D01*
X47420Y-41862D01*
X47424Y-41896D01*
X47425Y-41900D01*
X47075Y-41725D02*
X47425Y-42075D01*
X47425Y-41725D02*
X47075Y-42075D01*
X47425Y-42900D02*
X47421Y-42933D01*
X47411Y-42966D01*
X47395Y-42996D01*
X47374Y-43023D01*
X47347Y-43045D01*
X47317Y-43061D01*
X47285Y-43071D01*
X47251Y-43074D01*
X47218Y-43071D01*
X47185Y-43062D01*
X47155Y-43046D01*
X47128Y-43025D01*
X47106Y-42998D01*
X47090Y-42968D01*
X47079Y-42936D01*
X47076Y-42902D01*
X47078Y-42869D01*
X47088Y-42836D01*
X47103Y-42806D01*
X47125Y-42779D01*
X47151Y-42757D01*
X47180Y-42740D01*
X47213Y-42730D01*
X47247Y-42726D01*
X47280Y-42728D01*
X47313Y-42737D01*
X47343Y-42753D01*
X47370Y-42774D01*
X47393Y-42800D01*
X47409Y-42829D01*
X47420Y-42862D01*
X47424Y-42896D01*
X47425Y-42900D01*
X47075Y-42725D02*
X47425Y-43075D01*
X47425Y-42725D02*
X47075Y-43075D01*
X47675Y-35000D02*
X47671Y-35033D01*
X47661Y-35066D01*
X47645Y-35096D01*
X47624Y-35123D01*
X47597Y-35145D01*
X47567Y-35161D01*
X47535Y-35171D01*
X47501Y-35174D01*
X47468Y-35171D01*
X47435Y-35162D01*
X47405Y-35146D01*
X47378Y-35125D01*
X47356Y-35098D01*
X47340Y-35068D01*
X47329Y-35036D01*
X47326Y-35002D01*
X47328Y-34969D01*
X47338Y-34936D01*
X47353Y-34906D01*
X47375Y-34879D01*
X47401Y-34857D01*
X47430Y-34840D01*
X47463Y-34830D01*
X47497Y-34826D01*
X47530Y-34828D01*
X47563Y-34837D01*
X47593Y-34853D01*
X47620Y-34874D01*
X47643Y-34900D01*
X47659Y-34929D01*
X47670Y-34962D01*
X47674Y-34996D01*
X47675Y-35000D01*
X47325Y-34825D02*
X47675Y-35175D01*
X47675Y-34825D02*
X47325Y-35175D01*
X47675Y-36000D02*
X47671Y-36033D01*
X47661Y-36066D01*
X47645Y-36096D01*
X47624Y-36123D01*
X47597Y-36145D01*
X47567Y-36161D01*
X47535Y-36171D01*
X47501Y-36174D01*
X47468Y-36171D01*
X47435Y-36162D01*
X47405Y-36146D01*
X47378Y-36125D01*
X47356Y-36098D01*
X47340Y-36068D01*
X47329Y-36036D01*
X47326Y-36002D01*
X47328Y-35969D01*
X47338Y-35936D01*
X47353Y-35906D01*
X47375Y-35879D01*
X47401Y-35857D01*
X47430Y-35840D01*
X47463Y-35830D01*
X47497Y-35826D01*
X47530Y-35828D01*
X47563Y-35837D01*
X47593Y-35853D01*
X47620Y-35874D01*
X47643Y-35900D01*
X47659Y-35929D01*
X47670Y-35962D01*
X47674Y-35996D01*
X47675Y-36000D01*
X47325Y-35825D02*
X47675Y-36175D01*
X47675Y-35825D02*
X47325Y-36175D01*
X47875Y-31950D02*
X47871Y-31983D01*
X47861Y-32016D01*
X47845Y-32046D01*
X47824Y-32073D01*
X47797Y-32095D01*
X47767Y-32111D01*
X47735Y-32121D01*
X47701Y-32124D01*
X47668Y-32121D01*
X47635Y-32112D01*
X47605Y-32096D01*
X47578Y-32075D01*
X47556Y-32048D01*
X47540Y-32018D01*
X47529Y-31986D01*
X47526Y-31952D01*
X47528Y-31919D01*
X47538Y-31886D01*
X47553Y-31856D01*
X47575Y-31829D01*
X47601Y-31807D01*
X47630Y-31790D01*
X47663Y-31780D01*
X47697Y-31776D01*
X47730Y-31778D01*
X47763Y-31787D01*
X47793Y-31803D01*
X47820Y-31824D01*
X47843Y-31850D01*
X47859Y-31879D01*
X47870Y-31912D01*
X47874Y-31946D01*
X47875Y-31950D01*
X47525Y-31775D02*
X47875Y-32125D01*
X47875Y-31775D02*
X47525Y-32125D01*
X48875Y-31950D02*
X48871Y-31983D01*
X48861Y-32016D01*
X48845Y-32046D01*
X48824Y-32073D01*
X48797Y-32095D01*
X48767Y-32111D01*
X48735Y-32121D01*
X48701Y-32124D01*
X48668Y-32121D01*
X48635Y-32112D01*
X48605Y-32096D01*
X48578Y-32075D01*
X48556Y-32048D01*
X48540Y-32018D01*
X48529Y-31986D01*
X48526Y-31952D01*
X48528Y-31919D01*
X48538Y-31886D01*
X48553Y-31856D01*
X48575Y-31829D01*
X48601Y-31807D01*
X48630Y-31790D01*
X48663Y-31780D01*
X48697Y-31776D01*
X48730Y-31778D01*
X48763Y-31787D01*
X48793Y-31803D01*
X48820Y-31824D01*
X48843Y-31850D01*
X48859Y-31879D01*
X48870Y-31912D01*
X48874Y-31946D01*
X48875Y-31950D01*
X48525Y-31775D02*
X48875Y-32125D01*
X48875Y-31775D02*
X48525Y-32125D01*
X49175Y-35650D02*
X49171Y-35683D01*
X49161Y-35716D01*
X49145Y-35746D01*
X49124Y-35773D01*
X49097Y-35795D01*
X49067Y-35811D01*
X49035Y-35821D01*
X49001Y-35824D01*
X48968Y-35821D01*
X48935Y-35812D01*
X48905Y-35796D01*
X48878Y-35775D01*
X48856Y-35748D01*
X48840Y-35718D01*
X48829Y-35686D01*
X48826Y-35652D01*
X48828Y-35619D01*
X48838Y-35586D01*
X48853Y-35556D01*
X48875Y-35529D01*
X48901Y-35507D01*
X48930Y-35490D01*
X48963Y-35480D01*
X48997Y-35476D01*
X49030Y-35478D01*
X49063Y-35487D01*
X49093Y-35503D01*
X49120Y-35524D01*
X49143Y-35550D01*
X49159Y-35579D01*
X49170Y-35612D01*
X49174Y-35646D01*
X49175Y-35650D01*
X48825Y-35475D02*
X49175Y-35825D01*
X49175Y-35475D02*
X48825Y-35825D01*
X50175Y-35650D02*
X50171Y-35683D01*
X50161Y-35716D01*
X50145Y-35746D01*
X50124Y-35773D01*
X50097Y-35795D01*
X50067Y-35811D01*
X50035Y-35821D01*
X50001Y-35824D01*
X49968Y-35821D01*
X49935Y-35812D01*
X49905Y-35796D01*
X49878Y-35775D01*
X49856Y-35748D01*
X49840Y-35718D01*
X49829Y-35686D01*
X49826Y-35652D01*
X49828Y-35619D01*
X49838Y-35586D01*
X49853Y-35556D01*
X49875Y-35529D01*
X49901Y-35507D01*
X49930Y-35490D01*
X49963Y-35480D01*
X49997Y-35476D01*
X50030Y-35478D01*
X50063Y-35487D01*
X50093Y-35503D01*
X50120Y-35524D01*
X50143Y-35550D01*
X50159Y-35579D01*
X50170Y-35612D01*
X50174Y-35646D01*
X50175Y-35650D01*
X49825Y-35475D02*
X50175Y-35825D01*
X50175Y-35475D02*
X49825Y-35825D01*
X50675Y-30100D02*
X50671Y-30133D01*
X50661Y-30166D01*
X50645Y-30196D01*
X50624Y-30223D01*
X50597Y-30245D01*
X50567Y-30261D01*
X50535Y-30271D01*
X50501Y-30274D01*
X50468Y-30271D01*
X50435Y-30262D01*
X50405Y-30246D01*
X50378Y-30225D01*
X50356Y-30198D01*
X50340Y-30168D01*
X50329Y-30136D01*
X50326Y-30102D01*
X50328Y-30069D01*
X50338Y-30036D01*
X50353Y-30006D01*
X50375Y-29979D01*
X50401Y-29957D01*
X50430Y-29940D01*
X50463Y-29930D01*
X50497Y-29926D01*
X50530Y-29928D01*
X50563Y-29937D01*
X50593Y-29953D01*
X50620Y-29974D01*
X50643Y-30000D01*
X50659Y-30029D01*
X50670Y-30062D01*
X50674Y-30096D01*
X50675Y-30100D01*
X50325Y-29925D02*
X50675Y-30275D01*
X50675Y-29925D02*
X50325Y-30275D01*
X50675Y-31100D02*
X50671Y-31133D01*
X50661Y-31166D01*
X50645Y-31196D01*
X50624Y-31223D01*
X50597Y-31245D01*
X50567Y-31261D01*
X50535Y-31271D01*
X50501Y-31274D01*
X50468Y-31271D01*
X50435Y-31262D01*
X50405Y-31246D01*
X50378Y-31225D01*
X50356Y-31198D01*
X50340Y-31168D01*
X50329Y-31136D01*
X50326Y-31102D01*
X50328Y-31069D01*
X50338Y-31036D01*
X50353Y-31006D01*
X50375Y-30979D01*
X50401Y-30957D01*
X50430Y-30940D01*
X50463Y-30930D01*
X50497Y-30926D01*
X50530Y-30928D01*
X50563Y-30937D01*
X50593Y-30953D01*
X50620Y-30974D01*
X50643Y-31000D01*
X50659Y-31029D01*
X50670Y-31062D01*
X50674Y-31096D01*
X50675Y-31100D01*
X50325Y-30925D02*
X50675Y-31275D01*
X50675Y-30925D02*
X50325Y-31275D01*
X51225Y-49150D02*
X51221Y-49183D01*
X51211Y-49216D01*
X51195Y-49246D01*
X51174Y-49273D01*
X51147Y-49295D01*
X51117Y-49311D01*
X51085Y-49321D01*
X51051Y-49324D01*
X51018Y-49321D01*
X50985Y-49312D01*
X50955Y-49296D01*
X50928Y-49275D01*
X50906Y-49248D01*
X50890Y-49218D01*
X50879Y-49186D01*
X50876Y-49152D01*
X50878Y-49119D01*
X50888Y-49086D01*
X50903Y-49056D01*
X50925Y-49029D01*
X50951Y-49007D01*
X50980Y-48990D01*
X51013Y-48980D01*
X51047Y-48976D01*
X51080Y-48978D01*
X51113Y-48987D01*
X51143Y-49003D01*
X51170Y-49024D01*
X51193Y-49050D01*
X51209Y-49079D01*
X51220Y-49112D01*
X51224Y-49146D01*
X51225Y-49150D01*
X50875Y-48975D02*
X51225Y-49325D01*
X51225Y-48975D02*
X50875Y-49325D01*
X52125Y-35700D02*
X52121Y-35733D01*
X52111Y-35766D01*
X52095Y-35796D01*
X52074Y-35823D01*
X52047Y-35845D01*
X52017Y-35861D01*
X51985Y-35871D01*
X51951Y-35874D01*
X51918Y-35871D01*
X51885Y-35862D01*
X51855Y-35846D01*
X51828Y-35825D01*
X51806Y-35798D01*
X51790Y-35768D01*
X51779Y-35736D01*
X51776Y-35702D01*
X51778Y-35669D01*
X51788Y-35636D01*
X51803Y-35606D01*
X51825Y-35579D01*
X51851Y-35557D01*
X51880Y-35540D01*
X51913Y-35530D01*
X51947Y-35526D01*
X51980Y-35528D01*
X52013Y-35537D01*
X52043Y-35553D01*
X52070Y-35574D01*
X52093Y-35600D01*
X52109Y-35629D01*
X52120Y-35662D01*
X52124Y-35696D01*
X52125Y-35700D01*
X51775Y-35525D02*
X52125Y-35875D01*
X52125Y-35525D02*
X51775Y-35875D01*
X52225Y-49150D02*
X52221Y-49183D01*
X52211Y-49216D01*
X52195Y-49246D01*
X52174Y-49273D01*
X52147Y-49295D01*
X52117Y-49311D01*
X52085Y-49321D01*
X52051Y-49324D01*
X52018Y-49321D01*
X51985Y-49312D01*
X51955Y-49296D01*
X51928Y-49275D01*
X51906Y-49248D01*
X51890Y-49218D01*
X51879Y-49186D01*
X51876Y-49152D01*
X51878Y-49119D01*
X51888Y-49086D01*
X51903Y-49056D01*
X51925Y-49029D01*
X51951Y-49007D01*
X51980Y-48990D01*
X52013Y-48980D01*
X52047Y-48976D01*
X52080Y-48978D01*
X52113Y-48987D01*
X52143Y-49003D01*
X52170Y-49024D01*
X52193Y-49050D01*
X52209Y-49079D01*
X52220Y-49112D01*
X52224Y-49146D01*
X52225Y-49150D01*
X51875Y-48975D02*
X52225Y-49325D01*
X52225Y-48975D02*
X51875Y-49325D01*
X53075Y-43600D02*
X53071Y-43633D01*
X53061Y-43666D01*
X53045Y-43696D01*
X53024Y-43723D01*
X52997Y-43745D01*
X52967Y-43761D01*
X52935Y-43771D01*
X52901Y-43774D01*
X52868Y-43771D01*
X52835Y-43762D01*
X52805Y-43746D01*
X52778Y-43725D01*
X52756Y-43698D01*
X52740Y-43668D01*
X52729Y-43636D01*
X52726Y-43602D01*
X52728Y-43569D01*
X52738Y-43536D01*
X52753Y-43506D01*
X52775Y-43479D01*
X52801Y-43457D01*
X52830Y-43440D01*
X52863Y-43430D01*
X52897Y-43426D01*
X52930Y-43428D01*
X52963Y-43437D01*
X52993Y-43453D01*
X53020Y-43474D01*
X53043Y-43500D01*
X53059Y-43529D01*
X53070Y-43562D01*
X53074Y-43596D01*
X53075Y-43600D01*
X52725Y-43425D02*
X53075Y-43775D01*
X53075Y-43425D02*
X52725Y-43775D01*
X53075Y-44600D02*
X53071Y-44633D01*
X53061Y-44666D01*
X53045Y-44696D01*
X53024Y-44723D01*
X52997Y-44745D01*
X52967Y-44761D01*
X52935Y-44771D01*
X52901Y-44774D01*
X52868Y-44771D01*
X52835Y-44762D01*
X52805Y-44746D01*
X52778Y-44725D01*
X52756Y-44698D01*
X52740Y-44668D01*
X52729Y-44636D01*
X52726Y-44602D01*
X52728Y-44569D01*
X52738Y-44536D01*
X52753Y-44506D01*
X52775Y-44479D01*
X52801Y-44457D01*
X52830Y-44440D01*
X52863Y-44430D01*
X52897Y-44426D01*
X52930Y-44428D01*
X52963Y-44437D01*
X52993Y-44453D01*
X53020Y-44474D01*
X53043Y-44500D01*
X53059Y-44529D01*
X53070Y-44562D01*
X53074Y-44596D01*
X53075Y-44600D01*
X52725Y-44425D02*
X53075Y-44775D01*
X53075Y-44425D02*
X52725Y-44775D01*
X53125Y-35700D02*
X53121Y-35733D01*
X53111Y-35766D01*
X53095Y-35796D01*
X53074Y-35823D01*
X53047Y-35845D01*
X53017Y-35861D01*
X52985Y-35871D01*
X52951Y-35874D01*
X52918Y-35871D01*
X52885Y-35862D01*
X52855Y-35846D01*
X52828Y-35825D01*
X52806Y-35798D01*
X52790Y-35768D01*
X52779Y-35736D01*
X52776Y-35702D01*
X52778Y-35669D01*
X52788Y-35636D01*
X52803Y-35606D01*
X52825Y-35579D01*
X52851Y-35557D01*
X52880Y-35540D01*
X52913Y-35530D01*
X52947Y-35526D01*
X52980Y-35528D01*
X53013Y-35537D01*
X53043Y-35553D01*
X53070Y-35574D01*
X53093Y-35600D01*
X53109Y-35629D01*
X53120Y-35662D01*
X53124Y-35696D01*
X53125Y-35700D01*
X52775Y-35525D02*
X53125Y-35875D01*
X53125Y-35525D02*
X52775Y-35875D01*
X54375Y-43500D02*
X54371Y-43533D01*
X54361Y-43566D01*
X54345Y-43596D01*
X54324Y-43623D01*
X54297Y-43645D01*
X54267Y-43661D01*
X54235Y-43671D01*
X54201Y-43674D01*
X54168Y-43671D01*
X54135Y-43662D01*
X54105Y-43646D01*
X54078Y-43625D01*
X54056Y-43598D01*
X54040Y-43568D01*
X54029Y-43536D01*
X54026Y-43502D01*
X54028Y-43469D01*
X54038Y-43436D01*
X54053Y-43406D01*
X54075Y-43379D01*
X54101Y-43357D01*
X54130Y-43340D01*
X54163Y-43330D01*
X54197Y-43326D01*
X54230Y-43328D01*
X54263Y-43337D01*
X54293Y-43353D01*
X54320Y-43374D01*
X54343Y-43400D01*
X54359Y-43429D01*
X54370Y-43462D01*
X54374Y-43496D01*
X54375Y-43500D01*
X54025Y-43325D02*
X54375Y-43675D01*
X54375Y-43325D02*
X54025Y-43675D01*
X54375Y-44500D02*
X54371Y-44533D01*
X54361Y-44566D01*
X54345Y-44596D01*
X54324Y-44623D01*
X54297Y-44645D01*
X54267Y-44661D01*
X54235Y-44671D01*
X54201Y-44674D01*
X54168Y-44671D01*
X54135Y-44662D01*
X54105Y-44646D01*
X54078Y-44625D01*
X54056Y-44598D01*
X54040Y-44568D01*
X54029Y-44536D01*
X54026Y-44502D01*
X54028Y-44469D01*
X54038Y-44436D01*
X54053Y-44406D01*
X54075Y-44379D01*
X54101Y-44357D01*
X54130Y-44340D01*
X54163Y-44330D01*
X54197Y-44326D01*
X54230Y-44328D01*
X54263Y-44337D01*
X54293Y-44353D01*
X54320Y-44374D01*
X54343Y-44400D01*
X54359Y-44429D01*
X54370Y-44462D01*
X54374Y-44496D01*
X54375Y-44500D01*
X54025Y-44325D02*
X54375Y-44675D01*
X54375Y-44325D02*
X54025Y-44675D01*
X56225Y-36000D02*
X56221Y-36033D01*
X56211Y-36066D01*
X56195Y-36096D01*
X56174Y-36123D01*
X56147Y-36145D01*
X56117Y-36161D01*
X56085Y-36171D01*
X56051Y-36174D01*
X56018Y-36171D01*
X55985Y-36162D01*
X55955Y-36146D01*
X55928Y-36125D01*
X55906Y-36098D01*
X55890Y-36068D01*
X55879Y-36036D01*
X55876Y-36002D01*
X55878Y-35969D01*
X55888Y-35936D01*
X55903Y-35906D01*
X55925Y-35879D01*
X55951Y-35857D01*
X55980Y-35840D01*
X56013Y-35830D01*
X56047Y-35826D01*
X56080Y-35828D01*
X56113Y-35837D01*
X56143Y-35853D01*
X56170Y-35874D01*
X56193Y-35900D01*
X56209Y-35929D01*
X56220Y-35962D01*
X56224Y-35996D01*
X56225Y-36000D01*
X55875Y-35825D02*
X56225Y-36175D01*
X56225Y-35825D02*
X55875Y-36175D01*
X56775Y-43400D02*
X56771Y-43433D01*
X56761Y-43466D01*
X56745Y-43496D01*
X56724Y-43523D01*
X56697Y-43545D01*
X56667Y-43561D01*
X56635Y-43571D01*
X56601Y-43574D01*
X56568Y-43571D01*
X56535Y-43562D01*
X56505Y-43546D01*
X56478Y-43525D01*
X56456Y-43498D01*
X56440Y-43468D01*
X56429Y-43436D01*
X56426Y-43402D01*
X56428Y-43369D01*
X56438Y-43336D01*
X56453Y-43306D01*
X56475Y-43279D01*
X56501Y-43257D01*
X56530Y-43240D01*
X56563Y-43230D01*
X56597Y-43226D01*
X56630Y-43228D01*
X56663Y-43237D01*
X56693Y-43253D01*
X56720Y-43274D01*
X56743Y-43300D01*
X56759Y-43329D01*
X56770Y-43362D01*
X56774Y-43396D01*
X56775Y-43400D01*
X56425Y-43225D02*
X56775Y-43575D01*
X56775Y-43225D02*
X56425Y-43575D01*
X56775Y-44400D02*
X56771Y-44433D01*
X56761Y-44466D01*
X56745Y-44496D01*
X56724Y-44523D01*
X56697Y-44545D01*
X56667Y-44561D01*
X56635Y-44571D01*
X56601Y-44574D01*
X56568Y-44571D01*
X56535Y-44562D01*
X56505Y-44546D01*
X56478Y-44525D01*
X56456Y-44498D01*
X56440Y-44468D01*
X56429Y-44436D01*
X56426Y-44402D01*
X56428Y-44369D01*
X56438Y-44336D01*
X56453Y-44306D01*
X56475Y-44279D01*
X56501Y-44257D01*
X56530Y-44240D01*
X56563Y-44230D01*
X56597Y-44226D01*
X56630Y-44228D01*
X56663Y-44237D01*
X56693Y-44253D01*
X56720Y-44274D01*
X56743Y-44300D01*
X56759Y-44329D01*
X56770Y-44362D01*
X56774Y-44396D01*
X56775Y-44400D01*
X56425Y-44225D02*
X56775Y-44575D01*
X56775Y-44225D02*
X56425Y-44575D01*
X57225Y-36000D02*
X57221Y-36033D01*
X57211Y-36066D01*
X57195Y-36096D01*
X57174Y-36123D01*
X57147Y-36145D01*
X57117Y-36161D01*
X57085Y-36171D01*
X57051Y-36174D01*
X57018Y-36171D01*
X56985Y-36162D01*
X56955Y-36146D01*
X56928Y-36125D01*
X56906Y-36098D01*
X56890Y-36068D01*
X56879Y-36036D01*
X56876Y-36002D01*
X56878Y-35969D01*
X56888Y-35936D01*
X56903Y-35906D01*
X56925Y-35879D01*
X56951Y-35857D01*
X56980Y-35840D01*
X57013Y-35830D01*
X57047Y-35826D01*
X57080Y-35828D01*
X57113Y-35837D01*
X57143Y-35853D01*
X57170Y-35874D01*
X57193Y-35900D01*
X57209Y-35929D01*
X57220Y-35962D01*
X57224Y-35996D01*
X57225Y-36000D01*
X56875Y-35825D02*
X57225Y-36175D01*
X57225Y-35825D02*
X56875Y-36175D01*
X37760Y-38622D02*
X37755Y-38672D01*
X37740Y-38721D01*
X37716Y-38765D01*
X37684Y-38805D01*
X37645Y-38837D01*
X37600Y-38861D01*
X37552Y-38876D01*
X37501Y-38881D01*
X37452Y-38877D01*
X37403Y-38863D01*
X37358Y-38839D01*
X37319Y-38807D01*
X37286Y-38768D01*
X37262Y-38724D01*
X37246Y-38676D01*
X37241Y-38625D01*
X37245Y-38576D01*
X37259Y-38527D01*
X37282Y-38482D01*
X37313Y-38442D01*
X37352Y-38409D01*
X37396Y-38384D01*
X37445Y-38369D01*
X37495Y-38363D01*
X37545Y-38366D01*
X37594Y-38380D01*
X37639Y-38403D01*
X37679Y-38434D01*
X37712Y-38473D01*
X37737Y-38517D01*
X37753Y-38565D01*
X37759Y-38615D01*
X37760Y-38622D01*
X37240Y-38622D02*
X37760Y-38622D01*
X37760Y-40000D02*
X37755Y-40050D01*
X37740Y-40099D01*
X37716Y-40143D01*
X37684Y-40183D01*
X37645Y-40215D01*
X37600Y-40239D01*
X37552Y-40254D01*
X37501Y-40259D01*
X37452Y-40255D01*
X37403Y-40241D01*
X37358Y-40217D01*
X37319Y-40185D01*
X37286Y-40146D01*
X37262Y-40102D01*
X37246Y-40054D01*
X37241Y-40003D01*
X37245Y-39954D01*
X37259Y-39905D01*
X37282Y-39860D01*
X37313Y-39820D01*
X37352Y-39787D01*
X37396Y-39762D01*
X37445Y-39747D01*
X37495Y-39741D01*
X37545Y-39744D01*
X37594Y-39758D01*
X37639Y-39781D01*
X37679Y-39812D01*
X37712Y-39851D01*
X37737Y-39895D01*
X37753Y-39943D01*
X37759Y-39993D01*
X37760Y-40000D01*
X37240Y-40000D02*
X37760Y-40000D01*
X37760Y-41378D02*
X37755Y-41428D01*
X37740Y-41477D01*
X37716Y-41521D01*
X37684Y-41561D01*
X37645Y-41593D01*
X37600Y-41617D01*
X37552Y-41632D01*
X37501Y-41637D01*
X37452Y-41633D01*
X37403Y-41619D01*
X37358Y-41595D01*
X37319Y-41563D01*
X37286Y-41524D01*
X37262Y-41480D01*
X37246Y-41432D01*
X37241Y-41381D01*
X37245Y-41332D01*
X37259Y-41283D01*
X37282Y-41238D01*
X37313Y-41198D01*
X37352Y-41165D01*
X37396Y-41140D01*
X37445Y-41125D01*
X37495Y-41119D01*
X37545Y-41122D01*
X37594Y-41136D01*
X37639Y-41159D01*
X37679Y-41190D01*
X37712Y-41229D01*
X37737Y-41273D01*
X37753Y-41321D01*
X37759Y-41371D01*
X37760Y-41378D01*
X37240Y-41378D02*
X37760Y-41378D01*
X39786Y-33974D02*
X39781Y-34024D01*
X39766Y-34073D01*
X39742Y-34117D01*
X39710Y-34157D01*
X39671Y-34189D01*
X39626Y-34213D01*
X39578Y-34228D01*
X39527Y-34233D01*
X39478Y-34229D01*
X39429Y-34215D01*
X39384Y-34191D01*
X39345Y-34159D01*
X39312Y-34120D01*
X39288Y-34076D01*
X39272Y-34028D01*
X39267Y-33977D01*
X39271Y-33928D01*
X39285Y-33879D01*
X39308Y-33834D01*
X39339Y-33794D01*
X39378Y-33761D01*
X39422Y-33736D01*
X39471Y-33721D01*
X39521Y-33715D01*
X39571Y-33718D01*
X39620Y-33732D01*
X39665Y-33755D01*
X39705Y-33786D01*
X39738Y-33825D01*
X39763Y-33869D01*
X39779Y-33917D01*
X39785Y-33967D01*
X39786Y-33974D01*
X39266Y-33974D02*
X39786Y-33974D01*
X39786Y-46026D02*
X39781Y-46076D01*
X39766Y-46125D01*
X39742Y-46169D01*
X39710Y-46209D01*
X39671Y-46241D01*
X39626Y-46265D01*
X39578Y-46280D01*
X39527Y-46285D01*
X39478Y-46281D01*
X39429Y-46267D01*
X39384Y-46243D01*
X39345Y-46211D01*
X39312Y-46172D01*
X39288Y-46128D01*
X39272Y-46080D01*
X39267Y-46029D01*
X39271Y-45980D01*
X39285Y-45931D01*
X39308Y-45886D01*
X39339Y-45846D01*
X39378Y-45813D01*
X39422Y-45788D01*
X39471Y-45773D01*
X39521Y-45767D01*
X39571Y-45770D01*
X39620Y-45784D01*
X39665Y-45807D01*
X39705Y-45838D01*
X39738Y-45877D01*
X39763Y-45921D01*
X39779Y-45969D01*
X39785Y-46019D01*
X39786Y-46026D01*
X39266Y-46026D02*
X39786Y-46026D01*
X40760Y-33000D02*
X40755Y-33050D01*
X40740Y-33099D01*
X40716Y-33143D01*
X40684Y-33183D01*
X40645Y-33215D01*
X40600Y-33239D01*
X40552Y-33254D01*
X40501Y-33259D01*
X40452Y-33255D01*
X40403Y-33241D01*
X40358Y-33217D01*
X40319Y-33185D01*
X40286Y-33146D01*
X40262Y-33102D01*
X40246Y-33054D01*
X40241Y-33003D01*
X40245Y-32954D01*
X40259Y-32905D01*
X40282Y-32860D01*
X40313Y-32820D01*
X40352Y-32787D01*
X40396Y-32762D01*
X40445Y-32747D01*
X40495Y-32741D01*
X40545Y-32744D01*
X40594Y-32758D01*
X40639Y-32781D01*
X40679Y-32812D01*
X40712Y-32851D01*
X40737Y-32895D01*
X40753Y-32943D01*
X40759Y-32993D01*
X40760Y-33000D01*
X40240Y-33000D02*
X40760Y-33000D01*
X40760Y-47000D02*
X40755Y-47050D01*
X40740Y-47099D01*
X40716Y-47143D01*
X40684Y-47183D01*
X40645Y-47215D01*
X40600Y-47239D01*
X40552Y-47254D01*
X40501Y-47259D01*
X40452Y-47255D01*
X40403Y-47241D01*
X40358Y-47217D01*
X40319Y-47185D01*
X40286Y-47146D01*
X40262Y-47102D01*
X40246Y-47054D01*
X40241Y-47003D01*
X40245Y-46954D01*
X40259Y-46905D01*
X40282Y-46860D01*
X40313Y-46820D01*
X40352Y-46787D01*
X40396Y-46762D01*
X40445Y-46747D01*
X40495Y-46741D01*
X40545Y-46744D01*
X40594Y-46758D01*
X40639Y-46781D01*
X40679Y-46812D01*
X40712Y-46851D01*
X40737Y-46895D01*
X40753Y-46943D01*
X40759Y-46993D01*
X40760Y-47000D01*
X40240Y-47000D02*
X40760Y-47000D01*
X41734Y-32026D02*
X41729Y-32076D01*
X41714Y-32125D01*
X41690Y-32169D01*
X41658Y-32209D01*
X41619Y-32241D01*
X41574Y-32265D01*
X41526Y-32280D01*
X41475Y-32285D01*
X41426Y-32281D01*
X41377Y-32267D01*
X41332Y-32243D01*
X41293Y-32211D01*
X41260Y-32172D01*
X41236Y-32128D01*
X41220Y-32080D01*
X41215Y-32029D01*
X41219Y-31980D01*
X41233Y-31931D01*
X41256Y-31886D01*
X41287Y-31846D01*
X41326Y-31813D01*
X41370Y-31788D01*
X41419Y-31773D01*
X41469Y-31767D01*
X41519Y-31770D01*
X41568Y-31784D01*
X41613Y-31807D01*
X41653Y-31838D01*
X41686Y-31877D01*
X41711Y-31921D01*
X41727Y-31969D01*
X41733Y-32019D01*
X41734Y-32026D01*
X41214Y-32026D02*
X41734Y-32026D01*
X41734Y-47974D02*
X41729Y-48024D01*
X41714Y-48073D01*
X41690Y-48117D01*
X41658Y-48157D01*
X41619Y-48189D01*
X41574Y-48213D01*
X41526Y-48228D01*
X41475Y-48233D01*
X41426Y-48229D01*
X41377Y-48215D01*
X41332Y-48191D01*
X41293Y-48159D01*
X41260Y-48120D01*
X41236Y-48076D01*
X41220Y-48028D01*
X41215Y-47977D01*
X41219Y-47928D01*
X41233Y-47879D01*
X41256Y-47834D01*
X41287Y-47794D01*
X41326Y-47761D01*
X41370Y-47736D01*
X41419Y-47721D01*
X41469Y-47715D01*
X41519Y-47718D01*
X41568Y-47732D01*
X41613Y-47755D01*
X41653Y-47786D01*
X41686Y-47825D01*
X41711Y-47869D01*
X41727Y-47917D01*
X41733Y-47967D01*
X41734Y-47974D01*
X41214Y-47974D02*
X41734Y-47974D01*
X53786Y-32026D02*
X53781Y-32076D01*
X53766Y-32125D01*
X53742Y-32169D01*
X53710Y-32209D01*
X53671Y-32241D01*
X53626Y-32265D01*
X53578Y-32280D01*
X53527Y-32285D01*
X53478Y-32281D01*
X53429Y-32267D01*
X53384Y-32243D01*
X53345Y-32211D01*
X53312Y-32172D01*
X53288Y-32128D01*
X53272Y-32080D01*
X53267Y-32029D01*
X53271Y-31980D01*
X53285Y-31931D01*
X53308Y-31886D01*
X53339Y-31846D01*
X53378Y-31813D01*
X53422Y-31788D01*
X53471Y-31773D01*
X53521Y-31767D01*
X53571Y-31770D01*
X53620Y-31784D01*
X53665Y-31807D01*
X53705Y-31838D01*
X53738Y-31877D01*
X53763Y-31921D01*
X53779Y-31969D01*
X53785Y-32019D01*
X53786Y-32026D01*
X53266Y-32026D02*
X53786Y-32026D01*
X53786Y-47974D02*
X53781Y-48024D01*
X53766Y-48073D01*
X53742Y-48117D01*
X53710Y-48157D01*
X53671Y-48189D01*
X53626Y-48213D01*
X53578Y-48228D01*
X53527Y-48233D01*
X53478Y-48229D01*
X53429Y-48215D01*
X53384Y-48191D01*
X53345Y-48159D01*
X53312Y-48120D01*
X53288Y-48076D01*
X53272Y-48028D01*
X53267Y-47977D01*
X53271Y-47928D01*
X53285Y-47879D01*
X53308Y-47834D01*
X53339Y-47794D01*
X53378Y-47761D01*
X53422Y-47736D01*
X53471Y-47721D01*
X53521Y-47715D01*
X53571Y-47718D01*
X53620Y-47732D01*
X53665Y-47755D01*
X53705Y-47786D01*
X53738Y-47825D01*
X53763Y-47869D01*
X53779Y-47917D01*
X53785Y-47967D01*
X53786Y-47974D01*
X53266Y-47974D02*
X53786Y-47974D01*
X54760Y-33000D02*
X54755Y-33050D01*
X54740Y-33099D01*
X54716Y-33143D01*
X54684Y-33183D01*
X54645Y-33215D01*
X54600Y-33239D01*
X54552Y-33254D01*
X54501Y-33259D01*
X54452Y-33255D01*
X54403Y-33241D01*
X54358Y-33217D01*
X54319Y-33185D01*
X54286Y-33146D01*
X54262Y-33102D01*
X54246Y-33054D01*
X54241Y-33003D01*
X54245Y-32954D01*
X54259Y-32905D01*
X54282Y-32860D01*
X54313Y-32820D01*
X54352Y-32787D01*
X54396Y-32762D01*
X54445Y-32747D01*
X54495Y-32741D01*
X54545Y-32744D01*
X54594Y-32758D01*
X54639Y-32781D01*
X54679Y-32812D01*
X54712Y-32851D01*
X54737Y-32895D01*
X54753Y-32943D01*
X54759Y-32993D01*
X54760Y-33000D01*
X54240Y-33000D02*
X54760Y-33000D01*
X54760Y-47000D02*
X54755Y-47050D01*
X54740Y-47099D01*
X54716Y-47143D01*
X54684Y-47183D01*
X54645Y-47215D01*
X54600Y-47239D01*
X54552Y-47254D01*
X54501Y-47259D01*
X54452Y-47255D01*
X54403Y-47241D01*
X54358Y-47217D01*
X54319Y-47185D01*
X54286Y-47146D01*
X54262Y-47102D01*
X54246Y-47054D01*
X54241Y-47003D01*
X54245Y-46954D01*
X54259Y-46905D01*
X54282Y-46860D01*
X54313Y-46820D01*
X54352Y-46787D01*
X54396Y-46762D01*
X54445Y-46747D01*
X54495Y-46741D01*
X54545Y-46744D01*
X54594Y-46758D01*
X54639Y-46781D01*
X54679Y-46812D01*
X54712Y-46851D01*
X54737Y-46895D01*
X54753Y-46943D01*
X54759Y-46993D01*
X54760Y-47000D01*
X54240Y-47000D02*
X54760Y-47000D01*
X55734Y-33974D02*
X55729Y-34024D01*
X55714Y-34073D01*
X55690Y-34117D01*
X55658Y-34157D01*
X55619Y-34189D01*
X55574Y-34213D01*
X55526Y-34228D01*
X55475Y-34233D01*
X55426Y-34229D01*
X55377Y-34215D01*
X55332Y-34191D01*
X55293Y-34159D01*
X55260Y-34120D01*
X55236Y-34076D01*
X55220Y-34028D01*
X55215Y-33977D01*
X55219Y-33928D01*
X55233Y-33879D01*
X55256Y-33834D01*
X55287Y-33794D01*
X55326Y-33761D01*
X55370Y-33736D01*
X55419Y-33721D01*
X55469Y-33715D01*
X55519Y-33718D01*
X55568Y-33732D01*
X55613Y-33755D01*
X55653Y-33786D01*
X55686Y-33825D01*
X55711Y-33869D01*
X55727Y-33917D01*
X55733Y-33967D01*
X55734Y-33974D01*
X55214Y-33974D02*
X55734Y-33974D01*
X55734Y-46026D02*
X55729Y-46076D01*
X55714Y-46125D01*
X55690Y-46169D01*
X55658Y-46209D01*
X55619Y-46241D01*
X55574Y-46265D01*
X55526Y-46280D01*
X55475Y-46285D01*
X55426Y-46281D01*
X55377Y-46267D01*
X55332Y-46243D01*
X55293Y-46211D01*
X55260Y-46172D01*
X55236Y-46128D01*
X55220Y-46080D01*
X55215Y-46029D01*
X55219Y-45980D01*
X55233Y-45931D01*
X55256Y-45886D01*
X55287Y-45846D01*
X55326Y-45813D01*
X55370Y-45788D01*
X55419Y-45773D01*
X55469Y-45767D01*
X55519Y-45770D01*
X55568Y-45784D01*
X55613Y-45807D01*
X55653Y-45838D01*
X55686Y-45877D01*
X55711Y-45921D01*
X55727Y-45969D01*
X55733Y-46019D01*
X55734Y-46026D01*
X55214Y-46026D02*
X55734Y-46026D01*
X57760Y-38622D02*
X57755Y-38672D01*
X57740Y-38721D01*
X57716Y-38765D01*
X57684Y-38805D01*
X57645Y-38837D01*
X57600Y-38861D01*
X57552Y-38876D01*
X57501Y-38881D01*
X57452Y-38877D01*
X57403Y-38863D01*
X57358Y-38839D01*
X57319Y-38807D01*
X57286Y-38768D01*
X57262Y-38724D01*
X57246Y-38676D01*
X57241Y-38625D01*
X57245Y-38576D01*
X57259Y-38527D01*
X57282Y-38482D01*
X57313Y-38442D01*
X57352Y-38409D01*
X57396Y-38384D01*
X57445Y-38369D01*
X57495Y-38363D01*
X57545Y-38366D01*
X57594Y-38380D01*
X57639Y-38403D01*
X57679Y-38434D01*
X57712Y-38473D01*
X57737Y-38517D01*
X57753Y-38565D01*
X57759Y-38615D01*
X57760Y-38622D01*
X57240Y-38622D02*
X57760Y-38622D01*
X57760Y-40000D02*
X57755Y-40050D01*
X57740Y-40099D01*
X57716Y-40143D01*
X57684Y-40183D01*
X57645Y-40215D01*
X57600Y-40239D01*
X57552Y-40254D01*
X57501Y-40259D01*
X57452Y-40255D01*
X57403Y-40241D01*
X57358Y-40217D01*
X57319Y-40185D01*
X57286Y-40146D01*
X57262Y-40102D01*
X57246Y-40054D01*
X57241Y-40003D01*
X57245Y-39954D01*
X57259Y-39905D01*
X57282Y-39860D01*
X57313Y-39820D01*
X57352Y-39787D01*
X57396Y-39762D01*
X57445Y-39747D01*
X57495Y-39741D01*
X57545Y-39744D01*
X57594Y-39758D01*
X57639Y-39781D01*
X57679Y-39812D01*
X57712Y-39851D01*
X57737Y-39895D01*
X57753Y-39943D01*
X57759Y-39993D01*
X57760Y-40000D01*
X57240Y-40000D02*
X57760Y-40000D01*
X57760Y-41378D02*
X57755Y-41428D01*
X57740Y-41477D01*
X57716Y-41521D01*
X57684Y-41561D01*
X57645Y-41593D01*
X57600Y-41617D01*
X57552Y-41632D01*
X57501Y-41637D01*
X57452Y-41633D01*
X57403Y-41619D01*
X57358Y-41595D01*
X57319Y-41563D01*
X57286Y-41524D01*
X57262Y-41480D01*
X57246Y-41432D01*
X57241Y-41381D01*
X57245Y-41332D01*
X57259Y-41283D01*
X57282Y-41238D01*
X57313Y-41198D01*
X57352Y-41165D01*
X57396Y-41140D01*
X57445Y-41125D01*
X57495Y-41119D01*
X57545Y-41122D01*
X57594Y-41136D01*
X57639Y-41159D01*
X57679Y-41190D01*
X57712Y-41229D01*
X57737Y-41273D01*
X57753Y-41321D01*
X57759Y-41371D01*
X57760Y-41378D01*
X57240Y-41378D02*
X57760Y-41378D01*
X47015Y-30000D02*
X47009Y-30057D01*
X46992Y-30112D01*
X46965Y-30163D01*
X46929Y-30207D01*
X46884Y-30244D01*
X46834Y-30271D01*
X46779Y-30288D01*
X46722Y-30294D01*
X46665Y-30289D01*
X46610Y-30273D01*
X46559Y-30246D01*
X46514Y-30210D01*
X46477Y-30166D01*
X46449Y-30116D01*
X46432Y-30061D01*
X46426Y-30004D01*
X46430Y-29947D01*
X46446Y-29892D01*
X46473Y-29841D01*
X46508Y-29796D01*
X46552Y-29758D01*
X46602Y-29730D01*
X46657Y-29712D01*
X46714Y-29706D01*
X46771Y-29710D01*
X46826Y-29725D01*
X46878Y-29751D01*
X46923Y-29787D01*
X46961Y-29830D01*
X46989Y-29881D01*
X47007Y-29935D01*
X47014Y-29992D01*
X47015Y-30000D01*
X46720Y-29705D02*
X46720Y-30295D01*
X47015Y-50000D02*
X47009Y-50057D01*
X46992Y-50112D01*
X46965Y-50163D01*
X46929Y-50207D01*
X46884Y-50244D01*
X46834Y-50271D01*
X46779Y-50288D01*
X46722Y-50294D01*
X46665Y-50289D01*
X46610Y-50273D01*
X46559Y-50246D01*
X46514Y-50210D01*
X46477Y-50166D01*
X46449Y-50116D01*
X46432Y-50061D01*
X46426Y-50004D01*
X46430Y-49947D01*
X46446Y-49892D01*
X46473Y-49841D01*
X46508Y-49796D01*
X46552Y-49758D01*
X46602Y-49730D01*
X46657Y-49712D01*
X46714Y-49706D01*
X46771Y-49710D01*
X46826Y-49725D01*
X46878Y-49751D01*
X46923Y-49787D01*
X46961Y-49830D01*
X46989Y-49881D01*
X47007Y-49935D01*
X47014Y-49992D01*
X47015Y-50000D01*
X46720Y-49705D02*
X46720Y-50295D01*
X48575Y-30000D02*
X48569Y-30057D01*
X48552Y-30112D01*
X48525Y-30163D01*
X48489Y-30207D01*
X48444Y-30244D01*
X48394Y-30271D01*
X48339Y-30288D01*
X48282Y-30294D01*
X48225Y-30289D01*
X48170Y-30273D01*
X48119Y-30246D01*
X48074Y-30210D01*
X48037Y-30166D01*
X48009Y-30116D01*
X47992Y-30061D01*
X47986Y-30004D01*
X47990Y-29947D01*
X48006Y-29892D01*
X48033Y-29841D01*
X48068Y-29796D01*
X48112Y-29758D01*
X48162Y-29730D01*
X48217Y-29712D01*
X48274Y-29706D01*
X48331Y-29710D01*
X48386Y-29725D01*
X48438Y-29751D01*
X48483Y-29787D01*
X48521Y-29830D01*
X48549Y-29881D01*
X48567Y-29935D01*
X48574Y-29992D01*
X48575Y-30000D01*
X48280Y-29705D02*
X48280Y-30295D01*
X48575Y-50000D02*
X48569Y-50057D01*
X48552Y-50112D01*
X48525Y-50163D01*
X48489Y-50207D01*
X48444Y-50244D01*
X48394Y-50271D01*
X48339Y-50288D01*
X48282Y-50294D01*
X48225Y-50289D01*
X48170Y-50273D01*
X48119Y-50246D01*
X48074Y-50210D01*
X48037Y-50166D01*
X48009Y-50116D01*
X47992Y-50061D01*
X47986Y-50004D01*
X47990Y-49947D01*
X48006Y-49892D01*
X48033Y-49841D01*
X48068Y-49796D01*
X48112Y-49758D01*
X48162Y-49730D01*
X48217Y-49712D01*
X48274Y-49706D01*
X48331Y-49710D01*
X48386Y-49725D01*
X48438Y-49751D01*
X48483Y-49787D01*
X48521Y-49830D01*
X48549Y-49881D01*
X48567Y-49935D01*
X48574Y-49992D01*
X48575Y-50000D01*
X48280Y-49705D02*
X48280Y-50295D01*
X44024Y-49124D02*
X44024Y-48276D01*
X43176Y-48276D01*
X43176Y-49124D01*
X44024Y-49124D01*
X44974Y-31074D02*
X44974Y-30226D01*
X44126Y-30226D01*
X44126Y-31074D01*
X44974Y-31074D01*
X47924Y-40424D02*
X47924Y-39576D01*
X47076Y-39576D01*
X47076Y-40424D01*
X47924Y-40424D01*
G54D12*
X30976Y-58130D02*
X30976Y-57330D01*
X31167Y-57330D01*
X31281Y-57368D01*
X31357Y-57444D01*
X31396Y-57520D01*
X31434Y-57673D01*
X31434Y-57787D01*
X31396Y-57939D01*
X31357Y-58016D01*
X31281Y-58092D01*
X31167Y-58130D01*
X30976Y-58130D01*
X31776Y-58130D02*
X31776Y-57596D01*
X31776Y-57749D02*
X31815Y-57673D01*
X31853Y-57635D01*
X31929Y-57596D01*
X32005Y-57596D01*
X32271Y-58130D02*
X32271Y-57596D01*
X32271Y-57330D02*
X32233Y-57368D01*
X32271Y-57406D01*
X32310Y-57368D01*
X32271Y-57330D01*
X32271Y-57406D01*
X32767Y-58130D02*
X32691Y-58092D01*
X32652Y-58016D01*
X32652Y-57330D01*
X33186Y-58130D02*
X33110Y-58092D01*
X33071Y-58016D01*
X33071Y-57330D01*
X34100Y-58130D02*
X34100Y-57330D01*
X34367Y-57901D01*
X34634Y-57330D01*
X34634Y-58130D01*
X35357Y-58130D02*
X35357Y-57711D01*
X35319Y-57635D01*
X35243Y-57596D01*
X35091Y-57596D01*
X35014Y-57635D01*
X35357Y-58092D02*
X35281Y-58130D01*
X35091Y-58130D01*
X35014Y-58092D01*
X34976Y-58016D01*
X34976Y-57939D01*
X35014Y-57863D01*
X35091Y-57825D01*
X35281Y-57825D01*
X35357Y-57787D01*
X35738Y-57596D02*
X35738Y-58396D01*
X35738Y-57635D02*
X35815Y-57596D01*
X35967Y-57596D01*
X36043Y-57635D01*
X36081Y-57673D01*
X36119Y-57749D01*
X36119Y-57977D01*
X36081Y-58054D01*
X36043Y-58092D01*
X35967Y-58130D01*
X35815Y-58130D01*
X35738Y-58092D01*
X36462Y-58054D02*
X36501Y-58092D01*
X36462Y-58130D01*
X36424Y-58092D01*
X36462Y-58054D01*
X36462Y-58130D01*
X36462Y-57635D02*
X36501Y-57673D01*
X36462Y-57711D01*
X36424Y-57673D01*
X36462Y-57635D01*
X36462Y-57711D01*
X30386Y-59386D02*
X30586Y-59586D01*
X30586Y-59386D02*
X30386Y-59586D01*
X31129Y-59010D02*
X31205Y-59010D01*
X31281Y-59048D01*
X31319Y-59086D01*
X31357Y-59162D01*
X31396Y-59315D01*
X31396Y-59505D01*
X31357Y-59657D01*
X31319Y-59734D01*
X31281Y-59772D01*
X31205Y-59810D01*
X31129Y-59810D01*
X31053Y-59772D01*
X31015Y-59734D01*
X30976Y-59657D01*
X30938Y-59505D01*
X30938Y-59315D01*
X30976Y-59162D01*
X31015Y-59086D01*
X31053Y-59048D01*
X31129Y-59010D01*
X31738Y-59734D02*
X31777Y-59772D01*
X31738Y-59810D01*
X31700Y-59772D01*
X31738Y-59734D01*
X31738Y-59810D01*
X32272Y-59010D02*
X32348Y-59010D01*
X32424Y-59048D01*
X32462Y-59086D01*
X32500Y-59162D01*
X32539Y-59315D01*
X32539Y-59505D01*
X32500Y-59657D01*
X32462Y-59734D01*
X32424Y-59772D01*
X32348Y-59810D01*
X32272Y-59810D01*
X32196Y-59772D01*
X32158Y-59734D01*
X32119Y-59657D01*
X32081Y-59505D01*
X32081Y-59315D01*
X32119Y-59162D01*
X32158Y-59086D01*
X32196Y-59048D01*
X32272Y-59010D01*
X32843Y-59086D02*
X32881Y-59048D01*
X32958Y-59010D01*
X33148Y-59010D01*
X33224Y-59048D01*
X33262Y-59086D01*
X33301Y-59162D01*
X33301Y-59238D01*
X33262Y-59353D01*
X32805Y-59810D01*
X33301Y-59810D01*
X33796Y-59010D02*
X33872Y-59010D01*
X33948Y-59048D01*
X33986Y-59086D01*
X34024Y-59162D01*
X34063Y-59315D01*
X34063Y-59505D01*
X34024Y-59657D01*
X33986Y-59734D01*
X33948Y-59772D01*
X33872Y-59810D01*
X33796Y-59810D01*
X33720Y-59772D01*
X33682Y-59734D01*
X33643Y-59657D01*
X33605Y-59505D01*
X33605Y-59315D01*
X33643Y-59162D01*
X33682Y-59086D01*
X33720Y-59048D01*
X33796Y-59010D01*
X34367Y-59010D02*
X34367Y-59162D01*
X34672Y-59010D02*
X34672Y-59162D01*
X36197Y-58972D02*
X35511Y-60000D01*
X37226Y-59010D02*
X37302Y-59010D01*
X37378Y-59048D01*
X37416Y-59086D01*
X37454Y-59162D01*
X37493Y-59315D01*
X37493Y-59505D01*
X37454Y-59657D01*
X37416Y-59734D01*
X37378Y-59772D01*
X37302Y-59810D01*
X37226Y-59810D01*
X37150Y-59772D01*
X37112Y-59734D01*
X37073Y-59657D01*
X37035Y-59505D01*
X37035Y-59315D01*
X37073Y-59162D01*
X37112Y-59086D01*
X37150Y-59048D01*
X37226Y-59010D01*
X37835Y-59734D02*
X37874Y-59772D01*
X37835Y-59810D01*
X37797Y-59772D01*
X37835Y-59734D01*
X37835Y-59810D01*
X38597Y-59010D02*
X38216Y-59010D01*
X38178Y-59391D01*
X38216Y-59353D01*
X38293Y-59315D01*
X38483Y-59315D01*
X38559Y-59353D01*
X38597Y-59391D01*
X38636Y-59467D01*
X38636Y-59657D01*
X38597Y-59734D01*
X38559Y-59772D01*
X38483Y-59810D01*
X38293Y-59810D01*
X38216Y-59772D01*
X38178Y-59734D01*
X39398Y-59810D02*
X38940Y-59810D01*
X39169Y-59810D02*
X39169Y-59010D01*
X39093Y-59124D01*
X39017Y-59200D01*
X38940Y-59238D01*
X39740Y-59810D02*
X39740Y-59276D01*
X39740Y-59353D02*
X39779Y-59315D01*
X39855Y-59276D01*
X39969Y-59276D01*
X40045Y-59315D01*
X40083Y-59391D01*
X40083Y-59810D01*
X40083Y-59391D02*
X40121Y-59315D01*
X40198Y-59276D01*
X40312Y-59276D01*
X40388Y-59315D01*
X40426Y-59391D01*
X40426Y-59810D01*
X40807Y-59810D02*
X40807Y-59276D01*
X40807Y-59353D02*
X40846Y-59315D01*
X40922Y-59276D01*
X41036Y-59276D01*
X41112Y-59315D01*
X41150Y-59391D01*
X41150Y-59810D01*
X41150Y-59391D02*
X41188Y-59315D01*
X41265Y-59276D01*
X41379Y-59276D01*
X41455Y-59315D01*
X41493Y-59391D01*
X41493Y-59810D01*
X42713Y-60115D02*
X42675Y-60076D01*
X42599Y-59962D01*
X42561Y-59886D01*
X42523Y-59772D01*
X42484Y-59581D01*
X42484Y-59429D01*
X42523Y-59238D01*
X42561Y-59124D01*
X42599Y-59048D01*
X42675Y-58934D01*
X42713Y-58896D01*
X42941Y-59010D02*
X43437Y-59010D01*
X43170Y-59315D01*
X43284Y-59315D01*
X43360Y-59353D01*
X43398Y-59391D01*
X43437Y-59467D01*
X43437Y-59657D01*
X43398Y-59734D01*
X43360Y-59772D01*
X43284Y-59810D01*
X43056Y-59810D01*
X42979Y-59772D01*
X42941Y-59734D01*
X44389Y-59810D02*
X44389Y-59010D01*
X44732Y-59810D02*
X44732Y-59391D01*
X44694Y-59315D01*
X44618Y-59276D01*
X44504Y-59276D01*
X44428Y-59315D01*
X44389Y-59353D01*
X45228Y-59810D02*
X45152Y-59772D01*
X45113Y-59734D01*
X45075Y-59657D01*
X45075Y-59429D01*
X45113Y-59353D01*
X45152Y-59315D01*
X45228Y-59276D01*
X45342Y-59276D01*
X45418Y-59315D01*
X45456Y-59353D01*
X45494Y-59429D01*
X45494Y-59657D01*
X45456Y-59734D01*
X45418Y-59772D01*
X45342Y-59810D01*
X45228Y-59810D01*
X45952Y-59810D02*
X45876Y-59772D01*
X45837Y-59696D01*
X45837Y-59010D01*
X46561Y-59772D02*
X46485Y-59810D01*
X46333Y-59810D01*
X46256Y-59772D01*
X46218Y-59696D01*
X46218Y-59391D01*
X46256Y-59315D01*
X46333Y-59276D01*
X46485Y-59276D01*
X46561Y-59315D01*
X46599Y-59391D01*
X46599Y-59467D01*
X46218Y-59543D01*
X46904Y-59772D02*
X46981Y-59810D01*
X47133Y-59810D01*
X47209Y-59772D01*
X47247Y-59696D01*
X47247Y-59657D01*
X47209Y-59581D01*
X47133Y-59543D01*
X47019Y-59543D01*
X46942Y-59505D01*
X46904Y-59429D01*
X46904Y-59391D01*
X46942Y-59315D01*
X47019Y-59276D01*
X47133Y-59276D01*
X47209Y-59315D01*
X47514Y-60115D02*
X47552Y-60076D01*
X47629Y-59962D01*
X47667Y-59886D01*
X47705Y-59772D01*
X47743Y-59581D01*
X47743Y-59429D01*
X47705Y-59238D01*
X47667Y-59124D01*
X47629Y-59048D01*
X47552Y-58934D01*
X47514Y-58896D01*
G54D10*
X30586Y-60542D02*
X30583Y-60569D01*
X30575Y-60595D01*
X30562Y-60619D01*
X30545Y-60640D01*
X30524Y-60658D01*
X30500Y-60671D01*
X30474Y-60679D01*
X30446Y-60681D01*
X30420Y-60679D01*
X30394Y-60671D01*
X30370Y-60659D01*
X30349Y-60642D01*
X30331Y-60621D01*
X30318Y-60597D01*
X30310Y-60571D01*
X30307Y-60543D01*
X30309Y-60517D01*
X30316Y-60491D01*
X30329Y-60467D01*
X30346Y-60445D01*
X30367Y-60428D01*
X30390Y-60414D01*
X30416Y-60406D01*
X30444Y-60403D01*
X30470Y-60405D01*
X30496Y-60412D01*
X30521Y-60424D01*
X30542Y-60441D01*
X30560Y-60462D01*
X30573Y-60486D01*
X30582Y-60511D01*
X30585Y-60539D01*
X30586Y-60542D01*
G54D12*
X31129Y-60066D02*
X31205Y-60066D01*
X31281Y-60104D01*
X31319Y-60142D01*
X31357Y-60218D01*
X31396Y-60371D01*
X31396Y-60561D01*
X31357Y-60713D01*
X31319Y-60790D01*
X31281Y-60828D01*
X31205Y-60866D01*
X31129Y-60866D01*
X31053Y-60828D01*
X31015Y-60790D01*
X30976Y-60713D01*
X30938Y-60561D01*
X30938Y-60371D01*
X30976Y-60218D01*
X31015Y-60142D01*
X31053Y-60104D01*
X31129Y-60066D01*
X31738Y-60790D02*
X31777Y-60828D01*
X31738Y-60866D01*
X31700Y-60828D01*
X31738Y-60790D01*
X31738Y-60866D01*
X32272Y-60066D02*
X32348Y-60066D01*
X32424Y-60104D01*
X32462Y-60142D01*
X32500Y-60218D01*
X32539Y-60371D01*
X32539Y-60561D01*
X32500Y-60713D01*
X32462Y-60790D01*
X32424Y-60828D01*
X32348Y-60866D01*
X32272Y-60866D01*
X32196Y-60828D01*
X32158Y-60790D01*
X32119Y-60713D01*
X32081Y-60561D01*
X32081Y-60371D01*
X32119Y-60218D01*
X32158Y-60142D01*
X32196Y-60104D01*
X32272Y-60066D01*
X32843Y-60142D02*
X32881Y-60104D01*
X32958Y-60066D01*
X33148Y-60066D01*
X33224Y-60104D01*
X33262Y-60142D01*
X33301Y-60218D01*
X33301Y-60294D01*
X33262Y-60409D01*
X32805Y-60866D01*
X33301Y-60866D01*
X33758Y-60409D02*
X33682Y-60371D01*
X33643Y-60332D01*
X33605Y-60256D01*
X33605Y-60218D01*
X33643Y-60142D01*
X33682Y-60104D01*
X33758Y-60066D01*
X33910Y-60066D01*
X33986Y-60104D01*
X34024Y-60142D01*
X34063Y-60218D01*
X34063Y-60256D01*
X34024Y-60332D01*
X33986Y-60371D01*
X33910Y-60409D01*
X33758Y-60409D01*
X33682Y-60447D01*
X33643Y-60485D01*
X33605Y-60561D01*
X33605Y-60713D01*
X33643Y-60790D01*
X33682Y-60828D01*
X33758Y-60866D01*
X33910Y-60866D01*
X33986Y-60828D01*
X34024Y-60790D01*
X34063Y-60713D01*
X34063Y-60561D01*
X34024Y-60485D01*
X33986Y-60447D01*
X33910Y-60409D01*
X34367Y-60066D02*
X34367Y-60218D01*
X34672Y-60066D02*
X34672Y-60218D01*
X36197Y-60028D02*
X35511Y-61056D01*
X37226Y-60066D02*
X37302Y-60066D01*
X37378Y-60104D01*
X37416Y-60142D01*
X37454Y-60218D01*
X37493Y-60371D01*
X37493Y-60561D01*
X37454Y-60713D01*
X37416Y-60790D01*
X37378Y-60828D01*
X37302Y-60866D01*
X37226Y-60866D01*
X37150Y-60828D01*
X37112Y-60790D01*
X37073Y-60713D01*
X37035Y-60561D01*
X37035Y-60371D01*
X37073Y-60218D01*
X37112Y-60142D01*
X37150Y-60104D01*
X37226Y-60066D01*
X37835Y-60790D02*
X37874Y-60828D01*
X37835Y-60866D01*
X37797Y-60828D01*
X37835Y-60790D01*
X37835Y-60866D01*
X38140Y-60066D02*
X38674Y-60066D01*
X38331Y-60866D01*
X39398Y-60866D02*
X38940Y-60866D01*
X39169Y-60866D02*
X39169Y-60066D01*
X39093Y-60180D01*
X39017Y-60256D01*
X38940Y-60294D01*
X39740Y-60866D02*
X39740Y-60332D01*
X39740Y-60409D02*
X39779Y-60371D01*
X39855Y-60332D01*
X39969Y-60332D01*
X40045Y-60371D01*
X40083Y-60447D01*
X40083Y-60866D01*
X40083Y-60447D02*
X40121Y-60371D01*
X40198Y-60332D01*
X40312Y-60332D01*
X40388Y-60371D01*
X40426Y-60447D01*
X40426Y-60866D01*
X40807Y-60866D02*
X40807Y-60332D01*
X40807Y-60409D02*
X40846Y-60371D01*
X40922Y-60332D01*
X41036Y-60332D01*
X41112Y-60371D01*
X41150Y-60447D01*
X41150Y-60866D01*
X41150Y-60447D02*
X41188Y-60371D01*
X41265Y-60332D01*
X41379Y-60332D01*
X41455Y-60371D01*
X41493Y-60447D01*
X41493Y-60866D01*
X42713Y-61171D02*
X42675Y-61132D01*
X42599Y-61018D01*
X42561Y-60942D01*
X42523Y-60828D01*
X42484Y-60637D01*
X42484Y-60485D01*
X42523Y-60294D01*
X42561Y-60180D01*
X42599Y-60104D01*
X42675Y-59990D01*
X42713Y-59952D01*
X43437Y-60866D02*
X42979Y-60866D01*
X43208Y-60866D02*
X43208Y-60066D01*
X43132Y-60180D01*
X43056Y-60256D01*
X42979Y-60294D01*
X43741Y-60142D02*
X43779Y-60104D01*
X43856Y-60066D01*
X44046Y-60066D01*
X44122Y-60104D01*
X44160Y-60142D01*
X44199Y-60218D01*
X44199Y-60294D01*
X44160Y-60409D01*
X43703Y-60866D01*
X44199Y-60866D01*
X45151Y-60866D02*
X45151Y-60066D01*
X45494Y-60866D02*
X45494Y-60447D01*
X45456Y-60371D01*
X45380Y-60332D01*
X45266Y-60332D01*
X45190Y-60371D01*
X45151Y-60409D01*
X45990Y-60866D02*
X45914Y-60828D01*
X45875Y-60790D01*
X45837Y-60713D01*
X45837Y-60485D01*
X45875Y-60409D01*
X45914Y-60371D01*
X45990Y-60332D01*
X46104Y-60332D01*
X46180Y-60371D01*
X46218Y-60409D01*
X46256Y-60485D01*
X46256Y-60713D01*
X46218Y-60790D01*
X46180Y-60828D01*
X46104Y-60866D01*
X45990Y-60866D01*
X46714Y-60866D02*
X46638Y-60828D01*
X46599Y-60752D01*
X46599Y-60066D01*
X47323Y-60828D02*
X47247Y-60866D01*
X47095Y-60866D01*
X47018Y-60828D01*
X46980Y-60752D01*
X46980Y-60447D01*
X47018Y-60371D01*
X47095Y-60332D01*
X47247Y-60332D01*
X47323Y-60371D01*
X47361Y-60447D01*
X47361Y-60523D01*
X46980Y-60599D01*
X47666Y-60828D02*
X47743Y-60866D01*
X47895Y-60866D01*
X47971Y-60828D01*
X48009Y-60752D01*
X48009Y-60713D01*
X47971Y-60637D01*
X47895Y-60599D01*
X47781Y-60599D01*
X47704Y-60561D01*
X47666Y-60485D01*
X47666Y-60447D01*
X47704Y-60371D01*
X47781Y-60332D01*
X47895Y-60332D01*
X47971Y-60371D01*
X48276Y-61171D02*
X48314Y-61132D01*
X48391Y-61018D01*
X48429Y-60942D01*
X48467Y-60828D01*
X48505Y-60637D01*
X48505Y-60485D01*
X48467Y-60294D01*
X48429Y-60180D01*
X48391Y-60104D01*
X48314Y-59990D01*
X48276Y-59952D01*
X30426Y-61438D02*
X30426Y-61758D01*
X30586Y-61598D02*
X30266Y-61598D01*
X31129Y-61122D02*
X31205Y-61122D01*
X31281Y-61160D01*
X31319Y-61198D01*
X31357Y-61274D01*
X31396Y-61427D01*
X31396Y-61617D01*
X31357Y-61769D01*
X31319Y-61846D01*
X31281Y-61884D01*
X31205Y-61922D01*
X31129Y-61922D01*
X31053Y-61884D01*
X31015Y-61846D01*
X30976Y-61769D01*
X30938Y-61617D01*
X30938Y-61427D01*
X30976Y-61274D01*
X31015Y-61198D01*
X31053Y-61160D01*
X31129Y-61122D01*
X31738Y-61846D02*
X31777Y-61884D01*
X31738Y-61922D01*
X31700Y-61884D01*
X31738Y-61846D01*
X31738Y-61922D01*
X32272Y-61122D02*
X32348Y-61122D01*
X32424Y-61160D01*
X32462Y-61198D01*
X32500Y-61274D01*
X32539Y-61427D01*
X32539Y-61617D01*
X32500Y-61769D01*
X32462Y-61846D01*
X32424Y-61884D01*
X32348Y-61922D01*
X32272Y-61922D01*
X32196Y-61884D01*
X32158Y-61846D01*
X32119Y-61769D01*
X32081Y-61617D01*
X32081Y-61427D01*
X32119Y-61274D01*
X32158Y-61198D01*
X32196Y-61160D01*
X32272Y-61122D01*
X32805Y-61122D02*
X33301Y-61122D01*
X33034Y-61427D01*
X33148Y-61427D01*
X33224Y-61465D01*
X33262Y-61503D01*
X33301Y-61579D01*
X33301Y-61769D01*
X33262Y-61846D01*
X33224Y-61884D01*
X33148Y-61922D01*
X32920Y-61922D01*
X32843Y-61884D01*
X32805Y-61846D01*
X33605Y-61198D02*
X33643Y-61160D01*
X33720Y-61122D01*
X33910Y-61122D01*
X33986Y-61160D01*
X34024Y-61198D01*
X34063Y-61274D01*
X34063Y-61350D01*
X34024Y-61465D01*
X33567Y-61922D01*
X34063Y-61922D01*
X34367Y-61122D02*
X34367Y-61274D01*
X34672Y-61122D02*
X34672Y-61274D01*
X36197Y-61084D02*
X35511Y-62112D01*
X37226Y-61122D02*
X37302Y-61122D01*
X37378Y-61160D01*
X37416Y-61198D01*
X37454Y-61274D01*
X37493Y-61427D01*
X37493Y-61617D01*
X37454Y-61769D01*
X37416Y-61846D01*
X37378Y-61884D01*
X37302Y-61922D01*
X37226Y-61922D01*
X37150Y-61884D01*
X37112Y-61846D01*
X37073Y-61769D01*
X37035Y-61617D01*
X37035Y-61427D01*
X37073Y-61274D01*
X37112Y-61198D01*
X37150Y-61160D01*
X37226Y-61122D01*
X37835Y-61846D02*
X37874Y-61884D01*
X37835Y-61922D01*
X37797Y-61884D01*
X37835Y-61846D01*
X37835Y-61922D01*
X38331Y-61465D02*
X38255Y-61427D01*
X38216Y-61388D01*
X38178Y-61312D01*
X38178Y-61274D01*
X38216Y-61198D01*
X38255Y-61160D01*
X38331Y-61122D01*
X38483Y-61122D01*
X38559Y-61160D01*
X38597Y-61198D01*
X38636Y-61274D01*
X38636Y-61312D01*
X38597Y-61388D01*
X38559Y-61427D01*
X38483Y-61465D01*
X38331Y-61465D01*
X38255Y-61503D01*
X38216Y-61541D01*
X38178Y-61617D01*
X38178Y-61769D01*
X38216Y-61846D01*
X38255Y-61884D01*
X38331Y-61922D01*
X38483Y-61922D01*
X38559Y-61884D01*
X38597Y-61846D01*
X38636Y-61769D01*
X38636Y-61617D01*
X38597Y-61541D01*
X38559Y-61503D01*
X38483Y-61465D01*
X39398Y-61922D02*
X38940Y-61922D01*
X39169Y-61922D02*
X39169Y-61122D01*
X39093Y-61236D01*
X39017Y-61312D01*
X38940Y-61350D01*
X39740Y-61922D02*
X39740Y-61388D01*
X39740Y-61465D02*
X39779Y-61427D01*
X39855Y-61388D01*
X39969Y-61388D01*
X40045Y-61427D01*
X40083Y-61503D01*
X40083Y-61922D01*
X40083Y-61503D02*
X40121Y-61427D01*
X40198Y-61388D01*
X40312Y-61388D01*
X40388Y-61427D01*
X40426Y-61503D01*
X40426Y-61922D01*
X40807Y-61922D02*
X40807Y-61388D01*
X40807Y-61465D02*
X40846Y-61427D01*
X40922Y-61388D01*
X41036Y-61388D01*
X41112Y-61427D01*
X41150Y-61503D01*
X41150Y-61922D01*
X41150Y-61503D02*
X41188Y-61427D01*
X41265Y-61388D01*
X41379Y-61388D01*
X41455Y-61427D01*
X41493Y-61503D01*
X41493Y-61922D01*
X42713Y-62227D02*
X42675Y-62188D01*
X42599Y-62074D01*
X42561Y-61998D01*
X42523Y-61884D01*
X42484Y-61693D01*
X42484Y-61541D01*
X42523Y-61350D01*
X42561Y-61236D01*
X42599Y-61160D01*
X42675Y-61046D01*
X42713Y-61008D01*
X43437Y-61922D02*
X42979Y-61922D01*
X43208Y-61922D02*
X43208Y-61122D01*
X43132Y-61236D01*
X43056Y-61312D01*
X42979Y-61350D01*
X43932Y-61122D02*
X44008Y-61122D01*
X44084Y-61160D01*
X44122Y-61198D01*
X44160Y-61274D01*
X44199Y-61427D01*
X44199Y-61617D01*
X44160Y-61769D01*
X44122Y-61846D01*
X44084Y-61884D01*
X44008Y-61922D01*
X43932Y-61922D01*
X43856Y-61884D01*
X43818Y-61846D01*
X43779Y-61769D01*
X43741Y-61617D01*
X43741Y-61427D01*
X43779Y-61274D01*
X43818Y-61198D01*
X43856Y-61160D01*
X43932Y-61122D01*
X44961Y-61922D02*
X44503Y-61922D01*
X44732Y-61922D02*
X44732Y-61122D01*
X44656Y-61236D01*
X44580Y-61312D01*
X44503Y-61350D01*
X45913Y-61922D02*
X45913Y-61122D01*
X46256Y-61922D02*
X46256Y-61503D01*
X46218Y-61427D01*
X46142Y-61388D01*
X46028Y-61388D01*
X45952Y-61427D01*
X45913Y-61465D01*
X46752Y-61922D02*
X46676Y-61884D01*
X46637Y-61846D01*
X46599Y-61769D01*
X46599Y-61541D01*
X46637Y-61465D01*
X46676Y-61427D01*
X46752Y-61388D01*
X46866Y-61388D01*
X46942Y-61427D01*
X46980Y-61465D01*
X47018Y-61541D01*
X47018Y-61769D01*
X46980Y-61846D01*
X46942Y-61884D01*
X46866Y-61922D01*
X46752Y-61922D01*
X47476Y-61922D02*
X47400Y-61884D01*
X47361Y-61808D01*
X47361Y-61122D01*
X48085Y-61884D02*
X48009Y-61922D01*
X47857Y-61922D01*
X47780Y-61884D01*
X47742Y-61808D01*
X47742Y-61503D01*
X47780Y-61427D01*
X47857Y-61388D01*
X48009Y-61388D01*
X48085Y-61427D01*
X48123Y-61503D01*
X48123Y-61579D01*
X47742Y-61655D01*
X48428Y-61884D02*
X48505Y-61922D01*
X48657Y-61922D01*
X48733Y-61884D01*
X48771Y-61808D01*
X48771Y-61769D01*
X48733Y-61693D01*
X48657Y-61655D01*
X48543Y-61655D01*
X48466Y-61617D01*
X48428Y-61541D01*
X48428Y-61503D01*
X48466Y-61427D01*
X48543Y-61388D01*
X48657Y-61388D01*
X48733Y-61427D01*
X49038Y-62227D02*
X49076Y-62188D01*
X49153Y-62074D01*
X49191Y-61998D01*
X49229Y-61884D01*
X49267Y-61693D01*
X49267Y-61541D01*
X49229Y-61350D01*
X49191Y-61236D01*
X49153Y-61160D01*
X49076Y-61046D01*
X49038Y-61008D01*
G54D10*
X30586Y-62654D02*
X30582Y-62687D01*
X30572Y-62720D01*
X30556Y-62750D01*
X30535Y-62777D01*
X30508Y-62799D01*
X30478Y-62815D01*
X30446Y-62825D01*
X30412Y-62828D01*
X30379Y-62825D01*
X30346Y-62816D01*
X30316Y-62800D01*
X30289Y-62779D01*
X30267Y-62752D01*
X30251Y-62722D01*
X30240Y-62690D01*
X30237Y-62656D01*
X30239Y-62623D01*
X30249Y-62590D01*
X30264Y-62560D01*
X30286Y-62533D01*
X30312Y-62511D01*
X30341Y-62494D01*
X30374Y-62484D01*
X30408Y-62480D01*
X30441Y-62482D01*
X30474Y-62491D01*
X30504Y-62507D01*
X30531Y-62528D01*
X30554Y-62554D01*
X30570Y-62583D01*
X30581Y-62616D01*
X30585Y-62650D01*
X30586Y-62654D01*
X30236Y-62479D02*
X30586Y-62829D01*
X30586Y-62479D02*
X30236Y-62829D01*
G54D12*
X31129Y-62178D02*
X31205Y-62178D01*
X31281Y-62216D01*
X31319Y-62254D01*
X31357Y-62330D01*
X31396Y-62483D01*
X31396Y-62673D01*
X31357Y-62825D01*
X31319Y-62902D01*
X31281Y-62940D01*
X31205Y-62978D01*
X31129Y-62978D01*
X31053Y-62940D01*
X31015Y-62902D01*
X30976Y-62825D01*
X30938Y-62673D01*
X30938Y-62483D01*
X30976Y-62330D01*
X31015Y-62254D01*
X31053Y-62216D01*
X31129Y-62178D01*
X31738Y-62902D02*
X31777Y-62940D01*
X31738Y-62978D01*
X31700Y-62940D01*
X31738Y-62902D01*
X31738Y-62978D01*
X32272Y-62178D02*
X32348Y-62178D01*
X32424Y-62216D01*
X32462Y-62254D01*
X32500Y-62330D01*
X32539Y-62483D01*
X32539Y-62673D01*
X32500Y-62825D01*
X32462Y-62902D01*
X32424Y-62940D01*
X32348Y-62978D01*
X32272Y-62978D01*
X32196Y-62940D01*
X32158Y-62902D01*
X32119Y-62825D01*
X32081Y-62673D01*
X32081Y-62483D01*
X32119Y-62330D01*
X32158Y-62254D01*
X32196Y-62216D01*
X32272Y-62178D01*
X32805Y-62178D02*
X33301Y-62178D01*
X33034Y-62483D01*
X33148Y-62483D01*
X33224Y-62521D01*
X33262Y-62559D01*
X33301Y-62635D01*
X33301Y-62825D01*
X33262Y-62902D01*
X33224Y-62940D01*
X33148Y-62978D01*
X32920Y-62978D01*
X32843Y-62940D01*
X32805Y-62902D01*
X34024Y-62178D02*
X33643Y-62178D01*
X33605Y-62559D01*
X33643Y-62521D01*
X33720Y-62483D01*
X33910Y-62483D01*
X33986Y-62521D01*
X34024Y-62559D01*
X34063Y-62635D01*
X34063Y-62825D01*
X34024Y-62902D01*
X33986Y-62940D01*
X33910Y-62978D01*
X33720Y-62978D01*
X33643Y-62940D01*
X33605Y-62902D01*
X34367Y-62178D02*
X34367Y-62330D01*
X34672Y-62178D02*
X34672Y-62330D01*
X36197Y-62140D02*
X35511Y-63168D01*
X37226Y-62178D02*
X37302Y-62178D01*
X37378Y-62216D01*
X37416Y-62254D01*
X37454Y-62330D01*
X37493Y-62483D01*
X37493Y-62673D01*
X37454Y-62825D01*
X37416Y-62902D01*
X37378Y-62940D01*
X37302Y-62978D01*
X37226Y-62978D01*
X37150Y-62940D01*
X37112Y-62902D01*
X37073Y-62825D01*
X37035Y-62673D01*
X37035Y-62483D01*
X37073Y-62330D01*
X37112Y-62254D01*
X37150Y-62216D01*
X37226Y-62178D01*
X37835Y-62902D02*
X37874Y-62940D01*
X37835Y-62978D01*
X37797Y-62940D01*
X37835Y-62902D01*
X37835Y-62978D01*
X38331Y-62521D02*
X38255Y-62483D01*
X38216Y-62444D01*
X38178Y-62368D01*
X38178Y-62330D01*
X38216Y-62254D01*
X38255Y-62216D01*
X38331Y-62178D01*
X38483Y-62178D01*
X38559Y-62216D01*
X38597Y-62254D01*
X38636Y-62330D01*
X38636Y-62368D01*
X38597Y-62444D01*
X38559Y-62483D01*
X38483Y-62521D01*
X38331Y-62521D01*
X38255Y-62559D01*
X38216Y-62597D01*
X38178Y-62673D01*
X38178Y-62825D01*
X38216Y-62902D01*
X38255Y-62940D01*
X38331Y-62978D01*
X38483Y-62978D01*
X38559Y-62940D01*
X38597Y-62902D01*
X38636Y-62825D01*
X38636Y-62673D01*
X38597Y-62597D01*
X38559Y-62559D01*
X38483Y-62521D01*
X39017Y-62978D02*
X39169Y-62978D01*
X39245Y-62940D01*
X39283Y-62902D01*
X39359Y-62787D01*
X39398Y-62635D01*
X39398Y-62330D01*
X39359Y-62254D01*
X39321Y-62216D01*
X39245Y-62178D01*
X39093Y-62178D01*
X39017Y-62216D01*
X38978Y-62254D01*
X38940Y-62330D01*
X38940Y-62521D01*
X38978Y-62597D01*
X39017Y-62635D01*
X39093Y-62673D01*
X39245Y-62673D01*
X39321Y-62635D01*
X39359Y-62597D01*
X39398Y-62521D01*
X39740Y-62978D02*
X39740Y-62444D01*
X39740Y-62521D02*
X39779Y-62483D01*
X39855Y-62444D01*
X39969Y-62444D01*
X40045Y-62483D01*
X40083Y-62559D01*
X40083Y-62978D01*
X40083Y-62559D02*
X40121Y-62483D01*
X40198Y-62444D01*
X40312Y-62444D01*
X40388Y-62483D01*
X40426Y-62559D01*
X40426Y-62978D01*
X40807Y-62978D02*
X40807Y-62444D01*
X40807Y-62521D02*
X40846Y-62483D01*
X40922Y-62444D01*
X41036Y-62444D01*
X41112Y-62483D01*
X41150Y-62559D01*
X41150Y-62978D01*
X41150Y-62559D02*
X41188Y-62483D01*
X41265Y-62444D01*
X41379Y-62444D01*
X41455Y-62483D01*
X41493Y-62559D01*
X41493Y-62978D01*
X42713Y-63283D02*
X42675Y-63244D01*
X42599Y-63130D01*
X42561Y-63054D01*
X42523Y-62940D01*
X42484Y-62749D01*
X42484Y-62597D01*
X42523Y-62406D01*
X42561Y-62292D01*
X42599Y-62216D01*
X42675Y-62102D01*
X42713Y-62064D01*
X42941Y-62178D02*
X43437Y-62178D01*
X43170Y-62483D01*
X43284Y-62483D01*
X43360Y-62521D01*
X43398Y-62559D01*
X43437Y-62635D01*
X43437Y-62825D01*
X43398Y-62902D01*
X43360Y-62940D01*
X43284Y-62978D01*
X43056Y-62978D01*
X42979Y-62940D01*
X42941Y-62902D01*
X44122Y-62444D02*
X44122Y-62978D01*
X43932Y-62140D02*
X43741Y-62711D01*
X44237Y-62711D01*
X45151Y-62978D02*
X45151Y-62178D01*
X45494Y-62978D02*
X45494Y-62559D01*
X45456Y-62483D01*
X45380Y-62444D01*
X45266Y-62444D01*
X45190Y-62483D01*
X45151Y-62521D01*
X45990Y-62978D02*
X45914Y-62940D01*
X45875Y-62902D01*
X45837Y-62825D01*
X45837Y-62597D01*
X45875Y-62521D01*
X45914Y-62483D01*
X45990Y-62444D01*
X46104Y-62444D01*
X46180Y-62483D01*
X46218Y-62521D01*
X46256Y-62597D01*
X46256Y-62825D01*
X46218Y-62902D01*
X46180Y-62940D01*
X46104Y-62978D01*
X45990Y-62978D01*
X46714Y-62978D02*
X46638Y-62940D01*
X46599Y-62864D01*
X46599Y-62178D01*
X47323Y-62940D02*
X47247Y-62978D01*
X47095Y-62978D01*
X47018Y-62940D01*
X46980Y-62864D01*
X46980Y-62559D01*
X47018Y-62483D01*
X47095Y-62444D01*
X47247Y-62444D01*
X47323Y-62483D01*
X47361Y-62559D01*
X47361Y-62635D01*
X46980Y-62711D01*
X47666Y-62940D02*
X47743Y-62978D01*
X47895Y-62978D01*
X47971Y-62940D01*
X48009Y-62864D01*
X48009Y-62825D01*
X47971Y-62749D01*
X47895Y-62711D01*
X47781Y-62711D01*
X47704Y-62673D01*
X47666Y-62597D01*
X47666Y-62559D01*
X47704Y-62483D01*
X47781Y-62444D01*
X47895Y-62444D01*
X47971Y-62483D01*
X48276Y-63283D02*
X48314Y-63244D01*
X48391Y-63130D01*
X48429Y-63054D01*
X48467Y-62940D01*
X48505Y-62749D01*
X48505Y-62597D01*
X48467Y-62406D01*
X48429Y-62292D01*
X48391Y-62216D01*
X48314Y-62102D01*
X48276Y-62064D01*
G54D10*
X30586Y-63710D02*
X30581Y-63760D01*
X30566Y-63809D01*
X30542Y-63853D01*
X30510Y-63893D01*
X30471Y-63925D01*
X30426Y-63949D01*
X30378Y-63964D01*
X30327Y-63969D01*
X30278Y-63965D01*
X30229Y-63951D01*
X30184Y-63927D01*
X30145Y-63895D01*
X30112Y-63856D01*
X30088Y-63812D01*
X30072Y-63764D01*
X30067Y-63713D01*
X30071Y-63664D01*
X30085Y-63615D01*
X30108Y-63570D01*
X30139Y-63530D01*
X30178Y-63497D01*
X30222Y-63472D01*
X30271Y-63457D01*
X30321Y-63451D01*
X30371Y-63454D01*
X30420Y-63468D01*
X30465Y-63491D01*
X30505Y-63522D01*
X30538Y-63561D01*
X30563Y-63605D01*
X30579Y-63653D01*
X30585Y-63703D01*
X30586Y-63710D01*
X30066Y-63710D02*
X30586Y-63710D01*
G54D12*
X31129Y-63234D02*
X31205Y-63234D01*
X31281Y-63272D01*
X31319Y-63310D01*
X31357Y-63386D01*
X31396Y-63539D01*
X31396Y-63729D01*
X31357Y-63881D01*
X31319Y-63958D01*
X31281Y-63996D01*
X31205Y-64034D01*
X31129Y-64034D01*
X31053Y-63996D01*
X31015Y-63958D01*
X30976Y-63881D01*
X30938Y-63729D01*
X30938Y-63539D01*
X30976Y-63386D01*
X31015Y-63310D01*
X31053Y-63272D01*
X31129Y-63234D01*
X31738Y-63958D02*
X31777Y-63996D01*
X31738Y-64034D01*
X31700Y-63996D01*
X31738Y-63958D01*
X31738Y-64034D01*
X32272Y-63234D02*
X32348Y-63234D01*
X32424Y-63272D01*
X32462Y-63310D01*
X32500Y-63386D01*
X32539Y-63539D01*
X32539Y-63729D01*
X32500Y-63881D01*
X32462Y-63958D01*
X32424Y-63996D01*
X32348Y-64034D01*
X32272Y-64034D01*
X32196Y-63996D01*
X32158Y-63958D01*
X32119Y-63881D01*
X32081Y-63729D01*
X32081Y-63539D01*
X32119Y-63386D01*
X32158Y-63310D01*
X32196Y-63272D01*
X32272Y-63234D01*
X33262Y-63234D02*
X32881Y-63234D01*
X32843Y-63615D01*
X32881Y-63577D01*
X32958Y-63539D01*
X33148Y-63539D01*
X33224Y-63577D01*
X33262Y-63615D01*
X33301Y-63691D01*
X33301Y-63881D01*
X33262Y-63958D01*
X33224Y-63996D01*
X33148Y-64034D01*
X32958Y-64034D01*
X32881Y-63996D01*
X32843Y-63958D01*
X33605Y-63310D02*
X33643Y-63272D01*
X33720Y-63234D01*
X33910Y-63234D01*
X33986Y-63272D01*
X34024Y-63310D01*
X34063Y-63386D01*
X34063Y-63462D01*
X34024Y-63577D01*
X33567Y-64034D01*
X34063Y-64034D01*
X34367Y-63234D02*
X34367Y-63386D01*
X34672Y-63234D02*
X34672Y-63386D01*
X36197Y-63196D02*
X35511Y-64224D01*
X37493Y-64034D02*
X37035Y-64034D01*
X37264Y-64034D02*
X37264Y-63234D01*
X37188Y-63348D01*
X37112Y-63424D01*
X37035Y-63462D01*
X37835Y-63958D02*
X37874Y-63996D01*
X37835Y-64034D01*
X37797Y-63996D01*
X37835Y-63958D01*
X37835Y-64034D01*
X38140Y-63234D02*
X38636Y-63234D01*
X38369Y-63539D01*
X38483Y-63539D01*
X38559Y-63577D01*
X38597Y-63615D01*
X38636Y-63691D01*
X38636Y-63881D01*
X38597Y-63958D01*
X38559Y-63996D01*
X38483Y-64034D01*
X38255Y-64034D01*
X38178Y-63996D01*
X38140Y-63958D01*
X38940Y-63310D02*
X38978Y-63272D01*
X39055Y-63234D01*
X39245Y-63234D01*
X39321Y-63272D01*
X39359Y-63310D01*
X39398Y-63386D01*
X39398Y-63462D01*
X39359Y-63577D01*
X38902Y-64034D01*
X39398Y-64034D01*
X39740Y-64034D02*
X39740Y-63500D01*
X39740Y-63577D02*
X39779Y-63539D01*
X39855Y-63500D01*
X39969Y-63500D01*
X40045Y-63539D01*
X40083Y-63615D01*
X40083Y-64034D01*
X40083Y-63615D02*
X40121Y-63539D01*
X40198Y-63500D01*
X40312Y-63500D01*
X40388Y-63539D01*
X40426Y-63615D01*
X40426Y-64034D01*
X40807Y-64034D02*
X40807Y-63500D01*
X40807Y-63577D02*
X40846Y-63539D01*
X40922Y-63500D01*
X41036Y-63500D01*
X41112Y-63539D01*
X41150Y-63615D01*
X41150Y-64034D01*
X41150Y-63615D02*
X41188Y-63539D01*
X41265Y-63500D01*
X41379Y-63500D01*
X41455Y-63539D01*
X41493Y-63615D01*
X41493Y-64034D01*
X42713Y-64339D02*
X42675Y-64300D01*
X42599Y-64186D01*
X42561Y-64110D01*
X42523Y-63996D01*
X42484Y-63805D01*
X42484Y-63653D01*
X42523Y-63462D01*
X42561Y-63348D01*
X42599Y-63272D01*
X42675Y-63158D01*
X42713Y-63120D01*
X43437Y-64034D02*
X42979Y-64034D01*
X43208Y-64034D02*
X43208Y-63234D01*
X43132Y-63348D01*
X43056Y-63424D01*
X42979Y-63462D01*
X43894Y-63577D02*
X43818Y-63539D01*
X43779Y-63500D01*
X43741Y-63424D01*
X43741Y-63386D01*
X43779Y-63310D01*
X43818Y-63272D01*
X43894Y-63234D01*
X44046Y-63234D01*
X44122Y-63272D01*
X44160Y-63310D01*
X44199Y-63386D01*
X44199Y-63424D01*
X44160Y-63500D01*
X44122Y-63539D01*
X44046Y-63577D01*
X43894Y-63577D01*
X43818Y-63615D01*
X43779Y-63653D01*
X43741Y-63729D01*
X43741Y-63881D01*
X43779Y-63958D01*
X43818Y-63996D01*
X43894Y-64034D01*
X44046Y-64034D01*
X44122Y-63996D01*
X44160Y-63958D01*
X44199Y-63881D01*
X44199Y-63729D01*
X44160Y-63653D01*
X44122Y-63615D01*
X44046Y-63577D01*
X45151Y-64034D02*
X45151Y-63234D01*
X45494Y-64034D02*
X45494Y-63615D01*
X45456Y-63539D01*
X45380Y-63500D01*
X45266Y-63500D01*
X45190Y-63539D01*
X45151Y-63577D01*
X45990Y-64034D02*
X45914Y-63996D01*
X45875Y-63958D01*
X45837Y-63881D01*
X45837Y-63653D01*
X45875Y-63577D01*
X45914Y-63539D01*
X45990Y-63500D01*
X46104Y-63500D01*
X46180Y-63539D01*
X46218Y-63577D01*
X46256Y-63653D01*
X46256Y-63881D01*
X46218Y-63958D01*
X46180Y-63996D01*
X46104Y-64034D01*
X45990Y-64034D01*
X46714Y-64034D02*
X46638Y-63996D01*
X46599Y-63920D01*
X46599Y-63234D01*
X47323Y-63996D02*
X47247Y-64034D01*
X47095Y-64034D01*
X47018Y-63996D01*
X46980Y-63920D01*
X46980Y-63615D01*
X47018Y-63539D01*
X47095Y-63500D01*
X47247Y-63500D01*
X47323Y-63539D01*
X47361Y-63615D01*
X47361Y-63691D01*
X46980Y-63767D01*
X47666Y-63996D02*
X47743Y-64034D01*
X47895Y-64034D01*
X47971Y-63996D01*
X48009Y-63920D01*
X48009Y-63881D01*
X47971Y-63805D01*
X47895Y-63767D01*
X47781Y-63767D01*
X47704Y-63729D01*
X47666Y-63653D01*
X47666Y-63615D01*
X47704Y-63539D01*
X47781Y-63500D01*
X47895Y-63500D01*
X47971Y-63539D01*
X48276Y-64339D02*
X48314Y-64300D01*
X48391Y-64186D01*
X48429Y-64110D01*
X48467Y-63996D01*
X48505Y-63805D01*
X48505Y-63653D01*
X48467Y-63462D01*
X48429Y-63348D01*
X48391Y-63272D01*
X48314Y-63158D01*
X48276Y-63120D01*
G54D10*
X30585Y-64766D02*
X30579Y-64823D01*
X30562Y-64878D01*
X30535Y-64929D01*
X30499Y-64973D01*
X30454Y-65010D01*
X30404Y-65037D01*
X30349Y-65054D01*
X30292Y-65060D01*
X30235Y-65055D01*
X30180Y-65039D01*
X30129Y-65012D01*
X30084Y-64976D01*
X30047Y-64932D01*
X30019Y-64882D01*
X30002Y-64827D01*
X29996Y-64770D01*
X30000Y-64713D01*
X30016Y-64658D01*
X30043Y-64607D01*
X30078Y-64562D01*
X30122Y-64524D01*
X30172Y-64496D01*
X30227Y-64478D01*
X30284Y-64472D01*
X30341Y-64476D01*
X30396Y-64491D01*
X30448Y-64517D01*
X30493Y-64553D01*
X30531Y-64596D01*
X30559Y-64647D01*
X30577Y-64701D01*
X30584Y-64758D01*
X30585Y-64766D01*
X30290Y-64471D02*
X30290Y-65061D01*
G54D12*
X31129Y-64290D02*
X31205Y-64290D01*
X31281Y-64328D01*
X31319Y-64366D01*
X31357Y-64442D01*
X31396Y-64595D01*
X31396Y-64785D01*
X31357Y-64937D01*
X31319Y-65014D01*
X31281Y-65052D01*
X31205Y-65090D01*
X31129Y-65090D01*
X31053Y-65052D01*
X31015Y-65014D01*
X30976Y-64937D01*
X30938Y-64785D01*
X30938Y-64595D01*
X30976Y-64442D01*
X31015Y-64366D01*
X31053Y-64328D01*
X31129Y-64290D01*
X31738Y-65014D02*
X31777Y-65052D01*
X31738Y-65090D01*
X31700Y-65052D01*
X31738Y-65014D01*
X31738Y-65090D01*
X32272Y-64290D02*
X32348Y-64290D01*
X32424Y-64328D01*
X32462Y-64366D01*
X32500Y-64442D01*
X32539Y-64595D01*
X32539Y-64785D01*
X32500Y-64937D01*
X32462Y-65014D01*
X32424Y-65052D01*
X32348Y-65090D01*
X32272Y-65090D01*
X32196Y-65052D01*
X32158Y-65014D01*
X32119Y-64937D01*
X32081Y-64785D01*
X32081Y-64595D01*
X32119Y-64442D01*
X32158Y-64366D01*
X32196Y-64328D01*
X32272Y-64290D01*
X33262Y-64290D02*
X32881Y-64290D01*
X32843Y-64671D01*
X32881Y-64633D01*
X32958Y-64595D01*
X33148Y-64595D01*
X33224Y-64633D01*
X33262Y-64671D01*
X33301Y-64747D01*
X33301Y-64937D01*
X33262Y-65014D01*
X33224Y-65052D01*
X33148Y-65090D01*
X32958Y-65090D01*
X32881Y-65052D01*
X32843Y-65014D01*
X33682Y-65090D02*
X33834Y-65090D01*
X33910Y-65052D01*
X33948Y-65014D01*
X34024Y-64899D01*
X34063Y-64747D01*
X34063Y-64442D01*
X34024Y-64366D01*
X33986Y-64328D01*
X33910Y-64290D01*
X33758Y-64290D01*
X33682Y-64328D01*
X33643Y-64366D01*
X33605Y-64442D01*
X33605Y-64633D01*
X33643Y-64709D01*
X33682Y-64747D01*
X33758Y-64785D01*
X33910Y-64785D01*
X33986Y-64747D01*
X34024Y-64709D01*
X34063Y-64633D01*
X34367Y-64290D02*
X34367Y-64442D01*
X34672Y-64290D02*
X34672Y-64442D01*
X36197Y-64252D02*
X35511Y-65280D01*
X37493Y-65090D02*
X37035Y-65090D01*
X37264Y-65090D02*
X37264Y-64290D01*
X37188Y-64404D01*
X37112Y-64480D01*
X37035Y-64518D01*
X37835Y-65014D02*
X37874Y-65052D01*
X37835Y-65090D01*
X37797Y-65052D01*
X37835Y-65014D01*
X37835Y-65090D01*
X38597Y-64290D02*
X38216Y-64290D01*
X38178Y-64671D01*
X38216Y-64633D01*
X38293Y-64595D01*
X38483Y-64595D01*
X38559Y-64633D01*
X38597Y-64671D01*
X38636Y-64747D01*
X38636Y-64937D01*
X38597Y-65014D01*
X38559Y-65052D01*
X38483Y-65090D01*
X38293Y-65090D01*
X38216Y-65052D01*
X38178Y-65014D01*
X39131Y-64290D02*
X39207Y-64290D01*
X39283Y-64328D01*
X39321Y-64366D01*
X39359Y-64442D01*
X39398Y-64595D01*
X39398Y-64785D01*
X39359Y-64937D01*
X39321Y-65014D01*
X39283Y-65052D01*
X39207Y-65090D01*
X39131Y-65090D01*
X39055Y-65052D01*
X39017Y-65014D01*
X38978Y-64937D01*
X38940Y-64785D01*
X38940Y-64595D01*
X38978Y-64442D01*
X39017Y-64366D01*
X39055Y-64328D01*
X39131Y-64290D01*
X39740Y-65090D02*
X39740Y-64556D01*
X39740Y-64633D02*
X39779Y-64595D01*
X39855Y-64556D01*
X39969Y-64556D01*
X40045Y-64595D01*
X40083Y-64671D01*
X40083Y-65090D01*
X40083Y-64671D02*
X40121Y-64595D01*
X40198Y-64556D01*
X40312Y-64556D01*
X40388Y-64595D01*
X40426Y-64671D01*
X40426Y-65090D01*
X40807Y-65090D02*
X40807Y-64556D01*
X40807Y-64633D02*
X40846Y-64595D01*
X40922Y-64556D01*
X41036Y-64556D01*
X41112Y-64595D01*
X41150Y-64671D01*
X41150Y-65090D01*
X41150Y-64671D02*
X41188Y-64595D01*
X41265Y-64556D01*
X41379Y-64556D01*
X41455Y-64595D01*
X41493Y-64671D01*
X41493Y-65090D01*
X42713Y-65395D02*
X42675Y-65356D01*
X42599Y-65242D01*
X42561Y-65166D01*
X42523Y-65052D01*
X42484Y-64861D01*
X42484Y-64709D01*
X42523Y-64518D01*
X42561Y-64404D01*
X42599Y-64328D01*
X42675Y-64214D01*
X42713Y-64176D01*
X43360Y-64556D02*
X43360Y-65090D01*
X43170Y-64252D02*
X42979Y-64823D01*
X43475Y-64823D01*
X44389Y-65090D02*
X44389Y-64290D01*
X44732Y-65090D02*
X44732Y-64671D01*
X44694Y-64595D01*
X44618Y-64556D01*
X44504Y-64556D01*
X44428Y-64595D01*
X44389Y-64633D01*
X45228Y-65090D02*
X45152Y-65052D01*
X45113Y-65014D01*
X45075Y-64937D01*
X45075Y-64709D01*
X45113Y-64633D01*
X45152Y-64595D01*
X45228Y-64556D01*
X45342Y-64556D01*
X45418Y-64595D01*
X45456Y-64633D01*
X45494Y-64709D01*
X45494Y-64937D01*
X45456Y-65014D01*
X45418Y-65052D01*
X45342Y-65090D01*
X45228Y-65090D01*
X45952Y-65090D02*
X45876Y-65052D01*
X45837Y-64976D01*
X45837Y-64290D01*
X46561Y-65052D02*
X46485Y-65090D01*
X46333Y-65090D01*
X46256Y-65052D01*
X46218Y-64976D01*
X46218Y-64671D01*
X46256Y-64595D01*
X46333Y-64556D01*
X46485Y-64556D01*
X46561Y-64595D01*
X46599Y-64671D01*
X46599Y-64747D01*
X46218Y-64823D01*
X46904Y-65052D02*
X46981Y-65090D01*
X47133Y-65090D01*
X47209Y-65052D01*
X47247Y-64976D01*
X47247Y-64937D01*
X47209Y-64861D01*
X47133Y-64823D01*
X47019Y-64823D01*
X46942Y-64785D01*
X46904Y-64709D01*
X46904Y-64671D01*
X46942Y-64595D01*
X47019Y-64556D01*
X47133Y-64556D01*
X47209Y-64595D01*
X47514Y-65395D02*
X47552Y-65356D01*
X47629Y-65242D01*
X47667Y-65166D01*
X47705Y-65052D01*
X47743Y-64861D01*
X47743Y-64709D01*
X47705Y-64518D01*
X47667Y-64404D01*
X47629Y-64328D01*
X47552Y-64214D01*
X47514Y-64176D01*
G54D10*
X30410Y-66246D02*
X30410Y-65398D01*
X29562Y-65398D01*
X29562Y-66246D01*
X30410Y-66246D01*
G54D12*
X31129Y-65346D02*
X31205Y-65346D01*
X31281Y-65384D01*
X31319Y-65422D01*
X31357Y-65498D01*
X31396Y-65651D01*
X31396Y-65841D01*
X31357Y-65993D01*
X31319Y-66070D01*
X31281Y-66108D01*
X31205Y-66146D01*
X31129Y-66146D01*
X31053Y-66108D01*
X31015Y-66070D01*
X30976Y-65993D01*
X30938Y-65841D01*
X30938Y-65651D01*
X30976Y-65498D01*
X31015Y-65422D01*
X31053Y-65384D01*
X31129Y-65346D01*
X31738Y-66070D02*
X31777Y-66108D01*
X31738Y-66146D01*
X31700Y-66108D01*
X31738Y-66070D01*
X31738Y-66146D01*
X32539Y-66146D02*
X32081Y-66146D01*
X32310Y-66146D02*
X32310Y-65346D01*
X32234Y-65460D01*
X32158Y-65536D01*
X32081Y-65574D01*
X32843Y-65422D02*
X32881Y-65384D01*
X32958Y-65346D01*
X33148Y-65346D01*
X33224Y-65384D01*
X33262Y-65422D01*
X33301Y-65498D01*
X33301Y-65574D01*
X33262Y-65689D01*
X32805Y-66146D01*
X33301Y-66146D01*
X33796Y-65346D02*
X33872Y-65346D01*
X33948Y-65384D01*
X33986Y-65422D01*
X34024Y-65498D01*
X34063Y-65651D01*
X34063Y-65841D01*
X34024Y-65993D01*
X33986Y-66070D01*
X33948Y-66108D01*
X33872Y-66146D01*
X33796Y-66146D01*
X33720Y-66108D01*
X33682Y-66070D01*
X33643Y-65993D01*
X33605Y-65841D01*
X33605Y-65651D01*
X33643Y-65498D01*
X33682Y-65422D01*
X33720Y-65384D01*
X33796Y-65346D01*
X34367Y-65346D02*
X34367Y-65498D01*
X34672Y-65346D02*
X34672Y-65498D01*
X36197Y-65308D02*
X35511Y-66336D01*
X36997Y-65346D02*
X37493Y-65346D01*
X37226Y-65651D01*
X37340Y-65651D01*
X37416Y-65689D01*
X37454Y-65727D01*
X37493Y-65803D01*
X37493Y-65993D01*
X37454Y-66070D01*
X37416Y-66108D01*
X37340Y-66146D01*
X37112Y-66146D01*
X37035Y-66108D01*
X36997Y-66070D01*
X37835Y-66070D02*
X37874Y-66108D01*
X37835Y-66146D01*
X37797Y-66108D01*
X37835Y-66070D01*
X37835Y-66146D01*
X38369Y-65346D02*
X38445Y-65346D01*
X38521Y-65384D01*
X38559Y-65422D01*
X38597Y-65498D01*
X38636Y-65651D01*
X38636Y-65841D01*
X38597Y-65993D01*
X38559Y-66070D01*
X38521Y-66108D01*
X38445Y-66146D01*
X38369Y-66146D01*
X38293Y-66108D01*
X38255Y-66070D01*
X38216Y-65993D01*
X38178Y-65841D01*
X38178Y-65651D01*
X38216Y-65498D01*
X38255Y-65422D01*
X38293Y-65384D01*
X38369Y-65346D01*
X39359Y-65346D02*
X38978Y-65346D01*
X38940Y-65727D01*
X38978Y-65689D01*
X39055Y-65651D01*
X39245Y-65651D01*
X39321Y-65689D01*
X39359Y-65727D01*
X39398Y-65803D01*
X39398Y-65993D01*
X39359Y-66070D01*
X39321Y-66108D01*
X39245Y-66146D01*
X39055Y-66146D01*
X38978Y-66108D01*
X38940Y-66070D01*
X39740Y-66146D02*
X39740Y-65612D01*
X39740Y-65689D02*
X39779Y-65651D01*
X39855Y-65612D01*
X39969Y-65612D01*
X40045Y-65651D01*
X40083Y-65727D01*
X40083Y-66146D01*
X40083Y-65727D02*
X40121Y-65651D01*
X40198Y-65612D01*
X40312Y-65612D01*
X40388Y-65651D01*
X40426Y-65727D01*
X40426Y-66146D01*
X40807Y-66146D02*
X40807Y-65612D01*
X40807Y-65689D02*
X40846Y-65651D01*
X40922Y-65612D01*
X41036Y-65612D01*
X41112Y-65651D01*
X41150Y-65727D01*
X41150Y-66146D01*
X41150Y-65727D02*
X41188Y-65651D01*
X41265Y-65612D01*
X41379Y-65612D01*
X41455Y-65651D01*
X41493Y-65727D01*
X41493Y-66146D01*
X42713Y-66451D02*
X42675Y-66412D01*
X42599Y-66298D01*
X42561Y-66222D01*
X42523Y-66108D01*
X42484Y-65917D01*
X42484Y-65765D01*
X42523Y-65574D01*
X42561Y-65460D01*
X42599Y-65384D01*
X42675Y-65270D01*
X42713Y-65232D01*
X42941Y-65346D02*
X43437Y-65346D01*
X43170Y-65651D01*
X43284Y-65651D01*
X43360Y-65689D01*
X43398Y-65727D01*
X43437Y-65803D01*
X43437Y-65993D01*
X43398Y-66070D01*
X43360Y-66108D01*
X43284Y-66146D01*
X43056Y-66146D01*
X42979Y-66108D01*
X42941Y-66070D01*
X44389Y-66146D02*
X44389Y-65346D01*
X44732Y-66146D02*
X44732Y-65727D01*
X44694Y-65651D01*
X44618Y-65612D01*
X44504Y-65612D01*
X44428Y-65651D01*
X44389Y-65689D01*
X45228Y-66146D02*
X45152Y-66108D01*
X45113Y-66070D01*
X45075Y-65993D01*
X45075Y-65765D01*
X45113Y-65689D01*
X45152Y-65651D01*
X45228Y-65612D01*
X45342Y-65612D01*
X45418Y-65651D01*
X45456Y-65689D01*
X45494Y-65765D01*
X45494Y-65993D01*
X45456Y-66070D01*
X45418Y-66108D01*
X45342Y-66146D01*
X45228Y-66146D01*
X45952Y-66146D02*
X45876Y-66108D01*
X45837Y-66032D01*
X45837Y-65346D01*
X46561Y-66108D02*
X46485Y-66146D01*
X46333Y-66146D01*
X46256Y-66108D01*
X46218Y-66032D01*
X46218Y-65727D01*
X46256Y-65651D01*
X46333Y-65612D01*
X46485Y-65612D01*
X46561Y-65651D01*
X46599Y-65727D01*
X46599Y-65803D01*
X46218Y-65879D01*
X46904Y-66108D02*
X46981Y-66146D01*
X47133Y-66146D01*
X47209Y-66108D01*
X47247Y-66032D01*
X47247Y-65993D01*
X47209Y-65917D01*
X47133Y-65879D01*
X47019Y-65879D01*
X46942Y-65841D01*
X46904Y-65765D01*
X46904Y-65727D01*
X46942Y-65651D01*
X47019Y-65612D01*
X47133Y-65612D01*
X47209Y-65651D01*
X47514Y-66451D02*
X47552Y-66412D01*
X47629Y-66298D01*
X47667Y-66222D01*
X47705Y-66108D01*
X47743Y-65917D01*
X47743Y-65765D01*
X47705Y-65574D01*
X47667Y-65460D01*
X47629Y-65384D01*
X47552Y-65270D01*
X47514Y-65232D01*
M02*
