G04 (created by PCBNEW-RS274X (2012-apr-16-27)-stable) date Mon 30 Jun 2014 11:26:30 PM CST*
G01*
G70*
G90*
%MOIN*%
G04 Gerber Fmt 3.4, Leading zero omitted, Abs format*
%FSLAX34Y34*%
G04 APERTURE LIST*
%ADD10C,0.006000*%
%ADD11C,0.007500*%
G04 APERTURE END LIST*
G54D10*
G54D11*
X46384Y-25501D02*
X46400Y-25484D01*
X46434Y-25468D01*
X46517Y-25468D01*
X46550Y-25484D01*
X46567Y-25501D01*
X46584Y-25534D01*
X46584Y-25568D01*
X46567Y-25618D01*
X46367Y-25818D01*
X46584Y-25818D01*
X46733Y-25784D02*
X46750Y-25801D01*
X46733Y-25818D01*
X46717Y-25801D01*
X46733Y-25784D01*
X46733Y-25818D01*
X46884Y-25501D02*
X46900Y-25484D01*
X46934Y-25468D01*
X47017Y-25468D01*
X47050Y-25484D01*
X47067Y-25501D01*
X47084Y-25534D01*
X47084Y-25568D01*
X47067Y-25618D01*
X46867Y-25818D01*
X47084Y-25818D01*
X47300Y-25468D02*
X47333Y-25468D01*
X47367Y-25484D01*
X47383Y-25501D01*
X47400Y-25534D01*
X47417Y-25601D01*
X47417Y-25684D01*
X47400Y-25751D01*
X47383Y-25784D01*
X47367Y-25801D01*
X47333Y-25818D01*
X47300Y-25818D01*
X47267Y-25801D01*
X47250Y-25784D01*
X47233Y-25751D01*
X47217Y-25684D01*
X47217Y-25601D01*
X47233Y-25534D01*
X47250Y-25501D01*
X47267Y-25484D01*
X47300Y-25468D01*
X47633Y-25468D02*
X47666Y-25468D01*
X47700Y-25484D01*
X47716Y-25501D01*
X47733Y-25534D01*
X47750Y-25601D01*
X47750Y-25684D01*
X47733Y-25751D01*
X47716Y-25784D01*
X47700Y-25801D01*
X47666Y-25818D01*
X47633Y-25818D01*
X47600Y-25801D01*
X47583Y-25784D01*
X47566Y-25751D01*
X47550Y-25684D01*
X47550Y-25601D01*
X47566Y-25534D01*
X47583Y-25501D01*
X47600Y-25484D01*
X47633Y-25468D01*
X47966Y-25468D02*
X47999Y-25468D01*
X48033Y-25484D01*
X48049Y-25501D01*
X48066Y-25534D01*
X48083Y-25601D01*
X48083Y-25684D01*
X48066Y-25751D01*
X48049Y-25784D01*
X48033Y-25801D01*
X47999Y-25818D01*
X47966Y-25818D01*
X47933Y-25801D01*
X47916Y-25784D01*
X47899Y-25751D01*
X47883Y-25684D01*
X47883Y-25601D01*
X47899Y-25534D01*
X47916Y-25501D01*
X47933Y-25484D01*
X47966Y-25468D01*
X48483Y-25468D02*
X48483Y-25534D01*
X48616Y-25468D02*
X48616Y-25534D01*
X36500Y-26001D02*
X58500Y-26001D01*
X36500Y-40000D02*
X36500Y-25351D01*
X58500Y-40000D02*
X58500Y-25351D01*
X58500Y-26001D02*
X58057Y-26231D01*
X58500Y-26001D02*
X58057Y-25771D01*
X36500Y-26001D02*
X36943Y-26231D01*
X36500Y-26001D02*
X36943Y-25771D01*
M02*
