G04 (created by PCBNEW-RS274X (2012-apr-16-27)-stable) date Mon 30 Jun 2014 11:26:30 PM CST*
G01*
G70*
G90*
%MOIN*%
G04 Gerber Fmt 3.4, Leading zero omitted, Abs format*
%FSLAX34Y34*%
G04 APERTURE LIST*
%ADD10C,0.006000*%
%ADD11C,0.055000*%
%ADD12R,0.055000X0.055000*%
%ADD13C,0.066000*%
%ADD14C,0.200000*%
%ADD15R,0.048000X0.048000*%
%ADD16C,0.048000*%
%ADD17R,0.100000X0.210000*%
%ADD18O,0.100000X0.210000*%
%ADD19C,0.090000*%
%ADD20R,0.210000X0.090000*%
%ADD21O,0.210000X0.090000*%
%ADD22C,0.030000*%
%ADD23C,0.007000*%
G04 APERTURE END LIST*
G54D10*
G54D11*
X42093Y-44043D03*
X42800Y-44750D03*
X43507Y-45457D03*
X42093Y-45457D03*
G54D12*
X54250Y-37500D03*
G54D11*
X55250Y-37500D03*
G54D12*
X54250Y-41500D03*
G54D11*
X55250Y-41500D03*
G54D12*
X47500Y-37250D03*
G54D11*
X47500Y-38250D03*
G54D13*
X47900Y-34050D03*
X48900Y-34050D03*
G54D12*
X45300Y-45400D03*
G54D11*
X45300Y-46400D03*
X45300Y-47400D03*
X45300Y-48400D03*
X48300Y-48400D03*
X48300Y-47400D03*
X48300Y-46400D03*
X48300Y-45400D03*
G54D12*
X49100Y-37250D03*
G54D11*
X49100Y-38250D03*
X49100Y-39250D03*
X49100Y-40250D03*
X49100Y-41250D03*
X49100Y-42250D03*
X49100Y-43250D03*
X52100Y-43250D03*
X52100Y-42250D03*
X52100Y-41250D03*
X52100Y-40250D03*
X52100Y-39250D03*
X52100Y-38250D03*
X52100Y-37250D03*
X49750Y-48300D03*
X49750Y-49300D03*
X46800Y-46550D03*
X46800Y-47550D03*
X50600Y-36750D03*
X50600Y-37750D03*
X50600Y-41750D03*
X50600Y-40750D03*
X50600Y-42750D03*
X50600Y-43750D03*
X50600Y-39750D03*
X50600Y-38750D03*
X49000Y-35650D03*
X50000Y-35650D03*
X52950Y-35700D03*
X51950Y-35700D03*
X52900Y-44600D03*
X52900Y-43600D03*
X54200Y-44500D03*
X54200Y-43500D03*
X39650Y-36250D03*
X38650Y-36250D03*
X45950Y-36200D03*
X45950Y-35200D03*
X47500Y-36000D03*
X47500Y-35000D03*
X56600Y-44400D03*
G54D12*
X56600Y-43400D03*
G54D11*
X40200Y-43650D03*
X39200Y-43650D03*
G54D14*
X47500Y-40000D03*
G54D15*
X55250Y-42500D03*
G54D16*
X54250Y-42500D03*
G54D15*
X39700Y-42500D03*
G54D16*
X39700Y-41500D03*
G54D15*
X55350Y-40500D03*
G54D16*
X54350Y-40500D03*
G54D15*
X39700Y-40500D03*
G54D16*
X39700Y-39500D03*
G54D15*
X55250Y-38500D03*
G54D16*
X54250Y-38500D03*
G54D15*
X39700Y-38500D03*
G54D16*
X39700Y-37500D03*
G54D11*
X40750Y-38500D03*
X40750Y-37500D03*
X42750Y-38500D03*
X42750Y-37500D03*
X44750Y-38500D03*
X44750Y-37500D03*
X40750Y-40500D03*
X40750Y-39500D03*
X42750Y-40500D03*
X42750Y-39500D03*
X44750Y-40500D03*
X44750Y-39500D03*
X40750Y-42500D03*
X40750Y-41500D03*
X42750Y-42500D03*
X42750Y-41500D03*
X44750Y-42500D03*
X44750Y-41500D03*
X52050Y-49150D03*
G54D12*
X51050Y-49150D03*
G54D11*
X45650Y-33400D03*
G54D12*
X46650Y-33400D03*
G54D11*
X43800Y-33350D03*
G54D12*
X43800Y-32350D03*
G54D11*
X47250Y-41900D03*
G54D12*
X47250Y-42900D03*
G54D11*
X50500Y-31100D03*
G54D12*
X50500Y-30100D03*
G54D11*
X48700Y-31950D03*
G54D12*
X47700Y-31950D03*
G54D11*
X56050Y-36000D03*
G54D12*
X57050Y-36000D03*
X54250Y-39500D03*
G54D11*
X55250Y-39500D03*
G54D14*
X44550Y-30650D03*
X43600Y-48700D03*
G54D12*
X45750Y-37500D03*
G54D11*
X45750Y-38500D03*
X45750Y-39500D03*
X45750Y-40500D03*
G54D12*
X43750Y-37500D03*
G54D11*
X43750Y-38500D03*
X43750Y-39500D03*
X43750Y-40500D03*
G54D12*
X45350Y-44100D03*
G54D11*
X46350Y-44100D03*
X47350Y-44100D03*
X48350Y-44100D03*
G54D12*
X41750Y-37500D03*
G54D11*
X41750Y-38500D03*
X41750Y-39500D03*
X41750Y-40500D03*
G54D17*
X48280Y-50500D03*
G54D18*
X46720Y-50500D03*
G54D17*
X46720Y-29500D03*
G54D18*
X48280Y-29500D03*
G54D10*
G36*
X42217Y-47868D02*
X40732Y-49353D01*
X40095Y-48716D01*
X41580Y-47231D01*
X42217Y-47868D01*
X42217Y-47868D01*
G37*
G54D19*
X39758Y-47742D02*
X40606Y-46894D01*
X38784Y-46768D02*
X39632Y-45920D01*
G54D20*
X37050Y-41378D03*
G54D21*
X37050Y-40000D03*
X37050Y-38622D03*
G54D10*
G36*
X39632Y-34717D02*
X38147Y-33232D01*
X38784Y-32595D01*
X40269Y-34080D01*
X39632Y-34717D01*
X39632Y-34717D01*
G37*
G54D19*
X39758Y-32258D02*
X40606Y-33106D01*
X40732Y-31284D02*
X41580Y-32132D01*
G54D10*
G36*
X52783Y-32132D02*
X54268Y-30647D01*
X54905Y-31284D01*
X53420Y-32769D01*
X52783Y-32132D01*
X52783Y-32132D01*
G37*
G54D19*
X55242Y-32258D02*
X54394Y-33106D01*
X56216Y-33232D02*
X55368Y-34080D01*
G54D20*
X57950Y-38622D03*
G54D21*
X57950Y-40000D03*
X57950Y-41378D03*
G54D10*
G36*
X55368Y-45283D02*
X56853Y-46768D01*
X56216Y-47405D01*
X54731Y-45920D01*
X55368Y-45283D01*
X55368Y-45283D01*
G37*
G54D19*
X55242Y-47742D02*
X54394Y-46894D01*
X54268Y-48716D02*
X53420Y-47868D01*
G54D12*
X49950Y-34550D03*
G54D11*
X50950Y-34550D03*
X51950Y-34550D03*
G54D12*
X49950Y-33550D03*
G54D11*
X50950Y-33550D03*
X51950Y-33550D03*
G54D12*
X42750Y-36500D03*
G54D11*
X43750Y-36500D03*
X44750Y-36500D03*
G54D12*
X42750Y-35500D03*
G54D11*
X43750Y-35500D03*
X44750Y-35500D03*
G54D12*
X49750Y-46150D03*
G54D11*
X50750Y-46150D03*
X51750Y-46150D03*
G54D12*
X49750Y-47150D03*
G54D11*
X50750Y-47150D03*
X51750Y-47150D03*
G54D12*
X53200Y-40500D03*
G54D11*
X53200Y-41500D03*
X53200Y-42500D03*
G54D22*
X41400Y-44950D03*
X51450Y-41750D03*
X40400Y-34900D03*
G54D23*
X40750Y-39500D02*
X41750Y-39500D01*
X38650Y-40000D02*
X39150Y-39500D01*
X37500Y-40000D02*
X38650Y-40000D01*
X39150Y-39500D02*
X39700Y-39500D01*
X44250Y-40000D02*
X44750Y-40500D01*
X42750Y-40500D02*
X42900Y-40500D01*
X41150Y-40000D02*
X42250Y-40000D01*
X43400Y-40000D02*
X44250Y-40000D01*
X42900Y-40500D02*
X43400Y-40000D01*
X42250Y-40000D02*
X42750Y-40500D01*
X40750Y-40500D02*
X40750Y-40400D01*
X39700Y-40500D02*
X40750Y-40500D01*
X40750Y-40400D02*
X41150Y-40000D01*
X40750Y-42500D02*
X42750Y-42500D01*
X42750Y-42500D02*
X44750Y-42500D01*
X40750Y-42500D02*
X39700Y-42500D01*
X40500Y-47000D02*
X41400Y-46100D01*
X41400Y-46100D02*
X41400Y-44950D01*
X54250Y-41500D02*
X54250Y-41150D01*
X48250Y-41400D02*
X46800Y-41400D01*
X46850Y-38250D02*
X47500Y-38250D01*
X46250Y-40850D02*
X46250Y-38850D01*
X46800Y-41400D02*
X46250Y-40850D01*
X49100Y-41250D02*
X48400Y-41250D01*
X49100Y-41250D02*
X51250Y-41250D01*
X53900Y-38500D02*
X54250Y-38500D01*
X54250Y-41150D02*
X53800Y-40700D01*
X46250Y-38850D02*
X46850Y-38250D01*
X53200Y-41500D02*
X54250Y-41500D01*
X53800Y-40050D02*
X53600Y-39850D01*
X53600Y-38800D02*
X53900Y-38500D01*
X51450Y-41450D02*
X51450Y-41750D01*
X51250Y-41250D02*
X51450Y-41450D01*
X54250Y-37500D02*
X54250Y-38500D01*
X53800Y-40700D02*
X53800Y-40050D01*
X48400Y-41250D02*
X48250Y-41400D01*
X53600Y-39850D02*
X53600Y-38800D01*
X47500Y-37250D02*
X47500Y-36000D01*
X47500Y-34450D02*
X47900Y-34050D01*
X47500Y-35000D02*
X47500Y-34450D01*
X55250Y-37500D02*
X55250Y-38500D01*
X52100Y-42250D02*
X51100Y-42250D01*
X51100Y-42250D02*
X50600Y-42750D01*
X55850Y-39500D02*
X56350Y-40000D01*
X55250Y-39500D02*
X55850Y-39500D01*
X55350Y-40500D02*
X55350Y-40100D01*
X56350Y-40000D02*
X57500Y-40000D01*
X55350Y-40100D02*
X55250Y-40000D01*
X55250Y-40000D02*
X55250Y-39500D01*
X42750Y-37500D02*
X43750Y-38500D01*
X40750Y-37500D02*
X41750Y-38500D01*
X51750Y-48000D02*
X51750Y-47150D01*
X52050Y-49150D02*
X52050Y-48300D01*
X52050Y-48300D02*
X51750Y-48000D01*
X49750Y-47150D02*
X49750Y-48300D01*
X52550Y-46150D02*
X54200Y-44500D01*
X51750Y-46150D02*
X52550Y-46150D01*
X52900Y-44600D02*
X50700Y-44600D01*
X49750Y-45550D02*
X49750Y-46150D01*
X50700Y-44600D02*
X49750Y-45550D01*
X48300Y-47400D02*
X48300Y-48400D01*
X43750Y-37350D02*
X44100Y-37000D01*
X43250Y-37000D02*
X43750Y-37500D01*
X42300Y-37000D02*
X43250Y-37000D01*
X41800Y-37500D02*
X42300Y-37000D01*
X45250Y-37000D02*
X45750Y-37500D01*
X43750Y-37500D02*
X43750Y-37350D01*
X41750Y-37500D02*
X41800Y-37500D01*
X43750Y-35500D02*
X43750Y-36500D01*
X43750Y-36500D02*
X43750Y-37500D01*
X44100Y-37000D02*
X45250Y-37000D01*
X47950Y-42650D02*
X47950Y-43200D01*
X52100Y-44050D02*
X51800Y-44350D01*
X47250Y-41950D02*
X47950Y-42650D01*
X48800Y-44800D02*
X48050Y-44800D01*
X52100Y-43250D02*
X52100Y-44050D01*
X48050Y-44800D02*
X47350Y-44100D01*
X51800Y-44350D02*
X49250Y-44350D01*
X47250Y-41900D02*
X47250Y-41950D01*
X47350Y-43800D02*
X47350Y-44100D01*
X49250Y-44350D02*
X48800Y-44800D01*
X47950Y-43200D02*
X47350Y-43800D01*
X50750Y-47150D02*
X50750Y-46150D01*
X40700Y-34900D02*
X40400Y-34900D01*
X41000Y-34600D02*
X40700Y-34900D01*
X41000Y-33500D02*
X41000Y-34600D01*
X40500Y-33000D02*
X41000Y-33500D01*
X49950Y-34550D02*
X49950Y-34700D01*
X49950Y-34700D02*
X49000Y-35650D01*
X51600Y-40750D02*
X52100Y-40250D01*
X50600Y-40750D02*
X51600Y-40750D01*
X49100Y-39250D02*
X50100Y-39250D01*
X50100Y-39250D02*
X50600Y-39750D01*
X44750Y-36500D02*
X45650Y-36500D01*
X45650Y-36500D02*
X45950Y-36200D01*
X41300Y-36500D02*
X42750Y-36500D01*
X41050Y-36250D02*
X41300Y-36500D01*
X39650Y-36250D02*
X41050Y-36250D01*
X44750Y-34300D02*
X45650Y-33400D01*
X44750Y-35500D02*
X44750Y-34300D01*
X42750Y-35050D02*
X43800Y-34000D01*
X42750Y-35500D02*
X42750Y-35050D01*
X43800Y-34000D02*
X43800Y-33350D01*
X52100Y-38250D02*
X52100Y-39250D01*
X50950Y-33550D02*
X50950Y-34550D01*
X48350Y-44100D02*
X50250Y-44100D01*
X49100Y-42250D02*
X50600Y-43750D01*
X50250Y-44100D02*
X50600Y-43750D01*
X39200Y-43650D02*
X40200Y-43650D01*
X43036Y-46400D02*
X42093Y-45457D01*
X45300Y-46400D02*
X43036Y-46400D01*
X42093Y-45457D02*
X42800Y-44750D01*
X41750Y-40500D02*
X40750Y-41500D01*
X42750Y-41500D02*
X43750Y-40500D01*
X42750Y-39500D02*
X43750Y-39500D01*
X54500Y-47000D02*
X54500Y-46800D01*
X55250Y-44900D02*
X55250Y-42500D01*
X54150Y-46000D02*
X55250Y-44900D01*
X54150Y-46450D02*
X54150Y-46000D01*
X54500Y-46800D02*
X54150Y-46450D01*
X40750Y-38500D02*
X39700Y-38500D01*
X42250Y-39000D02*
X42750Y-38500D01*
X42750Y-38500D02*
X42900Y-38500D01*
X41250Y-39000D02*
X42250Y-39000D01*
X42900Y-38500D02*
X43350Y-38950D01*
X43350Y-38950D02*
X44300Y-38950D01*
X40750Y-38500D02*
X41250Y-39000D01*
X44300Y-38950D02*
X44750Y-38500D01*
X46800Y-46550D02*
X46800Y-45750D01*
X53000Y-43500D02*
X52900Y-43600D01*
X51500Y-36750D02*
X51950Y-36300D01*
X51900Y-35650D02*
X51950Y-35700D01*
X50600Y-36750D02*
X51500Y-36750D01*
X50450Y-34850D02*
X50450Y-32700D01*
X52650Y-40550D02*
X52650Y-37800D01*
X50000Y-35650D02*
X51900Y-35650D01*
X52650Y-39500D02*
X52650Y-37800D01*
X48750Y-49000D02*
X47720Y-49000D01*
X46100Y-47450D02*
X46100Y-49380D01*
X52450Y-49600D02*
X52300Y-49600D01*
X52300Y-49600D02*
X52100Y-49800D01*
X53526Y-48524D02*
X52450Y-49600D01*
X48700Y-31950D02*
X48700Y-30420D01*
X41474Y-32026D02*
X42824Y-32026D01*
X37500Y-36200D02*
X37500Y-38622D01*
X51950Y-36300D02*
X51950Y-35700D01*
X52100Y-41250D02*
X52100Y-41100D01*
X41474Y-32026D02*
X41474Y-34926D01*
X50000Y-35300D02*
X50450Y-34850D01*
X54750Y-44050D02*
X54200Y-43500D01*
X53526Y-45924D02*
X54750Y-44700D01*
X53676Y-33974D02*
X51950Y-35700D01*
X52400Y-39750D02*
X52650Y-39500D01*
X52100Y-41100D02*
X52650Y-40550D01*
X51100Y-40250D02*
X51600Y-39750D01*
X49100Y-40250D02*
X51100Y-40250D01*
X54200Y-43500D02*
X53000Y-43500D01*
X48700Y-30420D02*
X48280Y-30000D01*
X52100Y-36500D02*
X51950Y-36350D01*
X54750Y-44700D02*
X54750Y-44050D01*
X50000Y-35650D02*
X50000Y-35300D01*
X47720Y-49000D02*
X46720Y-50000D01*
X46800Y-45750D02*
X47150Y-45400D01*
X53526Y-47974D02*
X53526Y-45924D01*
X53526Y-47974D02*
X53526Y-48524D01*
X52100Y-49800D02*
X49550Y-49800D01*
X45350Y-44100D02*
X45450Y-44100D01*
X46800Y-46550D02*
X46800Y-46750D01*
X50450Y-32700D02*
X49700Y-31950D01*
X45450Y-44100D02*
X46750Y-45400D01*
X49700Y-31950D02*
X48700Y-31950D01*
X52650Y-42850D02*
X52900Y-43100D01*
X52900Y-43100D02*
X52900Y-43600D01*
X43050Y-31800D02*
X44200Y-31800D01*
X41474Y-34926D02*
X41050Y-35350D01*
X51950Y-36350D02*
X51950Y-35700D01*
X44200Y-31800D02*
X44300Y-31900D01*
X52650Y-37800D02*
X52100Y-37250D01*
X55474Y-33974D02*
X53676Y-33974D01*
X57500Y-41378D02*
X56472Y-41378D01*
X39526Y-46024D02*
X41507Y-44043D01*
X46750Y-45400D02*
X48300Y-45400D01*
X55850Y-42000D02*
X52850Y-42000D01*
X56472Y-41378D02*
X55850Y-42000D01*
X46800Y-46750D02*
X46100Y-47450D01*
X52100Y-37250D02*
X52100Y-36500D01*
X52100Y-41250D02*
X52650Y-41800D01*
X49550Y-49800D02*
X48750Y-49000D01*
X52650Y-41800D02*
X52650Y-42850D01*
X47150Y-45400D02*
X48300Y-45400D01*
X46100Y-49380D02*
X46720Y-50000D01*
X42093Y-44043D02*
X45293Y-44043D01*
X42824Y-32026D02*
X43050Y-31800D01*
X39526Y-46026D02*
X39526Y-46024D01*
X41507Y-44043D02*
X42093Y-44043D01*
X51600Y-39750D02*
X52400Y-39750D01*
X45293Y-44043D02*
X45350Y-44100D01*
X46380Y-31900D02*
X48280Y-30000D01*
X38350Y-35350D02*
X37500Y-36200D01*
X41050Y-35350D02*
X38350Y-35350D01*
X44300Y-31900D02*
X46380Y-31900D01*
X52850Y-42000D02*
X52100Y-41250D01*
M02*
