G04 (created by PCBNEW-RS274X (2012-apr-16-27)-stable) date Mon 30 Jun 2014 11:26:30 PM CST*
G01*
G70*
G90*
%MOIN*%
G04 Gerber Fmt 3.4, Leading zero omitted, Abs format*
%FSLAX34Y34*%
G04 APERTURE LIST*
%ADD10C,0.006000*%
%ADD11C,0.007000*%
%ADD12C,0.010000*%
G04 APERTURE END LIST*
G54D10*
G54D11*
X40081Y-34682D02*
X40281Y-34753D01*
X40081Y-34825D01*
X40267Y-35054D02*
X40281Y-35025D01*
X40281Y-34968D01*
X40267Y-34939D01*
X40239Y-34925D01*
X40124Y-34925D01*
X40096Y-34939D01*
X40081Y-34968D01*
X40081Y-35025D01*
X40096Y-35054D01*
X40124Y-35068D01*
X40153Y-35068D01*
X40181Y-34925D01*
X40281Y-35196D02*
X40081Y-35196D01*
X40139Y-35196D02*
X40110Y-35211D01*
X40096Y-35225D01*
X40081Y-35254D01*
X40081Y-35282D01*
X40267Y-35368D02*
X40281Y-35397D01*
X40281Y-35454D01*
X40267Y-35482D01*
X40239Y-35497D01*
X40224Y-35497D01*
X40196Y-35482D01*
X40181Y-35454D01*
X40181Y-35411D01*
X40167Y-35382D01*
X40139Y-35368D01*
X40124Y-35368D01*
X40096Y-35382D01*
X40081Y-35411D01*
X40081Y-35454D01*
X40096Y-35482D01*
X40281Y-35625D02*
X40081Y-35625D01*
X39981Y-35625D02*
X39996Y-35611D01*
X40010Y-35625D01*
X39996Y-35640D01*
X39981Y-35625D01*
X40010Y-35625D01*
X40281Y-35811D02*
X40267Y-35783D01*
X40253Y-35768D01*
X40224Y-35754D01*
X40139Y-35754D01*
X40110Y-35768D01*
X40096Y-35783D01*
X40081Y-35811D01*
X40081Y-35854D01*
X40096Y-35883D01*
X40110Y-35897D01*
X40139Y-35911D01*
X40224Y-35911D01*
X40253Y-35897D01*
X40267Y-35883D01*
X40281Y-35854D01*
X40281Y-35811D01*
X40081Y-36039D02*
X40281Y-36039D01*
X40110Y-36039D02*
X40096Y-36054D01*
X40081Y-36082D01*
X40081Y-36125D01*
X40096Y-36154D01*
X40124Y-36168D01*
X40281Y-36168D01*
X39981Y-36597D02*
X39981Y-36625D01*
X39996Y-36654D01*
X40010Y-36668D01*
X40039Y-36682D01*
X40096Y-36697D01*
X40167Y-36697D01*
X40224Y-36682D01*
X40253Y-36668D01*
X40267Y-36654D01*
X40281Y-36625D01*
X40281Y-36597D01*
X40267Y-36568D01*
X40253Y-36554D01*
X40224Y-36539D01*
X40167Y-36525D01*
X40096Y-36525D01*
X40039Y-36539D01*
X40010Y-36554D01*
X39996Y-36568D01*
X39981Y-36597D01*
X40281Y-36983D02*
X40281Y-36811D01*
X40281Y-36897D02*
X39981Y-36897D01*
X40024Y-36868D01*
X40053Y-36840D01*
X40067Y-36811D01*
X40771Y-34013D02*
X40471Y-34013D01*
X40586Y-34013D02*
X40571Y-34042D01*
X40571Y-34099D01*
X40586Y-34128D01*
X40600Y-34142D01*
X40629Y-34156D01*
X40714Y-34156D01*
X40743Y-34142D01*
X40757Y-34128D01*
X40771Y-34099D01*
X40771Y-34042D01*
X40757Y-34013D01*
X40771Y-34327D02*
X40757Y-34299D01*
X40743Y-34284D01*
X40714Y-34270D01*
X40629Y-34270D01*
X40600Y-34284D01*
X40586Y-34299D01*
X40571Y-34327D01*
X40571Y-34370D01*
X40586Y-34399D01*
X40600Y-34413D01*
X40629Y-34427D01*
X40714Y-34427D01*
X40743Y-34413D01*
X40757Y-34399D01*
X40771Y-34370D01*
X40771Y-34327D01*
X40771Y-34684D02*
X40614Y-34684D01*
X40586Y-34670D01*
X40571Y-34641D01*
X40571Y-34584D01*
X40586Y-34555D01*
X40757Y-34684D02*
X40771Y-34655D01*
X40771Y-34584D01*
X40757Y-34555D01*
X40729Y-34541D01*
X40700Y-34541D01*
X40671Y-34555D01*
X40657Y-34584D01*
X40657Y-34655D01*
X40643Y-34684D01*
X40771Y-34826D02*
X40571Y-34826D01*
X40629Y-34826D02*
X40600Y-34841D01*
X40586Y-34855D01*
X40571Y-34884D01*
X40571Y-34912D01*
X40771Y-35141D02*
X40471Y-35141D01*
X40757Y-35141D02*
X40771Y-35112D01*
X40771Y-35055D01*
X40757Y-35027D01*
X40743Y-35012D01*
X40714Y-34998D01*
X40629Y-34998D01*
X40600Y-35012D01*
X40586Y-35027D01*
X40571Y-35055D01*
X40571Y-35112D01*
X40586Y-35141D01*
X40771Y-35641D02*
X40471Y-35641D01*
X40757Y-35641D02*
X40771Y-35612D01*
X40771Y-35555D01*
X40757Y-35527D01*
X40743Y-35512D01*
X40714Y-35498D01*
X40629Y-35498D01*
X40600Y-35512D01*
X40586Y-35527D01*
X40571Y-35555D01*
X40571Y-35612D01*
X40586Y-35641D01*
X40757Y-35898D02*
X40771Y-35869D01*
X40771Y-35812D01*
X40757Y-35783D01*
X40729Y-35769D01*
X40614Y-35769D01*
X40586Y-35783D01*
X40571Y-35812D01*
X40571Y-35869D01*
X40586Y-35898D01*
X40614Y-35912D01*
X40643Y-35912D01*
X40671Y-35769D01*
X40757Y-36026D02*
X40771Y-36055D01*
X40771Y-36112D01*
X40757Y-36140D01*
X40729Y-36155D01*
X40714Y-36155D01*
X40686Y-36140D01*
X40671Y-36112D01*
X40671Y-36069D01*
X40657Y-36040D01*
X40629Y-36026D01*
X40614Y-36026D01*
X40586Y-36040D01*
X40571Y-36069D01*
X40571Y-36112D01*
X40586Y-36140D01*
X40771Y-36283D02*
X40571Y-36283D01*
X40471Y-36283D02*
X40486Y-36269D01*
X40500Y-36283D01*
X40486Y-36298D01*
X40471Y-36283D01*
X40500Y-36283D01*
X40571Y-36555D02*
X40814Y-36555D01*
X40843Y-36541D01*
X40857Y-36526D01*
X40871Y-36498D01*
X40871Y-36455D01*
X40857Y-36426D01*
X40757Y-36555D02*
X40771Y-36526D01*
X40771Y-36469D01*
X40757Y-36441D01*
X40743Y-36426D01*
X40714Y-36412D01*
X40629Y-36412D01*
X40600Y-36426D01*
X40586Y-36441D01*
X40571Y-36469D01*
X40571Y-36526D01*
X40586Y-36555D01*
X40571Y-36697D02*
X40771Y-36697D01*
X40600Y-36697D02*
X40586Y-36712D01*
X40571Y-36740D01*
X40571Y-36783D01*
X40586Y-36812D01*
X40614Y-36826D01*
X40771Y-36826D01*
X40743Y-36968D02*
X40757Y-36983D01*
X40771Y-36968D01*
X40757Y-36954D01*
X40743Y-36968D01*
X40771Y-36968D01*
X40586Y-36968D02*
X40600Y-36983D01*
X40614Y-36968D01*
X40600Y-36954D01*
X40586Y-36968D01*
X40614Y-36968D01*
X41261Y-33555D02*
X40961Y-33555D01*
X40961Y-33670D01*
X40976Y-33698D01*
X40990Y-33713D01*
X41019Y-33727D01*
X41061Y-33727D01*
X41090Y-33713D01*
X41104Y-33698D01*
X41119Y-33670D01*
X41119Y-33555D01*
X41247Y-33970D02*
X41261Y-33941D01*
X41261Y-33884D01*
X41247Y-33855D01*
X41219Y-33841D01*
X41104Y-33841D01*
X41076Y-33855D01*
X41061Y-33884D01*
X41061Y-33941D01*
X41076Y-33970D01*
X41104Y-33984D01*
X41133Y-33984D01*
X41161Y-33841D01*
X41061Y-34070D02*
X41061Y-34184D01*
X40961Y-34112D02*
X41219Y-34112D01*
X41247Y-34127D01*
X41261Y-34155D01*
X41261Y-34184D01*
X41247Y-34398D02*
X41261Y-34369D01*
X41261Y-34312D01*
X41247Y-34283D01*
X41219Y-34269D01*
X41104Y-34269D01*
X41076Y-34283D01*
X41061Y-34312D01*
X41061Y-34369D01*
X41076Y-34398D01*
X41104Y-34412D01*
X41133Y-34412D01*
X41161Y-34269D01*
X41261Y-34540D02*
X41061Y-34540D01*
X41119Y-34540D02*
X41090Y-34555D01*
X41076Y-34569D01*
X41061Y-34598D01*
X41061Y-34626D01*
X41104Y-35055D02*
X41104Y-34955D01*
X41261Y-34955D02*
X40961Y-34955D01*
X40961Y-35098D01*
X41261Y-35255D02*
X41247Y-35227D01*
X41219Y-35212D01*
X40961Y-35212D01*
X41247Y-35484D02*
X41261Y-35455D01*
X41261Y-35398D01*
X41247Y-35369D01*
X41219Y-35355D01*
X41104Y-35355D01*
X41076Y-35369D01*
X41061Y-35398D01*
X41061Y-35455D01*
X41076Y-35484D01*
X41104Y-35498D01*
X41133Y-35498D01*
X41161Y-35355D01*
X41261Y-35626D02*
X41061Y-35626D01*
X41090Y-35626D02*
X41076Y-35641D01*
X41061Y-35669D01*
X41061Y-35712D01*
X41076Y-35741D01*
X41104Y-35755D01*
X41261Y-35755D01*
X41104Y-35755D02*
X41076Y-35769D01*
X41061Y-35798D01*
X41061Y-35841D01*
X41076Y-35869D01*
X41104Y-35884D01*
X41261Y-35884D01*
X41261Y-36026D02*
X41061Y-36026D01*
X41090Y-36026D02*
X41076Y-36041D01*
X41061Y-36069D01*
X41061Y-36112D01*
X41076Y-36141D01*
X41104Y-36155D01*
X41261Y-36155D01*
X41104Y-36155D02*
X41076Y-36169D01*
X41061Y-36198D01*
X41061Y-36241D01*
X41076Y-36269D01*
X41104Y-36284D01*
X41261Y-36284D01*
X41261Y-36426D02*
X41061Y-36426D01*
X40961Y-36426D02*
X40976Y-36412D01*
X40990Y-36426D01*
X40976Y-36441D01*
X40961Y-36426D01*
X40990Y-36426D01*
X41061Y-36569D02*
X41261Y-36569D01*
X41090Y-36569D02*
X41076Y-36584D01*
X41061Y-36612D01*
X41061Y-36655D01*
X41076Y-36684D01*
X41104Y-36698D01*
X41261Y-36698D01*
X41061Y-36969D02*
X41304Y-36969D01*
X41333Y-36955D01*
X41347Y-36940D01*
X41361Y-36912D01*
X41361Y-36869D01*
X41347Y-36840D01*
X41247Y-36969D02*
X41261Y-36940D01*
X41261Y-36883D01*
X41247Y-36855D01*
X41233Y-36840D01*
X41204Y-36826D01*
X41119Y-36826D01*
X41090Y-36840D01*
X41076Y-36855D01*
X41061Y-36883D01*
X41061Y-36940D01*
X41076Y-36969D01*
X41451Y-33110D02*
X41666Y-33110D01*
X41709Y-33096D01*
X41737Y-33067D01*
X41751Y-33024D01*
X41751Y-32996D01*
X41551Y-33382D02*
X41751Y-33382D01*
X41551Y-33253D02*
X41709Y-33253D01*
X41737Y-33268D01*
X41751Y-33296D01*
X41751Y-33339D01*
X41737Y-33368D01*
X41723Y-33382D01*
X41551Y-33524D02*
X41751Y-33524D01*
X41580Y-33524D02*
X41566Y-33539D01*
X41551Y-33567D01*
X41551Y-33610D01*
X41566Y-33639D01*
X41594Y-33653D01*
X41751Y-33653D01*
X41737Y-33910D02*
X41751Y-33881D01*
X41751Y-33824D01*
X41737Y-33795D01*
X41709Y-33781D01*
X41594Y-33781D01*
X41566Y-33795D01*
X41551Y-33824D01*
X41551Y-33881D01*
X41566Y-33910D01*
X41594Y-33924D01*
X41623Y-33924D01*
X41651Y-33781D01*
X41480Y-34267D02*
X41466Y-34281D01*
X41451Y-34310D01*
X41451Y-34381D01*
X41466Y-34410D01*
X41480Y-34424D01*
X41509Y-34439D01*
X41537Y-34439D01*
X41580Y-34424D01*
X41751Y-34253D01*
X41751Y-34439D01*
X41451Y-34625D02*
X41451Y-34653D01*
X41466Y-34682D01*
X41480Y-34696D01*
X41509Y-34710D01*
X41566Y-34725D01*
X41637Y-34725D01*
X41694Y-34710D01*
X41723Y-34696D01*
X41737Y-34682D01*
X41751Y-34653D01*
X41751Y-34625D01*
X41737Y-34596D01*
X41723Y-34582D01*
X41694Y-34567D01*
X41637Y-34553D01*
X41566Y-34553D01*
X41509Y-34567D01*
X41480Y-34582D01*
X41466Y-34596D01*
X41451Y-34625D01*
X41751Y-35011D02*
X41751Y-34839D01*
X41751Y-34925D02*
X41451Y-34925D01*
X41494Y-34896D01*
X41523Y-34868D01*
X41537Y-34839D01*
X41551Y-35268D02*
X41751Y-35268D01*
X41437Y-35197D02*
X41651Y-35125D01*
X41651Y-35311D01*
X41737Y-35440D02*
X41751Y-35440D01*
X41780Y-35425D01*
X41794Y-35411D01*
X41451Y-35755D02*
X41451Y-35926D01*
X41751Y-35840D02*
X41451Y-35840D01*
X41751Y-36155D02*
X41594Y-36155D01*
X41566Y-36141D01*
X41551Y-36112D01*
X41551Y-36055D01*
X41566Y-36026D01*
X41737Y-36155D02*
X41751Y-36126D01*
X41751Y-36055D01*
X41737Y-36026D01*
X41709Y-36012D01*
X41680Y-36012D01*
X41651Y-36026D01*
X41637Y-36055D01*
X41637Y-36126D01*
X41623Y-36155D01*
X41751Y-36297D02*
X41551Y-36297D01*
X41451Y-36297D02*
X41466Y-36283D01*
X41480Y-36297D01*
X41466Y-36312D01*
X41451Y-36297D01*
X41480Y-36297D01*
X41551Y-36440D02*
X41851Y-36440D01*
X41566Y-36440D02*
X41551Y-36469D01*
X41551Y-36526D01*
X41566Y-36555D01*
X41580Y-36569D01*
X41609Y-36583D01*
X41694Y-36583D01*
X41723Y-36569D01*
X41737Y-36555D01*
X41751Y-36526D01*
X41751Y-36469D01*
X41737Y-36440D01*
X41737Y-36826D02*
X41751Y-36797D01*
X41751Y-36740D01*
X41737Y-36711D01*
X41709Y-36697D01*
X41594Y-36697D01*
X41566Y-36711D01*
X41551Y-36740D01*
X41551Y-36797D01*
X41566Y-36826D01*
X41594Y-36840D01*
X41623Y-36840D01*
X41651Y-36697D01*
X41751Y-36968D02*
X41551Y-36968D01*
X41451Y-36968D02*
X41466Y-36954D01*
X41480Y-36968D01*
X41466Y-36983D01*
X41451Y-36968D01*
X41480Y-36968D01*
X42041Y-33228D02*
X42341Y-33228D01*
X42056Y-33228D02*
X42041Y-33257D01*
X42041Y-33314D01*
X42056Y-33343D01*
X42070Y-33357D01*
X42099Y-33371D01*
X42184Y-33371D01*
X42213Y-33357D01*
X42227Y-33343D01*
X42241Y-33314D01*
X42241Y-33257D01*
X42227Y-33228D01*
X42227Y-33614D02*
X42241Y-33585D01*
X42241Y-33528D01*
X42227Y-33499D01*
X42199Y-33485D01*
X42084Y-33485D01*
X42056Y-33499D01*
X42041Y-33528D01*
X42041Y-33585D01*
X42056Y-33614D01*
X42084Y-33628D01*
X42113Y-33628D01*
X42141Y-33485D01*
X42041Y-33714D02*
X42041Y-33828D01*
X41941Y-33756D02*
X42199Y-33756D01*
X42227Y-33771D01*
X42241Y-33799D01*
X42241Y-33828D01*
X42227Y-34042D02*
X42241Y-34013D01*
X42241Y-33956D01*
X42227Y-33927D01*
X42199Y-33913D01*
X42084Y-33913D01*
X42056Y-33927D01*
X42041Y-33956D01*
X42041Y-34013D01*
X42056Y-34042D01*
X42084Y-34056D01*
X42113Y-34056D01*
X42141Y-33913D01*
X42241Y-34184D02*
X42041Y-34184D01*
X42099Y-34184D02*
X42070Y-34199D01*
X42056Y-34213D01*
X42041Y-34242D01*
X42041Y-34270D01*
X42041Y-34328D02*
X42041Y-34442D01*
X42241Y-34370D02*
X41984Y-34370D01*
X41956Y-34385D01*
X41941Y-34413D01*
X41941Y-34442D01*
X42241Y-34584D02*
X42227Y-34556D01*
X42199Y-34541D01*
X41941Y-34541D01*
X42227Y-34813D02*
X42241Y-34784D01*
X42241Y-34727D01*
X42227Y-34698D01*
X42199Y-34684D01*
X42084Y-34684D01*
X42056Y-34698D01*
X42041Y-34727D01*
X42041Y-34784D01*
X42056Y-34813D01*
X42084Y-34827D01*
X42113Y-34827D01*
X42141Y-34684D01*
X42241Y-34955D02*
X42041Y-34955D01*
X42070Y-34955D02*
X42056Y-34970D01*
X42041Y-34998D01*
X42041Y-35041D01*
X42056Y-35070D01*
X42084Y-35084D01*
X42241Y-35084D01*
X42084Y-35084D02*
X42056Y-35098D01*
X42041Y-35127D01*
X42041Y-35170D01*
X42056Y-35198D01*
X42084Y-35213D01*
X42241Y-35213D01*
X42241Y-35355D02*
X42041Y-35355D01*
X42070Y-35355D02*
X42056Y-35370D01*
X42041Y-35398D01*
X42041Y-35441D01*
X42056Y-35470D01*
X42084Y-35484D01*
X42241Y-35484D01*
X42084Y-35484D02*
X42056Y-35498D01*
X42041Y-35527D01*
X42041Y-35570D01*
X42056Y-35598D01*
X42084Y-35613D01*
X42241Y-35613D01*
X42241Y-35755D02*
X42041Y-35755D01*
X41941Y-35755D02*
X41956Y-35741D01*
X41970Y-35755D01*
X41956Y-35770D01*
X41941Y-35755D01*
X41970Y-35755D01*
X42041Y-35898D02*
X42241Y-35898D01*
X42070Y-35898D02*
X42056Y-35913D01*
X42041Y-35941D01*
X42041Y-35984D01*
X42056Y-36013D01*
X42084Y-36027D01*
X42241Y-36027D01*
X42041Y-36298D02*
X42284Y-36298D01*
X42313Y-36284D01*
X42327Y-36269D01*
X42341Y-36241D01*
X42341Y-36198D01*
X42327Y-36169D01*
X42227Y-36298D02*
X42241Y-36269D01*
X42241Y-36212D01*
X42227Y-36184D01*
X42213Y-36169D01*
X42184Y-36155D01*
X42099Y-36155D01*
X42070Y-36169D01*
X42056Y-36184D01*
X42041Y-36212D01*
X42041Y-36269D01*
X42056Y-36298D01*
X42213Y-36440D02*
X42227Y-36455D01*
X42241Y-36440D01*
X42227Y-36426D01*
X42213Y-36440D01*
X42241Y-36440D01*
X42227Y-36712D02*
X42241Y-36683D01*
X42241Y-36626D01*
X42227Y-36598D01*
X42213Y-36583D01*
X42184Y-36569D01*
X42099Y-36569D01*
X42070Y-36583D01*
X42056Y-36598D01*
X42041Y-36626D01*
X42041Y-36683D01*
X42056Y-36712D01*
X42241Y-36969D02*
X42084Y-36969D01*
X42056Y-36955D01*
X42041Y-36926D01*
X42041Y-36869D01*
X42056Y-36840D01*
X42227Y-36969D02*
X42241Y-36940D01*
X42241Y-36869D01*
X42227Y-36840D01*
X42199Y-36826D01*
X42170Y-36826D01*
X42141Y-36840D01*
X42127Y-36869D01*
X42127Y-36940D01*
X42113Y-36969D01*
G54D12*
X38782Y-36776D02*
X38332Y-36776D01*
X38782Y-37033D01*
X38332Y-37033D01*
X38782Y-37311D02*
X38761Y-37269D01*
X38739Y-37247D01*
X38696Y-37226D01*
X38568Y-37226D01*
X38525Y-37247D01*
X38504Y-37269D01*
X38482Y-37311D01*
X38482Y-37376D01*
X38504Y-37419D01*
X38525Y-37440D01*
X38568Y-37461D01*
X38696Y-37461D01*
X38739Y-37440D01*
X38761Y-37419D01*
X38782Y-37376D01*
X38782Y-37311D01*
X38782Y-37654D02*
X38482Y-37654D01*
X38568Y-37654D02*
X38525Y-37676D01*
X38504Y-37697D01*
X38482Y-37740D01*
X38482Y-37783D01*
X38782Y-37933D02*
X38482Y-37933D01*
X38525Y-37933D02*
X38504Y-37955D01*
X38482Y-37997D01*
X38482Y-38062D01*
X38504Y-38105D01*
X38546Y-38126D01*
X38782Y-38126D01*
X38546Y-38126D02*
X38504Y-38147D01*
X38482Y-38190D01*
X38482Y-38255D01*
X38504Y-38297D01*
X38546Y-38319D01*
X38782Y-38319D01*
X38782Y-38726D02*
X38546Y-38726D01*
X38504Y-38705D01*
X38482Y-38662D01*
X38482Y-38576D01*
X38504Y-38533D01*
X38761Y-38726D02*
X38782Y-38683D01*
X38782Y-38576D01*
X38761Y-38533D01*
X38718Y-38512D01*
X38675Y-38512D01*
X38632Y-38533D01*
X38611Y-38576D01*
X38611Y-38683D01*
X38589Y-38726D01*
X38482Y-38940D02*
X38782Y-38940D01*
X38525Y-38940D02*
X38504Y-38962D01*
X38482Y-39004D01*
X38482Y-39069D01*
X38504Y-39112D01*
X38546Y-39133D01*
X38782Y-39133D01*
X38332Y-39647D02*
X38782Y-39754D01*
X38461Y-39840D01*
X38782Y-39926D01*
X38332Y-40033D01*
X38782Y-40204D02*
X38332Y-40204D01*
X38782Y-40397D02*
X38546Y-40397D01*
X38504Y-40376D01*
X38482Y-40333D01*
X38482Y-40268D01*
X38504Y-40226D01*
X38525Y-40204D01*
X38782Y-40611D02*
X38482Y-40611D01*
X38332Y-40611D02*
X38354Y-40590D01*
X38375Y-40611D01*
X38354Y-40633D01*
X38332Y-40611D01*
X38375Y-40611D01*
X38482Y-40761D02*
X38482Y-40932D01*
X38332Y-40825D02*
X38718Y-40825D01*
X38761Y-40847D01*
X38782Y-40889D01*
X38782Y-40932D01*
X38761Y-41254D02*
X38782Y-41211D01*
X38782Y-41125D01*
X38761Y-41082D01*
X38718Y-41061D01*
X38546Y-41061D01*
X38504Y-41082D01*
X38482Y-41125D01*
X38482Y-41211D01*
X38504Y-41254D01*
X38546Y-41275D01*
X38589Y-41275D01*
X38632Y-41061D01*
X38332Y-41490D02*
X38418Y-41447D01*
X38761Y-41661D02*
X38782Y-41704D01*
X38782Y-41789D01*
X38761Y-41832D01*
X38718Y-41854D01*
X38696Y-41854D01*
X38654Y-41832D01*
X38632Y-41789D01*
X38632Y-41725D01*
X38611Y-41682D01*
X38568Y-41661D01*
X38546Y-41661D01*
X38504Y-41682D01*
X38482Y-41725D01*
X38482Y-41789D01*
X38504Y-41832D01*
X38782Y-42389D02*
X38332Y-42389D01*
X38782Y-42646D01*
X38332Y-42646D01*
X38761Y-43032D02*
X38782Y-42989D01*
X38782Y-42903D01*
X38761Y-42860D01*
X38718Y-42839D01*
X38546Y-42839D01*
X38504Y-42860D01*
X38482Y-42903D01*
X38482Y-42989D01*
X38504Y-43032D01*
X38546Y-43053D01*
X38589Y-43053D01*
X38632Y-42839D01*
X38482Y-43439D02*
X38782Y-43439D01*
X38482Y-43246D02*
X38718Y-43246D01*
X38761Y-43268D01*
X38782Y-43310D01*
X38782Y-43375D01*
X38761Y-43418D01*
X38739Y-43439D01*
X38782Y-43653D02*
X38482Y-43653D01*
X38568Y-43653D02*
X38525Y-43675D01*
X38504Y-43696D01*
X38482Y-43739D01*
X38482Y-43782D01*
X38782Y-43996D02*
X38761Y-43954D01*
X38739Y-43932D01*
X38696Y-43911D01*
X38568Y-43911D01*
X38525Y-43932D01*
X38504Y-43954D01*
X38482Y-43996D01*
X38482Y-44061D01*
X38504Y-44104D01*
X38525Y-44125D01*
X38568Y-44146D01*
X38696Y-44146D01*
X38739Y-44125D01*
X38761Y-44104D01*
X38782Y-44061D01*
X38782Y-43996D01*
X38782Y-44339D02*
X38482Y-44339D01*
X38525Y-44339D02*
X38504Y-44361D01*
X38482Y-44403D01*
X38482Y-44468D01*
X38504Y-44511D01*
X38546Y-44532D01*
X38782Y-44532D01*
X38546Y-44532D02*
X38504Y-44553D01*
X38482Y-44596D01*
X38482Y-44661D01*
X38504Y-44703D01*
X38546Y-44725D01*
X38782Y-44725D01*
X38782Y-44939D02*
X38482Y-44939D01*
X38332Y-44939D02*
X38354Y-44918D01*
X38375Y-44939D01*
X38354Y-44961D01*
X38332Y-44939D01*
X38375Y-44939D01*
X38782Y-45153D02*
X38482Y-45153D01*
X38525Y-45153D02*
X38504Y-45175D01*
X38482Y-45217D01*
X38482Y-45282D01*
X38504Y-45325D01*
X38546Y-45346D01*
X38782Y-45346D01*
X38546Y-45346D02*
X38504Y-45367D01*
X38482Y-45410D01*
X38482Y-45475D01*
X38504Y-45517D01*
X38546Y-45539D01*
X38782Y-45539D01*
X38761Y-45925D02*
X38782Y-45882D01*
X38782Y-45796D01*
X38761Y-45753D01*
X38718Y-45732D01*
X38546Y-45732D01*
X38504Y-45753D01*
X38482Y-45796D01*
X38482Y-45882D01*
X38504Y-45925D01*
X38546Y-45946D01*
X38589Y-45946D01*
X38632Y-45732D01*
M02*
