M48
;DRILL file {Pcbnew (2012-apr-16-27)-stable} date Mon 30 Jun 2014 11:25:55 PM CST
;FORMAT={2:4/ absolute / inch / suppress trailing zeros}
FMAT,2
INCH,LZ
T1C0.020
T2C0.028
T3C0.032
T4C0.035
T5C0.052
T6C0.059
T7C0.120
%
G90
G05
M72
T1
X0404Y0349
X0414Y04495
X05145Y04175
T2
X0397Y0375
X0397Y0385
X0397Y0395
X0397Y0405
X0397Y0415
X0397Y0425
X05425Y0385
X05425Y0425
X05435Y0405
X05525Y0385
X05525Y0425
X05535Y0405
T3
X0392Y04365
X0402Y04365
X04075Y0375
X04075Y0385
X04075Y0395
X04075Y0405
X04075Y0415
X04075Y0425
X04175Y0375
X04175Y0385
X04175Y0395
X04175Y0405
X04275Y0355
X04275Y0365
X04275Y0375
X04275Y0385
X04275Y0395
X04275Y0405
X04275Y0415
X04275Y0425
X04375Y0355
X04375Y0365
X04375Y0375
X04375Y0385
X04375Y0395
X04375Y0405
X04475Y0355
X04475Y0365
X04475Y0375
X04475Y0385
X04475Y0395
X04475Y0405
X04475Y0415
X04475Y0425
X0453Y0454
X0453Y0464
X0453Y0474
X0453Y0484
X04535Y0441
X04575Y0375
X04575Y0385
X04575Y0395
X04575Y0405
X04635Y0441
X0468Y04655
X0468Y04755
X04735Y0441
X0475Y03725
X0475Y03825
X0479Y03405
X0483Y0454
X0483Y0464
X0483Y0474
X0483Y0484
X04835Y0441
X0489Y03405
X0491Y03725
X0491Y03825
X0491Y03925
X0491Y04025
X0491Y04125
X0491Y04225
X0491Y04325
X04975Y04615
X04975Y04715
X04975Y0483
X04975Y0493
X04995Y03355
X04995Y03455
X0506Y03675
X0506Y03775
X0506Y03875
X0506Y03975
X0506Y04075
X0506Y04175
X0506Y04275
X0506Y04375
X05075Y04615
X05075Y04715
X05095Y03355
X05095Y03455
X05175Y04615
X05175Y04715
X05195Y03355
X05195Y03455
X0521Y03725
X0521Y03825
X0521Y03925
X0521Y04025
X0521Y04125
X0521Y04225
X0521Y04325
X0532Y0405
X0532Y0415
X0532Y0425
X05425Y0375
X05425Y0395
X05425Y0415
X05525Y0375
X05525Y0395
X05525Y0415
T4
X03865Y03625
X03965Y03625
X042093Y044043
X042093Y045457
X0428Y04475
X043507Y045457
X0438Y03235
X0438Y03335
X04565Y0334
X04595Y0352
X04595Y0362
X04665Y0334
X04725Y0419
X04725Y0429
X0475Y035
X0475Y036
X0477Y03195
X0487Y03195
X049Y03565
X05Y03565
X0505Y0301
X0505Y0311
X05105Y04915
X05195Y0357
X05205Y04915
X0529Y0436
X0529Y0446
X05295Y0357
X0542Y0435
X0542Y0445
X05605Y036
X0566Y0434
X0566Y0444
X05705Y036
T5
X0375Y038622
X0375Y04
X0375Y041378
X039526Y033974
X039526Y046026
X0405Y033
X0405Y047
X041474Y032026
X041474Y047974
X053526Y032026
X053526Y047974
X0545Y033
X0545Y047
X055474Y033974
X055474Y046026
X0575Y038622
X0575Y04
X0575Y041378
T6
X04672Y03
X04672Y05
X04828Y03
X04828Y05
T7
X0436Y0487
X04455Y03065
X0475Y04
T0
M30
