G04 #@! TF.GenerationSoftware,KiCad,Pcbnew,5.0.2-bee76a0~70~ubuntu18.04.1*
G04 #@! TF.CreationDate,2019-08-26T16:36:03-04:00*
G04 #@! TF.ProjectId,neuromime_1.0.1_minor_corr,6e657572-6f6d-4696-9d65-5f312e302e31,rev?*
G04 #@! TF.SameCoordinates,Original*
G04 #@! TF.FileFunction,Legend,Bot*
G04 #@! TF.FilePolarity,Positive*
%FSLAX46Y46*%
G04 Gerber Fmt 4.6, Leading zero omitted, Abs format (unit mm)*
G04 Created by KiCad (PCBNEW 5.0.2-bee76a0~70~ubuntu18.04.1) date Mon 26 Aug 2019 04:36:03 PM EDT*
%MOMM*%
%LPD*%
G01*
G04 APERTURE LIST*
%ADD10C,0.200000*%
%ADD11C,0.150000*%
G04 APERTURE END LIST*
D10*
X148798571Y-53316666D02*
X148370000Y-53316666D01*
X148884285Y-53602380D02*
X148584285Y-52602380D01*
X148284285Y-53602380D01*
X147598571Y-52935714D02*
X147598571Y-53602380D01*
X147984285Y-52935714D02*
X147984285Y-53459523D01*
X147941428Y-53554761D01*
X147855714Y-53602380D01*
X147727142Y-53602380D01*
X147641428Y-53554761D01*
X147598571Y-53507142D01*
X146784285Y-52935714D02*
X146784285Y-53745238D01*
X146827142Y-53840476D01*
X146870000Y-53888095D01*
X146955714Y-53935714D01*
X147084285Y-53935714D01*
X147170000Y-53888095D01*
X146784285Y-53554761D02*
X146870000Y-53602380D01*
X147041428Y-53602380D01*
X147127142Y-53554761D01*
X147170000Y-53507142D01*
X147212857Y-53411904D01*
X147212857Y-53126190D01*
X147170000Y-53030952D01*
X147127142Y-52983333D01*
X147041428Y-52935714D01*
X146870000Y-52935714D01*
X146784285Y-52983333D01*
X145970000Y-52935714D02*
X145970000Y-53602380D01*
X146355714Y-52935714D02*
X146355714Y-53459523D01*
X146312857Y-53554761D01*
X146227142Y-53602380D01*
X146098571Y-53602380D01*
X146012857Y-53554761D01*
X145970000Y-53507142D01*
X145584285Y-53554761D02*
X145498571Y-53602380D01*
X145327142Y-53602380D01*
X145241428Y-53554761D01*
X145198571Y-53459523D01*
X145198571Y-53411904D01*
X145241428Y-53316666D01*
X145327142Y-53269047D01*
X145455714Y-53269047D01*
X145541428Y-53221428D01*
X145584285Y-53126190D01*
X145584285Y-53078571D01*
X145541428Y-52983333D01*
X145455714Y-52935714D01*
X145327142Y-52935714D01*
X145241428Y-52983333D01*
X144941428Y-52935714D02*
X144598571Y-52935714D01*
X144812857Y-52602380D02*
X144812857Y-53459523D01*
X144770000Y-53554761D01*
X144684285Y-53602380D01*
X144598571Y-53602380D01*
X143655714Y-52697619D02*
X143612857Y-52650000D01*
X143527142Y-52602380D01*
X143312857Y-52602380D01*
X143227142Y-52650000D01*
X143184285Y-52697619D01*
X143141428Y-52792857D01*
X143141428Y-52888095D01*
X143184285Y-53030952D01*
X143698571Y-53602380D01*
X143141428Y-53602380D01*
X142584285Y-52602380D02*
X142498571Y-52602380D01*
X142412857Y-52650000D01*
X142370000Y-52697619D01*
X142327142Y-52792857D01*
X142284285Y-52983333D01*
X142284285Y-53221428D01*
X142327142Y-53411904D01*
X142370000Y-53507142D01*
X142412857Y-53554761D01*
X142498571Y-53602380D01*
X142584285Y-53602380D01*
X142670000Y-53554761D01*
X142712857Y-53507142D01*
X142755714Y-53411904D01*
X142798571Y-53221428D01*
X142798571Y-52983333D01*
X142755714Y-52792857D01*
X142712857Y-52697619D01*
X142670000Y-52650000D01*
X142584285Y-52602380D01*
X141427142Y-53602380D02*
X141941428Y-53602380D01*
X141684285Y-53602380D02*
X141684285Y-52602380D01*
X141770000Y-52745238D01*
X141855714Y-52840476D01*
X141941428Y-52888095D01*
X140998571Y-53602380D02*
X140827142Y-53602380D01*
X140741428Y-53554761D01*
X140698571Y-53507142D01*
X140612857Y-53364285D01*
X140570000Y-53173809D01*
X140570000Y-52792857D01*
X140612857Y-52697619D01*
X140655714Y-52650000D01*
X140741428Y-52602380D01*
X140912857Y-52602380D01*
X140998571Y-52650000D01*
X141041428Y-52697619D01*
X141084285Y-52792857D01*
X141084285Y-53030952D01*
X141041428Y-53126190D01*
X140998571Y-53173809D01*
X140912857Y-53221428D01*
X140741428Y-53221428D01*
X140655714Y-53173809D01*
X140612857Y-53126190D01*
X140570000Y-53030952D01*
X148455714Y-54778571D02*
X148327142Y-54826190D01*
X148284285Y-54873809D01*
X148241428Y-54969047D01*
X148241428Y-55111904D01*
X148284285Y-55207142D01*
X148327142Y-55254761D01*
X148412857Y-55302380D01*
X148755714Y-55302380D01*
X148755714Y-54302380D01*
X148455714Y-54302380D01*
X148370000Y-54350000D01*
X148327142Y-54397619D01*
X148284285Y-54492857D01*
X148284285Y-54588095D01*
X148327142Y-54683333D01*
X148370000Y-54730952D01*
X148455714Y-54778571D01*
X148755714Y-54778571D01*
X147512857Y-55254761D02*
X147598571Y-55302380D01*
X147770000Y-55302380D01*
X147855714Y-55254761D01*
X147898571Y-55159523D01*
X147898571Y-54778571D01*
X147855714Y-54683333D01*
X147770000Y-54635714D01*
X147598571Y-54635714D01*
X147512857Y-54683333D01*
X147470000Y-54778571D01*
X147470000Y-54873809D01*
X147898571Y-54969047D01*
X147084285Y-55302380D02*
X147084285Y-54635714D01*
X147084285Y-54826190D02*
X147041428Y-54730952D01*
X146998571Y-54683333D01*
X146912857Y-54635714D01*
X146827142Y-54635714D01*
X146398571Y-55302380D02*
X146484285Y-55254761D01*
X146527142Y-55159523D01*
X146527142Y-54302380D01*
X146055714Y-55302380D02*
X146055714Y-54635714D01*
X146055714Y-54302380D02*
X146098571Y-54350000D01*
X146055714Y-54397619D01*
X146012857Y-54350000D01*
X146055714Y-54302380D01*
X146055714Y-54397619D01*
X145627142Y-54635714D02*
X145627142Y-55302380D01*
X145627142Y-54730952D02*
X145584285Y-54683333D01*
X145498571Y-54635714D01*
X145370000Y-54635714D01*
X145284285Y-54683333D01*
X145241428Y-54778571D01*
X145241428Y-55302380D01*
X144812857Y-54921428D02*
X144127142Y-54921428D01*
X143698571Y-55302380D02*
X143698571Y-54302380D01*
X143398571Y-55016666D01*
X143098571Y-54302380D01*
X143098571Y-55302380D01*
X142541428Y-55302380D02*
X142627142Y-55254761D01*
X142670000Y-55207142D01*
X142712857Y-55111904D01*
X142712857Y-54826190D01*
X142670000Y-54730952D01*
X142627142Y-54683333D01*
X142541428Y-54635714D01*
X142412857Y-54635714D01*
X142327142Y-54683333D01*
X142284285Y-54730952D01*
X142241428Y-54826190D01*
X142241428Y-55111904D01*
X142284285Y-55207142D01*
X142327142Y-55254761D01*
X142412857Y-55302380D01*
X142541428Y-55302380D01*
X141855714Y-54635714D02*
X141855714Y-55302380D01*
X141855714Y-54730952D02*
X141812857Y-54683333D01*
X141727142Y-54635714D01*
X141598571Y-54635714D01*
X141512857Y-54683333D01*
X141470000Y-54778571D01*
X141470000Y-55302380D01*
X141170000Y-54635714D02*
X140827142Y-54635714D01*
X141041428Y-54302380D02*
X141041428Y-55159523D01*
X140998571Y-55254761D01*
X140912857Y-55302380D01*
X140827142Y-55302380D01*
X140527142Y-55302380D02*
X140527142Y-54635714D01*
X140527142Y-54826190D02*
X140484285Y-54730952D01*
X140441428Y-54683333D01*
X140355714Y-54635714D01*
X140270000Y-54635714D01*
X139627142Y-55254761D02*
X139712857Y-55302380D01*
X139884285Y-55302380D01*
X139970000Y-55254761D01*
X140012857Y-55159523D01*
X140012857Y-54778571D01*
X139970000Y-54683333D01*
X139884285Y-54635714D01*
X139712857Y-54635714D01*
X139627142Y-54683333D01*
X139584285Y-54778571D01*
X139584285Y-54873809D01*
X140012857Y-54969047D01*
X139712857Y-54254761D02*
X139841428Y-54397619D01*
X138812857Y-55302380D02*
X138812857Y-54778571D01*
X138855714Y-54683333D01*
X138941428Y-54635714D01*
X139112857Y-54635714D01*
X139198571Y-54683333D01*
X138812857Y-55254761D02*
X138898571Y-55302380D01*
X139112857Y-55302380D01*
X139198571Y-55254761D01*
X139241428Y-55159523D01*
X139241428Y-55064285D01*
X139198571Y-54969047D01*
X139112857Y-54921428D01*
X138898571Y-54921428D01*
X138812857Y-54873809D01*
X138255714Y-55302380D02*
X138341428Y-55254761D01*
X138384285Y-55159523D01*
X138384285Y-54302380D01*
X165741428Y-68182142D02*
X165527142Y-68782142D01*
X165312857Y-68182142D01*
X164627142Y-68739285D02*
X164712857Y-68782142D01*
X164884285Y-68782142D01*
X164970000Y-68739285D01*
X165012857Y-68653571D01*
X165012857Y-68310714D01*
X164970000Y-68225000D01*
X164884285Y-68182142D01*
X164712857Y-68182142D01*
X164627142Y-68225000D01*
X164584285Y-68310714D01*
X164584285Y-68396428D01*
X165012857Y-68482142D01*
X164198571Y-68782142D02*
X164198571Y-68182142D01*
X164198571Y-68353571D02*
X164155714Y-68267857D01*
X164112857Y-68225000D01*
X164027142Y-68182142D01*
X163941428Y-68182142D01*
X163684285Y-68739285D02*
X163598571Y-68782142D01*
X163427142Y-68782142D01*
X163341428Y-68739285D01*
X163298571Y-68653571D01*
X163298571Y-68610714D01*
X163341428Y-68525000D01*
X163427142Y-68482142D01*
X163555714Y-68482142D01*
X163641428Y-68439285D01*
X163684285Y-68353571D01*
X163684285Y-68310714D01*
X163641428Y-68225000D01*
X163555714Y-68182142D01*
X163427142Y-68182142D01*
X163341428Y-68225000D01*
X162912857Y-68782142D02*
X162912857Y-68182142D01*
X162912857Y-67882142D02*
X162955714Y-67925000D01*
X162912857Y-67967857D01*
X162870000Y-67925000D01*
X162912857Y-67882142D01*
X162912857Y-67967857D01*
X162355714Y-68782142D02*
X162441428Y-68739285D01*
X162484285Y-68696428D01*
X162527142Y-68610714D01*
X162527142Y-68353571D01*
X162484285Y-68267857D01*
X162441428Y-68225000D01*
X162355714Y-68182142D01*
X162227142Y-68182142D01*
X162141428Y-68225000D01*
X162098571Y-68267857D01*
X162055714Y-68353571D01*
X162055714Y-68610714D01*
X162098571Y-68696428D01*
X162141428Y-68739285D01*
X162227142Y-68782142D01*
X162355714Y-68782142D01*
X161670000Y-68182142D02*
X161670000Y-68782142D01*
X161670000Y-68267857D02*
X161627142Y-68225000D01*
X161541428Y-68182142D01*
X161412857Y-68182142D01*
X161327142Y-68225000D01*
X161284285Y-68310714D01*
X161284285Y-68782142D01*
X159698571Y-68782142D02*
X160212857Y-68782142D01*
X159955714Y-68782142D02*
X159955714Y-67882142D01*
X160041428Y-68010714D01*
X160127142Y-68096428D01*
X160212857Y-68139285D01*
X159312857Y-68696428D02*
X159270000Y-68739285D01*
X159312857Y-68782142D01*
X159355714Y-68739285D01*
X159312857Y-68696428D01*
X159312857Y-68782142D01*
X158712857Y-67882142D02*
X158627142Y-67882142D01*
X158541428Y-67925000D01*
X158498571Y-67967857D01*
X158455714Y-68053571D01*
X158412857Y-68225000D01*
X158412857Y-68439285D01*
X158455714Y-68610714D01*
X158498571Y-68696428D01*
X158541428Y-68739285D01*
X158627142Y-68782142D01*
X158712857Y-68782142D01*
X158798571Y-68739285D01*
X158841428Y-68696428D01*
X158884285Y-68610714D01*
X158927142Y-68439285D01*
X158927142Y-68225000D01*
X158884285Y-68053571D01*
X158841428Y-67967857D01*
X158798571Y-67925000D01*
X158712857Y-67882142D01*
X158027142Y-68696428D02*
X157984285Y-68739285D01*
X158027142Y-68782142D01*
X158070000Y-68739285D01*
X158027142Y-68696428D01*
X158027142Y-68782142D01*
X157127142Y-68782142D02*
X157641428Y-68782142D01*
X157384285Y-68782142D02*
X157384285Y-67882142D01*
X157470000Y-68010714D01*
X157555714Y-68096428D01*
X157641428Y-68139285D01*
X165398571Y-70675000D02*
X165441428Y-70632142D01*
X165527142Y-70503571D01*
X165570000Y-70417857D01*
X165612857Y-70289285D01*
X165655714Y-70075000D01*
X165655714Y-69903571D01*
X165612857Y-69689285D01*
X165570000Y-69560714D01*
X165527142Y-69475000D01*
X165441428Y-69346428D01*
X165398571Y-69303571D01*
X165055714Y-70332142D02*
X165055714Y-69732142D01*
X165055714Y-69817857D02*
X165012857Y-69775000D01*
X164927142Y-69732142D01*
X164798571Y-69732142D01*
X164712857Y-69775000D01*
X164670000Y-69860714D01*
X164670000Y-70332142D01*
X164670000Y-69860714D02*
X164627142Y-69775000D01*
X164541428Y-69732142D01*
X164412857Y-69732142D01*
X164327142Y-69775000D01*
X164284285Y-69860714D01*
X164284285Y-70332142D01*
X163855714Y-70332142D02*
X163855714Y-69732142D01*
X163855714Y-69432142D02*
X163898571Y-69475000D01*
X163855714Y-69517857D01*
X163812857Y-69475000D01*
X163855714Y-69432142D01*
X163855714Y-69517857D01*
X163427142Y-69732142D02*
X163427142Y-70332142D01*
X163427142Y-69817857D02*
X163384285Y-69775000D01*
X163298571Y-69732142D01*
X163170000Y-69732142D01*
X163084285Y-69775000D01*
X163041428Y-69860714D01*
X163041428Y-70332142D01*
X162484285Y-70332142D02*
X162570000Y-70289285D01*
X162612857Y-70246428D01*
X162655714Y-70160714D01*
X162655714Y-69903571D01*
X162612857Y-69817857D01*
X162570000Y-69775000D01*
X162484285Y-69732142D01*
X162355714Y-69732142D01*
X162270000Y-69775000D01*
X162227142Y-69817857D01*
X162184285Y-69903571D01*
X162184285Y-70160714D01*
X162227142Y-70246428D01*
X162270000Y-70289285D01*
X162355714Y-70332142D01*
X162484285Y-70332142D01*
X161798571Y-70332142D02*
X161798571Y-69732142D01*
X161798571Y-69903571D02*
X161755714Y-69817857D01*
X161712857Y-69775000D01*
X161627142Y-69732142D01*
X161541428Y-69732142D01*
X160170000Y-70289285D02*
X160255714Y-70332142D01*
X160427142Y-70332142D01*
X160512857Y-70289285D01*
X160555714Y-70246428D01*
X160598571Y-70160714D01*
X160598571Y-69903571D01*
X160555714Y-69817857D01*
X160512857Y-69775000D01*
X160427142Y-69732142D01*
X160255714Y-69732142D01*
X160170000Y-69775000D01*
X159655714Y-70332142D02*
X159741428Y-70289285D01*
X159784285Y-70246428D01*
X159827142Y-70160714D01*
X159827142Y-69903571D01*
X159784285Y-69817857D01*
X159741428Y-69775000D01*
X159655714Y-69732142D01*
X159527142Y-69732142D01*
X159441428Y-69775000D01*
X159398571Y-69817857D01*
X159355714Y-69903571D01*
X159355714Y-70160714D01*
X159398571Y-70246428D01*
X159441428Y-70289285D01*
X159527142Y-70332142D01*
X159655714Y-70332142D01*
X158970000Y-70332142D02*
X158970000Y-69732142D01*
X158970000Y-69903571D02*
X158927142Y-69817857D01*
X158884285Y-69775000D01*
X158798571Y-69732142D01*
X158712857Y-69732142D01*
X158412857Y-70332142D02*
X158412857Y-69732142D01*
X158412857Y-69903571D02*
X158370000Y-69817857D01*
X158327142Y-69775000D01*
X158241428Y-69732142D01*
X158155714Y-69732142D01*
X157512857Y-70289285D02*
X157598571Y-70332142D01*
X157770000Y-70332142D01*
X157855714Y-70289285D01*
X157898571Y-70203571D01*
X157898571Y-69860714D01*
X157855714Y-69775000D01*
X157770000Y-69732142D01*
X157598571Y-69732142D01*
X157512857Y-69775000D01*
X157470000Y-69860714D01*
X157470000Y-69946428D01*
X157898571Y-70032142D01*
X156698571Y-70289285D02*
X156784285Y-70332142D01*
X156955714Y-70332142D01*
X157041428Y-70289285D01*
X157084285Y-70246428D01*
X157127142Y-70160714D01*
X157127142Y-69903571D01*
X157084285Y-69817857D01*
X157041428Y-69775000D01*
X156955714Y-69732142D01*
X156784285Y-69732142D01*
X156698571Y-69775000D01*
X156441428Y-69732142D02*
X156098571Y-69732142D01*
X156312857Y-69432142D02*
X156312857Y-70203571D01*
X156270000Y-70289285D01*
X156184285Y-70332142D01*
X156098571Y-70332142D01*
X155798571Y-70332142D02*
X155798571Y-69732142D01*
X155798571Y-69432142D02*
X155841428Y-69475000D01*
X155798571Y-69517857D01*
X155755714Y-69475000D01*
X155798571Y-69432142D01*
X155798571Y-69517857D01*
X155241428Y-70332142D02*
X155327142Y-70289285D01*
X155370000Y-70246428D01*
X155412857Y-70160714D01*
X155412857Y-69903571D01*
X155370000Y-69817857D01*
X155327142Y-69775000D01*
X155241428Y-69732142D01*
X155112857Y-69732142D01*
X155027142Y-69775000D01*
X154984285Y-69817857D01*
X154941428Y-69903571D01*
X154941428Y-70160714D01*
X154984285Y-70246428D01*
X155027142Y-70289285D01*
X155112857Y-70332142D01*
X155241428Y-70332142D01*
X154555714Y-69732142D02*
X154555714Y-70332142D01*
X154555714Y-69817857D02*
X154512857Y-69775000D01*
X154427142Y-69732142D01*
X154298571Y-69732142D01*
X154212857Y-69775000D01*
X154170000Y-69860714D01*
X154170000Y-70332142D01*
X153784285Y-70289285D02*
X153698571Y-70332142D01*
X153527142Y-70332142D01*
X153441428Y-70289285D01*
X153398571Y-70203571D01*
X153398571Y-70160714D01*
X153441428Y-70075000D01*
X153527142Y-70032142D01*
X153655714Y-70032142D01*
X153741428Y-69989285D01*
X153784285Y-69903571D01*
X153784285Y-69860714D01*
X153741428Y-69775000D01*
X153655714Y-69732142D01*
X153527142Y-69732142D01*
X153441428Y-69775000D01*
X153098571Y-70675000D02*
X153055714Y-70632142D01*
X152970000Y-70503571D01*
X152927142Y-70417857D01*
X152884285Y-70289285D01*
X152841428Y-70075000D01*
X152841428Y-69903571D01*
X152884285Y-69689285D01*
X152927142Y-69560714D01*
X152970000Y-69475000D01*
X153055714Y-69346428D01*
X153098571Y-69303571D01*
X162436666Y-73307142D02*
X162436666Y-74035714D01*
X162474761Y-74121428D01*
X162512857Y-74164285D01*
X162589047Y-74207142D01*
X162703333Y-74207142D01*
X162779523Y-74164285D01*
X162436666Y-73864285D02*
X162512857Y-73907142D01*
X162665238Y-73907142D01*
X162741428Y-73864285D01*
X162779523Y-73821428D01*
X162817619Y-73735714D01*
X162817619Y-73478571D01*
X162779523Y-73392857D01*
X162741428Y-73350000D01*
X162665238Y-73307142D01*
X162512857Y-73307142D01*
X162436666Y-73350000D01*
X162055714Y-73907142D02*
X162055714Y-73307142D01*
X162055714Y-73007142D02*
X162093809Y-73050000D01*
X162055714Y-73092857D01*
X162017619Y-73050000D01*
X162055714Y-73007142D01*
X162055714Y-73092857D01*
X161789047Y-73307142D02*
X161484285Y-73307142D01*
X161674761Y-73007142D02*
X161674761Y-73778571D01*
X161636666Y-73864285D01*
X161560476Y-73907142D01*
X161484285Y-73907142D01*
X161217619Y-73907142D02*
X161217619Y-73007142D01*
X160874761Y-73907142D02*
X160874761Y-73435714D01*
X160912857Y-73350000D01*
X160989047Y-73307142D01*
X161103333Y-73307142D01*
X161179523Y-73350000D01*
X161217619Y-73392857D01*
X160150952Y-73307142D02*
X160150952Y-73907142D01*
X160493809Y-73307142D02*
X160493809Y-73778571D01*
X160455714Y-73864285D01*
X160379523Y-73907142D01*
X160265238Y-73907142D01*
X160189047Y-73864285D01*
X160150952Y-73821428D01*
X159770000Y-73907142D02*
X159770000Y-73007142D01*
X159770000Y-73350000D02*
X159693809Y-73307142D01*
X159541428Y-73307142D01*
X159465238Y-73350000D01*
X159427142Y-73392857D01*
X159389047Y-73478571D01*
X159389047Y-73735714D01*
X159427142Y-73821428D01*
X159465238Y-73864285D01*
X159541428Y-73907142D01*
X159693809Y-73907142D01*
X159770000Y-73864285D01*
X159046190Y-73821428D02*
X159008095Y-73864285D01*
X159046190Y-73907142D01*
X159084285Y-73864285D01*
X159046190Y-73821428D01*
X159046190Y-73907142D01*
X158322380Y-73864285D02*
X158398571Y-73907142D01*
X158550952Y-73907142D01*
X158627142Y-73864285D01*
X158665238Y-73821428D01*
X158703333Y-73735714D01*
X158703333Y-73478571D01*
X158665238Y-73392857D01*
X158627142Y-73350000D01*
X158550952Y-73307142D01*
X158398571Y-73307142D01*
X158322380Y-73350000D01*
X157865238Y-73907142D02*
X157941428Y-73864285D01*
X157979523Y-73821428D01*
X158017619Y-73735714D01*
X158017619Y-73478571D01*
X157979523Y-73392857D01*
X157941428Y-73350000D01*
X157865238Y-73307142D01*
X157750952Y-73307142D01*
X157674761Y-73350000D01*
X157636666Y-73392857D01*
X157598571Y-73478571D01*
X157598571Y-73735714D01*
X157636666Y-73821428D01*
X157674761Y-73864285D01*
X157750952Y-73907142D01*
X157865238Y-73907142D01*
X157255714Y-73907142D02*
X157255714Y-73307142D01*
X157255714Y-73392857D02*
X157217619Y-73350000D01*
X157141428Y-73307142D01*
X157027142Y-73307142D01*
X156950952Y-73350000D01*
X156912857Y-73435714D01*
X156912857Y-73907142D01*
X156912857Y-73435714D02*
X156874761Y-73350000D01*
X156798571Y-73307142D01*
X156684285Y-73307142D01*
X156608095Y-73350000D01*
X156570000Y-73435714D01*
X156570000Y-73907142D01*
X155617619Y-72964285D02*
X156303333Y-74121428D01*
X155008095Y-73307142D02*
X155008095Y-74035714D01*
X155046190Y-74121428D01*
X155084285Y-74164285D01*
X155160476Y-74207142D01*
X155274761Y-74207142D01*
X155350952Y-74164285D01*
X155008095Y-73864285D02*
X155084285Y-73907142D01*
X155236666Y-73907142D01*
X155312857Y-73864285D01*
X155350952Y-73821428D01*
X155389047Y-73735714D01*
X155389047Y-73478571D01*
X155350952Y-73392857D01*
X155312857Y-73350000D01*
X155236666Y-73307142D01*
X155084285Y-73307142D01*
X155008095Y-73350000D01*
X154627142Y-73307142D02*
X154627142Y-73907142D01*
X154627142Y-73392857D02*
X154589047Y-73350000D01*
X154512857Y-73307142D01*
X154398571Y-73307142D01*
X154322380Y-73350000D01*
X154284285Y-73435714D01*
X154284285Y-73907142D01*
X153903333Y-73907142D02*
X153903333Y-73307142D01*
X153903333Y-73007142D02*
X153941428Y-73050000D01*
X153903333Y-73092857D01*
X153865238Y-73050000D01*
X153903333Y-73007142D01*
X153903333Y-73092857D01*
X153522380Y-73907142D02*
X153522380Y-73307142D01*
X153522380Y-73392857D02*
X153484285Y-73350000D01*
X153408095Y-73307142D01*
X153293809Y-73307142D01*
X153217619Y-73350000D01*
X153179523Y-73435714D01*
X153179523Y-73907142D01*
X153179523Y-73435714D02*
X153141428Y-73350000D01*
X153065238Y-73307142D01*
X152950952Y-73307142D01*
X152874761Y-73350000D01*
X152836666Y-73435714D01*
X152836666Y-73907142D01*
X152455714Y-73907142D02*
X152455714Y-73307142D01*
X152455714Y-73392857D02*
X152417619Y-73350000D01*
X152341428Y-73307142D01*
X152227142Y-73307142D01*
X152150952Y-73350000D01*
X152112857Y-73435714D01*
X152112857Y-73907142D01*
X152112857Y-73435714D02*
X152074761Y-73350000D01*
X151998571Y-73307142D01*
X151884285Y-73307142D01*
X151808095Y-73350000D01*
X151770000Y-73435714D01*
X151770000Y-73907142D01*
X150817619Y-72964285D02*
X151503333Y-74121428D01*
X150550952Y-73307142D02*
X150550952Y-73907142D01*
X150550952Y-73392857D02*
X150512857Y-73350000D01*
X150436666Y-73307142D01*
X150322380Y-73307142D01*
X150246190Y-73350000D01*
X150208095Y-73435714D01*
X150208095Y-73907142D01*
X149522380Y-73864285D02*
X149598571Y-73907142D01*
X149750952Y-73907142D01*
X149827142Y-73864285D01*
X149865238Y-73778571D01*
X149865238Y-73435714D01*
X149827142Y-73350000D01*
X149750952Y-73307142D01*
X149598571Y-73307142D01*
X149522380Y-73350000D01*
X149484285Y-73435714D01*
X149484285Y-73521428D01*
X149865238Y-73607142D01*
X148798571Y-73307142D02*
X148798571Y-73907142D01*
X149141428Y-73307142D02*
X149141428Y-73778571D01*
X149103333Y-73864285D01*
X149027142Y-73907142D01*
X148912857Y-73907142D01*
X148836666Y-73864285D01*
X148798571Y-73821428D01*
X148417619Y-73907142D02*
X148417619Y-73307142D01*
X148417619Y-73478571D02*
X148379523Y-73392857D01*
X148341428Y-73350000D01*
X148265238Y-73307142D01*
X148189047Y-73307142D01*
X147808095Y-73907142D02*
X147884285Y-73864285D01*
X147922380Y-73821428D01*
X147960476Y-73735714D01*
X147960476Y-73478571D01*
X147922380Y-73392857D01*
X147884285Y-73350000D01*
X147808095Y-73307142D01*
X147693809Y-73307142D01*
X147617619Y-73350000D01*
X147579523Y-73392857D01*
X147541428Y-73478571D01*
X147541428Y-73735714D01*
X147579523Y-73821428D01*
X147617619Y-73864285D01*
X147693809Y-73907142D01*
X147808095Y-73907142D01*
X147198571Y-73907142D02*
X147198571Y-73307142D01*
X147198571Y-73392857D02*
X147160476Y-73350000D01*
X147084285Y-73307142D01*
X146970000Y-73307142D01*
X146893809Y-73350000D01*
X146855714Y-73435714D01*
X146855714Y-73907142D01*
X146855714Y-73435714D02*
X146817619Y-73350000D01*
X146741428Y-73307142D01*
X146627142Y-73307142D01*
X146550952Y-73350000D01*
X146512857Y-73435714D01*
X146512857Y-73907142D01*
X146131904Y-73907142D02*
X146131904Y-73307142D01*
X146131904Y-73007142D02*
X146170000Y-73050000D01*
X146131904Y-73092857D01*
X146093809Y-73050000D01*
X146131904Y-73007142D01*
X146131904Y-73092857D01*
X145750952Y-73907142D02*
X145750952Y-73307142D01*
X145750952Y-73392857D02*
X145712857Y-73350000D01*
X145636666Y-73307142D01*
X145522380Y-73307142D01*
X145446190Y-73350000D01*
X145408095Y-73435714D01*
X145408095Y-73907142D01*
X145408095Y-73435714D02*
X145370000Y-73350000D01*
X145293809Y-73307142D01*
X145179523Y-73307142D01*
X145103333Y-73350000D01*
X145065238Y-73435714D01*
X145065238Y-73907142D01*
X144379523Y-73864285D02*
X144455714Y-73907142D01*
X144608095Y-73907142D01*
X144684285Y-73864285D01*
X144722380Y-73778571D01*
X144722380Y-73435714D01*
X144684285Y-73350000D01*
X144608095Y-73307142D01*
X144455714Y-73307142D01*
X144379523Y-73350000D01*
X144341428Y-73435714D01*
X144341428Y-73521428D01*
X144722380Y-73607142D01*
X167555714Y-65452380D02*
X167555714Y-64452380D01*
X167041428Y-65452380D01*
X167041428Y-64452380D01*
X166484285Y-65452380D02*
X166570000Y-65404761D01*
X166612857Y-65357142D01*
X166655714Y-65261904D01*
X166655714Y-64976190D01*
X166612857Y-64880952D01*
X166570000Y-64833333D01*
X166484285Y-64785714D01*
X166355714Y-64785714D01*
X166270000Y-64833333D01*
X166227142Y-64880952D01*
X166184285Y-64976190D01*
X166184285Y-65261904D01*
X166227142Y-65357142D01*
X166270000Y-65404761D01*
X166355714Y-65452380D01*
X166484285Y-65452380D01*
X165798571Y-65452380D02*
X165798571Y-64785714D01*
X165798571Y-64976190D02*
X165755714Y-64880952D01*
X165712857Y-64833333D01*
X165627142Y-64785714D01*
X165541428Y-64785714D01*
X165241428Y-65452380D02*
X165241428Y-64785714D01*
X165241428Y-64880952D02*
X165198571Y-64833333D01*
X165112857Y-64785714D01*
X164984285Y-64785714D01*
X164898571Y-64833333D01*
X164855714Y-64928571D01*
X164855714Y-65452380D01*
X164855714Y-64928571D02*
X164812857Y-64833333D01*
X164727142Y-64785714D01*
X164598571Y-64785714D01*
X164512857Y-64833333D01*
X164470000Y-64928571D01*
X164470000Y-65452380D01*
X163655714Y-65452380D02*
X163655714Y-64928571D01*
X163698571Y-64833333D01*
X163784285Y-64785714D01*
X163955714Y-64785714D01*
X164041428Y-64833333D01*
X163655714Y-65404761D02*
X163741428Y-65452380D01*
X163955714Y-65452380D01*
X164041428Y-65404761D01*
X164084285Y-65309523D01*
X164084285Y-65214285D01*
X164041428Y-65119047D01*
X163955714Y-65071428D01*
X163741428Y-65071428D01*
X163655714Y-65023809D01*
X163227142Y-64785714D02*
X163227142Y-65452380D01*
X163227142Y-64880952D02*
X163184285Y-64833333D01*
X163098571Y-64785714D01*
X162970000Y-64785714D01*
X162884285Y-64833333D01*
X162841428Y-64928571D01*
X162841428Y-65452380D01*
X161812857Y-64452380D02*
X161598571Y-65452380D01*
X161427142Y-64738095D01*
X161255714Y-65452380D01*
X161041428Y-64452380D01*
X160698571Y-65452380D02*
X160698571Y-64452380D01*
X160312857Y-65452380D02*
X160312857Y-64928571D01*
X160355714Y-64833333D01*
X160441428Y-64785714D01*
X160570000Y-64785714D01*
X160655714Y-64833333D01*
X160698571Y-64880952D01*
X159884285Y-65452380D02*
X159884285Y-64785714D01*
X159884285Y-64452380D02*
X159927142Y-64500000D01*
X159884285Y-64547619D01*
X159841428Y-64500000D01*
X159884285Y-64452380D01*
X159884285Y-64547619D01*
X159584285Y-64785714D02*
X159241428Y-64785714D01*
X159455714Y-64452380D02*
X159455714Y-65309523D01*
X159412857Y-65404761D01*
X159327142Y-65452380D01*
X159241428Y-65452380D01*
X158598571Y-65404761D02*
X158684285Y-65452380D01*
X158855714Y-65452380D01*
X158941428Y-65404761D01*
X158984285Y-65309523D01*
X158984285Y-64928571D01*
X158941428Y-64833333D01*
X158855714Y-64785714D01*
X158684285Y-64785714D01*
X158598571Y-64833333D01*
X158555714Y-64928571D01*
X158555714Y-65023809D01*
X158984285Y-65119047D01*
X158127142Y-64452380D02*
X158212857Y-64642857D01*
X157784285Y-65404761D02*
X157698571Y-65452380D01*
X157527142Y-65452380D01*
X157441428Y-65404761D01*
X157398571Y-65309523D01*
X157398571Y-65261904D01*
X157441428Y-65166666D01*
X157527142Y-65119047D01*
X157655714Y-65119047D01*
X157741428Y-65071428D01*
X157784285Y-64976190D01*
X157784285Y-64928571D01*
X157741428Y-64833333D01*
X157655714Y-64785714D01*
X157527142Y-64785714D01*
X157441428Y-64833333D01*
X156327142Y-65452380D02*
X156327142Y-64452380D01*
X155812857Y-65452380D01*
X155812857Y-64452380D01*
X155041428Y-65404761D02*
X155127142Y-65452380D01*
X155298571Y-65452380D01*
X155384285Y-65404761D01*
X155427142Y-65309523D01*
X155427142Y-64928571D01*
X155384285Y-64833333D01*
X155298571Y-64785714D01*
X155127142Y-64785714D01*
X155041428Y-64833333D01*
X154998571Y-64928571D01*
X154998571Y-65023809D01*
X155427142Y-65119047D01*
X154227142Y-64785714D02*
X154227142Y-65452380D01*
X154612857Y-64785714D02*
X154612857Y-65309523D01*
X154570000Y-65404761D01*
X154484285Y-65452380D01*
X154355714Y-65452380D01*
X154270000Y-65404761D01*
X154227142Y-65357142D01*
X153798571Y-65452380D02*
X153798571Y-64785714D01*
X153798571Y-64976190D02*
X153755714Y-64880952D01*
X153712857Y-64833333D01*
X153627142Y-64785714D01*
X153541428Y-64785714D01*
X153112857Y-65452380D02*
X153198571Y-65404761D01*
X153241428Y-65357142D01*
X153284285Y-65261904D01*
X153284285Y-64976190D01*
X153241428Y-64880952D01*
X153198571Y-64833333D01*
X153112857Y-64785714D01*
X152984285Y-64785714D01*
X152898571Y-64833333D01*
X152855714Y-64880952D01*
X152812857Y-64976190D01*
X152812857Y-65261904D01*
X152855714Y-65357142D01*
X152898571Y-65404761D01*
X152984285Y-65452380D01*
X153112857Y-65452380D01*
X152427142Y-65452380D02*
X152427142Y-64785714D01*
X152427142Y-64880952D02*
X152384285Y-64833333D01*
X152298571Y-64785714D01*
X152170000Y-64785714D01*
X152084285Y-64833333D01*
X152041428Y-64928571D01*
X152041428Y-65452380D01*
X152041428Y-64928571D02*
X151998571Y-64833333D01*
X151912857Y-64785714D01*
X151784285Y-64785714D01*
X151698571Y-64833333D01*
X151655714Y-64928571D01*
X151655714Y-65452380D01*
X151227142Y-65452380D02*
X151227142Y-64785714D01*
X151227142Y-64452380D02*
X151270000Y-64500000D01*
X151227142Y-64547619D01*
X151184285Y-64500000D01*
X151227142Y-64452380D01*
X151227142Y-64547619D01*
X150798571Y-65452380D02*
X150798571Y-64785714D01*
X150798571Y-64880952D02*
X150755714Y-64833333D01*
X150670000Y-64785714D01*
X150541428Y-64785714D01*
X150455714Y-64833333D01*
X150412857Y-64928571D01*
X150412857Y-65452380D01*
X150412857Y-64928571D02*
X150370000Y-64833333D01*
X150284285Y-64785714D01*
X150155714Y-64785714D01*
X150070000Y-64833333D01*
X150027142Y-64928571D01*
X150027142Y-65452380D01*
X149255714Y-65404761D02*
X149341428Y-65452380D01*
X149512857Y-65452380D01*
X149598571Y-65404761D01*
X149641428Y-65309523D01*
X149641428Y-64928571D01*
X149598571Y-64833333D01*
X149512857Y-64785714D01*
X149341428Y-64785714D01*
X149255714Y-64833333D01*
X149212857Y-64928571D01*
X149212857Y-65023809D01*
X149641428Y-65119047D01*
D11*
X161850000Y-44300000D02*
X159600000Y-44300000D01*
X161850000Y-49050000D02*
X161850000Y-44300000D01*
X159600000Y-39300000D02*
X159600000Y-44050000D01*
X161850000Y-44050000D02*
X161850000Y-39300000D01*
X159600000Y-44300000D02*
X159600000Y-49050000D01*
X159600000Y-49050000D02*
X161850000Y-49050000D01*
X161850000Y-39300000D02*
X159600000Y-39300000D01*
X159600000Y-44050000D02*
X161850000Y-44050000D01*
X159600000Y-60650000D02*
X161850000Y-60650000D01*
X159600000Y-50900000D02*
X159600000Y-55650000D01*
X161850000Y-55650000D02*
X161850000Y-50900000D01*
X161850000Y-50900000D02*
X159600000Y-50900000D01*
X159600000Y-55650000D02*
X161850000Y-55650000D01*
X161850000Y-60650000D02*
X161850000Y-55900000D01*
X159600000Y-55900000D02*
X159600000Y-60650000D01*
X161850000Y-55900000D02*
X159600000Y-55900000D01*
X142500000Y-60900000D02*
X142500000Y-65650000D01*
X144750000Y-65650000D02*
X144750000Y-60900000D01*
X144750000Y-60900000D02*
X142500000Y-60900000D01*
X142500000Y-65650000D02*
X144750000Y-65650000D01*
X144750000Y-55900000D02*
X142500000Y-55900000D01*
X144750000Y-60650000D02*
X144750000Y-55900000D01*
X142500000Y-60650000D02*
X144750000Y-60650000D01*
X142500000Y-55900000D02*
X142500000Y-60650000D01*
D10*
X162215857Y-42197357D02*
X162168238Y-42244976D01*
X162120619Y-42387833D01*
X162120619Y-42483071D01*
X162168238Y-42625928D01*
X162263476Y-42721166D01*
X162358714Y-42768785D01*
X162549190Y-42816404D01*
X162692047Y-42816404D01*
X162882523Y-42768785D01*
X162977761Y-42721166D01*
X163073000Y-42625928D01*
X163120619Y-42483071D01*
X163120619Y-42387833D01*
X163073000Y-42244976D01*
X163025380Y-42197357D01*
X162120619Y-41244976D02*
X162120619Y-41816404D01*
X162120619Y-41530690D02*
X163120619Y-41530690D01*
X162977761Y-41625928D01*
X162882523Y-41721166D01*
X162834904Y-41816404D01*
X163120619Y-40911642D02*
X163120619Y-40292595D01*
X162739666Y-40625928D01*
X162739666Y-40483071D01*
X162692047Y-40387833D01*
X162644428Y-40340214D01*
X162549190Y-40292595D01*
X162311095Y-40292595D01*
X162215857Y-40340214D01*
X162168238Y-40387833D01*
X162120619Y-40483071D01*
X162120619Y-40768785D01*
X162168238Y-40864023D01*
X162215857Y-40911642D01*
X162088857Y-46674166D02*
X162041238Y-46721785D01*
X161993619Y-46864642D01*
X161993619Y-46959880D01*
X162041238Y-47102738D01*
X162136476Y-47197976D01*
X162231714Y-47245595D01*
X162422190Y-47293214D01*
X162565047Y-47293214D01*
X162755523Y-47245595D01*
X162850761Y-47197976D01*
X162946000Y-47102738D01*
X162993619Y-46959880D01*
X162993619Y-46864642D01*
X162946000Y-46721785D01*
X162898380Y-46674166D01*
X161993619Y-46197976D02*
X161993619Y-46007500D01*
X162041238Y-45912261D01*
X162088857Y-45864642D01*
X162231714Y-45769404D01*
X162422190Y-45721785D01*
X162803142Y-45721785D01*
X162898380Y-45769404D01*
X162946000Y-45817023D01*
X162993619Y-45912261D01*
X162993619Y-46102738D01*
X162946000Y-46197976D01*
X162898380Y-46245595D01*
X162803142Y-46293214D01*
X162565047Y-46293214D01*
X162469809Y-46245595D01*
X162422190Y-46197976D01*
X162374571Y-46102738D01*
X162374571Y-45912261D01*
X162422190Y-45817023D01*
X162469809Y-45769404D01*
X162565047Y-45721785D01*
X162215857Y-58897857D02*
X162168238Y-58945476D01*
X162120619Y-59088333D01*
X162120619Y-59183571D01*
X162168238Y-59326428D01*
X162263476Y-59421666D01*
X162358714Y-59469285D01*
X162549190Y-59516904D01*
X162692047Y-59516904D01*
X162882523Y-59469285D01*
X162977761Y-59421666D01*
X163073000Y-59326428D01*
X163120619Y-59183571D01*
X163120619Y-59088333D01*
X163073000Y-58945476D01*
X163025380Y-58897857D01*
X162120619Y-57945476D02*
X162120619Y-58516904D01*
X162120619Y-58231190D02*
X163120619Y-58231190D01*
X162977761Y-58326428D01*
X162882523Y-58421666D01*
X162834904Y-58516904D01*
X163120619Y-57040714D02*
X163120619Y-57516904D01*
X162644428Y-57564523D01*
X162692047Y-57516904D01*
X162739666Y-57421666D01*
X162739666Y-57183571D01*
X162692047Y-57088333D01*
X162644428Y-57040714D01*
X162549190Y-56993095D01*
X162311095Y-56993095D01*
X162215857Y-57040714D01*
X162168238Y-57088333D01*
X162120619Y-57183571D01*
X162120619Y-57421666D01*
X162168238Y-57516904D01*
X162215857Y-57564523D01*
X162215857Y-54008357D02*
X162168238Y-54055976D01*
X162120619Y-54198833D01*
X162120619Y-54294071D01*
X162168238Y-54436928D01*
X162263476Y-54532166D01*
X162358714Y-54579785D01*
X162549190Y-54627404D01*
X162692047Y-54627404D01*
X162882523Y-54579785D01*
X162977761Y-54532166D01*
X163073000Y-54436928D01*
X163120619Y-54294071D01*
X163120619Y-54198833D01*
X163073000Y-54055976D01*
X163025380Y-54008357D01*
X162120619Y-53055976D02*
X162120619Y-53627404D01*
X162120619Y-53341690D02*
X163120619Y-53341690D01*
X162977761Y-53436928D01*
X162882523Y-53532166D01*
X162834904Y-53627404D01*
X163025380Y-52675023D02*
X163073000Y-52627404D01*
X163120619Y-52532166D01*
X163120619Y-52294071D01*
X163073000Y-52198833D01*
X163025380Y-52151214D01*
X162930142Y-52103595D01*
X162834904Y-52103595D01*
X162692047Y-52151214D01*
X162120619Y-52722642D01*
X162120619Y-52103595D01*
X145134357Y-58485166D02*
X145086738Y-58532785D01*
X145039119Y-58675642D01*
X145039119Y-58770880D01*
X145086738Y-58913738D01*
X145181976Y-59008976D01*
X145277214Y-59056595D01*
X145467690Y-59104214D01*
X145610547Y-59104214D01*
X145801023Y-59056595D01*
X145896261Y-59008976D01*
X145991500Y-58913738D01*
X146039119Y-58770880D01*
X146039119Y-58675642D01*
X145991500Y-58532785D01*
X145943880Y-58485166D01*
X146039119Y-58151833D02*
X146039119Y-57485166D01*
X145039119Y-57913738D01*
X145134357Y-63850857D02*
X145086738Y-63898476D01*
X145039119Y-64041333D01*
X145039119Y-64136571D01*
X145086738Y-64279428D01*
X145181976Y-64374666D01*
X145277214Y-64422285D01*
X145467690Y-64469904D01*
X145610547Y-64469904D01*
X145801023Y-64422285D01*
X145896261Y-64374666D01*
X145991500Y-64279428D01*
X146039119Y-64136571D01*
X146039119Y-64041333D01*
X145991500Y-63898476D01*
X145943880Y-63850857D01*
X145039119Y-62898476D02*
X145039119Y-63469904D01*
X145039119Y-63184190D02*
X146039119Y-63184190D01*
X145896261Y-63279428D01*
X145801023Y-63374666D01*
X145753404Y-63469904D01*
X146039119Y-62041333D02*
X146039119Y-62231809D01*
X145991500Y-62327047D01*
X145943880Y-62374666D01*
X145801023Y-62469904D01*
X145610547Y-62517523D01*
X145229595Y-62517523D01*
X145134357Y-62469904D01*
X145086738Y-62422285D01*
X145039119Y-62327047D01*
X145039119Y-62136571D01*
X145086738Y-62041333D01*
X145134357Y-61993714D01*
X145229595Y-61946095D01*
X145467690Y-61946095D01*
X145562928Y-61993714D01*
X145610547Y-62041333D01*
X145658166Y-62136571D01*
X145658166Y-62327047D01*
X145610547Y-62422285D01*
X145562928Y-62469904D01*
X145467690Y-62517523D01*
M02*
