G04 #@! TF.GenerationSoftware,KiCad,Pcbnew,5.0.2-bee76a0~70~ubuntu18.04.1*
G04 #@! TF.CreationDate,2019-08-26T16:36:03-04:00*
G04 #@! TF.ProjectId,neuromime_1.0.1_minor_corr,6e657572-6f6d-4696-9d65-5f312e302e31,rev?*
G04 #@! TF.SameCoordinates,Original*
G04 #@! TF.FileFunction,Legend,Top*
G04 #@! TF.FilePolarity,Positive*
%FSLAX46Y46*%
G04 Gerber Fmt 4.6, Leading zero omitted, Abs format (unit mm)*
G04 Created by KiCad (PCBNEW 5.0.2-bee76a0~70~ubuntu18.04.1) date Mon 26 Aug 2019 04:36:03 PM EDT*
%MOMM*%
%LPD*%
G01*
G04 APERTURE LIST*
%ADD10C,0.150000*%
%ADD11C,0.200000*%
%ADD12C,0.120000*%
G04 APERTURE END LIST*
D10*
X147780000Y-70470000D02*
X147190000Y-70470000D01*
X149678683Y-70388683D02*
G75*
G03X149678683Y-70388683I-948683J0D01*
G01*
X139500000Y-44500000D02*
X132750000Y-44500000D01*
X139500000Y-55250000D02*
X139500000Y-44500000D01*
X137500000Y-55250000D02*
X139500000Y-55250000D01*
X137500000Y-55500000D02*
X137500000Y-55250000D01*
X137500000Y-57000000D02*
X137500000Y-55500000D01*
X132750000Y-57000000D02*
X137500000Y-57000000D01*
X132750000Y-44500000D02*
X132750000Y-57000000D01*
X132500000Y-56500000D02*
X132500000Y-44500000D01*
X127000000Y-56500000D02*
X132500000Y-56500000D01*
X127000000Y-44500000D02*
X127000000Y-56500000D01*
X132500000Y-44500000D02*
X127000000Y-44500000D01*
D11*
X128126666Y-56192380D02*
X128126666Y-55192380D01*
X128364761Y-55192380D01*
X128507619Y-55240000D01*
X128602857Y-55335238D01*
X128650476Y-55430476D01*
X128698095Y-55620952D01*
X128698095Y-55763809D01*
X128650476Y-55954285D01*
X128602857Y-56049523D01*
X128507619Y-56144761D01*
X128364761Y-56192380D01*
X128126666Y-56192380D01*
X129650476Y-56192380D02*
X129079047Y-56192380D01*
X129364761Y-56192380D02*
X129364761Y-55192380D01*
X129269523Y-55335238D01*
X129174285Y-55430476D01*
X129079047Y-55478095D01*
X130079047Y-55811428D02*
X130840952Y-55811428D01*
X131221904Y-55192380D02*
X131840952Y-55192380D01*
X131507619Y-55573333D01*
X131650476Y-55573333D01*
X131745714Y-55620952D01*
X131793333Y-55668571D01*
X131840952Y-55763809D01*
X131840952Y-56001904D01*
X131793333Y-56097142D01*
X131745714Y-56144761D01*
X131650476Y-56192380D01*
X131364761Y-56192380D01*
X131269523Y-56144761D01*
X131221904Y-56097142D01*
X156818571Y-74154761D02*
X156907857Y-74202380D01*
X157098333Y-74202380D01*
X157199523Y-74154761D01*
X157259047Y-74059523D01*
X157265000Y-74011904D01*
X157229285Y-73916666D01*
X157140000Y-73869047D01*
X156997142Y-73869047D01*
X156907857Y-73821428D01*
X156872142Y-73726190D01*
X156878095Y-73678571D01*
X156937619Y-73583333D01*
X157038809Y-73535714D01*
X157181666Y-73535714D01*
X157270952Y-73583333D01*
X157651904Y-73202380D02*
X158223333Y-73202380D01*
X157812619Y-74202380D02*
X157937619Y-73202380D01*
X158860238Y-74202380D02*
X158925714Y-73678571D01*
X158890000Y-73583333D01*
X158800714Y-73535714D01*
X158610238Y-73535714D01*
X158509047Y-73583333D01*
X158866190Y-74154761D02*
X158765000Y-74202380D01*
X158526904Y-74202380D01*
X158437619Y-74154761D01*
X158401904Y-74059523D01*
X158413809Y-73964285D01*
X158473333Y-73869047D01*
X158574523Y-73821428D01*
X158812619Y-73821428D01*
X158913809Y-73773809D01*
X159907857Y-74202380D02*
X159634047Y-73726190D01*
X159336428Y-74202380D02*
X159461428Y-73202380D01*
X159842380Y-73202380D01*
X159931666Y-73250000D01*
X159973333Y-73297619D01*
X160009047Y-73392857D01*
X159991190Y-73535714D01*
X159931666Y-73630952D01*
X159878095Y-73678571D01*
X159776904Y-73726190D01*
X159395952Y-73726190D01*
X160276904Y-73535714D02*
X160657857Y-73535714D01*
X160461428Y-73202380D02*
X160354285Y-74059523D01*
X160390000Y-74154761D01*
X160479285Y-74202380D01*
X160574523Y-74202380D01*
X145309523Y-71752380D02*
X145642857Y-72752380D01*
X145976190Y-71752380D01*
X146261904Y-72466666D02*
X146738095Y-72466666D01*
X146166666Y-72752380D02*
X146500000Y-71752380D01*
X146833333Y-72752380D01*
X147738095Y-72752380D02*
X147404761Y-72276190D01*
X147166666Y-72752380D02*
X147166666Y-71752380D01*
X147547619Y-71752380D01*
X147642857Y-71800000D01*
X147690476Y-71847619D01*
X147738095Y-71942857D01*
X147738095Y-72085714D01*
X147690476Y-72180952D01*
X147642857Y-72228571D01*
X147547619Y-72276190D01*
X147166666Y-72276190D01*
X148166666Y-72752380D02*
X148166666Y-72085714D01*
X148166666Y-72276190D02*
X148214285Y-72180952D01*
X148261904Y-72133333D01*
X148357142Y-72085714D01*
X148452380Y-72085714D01*
X149166666Y-72704761D02*
X149071428Y-72752380D01*
X148880952Y-72752380D01*
X148785714Y-72704761D01*
X148738095Y-72609523D01*
X148738095Y-72228571D01*
X148785714Y-72133333D01*
X148880952Y-72085714D01*
X149071428Y-72085714D01*
X149166666Y-72133333D01*
X149214285Y-72228571D01*
X149214285Y-72323809D01*
X148738095Y-72419047D01*
X149595238Y-72704761D02*
X149690476Y-72752380D01*
X149880952Y-72752380D01*
X149976190Y-72704761D01*
X150023809Y-72609523D01*
X150023809Y-72561904D01*
X149976190Y-72466666D01*
X149880952Y-72419047D01*
X149738095Y-72419047D01*
X149642857Y-72371428D01*
X149595238Y-72276190D01*
X149595238Y-72228571D01*
X149642857Y-72133333D01*
X149738095Y-72085714D01*
X149880952Y-72085714D01*
X149976190Y-72133333D01*
X150309523Y-72085714D02*
X150690476Y-72085714D01*
X150452380Y-71752380D02*
X150452380Y-72609523D01*
X150500000Y-72704761D01*
X150595238Y-72752380D01*
X150690476Y-72752380D01*
D10*
X175400000Y-59398000D02*
X175400000Y-56350000D01*
X173876000Y-61176000D02*
X175400000Y-59398000D01*
X172606000Y-61176000D02*
X173876000Y-61176000D01*
X172606000Y-54064000D02*
X175400000Y-56350000D01*
X172352000Y-54064000D02*
X172606000Y-54064000D01*
X166510000Y-54064000D02*
X172352000Y-54064000D01*
X166510000Y-61176000D02*
X166510000Y-54064000D01*
X172606000Y-61176000D02*
X166510000Y-61176000D01*
X173368000Y-38824000D02*
X173368000Y-43904000D01*
X170320000Y-35522000D02*
X173368000Y-38824000D01*
X166256000Y-35522000D02*
X170320000Y-35522000D01*
X166256000Y-43904000D02*
X166256000Y-35522000D01*
X173368000Y-43904000D02*
X166256000Y-43904000D01*
D11*
X167851380Y-50515857D02*
X167851380Y-50992047D01*
X166851380Y-50992047D01*
X167327571Y-50182523D02*
X167327571Y-49849190D01*
X167851380Y-49706333D02*
X167851380Y-50182523D01*
X166851380Y-50182523D01*
X166851380Y-49706333D01*
X167851380Y-49277761D02*
X166851380Y-49277761D01*
X166851380Y-49039666D01*
X166899000Y-48896809D01*
X166994238Y-48801571D01*
X167089476Y-48753952D01*
X167279952Y-48706333D01*
X167422809Y-48706333D01*
X167613285Y-48753952D01*
X167708523Y-48801571D01*
X167803761Y-48896809D01*
X167851380Y-49039666D01*
X167851380Y-49277761D01*
X167533880Y-46769333D02*
X167057690Y-47102666D01*
X167533880Y-47340761D02*
X166533880Y-47340761D01*
X166533880Y-46959809D01*
X166581500Y-46864571D01*
X166629119Y-46816952D01*
X166724357Y-46769333D01*
X166867214Y-46769333D01*
X166962452Y-46816952D01*
X167010071Y-46864571D01*
X167057690Y-46959809D01*
X167057690Y-47340761D01*
X167533880Y-46197904D02*
X167486261Y-46293142D01*
X167391023Y-46340761D01*
X166533880Y-46340761D01*
X167486261Y-45436000D02*
X167533880Y-45531238D01*
X167533880Y-45721714D01*
X167486261Y-45816952D01*
X167391023Y-45864571D01*
X167010071Y-45864571D01*
X166914833Y-45816952D01*
X166867214Y-45721714D01*
X166867214Y-45531238D01*
X166914833Y-45436000D01*
X167010071Y-45388380D01*
X167105309Y-45388380D01*
X167200547Y-45864571D01*
X167533880Y-44531238D02*
X166533880Y-44531238D01*
X167486261Y-44531238D02*
X167533880Y-44626476D01*
X167533880Y-44816952D01*
X167486261Y-44912190D01*
X167438642Y-44959809D01*
X167343404Y-45007428D01*
X167057690Y-45007428D01*
X166962452Y-44959809D01*
X166914833Y-44912190D01*
X166867214Y-44816952D01*
X166867214Y-44626476D01*
X166914833Y-44531238D01*
X168169166Y-55341880D02*
X167835833Y-54865690D01*
X167597738Y-55341880D02*
X167597738Y-54341880D01*
X167978690Y-54341880D01*
X168073928Y-54389500D01*
X168121547Y-54437119D01*
X168169166Y-54532357D01*
X168169166Y-54675214D01*
X168121547Y-54770452D01*
X168073928Y-54818071D01*
X167978690Y-54865690D01*
X167597738Y-54865690D01*
X169169166Y-55246642D02*
X169121547Y-55294261D01*
X168978690Y-55341880D01*
X168883452Y-55341880D01*
X168740595Y-55294261D01*
X168645357Y-55199023D01*
X168597738Y-55103785D01*
X168550119Y-54913309D01*
X168550119Y-54770452D01*
X168597738Y-54579976D01*
X168645357Y-54484738D01*
X168740595Y-54389500D01*
X168883452Y-54341880D01*
X168978690Y-54341880D01*
X169121547Y-54389500D01*
X169169166Y-54437119D01*
X169597738Y-54675214D02*
X169597738Y-55675214D01*
X169597738Y-54722833D02*
X169692976Y-54675214D01*
X169883452Y-54675214D01*
X169978690Y-54722833D01*
X170026309Y-54770452D01*
X170073928Y-54865690D01*
X170073928Y-55151404D01*
X170026309Y-55246642D01*
X169978690Y-55294261D01*
X169883452Y-55341880D01*
X169692976Y-55341880D01*
X169597738Y-55294261D01*
X170645357Y-55341880D02*
X170550119Y-55294261D01*
X170502500Y-55246642D01*
X170454880Y-55151404D01*
X170454880Y-54865690D01*
X170502500Y-54770452D01*
X170550119Y-54722833D01*
X170645357Y-54675214D01*
X170788214Y-54675214D01*
X170883452Y-54722833D01*
X170931071Y-54770452D01*
X170978690Y-54865690D01*
X170978690Y-55151404D01*
X170931071Y-55246642D01*
X170883452Y-55294261D01*
X170788214Y-55341880D01*
X170645357Y-55341880D01*
X171835833Y-54675214D02*
X171835833Y-55341880D01*
X171407261Y-54675214D02*
X171407261Y-55199023D01*
X171454880Y-55294261D01*
X171550119Y-55341880D01*
X171692976Y-55341880D01*
X171788214Y-55294261D01*
X171835833Y-55246642D01*
X172169166Y-54675214D02*
X172550119Y-54675214D01*
X172312023Y-54341880D02*
X172312023Y-55199023D01*
X172359642Y-55294261D01*
X172454880Y-55341880D01*
X172550119Y-55341880D01*
X173121880Y-43046547D02*
X172645690Y-43379880D01*
X173121880Y-43617976D02*
X172121880Y-43617976D01*
X172121880Y-43237023D01*
X172169500Y-43141785D01*
X172217119Y-43094166D01*
X172312357Y-43046547D01*
X172455214Y-43046547D01*
X172550452Y-43094166D01*
X172598071Y-43141785D01*
X172645690Y-43237023D01*
X172645690Y-43617976D01*
X173026642Y-42046547D02*
X173074261Y-42094166D01*
X173121880Y-42237023D01*
X173121880Y-42332261D01*
X173074261Y-42475119D01*
X172979023Y-42570357D01*
X172883785Y-42617976D01*
X172693309Y-42665595D01*
X172550452Y-42665595D01*
X172359976Y-42617976D01*
X172264738Y-42570357D01*
X172169500Y-42475119D01*
X172121880Y-42332261D01*
X172121880Y-42237023D01*
X172169500Y-42094166D01*
X172217119Y-42046547D01*
X173121880Y-41475119D02*
X173074261Y-41570357D01*
X172979023Y-41617976D01*
X172121880Y-41617976D01*
X173121880Y-40665595D02*
X172598071Y-40665595D01*
X172502833Y-40713214D01*
X172455214Y-40808452D01*
X172455214Y-40998928D01*
X172502833Y-41094166D01*
X173074261Y-40665595D02*
X173121880Y-40760833D01*
X173121880Y-40998928D01*
X173074261Y-41094166D01*
X172979023Y-41141785D01*
X172883785Y-41141785D01*
X172788547Y-41094166D01*
X172740928Y-40998928D01*
X172740928Y-40760833D01*
X172693309Y-40665595D01*
X172455214Y-40332261D02*
X172455214Y-39951309D01*
X172121880Y-40189404D02*
X172979023Y-40189404D01*
X173074261Y-40141785D01*
X173121880Y-40046547D01*
X173121880Y-39951309D01*
X173074261Y-39237023D02*
X173121880Y-39332261D01*
X173121880Y-39522738D01*
X173074261Y-39617976D01*
X172979023Y-39665595D01*
X172598071Y-39665595D01*
X172502833Y-39617976D01*
X172455214Y-39522738D01*
X172455214Y-39332261D01*
X172502833Y-39237023D01*
X172598071Y-39189404D01*
X172693309Y-39189404D01*
X172788547Y-39665595D01*
X159342380Y-45618380D02*
X159342380Y-46094571D01*
X158342380Y-46094571D01*
X159056666Y-45332666D02*
X159056666Y-44856476D01*
X159342380Y-45427904D02*
X158342380Y-45094571D01*
X159342380Y-44761238D01*
X158342380Y-44570761D02*
X158342380Y-43999333D01*
X159342380Y-44285047D02*
X158342380Y-44285047D01*
X158818571Y-43666000D02*
X158818571Y-43332666D01*
X159342380Y-43189809D02*
X159342380Y-43666000D01*
X158342380Y-43666000D01*
X158342380Y-43189809D01*
X165317576Y-31644278D02*
X165654294Y-31980996D01*
X165048202Y-31778965D02*
X165991011Y-31307561D01*
X165519607Y-32250370D01*
X166395072Y-31711622D02*
X166159370Y-32890133D01*
X166866477Y-32183026D02*
X165687965Y-32418729D01*
X167270538Y-32587087D02*
X167405225Y-32721774D01*
X167438896Y-32822790D01*
X167438896Y-32957477D01*
X167337881Y-33125835D01*
X167102179Y-33361538D01*
X166933820Y-33462553D01*
X166799133Y-33462553D01*
X166698118Y-33428881D01*
X166563431Y-33294194D01*
X166529759Y-33193179D01*
X166529759Y-33058492D01*
X166630774Y-32890133D01*
X166866477Y-32654431D01*
X167034835Y-32553416D01*
X167169522Y-32553416D01*
X167270538Y-32587087D01*
X167169522Y-33900286D02*
X167876629Y-33193179D01*
X167573583Y-34304347D01*
X168280690Y-33597240D01*
X168280690Y-35011453D02*
X167876629Y-34607392D01*
X168078660Y-34809423D02*
X168785766Y-34102316D01*
X168617408Y-34135988D01*
X168482721Y-34135988D01*
X168381705Y-34102316D01*
X159405880Y-57722976D02*
X158405880Y-57722976D01*
X158405880Y-57342023D01*
X158453500Y-57246785D01*
X158501119Y-57199166D01*
X158596357Y-57151547D01*
X158739214Y-57151547D01*
X158834452Y-57199166D01*
X158882071Y-57246785D01*
X158929690Y-57342023D01*
X158929690Y-57722976D01*
X158405880Y-56532500D02*
X158405880Y-56342023D01*
X158453500Y-56246785D01*
X158548738Y-56151547D01*
X158739214Y-56103928D01*
X159072547Y-56103928D01*
X159263023Y-56151547D01*
X159358261Y-56246785D01*
X159405880Y-56342023D01*
X159405880Y-56532500D01*
X159358261Y-56627738D01*
X159263023Y-56722976D01*
X159072547Y-56770595D01*
X158739214Y-56770595D01*
X158548738Y-56722976D01*
X158453500Y-56627738D01*
X158405880Y-56532500D01*
X158405880Y-55675357D02*
X159215404Y-55675357D01*
X159310642Y-55627738D01*
X159358261Y-55580119D01*
X159405880Y-55484880D01*
X159405880Y-55294404D01*
X159358261Y-55199166D01*
X159310642Y-55151547D01*
X159215404Y-55103928D01*
X158405880Y-55103928D01*
X158405880Y-54770595D02*
X158405880Y-54199166D01*
X159405880Y-54484880D02*
X158405880Y-54484880D01*
X150250000Y-61857142D02*
X150202380Y-61904761D01*
X150059523Y-61952380D01*
X149964285Y-61952380D01*
X149821428Y-61904761D01*
X149726190Y-61809523D01*
X149678571Y-61714285D01*
X149630952Y-61523809D01*
X149630952Y-61380952D01*
X149678571Y-61190476D01*
X149726190Y-61095238D01*
X149821428Y-61000000D01*
X149964285Y-60952380D01*
X150059523Y-60952380D01*
X150202380Y-61000000D01*
X150250000Y-61047619D01*
X150440476Y-62047619D02*
X151202380Y-62047619D01*
X151440476Y-61952380D02*
X151440476Y-61285714D01*
X151440476Y-61476190D02*
X151488095Y-61380952D01*
X151535714Y-61333333D01*
X151630952Y-61285714D01*
X151726190Y-61285714D01*
X152440476Y-61904761D02*
X152345238Y-61952380D01*
X152154761Y-61952380D01*
X152059523Y-61904761D01*
X152011904Y-61809523D01*
X152011904Y-61428571D01*
X152059523Y-61333333D01*
X152154761Y-61285714D01*
X152345238Y-61285714D01*
X152440476Y-61333333D01*
X152488095Y-61428571D01*
X152488095Y-61523809D01*
X152011904Y-61619047D01*
X152869047Y-61904761D02*
X152964285Y-61952380D01*
X153154761Y-61952380D01*
X153250000Y-61904761D01*
X153297619Y-61809523D01*
X153297619Y-61761904D01*
X153250000Y-61666666D01*
X153154761Y-61619047D01*
X153011904Y-61619047D01*
X152916666Y-61571428D01*
X152869047Y-61476190D01*
X152869047Y-61428571D01*
X152916666Y-61333333D01*
X153011904Y-61285714D01*
X153154761Y-61285714D01*
X153250000Y-61333333D01*
X153583333Y-61285714D02*
X153964285Y-61285714D01*
X153726190Y-60952380D02*
X153726190Y-61809523D01*
X153773809Y-61904761D01*
X153869047Y-61952380D01*
X153964285Y-61952380D01*
X148888904Y-74455380D02*
X148412714Y-74455380D01*
X148412714Y-73455380D01*
X149412714Y-73455380D02*
X149603190Y-73455380D01*
X149698428Y-73503000D01*
X149793666Y-73598238D01*
X149841285Y-73788714D01*
X149841285Y-74122047D01*
X149793666Y-74312523D01*
X149698428Y-74407761D01*
X149603190Y-74455380D01*
X149412714Y-74455380D01*
X149317476Y-74407761D01*
X149222238Y-74312523D01*
X149174619Y-74122047D01*
X149174619Y-73788714D01*
X149222238Y-73598238D01*
X149317476Y-73503000D01*
X149412714Y-73455380D01*
X150269857Y-74455380D02*
X150269857Y-73455380D01*
X150841285Y-74455380D01*
X150841285Y-73455380D01*
X151841285Y-73503000D02*
X151746047Y-73455380D01*
X151603190Y-73455380D01*
X151460333Y-73503000D01*
X151365095Y-73598238D01*
X151317476Y-73693476D01*
X151269857Y-73883952D01*
X151269857Y-74026809D01*
X151317476Y-74217285D01*
X151365095Y-74312523D01*
X151460333Y-74407761D01*
X151603190Y-74455380D01*
X151698428Y-74455380D01*
X151841285Y-74407761D01*
X151888904Y-74360142D01*
X151888904Y-74026809D01*
X151698428Y-74026809D01*
X173645833Y-47698404D02*
X173645833Y-48174595D01*
X173360119Y-47603166D02*
X174360119Y-47936500D01*
X173360119Y-48269833D01*
X174360119Y-48507928D02*
X173360119Y-49174595D01*
X174360119Y-49174595D02*
X173360119Y-48507928D01*
X174360119Y-49746023D02*
X174360119Y-49936500D01*
X174312500Y-50031738D01*
X174217261Y-50126976D01*
X174026785Y-50174595D01*
X173693452Y-50174595D01*
X173502976Y-50126976D01*
X173407738Y-50031738D01*
X173360119Y-49936500D01*
X173360119Y-49746023D01*
X173407738Y-49650785D01*
X173502976Y-49555547D01*
X173693452Y-49507928D01*
X174026785Y-49507928D01*
X174217261Y-49555547D01*
X174312500Y-49650785D01*
X174360119Y-49746023D01*
X173360119Y-50603166D02*
X174360119Y-50603166D01*
X173360119Y-51174595D01*
X174360119Y-51174595D01*
X174264880Y-51603166D02*
X174312500Y-51650785D01*
X174360119Y-51746023D01*
X174360119Y-51984119D01*
X174312500Y-52079357D01*
X174264880Y-52126976D01*
X174169642Y-52174595D01*
X174074404Y-52174595D01*
X173931547Y-52126976D01*
X173360119Y-51555547D01*
X173360119Y-52174595D01*
X168101721Y-65254076D02*
X167765003Y-65590794D01*
X167967034Y-64984702D02*
X168438438Y-65927511D01*
X167495629Y-65456107D01*
X168034377Y-66331572D02*
X166855866Y-66095870D01*
X167562973Y-66802977D02*
X167327270Y-65624465D01*
X167158912Y-67207038D02*
X167024225Y-67341725D01*
X166923209Y-67375396D01*
X166788522Y-67375396D01*
X166620164Y-67274381D01*
X166384461Y-67038679D01*
X166283446Y-66870320D01*
X166283446Y-66735633D01*
X166317118Y-66634618D01*
X166451805Y-66499931D01*
X166552820Y-66466259D01*
X166687507Y-66466259D01*
X166855866Y-66567274D01*
X167091568Y-66802977D01*
X167192583Y-66971335D01*
X167192583Y-67106022D01*
X167158912Y-67207038D01*
X165845713Y-67106022D02*
X166552820Y-67813129D01*
X165441652Y-67510083D01*
X166148759Y-68217190D01*
X165879385Y-68486564D02*
X165441652Y-68924297D01*
X165407981Y-68419221D01*
X165306965Y-68520236D01*
X165205950Y-68553908D01*
X165138607Y-68553908D01*
X165037591Y-68520236D01*
X164869233Y-68351877D01*
X164835561Y-68250862D01*
X164835561Y-68183518D01*
X164869233Y-68082503D01*
X165071263Y-67880473D01*
X165172278Y-67846801D01*
X165239622Y-67846801D01*
X135185118Y-68877633D02*
X134949415Y-68641931D01*
X135218789Y-68170526D02*
X135555507Y-68507244D01*
X134848400Y-69214350D01*
X134511683Y-68877633D01*
X134275980Y-68641931D02*
X134511683Y-67463419D01*
X133804576Y-68170526D02*
X134983087Y-67934824D01*
X133770904Y-66857328D02*
X133838248Y-66857328D01*
X133972935Y-66924671D01*
X134040278Y-66992015D01*
X134107622Y-67126702D01*
X134107622Y-67261389D01*
X134073950Y-67362404D01*
X133972935Y-67530763D01*
X133871919Y-67631778D01*
X133703561Y-67732793D01*
X133602545Y-67766465D01*
X133467858Y-67766465D01*
X133333171Y-67699122D01*
X133265828Y-67631778D01*
X133198484Y-67497091D01*
X133198484Y-67429748D01*
X133535202Y-66486938D02*
X132828095Y-67194045D01*
X132592393Y-66958343D02*
X132188332Y-66554282D01*
X133097469Y-66049206D02*
X132390362Y-66756312D01*
X132289347Y-65981862D02*
X132053645Y-65746160D01*
X132323019Y-65274755D02*
X132659736Y-65611473D01*
X131952629Y-66318580D01*
X131615912Y-65981862D01*
X131380210Y-65746160D02*
X130942477Y-65308427D01*
X131447553Y-65274755D01*
X131346538Y-65173740D01*
X131312866Y-65072725D01*
X131312866Y-65005381D01*
X131346538Y-64904366D01*
X131514897Y-64736007D01*
X131615912Y-64702336D01*
X131683255Y-64702336D01*
X131784271Y-64736007D01*
X131986301Y-64938038D01*
X132019973Y-65039053D01*
X132019973Y-65106397D01*
X142197380Y-61922000D02*
X141721190Y-62255333D01*
X142197380Y-62493428D02*
X141197380Y-62493428D01*
X141197380Y-62112476D01*
X141245000Y-62017238D01*
X141292619Y-61969619D01*
X141387857Y-61922000D01*
X141530714Y-61922000D01*
X141625952Y-61969619D01*
X141673571Y-62017238D01*
X141721190Y-62112476D01*
X141721190Y-62493428D01*
X141673571Y-61493428D02*
X141673571Y-61160095D01*
X142197380Y-61017238D02*
X142197380Y-61493428D01*
X141197380Y-61493428D01*
X141197380Y-61017238D01*
X142149761Y-60636285D02*
X142197380Y-60493428D01*
X142197380Y-60255333D01*
X142149761Y-60160095D01*
X142102142Y-60112476D01*
X142006904Y-60064857D01*
X141911666Y-60064857D01*
X141816428Y-60112476D01*
X141768809Y-60160095D01*
X141721190Y-60255333D01*
X141673571Y-60445809D01*
X141625952Y-60541047D01*
X141578333Y-60588666D01*
X141483095Y-60636285D01*
X141387857Y-60636285D01*
X141292619Y-60588666D01*
X141245000Y-60541047D01*
X141197380Y-60445809D01*
X141197380Y-60207714D01*
X141245000Y-60064857D01*
X141197380Y-59779142D02*
X141197380Y-59207714D01*
X142197380Y-59493428D02*
X141197380Y-59493428D01*
X133545833Y-64660571D02*
X133879166Y-64660571D01*
X134022023Y-65184380D02*
X133545833Y-65184380D01*
X133545833Y-64184380D01*
X134022023Y-64184380D01*
X134450595Y-65184380D02*
X134450595Y-64184380D01*
X135022023Y-65184380D01*
X135022023Y-64184380D01*
X135498214Y-65184380D02*
X135498214Y-64517714D01*
X135498214Y-64708190D02*
X135545833Y-64612952D01*
X135593452Y-64565333D01*
X135688690Y-64517714D01*
X135783928Y-64517714D01*
X136498214Y-65136761D02*
X136402976Y-65184380D01*
X136212500Y-65184380D01*
X136117261Y-65136761D01*
X136069642Y-65041523D01*
X136069642Y-64660571D01*
X136117261Y-64565333D01*
X136212500Y-64517714D01*
X136402976Y-64517714D01*
X136498214Y-64565333D01*
X136545833Y-64660571D01*
X136545833Y-64755809D01*
X136069642Y-64851047D01*
X136926785Y-65136761D02*
X137022023Y-65184380D01*
X137212500Y-65184380D01*
X137307738Y-65136761D01*
X137355357Y-65041523D01*
X137355357Y-64993904D01*
X137307738Y-64898666D01*
X137212500Y-64851047D01*
X137069642Y-64851047D01*
X136974404Y-64803428D01*
X136926785Y-64708190D01*
X136926785Y-64660571D01*
X136974404Y-64565333D01*
X137069642Y-64517714D01*
X137212500Y-64517714D01*
X137307738Y-64565333D01*
X137641071Y-64517714D02*
X138022023Y-64517714D01*
X137783928Y-64184380D02*
X137783928Y-65041523D01*
X137831547Y-65136761D01*
X137926785Y-65184380D01*
X138022023Y-65184380D01*
X140081380Y-33165190D02*
X140081380Y-32498523D01*
X141081380Y-33165190D01*
X141081380Y-32498523D01*
X141081380Y-32117571D02*
X140414714Y-32117571D01*
X140081380Y-32117571D02*
X140129000Y-32165190D01*
X140176619Y-32117571D01*
X140129000Y-32069952D01*
X140081380Y-32117571D01*
X140176619Y-32117571D01*
X140414714Y-31641380D02*
X141081380Y-31641380D01*
X140509952Y-31641380D02*
X140462333Y-31593761D01*
X140414714Y-31498523D01*
X140414714Y-31355666D01*
X140462333Y-31260428D01*
X140557571Y-31212809D01*
X141081380Y-31212809D01*
X141081380Y-30736619D02*
X140081380Y-30736619D01*
X141081380Y-30308047D02*
X140557571Y-30308047D01*
X140462333Y-30355666D01*
X140414714Y-30450904D01*
X140414714Y-30593761D01*
X140462333Y-30689000D01*
X140509952Y-30736619D01*
X130831866Y-34908118D02*
X131067568Y-34672415D01*
X131538973Y-34941789D02*
X131202255Y-35278507D01*
X130495149Y-34571400D01*
X130831866Y-34234683D01*
X131067568Y-33998980D02*
X132246080Y-34234683D01*
X131538973Y-33527576D02*
X131774675Y-34706087D01*
X132852171Y-33493904D02*
X132852171Y-33561248D01*
X132784828Y-33695935D01*
X132717484Y-33763278D01*
X132582797Y-33830622D01*
X132448110Y-33830622D01*
X132347095Y-33796950D01*
X132178736Y-33695935D01*
X132077721Y-33594919D01*
X131976706Y-33426561D01*
X131943034Y-33325545D01*
X131943034Y-33190858D01*
X132010377Y-33056171D01*
X132077721Y-32988828D01*
X132212408Y-32921484D01*
X132279751Y-32921484D01*
X133222561Y-33258202D02*
X132515454Y-32551095D01*
X132751156Y-32315393D02*
X133155217Y-31911332D01*
X133660293Y-32820469D02*
X132953187Y-32113362D01*
X133727637Y-32012347D02*
X133963339Y-31776645D01*
X134434744Y-32046019D02*
X134098026Y-32382736D01*
X133390919Y-31675629D01*
X133727637Y-31338912D01*
X135108179Y-31372584D02*
X134704118Y-31776645D01*
X134906148Y-31574614D02*
X134199041Y-30867507D01*
X134232713Y-31035866D01*
X134232713Y-31170553D01*
X134199041Y-31271568D01*
X149348380Y-35593119D02*
X148824571Y-35593119D01*
X148729333Y-35640738D01*
X148681714Y-35735976D01*
X148681714Y-35926452D01*
X148729333Y-36021690D01*
X149300761Y-35593119D02*
X149348380Y-35688357D01*
X149348380Y-35926452D01*
X149300761Y-36021690D01*
X149205523Y-36069309D01*
X149110285Y-36069309D01*
X149015047Y-36021690D01*
X148967428Y-35926452D01*
X148967428Y-35688357D01*
X148919809Y-35593119D01*
X148681714Y-35116928D02*
X149348380Y-35116928D01*
X148776952Y-35116928D02*
X148729333Y-35069309D01*
X148681714Y-34974071D01*
X148681714Y-34831214D01*
X148729333Y-34735976D01*
X148824571Y-34688357D01*
X149348380Y-34688357D01*
X149348380Y-33783595D02*
X148824571Y-33783595D01*
X148729333Y-33831214D01*
X148681714Y-33926452D01*
X148681714Y-34116928D01*
X148729333Y-34212166D01*
X149300761Y-33783595D02*
X149348380Y-33878833D01*
X149348380Y-34116928D01*
X149300761Y-34212166D01*
X149205523Y-34259785D01*
X149110285Y-34259785D01*
X149015047Y-34212166D01*
X148967428Y-34116928D01*
X148967428Y-33878833D01*
X148919809Y-33783595D01*
X149348380Y-33307404D02*
X148681714Y-33307404D01*
X148872190Y-33307404D02*
X148776952Y-33259785D01*
X148729333Y-33212166D01*
X148681714Y-33116928D01*
X148681714Y-33021690D01*
X149300761Y-32259785D02*
X149348380Y-32355023D01*
X149348380Y-32545500D01*
X149300761Y-32640738D01*
X149253142Y-32688357D01*
X149157904Y-32735976D01*
X148872190Y-32735976D01*
X148776952Y-32688357D01*
X148729333Y-32640738D01*
X148681714Y-32545500D01*
X148681714Y-32355023D01*
X148729333Y-32259785D01*
X149348380Y-31831214D02*
X148348380Y-31831214D01*
X149348380Y-31402642D02*
X148824571Y-31402642D01*
X148729333Y-31450261D01*
X148681714Y-31545500D01*
X148681714Y-31688357D01*
X148729333Y-31783595D01*
X148776952Y-31831214D01*
X149348380Y-30926452D02*
X148681714Y-30926452D01*
X148348380Y-30926452D02*
X148396000Y-30974071D01*
X148443619Y-30926452D01*
X148396000Y-30878833D01*
X148348380Y-30926452D01*
X148443619Y-30926452D01*
X149300761Y-30021690D02*
X149348380Y-30116928D01*
X149348380Y-30307404D01*
X149300761Y-30402642D01*
X149253142Y-30450261D01*
X149157904Y-30497880D01*
X148872190Y-30497880D01*
X148776952Y-30450261D01*
X148729333Y-30402642D01*
X148681714Y-30307404D01*
X148681714Y-30116928D01*
X148729333Y-30021690D01*
X151000761Y-36164547D02*
X151048380Y-36069309D01*
X151048380Y-35878833D01*
X151000761Y-35783595D01*
X150905523Y-35735976D01*
X150857904Y-35735976D01*
X150762666Y-35783595D01*
X150715047Y-35878833D01*
X150715047Y-36021690D01*
X150667428Y-36116928D01*
X150572190Y-36164547D01*
X150524571Y-36164547D01*
X150429333Y-36116928D01*
X150381714Y-36021690D01*
X150381714Y-35878833D01*
X150429333Y-35783595D01*
X151000761Y-34926452D02*
X151048380Y-35021690D01*
X151048380Y-35212166D01*
X151000761Y-35307404D01*
X150905523Y-35355023D01*
X150524571Y-35355023D01*
X150429333Y-35307404D01*
X150381714Y-35212166D01*
X150381714Y-35021690D01*
X150429333Y-34926452D01*
X150524571Y-34878833D01*
X150619809Y-34878833D01*
X150715047Y-35355023D01*
X151048380Y-34545500D02*
X150381714Y-34021690D01*
X150381714Y-34545500D02*
X151048380Y-34021690D01*
X150381714Y-33212166D02*
X151048380Y-33212166D01*
X150381714Y-33640738D02*
X150905523Y-33640738D01*
X151000761Y-33593119D01*
X151048380Y-33497880D01*
X151048380Y-33355023D01*
X151000761Y-33259785D01*
X150953142Y-33212166D01*
X151048380Y-32307404D02*
X150524571Y-32307404D01*
X150429333Y-32355023D01*
X150381714Y-32450261D01*
X150381714Y-32640738D01*
X150429333Y-32735976D01*
X151000761Y-32307404D02*
X151048380Y-32402642D01*
X151048380Y-32640738D01*
X151000761Y-32735976D01*
X150905523Y-32783595D01*
X150810285Y-32783595D01*
X150715047Y-32735976D01*
X150667428Y-32640738D01*
X150667428Y-32402642D01*
X150619809Y-32307404D01*
X151048380Y-31688357D02*
X151000761Y-31783595D01*
X150905523Y-31831214D01*
X150048380Y-31831214D01*
X151048380Y-31307404D02*
X150381714Y-31307404D01*
X150048380Y-31307404D02*
X150096000Y-31355023D01*
X150143619Y-31307404D01*
X150096000Y-31259785D01*
X150048380Y-31307404D01*
X150143619Y-31307404D01*
X150381714Y-30974071D02*
X150381714Y-30593119D01*
X150048380Y-30831214D02*
X150905523Y-30831214D01*
X151000761Y-30783595D01*
X151048380Y-30688357D01*
X151048380Y-30593119D01*
X150381714Y-30355023D02*
X151048380Y-30116928D01*
X150381714Y-29878833D02*
X151048380Y-30116928D01*
X151286476Y-30212166D01*
X151334095Y-30259785D01*
X151381714Y-30355023D01*
X147595238Y-26576380D02*
X147595238Y-25576380D01*
X148071428Y-26576380D02*
X148071428Y-25576380D01*
X148642857Y-26576380D01*
X148642857Y-25576380D01*
X149119047Y-26576380D02*
X149119047Y-25576380D01*
X149119047Y-26052571D02*
X149690476Y-26052571D01*
X149690476Y-26576380D02*
X149690476Y-25576380D01*
X150166666Y-26576380D02*
X150166666Y-25576380D01*
X150976190Y-26052571D02*
X151119047Y-26100190D01*
X151166666Y-26147809D01*
X151214285Y-26243047D01*
X151214285Y-26385904D01*
X151166666Y-26481142D01*
X151119047Y-26528761D01*
X151023809Y-26576380D01*
X150642857Y-26576380D01*
X150642857Y-25576380D01*
X150976190Y-25576380D01*
X151071428Y-25624000D01*
X151119047Y-25671619D01*
X151166666Y-25766857D01*
X151166666Y-25862095D01*
X151119047Y-25957333D01*
X151071428Y-26004952D01*
X150976190Y-26052571D01*
X150642857Y-26052571D01*
X151642857Y-26576380D02*
X151642857Y-25576380D01*
X151976190Y-25576380D02*
X152547619Y-25576380D01*
X152261904Y-26576380D02*
X152261904Y-25576380D01*
X134196619Y-55611880D02*
X134863285Y-55611880D01*
X134196619Y-56611880D01*
X134863285Y-56611880D01*
X135149000Y-56611880D02*
X135672809Y-55945214D01*
X135149000Y-55945214D02*
X135672809Y-56611880D01*
X136482333Y-56564261D02*
X136387095Y-56611880D01*
X136196619Y-56611880D01*
X136101380Y-56564261D01*
X136053761Y-56516642D01*
X136006142Y-56421404D01*
X136006142Y-56135690D01*
X136053761Y-56040452D01*
X136101380Y-55992833D01*
X136196619Y-55945214D01*
X136387095Y-55945214D01*
X136482333Y-55992833D01*
X136768047Y-55945214D02*
X137149000Y-55945214D01*
X136910904Y-55611880D02*
X136910904Y-56469023D01*
X136958523Y-56564261D01*
X137053761Y-56611880D01*
X137149000Y-56611880D01*
X138617666Y-53135380D02*
X139236714Y-53135380D01*
X138903380Y-53516333D01*
X139046238Y-53516333D01*
X139141476Y-53563952D01*
X139189095Y-53611571D01*
X139236714Y-53706809D01*
X139236714Y-53944904D01*
X139189095Y-54040142D01*
X139141476Y-54087761D01*
X139046238Y-54135380D01*
X138760523Y-54135380D01*
X138665285Y-54087761D01*
X138617666Y-54040142D01*
X138665285Y-49547619D02*
X138712904Y-49500000D01*
X138808142Y-49452380D01*
X139046238Y-49452380D01*
X139141476Y-49500000D01*
X139189095Y-49547619D01*
X139236714Y-49642857D01*
X139236714Y-49738095D01*
X139189095Y-49880952D01*
X138617666Y-50452380D01*
X139236714Y-50452380D01*
X139173214Y-46959880D02*
X138601785Y-46959880D01*
X138887500Y-46959880D02*
X138887500Y-45959880D01*
X138792261Y-46102738D01*
X138697023Y-46197976D01*
X138601785Y-46245595D01*
X126116071Y-52865095D02*
X126116071Y-52531761D01*
X126639880Y-52388904D02*
X126639880Y-52865095D01*
X125639880Y-52865095D01*
X125639880Y-52388904D01*
X125639880Y-52055571D02*
X126639880Y-51388904D01*
X125639880Y-51388904D02*
X126639880Y-52055571D01*
X126544642Y-50436523D02*
X126592261Y-50484142D01*
X126639880Y-50627000D01*
X126639880Y-50722238D01*
X126592261Y-50865095D01*
X126497023Y-50960333D01*
X126401785Y-51007952D01*
X126211309Y-51055571D01*
X126068452Y-51055571D01*
X125877976Y-51007952D01*
X125782738Y-50960333D01*
X125687500Y-50865095D01*
X125639880Y-50722238D01*
X125639880Y-50627000D01*
X125687500Y-50484142D01*
X125735119Y-50436523D01*
X126639880Y-50007952D02*
X125639880Y-50007952D01*
X125639880Y-49674619D02*
X125639880Y-49103190D01*
X126639880Y-49388904D02*
X125639880Y-49388904D01*
X126116071Y-48769857D02*
X126116071Y-48436523D01*
X126639880Y-48293666D02*
X126639880Y-48769857D01*
X125639880Y-48769857D01*
X125639880Y-48293666D01*
X125735119Y-47912714D02*
X125687500Y-47865095D01*
X125639880Y-47769857D01*
X125639880Y-47531761D01*
X125687500Y-47436523D01*
X125735119Y-47388904D01*
X125830357Y-47341285D01*
X125925595Y-47341285D01*
X126068452Y-47388904D01*
X126639880Y-47960333D01*
X126639880Y-47341285D01*
X140507023Y-52913071D02*
X140649880Y-52960690D01*
X140697500Y-53008309D01*
X140745119Y-53103547D01*
X140745119Y-53246404D01*
X140697500Y-53341642D01*
X140649880Y-53389261D01*
X140554642Y-53436880D01*
X140173690Y-53436880D01*
X140173690Y-52436880D01*
X140507023Y-52436880D01*
X140602261Y-52484500D01*
X140649880Y-52532119D01*
X140697500Y-52627357D01*
X140697500Y-52722595D01*
X140649880Y-52817833D01*
X140602261Y-52865452D01*
X140507023Y-52913071D01*
X140173690Y-52913071D01*
X141173690Y-53436880D02*
X141173690Y-52436880D01*
X141602261Y-53151166D02*
X142078452Y-53151166D01*
X141507023Y-53436880D02*
X141840357Y-52436880D01*
X142173690Y-53436880D01*
X142459404Y-53389261D02*
X142602261Y-53436880D01*
X142840357Y-53436880D01*
X142935595Y-53389261D01*
X142983214Y-53341642D01*
X143030833Y-53246404D01*
X143030833Y-53151166D01*
X142983214Y-53055928D01*
X142935595Y-53008309D01*
X142840357Y-52960690D01*
X142649880Y-52913071D01*
X142554642Y-52865452D01*
X142507023Y-52817833D01*
X142459404Y-52722595D01*
X142459404Y-52627357D01*
X142507023Y-52532119D01*
X142554642Y-52484500D01*
X142649880Y-52436880D01*
X142887976Y-52436880D01*
X143030833Y-52484500D01*
X143364166Y-53436880D02*
X143887976Y-52770214D01*
X143364166Y-52770214D02*
X143887976Y-53436880D01*
X144697500Y-53389261D02*
X144602261Y-53436880D01*
X144411785Y-53436880D01*
X144316547Y-53389261D01*
X144268928Y-53341642D01*
X144221309Y-53246404D01*
X144221309Y-52960690D01*
X144268928Y-52865452D01*
X144316547Y-52817833D01*
X144411785Y-52770214D01*
X144602261Y-52770214D01*
X144697500Y-52817833D01*
X144983214Y-52770214D02*
X145364166Y-52770214D01*
X145126071Y-52436880D02*
X145126071Y-53294023D01*
X145173690Y-53389261D01*
X145268928Y-53436880D01*
X145364166Y-53436880D01*
X153484571Y-44848285D02*
X153532190Y-44705428D01*
X153579809Y-44657809D01*
X153675047Y-44610190D01*
X153817904Y-44610190D01*
X153913142Y-44657809D01*
X153960761Y-44705428D01*
X154008380Y-44800666D01*
X154008380Y-45181619D01*
X153008380Y-45181619D01*
X153008380Y-44848285D01*
X153056000Y-44753047D01*
X153103619Y-44705428D01*
X153198857Y-44657809D01*
X153294095Y-44657809D01*
X153389333Y-44705428D01*
X153436952Y-44753047D01*
X153484571Y-44848285D01*
X153484571Y-45181619D01*
X154008380Y-44181619D02*
X153008380Y-44181619D01*
X153722666Y-43753047D02*
X153722666Y-43276857D01*
X154008380Y-43848285D02*
X153008380Y-43514952D01*
X154008380Y-43181619D01*
X153960761Y-42895904D02*
X154008380Y-42753047D01*
X154008380Y-42514952D01*
X153960761Y-42419714D01*
X153913142Y-42372095D01*
X153817904Y-42324476D01*
X153722666Y-42324476D01*
X153627428Y-42372095D01*
X153579809Y-42419714D01*
X153532190Y-42514952D01*
X153484571Y-42705428D01*
X153436952Y-42800666D01*
X153389333Y-42848285D01*
X153294095Y-42895904D01*
X153198857Y-42895904D01*
X153103619Y-42848285D01*
X153056000Y-42800666D01*
X153008380Y-42705428D01*
X153008380Y-42467333D01*
X153056000Y-42324476D01*
X154008380Y-41895904D02*
X153341714Y-41895904D01*
X153008380Y-41895904D02*
X153056000Y-41943523D01*
X153103619Y-41895904D01*
X153056000Y-41848285D01*
X153008380Y-41895904D01*
X153103619Y-41895904D01*
X153341714Y-41419714D02*
X154008380Y-41419714D01*
X153436952Y-41419714D02*
X153389333Y-41372095D01*
X153341714Y-41276857D01*
X153341714Y-41134000D01*
X153389333Y-41038761D01*
X153484571Y-40991142D01*
X154008380Y-40991142D01*
X154008380Y-40514952D02*
X153008380Y-40514952D01*
X154008380Y-40086380D02*
X153484571Y-40086380D01*
X153389333Y-40134000D01*
X153341714Y-40229238D01*
X153341714Y-40372095D01*
X153389333Y-40467333D01*
X153436952Y-40514952D01*
X138708238Y-43761880D02*
X138708238Y-43095214D01*
X138708238Y-42761880D02*
X138660619Y-42809500D01*
X138708238Y-42857119D01*
X138755857Y-42809500D01*
X138708238Y-42761880D01*
X138708238Y-42857119D01*
X139184428Y-43095214D02*
X139184428Y-43761880D01*
X139184428Y-43190452D02*
X139232047Y-43142833D01*
X139327285Y-43095214D01*
X139470142Y-43095214D01*
X139565380Y-43142833D01*
X139613000Y-43238071D01*
X139613000Y-43761880D01*
X140089190Y-43761880D02*
X140089190Y-42761880D01*
X140517761Y-43761880D02*
X140517761Y-43238071D01*
X140470142Y-43142833D01*
X140374904Y-43095214D01*
X140232047Y-43095214D01*
X140136809Y-43142833D01*
X140089190Y-43190452D01*
X130273809Y-43698380D02*
X130797619Y-43031714D01*
X130273809Y-43031714D02*
X130797619Y-43698380D01*
X131607142Y-43650761D02*
X131511904Y-43698380D01*
X131321428Y-43698380D01*
X131226190Y-43650761D01*
X131178571Y-43603142D01*
X131130952Y-43507904D01*
X131130952Y-43222190D01*
X131178571Y-43126952D01*
X131226190Y-43079333D01*
X131321428Y-43031714D01*
X131511904Y-43031714D01*
X131607142Y-43079333D01*
X131892857Y-43031714D02*
X132273809Y-43031714D01*
X132035714Y-42698380D02*
X132035714Y-43555523D01*
X132083333Y-43650761D01*
X132178571Y-43698380D01*
X132273809Y-43698380D01*
X134644642Y-35856214D02*
X134644642Y-36856214D01*
X134644642Y-35903833D02*
X134739880Y-35856214D01*
X134930357Y-35856214D01*
X135025595Y-35903833D01*
X135073214Y-35951452D01*
X135120833Y-36046690D01*
X135120833Y-36332404D01*
X135073214Y-36427642D01*
X135025595Y-36475261D01*
X134930357Y-36522880D01*
X134739880Y-36522880D01*
X134644642Y-36475261D01*
X135930357Y-36475261D02*
X135835119Y-36522880D01*
X135644642Y-36522880D01*
X135549404Y-36475261D01*
X135501785Y-36380023D01*
X135501785Y-35999071D01*
X135549404Y-35903833D01*
X135644642Y-35856214D01*
X135835119Y-35856214D01*
X135930357Y-35903833D01*
X135977976Y-35999071D01*
X135977976Y-36094309D01*
X135501785Y-36189547D01*
X136835119Y-36522880D02*
X136835119Y-35999071D01*
X136787500Y-35903833D01*
X136692261Y-35856214D01*
X136501785Y-35856214D01*
X136406547Y-35903833D01*
X136835119Y-36475261D02*
X136739880Y-36522880D01*
X136501785Y-36522880D01*
X136406547Y-36475261D01*
X136358928Y-36380023D01*
X136358928Y-36284785D01*
X136406547Y-36189547D01*
X136501785Y-36141928D01*
X136739880Y-36141928D01*
X136835119Y-36094309D01*
X137311309Y-36522880D02*
X137311309Y-35522880D01*
X137406547Y-36141928D02*
X137692261Y-36522880D01*
X137692261Y-35856214D02*
X137311309Y-36237166D01*
X138120833Y-36141928D02*
X138882738Y-36141928D01*
X139358928Y-36522880D02*
X139358928Y-35522880D01*
X139358928Y-35903833D02*
X139454166Y-35856214D01*
X139644642Y-35856214D01*
X139739880Y-35903833D01*
X139787500Y-35951452D01*
X139835119Y-36046690D01*
X139835119Y-36332404D01*
X139787500Y-36427642D01*
X139739880Y-36475261D01*
X139644642Y-36522880D01*
X139454166Y-36522880D01*
X139358928Y-36475261D01*
X140406547Y-36522880D02*
X140311309Y-36475261D01*
X140263690Y-36380023D01*
X140263690Y-35522880D01*
X141168452Y-36475261D02*
X141073214Y-36522880D01*
X140882738Y-36522880D01*
X140787500Y-36475261D01*
X140739880Y-36380023D01*
X140739880Y-35999071D01*
X140787500Y-35903833D01*
X140882738Y-35856214D01*
X141073214Y-35856214D01*
X141168452Y-35903833D01*
X141216071Y-35999071D01*
X141216071Y-36094309D01*
X140739880Y-36189547D01*
X142025595Y-36475261D02*
X141930357Y-36522880D01*
X141739880Y-36522880D01*
X141644642Y-36475261D01*
X141597023Y-36380023D01*
X141597023Y-35999071D01*
X141644642Y-35903833D01*
X141739880Y-35856214D01*
X141930357Y-35856214D01*
X142025595Y-35903833D01*
X142073214Y-35999071D01*
X142073214Y-36094309D01*
X141597023Y-36189547D01*
X142930357Y-36522880D02*
X142930357Y-35522880D01*
X142930357Y-36475261D02*
X142835119Y-36522880D01*
X142644642Y-36522880D01*
X142549404Y-36475261D01*
X142501785Y-36427642D01*
X142454166Y-36332404D01*
X142454166Y-36046690D01*
X142501785Y-35951452D01*
X142549404Y-35903833D01*
X142644642Y-35856214D01*
X142835119Y-35856214D01*
X142930357Y-35903833D01*
D10*
X135422000Y-36896000D02*
X135422000Y-42484000D01*
X126278000Y-36896000D02*
X126278000Y-42484000D01*
X144566000Y-36896000D02*
X126278000Y-36896000D01*
X144566000Y-42484000D02*
X144566000Y-36896000D01*
X144312000Y-42484000D02*
X144566000Y-42484000D01*
X126278000Y-42484000D02*
X144312000Y-42484000D01*
D12*
G04 #@! TO.C,U4*
X148790000Y-55595000D02*
X138510000Y-55595000D01*
X148790000Y-65995000D02*
X148790000Y-55595000D01*
X138510000Y-65995000D02*
X148790000Y-65995000D01*
X138510000Y-55595000D02*
X138510000Y-65995000D01*
X146300000Y-55655000D02*
X144650000Y-55655000D01*
X146300000Y-65935000D02*
X146300000Y-55655000D01*
X141000000Y-65935000D02*
X146300000Y-65935000D01*
X141000000Y-55655000D02*
X141000000Y-65935000D01*
X142650000Y-55655000D02*
X141000000Y-55655000D01*
X144650000Y-55655000D02*
G75*
G02X142650000Y-55655000I-1000000J0D01*
G01*
G04 #@! TO.C,R2*
X135876000Y-50000000D02*
G75*
G03X135876000Y-50000000I-1370000J0D01*
G01*
X135876000Y-50000000D02*
X135946000Y-50000000D01*
G04 #@! TO.C,D6*
X172134000Y-48729500D02*
X172134000Y-48573500D01*
X172134000Y-51045500D02*
X172134000Y-50889500D01*
X169532870Y-48729663D02*
G75*
G02X171614961Y-48729500I1041130J-1079837D01*
G01*
X169532870Y-50889337D02*
G75*
G03X171614961Y-50889500I1041130J1079837D01*
G01*
X168901665Y-48730892D02*
G75*
G02X172134000Y-48573984I1672335J-1078608D01*
G01*
X168901665Y-50888108D02*
G75*
G03X172134000Y-51045016I1672335J1078608D01*
G01*
G04 #@! TO.C,W3*
X134573000Y-58195000D02*
X135903000Y-58195000D01*
X134573000Y-59525000D02*
X134573000Y-58195000D01*
X134573000Y-60795000D02*
X137233000Y-60795000D01*
X137233000Y-60795000D02*
X137233000Y-63395000D01*
X134573000Y-60795000D02*
X134573000Y-63395000D01*
X134573000Y-63395000D02*
X137233000Y-63395000D01*
G04 #@! TO.C,C11*
X139572000Y-68446000D02*
X140830000Y-68446000D01*
X139572000Y-66606000D02*
X140830000Y-66606000D01*
G04 #@! TO.C,C12*
X159812000Y-52653000D02*
X159812000Y-53911000D01*
X161652000Y-52653000D02*
X161652000Y-53911000D01*
G04 #@! TO.C,C13*
X159812000Y-40969000D02*
X159812000Y-42227000D01*
X161652000Y-40969000D02*
X161652000Y-42227000D01*
G04 #@! TO.C,C15*
X161652000Y-59031000D02*
X161652000Y-57773000D01*
X159812000Y-59031000D02*
X159812000Y-57773000D01*
G04 #@! TO.C,C16*
X144570000Y-63944000D02*
X144570000Y-62686000D01*
X142730000Y-63944000D02*
X142730000Y-62686000D01*
G04 #@! TO.C,U1*
X155294000Y-27632000D02*
X145014000Y-27632000D01*
X155294000Y-38032000D02*
X155294000Y-27632000D01*
X145014000Y-38032000D02*
X155294000Y-38032000D01*
X145014000Y-27632000D02*
X145014000Y-38032000D01*
X152804000Y-27692000D02*
X151154000Y-27692000D01*
X152804000Y-37972000D02*
X152804000Y-27692000D01*
X147504000Y-37972000D02*
X152804000Y-37972000D01*
X147504000Y-27692000D02*
X147504000Y-37972000D01*
X149154000Y-27692000D02*
X147504000Y-27692000D01*
X151154000Y-27692000D02*
G75*
G02X149154000Y-27692000I-1000000J0D01*
G01*
G04 #@! TO.C,U2*
X165872000Y-38958000D02*
X155592000Y-38958000D01*
X165872000Y-49358000D02*
X165872000Y-38958000D01*
X155592000Y-49358000D02*
X165872000Y-49358000D01*
X155592000Y-38958000D02*
X155592000Y-49358000D01*
X163382000Y-39018000D02*
X161732000Y-39018000D01*
X163382000Y-49298000D02*
X163382000Y-39018000D01*
X158082000Y-49298000D02*
X163382000Y-49298000D01*
X158082000Y-39018000D02*
X158082000Y-49298000D01*
X159732000Y-39018000D02*
X158082000Y-39018000D01*
X161732000Y-39018000D02*
G75*
G02X159732000Y-39018000I-1000000J0D01*
G01*
G04 #@! TO.C,U3*
X165872000Y-50642000D02*
X155592000Y-50642000D01*
X165872000Y-61042000D02*
X165872000Y-50642000D01*
X155592000Y-61042000D02*
X165872000Y-61042000D01*
X155592000Y-50642000D02*
X155592000Y-61042000D01*
X163382000Y-50702000D02*
X161732000Y-50702000D01*
X163382000Y-60982000D02*
X163382000Y-50702000D01*
X158082000Y-60982000D02*
X163382000Y-60982000D01*
X158082000Y-50702000D02*
X158082000Y-60982000D01*
X159732000Y-50702000D02*
X158082000Y-50702000D01*
X161732000Y-50702000D02*
G75*
G02X159732000Y-50702000I-1000000J0D01*
G01*
G04 #@! TO.C,C7*
X142730000Y-57606000D02*
X142730000Y-58864000D01*
X144570000Y-57606000D02*
X144570000Y-58864000D01*
G04 #@! TO.C,C9*
X161652000Y-47347000D02*
X161652000Y-46089000D01*
X159812000Y-47347000D02*
X159812000Y-46089000D01*
G04 #@! TO.C,C10*
X161225000Y-63556500D02*
X162483000Y-63556500D01*
X161225000Y-61716500D02*
X162483000Y-61716500D01*
D10*
G04 #@! TO.C,P5*
X145682000Y-74765000D02*
X145682000Y-79591000D01*
X154318000Y-74765000D02*
X145682000Y-74765000D01*
X154318000Y-79591000D02*
X154318000Y-74765000D01*
D12*
X153870000Y-77983000D02*
X146130000Y-77983000D01*
X146130000Y-77983000D02*
X146130000Y-80643000D01*
X146130000Y-80643000D02*
X153870000Y-80643000D01*
X153870000Y-80643000D02*
X153870000Y-77983000D01*
X152920000Y-80643000D02*
X152920000Y-86643000D01*
X152920000Y-86643000D02*
X152160000Y-86643000D01*
X152160000Y-86643000D02*
X152160000Y-80643000D01*
X152860000Y-80643000D02*
X152860000Y-86643000D01*
X152740000Y-80643000D02*
X152740000Y-86643000D01*
X152620000Y-80643000D02*
X152620000Y-86643000D01*
X152500000Y-80643000D02*
X152500000Y-86643000D01*
X152380000Y-80643000D02*
X152379999Y-86643000D01*
X152260000Y-80643000D02*
X152260001Y-86643000D01*
X152920000Y-77653000D02*
X152920000Y-77983000D01*
X152160000Y-77653000D02*
X152160000Y-77983000D01*
X151270000Y-77983000D02*
X151270000Y-80643000D01*
X150380000Y-80643000D02*
X150380000Y-86643000D01*
X150380000Y-86643000D02*
X149620000Y-86643000D01*
X149620000Y-86643000D02*
X149620000Y-80643000D01*
X150380000Y-77585929D02*
X150380000Y-77983000D01*
X149620000Y-77585929D02*
X149620000Y-77983000D01*
X148730000Y-77983000D02*
X148730000Y-80643000D01*
X147840000Y-80643000D02*
X147840001Y-86643000D01*
X147840001Y-86643000D02*
X147079999Y-86643000D01*
X147079999Y-86643000D02*
X147080000Y-80643000D01*
X147840000Y-77585929D02*
X147840000Y-77983000D01*
X147080000Y-77585929D02*
X147080000Y-77983000D01*
G04 #@! TO.C,D1*
X130036371Y-46500000D02*
X130150000Y-46500000D01*
X130036371Y-46500000D02*
G75*
G03X130036371Y-46500000I-1326371J0D01*
G01*
G04 #@! TO.C,D2*
X130036371Y-50000000D02*
X130150000Y-50000000D01*
X130036371Y-50000000D02*
G75*
G03X130036371Y-50000000I-1326371J0D01*
G01*
G04 #@! TO.C,D3*
X130076371Y-53500000D02*
G75*
G03X130076371Y-53500000I-1326371J0D01*
G01*
X130076371Y-53500000D02*
X130190000Y-53500000D01*
G04 #@! TO.C,D4*
X145226371Y-25700000D02*
G75*
G03X145226371Y-25700000I-1326371J0D01*
G01*
X142573629Y-25700000D02*
X142460000Y-25700000D01*
G04 #@! TO.C,D5*
X133116371Y-61000000D02*
G75*
G03X133116371Y-61000000I-1326371J0D01*
G01*
X130463629Y-61000000D02*
X130350000Y-61000000D01*
G04 #@! TO.C,D7*
X139585635Y-33213000D02*
G75*
G03X139585635Y-33213000I-1750635J0D01*
G01*
X137835000Y-31462365D02*
X137835000Y-29533000D01*
G04 #@! TO.C,R5*
X138120000Y-38420000D02*
G75*
G03X138120000Y-38420000I-920000J0D01*
G01*
X137200000Y-39340000D02*
X137200000Y-39960000D01*
G04 #@! TO.C,R6*
X128976000Y-38420000D02*
G75*
G03X128976000Y-38420000I-920000J0D01*
G01*
X128056000Y-39340000D02*
X128056000Y-39960000D01*
G04 #@! TO.C,R7*
X158350000Y-36855500D02*
X158970000Y-36855500D01*
X158350000Y-36855500D02*
G75*
G03X158350000Y-36855500I-920000J0D01*
G01*
G04 #@! TO.C,R8*
X164064000Y-32347000D02*
G75*
G03X164064000Y-32347000I-920000J0D01*
G01*
X163144000Y-33267000D02*
X163144000Y-33887000D01*
G04 #@! TO.C,R9*
X169400000Y-42507000D02*
X168780000Y-42507000D01*
X171240000Y-42507000D02*
G75*
G03X171240000Y-42507000I-920000J0D01*
G01*
G04 #@! TO.C,R10*
X166858000Y-63081000D02*
G75*
G03X166858000Y-63081000I-920000J0D01*
G01*
X166858000Y-63081000D02*
X167478000Y-63081000D01*
G04 #@! TO.C,R11*
X143046000Y-70256500D02*
G75*
G03X143046000Y-70256500I-920000J0D01*
G01*
X142126000Y-71176500D02*
X142126000Y-71796500D01*
G04 #@! TO.C,R12*
X156890000Y-63017500D02*
X156270000Y-63017500D01*
X158730000Y-63017500D02*
G75*
G03X158730000Y-63017500I-920000J0D01*
G01*
G04 #@! TO.C,R13*
X138443000Y-71176500D02*
X138443000Y-71796500D01*
X139363000Y-70256500D02*
G75*
G03X139363000Y-70256500I-920000J0D01*
G01*
G04 #@! TO.C,R14*
X167970000Y-58032000D02*
X167970000Y-58652000D01*
X168890000Y-57112000D02*
G75*
G03X168890000Y-57112000I-920000J0D01*
G01*
G04 #@! TO.C,R15*
X170288000Y-45809000D02*
X170908000Y-45809000D01*
X170288000Y-45809000D02*
G75*
G03X170288000Y-45809000I-920000J0D01*
G01*
G04 #@! TO.C,C1*
X161276000Y-26505000D02*
G75*
G03X161276000Y-26505000I-2620000J0D01*
G01*
X156335000Y-27683000D02*
X156335000Y-25327000D01*
X156295000Y-27603000D02*
X156295000Y-25407000D01*
X156255000Y-27516000D02*
X156255000Y-25494000D01*
X156215000Y-27420000D02*
X156215000Y-25590000D01*
X156175000Y-27310000D02*
X156175000Y-25700000D01*
X156135000Y-27182000D02*
X156135000Y-25828000D01*
X156095000Y-27023000D02*
X156095000Y-25987000D01*
X156055000Y-26789000D02*
X156055000Y-26221000D01*
X160406000Y-27775000D02*
X159906000Y-27775000D01*
X160160000Y-28029000D02*
X160160000Y-27529000D01*
G04 #@! TO.C,C4*
X144392000Y-39670000D02*
G75*
G03X144392000Y-39670000I-2620000J0D01*
G01*
X142950000Y-41991000D02*
X140594000Y-41991000D01*
X142870000Y-42031000D02*
X140674000Y-42031000D01*
X142783000Y-42071000D02*
X140761000Y-42071000D01*
X142687000Y-42111000D02*
X140857000Y-42111000D01*
X142577000Y-42151000D02*
X140967000Y-42151000D01*
X142449000Y-42191000D02*
X141095000Y-42191000D01*
X142290000Y-42231000D02*
X141254000Y-42231000D01*
X142056000Y-42271000D02*
X141488000Y-42271000D01*
X143042000Y-37920000D02*
X143042000Y-38420000D01*
X143296000Y-38166000D02*
X142796000Y-38166000D01*
G04 #@! TO.C,C5*
X134152000Y-38166000D02*
X133652000Y-38166000D01*
X133898000Y-37920000D02*
X133898000Y-38420000D01*
X132912000Y-42271000D02*
X132344000Y-42271000D01*
X133146000Y-42231000D02*
X132110000Y-42231000D01*
X133305000Y-42191000D02*
X131951000Y-42191000D01*
X133433000Y-42151000D02*
X131823000Y-42151000D01*
X133543000Y-42111000D02*
X131713000Y-42111000D01*
X133639000Y-42071000D02*
X131617000Y-42071000D01*
X133726000Y-42031000D02*
X131530000Y-42031000D01*
X133806000Y-41991000D02*
X131450000Y-41991000D01*
X135248000Y-39670000D02*
G75*
G03X135248000Y-39670000I-2620000J0D01*
G01*
G04 #@! TO.C,C6*
X160160000Y-33871000D02*
X160160000Y-33371000D01*
X160406000Y-33617000D02*
X159906000Y-33617000D01*
X156055000Y-32631000D02*
X156055000Y-32063000D01*
X156095000Y-32865000D02*
X156095000Y-31829000D01*
X156135000Y-33024000D02*
X156135000Y-31670000D01*
X156175000Y-33152000D02*
X156175000Y-31542000D01*
X156215000Y-33262000D02*
X156215000Y-31432000D01*
X156255000Y-33358000D02*
X156255000Y-31336000D01*
X156295000Y-33445000D02*
X156295000Y-31249000D01*
X156335000Y-33525000D02*
X156335000Y-31169000D01*
X161276000Y-32347000D02*
G75*
G03X161276000Y-32347000I-2620000J0D01*
G01*
G04 #@! TO.C,C8*
X171690000Y-38125500D02*
G75*
G03X171690000Y-38125500I-2620000J0D01*
G01*
X166749000Y-39303500D02*
X166749000Y-36947500D01*
X166709000Y-39223500D02*
X166709000Y-37027500D01*
X166669000Y-39136500D02*
X166669000Y-37114500D01*
X166629000Y-39040500D02*
X166629000Y-37210500D01*
X166589000Y-38930500D02*
X166589000Y-37320500D01*
X166549000Y-38802500D02*
X166549000Y-37448500D01*
X166509000Y-38643500D02*
X166509000Y-37607500D01*
X166469000Y-38409500D02*
X166469000Y-37841500D01*
X170820000Y-39395500D02*
X170320000Y-39395500D01*
X170574000Y-39649500D02*
X170574000Y-39149500D01*
G04 #@! TO.C,C14*
X171526000Y-57112000D02*
X171026000Y-57112000D01*
X171272000Y-56866000D02*
X171272000Y-57366000D01*
X172826000Y-60963000D02*
X172258000Y-60963000D01*
X173060000Y-60923000D02*
X172024000Y-60923000D01*
X173219000Y-60883000D02*
X171865000Y-60883000D01*
X173347000Y-60843000D02*
X171737000Y-60843000D01*
X173457000Y-60803000D02*
X171627000Y-60803000D01*
X173553000Y-60763000D02*
X171531000Y-60763000D01*
X173640000Y-60723000D02*
X171444000Y-60723000D01*
X173720000Y-60683000D02*
X171364000Y-60683000D01*
X175162000Y-58362000D02*
G75*
G03X175162000Y-58362000I-2620000J0D01*
G01*
G04 #@! TO.C,C17*
X153746000Y-56350000D02*
X153246000Y-56350000D01*
X153492000Y-56104000D02*
X153492000Y-56604000D01*
X152506000Y-60455000D02*
X151938000Y-60455000D01*
X152740000Y-60415000D02*
X151704000Y-60415000D01*
X152899000Y-60375000D02*
X151545000Y-60375000D01*
X153027000Y-60335000D02*
X151417000Y-60335000D01*
X153137000Y-60295000D02*
X151307000Y-60295000D01*
X153233000Y-60255000D02*
X151211000Y-60255000D01*
X153320000Y-60215000D02*
X151124000Y-60215000D01*
X153400000Y-60175000D02*
X151044000Y-60175000D01*
X154842000Y-57854000D02*
G75*
G03X154842000Y-57854000I-2620000J0D01*
G01*
D10*
G04 #@! TO.C,K1*
X145582000Y-25085000D02*
X145582000Y-19497000D01*
X154218000Y-25085000D02*
X145582000Y-25085000D01*
X154218000Y-19497000D02*
X154218000Y-25085000D01*
D12*
X153770000Y-13217000D02*
X146030000Y-13217000D01*
X146030000Y-13217000D02*
X146030000Y-21847000D01*
X153770000Y-19624500D02*
X146030000Y-19624500D01*
X153770000Y-13217000D02*
X153770000Y-21847000D01*
X148630000Y-13217000D02*
X148630000Y-21847000D01*
X151170000Y-13217000D02*
X151170000Y-21847000D01*
X147000000Y-19624500D02*
X147000000Y-20034500D01*
X147720000Y-19624500D02*
X147720000Y-20034500D01*
X149540000Y-19624500D02*
X149540000Y-20034500D01*
X150260000Y-19624500D02*
X150260000Y-20034500D01*
X152080000Y-19624500D02*
X152080000Y-19974500D01*
X152800000Y-19624500D02*
X152800000Y-19974500D01*
D10*
G04 #@! TO.C,K2*
X129289898Y-35382574D02*
X125338585Y-31431261D01*
X135396472Y-29276000D02*
X129289898Y-35382574D01*
X131445159Y-25324687D02*
X135396472Y-29276000D01*
D12*
X126687745Y-21200841D02*
X121214738Y-26673847D01*
X121214738Y-26673847D02*
X127317070Y-32776179D01*
X131218531Y-25731627D02*
X125745525Y-31204634D01*
X126687745Y-21200841D02*
X132790076Y-27303172D01*
X123053216Y-24835369D02*
X129155547Y-30937701D01*
X124849267Y-23039318D02*
X130951598Y-29141650D01*
X126431418Y-30518740D02*
X126721332Y-30808654D01*
X126940535Y-30009623D02*
X127230449Y-30299537D01*
X128227470Y-28722689D02*
X128517383Y-29012603D01*
X128736586Y-28213572D02*
X129026500Y-28503486D01*
X130023521Y-26926638D02*
X130271008Y-27174125D01*
X130532638Y-26417521D02*
X130780125Y-26665008D01*
G04 #@! TO.C,K4*
X126631521Y-69303862D02*
X126879008Y-69056375D01*
X127140638Y-69812979D02*
X127388125Y-69565492D01*
X128427572Y-71099914D02*
X128717486Y-70810000D01*
X128936689Y-71609030D02*
X129226603Y-71319117D01*
X130223623Y-72895965D02*
X130513537Y-72606051D01*
X130732740Y-73405082D02*
X131022654Y-73115168D01*
X123253318Y-74987233D02*
X129355650Y-68884902D01*
X125049369Y-76783284D02*
X131151701Y-70680953D01*
X121414841Y-73148755D02*
X127517172Y-67046424D01*
X125945627Y-68617969D02*
X131418634Y-74090975D01*
X126887847Y-78621762D02*
X132990179Y-72519430D01*
X121414841Y-73148755D02*
X126887847Y-78621762D01*
D10*
X125538687Y-68391341D02*
X129490000Y-64440028D01*
X129490000Y-64440028D02*
X135596574Y-70546602D01*
X135596574Y-70546602D02*
X131645261Y-74497915D01*
D12*
G04 #@! TO.C,K3*
X119774500Y-47100000D02*
X120124500Y-47100000D01*
X119774500Y-47820000D02*
X120124500Y-47820000D01*
X119774500Y-49640000D02*
X120184500Y-49640000D01*
X119774500Y-50360000D02*
X120184500Y-50360000D01*
X119774500Y-52180000D02*
X120184500Y-52180000D01*
X119774500Y-52900000D02*
X120184500Y-52900000D01*
X113367000Y-48730000D02*
X121997000Y-48730000D01*
X113367000Y-51270000D02*
X121997000Y-51270000D01*
X113367000Y-46130000D02*
X121997000Y-46130000D01*
X119774500Y-46130000D02*
X119774500Y-53870000D01*
X113367000Y-53870000D02*
X121997000Y-53870000D01*
X113367000Y-46130000D02*
X113367000Y-53870000D01*
D10*
X119647000Y-45682000D02*
X125235000Y-45682000D01*
X125235000Y-45682000D02*
X125235000Y-54318000D01*
X125235000Y-54318000D02*
X119647000Y-54318000D01*
D12*
G04 #@! TO.C,P2*
X171616265Y-32549341D02*
X171897037Y-32268569D01*
X171078864Y-32011940D02*
X171359636Y-31731168D01*
X178020582Y-26145025D02*
X173777941Y-30387665D01*
X177483180Y-25607623D02*
X178020582Y-26145025D01*
X173240540Y-29850264D02*
X177483180Y-25607623D01*
X170730311Y-31101843D02*
X172611215Y-29220939D01*
X169820214Y-30753290D02*
X170100986Y-30472518D01*
X169282813Y-30215888D02*
X169563584Y-29935117D01*
X176224530Y-24348973D02*
X171981890Y-28591614D01*
X175687129Y-23811572D02*
X176224530Y-24348973D01*
X171444488Y-28054213D02*
X175687129Y-23811572D01*
X168934259Y-29305792D02*
X170815163Y-27424888D01*
X168071589Y-28909812D02*
X168304934Y-28676467D01*
X167534188Y-28372411D02*
X167767533Y-28139066D01*
X170115128Y-26724852D02*
X174357768Y-22482211D01*
X170030275Y-26639999D02*
X174272916Y-22397359D01*
X169945422Y-26555146D02*
X174188063Y-22312506D01*
X169860569Y-26470294D02*
X174103210Y-22227653D01*
X169775716Y-26385441D02*
X174018357Y-22142800D01*
X169690864Y-26300588D02*
X173933504Y-22057947D01*
X174428479Y-22552922D02*
X170185838Y-26795563D01*
X173891078Y-22015521D02*
X174428479Y-22552922D01*
X169648437Y-26258162D02*
X173891078Y-22015521D01*
X168976686Y-25586410D02*
X167095782Y-27467314D01*
X174449692Y-31059417D02*
X168976686Y-25586410D01*
X172568788Y-32940321D02*
X174449692Y-31059417D01*
X167095782Y-27467314D02*
X172568788Y-32940321D01*
D10*
X167916026Y-26013503D02*
X164503528Y-29426000D01*
X164503528Y-29426000D02*
X170610102Y-35532574D01*
X170610102Y-35532574D02*
X174022600Y-32120077D01*
D12*
G04 #@! TO.C,P3*
X177585929Y-52920000D02*
X177983000Y-52920000D01*
X177585929Y-52160000D02*
X177983000Y-52160000D01*
X186643000Y-52920001D02*
X180643000Y-52920000D01*
X186643000Y-52159999D02*
X186643000Y-52920001D01*
X180643000Y-52160000D02*
X186643000Y-52159999D01*
X177983000Y-51270000D02*
X180643000Y-51270000D01*
X177585929Y-50380000D02*
X177983000Y-50380000D01*
X177585929Y-49620000D02*
X177983000Y-49620000D01*
X186643000Y-50380000D02*
X180643000Y-50380000D01*
X186643000Y-49620000D02*
X186643000Y-50380000D01*
X180643000Y-49620000D02*
X186643000Y-49620000D01*
X177983000Y-48730000D02*
X180643000Y-48730000D01*
X177653000Y-47840000D02*
X177983000Y-47840000D01*
X177653000Y-47080000D02*
X177983000Y-47080000D01*
X180643000Y-47740000D02*
X186643000Y-47739999D01*
X180643000Y-47620000D02*
X186643000Y-47620001D01*
X180643000Y-47500000D02*
X186643000Y-47500000D01*
X180643000Y-47380000D02*
X186643000Y-47380000D01*
X180643000Y-47260000D02*
X186643000Y-47260000D01*
X180643000Y-47140000D02*
X186643000Y-47140000D01*
X186643000Y-47840000D02*
X180643000Y-47840000D01*
X186643000Y-47080000D02*
X186643000Y-47840000D01*
X180643000Y-47080000D02*
X186643000Y-47080000D01*
X180643000Y-46130000D02*
X177983000Y-46130000D01*
X180643000Y-53870000D02*
X180643000Y-46130000D01*
X177983000Y-53870000D02*
X180643000Y-53870000D01*
X177983000Y-46130000D02*
X177983000Y-53870000D01*
D10*
X179591000Y-45682000D02*
X174765000Y-45682000D01*
X174765000Y-45682000D02*
X174765000Y-54318000D01*
X174765000Y-54318000D02*
X179591000Y-54318000D01*
G04 #@! TO.C,P4*
X164485426Y-70592002D02*
X167897923Y-74004500D01*
X170592000Y-64485428D02*
X164485426Y-70592002D01*
X174004497Y-67897926D02*
X170592000Y-64485428D01*
D12*
X172550686Y-67077682D02*
X167077679Y-72550688D01*
X167077679Y-72550688D02*
X168958583Y-74431592D01*
X168958583Y-74431592D02*
X174431590Y-68958586D01*
X174431590Y-68958586D02*
X172550686Y-67077682D01*
X173759838Y-69630337D02*
X178002479Y-73872978D01*
X178002479Y-73872978D02*
X177465078Y-74410379D01*
X177465078Y-74410379D02*
X173222437Y-70167738D01*
X173717412Y-69672764D02*
X177960053Y-73915404D01*
X173632559Y-69757616D02*
X177875200Y-74000257D01*
X173547706Y-69842469D02*
X177790347Y-74085110D01*
X173462854Y-69927322D02*
X177705494Y-74169963D01*
X173378001Y-70012175D02*
X177620641Y-74254816D01*
X173293148Y-70097028D02*
X177535789Y-74339668D01*
X171645589Y-67516088D02*
X171878934Y-67749433D01*
X171108188Y-68053489D02*
X171341533Y-68286834D01*
X170712208Y-68916159D02*
X172593112Y-70797063D01*
X171963787Y-71426388D02*
X176206428Y-75669029D01*
X176206428Y-75669029D02*
X175669027Y-76206430D01*
X175669027Y-76206430D02*
X171426386Y-71963790D01*
X169802112Y-69264713D02*
X170082883Y-69545484D01*
X169264710Y-69802114D02*
X169545482Y-70082886D01*
X168916157Y-70712211D02*
X170797061Y-72593115D01*
X170167736Y-73222440D02*
X174410377Y-77465080D01*
X174410377Y-77465080D02*
X173872975Y-78002482D01*
X173872975Y-78002482D02*
X169630335Y-73759841D01*
X168006060Y-71060764D02*
X168286832Y-71341536D01*
X167468659Y-71598165D02*
X167749431Y-71878937D01*
G04 #@! TO.C,R1*
X135876000Y-46444000D02*
G75*
G03X135876000Y-46444000I-1370000J0D01*
G01*
X135876000Y-46444000D02*
X135946000Y-46444000D01*
G04 #@! TO.C,R3*
X135876000Y-53556000D02*
X135946000Y-53556000D01*
X135876000Y-53556000D02*
G75*
G03X135876000Y-53556000I-1370000J0D01*
G01*
G04 #@! TO.C,R4*
X142915000Y-30392000D02*
X142915000Y-30462000D01*
X144285000Y-29022000D02*
G75*
G03X144285000Y-29022000I-1370000J0D01*
G01*
G04 #@! TO.C,RV1*
X152486000Y-41582000D02*
X152486000Y-44687000D01*
X152486000Y-39947000D02*
X152486000Y-40592000D01*
X145536000Y-41582000D02*
X145536000Y-44687000D01*
X145536000Y-39947000D02*
X145536000Y-40592000D01*
X145536000Y-44687000D02*
X152486000Y-44687000D01*
X145536000Y-39947000D02*
X152486000Y-39947000D01*
D10*
X152059000Y-43373000D02*
G75*
G03X152059000Y-43373000I-1016000J0D01*
G01*
X152059000Y-43373000D02*
X150027000Y-43373000D01*
G04 #@! TO.C,RV2*
X143523000Y-45555000D02*
X143523000Y-47587000D01*
X144539000Y-46571000D02*
G75*
G03X144539000Y-46571000I-1016000J0D01*
G01*
D12*
X140097000Y-52078000D02*
X140097000Y-45128000D01*
X144837000Y-52078000D02*
X144837000Y-45128000D01*
X140097000Y-52078000D02*
X140742000Y-52078000D01*
X141732000Y-52078000D02*
X144837000Y-52078000D01*
X140097000Y-45128000D02*
X140742000Y-45128000D01*
X141732000Y-45128000D02*
X144837000Y-45128000D01*
G04 #@! TO.C,RV3*
X145265000Y-69905000D02*
X145265000Y-66800000D01*
X145265000Y-71540000D02*
X145265000Y-70895000D01*
X152215000Y-69905000D02*
X152215000Y-66800000D01*
X152215000Y-71540000D02*
X152215000Y-70895000D01*
X152215000Y-66800000D02*
X145265000Y-66800000D01*
X152215000Y-71540000D02*
X145265000Y-71540000D01*
D10*
X147724000Y-68114000D02*
G75*
G03X147724000Y-68114000I-1016000J0D01*
G01*
X145692000Y-68114000D02*
X147724000Y-68114000D01*
D12*
G04 #@! TO.C,SW1*
X160164214Y-69250000D02*
G75*
G03X160164214Y-69250000I-1414214J0D01*
G01*
X155780000Y-72370000D02*
X161720000Y-72370000D01*
X155780000Y-66130000D02*
X161720000Y-66130000D01*
X155630000Y-70590000D02*
X155630000Y-67910000D01*
X161870000Y-67910000D02*
X161870000Y-70590000D01*
G04 #@! TO.C,C11*
D10*
X137530142Y-67914857D02*
X137577761Y-67962476D01*
X137625380Y-68105333D01*
X137625380Y-68200571D01*
X137577761Y-68343428D01*
X137482523Y-68438666D01*
X137387285Y-68486285D01*
X137196809Y-68533904D01*
X137053952Y-68533904D01*
X136863476Y-68486285D01*
X136768238Y-68438666D01*
X136673000Y-68343428D01*
X136625380Y-68200571D01*
X136625380Y-68105333D01*
X136673000Y-67962476D01*
X136720619Y-67914857D01*
X137625380Y-66962476D02*
X137625380Y-67533904D01*
X137625380Y-67248190D02*
X136625380Y-67248190D01*
X136768238Y-67343428D01*
X136863476Y-67438666D01*
X136911095Y-67533904D01*
X137625380Y-66010095D02*
X137625380Y-66581523D01*
X137625380Y-66295809D02*
X136625380Y-66295809D01*
X136768238Y-66391047D01*
X136863476Y-66486285D01*
X136911095Y-66581523D01*
G04 #@! TO.C,C12*
X162930142Y-53924857D02*
X162977761Y-53972476D01*
X163025380Y-54115333D01*
X163025380Y-54210571D01*
X162977761Y-54353428D01*
X162882523Y-54448666D01*
X162787285Y-54496285D01*
X162596809Y-54543904D01*
X162453952Y-54543904D01*
X162263476Y-54496285D01*
X162168238Y-54448666D01*
X162073000Y-54353428D01*
X162025380Y-54210571D01*
X162025380Y-54115333D01*
X162073000Y-53972476D01*
X162120619Y-53924857D01*
X163025380Y-52972476D02*
X163025380Y-53543904D01*
X163025380Y-53258190D02*
X162025380Y-53258190D01*
X162168238Y-53353428D01*
X162263476Y-53448666D01*
X162311095Y-53543904D01*
X162120619Y-52591523D02*
X162073000Y-52543904D01*
X162025380Y-52448666D01*
X162025380Y-52210571D01*
X162073000Y-52115333D01*
X162120619Y-52067714D01*
X162215857Y-52020095D01*
X162311095Y-52020095D01*
X162453952Y-52067714D01*
X163025380Y-52639142D01*
X163025380Y-52020095D01*
G04 #@! TO.C,C13*
X162993642Y-42240857D02*
X163041261Y-42288476D01*
X163088880Y-42431333D01*
X163088880Y-42526571D01*
X163041261Y-42669428D01*
X162946023Y-42764666D01*
X162850785Y-42812285D01*
X162660309Y-42859904D01*
X162517452Y-42859904D01*
X162326976Y-42812285D01*
X162231738Y-42764666D01*
X162136500Y-42669428D01*
X162088880Y-42526571D01*
X162088880Y-42431333D01*
X162136500Y-42288476D01*
X162184119Y-42240857D01*
X163088880Y-41288476D02*
X163088880Y-41859904D01*
X163088880Y-41574190D02*
X162088880Y-41574190D01*
X162231738Y-41669428D01*
X162326976Y-41764666D01*
X162374595Y-41859904D01*
X162088880Y-40955142D02*
X162088880Y-40336095D01*
X162469833Y-40669428D01*
X162469833Y-40526571D01*
X162517452Y-40431333D01*
X162565071Y-40383714D01*
X162660309Y-40336095D01*
X162898404Y-40336095D01*
X162993642Y-40383714D01*
X163041261Y-40431333D01*
X163088880Y-40526571D01*
X163088880Y-40812285D01*
X163041261Y-40907523D01*
X162993642Y-40955142D01*
G04 #@! TO.C,C15*
X162993642Y-58834357D02*
X163041261Y-58881976D01*
X163088880Y-59024833D01*
X163088880Y-59120071D01*
X163041261Y-59262928D01*
X162946023Y-59358166D01*
X162850785Y-59405785D01*
X162660309Y-59453404D01*
X162517452Y-59453404D01*
X162326976Y-59405785D01*
X162231738Y-59358166D01*
X162136500Y-59262928D01*
X162088880Y-59120071D01*
X162088880Y-59024833D01*
X162136500Y-58881976D01*
X162184119Y-58834357D01*
X163088880Y-57881976D02*
X163088880Y-58453404D01*
X163088880Y-58167690D02*
X162088880Y-58167690D01*
X162231738Y-58262928D01*
X162326976Y-58358166D01*
X162374595Y-58453404D01*
X162088880Y-56977214D02*
X162088880Y-57453404D01*
X162565071Y-57501023D01*
X162517452Y-57453404D01*
X162469833Y-57358166D01*
X162469833Y-57120071D01*
X162517452Y-57024833D01*
X162565071Y-56977214D01*
X162660309Y-56929595D01*
X162898404Y-56929595D01*
X162993642Y-56977214D01*
X163041261Y-57024833D01*
X163088880Y-57120071D01*
X163088880Y-57358166D01*
X163041261Y-57453404D01*
X162993642Y-57501023D01*
G04 #@! TO.C,C16*
X145848642Y-63850857D02*
X145896261Y-63898476D01*
X145943880Y-64041333D01*
X145943880Y-64136571D01*
X145896261Y-64279428D01*
X145801023Y-64374666D01*
X145705785Y-64422285D01*
X145515309Y-64469904D01*
X145372452Y-64469904D01*
X145181976Y-64422285D01*
X145086738Y-64374666D01*
X144991500Y-64279428D01*
X144943880Y-64136571D01*
X144943880Y-64041333D01*
X144991500Y-63898476D01*
X145039119Y-63850857D01*
X145943880Y-62898476D02*
X145943880Y-63469904D01*
X145943880Y-63184190D02*
X144943880Y-63184190D01*
X145086738Y-63279428D01*
X145181976Y-63374666D01*
X145229595Y-63469904D01*
X144943880Y-62041333D02*
X144943880Y-62231809D01*
X144991500Y-62327047D01*
X145039119Y-62374666D01*
X145181976Y-62469904D01*
X145372452Y-62517523D01*
X145753404Y-62517523D01*
X145848642Y-62469904D01*
X145896261Y-62422285D01*
X145943880Y-62327047D01*
X145943880Y-62136571D01*
X145896261Y-62041333D01*
X145848642Y-61993714D01*
X145753404Y-61946095D01*
X145515309Y-61946095D01*
X145420071Y-61993714D01*
X145372452Y-62041333D01*
X145324833Y-62136571D01*
X145324833Y-62327047D01*
X145372452Y-62422285D01*
X145420071Y-62469904D01*
X145515309Y-62517523D01*
G04 #@! TO.C,C7*
X146057142Y-58401666D02*
X146104761Y-58449285D01*
X146152380Y-58592142D01*
X146152380Y-58687380D01*
X146104761Y-58830238D01*
X146009523Y-58925476D01*
X145914285Y-58973095D01*
X145723809Y-59020714D01*
X145580952Y-59020714D01*
X145390476Y-58973095D01*
X145295238Y-58925476D01*
X145200000Y-58830238D01*
X145152380Y-58687380D01*
X145152380Y-58592142D01*
X145200000Y-58449285D01*
X145247619Y-58401666D01*
X145152380Y-58068333D02*
X145152380Y-57401666D01*
X146152380Y-57830238D01*
G04 #@! TO.C,C9*
X162930142Y-46610666D02*
X162977761Y-46658285D01*
X163025380Y-46801142D01*
X163025380Y-46896380D01*
X162977761Y-47039238D01*
X162882523Y-47134476D01*
X162787285Y-47182095D01*
X162596809Y-47229714D01*
X162453952Y-47229714D01*
X162263476Y-47182095D01*
X162168238Y-47134476D01*
X162073000Y-47039238D01*
X162025380Y-46896380D01*
X162025380Y-46801142D01*
X162073000Y-46658285D01*
X162120619Y-46610666D01*
X163025380Y-46134476D02*
X163025380Y-45944000D01*
X162977761Y-45848761D01*
X162930142Y-45801142D01*
X162787285Y-45705904D01*
X162596809Y-45658285D01*
X162215857Y-45658285D01*
X162120619Y-45705904D01*
X162073000Y-45753523D01*
X162025380Y-45848761D01*
X162025380Y-46039238D01*
X162073000Y-46134476D01*
X162120619Y-46182095D01*
X162215857Y-46229714D01*
X162453952Y-46229714D01*
X162549190Y-46182095D01*
X162596809Y-46134476D01*
X162644428Y-46039238D01*
X162644428Y-45848761D01*
X162596809Y-45753523D01*
X162549190Y-45705904D01*
X162453952Y-45658285D01*
G04 #@! TO.C,C10*
X161358642Y-64708142D02*
X161311023Y-64755761D01*
X161168166Y-64803380D01*
X161072928Y-64803380D01*
X160930071Y-64755761D01*
X160834833Y-64660523D01*
X160787214Y-64565285D01*
X160739595Y-64374809D01*
X160739595Y-64231952D01*
X160787214Y-64041476D01*
X160834833Y-63946238D01*
X160930071Y-63851000D01*
X161072928Y-63803380D01*
X161168166Y-63803380D01*
X161311023Y-63851000D01*
X161358642Y-63898619D01*
X162311023Y-64803380D02*
X161739595Y-64803380D01*
X162025309Y-64803380D02*
X162025309Y-63803380D01*
X161930071Y-63946238D01*
X161834833Y-64041476D01*
X161739595Y-64089095D01*
X162930071Y-63803380D02*
X163025309Y-63803380D01*
X163120547Y-63851000D01*
X163168166Y-63898619D01*
X163215785Y-63993857D01*
X163263404Y-64184333D01*
X163263404Y-64422428D01*
X163215785Y-64612904D01*
X163168166Y-64708142D01*
X163120547Y-64755761D01*
X163025309Y-64803380D01*
X162930071Y-64803380D01*
X162834833Y-64755761D01*
X162787214Y-64708142D01*
X162739595Y-64612904D01*
X162691976Y-64422428D01*
X162691976Y-64184333D01*
X162739595Y-63993857D01*
X162787214Y-63898619D01*
X162834833Y-63851000D01*
X162930071Y-63803380D01*
G04 #@! TO.C,P5*
X155262380Y-81666095D02*
X154262380Y-81666095D01*
X154262380Y-81285142D01*
X154310000Y-81189904D01*
X154357619Y-81142285D01*
X154452857Y-81094666D01*
X154595714Y-81094666D01*
X154690952Y-81142285D01*
X154738571Y-81189904D01*
X154786190Y-81285142D01*
X154786190Y-81666095D01*
X154262380Y-80189904D02*
X154262380Y-80666095D01*
X154738571Y-80713714D01*
X154690952Y-80666095D01*
X154643333Y-80570857D01*
X154643333Y-80332761D01*
X154690952Y-80237523D01*
X154738571Y-80189904D01*
X154833809Y-80142285D01*
X155071904Y-80142285D01*
X155167142Y-80189904D01*
X155214761Y-80237523D01*
X155262380Y-80332761D01*
X155262380Y-80570857D01*
X155214761Y-80666095D01*
X155167142Y-80713714D01*
X146515428Y-75780952D02*
X146515428Y-75019047D01*
X146896380Y-75400000D02*
X146134476Y-75400000D01*
X154008428Y-75844452D02*
X154008428Y-75082547D01*
G04 #@! TO.C,D1*
X132083380Y-45301404D02*
X131083380Y-45301404D01*
X132083380Y-44729976D02*
X131511952Y-45158547D01*
X131083380Y-44729976D02*
X131654809Y-45301404D01*
G04 #@! TO.C,D2*
X132146880Y-48801404D02*
X131146880Y-48801404D01*
X132146880Y-48229976D02*
X131575452Y-48658547D01*
X131146880Y-48229976D02*
X131718309Y-48801404D01*
G04 #@! TO.C,D3*
X132186880Y-52364904D02*
X131186880Y-52364904D01*
X132186880Y-51793476D02*
X131615452Y-52222047D01*
X131186880Y-51793476D02*
X131758309Y-52364904D01*
G04 #@! TO.C,D4*
X142921904Y-24052380D02*
X142921904Y-23052380D01*
X143160000Y-23052380D01*
X143302857Y-23100000D01*
X143398095Y-23195238D01*
X143445714Y-23290476D01*
X143493333Y-23480952D01*
X143493333Y-23623809D01*
X143445714Y-23814285D01*
X143398095Y-23909523D01*
X143302857Y-24004761D01*
X143160000Y-24052380D01*
X142921904Y-24052380D01*
X144350476Y-23385714D02*
X144350476Y-24052380D01*
X144112380Y-23004761D02*
X143874285Y-23719047D01*
X144493333Y-23719047D01*
X139298095Y-26152380D02*
X139298095Y-25152380D01*
X139869523Y-26152380D02*
X139440952Y-25580952D01*
X139869523Y-25152380D02*
X139298095Y-25723809D01*
G04 #@! TO.C,D5*
X130671404Y-59229880D02*
X130671404Y-58229880D01*
X130909500Y-58229880D01*
X131052357Y-58277500D01*
X131147595Y-58372738D01*
X131195214Y-58467976D01*
X131242833Y-58658452D01*
X131242833Y-58801309D01*
X131195214Y-58991785D01*
X131147595Y-59087023D01*
X131052357Y-59182261D01*
X130909500Y-59229880D01*
X130671404Y-59229880D01*
X132147595Y-58229880D02*
X131671404Y-58229880D01*
X131623785Y-58706071D01*
X131671404Y-58658452D01*
X131766642Y-58610833D01*
X132004738Y-58610833D01*
X132099976Y-58658452D01*
X132147595Y-58706071D01*
X132195214Y-58801309D01*
X132195214Y-59039404D01*
X132147595Y-59134642D01*
X132099976Y-59182261D01*
X132004738Y-59229880D01*
X131766642Y-59229880D01*
X131671404Y-59182261D01*
X131623785Y-59134642D01*
X129258380Y-59737904D02*
X128258380Y-59737904D01*
X129258380Y-59166476D02*
X128686952Y-59595047D01*
X128258380Y-59166476D02*
X128829809Y-59737904D01*
G04 #@! TO.C,D7*
X136906404Y-26743880D02*
X136906404Y-25743880D01*
X137144500Y-25743880D01*
X137287357Y-25791500D01*
X137382595Y-25886738D01*
X137430214Y-25981976D01*
X137477833Y-26172452D01*
X137477833Y-26315309D01*
X137430214Y-26505785D01*
X137382595Y-26601023D01*
X137287357Y-26696261D01*
X137144500Y-26743880D01*
X136906404Y-26743880D01*
X137811166Y-25743880D02*
X138477833Y-25743880D01*
X138049261Y-26743880D01*
X137525380Y-30109404D02*
X136525380Y-30109404D01*
X137525380Y-29537976D02*
X136953952Y-29966547D01*
X136525380Y-29537976D02*
X137096809Y-30109404D01*
G04 #@! TO.C,R7*
X161771333Y-37815880D02*
X161438000Y-37339690D01*
X161199904Y-37815880D02*
X161199904Y-36815880D01*
X161580857Y-36815880D01*
X161676095Y-36863500D01*
X161723714Y-36911119D01*
X161771333Y-37006357D01*
X161771333Y-37149214D01*
X161723714Y-37244452D01*
X161676095Y-37292071D01*
X161580857Y-37339690D01*
X161199904Y-37339690D01*
X162104666Y-36815880D02*
X162771333Y-36815880D01*
X162342761Y-37815880D01*
G04 #@! TO.C,R8*
X165438380Y-34736166D02*
X164962190Y-35069500D01*
X165438380Y-35307595D02*
X164438380Y-35307595D01*
X164438380Y-34926642D01*
X164486000Y-34831404D01*
X164533619Y-34783785D01*
X164628857Y-34736166D01*
X164771714Y-34736166D01*
X164866952Y-34783785D01*
X164914571Y-34831404D01*
X164962190Y-34926642D01*
X164962190Y-35307595D01*
X164866952Y-34164738D02*
X164819333Y-34259976D01*
X164771714Y-34307595D01*
X164676476Y-34355214D01*
X164628857Y-34355214D01*
X164533619Y-34307595D01*
X164486000Y-34259976D01*
X164438380Y-34164738D01*
X164438380Y-33974261D01*
X164486000Y-33879023D01*
X164533619Y-33831404D01*
X164628857Y-33783785D01*
X164676476Y-33783785D01*
X164771714Y-33831404D01*
X164819333Y-33879023D01*
X164866952Y-33974261D01*
X164866952Y-34164738D01*
X164914571Y-34259976D01*
X164962190Y-34307595D01*
X165057428Y-34355214D01*
X165247904Y-34355214D01*
X165343142Y-34307595D01*
X165390761Y-34259976D01*
X165438380Y-34164738D01*
X165438380Y-33974261D01*
X165390761Y-33879023D01*
X165343142Y-33831404D01*
X165247904Y-33783785D01*
X165057428Y-33783785D01*
X164962190Y-33831404D01*
X164914571Y-33879023D01*
X164866952Y-33974261D01*
G04 #@! TO.C,R10*
X170312142Y-63088880D02*
X169978809Y-62612690D01*
X169740714Y-63088880D02*
X169740714Y-62088880D01*
X170121666Y-62088880D01*
X170216904Y-62136500D01*
X170264523Y-62184119D01*
X170312142Y-62279357D01*
X170312142Y-62422214D01*
X170264523Y-62517452D01*
X170216904Y-62565071D01*
X170121666Y-62612690D01*
X169740714Y-62612690D01*
X171264523Y-63088880D02*
X170693095Y-63088880D01*
X170978809Y-63088880D02*
X170978809Y-62088880D01*
X170883571Y-62231738D01*
X170788333Y-62326976D01*
X170693095Y-62374595D01*
X171883571Y-62088880D02*
X171978809Y-62088880D01*
X172074047Y-62136500D01*
X172121666Y-62184119D01*
X172169285Y-62279357D01*
X172216904Y-62469833D01*
X172216904Y-62707928D01*
X172169285Y-62898404D01*
X172121666Y-62993642D01*
X172074047Y-63041261D01*
X171978809Y-63088880D01*
X171883571Y-63088880D01*
X171788333Y-63041261D01*
X171740714Y-62993642D01*
X171693095Y-62898404D01*
X171645476Y-62707928D01*
X171645476Y-62469833D01*
X171693095Y-62279357D01*
X171740714Y-62184119D01*
X171788333Y-62136500D01*
X171883571Y-62088880D01*
G04 #@! TO.C,R11*
X141054380Y-72169357D02*
X140578190Y-72502690D01*
X141054380Y-72740785D02*
X140054380Y-72740785D01*
X140054380Y-72359833D01*
X140102000Y-72264595D01*
X140149619Y-72216976D01*
X140244857Y-72169357D01*
X140387714Y-72169357D01*
X140482952Y-72216976D01*
X140530571Y-72264595D01*
X140578190Y-72359833D01*
X140578190Y-72740785D01*
X141054380Y-71216976D02*
X141054380Y-71788404D01*
X141054380Y-71502690D02*
X140054380Y-71502690D01*
X140197238Y-71597928D01*
X140292476Y-71693166D01*
X140340095Y-71788404D01*
X141054380Y-70264595D02*
X141054380Y-70836023D01*
X141054380Y-70550309D02*
X140054380Y-70550309D01*
X140197238Y-70645547D01*
X140292476Y-70740785D01*
X140340095Y-70836023D01*
G04 #@! TO.C,R12*
X156024642Y-65247880D02*
X155691309Y-64771690D01*
X155453214Y-65247880D02*
X155453214Y-64247880D01*
X155834166Y-64247880D01*
X155929404Y-64295500D01*
X155977023Y-64343119D01*
X156024642Y-64438357D01*
X156024642Y-64581214D01*
X155977023Y-64676452D01*
X155929404Y-64724071D01*
X155834166Y-64771690D01*
X155453214Y-64771690D01*
X156977023Y-65247880D02*
X156405595Y-65247880D01*
X156691309Y-65247880D02*
X156691309Y-64247880D01*
X156596071Y-64390738D01*
X156500833Y-64485976D01*
X156405595Y-64533595D01*
X157357976Y-64343119D02*
X157405595Y-64295500D01*
X157500833Y-64247880D01*
X157738928Y-64247880D01*
X157834166Y-64295500D01*
X157881785Y-64343119D01*
X157929404Y-64438357D01*
X157929404Y-64533595D01*
X157881785Y-64676452D01*
X157310357Y-65247880D01*
X157929404Y-65247880D01*
G04 #@! TO.C,R13*
X137371380Y-72232857D02*
X136895190Y-72566190D01*
X137371380Y-72804285D02*
X136371380Y-72804285D01*
X136371380Y-72423333D01*
X136419000Y-72328095D01*
X136466619Y-72280476D01*
X136561857Y-72232857D01*
X136704714Y-72232857D01*
X136799952Y-72280476D01*
X136847571Y-72328095D01*
X136895190Y-72423333D01*
X136895190Y-72804285D01*
X137371380Y-71280476D02*
X137371380Y-71851904D01*
X137371380Y-71566190D02*
X136371380Y-71566190D01*
X136514238Y-71661428D01*
X136609476Y-71756666D01*
X136657095Y-71851904D01*
X136371380Y-70947142D02*
X136371380Y-70328095D01*
X136752333Y-70661428D01*
X136752333Y-70518571D01*
X136799952Y-70423333D01*
X136847571Y-70375714D01*
X136942809Y-70328095D01*
X137180904Y-70328095D01*
X137276142Y-70375714D01*
X137323761Y-70423333D01*
X137371380Y-70518571D01*
X137371380Y-70804285D01*
X137323761Y-70899523D01*
X137276142Y-70947142D01*
G04 #@! TO.C,C1*
X158445833Y-25084142D02*
X158398214Y-25131761D01*
X158255357Y-25179380D01*
X158160119Y-25179380D01*
X158017261Y-25131761D01*
X157922023Y-25036523D01*
X157874404Y-24941285D01*
X157826785Y-24750809D01*
X157826785Y-24607952D01*
X157874404Y-24417476D01*
X157922023Y-24322238D01*
X158017261Y-24227000D01*
X158160119Y-24179380D01*
X158255357Y-24179380D01*
X158398214Y-24227000D01*
X158445833Y-24274619D01*
X159398214Y-25179380D02*
X158826785Y-25179380D01*
X159112500Y-25179380D02*
X159112500Y-24179380D01*
X159017261Y-24322238D01*
X158922023Y-24417476D01*
X158826785Y-24465095D01*
G04 #@! TO.C,C6*
X158532833Y-30926142D02*
X158485214Y-30973761D01*
X158342357Y-31021380D01*
X158247119Y-31021380D01*
X158104261Y-30973761D01*
X158009023Y-30878523D01*
X157961404Y-30783285D01*
X157913785Y-30592809D01*
X157913785Y-30449952D01*
X157961404Y-30259476D01*
X158009023Y-30164238D01*
X158104261Y-30069000D01*
X158247119Y-30021380D01*
X158342357Y-30021380D01*
X158485214Y-30069000D01*
X158532833Y-30116619D01*
X159389976Y-30021380D02*
X159199500Y-30021380D01*
X159104261Y-30069000D01*
X159056642Y-30116619D01*
X158961404Y-30259476D01*
X158913785Y-30449952D01*
X158913785Y-30830904D01*
X158961404Y-30926142D01*
X159009023Y-30973761D01*
X159104261Y-31021380D01*
X159294738Y-31021380D01*
X159389976Y-30973761D01*
X159437595Y-30926142D01*
X159485214Y-30830904D01*
X159485214Y-30592809D01*
X159437595Y-30497571D01*
X159389976Y-30449952D01*
X159294738Y-30402333D01*
X159104261Y-30402333D01*
X159009023Y-30449952D01*
X158961404Y-30497571D01*
X158913785Y-30592809D01*
G04 #@! TO.C,K1*
X155662380Y-19665095D02*
X154662380Y-19665095D01*
X155662380Y-19093666D02*
X155090952Y-19522238D01*
X154662380Y-19093666D02*
X155233809Y-19665095D01*
X155662380Y-18141285D02*
X155662380Y-18712714D01*
X155662380Y-18427000D02*
X154662380Y-18427000D01*
X154805238Y-18522238D01*
X154900476Y-18617476D01*
X154948095Y-18712714D01*
X146351928Y-24830952D02*
X146351928Y-24069047D01*
X146732880Y-24450000D02*
X145970976Y-24450000D01*
X153011547Y-24648428D02*
X153773452Y-24648428D01*
G04 #@! TO.C,K2*
X130901764Y-24018156D02*
X131608870Y-23311049D01*
X131305825Y-24422217D02*
X131406840Y-23715110D01*
X132012932Y-23715110D02*
X131204809Y-23715110D01*
X132214962Y-24051828D02*
X132282306Y-24051828D01*
X132383321Y-24085499D01*
X132551680Y-24253858D01*
X132585351Y-24354874D01*
X132585351Y-24422217D01*
X132551680Y-24523232D01*
X132484336Y-24590576D01*
X132349649Y-24657919D01*
X131541527Y-24657919D01*
X131979260Y-25095652D01*
X129014917Y-34220780D02*
X129553665Y-34759528D01*
X129014917Y-34759528D02*
X129553665Y-34220780D01*
X134234678Y-29820387D02*
X134773426Y-29281639D01*
G04 #@! TO.C,K4*
X124232156Y-68934735D02*
X123525049Y-68227629D01*
X124636217Y-68530674D02*
X123929110Y-68429659D01*
X123929110Y-67823567D02*
X123929110Y-68631690D01*
X124770904Y-67453178D02*
X125242309Y-67924583D01*
X124333171Y-67352163D02*
X124669889Y-68025598D01*
X125107622Y-67587865D01*
X129394624Y-65164088D02*
X129933372Y-65702836D01*
X134434780Y-70821582D02*
X134973528Y-70282834D01*
X134973528Y-70821582D02*
X134434780Y-70282834D01*
G04 #@! TO.C,K3*
X118338904Y-45142380D02*
X118338904Y-44142380D01*
X118910333Y-45142380D02*
X118481761Y-44570952D01*
X118910333Y-44142380D02*
X118338904Y-44713809D01*
X119243666Y-44142380D02*
X119862714Y-44142380D01*
X119529380Y-44523333D01*
X119672238Y-44523333D01*
X119767476Y-44570952D01*
X119815095Y-44618571D01*
X119862714Y-44713809D01*
X119862714Y-44951904D01*
X119815095Y-45047142D01*
X119767476Y-45094761D01*
X119672238Y-45142380D01*
X119386523Y-45142380D01*
X119291285Y-45094761D01*
X119243666Y-45047142D01*
X124798428Y-46888452D02*
X124798428Y-46126547D01*
X124219047Y-53690928D02*
X124980952Y-53690928D01*
X124600000Y-54071880D02*
X124600000Y-53309976D01*
G04 #@! TO.C,P1*
X149261904Y-44952380D02*
X149261904Y-43952380D01*
X149642857Y-43952380D01*
X149738095Y-44000000D01*
X149785714Y-44047619D01*
X149833333Y-44142857D01*
X149833333Y-44285714D01*
X149785714Y-44380952D01*
X149738095Y-44428571D01*
X149642857Y-44476190D01*
X149261904Y-44476190D01*
X150785714Y-44952380D02*
X150214285Y-44952380D01*
X150500000Y-44952380D02*
X150500000Y-43952380D01*
X150404761Y-44095238D01*
X150309523Y-44190476D01*
X150214285Y-44238095D01*
G04 #@! TO.C,P2*
X168311500Y-25561997D02*
X167604393Y-24854891D01*
X167873767Y-24585516D01*
X167974782Y-24551845D01*
X168042126Y-24551845D01*
X168143141Y-24585516D01*
X168244156Y-24686532D01*
X168277828Y-24787547D01*
X168277828Y-24854891D01*
X168244156Y-24955906D01*
X167974782Y-25225280D01*
X168345172Y-24248799D02*
X168345172Y-24181455D01*
X168378843Y-24080440D01*
X168547202Y-23912081D01*
X168648218Y-23878410D01*
X168715561Y-23878410D01*
X168816576Y-23912081D01*
X168883920Y-23979425D01*
X168951263Y-24114112D01*
X168951263Y-24922234D01*
X169388996Y-24484501D01*
X165047983Y-29521375D02*
X165586731Y-28982627D01*
X170301433Y-34864627D02*
X170840181Y-34325879D01*
X170840181Y-34864627D02*
X170301433Y-34325879D01*
G04 #@! TO.C,P3*
X180189904Y-45642380D02*
X180189904Y-44642380D01*
X180570857Y-44642380D01*
X180666095Y-44690000D01*
X180713714Y-44737619D01*
X180761333Y-44832857D01*
X180761333Y-44975714D01*
X180713714Y-45070952D01*
X180666095Y-45118571D01*
X180570857Y-45166190D01*
X180189904Y-45166190D01*
X181094666Y-44642380D02*
X181713714Y-44642380D01*
X181380380Y-45023333D01*
X181523238Y-45023333D01*
X181618476Y-45070952D01*
X181666095Y-45118571D01*
X181713714Y-45213809D01*
X181713714Y-45451904D01*
X181666095Y-45547142D01*
X181618476Y-45594761D01*
X181523238Y-45642380D01*
X181237523Y-45642380D01*
X181142285Y-45594761D01*
X181094666Y-45547142D01*
X175082547Y-46134428D02*
X175844452Y-46134428D01*
X175019047Y-53627428D02*
X175780952Y-53627428D01*
X175400000Y-54008380D02*
X175400000Y-53246476D01*
G04 #@! TO.C,P4*
X174456002Y-68293400D02*
X175163108Y-67586293D01*
X175432483Y-67855667D01*
X175466154Y-67956682D01*
X175466154Y-68024026D01*
X175432483Y-68125041D01*
X175331467Y-68226056D01*
X175230452Y-68259728D01*
X175163108Y-68259728D01*
X175062093Y-68226056D01*
X174792719Y-67956682D01*
X175937559Y-68832148D02*
X175466154Y-69303553D01*
X176038574Y-68394415D02*
X175365139Y-68731133D01*
X175802872Y-69168866D01*
X165153372Y-70283333D02*
X165692120Y-70822081D01*
X165153372Y-70822081D02*
X165692120Y-70283333D01*
X170496624Y-65029883D02*
X171035372Y-65568631D01*
G04 #@! TO.C,SW1*
X157416666Y-69904761D02*
X157559523Y-69952380D01*
X157797619Y-69952380D01*
X157892857Y-69904761D01*
X157940476Y-69857142D01*
X157988095Y-69761904D01*
X157988095Y-69666666D01*
X157940476Y-69571428D01*
X157892857Y-69523809D01*
X157797619Y-69476190D01*
X157607142Y-69428571D01*
X157511904Y-69380952D01*
X157464285Y-69333333D01*
X157416666Y-69238095D01*
X157416666Y-69142857D01*
X157464285Y-69047619D01*
X157511904Y-69000000D01*
X157607142Y-68952380D01*
X157845238Y-68952380D01*
X157988095Y-69000000D01*
X158321428Y-68952380D02*
X158559523Y-69952380D01*
X158750000Y-69238095D01*
X158940476Y-69952380D01*
X159178571Y-68952380D01*
X160083333Y-69952380D02*
X159511904Y-69952380D01*
X159797619Y-69952380D02*
X159797619Y-68952380D01*
X159702380Y-69095238D01*
X159607142Y-69190476D01*
X159511904Y-69238095D01*
G04 #@! TD*
M02*
