G04 #@! TF.GenerationSoftware,KiCad,Pcbnew,5.0.2-bee76a0~70~ubuntu18.04.1*
G04 #@! TF.CreationDate,2019-07-09T11:50:03+02:00*
G04 #@! TF.ProjectId,neuromime_1.0.1,6e657572-6f6d-4696-9d65-5f312e302e31,rev?*
G04 #@! TF.SameCoordinates,Original*
G04 #@! TF.FileFunction,Drawing*
%FSLAX46Y46*%
G04 Gerber Fmt 4.6, Leading zero omitted, Abs format (unit mm)*
G04 Created by KiCad (PCBNEW 5.0.2-bee76a0~70~ubuntu18.04.1) date Tue 09 Jul 2019 11:50:03 AM CEST*
%MOMM*%
%LPD*%
G01*
G04 APERTURE LIST*
%ADD10C,0.200000*%
%ADD11C,0.300000*%
G04 APERTURE END LIST*
D10*
X150000000Y-9360000D02*
X150000000Y-90640000D01*
X104280000Y-50000000D02*
X188100000Y-50000000D01*
X176900000Y-49850000D02*
G75*
G03X176900000Y-49850000I-27000000J0D01*
G01*
D11*
X144387139Y-2880896D02*
X143672853Y-2880896D01*
X143601425Y-3595182D01*
X143672853Y-3523753D01*
X143815711Y-3452325D01*
X144172853Y-3452325D01*
X144315711Y-3523753D01*
X144387139Y-3595182D01*
X144458568Y-3738039D01*
X144458568Y-4095182D01*
X144387139Y-4238039D01*
X144315711Y-4309467D01*
X144172853Y-4380896D01*
X143815711Y-4380896D01*
X143672853Y-4309467D01*
X143601425Y-4238039D01*
X145744282Y-2880896D02*
X145458568Y-2880896D01*
X145315711Y-2952325D01*
X145244282Y-3023753D01*
X145101425Y-3238039D01*
X145029996Y-3523753D01*
X145029996Y-4095182D01*
X145101425Y-4238039D01*
X145172853Y-4309467D01*
X145315711Y-4380896D01*
X145601425Y-4380896D01*
X145744282Y-4309467D01*
X145815711Y-4238039D01*
X145887139Y-4095182D01*
X145887139Y-3738039D01*
X145815711Y-3595182D01*
X145744282Y-3523753D01*
X145601425Y-3452325D01*
X145315711Y-3452325D01*
X145172853Y-3523753D01*
X145101425Y-3595182D01*
X145029996Y-3738039D01*
X146529996Y-4238039D02*
X146601425Y-4309467D01*
X146529996Y-4380896D01*
X146458568Y-4309467D01*
X146529996Y-4238039D01*
X146529996Y-4380896D01*
X147529996Y-2880896D02*
X147672853Y-2880896D01*
X147815711Y-2952325D01*
X147887139Y-3023753D01*
X147958568Y-3166610D01*
X148029996Y-3452325D01*
X148029996Y-3809467D01*
X147958568Y-4095182D01*
X147887139Y-4238039D01*
X147815711Y-4309467D01*
X147672853Y-4380896D01*
X147529996Y-4380896D01*
X147387139Y-4309467D01*
X147315711Y-4238039D01*
X147244282Y-4095182D01*
X147172853Y-3809467D01*
X147172853Y-3452325D01*
X147244282Y-3166610D01*
X147315711Y-3023753D01*
X147387139Y-2952325D01*
X147529996Y-2880896D01*
X148958568Y-2880896D02*
X149101425Y-2880896D01*
X149244282Y-2952325D01*
X149315711Y-3023753D01*
X149387139Y-3166610D01*
X149458568Y-3452325D01*
X149458568Y-3809467D01*
X149387139Y-4095182D01*
X149315711Y-4238039D01*
X149244282Y-4309467D01*
X149101425Y-4380896D01*
X148958568Y-4380896D01*
X148815711Y-4309467D01*
X148744282Y-4238039D01*
X148672853Y-4095182D01*
X148601425Y-3809467D01*
X148601425Y-3452325D01*
X148672853Y-3166610D01*
X148744282Y-3023753D01*
X148815711Y-2952325D01*
X148958568Y-2880896D01*
X150387139Y-2880896D02*
X150529996Y-2880896D01*
X150672853Y-2952325D01*
X150744282Y-3023753D01*
X150815711Y-3166610D01*
X150887139Y-3452325D01*
X150887139Y-3809467D01*
X150815711Y-4095182D01*
X150744282Y-4238039D01*
X150672853Y-4309467D01*
X150529996Y-4380896D01*
X150387139Y-4380896D01*
X150244282Y-4309467D01*
X150172853Y-4238039D01*
X150101425Y-4095182D01*
X150029996Y-3809467D01*
X150029996Y-3452325D01*
X150101425Y-3166610D01*
X150172853Y-3023753D01*
X150244282Y-2952325D01*
X150387139Y-2880896D01*
X152672853Y-4380896D02*
X152672853Y-3380896D01*
X152672853Y-3523753D02*
X152744282Y-3452325D01*
X152887139Y-3380896D01*
X153101425Y-3380896D01*
X153244282Y-3452325D01*
X153315711Y-3595182D01*
X153315711Y-4380896D01*
X153315711Y-3595182D02*
X153387139Y-3452325D01*
X153529996Y-3380896D01*
X153744282Y-3380896D01*
X153887139Y-3452325D01*
X153958568Y-3595182D01*
X153958568Y-4380896D01*
X154672853Y-4380896D02*
X154672853Y-3380896D01*
X154672853Y-3523753D02*
X154744282Y-3452325D01*
X154887139Y-3380896D01*
X155101425Y-3380896D01*
X155244282Y-3452325D01*
X155315711Y-3595182D01*
X155315711Y-4380896D01*
X155315711Y-3595182D02*
X155387139Y-3452325D01*
X155529996Y-3380896D01*
X155744282Y-3380896D01*
X155887139Y-3452325D01*
X155958568Y-3595182D01*
X155958568Y-4380896D01*
X121815711Y-5802325D02*
X177815711Y-5802325D01*
X121815711Y-49802325D02*
X121815711Y-5215904D01*
X177815711Y-49802325D02*
X177815711Y-5215904D01*
X177815711Y-5802325D02*
X176689207Y-6388746D01*
X177815711Y-5802325D02*
X176689207Y-5215904D01*
X121815711Y-5802325D02*
X122942215Y-6388746D01*
X121815711Y-5802325D02*
X122942215Y-5215904D01*
D10*
X175400000Y-24600000D02*
X124600000Y-75400000D01*
X124500000Y-24450000D02*
X175300000Y-75250000D01*
M02*
