G04 #@! TF.GenerationSoftware,KiCad,Pcbnew,5.0.2-bee76a0~70~ubuntu18.04.1*
G04 #@! TF.CreationDate,2019-07-07T08:40:30+02:00*
G04 #@! TF.ProjectId,neuromime_1.0.1,6e657572-6f6d-4696-9d65-5f312e302e31,rev?*
G04 #@! TF.SameCoordinates,Original*
G04 #@! TF.FileFunction,Copper,L1,Top*
G04 #@! TF.FilePolarity,Positive*
%FSLAX46Y46*%
G04 Gerber Fmt 4.6, Leading zero omitted, Abs format (unit mm)*
G04 Created by KiCad (PCBNEW 5.0.2-bee76a0~70~ubuntu18.04.1) date Sun 07 Jul 2019 08:40:30 AM CEST*
%MOMM*%
%LPD*%
G01*
G04 APERTURE LIST*
G04 #@! TA.AperFunction,ComponentPad*
%ADD10O,1.700000X1.700000*%
G04 #@! TD*
G04 #@! TA.AperFunction,ComponentPad*
%ADD11R,1.700000X1.700000*%
G04 #@! TD*
G04 #@! TA.AperFunction,ComponentPad*
%ADD12R,1.800000X1.800000*%
G04 #@! TD*
G04 #@! TA.AperFunction,ComponentPad*
%ADD13C,1.800000*%
G04 #@! TD*
G04 #@! TA.AperFunction,ComponentPad*
%ADD14R,2.200000X2.200000*%
G04 #@! TD*
G04 #@! TA.AperFunction,ComponentPad*
%ADD15O,2.200000X2.200000*%
G04 #@! TD*
G04 #@! TA.AperFunction,ComponentPad*
%ADD16C,1.700000*%
G04 #@! TD*
G04 #@! TA.AperFunction,Conductor*
%ADD17C,1.700000*%
G04 #@! TD*
G04 #@! TA.AperFunction,Conductor*
%ADD18C,0.150000*%
G04 #@! TD*
G04 #@! TA.AperFunction,ComponentPad*
%ADD19C,1.600000*%
G04 #@! TD*
G04 #@! TA.AperFunction,ComponentPad*
%ADD20R,1.600000X1.600000*%
G04 #@! TD*
G04 #@! TA.AperFunction,ComponentPad*
%ADD21O,1.600000X1.600000*%
G04 #@! TD*
G04 #@! TA.AperFunction,ComponentPad*
%ADD22C,1.440000*%
G04 #@! TD*
G04 #@! TA.AperFunction,Conductor*
%ADD23C,0.250000*%
G04 #@! TD*
G04 APERTURE END LIST*
D10*
G04 #@! TO.P,K1,3*
G04 #@! TO.N,VCC*
X147460000Y-24219000D03*
G04 #@! TO.P,K1,2*
G04 #@! TO.N,Net-(D1-Pad1)*
X150000000Y-24219000D03*
D11*
G04 #@! TO.P,K1,1*
G04 #@! TO.N,GND*
X152540000Y-24219000D03*
G04 #@! TD*
D12*
G04 #@! TO.P,D6,1*
G04 #@! TO.N,GND*
X169558000Y-50889000D03*
D13*
G04 #@! TO.P,D6,2*
G04 #@! TO.N,Net-(D6-Pad2)*
X172098000Y-50889000D03*
G04 #@! TD*
D14*
G04 #@! TO.P,D5,1*
G04 #@! TO.N,Net-(D5-Pad1)*
X130950000Y-60160000D03*
D15*
G04 #@! TO.P,D5,2*
G04 #@! TO.N,refractory*
X128410000Y-60160000D03*
G04 #@! TD*
D14*
G04 #@! TO.P,D4,1*
G04 #@! TO.N,Net-(D4-Pad1)*
X127775000Y-50000000D03*
D15*
G04 #@! TO.P,D4,2*
G04 #@! TO.N,Net-(D4-Pad2)*
X130315000Y-50000000D03*
G04 #@! TD*
G04 #@! TO.P,D3,2*
G04 #@! TO.N,Net-(D3-Pad2)*
X130315000Y-53810000D03*
D14*
G04 #@! TO.P,D3,1*
G04 #@! TO.N,Net-(D3-Pad1)*
X127775000Y-53810000D03*
G04 #@! TD*
D11*
G04 #@! TO.P,W3,1*
G04 #@! TO.N,Net-(D5-Pad1)*
X135395000Y-60160000D03*
D10*
G04 #@! TO.P,W3,2*
G04 #@! TO.N,Net-(P5-Pad2)*
X135395000Y-62700000D03*
G04 #@! TD*
D16*
G04 #@! TO.P,P2,3*
G04 #@! TO.N,VCC*
X169975102Y-33653102D03*
D17*
G04 #@! TD*
G04 #@! TO.N,VCC*
G04 #@! TO.C,P2*
X169975102Y-33653102D02*
X169975102Y-33653102D01*
D16*
G04 #@! TO.P,P2,2*
G04 #@! TO.N,Net-(P2-Pad2)*
X168179051Y-31857051D03*
D17*
G04 #@! TD*
G04 #@! TO.N,Net-(P2-Pad2)*
G04 #@! TO.C,P2*
X168179051Y-31857051D02*
X168179051Y-31857051D01*
D16*
G04 #@! TO.P,P2,1*
G04 #@! TO.N,GND*
X166383000Y-30061000D03*
D18*
G04 #@! TD*
G04 #@! TO.N,GND*
G04 #@! TO.C,P2*
G36*
X166383000Y-31263082D02*
X165180918Y-30061000D01*
X166383000Y-28858918D01*
X167585082Y-30061000D01*
X166383000Y-31263082D01*
X166383000Y-31263082D01*
G37*
D16*
G04 #@! TO.P,P4,3*
G04 #@! TO.N,VCC*
X166473898Y-70102102D03*
D17*
G04 #@! TD*
G04 #@! TO.N,VCC*
G04 #@! TO.C,P4*
X166473898Y-70102102D02*
X166473898Y-70102102D01*
D16*
G04 #@! TO.P,P4,2*
G04 #@! TO.N,Net-(P2-Pad2)*
X168269949Y-68306051D03*
D17*
G04 #@! TD*
G04 #@! TO.N,Net-(P2-Pad2)*
G04 #@! TO.C,P4*
X168269949Y-68306051D02*
X168269949Y-68306051D01*
D16*
G04 #@! TO.P,P4,1*
G04 #@! TO.N,GND*
X170066000Y-66510000D03*
D18*
G04 #@! TD*
G04 #@! TO.N,GND*
G04 #@! TO.C,P4*
G36*
X168863918Y-66510000D02*
X170066000Y-65307918D01*
X171268082Y-66510000D01*
X170066000Y-67712082D01*
X168863918Y-66510000D01*
X168863918Y-66510000D01*
G37*
D19*
G04 #@! TO.P,C4,2*
G04 #@! TO.N,GND*
X138340000Y-33807500D03*
D20*
G04 #@! TO.P,C4,1*
G04 #@! TO.N,refractory*
X135840000Y-33807500D03*
G04 #@! TD*
D16*
G04 #@! TO.P,K2,3*
G04 #@! TO.N,VCC*
X130024898Y-33653102D03*
D17*
G04 #@! TD*
G04 #@! TO.N,VCC*
G04 #@! TO.C,K2*
X130024898Y-33653102D02*
X130024898Y-33653102D01*
D16*
G04 #@! TO.P,K2,2*
G04 #@! TO.N,Net-(D2-Pad1)*
X131820949Y-31857051D03*
D17*
G04 #@! TD*
G04 #@! TO.N,Net-(D2-Pad1)*
G04 #@! TO.C,K2*
X131820949Y-31857051D02*
X131820949Y-31857051D01*
D16*
G04 #@! TO.P,K2,1*
G04 #@! TO.N,GND*
X133617000Y-30061000D03*
D18*
G04 #@! TD*
G04 #@! TO.N,GND*
G04 #@! TO.C,K2*
G36*
X132414918Y-30061000D02*
X133617000Y-28858918D01*
X134819082Y-30061000D01*
X133617000Y-31263082D01*
X132414918Y-30061000D01*
X132414918Y-30061000D01*
G37*
D21*
G04 #@! TO.P,R2,2*
G04 #@! TO.N,Net-(D2-Pad2)*
X133490000Y-46190000D03*
D19*
G04 #@! TO.P,R2,1*
G04 #@! TO.N,Net-(C5-Pad1)*
X136030000Y-46190000D03*
G04 #@! TD*
D20*
G04 #@! TO.P,U4,1*
G04 #@! TO.N,GND*
X139840000Y-56985000D03*
D21*
G04 #@! TO.P,U4,5*
G04 #@! TO.N,Net-(C16-Pad1)*
X147460000Y-64605000D03*
G04 #@! TO.P,U4,2*
G04 #@! TO.N,Net-(C11-Pad1)*
X139840000Y-59525000D03*
G04 #@! TO.P,U4,6*
G04 #@! TO.N,Net-(C17-Pad1)*
X147460000Y-62065000D03*
G04 #@! TO.P,U4,3*
G04 #@! TO.N,Net-(P5-Pad2)*
X139840000Y-62065000D03*
G04 #@! TO.P,U4,7*
G04 #@! TO.N,Net-(C17-Pad1)*
X147460000Y-59525000D03*
G04 #@! TO.P,U4,4*
G04 #@! TO.N,VCC*
X139840000Y-64605000D03*
G04 #@! TO.P,U4,8*
X147460000Y-56985000D03*
G04 #@! TD*
D20*
G04 #@! TO.P,C14,1*
G04 #@! TO.N,Net-(C14-Pad1)*
X169748000Y-61049000D03*
D19*
G04 #@! TO.P,C14,2*
G04 #@! TO.N,GND*
X172248000Y-61049000D03*
G04 #@! TD*
G04 #@! TO.P,R14,1*
G04 #@! TO.N,Net-(C14-Pad1)*
X171971000Y-56286500D03*
D21*
G04 #@! TO.P,R14,2*
G04 #@! TO.N,VCC*
X174511000Y-56286500D03*
G04 #@! TD*
D19*
G04 #@! TO.P,C11,1*
G04 #@! TO.N,Net-(C11-Pad1)*
X135880000Y-67399000D03*
G04 #@! TO.P,C11,2*
G04 #@! TO.N,Net-(C10-Pad2)*
X138380000Y-67399000D03*
G04 #@! TD*
G04 #@! TO.P,C12,2*
G04 #@! TO.N,GND*
X160986000Y-54532000D03*
G04 #@! TO.P,C12,1*
G04 #@! TO.N,VCC*
X160986000Y-52032000D03*
G04 #@! TD*
G04 #@! TO.P,C13,2*
G04 #@! TO.N,GND*
X160986000Y-42848000D03*
G04 #@! TO.P,C13,1*
G04 #@! TO.N,VCC*
X160986000Y-40348000D03*
G04 #@! TD*
G04 #@! TO.P,C15,1*
G04 #@! TO.N,Net-(C15-Pad1)*
X160986000Y-59652000D03*
G04 #@! TO.P,C15,2*
G04 #@! TO.N,GND*
X160986000Y-57152000D03*
G04 #@! TD*
G04 #@! TO.P,C16,1*
G04 #@! TO.N,Net-(C16-Pad1)*
X143650000Y-64565000D03*
G04 #@! TO.P,C16,2*
G04 #@! TO.N,GND*
X143650000Y-62065000D03*
G04 #@! TD*
G04 #@! TO.P,C17,2*
G04 #@! TO.N,GND*
X153580000Y-57937500D03*
D20*
G04 #@! TO.P,C17,1*
G04 #@! TO.N,Net-(C17-Pad1)*
X151080000Y-57937500D03*
G04 #@! TD*
G04 #@! TO.P,U1,1*
G04 #@! TO.N,GND*
X146190000Y-28410000D03*
D21*
G04 #@! TO.P,U1,5*
G04 #@! TO.N,Net-(U1-Pad5)*
X153810000Y-36030000D03*
G04 #@! TO.P,U1,2*
G04 #@! TO.N,refractory*
X146190000Y-30950000D03*
G04 #@! TO.P,U1,6*
G04 #@! TO.N,Net-(U1-Pad5)*
X153810000Y-33490000D03*
G04 #@! TO.P,U1,3*
G04 #@! TO.N,Net-(C5-Pad1)*
X146190000Y-33490000D03*
G04 #@! TO.P,U1,7*
G04 #@! TO.N,Net-(C6-Pad2)*
X153810000Y-30950000D03*
G04 #@! TO.P,U1,4*
G04 #@! TO.N,GND*
X146190000Y-36030000D03*
G04 #@! TO.P,U1,8*
G04 #@! TO.N,VCC*
X153810000Y-28410000D03*
G04 #@! TD*
G04 #@! TO.P,U2,8*
G04 #@! TO.N,VCC*
X164796000Y-40348000D03*
G04 #@! TO.P,U2,4*
X157176000Y-47968000D03*
G04 #@! TO.P,U2,7*
G04 #@! TO.N,Net-(C8-Pad1)*
X164796000Y-42888000D03*
G04 #@! TO.P,U2,3*
G04 #@! TO.N,Net-(C10-Pad2)*
X157176000Y-45428000D03*
G04 #@! TO.P,U2,6*
G04 #@! TO.N,Net-(C8-Pad1)*
X164796000Y-45428000D03*
G04 #@! TO.P,U2,2*
G04 #@! TO.N,Net-(C6-Pad1)*
X157176000Y-42888000D03*
G04 #@! TO.P,U2,5*
G04 #@! TO.N,Net-(C9-Pad1)*
X164796000Y-47968000D03*
D20*
G04 #@! TO.P,U2,1*
G04 #@! TO.N,GND*
X157176000Y-40348000D03*
G04 #@! TD*
G04 #@! TO.P,U3,1*
G04 #@! TO.N,GND*
X157176000Y-52032000D03*
D21*
G04 #@! TO.P,U3,5*
G04 #@! TO.N,Net-(C15-Pad1)*
X164796000Y-59652000D03*
G04 #@! TO.P,U3,2*
G04 #@! TO.N,Net-(C10-Pad1)*
X157176000Y-54572000D03*
G04 #@! TO.P,U3,6*
G04 #@! TO.N,Net-(C14-Pad1)*
X164796000Y-57112000D03*
G04 #@! TO.P,U3,3*
G04 #@! TO.N,Net-(P2-Pad2)*
X157176000Y-57112000D03*
G04 #@! TO.P,U3,7*
G04 #@! TO.N,Net-(C14-Pad1)*
X164796000Y-54572000D03*
G04 #@! TO.P,U3,4*
G04 #@! TO.N,VCC*
X157176000Y-59652000D03*
G04 #@! TO.P,U3,8*
X164796000Y-52032000D03*
G04 #@! TD*
G04 #@! TO.P,R12,2*
G04 #@! TO.N,VCC*
X157048000Y-65748000D03*
D19*
G04 #@! TO.P,R12,1*
G04 #@! TO.N,Net-(C10-Pad1)*
X157048000Y-63208000D03*
G04 #@! TD*
D22*
G04 #@! TO.P,RV1,3*
G04 #@! TO.N,VCC*
X147460000Y-39522500D03*
G04 #@! TO.P,RV1,2*
G04 #@! TO.N,refractory*
X150000000Y-42062500D03*
G04 #@! TO.P,RV1,1*
G04 #@! TO.N,GND*
X152540000Y-39522500D03*
G04 #@! TD*
D19*
G04 #@! TO.P,R4,1*
G04 #@! TO.N,Net-(C5-Pad1)*
X136030000Y-50000000D03*
D21*
G04 #@! TO.P,R4,2*
G04 #@! TO.N,Net-(D4-Pad2)*
X133490000Y-50000000D03*
G04 #@! TD*
D11*
G04 #@! TO.P,K4,1*
G04 #@! TO.N,GND*
X124219000Y-47460000D03*
D10*
G04 #@! TO.P,K4,2*
G04 #@! TO.N,Net-(D4-Pad1)*
X124219000Y-50000000D03*
G04 #@! TO.P,K4,3*
G04 #@! TO.N,VCC*
X124219000Y-52540000D03*
G04 #@! TD*
D20*
G04 #@! TO.P,C5,1*
G04 #@! TO.N,Net-(C5-Pad1)*
X141999000Y-41491000D03*
D19*
G04 #@! TO.P,C5,2*
G04 #@! TO.N,GND*
X144499000Y-41491000D03*
G04 #@! TD*
G04 #@! TO.P,R13,1*
G04 #@! TO.N,Net-(C11-Pad1)*
X138189000Y-70129500D03*
D21*
G04 #@! TO.P,R13,2*
G04 #@! TO.N,VCC*
X138189000Y-72669500D03*
G04 #@! TD*
D20*
G04 #@! TO.P,C1,1*
G04 #@! TO.N,VCC*
X145110000Y-69177000D03*
D19*
G04 #@! TO.P,C1,2*
G04 #@! TO.N,GND*
X147610000Y-69177000D03*
G04 #@! TD*
G04 #@! TO.P,R10,1*
G04 #@! TO.N,Net-(C10-Pad2)*
X165367000Y-63208000D03*
D21*
G04 #@! TO.P,R10,2*
G04 #@! TO.N,VCC*
X165367000Y-65748000D03*
G04 #@! TD*
G04 #@! TO.P,R15,2*
G04 #@! TO.N,Net-(P2-Pad2)*
X169431000Y-46825000D03*
D19*
G04 #@! TO.P,R15,1*
G04 #@! TO.N,Net-(D6-Pad2)*
X171971000Y-46825000D03*
G04 #@! TD*
D22*
G04 #@! TO.P,RV2,1*
G04 #@! TO.N,GND*
X141999000Y-52540000D03*
G04 #@! TO.P,RV2,2*
G04 #@! TO.N,Net-(C5-Pad1)*
X139459000Y-50000000D03*
G04 #@! TO.P,RV2,3*
G04 #@! TO.N,VCC*
X141999000Y-47460000D03*
G04 #@! TD*
D11*
G04 #@! TO.P,P5,1*
G04 #@! TO.N,GND*
X152540000Y-75908000D03*
D10*
G04 #@! TO.P,P5,2*
G04 #@! TO.N,Net-(P5-Pad2)*
X150000000Y-75908000D03*
G04 #@! TO.P,P5,3*
G04 #@! TO.N,VCC*
X147460000Y-75908000D03*
G04 #@! TD*
D19*
G04 #@! TO.P,C7,2*
G04 #@! TO.N,GND*
X143650000Y-59485000D03*
G04 #@! TO.P,C7,1*
G04 #@! TO.N,VCC*
X143650000Y-56985000D03*
G04 #@! TD*
G04 #@! TO.P,C8,2*
G04 #@! TO.N,GND*
X172439000Y-38951000D03*
D20*
G04 #@! TO.P,C8,1*
G04 #@! TO.N,Net-(C8-Pad1)*
X169939000Y-38951000D03*
G04 #@! TD*
D19*
G04 #@! TO.P,C9,1*
G04 #@! TO.N,Net-(C9-Pad1)*
X160986000Y-47968000D03*
G04 #@! TO.P,C9,2*
G04 #@! TO.N,GND*
X160986000Y-45468000D03*
G04 #@! TD*
G04 #@! TO.P,C10,1*
G04 #@! TO.N,Net-(C10-Pad1)*
X160033000Y-62763500D03*
G04 #@! TO.P,C10,2*
G04 #@! TO.N,Net-(C10-Pad2)*
X162533000Y-62763500D03*
G04 #@! TD*
D21*
G04 #@! TO.P,R1,2*
G04 #@! TO.N,Net-(D1-Pad2)*
X142520000Y-32139500D03*
D19*
G04 #@! TO.P,R1,1*
G04 #@! TO.N,refractory*
X142520000Y-34679500D03*
G04 #@! TD*
G04 #@! TO.P,R3,1*
G04 #@! TO.N,Net-(C5-Pad1)*
X136030000Y-53810000D03*
D21*
G04 #@! TO.P,R3,2*
G04 #@! TO.N,Net-(D3-Pad2)*
X133490000Y-53810000D03*
G04 #@! TD*
G04 #@! TO.P,R11,2*
G04 #@! TO.N,VCC*
X141872000Y-73431500D03*
D19*
G04 #@! TO.P,R11,1*
G04 #@! TO.N,Net-(C10-Pad2)*
X141872000Y-70891500D03*
G04 #@! TD*
D16*
G04 #@! TO.P,W1,1*
G04 #@! TO.N,refractory*
X158318000Y-27076500D03*
D18*
G04 #@! TD*
G04 #@! TO.N,refractory*
G04 #@! TO.C,W1*
G36*
X158787691Y-28183022D02*
X157211478Y-27546191D01*
X157848309Y-25969978D01*
X159424522Y-26606809D01*
X158787691Y-28183022D01*
X158787691Y-28183022D01*
G37*
D16*
G04 #@! TO.P,W1,2*
G04 #@! TO.N,refractory*
X160673047Y-28028001D03*
D17*
G04 #@! TD*
G04 #@! TO.N,refractory*
G04 #@! TO.C,W1*
X160673047Y-28028001D02*
X160673047Y-28028001D01*
D19*
G04 #@! TO.P,R16,1*
G04 #@! TO.N,Net-(C17-Pad1)*
X151080000Y-63271500D03*
D21*
G04 #@! TO.P,R16,2*
G04 #@! TO.N,VCC*
X153620000Y-63271500D03*
G04 #@! TD*
D14*
G04 #@! TO.P,D2,1*
G04 #@! TO.N,Net-(D2-Pad1)*
X127775000Y-45999500D03*
D15*
G04 #@! TO.P,D2,2*
G04 #@! TO.N,Net-(D2-Pad2)*
X130315000Y-45999500D03*
G04 #@! TD*
G04 #@! TO.P,D1,2*
G04 #@! TO.N,Net-(D1-Pad2)*
X142520000Y-28964500D03*
D14*
G04 #@! TO.P,D1,1*
G04 #@! TO.N,Net-(D1-Pad1)*
X142520000Y-26424500D03*
G04 #@! TD*
D21*
G04 #@! TO.P,R9,2*
G04 #@! TO.N,VCC*
X174257000Y-43650000D03*
D19*
G04 #@! TO.P,R9,1*
G04 #@! TO.N,Net-(C8-Pad1)*
X171717000Y-43650000D03*
G04 #@! TD*
D11*
G04 #@! TO.P,P3,1*
G04 #@! TO.N,GND*
X175781000Y-47460000D03*
D10*
G04 #@! TO.P,P3,2*
G04 #@! TO.N,Net-(P2-Pad2)*
X175781000Y-50000000D03*
G04 #@! TO.P,P3,3*
G04 #@! TO.N,VCC*
X175781000Y-52540000D03*
G04 #@! TD*
D16*
G04 #@! TO.P,W2,2*
G04 #@! TO.N,Net-(C5-Pad1)*
X127140499Y-41115547D03*
D17*
G04 #@! TD*
G04 #@! TO.N,Net-(C5-Pad1)*
G04 #@! TO.C,W2*
X127140499Y-41115547D02*
X127140499Y-41115547D01*
D16*
G04 #@! TO.P,W2,1*
G04 #@! TO.N,Net-(C5-Pad1)*
X128092000Y-38760500D03*
D18*
G04 #@! TD*
G04 #@! TO.N,Net-(C5-Pad1)*
G04 #@! TO.C,W2*
G36*
X126985478Y-39230191D02*
X127622309Y-37653978D01*
X129198522Y-38290809D01*
X128561691Y-39867022D01*
X126985478Y-39230191D01*
X126985478Y-39230191D01*
G37*
D20*
G04 #@! TO.P,C6,1*
G04 #@! TO.N,Net-(C6-Pad1)*
X158382000Y-33680500D03*
D19*
G04 #@! TO.P,C6,2*
G04 #@! TO.N,Net-(C6-Pad2)*
X158382000Y-31180500D03*
G04 #@! TD*
D21*
G04 #@! TO.P,R5,2*
G04 #@! TO.N,GND*
X133554000Y-40157500D03*
D19*
G04 #@! TO.P,R5,1*
G04 #@! TO.N,refractory*
X133554000Y-37617500D03*
G04 #@! TD*
G04 #@! TO.P,R7,1*
G04 #@! TO.N,Net-(C6-Pad2)*
X163780000Y-34315500D03*
D21*
G04 #@! TO.P,R7,2*
G04 #@! TO.N,VCC*
X163780000Y-36855500D03*
G04 #@! TD*
D19*
G04 #@! TO.P,R8,1*
G04 #@! TO.N,Net-(C6-Pad1)*
X158318000Y-36919000D03*
D21*
G04 #@! TO.P,R8,2*
G04 #@! TO.N,VCC*
X160858000Y-36919000D03*
G04 #@! TD*
D16*
G04 #@! TO.P,K3,1*
G04 #@! TO.N,GND*
X130061000Y-66383000D03*
D18*
G04 #@! TD*
G04 #@! TO.N,GND*
G04 #@! TO.C,K3*
G36*
X130061000Y-67585082D02*
X128858918Y-66383000D01*
X130061000Y-65180918D01*
X131263082Y-66383000D01*
X130061000Y-67585082D01*
X130061000Y-67585082D01*
G37*
D16*
G04 #@! TO.P,K3,2*
G04 #@! TO.N,Net-(D3-Pad1)*
X131857051Y-68179051D03*
D17*
G04 #@! TD*
G04 #@! TO.N,Net-(D3-Pad1)*
G04 #@! TO.C,K3*
X131857051Y-68179051D02*
X131857051Y-68179051D01*
D16*
G04 #@! TO.P,K3,3*
G04 #@! TO.N,VCC*
X133653102Y-69975102D03*
D17*
G04 #@! TD*
G04 #@! TO.N,VCC*
G04 #@! TO.C,K3*
X133653102Y-69975102D02*
X133653102Y-69975102D01*
D21*
G04 #@! TO.P,R6,2*
G04 #@! TO.N,GND*
X136919000Y-40157500D03*
D19*
G04 #@! TO.P,R6,1*
G04 #@! TO.N,Net-(C5-Pad1)*
X136919000Y-42697500D03*
G04 #@! TD*
D23*
G04 #@! TO.N,GND*
X139840000Y-56985000D02*
X135961400Y-56985000D01*
X135961400Y-56985000D02*
X133389300Y-59557100D01*
X133389300Y-59557100D02*
X133389300Y-63054700D01*
X133389300Y-63054700D02*
X130061000Y-66383000D01*
X143650000Y-62065000D02*
X145075200Y-63490200D01*
X145075200Y-63490200D02*
X145075200Y-66642200D01*
X145075200Y-66642200D02*
X147610000Y-69177000D01*
X143650000Y-59485000D02*
X143650000Y-62065000D01*
X124219000Y-47460000D02*
X124219000Y-45984900D01*
X133554000Y-40157500D02*
X130450900Y-40157500D01*
X130450900Y-40157500D02*
X124623500Y-45984900D01*
X124623500Y-45984900D02*
X124219000Y-45984900D01*
X171523000Y-61049000D02*
X171523000Y-65053000D01*
X171523000Y-65053000D02*
X170066000Y-66510000D01*
X169558000Y-50889000D02*
X169558000Y-58359000D01*
X169558000Y-58359000D02*
X171523000Y-60324000D01*
X171523000Y-60324000D02*
X171523000Y-61049000D01*
X171523000Y-61049000D02*
X172248000Y-61049000D01*
X160986000Y-45468000D02*
X160986000Y-42848000D01*
X136919000Y-40157500D02*
X136919000Y-38732400D01*
X136919000Y-38732400D02*
X138340000Y-37311400D01*
X138340000Y-37311400D02*
X138340000Y-33807500D01*
X166383000Y-30061000D02*
X165340000Y-31104000D01*
X165340000Y-31104000D02*
X165340000Y-31104100D01*
X165340000Y-31104100D02*
X165340000Y-37375200D01*
X165340000Y-37375200D02*
X162891000Y-39824200D01*
X162891000Y-39824200D02*
X162891000Y-40943000D01*
X162891000Y-40943000D02*
X160986000Y-42848000D01*
X146190000Y-28410000D02*
X148349000Y-28410000D01*
X148349000Y-28410000D02*
X152540000Y-24219000D01*
X146190000Y-36030000D02*
X146190000Y-37455100D01*
X144499000Y-41491000D02*
X144499000Y-39146100D01*
X144499000Y-39146100D02*
X146190000Y-37455100D01*
X152540000Y-75908000D02*
X152540000Y-74107000D01*
X152540000Y-74107000D02*
X147610000Y-69177000D01*
X160986000Y-54532000D02*
X160986000Y-57152000D01*
G04 #@! TO.N,VCC*
X135041100Y-42884700D02*
X135041100Y-37068300D01*
X135041100Y-37068300D02*
X132668900Y-34696100D01*
X132668900Y-34696100D02*
X131068000Y-34696100D01*
X141999000Y-45603700D02*
X137760100Y-45603700D01*
X137760100Y-45603700D02*
X135041100Y-42884700D01*
X124219000Y-52540000D02*
X125860800Y-50898200D01*
X125860800Y-50898200D02*
X125860800Y-48766700D01*
X125860800Y-48766700D02*
X126640000Y-47987500D01*
X126640000Y-47987500D02*
X130813500Y-47987500D01*
X130813500Y-47987500D02*
X132052500Y-46748500D01*
X132052500Y-46748500D02*
X132052500Y-45596100D01*
X132052500Y-45596100D02*
X134763900Y-42884700D01*
X134763900Y-42884700D02*
X135041100Y-42884700D01*
X130024900Y-33653100D02*
X131068000Y-34696100D01*
X147460000Y-39522500D02*
X147460000Y-40606800D01*
X147460000Y-40606800D02*
X142463100Y-45603700D01*
X142463100Y-45603700D02*
X141999000Y-45603700D01*
X141999000Y-45603700D02*
X141999000Y-47460000D01*
X143650000Y-56985000D02*
X143650000Y-49111000D01*
X143650000Y-49111000D02*
X141999000Y-47460000D01*
X160858000Y-36919000D02*
X160858000Y-38344100D01*
X160858000Y-38344100D02*
X160986000Y-38472100D01*
X160986000Y-38472100D02*
X160986000Y-40348000D01*
X160858000Y-36919000D02*
X160858000Y-31629800D01*
X160858000Y-31629800D02*
X158228700Y-29000500D01*
X158228700Y-29000500D02*
X155825600Y-29000500D01*
X155825600Y-29000500D02*
X155235100Y-28410000D01*
X147460000Y-75908000D02*
X145984900Y-75908000D01*
X141872000Y-73431500D02*
X143508400Y-73431500D01*
X143508400Y-73431500D02*
X145984900Y-75908000D01*
X174257000Y-43650000D02*
X174257000Y-51016000D01*
X174257000Y-51016000D02*
X175781000Y-52540000D01*
X174511000Y-56286500D02*
X174511000Y-54861400D01*
X175781000Y-52540000D02*
X175781000Y-54015100D01*
X175781000Y-54015100D02*
X174934700Y-54861400D01*
X174934700Y-54861400D02*
X174511000Y-54861400D01*
X157176000Y-59652000D02*
X155750900Y-59652000D01*
X155750900Y-59652000D02*
X155750900Y-59715500D01*
X155750900Y-59715500D02*
X153620000Y-61846400D01*
X160986000Y-52032000D02*
X159081000Y-53937000D01*
X159081000Y-53937000D02*
X159081000Y-57747000D01*
X159081000Y-57747000D02*
X157176000Y-59652000D01*
X153810000Y-28410000D02*
X155235100Y-28410000D01*
X165367000Y-65748000D02*
X158473100Y-65748000D01*
X157048000Y-65748000D02*
X158473100Y-65748000D01*
X165367000Y-65748000D02*
X165367000Y-68995200D01*
X165367000Y-68995200D02*
X166473900Y-70102100D01*
X147460000Y-56985000D02*
X148885100Y-56985000D01*
X153620000Y-63271500D02*
X153620000Y-61846400D01*
X148885100Y-56985000D02*
X148885100Y-58247800D01*
X148885100Y-58247800D02*
X152483700Y-61846400D01*
X152483700Y-61846400D02*
X153620000Y-61846400D01*
X157176000Y-49393100D02*
X158347100Y-49393100D01*
X158347100Y-49393100D02*
X160986000Y-52032000D01*
X157176000Y-47968000D02*
X157176000Y-49393100D01*
G04 #@! TO.N,refractory*
X148410200Y-31745000D02*
X153249400Y-26905800D01*
X153249400Y-26905800D02*
X155792600Y-26905800D01*
X155792600Y-26905800D02*
X156397700Y-26300700D01*
X150000000Y-42062500D02*
X150000000Y-33876000D01*
X150000000Y-33876000D02*
X148410100Y-32286100D01*
X148410100Y-32286100D02*
X148410100Y-31745100D01*
X148410100Y-31745100D02*
X148410200Y-31745000D01*
X148410200Y-31745000D02*
X147615100Y-30950000D01*
X146190000Y-30950000D02*
X147615100Y-30950000D01*
X158318000Y-27076500D02*
X156397700Y-26300700D01*
X146190000Y-30950000D02*
X142520000Y-34620000D01*
X142520000Y-34620000D02*
X142520000Y-34679500D01*
G04 #@! TO.N,Net-(C5-Pad1)*
X141999000Y-41491000D02*
X141999000Y-37681000D01*
X141999000Y-37681000D02*
X146190000Y-33490000D01*
X128092000Y-38760500D02*
X127316200Y-40680800D01*
X127316200Y-40680800D02*
X127316100Y-40680800D01*
X127316100Y-40680800D02*
X127140500Y-40856400D01*
X127140500Y-40856400D02*
X127140500Y-41115500D01*
X136030000Y-50000000D02*
X136030000Y-46190000D01*
X136030000Y-53810000D02*
X136030000Y-50000000D01*
G04 #@! TO.N,Net-(C6-Pad1)*
X158382000Y-33680500D02*
X158382000Y-35105600D01*
X158382000Y-35105600D02*
X158318000Y-35169600D01*
X158318000Y-35169600D02*
X158318000Y-36919000D01*
X157176000Y-42888000D02*
X158629100Y-41434900D01*
X158629100Y-41434900D02*
X158629100Y-37230100D01*
X158629100Y-37230100D02*
X158318000Y-36919000D01*
G04 #@! TO.N,Net-(C8-Pad1)*
X169939000Y-38951000D02*
X169939000Y-40376100D01*
X171717000Y-43650000D02*
X171717000Y-42154100D01*
X171717000Y-42154100D02*
X169939000Y-40376100D01*
X164796000Y-45428000D02*
X164796000Y-42888000D01*
G04 #@! TO.N,Net-(C10-Pad2)*
X138380000Y-67399000D02*
X141872000Y-70891000D01*
X141872000Y-70891000D02*
X141872000Y-70891500D01*
X157176000Y-45428000D02*
X159081000Y-47333000D01*
X159081000Y-47333000D02*
X159081000Y-48111300D01*
X159081000Y-48111300D02*
X162533000Y-51563300D01*
X162533000Y-51563300D02*
X162533000Y-62763500D01*
G04 #@! TO.N,Net-(C11-Pad1)*
X135880000Y-67399000D02*
X137377200Y-65901800D01*
X137377200Y-65901800D02*
X137377200Y-61987800D01*
X137377200Y-61987800D02*
X139840000Y-59525000D01*
X138189000Y-70129500D02*
X135880000Y-67820500D01*
X135880000Y-67820500D02*
X135880000Y-67399000D01*
G04 #@! TO.N,Net-(C17-Pad1)*
X147460000Y-59525000D02*
X147460000Y-62065000D01*
G04 #@! TO.N,Net-(D1-Pad2)*
X142520000Y-32139500D02*
X142520000Y-28964500D01*
G04 #@! TO.N,Net-(D1-Pad1)*
X142520000Y-26424500D02*
X147794500Y-26424500D01*
X147794500Y-26424500D02*
X150000000Y-24219000D01*
G04 #@! TO.N,Net-(D4-Pad2)*
X133490000Y-50000000D02*
X130315000Y-50000000D01*
G04 #@! TO.N,Net-(D6-Pad2)*
X171971000Y-46825000D02*
X172098000Y-46952000D01*
X172098000Y-46952000D02*
X172098000Y-50889000D01*
G04 #@! TO.N,Net-(P2-Pad2)*
X169431000Y-46825000D02*
X169431000Y-45399900D01*
X169431000Y-45399900D02*
X168179100Y-44148000D01*
X168179100Y-44148000D02*
X168179100Y-31857100D01*
X169431000Y-47537500D02*
X169431000Y-46825000D01*
X169431000Y-47537500D02*
X169431000Y-48250100D01*
X169431000Y-48250100D02*
X168027500Y-49653600D01*
X168027500Y-49653600D02*
X168027500Y-56132300D01*
X168027500Y-56132300D02*
X167464900Y-56694900D01*
X167464900Y-56694900D02*
X167464900Y-67025000D01*
X167464900Y-67025000D02*
X167226900Y-67263000D01*
X168269900Y-68306100D02*
X167226900Y-67263000D01*
G04 #@! TO.N,Net-(P5-Pad2)*
X150000000Y-75908000D02*
X144780700Y-70688700D01*
X144780700Y-70688700D02*
X144095700Y-70688700D01*
X144095700Y-70688700D02*
X141745000Y-68338000D01*
X141745000Y-68338000D02*
X141745000Y-63970000D01*
X141745000Y-63970000D02*
X139840000Y-62065000D01*
G04 #@! TO.N,Net-(U1-Pad5)*
X153810000Y-33490000D02*
X153810000Y-36030000D01*
G04 #@! TO.N,Net-(C14-Pad1)*
X164796000Y-54572000D02*
X164796000Y-57112000D01*
G04 #@! TD*
M02*
