M48
;DRILL file {KiCad 5.0.2-bee76a0~70~ubuntu18.04.1} date Sun 07 Jul 2019 12:00:16 AM CEST
;FORMAT={3:3/ absolute / metric / suppress leading zeros}
FMAT,2
METRIC,TZ
T1C0.800
T2C0.900
T3C1.000
T4C1.100
%
G90
G05
T1
X160986Y-40348
X160986Y-42848
X133490Y-50000
X136030Y-50000
X169748Y-61049
X172248Y-61049
X141999Y-41491
X144499Y-41491
X133490Y-53810
X136030Y-53810
X171717Y-43650
X174257Y-43650
X160986Y-52032
X160986Y-54532
X138189Y-70130
X138189Y-72669
X143650Y-56985
X143650Y-59485
X158318Y-36919
X160858Y-36919
X135880Y-67399
X138380Y-67399
X165367Y-63208
X165367Y-65748
X133490Y-46190
X136030Y-46190
X151080Y-57938
X153580Y-57938
X139459Y-50000
X141999Y-47460
X141999Y-52540
X169939Y-38951
X172439Y-38951
X146190Y-28410
X146190Y-30950
X146190Y-33490
X146190Y-36030
X153810Y-28410
X153810Y-30950
X153810Y-33490
X153810Y-36030
X136919Y-40158
X136919Y-42698
X157176Y-52032
X157176Y-54572
X157176Y-57112
X157176Y-59652
X164796Y-52032
X164796Y-54572
X164796Y-57112
X164796Y-59652
X160033Y-62764
X162533Y-62764
X157048Y-63208
X157048Y-65748
X157176Y-40348
X157176Y-42888
X157176Y-45428
X157176Y-47968
X164796Y-40348
X164796Y-42888
X164796Y-45428
X164796Y-47968
X143650Y-62065
X143650Y-64565
X135840Y-33808
X138340Y-33808
X145110Y-69177
X147610Y-69177
X151080Y-63272
X153620Y-63272
X160986Y-45468
X160986Y-47968
X163780Y-34316
X163780Y-36856
X160986Y-57152
X160986Y-59652
X147460Y-39523
X150000Y-42063
X152540Y-39523
X133554Y-37618
X133554Y-40158
X169431Y-46825
X171971Y-46825
X171971Y-56287
X174511Y-56287
X141872Y-70892
X141872Y-73432
X139840Y-56985
X139840Y-59525
X139840Y-62065
X139840Y-64605
X147460Y-56985
X147460Y-59525
X147460Y-62065
X147460Y-64605
X142520Y-32140
X142520Y-34680
X158382Y-31181
X158382Y-33680
T2
X169558Y-50889
X172098Y-50889
T3
X127140Y-41116
X128092Y-38761
X147460Y-75908
X150000Y-75908
X152540Y-75908
X166474Y-70102
X168270Y-68306
X170066Y-66510
X130061Y-66383
X131857Y-68179
X133653Y-69975
X130025Y-33653
X131821Y-31857
X133617Y-30061
X124219Y-47460
X124219Y-50000
X124219Y-52540
X147460Y-24219
X150000Y-24219
X152540Y-24219
X158318Y-27076
X160673Y-28028
X135395Y-60160
X135395Y-62700
X166383Y-30061
X168179Y-31857
X169975Y-33653
X175781Y-47460
X175781Y-50000
X175781Y-52540
T4
X127775Y-50000
X130315Y-50000
X142520Y-26425
X142520Y-28965
X127775Y-46000
X130315Y-46000
X127775Y-53810
X130315Y-53810
X128410Y-60160
X130950Y-60160
T0
M30
