G04 (created by PCBNEW-RS274X (2012-apr-16-27)-stable) date Mon 30 Jun 2014 11:26:30 PM CST*
G01*
G70*
G90*
%MOIN*%
G04 Gerber Fmt 3.4, Leading zero omitted, Abs format*
%FSLAX34Y34*%
G04 APERTURE LIST*
%ADD10C,0.006000*%
%ADD11C,0.007500*%
%ADD12C,0.006300*%
%ADD13C,0.008000*%
%ADD14C,0.010000*%
%ADD15C,0.007000*%
%ADD16C,0.015000*%
%ADD17C,0.012000*%
%ADD18C,0.005000*%
G04 APERTURE END LIST*
G54D10*
G54D11*
X50701Y-35842D02*
X50534Y-35842D01*
X50518Y-36008D01*
X50534Y-35992D01*
X50568Y-35975D01*
X50651Y-35975D01*
X50684Y-35992D01*
X50701Y-36008D01*
X50718Y-36042D01*
X50718Y-36125D01*
X50701Y-36158D01*
X50684Y-36175D01*
X50651Y-36192D01*
X50568Y-36192D01*
X50534Y-36175D01*
X50518Y-36158D01*
X51034Y-35842D02*
X50867Y-35842D01*
X50851Y-36008D01*
X50867Y-35992D01*
X50901Y-35975D01*
X50984Y-35975D01*
X51017Y-35992D01*
X51034Y-36008D01*
X51051Y-36042D01*
X51051Y-36125D01*
X51034Y-36158D01*
X51017Y-36175D01*
X50984Y-36192D01*
X50901Y-36192D01*
X50867Y-36175D01*
X50851Y-36158D01*
X51350Y-35842D02*
X51284Y-35842D01*
X51250Y-35858D01*
X51234Y-35875D01*
X51200Y-35925D01*
X51184Y-35992D01*
X51184Y-36125D01*
X51200Y-36158D01*
X51217Y-36175D01*
X51250Y-36192D01*
X51317Y-36192D01*
X51350Y-36175D01*
X51367Y-36158D01*
X51384Y-36125D01*
X51384Y-36042D01*
X51367Y-36008D01*
X51350Y-35992D01*
X51317Y-35975D01*
X51250Y-35975D01*
X51217Y-35992D01*
X51200Y-36008D01*
X51184Y-36042D01*
G54D12*
X50222Y-43327D02*
X50233Y-43339D01*
X50222Y-43351D01*
X50210Y-43339D01*
X50222Y-43327D01*
X50222Y-43351D01*
X50471Y-43351D02*
X50329Y-43351D01*
X50400Y-43351D02*
X50400Y-43101D01*
X50376Y-43137D01*
X50352Y-43161D01*
X50329Y-43173D01*
X50686Y-43185D02*
X50686Y-43351D01*
X50579Y-43185D02*
X50579Y-43315D01*
X50590Y-43339D01*
X50614Y-43351D01*
X50650Y-43351D01*
X50674Y-43339D01*
X50686Y-43327D01*
X50888Y-43220D02*
X50805Y-43220D01*
X50805Y-43351D02*
X50805Y-43101D01*
X50924Y-43101D01*
G54D11*
X56142Y-44441D02*
X56142Y-44641D01*
X56142Y-44541D02*
X55792Y-44541D01*
X55842Y-44575D01*
X55875Y-44608D01*
X55892Y-44641D01*
X55792Y-44225D02*
X55792Y-44192D01*
X55808Y-44158D01*
X55825Y-44142D01*
X55858Y-44125D01*
X55925Y-44108D01*
X56008Y-44108D01*
X56075Y-44125D01*
X56108Y-44142D01*
X56125Y-44158D01*
X56142Y-44192D01*
X56142Y-44225D01*
X56125Y-44258D01*
X56108Y-44275D01*
X56075Y-44292D01*
X56008Y-44308D01*
X55925Y-44308D01*
X55858Y-44292D01*
X55825Y-44275D01*
X55808Y-44258D01*
X55792Y-44225D01*
X55792Y-43892D02*
X55792Y-43859D01*
X55808Y-43825D01*
X55825Y-43809D01*
X55858Y-43792D01*
X55925Y-43775D01*
X56008Y-43775D01*
X56075Y-43792D01*
X56108Y-43809D01*
X56125Y-43825D01*
X56142Y-43859D01*
X56142Y-43892D01*
X56125Y-43925D01*
X56108Y-43942D01*
X56075Y-43959D01*
X56008Y-43975D01*
X55925Y-43975D01*
X55858Y-43959D01*
X55825Y-43942D01*
X55808Y-43925D01*
X55792Y-43892D01*
X55908Y-43476D02*
X56142Y-43476D01*
X55908Y-43626D02*
X56092Y-43626D01*
X56125Y-43609D01*
X56142Y-43576D01*
X56142Y-43526D01*
X56125Y-43492D01*
X56108Y-43476D01*
X55958Y-43192D02*
X55958Y-43309D01*
X56142Y-43309D02*
X55792Y-43309D01*
X55792Y-43142D01*
X56316Y-35408D02*
X56300Y-35425D01*
X56250Y-35442D01*
X56216Y-35442D01*
X56166Y-35425D01*
X56133Y-35392D01*
X56116Y-35358D01*
X56100Y-35292D01*
X56100Y-35242D01*
X56116Y-35175D01*
X56133Y-35142D01*
X56166Y-35108D01*
X56216Y-35092D01*
X56250Y-35092D01*
X56300Y-35108D01*
X56316Y-35125D01*
X56466Y-35442D02*
X56466Y-35208D01*
X56466Y-35275D02*
X56483Y-35242D01*
X56500Y-35225D01*
X56533Y-35208D01*
X56566Y-35208D01*
X56633Y-35208D02*
X56767Y-35208D01*
X56683Y-35442D02*
X56683Y-35142D01*
X56700Y-35108D01*
X56733Y-35092D01*
X56767Y-35092D01*
X56850Y-35208D02*
X56933Y-35442D01*
X57017Y-35208D02*
X56933Y-35442D01*
X56900Y-35525D01*
X56883Y-35542D01*
X56850Y-35558D01*
X49942Y-30858D02*
X49942Y-31058D01*
X49942Y-30958D02*
X49592Y-30958D01*
X49642Y-30992D01*
X49675Y-31025D01*
X49692Y-31058D01*
X49708Y-30559D02*
X49942Y-30559D01*
X49708Y-30709D02*
X49892Y-30709D01*
X49925Y-30692D01*
X49942Y-30659D01*
X49942Y-30609D01*
X49925Y-30575D01*
X49908Y-30559D01*
X49758Y-30275D02*
X49758Y-30392D01*
X49942Y-30392D02*
X49592Y-30392D01*
X49592Y-30225D01*
X47826Y-32792D02*
X47626Y-32792D01*
X47726Y-32792D02*
X47726Y-32442D01*
X47692Y-32492D01*
X47659Y-32525D01*
X47626Y-32542D01*
X48042Y-32442D02*
X48075Y-32442D01*
X48109Y-32458D01*
X48125Y-32475D01*
X48142Y-32508D01*
X48159Y-32575D01*
X48159Y-32658D01*
X48142Y-32725D01*
X48125Y-32758D01*
X48109Y-32775D01*
X48075Y-32792D01*
X48042Y-32792D01*
X48009Y-32775D01*
X47992Y-32758D01*
X47975Y-32725D01*
X47959Y-32658D01*
X47959Y-32575D01*
X47975Y-32508D01*
X47992Y-32475D01*
X48009Y-32458D01*
X48042Y-32442D01*
X48458Y-32558D02*
X48458Y-32792D01*
X48308Y-32558D02*
X48308Y-32742D01*
X48325Y-32775D01*
X48358Y-32792D01*
X48408Y-32792D01*
X48442Y-32775D01*
X48458Y-32758D01*
X48742Y-32608D02*
X48625Y-32608D01*
X48625Y-32792D02*
X48625Y-32442D01*
X48792Y-32442D01*
X45791Y-32808D02*
X45775Y-32825D01*
X45725Y-32842D01*
X45691Y-32842D01*
X45641Y-32825D01*
X45608Y-32792D01*
X45591Y-32758D01*
X45575Y-32692D01*
X45575Y-32642D01*
X45591Y-32575D01*
X45608Y-32542D01*
X45641Y-32508D01*
X45691Y-32492D01*
X45725Y-32492D01*
X45775Y-32508D01*
X45791Y-32525D01*
X46091Y-32825D02*
X46058Y-32842D01*
X45991Y-32842D01*
X45958Y-32825D01*
X45941Y-32808D01*
X45925Y-32775D01*
X45925Y-32675D01*
X45941Y-32642D01*
X45958Y-32625D01*
X45991Y-32608D01*
X46058Y-32608D01*
X46091Y-32625D01*
X46241Y-32842D02*
X46241Y-32492D01*
X46391Y-32842D02*
X46391Y-32658D01*
X46375Y-32625D01*
X46341Y-32608D01*
X46291Y-32608D01*
X46258Y-32625D01*
X46241Y-32642D01*
X46708Y-32608D02*
X46708Y-32892D01*
X46692Y-32925D01*
X46675Y-32942D01*
X46642Y-32958D01*
X46592Y-32958D01*
X46558Y-32942D01*
X46708Y-32825D02*
X46675Y-32842D01*
X46608Y-32842D01*
X46575Y-32825D01*
X46558Y-32808D01*
X46542Y-32775D01*
X46542Y-32675D01*
X46558Y-32642D01*
X46575Y-32625D01*
X46608Y-32608D01*
X46675Y-32608D01*
X46708Y-32625D01*
X43242Y-33058D02*
X43242Y-33258D01*
X43242Y-33158D02*
X42892Y-33158D01*
X42942Y-33192D01*
X42975Y-33225D01*
X42992Y-33258D01*
X43008Y-32759D02*
X43242Y-32759D01*
X43008Y-32909D02*
X43192Y-32909D01*
X43225Y-32892D01*
X43242Y-32859D01*
X43242Y-32809D01*
X43225Y-32775D01*
X43208Y-32759D01*
X43058Y-32475D02*
X43058Y-32592D01*
X43242Y-32592D02*
X42892Y-32592D01*
X42892Y-32425D01*
G54D12*
X38558Y-35751D02*
X38416Y-35751D01*
X38487Y-35751D02*
X38487Y-35501D01*
X38463Y-35537D01*
X38439Y-35561D01*
X38416Y-35573D01*
X38713Y-35501D02*
X38737Y-35501D01*
X38761Y-35513D01*
X38773Y-35525D01*
X38785Y-35549D01*
X38796Y-35596D01*
X38796Y-35656D01*
X38785Y-35704D01*
X38773Y-35727D01*
X38761Y-35739D01*
X38737Y-35751D01*
X38713Y-35751D01*
X38689Y-35739D01*
X38677Y-35727D01*
X38666Y-35704D01*
X38654Y-35656D01*
X38654Y-35596D01*
X38666Y-35549D01*
X38677Y-35525D01*
X38689Y-35513D01*
X38713Y-35501D01*
X38951Y-35501D02*
X38975Y-35501D01*
X38999Y-35513D01*
X39011Y-35525D01*
X39023Y-35549D01*
X39034Y-35596D01*
X39034Y-35656D01*
X39023Y-35704D01*
X39011Y-35727D01*
X38999Y-35739D01*
X38975Y-35751D01*
X38951Y-35751D01*
X38927Y-35739D01*
X38915Y-35727D01*
X38904Y-35704D01*
X38892Y-35656D01*
X38892Y-35596D01*
X38904Y-35549D01*
X38915Y-35525D01*
X38927Y-35513D01*
X38951Y-35501D01*
X39142Y-35751D02*
X39142Y-35501D01*
X39284Y-35751D02*
X39177Y-35608D01*
X39284Y-35501D02*
X39142Y-35644D01*
X46651Y-35714D02*
X46532Y-35797D01*
X46651Y-35856D02*
X46401Y-35856D01*
X46401Y-35761D01*
X46413Y-35737D01*
X46425Y-35726D01*
X46449Y-35714D01*
X46485Y-35714D01*
X46508Y-35726D01*
X46520Y-35737D01*
X46532Y-35761D01*
X46532Y-35856D01*
X46651Y-35606D02*
X46401Y-35606D01*
X46496Y-35606D02*
X46485Y-35583D01*
X46485Y-35535D01*
X46496Y-35511D01*
X46508Y-35499D01*
X46532Y-35487D01*
X46604Y-35487D01*
X46627Y-35499D01*
X46639Y-35511D01*
X46651Y-35535D01*
X46651Y-35583D01*
X46639Y-35606D01*
X46651Y-35345D02*
X46639Y-35369D01*
X46615Y-35380D01*
X46401Y-35380D01*
X46651Y-35142D02*
X46401Y-35142D01*
X46639Y-35142D02*
X46651Y-35166D01*
X46651Y-35214D01*
X46639Y-35238D01*
X46627Y-35249D01*
X46604Y-35261D01*
X46532Y-35261D01*
X46508Y-35249D01*
X46496Y-35238D01*
X46485Y-35214D01*
X46485Y-35166D01*
X46496Y-35142D01*
X47946Y-35501D02*
X47804Y-35501D01*
X47875Y-35501D02*
X47875Y-35251D01*
X47851Y-35287D01*
X47827Y-35311D01*
X47804Y-35323D01*
X48054Y-35501D02*
X48054Y-35251D01*
X48196Y-35501D02*
X48089Y-35358D01*
X48196Y-35251D02*
X48054Y-35394D01*
X52083Y-36351D02*
X52000Y-36232D01*
X51941Y-36351D02*
X51941Y-36101D01*
X52036Y-36101D01*
X52060Y-36113D01*
X52071Y-36125D01*
X52083Y-36149D01*
X52083Y-36185D01*
X52071Y-36208D01*
X52060Y-36220D01*
X52036Y-36232D01*
X51941Y-36232D01*
X52191Y-36351D02*
X52191Y-36185D01*
X52191Y-36232D02*
X52202Y-36208D01*
X52214Y-36196D01*
X52238Y-36185D01*
X52262Y-36185D01*
X52310Y-36185D02*
X52405Y-36185D01*
X52346Y-36351D02*
X52346Y-36137D01*
X52357Y-36113D01*
X52381Y-36101D01*
X52405Y-36101D01*
X52465Y-36185D02*
X52524Y-36351D01*
X52584Y-36185D02*
X52524Y-36351D01*
X52500Y-36411D01*
X52489Y-36423D01*
X52465Y-36435D01*
X48816Y-36301D02*
X48697Y-36301D01*
X48685Y-36420D01*
X48697Y-36408D01*
X48720Y-36396D01*
X48780Y-36396D01*
X48804Y-36408D01*
X48816Y-36420D01*
X48827Y-36444D01*
X48827Y-36504D01*
X48816Y-36527D01*
X48804Y-36539D01*
X48780Y-36551D01*
X48720Y-36551D01*
X48697Y-36539D01*
X48685Y-36527D01*
X49065Y-36551D02*
X48923Y-36551D01*
X48994Y-36551D02*
X48994Y-36301D01*
X48970Y-36337D01*
X48946Y-36361D01*
X48923Y-36373D01*
X49173Y-36551D02*
X49173Y-36301D01*
X49315Y-36551D02*
X49208Y-36408D01*
X49315Y-36301D02*
X49173Y-36444D01*
X54851Y-43930D02*
X54732Y-44013D01*
X54851Y-44072D02*
X54601Y-44072D01*
X54601Y-43977D01*
X54613Y-43953D01*
X54625Y-43942D01*
X54649Y-43930D01*
X54685Y-43930D01*
X54708Y-43942D01*
X54720Y-43953D01*
X54732Y-43977D01*
X54732Y-44072D01*
X54851Y-43787D02*
X54839Y-43811D01*
X54827Y-43822D01*
X54804Y-43834D01*
X54732Y-43834D01*
X54708Y-43822D01*
X54696Y-43811D01*
X54685Y-43787D01*
X54685Y-43751D01*
X54696Y-43727D01*
X54708Y-43715D01*
X54732Y-43703D01*
X54804Y-43703D01*
X54827Y-43715D01*
X54839Y-43727D01*
X54851Y-43751D01*
X54851Y-43787D01*
X54685Y-43596D02*
X54935Y-43596D01*
X54696Y-43596D02*
X54685Y-43573D01*
X54685Y-43525D01*
X54696Y-43501D01*
X54708Y-43489D01*
X54732Y-43477D01*
X54804Y-43477D01*
X54827Y-43489D01*
X54839Y-43501D01*
X54851Y-43525D01*
X54851Y-43573D01*
X54839Y-43596D01*
X54685Y-43394D02*
X54851Y-43347D01*
X54732Y-43299D01*
X54851Y-43251D01*
X54685Y-43204D01*
X53325Y-44115D02*
X53313Y-44103D01*
X53301Y-44080D01*
X53301Y-44020D01*
X53313Y-43996D01*
X53325Y-43984D01*
X53349Y-43973D01*
X53373Y-43973D01*
X53408Y-43984D01*
X53551Y-44127D01*
X53551Y-43973D01*
X53301Y-43889D02*
X53301Y-43723D01*
X53551Y-43830D01*
X53551Y-43627D02*
X53301Y-43627D01*
X53551Y-43485D02*
X53408Y-43592D01*
X53301Y-43485D02*
X53444Y-43627D01*
G54D13*
X50998Y-49888D02*
X50982Y-49905D01*
X50932Y-49922D01*
X50898Y-49922D01*
X50848Y-49905D01*
X50815Y-49872D01*
X50798Y-49838D01*
X50782Y-49772D01*
X50782Y-49722D01*
X50798Y-49655D01*
X50815Y-49622D01*
X50848Y-49588D01*
X50898Y-49572D01*
X50932Y-49572D01*
X50982Y-49588D01*
X50998Y-49605D01*
X51198Y-49922D02*
X51165Y-49905D01*
X51148Y-49888D01*
X51132Y-49855D01*
X51132Y-49755D01*
X51148Y-49722D01*
X51165Y-49705D01*
X51198Y-49688D01*
X51248Y-49688D01*
X51282Y-49705D01*
X51298Y-49722D01*
X51315Y-49755D01*
X51315Y-49855D01*
X51298Y-49888D01*
X51282Y-49905D01*
X51248Y-49922D01*
X51198Y-49922D01*
X51465Y-49688D02*
X51465Y-50038D01*
X51465Y-49705D02*
X51499Y-49688D01*
X51565Y-49688D01*
X51599Y-49705D01*
X51615Y-49722D01*
X51632Y-49755D01*
X51632Y-49855D01*
X51615Y-49888D01*
X51599Y-49905D01*
X51565Y-49922D01*
X51499Y-49922D01*
X51465Y-49905D01*
X51749Y-49688D02*
X51816Y-49922D01*
X51882Y-49755D01*
X51949Y-49922D01*
X52016Y-49688D01*
G54D12*
X49372Y-48877D02*
X49383Y-48889D01*
X49372Y-48901D01*
X49360Y-48889D01*
X49372Y-48877D01*
X49372Y-48901D01*
X49621Y-48901D02*
X49479Y-48901D01*
X49550Y-48901D02*
X49550Y-48651D01*
X49526Y-48687D01*
X49502Y-48711D01*
X49479Y-48723D01*
X49836Y-48735D02*
X49836Y-48901D01*
X49729Y-48735D02*
X49729Y-48865D01*
X49740Y-48889D01*
X49764Y-48901D01*
X49800Y-48901D01*
X49824Y-48889D01*
X49836Y-48877D01*
X50038Y-48770D02*
X49955Y-48770D01*
X49955Y-48901D02*
X49955Y-48651D01*
X50074Y-48651D01*
G54D13*
X46862Y-38487D02*
X46862Y-38654D01*
X46512Y-38654D01*
X46678Y-38371D02*
X46678Y-38254D01*
X46862Y-38204D02*
X46862Y-38371D01*
X46512Y-38371D01*
X46512Y-38204D01*
X46862Y-38054D02*
X46512Y-38054D01*
X46512Y-37970D01*
X46528Y-37920D01*
X46562Y-37887D01*
X46595Y-37870D01*
X46662Y-37854D01*
X46712Y-37854D01*
X46778Y-37870D01*
X46812Y-37887D01*
X46845Y-37920D01*
X46862Y-37970D01*
X46862Y-38054D01*
X46845Y-37303D02*
X46862Y-37337D01*
X46862Y-37403D01*
X46845Y-37437D01*
X46812Y-37453D01*
X46678Y-37453D01*
X46645Y-37437D01*
X46628Y-37403D01*
X46628Y-37337D01*
X46645Y-37303D01*
X46678Y-37287D01*
X46712Y-37287D01*
X46745Y-37453D01*
X46628Y-37137D02*
X46862Y-37137D01*
X46662Y-37137D02*
X46645Y-37120D01*
X46628Y-37087D01*
X46628Y-37037D01*
X46645Y-37003D01*
X46678Y-36987D01*
X46862Y-36987D01*
G54D12*
X44478Y-39121D02*
X44336Y-39121D01*
X44407Y-39121D02*
X44407Y-38871D01*
X44383Y-38907D01*
X44359Y-38931D01*
X44336Y-38943D01*
X44633Y-38871D02*
X44657Y-38871D01*
X44681Y-38883D01*
X44693Y-38895D01*
X44705Y-38919D01*
X44716Y-38966D01*
X44716Y-39026D01*
X44705Y-39074D01*
X44693Y-39097D01*
X44681Y-39109D01*
X44657Y-39121D01*
X44633Y-39121D01*
X44609Y-39109D01*
X44597Y-39097D01*
X44586Y-39074D01*
X44574Y-39026D01*
X44574Y-38966D01*
X44586Y-38919D01*
X44597Y-38895D01*
X44609Y-38883D01*
X44633Y-38871D01*
X44871Y-38871D02*
X44895Y-38871D01*
X44919Y-38883D01*
X44931Y-38895D01*
X44943Y-38919D01*
X44954Y-38966D01*
X44954Y-39026D01*
X44943Y-39074D01*
X44931Y-39097D01*
X44919Y-39109D01*
X44895Y-39121D01*
X44871Y-39121D01*
X44847Y-39109D01*
X44835Y-39097D01*
X44824Y-39074D01*
X44812Y-39026D01*
X44812Y-38966D01*
X44824Y-38919D01*
X44835Y-38895D01*
X44847Y-38883D01*
X44871Y-38871D01*
X45062Y-39121D02*
X45062Y-38871D01*
X45204Y-39121D02*
X45097Y-38978D01*
X45204Y-38871D02*
X45062Y-39014D01*
X43444Y-38965D02*
X43444Y-39131D01*
X43384Y-38869D02*
X43325Y-39048D01*
X43479Y-39048D01*
X43551Y-38881D02*
X43717Y-38881D01*
X43610Y-39131D01*
X43813Y-39131D02*
X43813Y-38881D01*
X43955Y-39131D02*
X43848Y-38988D01*
X43955Y-38881D02*
X43813Y-39024D01*
X41487Y-39121D02*
X41345Y-39121D01*
X41416Y-39121D02*
X41416Y-38871D01*
X41392Y-38907D01*
X41368Y-38931D01*
X41345Y-38943D01*
X41642Y-38871D02*
X41666Y-38871D01*
X41690Y-38883D01*
X41702Y-38895D01*
X41714Y-38919D01*
X41725Y-38966D01*
X41725Y-39026D01*
X41714Y-39074D01*
X41702Y-39097D01*
X41690Y-39109D01*
X41666Y-39121D01*
X41642Y-39121D01*
X41618Y-39109D01*
X41606Y-39097D01*
X41595Y-39074D01*
X41583Y-39026D01*
X41583Y-38966D01*
X41595Y-38919D01*
X41606Y-38895D01*
X41618Y-38883D01*
X41642Y-38871D01*
X41833Y-39121D02*
X41833Y-38871D01*
X41975Y-39121D02*
X41868Y-38978D01*
X41975Y-38871D02*
X41833Y-39014D01*
G54D13*
X48142Y-42658D02*
X48142Y-42858D01*
X48142Y-42758D02*
X47792Y-42758D01*
X47842Y-42792D01*
X47875Y-42825D01*
X47892Y-42858D01*
X47908Y-42359D02*
X48142Y-42359D01*
X47908Y-42509D02*
X48092Y-42509D01*
X48125Y-42492D01*
X48142Y-42459D01*
X48142Y-42409D01*
X48125Y-42375D01*
X48108Y-42359D01*
X47958Y-42075D02*
X47958Y-42192D01*
X48142Y-42192D02*
X47792Y-42192D01*
X47792Y-42025D01*
G54D12*
X46971Y-44163D02*
X46971Y-44305D01*
X46971Y-44234D02*
X46721Y-44234D01*
X46757Y-44258D01*
X46781Y-44282D01*
X46793Y-44305D01*
X46721Y-44008D02*
X46721Y-43984D01*
X46733Y-43960D01*
X46745Y-43948D01*
X46769Y-43936D01*
X46816Y-43925D01*
X46876Y-43925D01*
X46924Y-43936D01*
X46947Y-43948D01*
X46959Y-43960D01*
X46971Y-43984D01*
X46971Y-44008D01*
X46959Y-44032D01*
X46947Y-44044D01*
X46924Y-44055D01*
X46876Y-44067D01*
X46816Y-44067D01*
X46769Y-44055D01*
X46745Y-44044D01*
X46733Y-44032D01*
X46721Y-44008D01*
X46971Y-43817D02*
X46721Y-43817D01*
X46971Y-43675D02*
X46828Y-43782D01*
X46721Y-43675D02*
X46864Y-43817D01*
G54D13*
X46259Y-48692D02*
X46092Y-48692D01*
X46092Y-48342D01*
X46375Y-48692D02*
X46375Y-48342D01*
X46492Y-48592D01*
X46609Y-48342D01*
X46609Y-48692D01*
X46742Y-48342D02*
X46959Y-48342D01*
X46842Y-48475D01*
X46892Y-48475D01*
X46925Y-48492D01*
X46942Y-48508D01*
X46959Y-48542D01*
X46959Y-48625D01*
X46942Y-48658D01*
X46925Y-48675D01*
X46892Y-48692D01*
X46792Y-48692D01*
X46759Y-48675D01*
X46742Y-48658D01*
X47292Y-48692D02*
X47092Y-48692D01*
X47192Y-48692D02*
X47192Y-48342D01*
X47158Y-48392D01*
X47125Y-48425D01*
X47092Y-48442D01*
X47625Y-48692D02*
X47425Y-48692D01*
X47525Y-48692D02*
X47525Y-48342D01*
X47491Y-48392D01*
X47458Y-48425D01*
X47425Y-48442D01*
X39139Y-42589D02*
X39118Y-42611D01*
X39054Y-42632D01*
X39011Y-42632D01*
X38946Y-42611D01*
X38904Y-42568D01*
X38882Y-42525D01*
X38861Y-42439D01*
X38861Y-42375D01*
X38882Y-42289D01*
X38904Y-42246D01*
X38946Y-42204D01*
X39011Y-42182D01*
X39054Y-42182D01*
X39118Y-42204D01*
X39139Y-42225D01*
X38893Y-37754D02*
X39107Y-37754D01*
X38850Y-37882D02*
X39000Y-37432D01*
X39150Y-37882D01*
G54D14*
X38900Y-40000D02*
X39300Y-40000D01*
X38700Y-43600D02*
X38550Y-43750D01*
X38700Y-43600D02*
X38550Y-43450D01*
X38300Y-43600D02*
X38700Y-43600D01*
X38300Y-43950D02*
X38300Y-43600D01*
G54D13*
X37716Y-44082D02*
X37866Y-44532D01*
X38016Y-44082D01*
X38102Y-44232D02*
X38273Y-44232D01*
X38166Y-44082D02*
X38166Y-44468D01*
X38188Y-44511D01*
X38230Y-44532D01*
X38273Y-44532D01*
X38423Y-44532D02*
X38423Y-44232D01*
X38423Y-44318D02*
X38445Y-44275D01*
X38466Y-44254D01*
X38509Y-44232D01*
X38552Y-44232D01*
X38702Y-44532D02*
X38702Y-44232D01*
X38702Y-44082D02*
X38681Y-44104D01*
X38702Y-44125D01*
X38724Y-44104D01*
X38702Y-44082D01*
X38702Y-44125D01*
X39109Y-44232D02*
X39109Y-44596D01*
X39088Y-44639D01*
X39066Y-44661D01*
X39023Y-44682D01*
X38959Y-44682D01*
X38916Y-44661D01*
X39109Y-44511D02*
X39066Y-44532D01*
X38980Y-44532D01*
X38938Y-44511D01*
X38916Y-44489D01*
X38895Y-44446D01*
X38895Y-44318D01*
X38916Y-44275D01*
X38938Y-44254D01*
X38980Y-44232D01*
X39066Y-44232D01*
X39109Y-44254D01*
X39516Y-44232D02*
X39516Y-44596D01*
X39495Y-44639D01*
X39473Y-44661D01*
X39430Y-44682D01*
X39366Y-44682D01*
X39323Y-44661D01*
X39516Y-44511D02*
X39473Y-44532D01*
X39387Y-44532D01*
X39345Y-44511D01*
X39323Y-44489D01*
X39302Y-44446D01*
X39302Y-44318D01*
X39323Y-44275D01*
X39345Y-44254D01*
X39387Y-44232D01*
X39473Y-44232D01*
X39516Y-44254D01*
X39902Y-44511D02*
X39859Y-44532D01*
X39773Y-44532D01*
X39730Y-44511D01*
X39709Y-44468D01*
X39709Y-44296D01*
X39730Y-44254D01*
X39773Y-44232D01*
X39859Y-44232D01*
X39902Y-44254D01*
X39923Y-44296D01*
X39923Y-44339D01*
X39709Y-44382D01*
X40116Y-44532D02*
X40116Y-44232D01*
X40116Y-44318D02*
X40138Y-44275D01*
X40159Y-44254D01*
X40202Y-44232D01*
X40245Y-44232D01*
X53627Y-33542D02*
X53894Y-33942D01*
X53894Y-33542D02*
X53627Y-33942D01*
X53634Y-46092D02*
X53867Y-46092D01*
X53634Y-46442D01*
X53867Y-46442D01*
X41324Y-46424D02*
X41305Y-46443D01*
X41248Y-46462D01*
X41210Y-46462D01*
X41152Y-46443D01*
X41114Y-46405D01*
X41095Y-46367D01*
X41076Y-46290D01*
X41076Y-46233D01*
X41095Y-46157D01*
X41114Y-46119D01*
X41152Y-46081D01*
X41210Y-46062D01*
X41248Y-46062D01*
X41305Y-46081D01*
X41324Y-46100D01*
X38589Y-39992D02*
X38646Y-40011D01*
X38665Y-40030D01*
X38684Y-40069D01*
X38684Y-40126D01*
X38665Y-40164D01*
X38646Y-40183D01*
X38608Y-40202D01*
X38455Y-40202D01*
X38455Y-39802D01*
X38589Y-39802D01*
X38627Y-39821D01*
X38646Y-39840D01*
X38665Y-39878D01*
X38665Y-39916D01*
X38646Y-39954D01*
X38627Y-39973D01*
X38589Y-39992D01*
X38455Y-39992D01*
X41143Y-33854D02*
X41357Y-33854D01*
X41100Y-33982D02*
X41250Y-33532D01*
X41400Y-33982D01*
X56450Y-40051D02*
X56450Y-40242D01*
X56317Y-39842D02*
X56450Y-40051D01*
X56584Y-39842D01*
G54D14*
X55900Y-42050D02*
X56100Y-42050D01*
X55900Y-41500D02*
X55900Y-42050D01*
X55800Y-41500D02*
X55900Y-41500D01*
X55750Y-39450D02*
X55900Y-39450D01*
X55750Y-37550D02*
X55900Y-37550D01*
G54D13*
X56083Y-41852D02*
X56417Y-41852D01*
X56083Y-42352D01*
X56417Y-42352D01*
X56050Y-39364D02*
X56050Y-39602D01*
X55884Y-39102D02*
X56050Y-39364D01*
X56217Y-39102D01*
X55933Y-37302D02*
X56267Y-37802D01*
X56267Y-37302D02*
X55933Y-37802D01*
G54D14*
X54750Y-36800D02*
X54900Y-36650D01*
X54750Y-36800D02*
X54600Y-36650D01*
X54750Y-36350D02*
X54750Y-36800D01*
G54D11*
X52358Y-36821D02*
X52358Y-36664D01*
X52344Y-36636D01*
X52315Y-36621D01*
X52258Y-36621D01*
X52229Y-36636D01*
X52358Y-36807D02*
X52329Y-36821D01*
X52258Y-36821D01*
X52229Y-36807D01*
X52215Y-36779D01*
X52215Y-36750D01*
X52229Y-36721D01*
X52258Y-36707D01*
X52329Y-36707D01*
X52358Y-36693D01*
X52472Y-36821D02*
X52629Y-36621D01*
X52472Y-36621D02*
X52629Y-36821D01*
X52786Y-36821D02*
X52758Y-36807D01*
X52743Y-36793D01*
X52729Y-36764D01*
X52729Y-36679D01*
X52743Y-36650D01*
X52758Y-36636D01*
X52786Y-36621D01*
X52829Y-36621D01*
X52858Y-36636D01*
X52872Y-36650D01*
X52886Y-36679D01*
X52886Y-36764D01*
X52872Y-36793D01*
X52858Y-36807D01*
X52829Y-36821D01*
X52786Y-36821D01*
X53014Y-36621D02*
X53014Y-36821D01*
X53014Y-36650D02*
X53029Y-36636D01*
X53057Y-36621D01*
X53100Y-36621D01*
X53129Y-36636D01*
X53143Y-36664D01*
X53143Y-36821D01*
X53614Y-36664D02*
X53657Y-36679D01*
X53672Y-36693D01*
X53686Y-36721D01*
X53686Y-36764D01*
X53672Y-36793D01*
X53657Y-36807D01*
X53629Y-36821D01*
X53514Y-36821D01*
X53514Y-36521D01*
X53614Y-36521D01*
X53643Y-36536D01*
X53657Y-36550D01*
X53672Y-36579D01*
X53672Y-36607D01*
X53657Y-36636D01*
X53643Y-36650D01*
X53614Y-36664D01*
X53514Y-36664D01*
G54D14*
X53200Y-38950D02*
X53150Y-38950D01*
X53700Y-38450D02*
X53200Y-38950D01*
X53200Y-38450D02*
X53700Y-38950D01*
X53700Y-38950D02*
X53200Y-39450D01*
X53200Y-38950D02*
X53650Y-39400D01*
X53200Y-38950D02*
X52700Y-39450D01*
X52700Y-38950D02*
X53200Y-39450D01*
X52700Y-39450D02*
X53200Y-39950D01*
X53200Y-39450D02*
X52700Y-39950D01*
X53200Y-40000D02*
X53200Y-38450D01*
X53700Y-38450D02*
X53700Y-38950D01*
X52700Y-38450D02*
X53700Y-38450D01*
X52700Y-38950D02*
X52700Y-38450D01*
X53700Y-38950D02*
X53700Y-39450D01*
X52700Y-38950D02*
X53700Y-38950D01*
X52700Y-39450D02*
X52700Y-38950D01*
X52700Y-39450D02*
X52700Y-40000D01*
X53700Y-39450D02*
X52700Y-39450D01*
X53700Y-40000D02*
X53700Y-39450D01*
X53200Y-40000D02*
X53700Y-40000D01*
X52700Y-40000D02*
X53200Y-40000D01*
G54D13*
X52705Y-46352D02*
X52538Y-46114D01*
X52419Y-46352D02*
X52419Y-45852D01*
X52610Y-45852D01*
X52657Y-45876D01*
X52681Y-45900D01*
X52705Y-45948D01*
X52705Y-46019D01*
X52681Y-46067D01*
X52657Y-46090D01*
X52610Y-46114D01*
X52419Y-46114D01*
X49043Y-47416D02*
X49062Y-47454D01*
X49062Y-47531D01*
X49043Y-47569D01*
X49024Y-47588D01*
X48986Y-47607D01*
X48871Y-47607D01*
X48833Y-47588D01*
X48814Y-47569D01*
X48795Y-47531D01*
X48795Y-47454D01*
X48814Y-47416D01*
X49062Y-47073D02*
X48852Y-47073D01*
X48814Y-47092D01*
X48795Y-47130D01*
X48795Y-47207D01*
X48814Y-47245D01*
X49043Y-47073D02*
X49062Y-47111D01*
X49062Y-47207D01*
X49043Y-47245D01*
X49005Y-47264D01*
X48967Y-47264D01*
X48929Y-47245D01*
X48910Y-47207D01*
X48910Y-47111D01*
X48890Y-47073D01*
X48795Y-46883D02*
X49195Y-46883D01*
X48814Y-46883D02*
X48795Y-46845D01*
X48795Y-46768D01*
X48814Y-46730D01*
X48833Y-46711D01*
X48871Y-46692D01*
X48986Y-46692D01*
X49024Y-46711D01*
X49043Y-46730D01*
X49062Y-46768D01*
X49062Y-46845D01*
X49043Y-46883D01*
G54D14*
X51700Y-45450D02*
X51700Y-45650D01*
X50850Y-45450D02*
X51700Y-45450D01*
X50850Y-45650D02*
X50850Y-45450D01*
X50550Y-45450D02*
X50550Y-45600D01*
X49700Y-45450D02*
X50550Y-45450D01*
X49700Y-45650D02*
X49700Y-45450D01*
G54D13*
X50869Y-45293D02*
X50907Y-45312D01*
X50983Y-45312D01*
X51022Y-45293D01*
X51041Y-45255D01*
X51041Y-45236D01*
X51022Y-45198D01*
X50983Y-45179D01*
X50926Y-45179D01*
X50888Y-45160D01*
X50869Y-45121D01*
X50869Y-45102D01*
X50888Y-45064D01*
X50926Y-45045D01*
X50983Y-45045D01*
X51022Y-45064D01*
X51269Y-45312D02*
X51231Y-45293D01*
X51212Y-45255D01*
X51212Y-44912D01*
X51479Y-45312D02*
X51441Y-45293D01*
X51422Y-45274D01*
X51403Y-45236D01*
X51403Y-45121D01*
X51422Y-45083D01*
X51441Y-45064D01*
X51479Y-45045D01*
X51537Y-45045D01*
X51575Y-45064D01*
X51594Y-45083D01*
X51613Y-45121D01*
X51613Y-45236D01*
X51594Y-45274D01*
X51575Y-45293D01*
X51537Y-45312D01*
X51479Y-45312D01*
X51746Y-45045D02*
X51822Y-45312D01*
X51899Y-45121D01*
X51975Y-45312D01*
X52051Y-45045D01*
X49193Y-45045D02*
X49193Y-45312D01*
X49193Y-45083D02*
X49212Y-45064D01*
X49250Y-45045D01*
X49308Y-45045D01*
X49346Y-45064D01*
X49365Y-45102D01*
X49365Y-45312D01*
X49612Y-45312D02*
X49574Y-45293D01*
X49555Y-45274D01*
X49536Y-45236D01*
X49536Y-45121D01*
X49555Y-45083D01*
X49574Y-45064D01*
X49612Y-45045D01*
X49670Y-45045D01*
X49708Y-45064D01*
X49727Y-45083D01*
X49746Y-45121D01*
X49746Y-45236D01*
X49727Y-45274D01*
X49708Y-45293D01*
X49670Y-45312D01*
X49612Y-45312D01*
X49917Y-45312D02*
X49917Y-45045D01*
X49917Y-45121D02*
X49936Y-45083D01*
X49955Y-45064D01*
X49993Y-45045D01*
X50032Y-45045D01*
X50165Y-45312D02*
X50165Y-45045D01*
X50165Y-45083D02*
X50184Y-45064D01*
X50222Y-45045D01*
X50280Y-45045D01*
X50318Y-45064D01*
X50337Y-45102D01*
X50337Y-45312D01*
X50337Y-45102D02*
X50356Y-45064D01*
X50394Y-45045D01*
X50451Y-45045D01*
X50489Y-45064D01*
X50508Y-45102D01*
X50508Y-45312D01*
X49352Y-44812D02*
X49314Y-44793D01*
X49295Y-44774D01*
X49276Y-44736D01*
X49276Y-44621D01*
X49295Y-44583D01*
X49314Y-44564D01*
X49352Y-44545D01*
X49410Y-44545D01*
X49448Y-44564D01*
X49467Y-44583D01*
X49486Y-44621D01*
X49486Y-44736D01*
X49467Y-44774D01*
X49448Y-44793D01*
X49410Y-44812D01*
X49352Y-44812D01*
X49829Y-44545D02*
X49829Y-44812D01*
X49657Y-44545D02*
X49657Y-44755D01*
X49676Y-44793D01*
X49714Y-44812D01*
X49772Y-44812D01*
X49810Y-44793D01*
X49829Y-44774D01*
X49962Y-44545D02*
X50114Y-44545D01*
X50019Y-44412D02*
X50019Y-44755D01*
X50038Y-44793D01*
X50076Y-44812D01*
X50114Y-44812D01*
X50248Y-44545D02*
X50248Y-44945D01*
X50248Y-44564D02*
X50286Y-44545D01*
X50363Y-44545D01*
X50401Y-44564D01*
X50420Y-44583D01*
X50439Y-44621D01*
X50439Y-44736D01*
X50420Y-44774D01*
X50401Y-44793D01*
X50363Y-44812D01*
X50286Y-44812D01*
X50248Y-44793D01*
X50782Y-44545D02*
X50782Y-44812D01*
X50610Y-44545D02*
X50610Y-44755D01*
X50629Y-44793D01*
X50667Y-44812D01*
X50725Y-44812D01*
X50763Y-44793D01*
X50782Y-44774D01*
X50915Y-44545D02*
X51067Y-44545D01*
X50972Y-44412D02*
X50972Y-44755D01*
X50991Y-44793D01*
X51029Y-44812D01*
X51067Y-44812D01*
X51506Y-44812D02*
X51506Y-44412D01*
X51659Y-44412D01*
X51697Y-44431D01*
X51716Y-44450D01*
X51735Y-44488D01*
X51735Y-44545D01*
X51716Y-44583D01*
X51697Y-44602D01*
X51659Y-44621D01*
X51506Y-44621D01*
X51868Y-44412D02*
X51963Y-44812D01*
X52040Y-44526D01*
X52116Y-44812D01*
X52211Y-44412D01*
G54D14*
X52700Y-37050D02*
X52600Y-37150D01*
X53000Y-37050D02*
X52700Y-37050D01*
X53100Y-36950D02*
X53000Y-37050D01*
X53200Y-37050D02*
X53100Y-36950D01*
X53500Y-37050D02*
X53200Y-37050D01*
X53600Y-37150D02*
X53500Y-37050D01*
G54D11*
X53612Y-38206D02*
X53212Y-38206D01*
X53593Y-38206D02*
X53612Y-38235D01*
X53612Y-38292D01*
X53593Y-38320D01*
X53574Y-38335D01*
X53536Y-38349D01*
X53421Y-38349D01*
X53383Y-38335D01*
X53364Y-38320D01*
X53345Y-38292D01*
X53345Y-38235D01*
X53364Y-38206D01*
X53612Y-38064D02*
X53345Y-38064D01*
X53212Y-38064D02*
X53231Y-38078D01*
X53250Y-38064D01*
X53231Y-38049D01*
X53212Y-38064D01*
X53250Y-38064D01*
X53612Y-37878D02*
X53593Y-37906D01*
X53574Y-37921D01*
X53536Y-37935D01*
X53421Y-37935D01*
X53383Y-37921D01*
X53364Y-37906D01*
X53345Y-37878D01*
X53345Y-37835D01*
X53364Y-37806D01*
X53383Y-37792D01*
X53421Y-37778D01*
X53536Y-37778D01*
X53574Y-37792D01*
X53593Y-37806D01*
X53612Y-37835D01*
X53612Y-37878D01*
X53612Y-37521D02*
X53212Y-37521D01*
X53593Y-37521D02*
X53612Y-37550D01*
X53612Y-37607D01*
X53593Y-37635D01*
X53574Y-37650D01*
X53536Y-37664D01*
X53421Y-37664D01*
X53383Y-37650D01*
X53364Y-37635D01*
X53345Y-37607D01*
X53345Y-37550D01*
X53364Y-37521D01*
X53593Y-37264D02*
X53612Y-37293D01*
X53612Y-37350D01*
X53593Y-37379D01*
X53555Y-37393D01*
X53402Y-37393D01*
X53364Y-37379D01*
X53345Y-37350D01*
X53345Y-37293D01*
X53364Y-37264D01*
X53402Y-37250D01*
X53440Y-37250D01*
X53479Y-37393D01*
X52993Y-38099D02*
X53012Y-38128D01*
X53012Y-38185D01*
X52993Y-38213D01*
X52974Y-38228D01*
X52936Y-38242D01*
X52821Y-38242D01*
X52783Y-38228D01*
X52764Y-38213D01*
X52745Y-38185D01*
X52745Y-38128D01*
X52764Y-38099D01*
X53012Y-37842D02*
X52802Y-37842D01*
X52764Y-37856D01*
X52745Y-37885D01*
X52745Y-37942D01*
X52764Y-37971D01*
X52993Y-37842D02*
X53012Y-37871D01*
X53012Y-37942D01*
X52993Y-37971D01*
X52955Y-37985D01*
X52917Y-37985D01*
X52879Y-37971D01*
X52860Y-37942D01*
X52860Y-37871D01*
X52840Y-37842D01*
X52745Y-37700D02*
X53145Y-37700D01*
X52764Y-37700D02*
X52745Y-37671D01*
X52745Y-37614D01*
X52764Y-37585D01*
X52783Y-37571D01*
X52821Y-37557D01*
X52936Y-37557D01*
X52974Y-37571D01*
X52993Y-37585D01*
X53012Y-37614D01*
X53012Y-37671D01*
X52993Y-37700D01*
G54D15*
X53871Y-35612D02*
X53871Y-35212D01*
X53871Y-35364D02*
X53900Y-35345D01*
X53957Y-35345D01*
X53986Y-35364D01*
X54000Y-35383D01*
X54014Y-35421D01*
X54014Y-35536D01*
X54000Y-35574D01*
X53986Y-35593D01*
X53957Y-35612D01*
X53900Y-35612D01*
X53871Y-35593D01*
X54114Y-35345D02*
X54185Y-35612D01*
X54257Y-35345D02*
X54185Y-35612D01*
X54157Y-35707D01*
X54142Y-35726D01*
X54114Y-35745D01*
X54371Y-35345D02*
X54371Y-35745D01*
X54371Y-35364D02*
X54400Y-35345D01*
X54457Y-35345D01*
X54486Y-35364D01*
X54500Y-35383D01*
X54514Y-35421D01*
X54514Y-35536D01*
X54500Y-35574D01*
X54486Y-35593D01*
X54457Y-35612D01*
X54400Y-35612D01*
X54371Y-35593D01*
X54771Y-35612D02*
X54771Y-35402D01*
X54757Y-35364D01*
X54728Y-35345D01*
X54671Y-35345D01*
X54642Y-35364D01*
X54771Y-35593D02*
X54742Y-35612D01*
X54671Y-35612D01*
X54642Y-35593D01*
X54628Y-35555D01*
X54628Y-35517D01*
X54642Y-35479D01*
X54671Y-35460D01*
X54742Y-35460D01*
X54771Y-35440D01*
X54899Y-35593D02*
X54928Y-35612D01*
X54985Y-35612D01*
X55013Y-35593D01*
X55028Y-35555D01*
X55028Y-35536D01*
X55013Y-35498D01*
X54985Y-35479D01*
X54942Y-35479D01*
X54913Y-35460D01*
X54899Y-35421D01*
X54899Y-35402D01*
X54913Y-35364D01*
X54942Y-35345D01*
X54985Y-35345D01*
X55013Y-35364D01*
X55142Y-35593D02*
X55171Y-35612D01*
X55228Y-35612D01*
X55256Y-35593D01*
X55271Y-35555D01*
X55271Y-35536D01*
X55256Y-35498D01*
X55228Y-35479D01*
X55185Y-35479D01*
X55156Y-35460D01*
X55142Y-35421D01*
X55142Y-35402D01*
X55156Y-35364D01*
X55185Y-35345D01*
X55228Y-35345D01*
X55256Y-35364D01*
X54000Y-36242D02*
X54000Y-35842D01*
X54000Y-36223D02*
X53971Y-36242D01*
X53914Y-36242D01*
X53886Y-36223D01*
X53871Y-36204D01*
X53857Y-36166D01*
X53857Y-36051D01*
X53871Y-36013D01*
X53886Y-35994D01*
X53914Y-35975D01*
X53971Y-35975D01*
X54000Y-35994D01*
X54142Y-36242D02*
X54142Y-35975D01*
X54142Y-35842D02*
X54128Y-35861D01*
X54142Y-35880D01*
X54157Y-35861D01*
X54142Y-35842D01*
X54142Y-35880D01*
X54328Y-36242D02*
X54300Y-36223D01*
X54285Y-36204D01*
X54271Y-36166D01*
X54271Y-36051D01*
X54285Y-36013D01*
X54300Y-35994D01*
X54328Y-35975D01*
X54371Y-35975D01*
X54400Y-35994D01*
X54414Y-36013D01*
X54428Y-36051D01*
X54428Y-36166D01*
X54414Y-36204D01*
X54400Y-36223D01*
X54371Y-36242D01*
X54328Y-36242D01*
X54685Y-36242D02*
X54685Y-35842D01*
X54685Y-36223D02*
X54656Y-36242D01*
X54599Y-36242D01*
X54571Y-36223D01*
X54556Y-36204D01*
X54542Y-36166D01*
X54542Y-36051D01*
X54556Y-36013D01*
X54571Y-35994D01*
X54599Y-35975D01*
X54656Y-35975D01*
X54685Y-35994D01*
X54942Y-36223D02*
X54913Y-36242D01*
X54856Y-36242D01*
X54827Y-36223D01*
X54813Y-36185D01*
X54813Y-36032D01*
X54827Y-35994D01*
X54856Y-35975D01*
X54913Y-35975D01*
X54942Y-35994D01*
X54956Y-36032D01*
X54956Y-36070D01*
X54813Y-36109D01*
X55070Y-36223D02*
X55099Y-36242D01*
X55156Y-36242D01*
X55184Y-36223D01*
X55199Y-36185D01*
X55199Y-36166D01*
X55184Y-36128D01*
X55156Y-36109D01*
X55113Y-36109D01*
X55084Y-36090D01*
X55070Y-36051D01*
X55070Y-36032D01*
X55084Y-35994D01*
X55113Y-35975D01*
X55156Y-35975D01*
X55184Y-35994D01*
G54D13*
X49545Y-32212D02*
X49545Y-31945D01*
X49545Y-32021D02*
X49564Y-31983D01*
X49583Y-31964D01*
X49621Y-31945D01*
X49660Y-31945D01*
X49946Y-32193D02*
X49908Y-32212D01*
X49831Y-32212D01*
X49793Y-32193D01*
X49774Y-32155D01*
X49774Y-32002D01*
X49793Y-31964D01*
X49831Y-31945D01*
X49908Y-31945D01*
X49946Y-31964D01*
X49965Y-32002D01*
X49965Y-32040D01*
X49774Y-32079D01*
X50079Y-31945D02*
X50231Y-31945D01*
X50136Y-32212D02*
X50136Y-31869D01*
X50155Y-31831D01*
X50193Y-31812D01*
X50231Y-31812D01*
X50365Y-32212D02*
X50365Y-31945D01*
X50365Y-32021D02*
X50384Y-31983D01*
X50403Y-31964D01*
X50441Y-31945D01*
X50480Y-31945D01*
X50785Y-32212D02*
X50785Y-32002D01*
X50766Y-31964D01*
X50728Y-31945D01*
X50651Y-31945D01*
X50613Y-31964D01*
X50785Y-32193D02*
X50747Y-32212D01*
X50651Y-32212D01*
X50613Y-32193D01*
X50594Y-32155D01*
X50594Y-32117D01*
X50613Y-32079D01*
X50651Y-32060D01*
X50747Y-32060D01*
X50785Y-32040D01*
X51147Y-32193D02*
X51109Y-32212D01*
X51032Y-32212D01*
X50994Y-32193D01*
X50975Y-32174D01*
X50956Y-32136D01*
X50956Y-32021D01*
X50975Y-31983D01*
X50994Y-31964D01*
X51032Y-31945D01*
X51109Y-31945D01*
X51147Y-31964D01*
X51261Y-31945D02*
X51413Y-31945D01*
X51318Y-31812D02*
X51318Y-32155D01*
X51337Y-32193D01*
X51375Y-32212D01*
X51413Y-32212D01*
X51604Y-32212D02*
X51566Y-32193D01*
X51547Y-32174D01*
X51528Y-32136D01*
X51528Y-32021D01*
X51547Y-31983D01*
X51566Y-31964D01*
X51604Y-31945D01*
X51662Y-31945D01*
X51700Y-31964D01*
X51719Y-31983D01*
X51738Y-32021D01*
X51738Y-32136D01*
X51719Y-32174D01*
X51700Y-32193D01*
X51662Y-32212D01*
X51604Y-32212D01*
X51909Y-32212D02*
X51909Y-31945D01*
X51909Y-32021D02*
X51928Y-31983D01*
X51947Y-31964D01*
X51985Y-31945D01*
X52024Y-31945D01*
X52119Y-31945D02*
X52214Y-32212D01*
X52310Y-31945D02*
X52214Y-32212D01*
X52176Y-32307D01*
X52157Y-32326D01*
X52119Y-32345D01*
X52843Y-33966D02*
X52862Y-34004D01*
X52862Y-34081D01*
X52843Y-34119D01*
X52824Y-34138D01*
X52786Y-34157D01*
X52671Y-34157D01*
X52633Y-34138D01*
X52614Y-34119D01*
X52595Y-34081D01*
X52595Y-34004D01*
X52614Y-33966D01*
X52862Y-33623D02*
X52652Y-33623D01*
X52614Y-33642D01*
X52595Y-33680D01*
X52595Y-33757D01*
X52614Y-33795D01*
X52843Y-33623D02*
X52862Y-33661D01*
X52862Y-33757D01*
X52843Y-33795D01*
X52805Y-33814D01*
X52767Y-33814D01*
X52729Y-33795D01*
X52710Y-33757D01*
X52710Y-33661D01*
X52690Y-33623D01*
X52595Y-33433D02*
X52995Y-33433D01*
X52614Y-33433D02*
X52595Y-33395D01*
X52595Y-33318D01*
X52614Y-33280D01*
X52633Y-33261D01*
X52671Y-33242D01*
X52786Y-33242D01*
X52824Y-33261D01*
X52843Y-33280D01*
X52862Y-33318D01*
X52862Y-33395D01*
X52843Y-33433D01*
X52905Y-34852D02*
X52738Y-34614D01*
X52619Y-34852D02*
X52619Y-34352D01*
X52810Y-34352D01*
X52857Y-34376D01*
X52881Y-34400D01*
X52905Y-34448D01*
X52905Y-34519D01*
X52881Y-34567D01*
X52857Y-34590D01*
X52810Y-34614D01*
X52619Y-34614D01*
X49443Y-32445D02*
X49443Y-32712D01*
X49443Y-32483D02*
X49462Y-32464D01*
X49500Y-32445D01*
X49558Y-32445D01*
X49596Y-32464D01*
X49615Y-32502D01*
X49615Y-32712D01*
X49862Y-32712D02*
X49824Y-32693D01*
X49805Y-32674D01*
X49786Y-32636D01*
X49786Y-32521D01*
X49805Y-32483D01*
X49824Y-32464D01*
X49862Y-32445D01*
X49920Y-32445D01*
X49958Y-32464D01*
X49977Y-32483D01*
X49996Y-32521D01*
X49996Y-32636D01*
X49977Y-32674D01*
X49958Y-32693D01*
X49920Y-32712D01*
X49862Y-32712D01*
X50167Y-32712D02*
X50167Y-32445D01*
X50167Y-32521D02*
X50186Y-32483D01*
X50205Y-32464D01*
X50243Y-32445D01*
X50282Y-32445D01*
X50415Y-32712D02*
X50415Y-32445D01*
X50415Y-32483D02*
X50434Y-32464D01*
X50472Y-32445D01*
X50530Y-32445D01*
X50568Y-32464D01*
X50587Y-32502D01*
X50587Y-32712D01*
X50587Y-32502D02*
X50606Y-32464D01*
X50644Y-32445D01*
X50701Y-32445D01*
X50739Y-32464D01*
X50758Y-32502D01*
X50758Y-32712D01*
X51119Y-32693D02*
X51157Y-32712D01*
X51233Y-32712D01*
X51272Y-32693D01*
X51291Y-32655D01*
X51291Y-32636D01*
X51272Y-32598D01*
X51233Y-32579D01*
X51176Y-32579D01*
X51138Y-32560D01*
X51119Y-32521D01*
X51119Y-32502D01*
X51138Y-32464D01*
X51176Y-32445D01*
X51233Y-32445D01*
X51272Y-32464D01*
X51519Y-32712D02*
X51481Y-32693D01*
X51462Y-32655D01*
X51462Y-32312D01*
X51729Y-32712D02*
X51691Y-32693D01*
X51672Y-32674D01*
X51653Y-32636D01*
X51653Y-32521D01*
X51672Y-32483D01*
X51691Y-32464D01*
X51729Y-32445D01*
X51787Y-32445D01*
X51825Y-32464D01*
X51844Y-32483D01*
X51863Y-32521D01*
X51863Y-32636D01*
X51844Y-32674D01*
X51825Y-32693D01*
X51787Y-32712D01*
X51729Y-32712D01*
X51996Y-32445D02*
X52072Y-32712D01*
X52149Y-32521D01*
X52225Y-32712D01*
X52301Y-32445D01*
G54D14*
X49950Y-33050D02*
X49950Y-32850D01*
X49950Y-32850D02*
X50800Y-32850D01*
X50800Y-32850D02*
X50800Y-33000D01*
X51100Y-33050D02*
X51100Y-32850D01*
X51100Y-32850D02*
X51950Y-32850D01*
X51950Y-32850D02*
X51950Y-33050D01*
X44750Y-34800D02*
X44750Y-35000D01*
X43900Y-34800D02*
X44750Y-34800D01*
X43900Y-35000D02*
X43900Y-34800D01*
X43600Y-34800D02*
X43600Y-34950D01*
X42750Y-34800D02*
X43600Y-34800D01*
X42750Y-35000D02*
X42750Y-34800D01*
G54D13*
X40681Y-35643D02*
X40643Y-35662D01*
X40566Y-35662D01*
X40528Y-35643D01*
X40509Y-35624D01*
X40490Y-35586D01*
X40490Y-35471D01*
X40509Y-35433D01*
X40528Y-35414D01*
X40566Y-35395D01*
X40643Y-35395D01*
X40681Y-35414D01*
X40852Y-35662D02*
X40852Y-35262D01*
X41024Y-35662D02*
X41024Y-35452D01*
X41005Y-35414D01*
X40967Y-35395D01*
X40909Y-35395D01*
X40871Y-35414D01*
X40852Y-35433D01*
X41386Y-35395D02*
X41386Y-35719D01*
X41367Y-35757D01*
X41348Y-35776D01*
X41309Y-35795D01*
X41252Y-35795D01*
X41214Y-35776D01*
X41386Y-35643D02*
X41348Y-35662D01*
X41271Y-35662D01*
X41233Y-35643D01*
X41214Y-35624D01*
X41195Y-35586D01*
X41195Y-35471D01*
X41214Y-35433D01*
X41233Y-35414D01*
X41271Y-35395D01*
X41348Y-35395D01*
X41386Y-35414D01*
X42110Y-35624D02*
X42091Y-35643D01*
X42034Y-35662D01*
X41996Y-35662D01*
X41938Y-35643D01*
X41900Y-35605D01*
X41881Y-35567D01*
X41862Y-35490D01*
X41862Y-35433D01*
X41881Y-35357D01*
X41900Y-35319D01*
X41938Y-35281D01*
X41996Y-35262D01*
X42034Y-35262D01*
X42091Y-35281D01*
X42110Y-35300D01*
X40626Y-36662D02*
X40626Y-36262D01*
X40626Y-36414D02*
X40664Y-36395D01*
X40741Y-36395D01*
X40779Y-36414D01*
X40798Y-36433D01*
X40817Y-36471D01*
X40817Y-36586D01*
X40798Y-36624D01*
X40779Y-36643D01*
X40741Y-36662D01*
X40664Y-36662D01*
X40626Y-36643D01*
X41045Y-36662D02*
X41007Y-36643D01*
X40988Y-36605D01*
X40988Y-36262D01*
X41370Y-36662D02*
X41370Y-36262D01*
X41370Y-36643D02*
X41332Y-36662D01*
X41255Y-36662D01*
X41217Y-36643D01*
X41198Y-36624D01*
X41179Y-36586D01*
X41179Y-36471D01*
X41198Y-36433D01*
X41217Y-36414D01*
X41255Y-36395D01*
X41332Y-36395D01*
X41370Y-36414D01*
X42094Y-36662D02*
X41960Y-36471D01*
X41865Y-36662D02*
X41865Y-36262D01*
X42018Y-36262D01*
X42056Y-36281D01*
X42075Y-36300D01*
X42094Y-36338D01*
X42094Y-36395D01*
X42075Y-36433D01*
X42056Y-36452D01*
X42018Y-36471D01*
X41865Y-36471D01*
X43969Y-34593D02*
X44007Y-34612D01*
X44083Y-34612D01*
X44122Y-34593D01*
X44141Y-34555D01*
X44141Y-34536D01*
X44122Y-34498D01*
X44083Y-34479D01*
X44026Y-34479D01*
X43988Y-34460D01*
X43969Y-34421D01*
X43969Y-34402D01*
X43988Y-34364D01*
X44026Y-34345D01*
X44083Y-34345D01*
X44122Y-34364D01*
X44369Y-34612D02*
X44331Y-34593D01*
X44312Y-34555D01*
X44312Y-34212D01*
X44579Y-34612D02*
X44541Y-34593D01*
X44522Y-34574D01*
X44503Y-34536D01*
X44503Y-34421D01*
X44522Y-34383D01*
X44541Y-34364D01*
X44579Y-34345D01*
X44637Y-34345D01*
X44675Y-34364D01*
X44694Y-34383D01*
X44713Y-34421D01*
X44713Y-34536D01*
X44694Y-34574D01*
X44675Y-34593D01*
X44637Y-34612D01*
X44579Y-34612D01*
X44846Y-34345D02*
X44922Y-34612D01*
X44999Y-34421D01*
X45075Y-34612D01*
X45151Y-34345D01*
X42243Y-34345D02*
X42243Y-34612D01*
X42243Y-34383D02*
X42262Y-34364D01*
X42300Y-34345D01*
X42358Y-34345D01*
X42396Y-34364D01*
X42415Y-34402D01*
X42415Y-34612D01*
X42662Y-34612D02*
X42624Y-34593D01*
X42605Y-34574D01*
X42586Y-34536D01*
X42586Y-34421D01*
X42605Y-34383D01*
X42624Y-34364D01*
X42662Y-34345D01*
X42720Y-34345D01*
X42758Y-34364D01*
X42777Y-34383D01*
X42796Y-34421D01*
X42796Y-34536D01*
X42777Y-34574D01*
X42758Y-34593D01*
X42720Y-34612D01*
X42662Y-34612D01*
X42967Y-34612D02*
X42967Y-34345D01*
X42967Y-34421D02*
X42986Y-34383D01*
X43005Y-34364D01*
X43043Y-34345D01*
X43082Y-34345D01*
X43215Y-34612D02*
X43215Y-34345D01*
X43215Y-34383D02*
X43234Y-34364D01*
X43272Y-34345D01*
X43330Y-34345D01*
X43368Y-34364D01*
X43387Y-34402D01*
X43387Y-34612D01*
X43387Y-34402D02*
X43406Y-34364D01*
X43444Y-34345D01*
X43501Y-34345D01*
X43539Y-34364D01*
X43558Y-34402D01*
X43558Y-34612D01*
G54D14*
X45700Y-42850D02*
X45700Y-42650D01*
X45250Y-42850D02*
X45700Y-42850D01*
X43750Y-42850D02*
X43750Y-42700D01*
X43250Y-42850D02*
X43750Y-42850D01*
X41700Y-42850D02*
X41700Y-42700D01*
X41250Y-42850D02*
X41700Y-42850D01*
X44250Y-37000D02*
X45250Y-37000D01*
X42250Y-37000D02*
X43250Y-37000D01*
X40250Y-37000D02*
X41250Y-37000D01*
X44250Y-43000D02*
X45250Y-43000D01*
X42250Y-43000D02*
X43250Y-43000D01*
X40250Y-43000D02*
X41250Y-43000D01*
G54D13*
X41952Y-42347D02*
X41952Y-42538D01*
X41452Y-42538D01*
X41952Y-42157D02*
X41929Y-42195D01*
X41905Y-42214D01*
X41857Y-42233D01*
X41714Y-42233D01*
X41667Y-42214D01*
X41643Y-42195D01*
X41619Y-42157D01*
X41619Y-42099D01*
X41643Y-42061D01*
X41667Y-42042D01*
X41714Y-42023D01*
X41857Y-42023D01*
X41905Y-42042D01*
X41929Y-42061D01*
X41952Y-42099D01*
X41952Y-42157D01*
X41452Y-41890D02*
X41452Y-41623D01*
X41952Y-41890D01*
X41952Y-41623D01*
X43952Y-42576D02*
X43452Y-42576D01*
X43810Y-42442D01*
X43452Y-42309D01*
X43952Y-42309D01*
X43929Y-41966D02*
X43952Y-42004D01*
X43952Y-42081D01*
X43929Y-42119D01*
X43881Y-42138D01*
X43690Y-42138D01*
X43643Y-42119D01*
X43619Y-42081D01*
X43619Y-42004D01*
X43643Y-41966D01*
X43690Y-41947D01*
X43738Y-41947D01*
X43786Y-42138D01*
X43952Y-41604D02*
X43452Y-41604D01*
X43929Y-41604D02*
X43952Y-41642D01*
X43952Y-41719D01*
X43929Y-41757D01*
X43905Y-41776D01*
X43857Y-41795D01*
X43714Y-41795D01*
X43667Y-41776D01*
X43643Y-41757D01*
X43619Y-41719D01*
X43619Y-41642D01*
X43643Y-41604D01*
X43452Y-41452D02*
X43452Y-41185D01*
X43952Y-41452D01*
X43952Y-41185D01*
X45952Y-42500D02*
X45452Y-42500D01*
X45690Y-42500D02*
X45690Y-42271D01*
X45952Y-42271D02*
X45452Y-42271D01*
X45952Y-42081D02*
X45619Y-42081D01*
X45452Y-42081D02*
X45476Y-42100D01*
X45500Y-42081D01*
X45476Y-42062D01*
X45452Y-42081D01*
X45500Y-42081D01*
X45452Y-41929D02*
X45452Y-41662D01*
X45952Y-41929D01*
X45952Y-41662D01*
G54D16*
X42977Y-46341D02*
X43330Y-46695D01*
X43403Y-46518D02*
X43398Y-46566D01*
X43384Y-46612D01*
X43361Y-46655D01*
X43330Y-46693D01*
X43293Y-46724D01*
X43250Y-46747D01*
X43204Y-46761D01*
X43155Y-46766D01*
X43108Y-46762D01*
X43061Y-46748D01*
X43018Y-46726D01*
X42980Y-46695D01*
X42949Y-46658D01*
X42926Y-46616D01*
X42911Y-46569D01*
X42906Y-46521D01*
X42910Y-46474D01*
X42923Y-46427D01*
X42945Y-46384D01*
X42975Y-46346D01*
X43012Y-46314D01*
X43055Y-46290D01*
X43101Y-46275D01*
X43149Y-46270D01*
X43197Y-46273D01*
X43244Y-46286D01*
X43287Y-46308D01*
X43325Y-46338D01*
X43357Y-46375D01*
X43381Y-46417D01*
X43396Y-46463D01*
X43402Y-46512D01*
X43403Y-46518D01*
X44568Y-45811D02*
X41739Y-42982D01*
X41739Y-42982D02*
X40325Y-44396D01*
X40325Y-44396D02*
X43154Y-47225D01*
X43154Y-47225D02*
X44568Y-45811D01*
G54D17*
X53750Y-38000D02*
X53750Y-37000D01*
X53750Y-37000D02*
X55750Y-37000D01*
X55750Y-37000D02*
X55750Y-38000D01*
X55750Y-38000D02*
X53750Y-38000D01*
X53750Y-42000D02*
X53750Y-41000D01*
X53750Y-41000D02*
X55750Y-41000D01*
X55750Y-41000D02*
X55750Y-42000D01*
X55750Y-42000D02*
X53750Y-42000D01*
X47000Y-36750D02*
X48000Y-36750D01*
X48000Y-36750D02*
X48000Y-38750D01*
X48000Y-38750D02*
X47000Y-38750D01*
X47000Y-38750D02*
X47000Y-36750D01*
G54D14*
X49120Y-34550D02*
X49120Y-33550D01*
G54D10*
X48040Y-33666D02*
X48008Y-33708D01*
X47980Y-33752D01*
X47956Y-33799D01*
X47936Y-33847D01*
X47920Y-33897D01*
X47909Y-33948D01*
X47903Y-34000D01*
X47900Y-34050D01*
X47901Y-34050D02*
X47904Y-34102D01*
X47911Y-34154D01*
X47922Y-34205D01*
X47938Y-34254D01*
X47958Y-34303D01*
X47982Y-34349D01*
X48010Y-34393D01*
X48042Y-34435D01*
X48053Y-34447D01*
X49099Y-34050D02*
X49096Y-33998D01*
X49089Y-33946D01*
X49078Y-33895D01*
X49062Y-33846D01*
X49042Y-33797D01*
X49018Y-33751D01*
X48990Y-33707D01*
X48958Y-33665D01*
X48954Y-33661D01*
X48960Y-34434D02*
X48992Y-34392D01*
X49020Y-34348D01*
X49044Y-34301D01*
X49064Y-34253D01*
X49080Y-34203D01*
X49091Y-34152D01*
X49097Y-34100D01*
X49100Y-34050D01*
X48987Y-33701D02*
X48955Y-33660D01*
X48919Y-33622D01*
X48880Y-33587D01*
X48838Y-33555D01*
X48794Y-33528D01*
X48747Y-33504D01*
X48699Y-33485D01*
X48649Y-33469D01*
X48597Y-33459D01*
X48546Y-33452D01*
X48500Y-33450D01*
X48500Y-33450D02*
X48448Y-33453D01*
X48396Y-33460D01*
X48345Y-33471D01*
X48295Y-33487D01*
X48247Y-33507D01*
X48201Y-33531D01*
X48156Y-33559D01*
X48115Y-33591D01*
X48076Y-33626D01*
X48041Y-33665D01*
X48021Y-33690D01*
X48500Y-34649D02*
X48552Y-34646D01*
X48604Y-34639D01*
X48655Y-34628D01*
X48704Y-34612D01*
X48753Y-34592D01*
X48799Y-34568D01*
X48843Y-34540D01*
X48885Y-34508D01*
X48923Y-34473D01*
X48958Y-34435D01*
X48972Y-34417D01*
X48027Y-34418D02*
X48061Y-34458D01*
X48098Y-34495D01*
X48139Y-34528D01*
X48182Y-34558D01*
X48227Y-34584D01*
X48275Y-34605D01*
X48324Y-34623D01*
X48375Y-34636D01*
X48426Y-34645D01*
X48479Y-34649D01*
X48500Y-34650D01*
X48500Y-33800D02*
X48479Y-33801D01*
X48457Y-33804D01*
X48436Y-33809D01*
X48415Y-33816D01*
X48395Y-33824D01*
X48376Y-33834D01*
X48357Y-33846D01*
X48340Y-33859D01*
X48324Y-33874D01*
X48309Y-33890D01*
X48296Y-33907D01*
X48284Y-33926D01*
X48274Y-33945D01*
X48266Y-33965D01*
X48259Y-33986D01*
X48254Y-34007D01*
X48251Y-34029D01*
X48250Y-34050D01*
X48500Y-33650D02*
X48466Y-33652D01*
X48431Y-33657D01*
X48397Y-33664D01*
X48364Y-33675D01*
X48331Y-33688D01*
X48301Y-33704D01*
X48271Y-33723D01*
X48243Y-33744D01*
X48218Y-33768D01*
X48194Y-33793D01*
X48173Y-33821D01*
X48154Y-33851D01*
X48138Y-33881D01*
X48125Y-33914D01*
X48114Y-33947D01*
X48107Y-33981D01*
X48102Y-34016D01*
X48100Y-34050D01*
X48500Y-34300D02*
X48521Y-34299D01*
X48543Y-34296D01*
X48564Y-34291D01*
X48585Y-34284D01*
X48605Y-34276D01*
X48625Y-34266D01*
X48643Y-34254D01*
X48660Y-34241D01*
X48676Y-34226D01*
X48691Y-34210D01*
X48704Y-34193D01*
X48716Y-34174D01*
X48726Y-34155D01*
X48734Y-34135D01*
X48741Y-34114D01*
X48746Y-34093D01*
X48749Y-34071D01*
X48750Y-34050D01*
X48500Y-34450D02*
X48534Y-34448D01*
X48569Y-34443D01*
X48603Y-34436D01*
X48636Y-34425D01*
X48669Y-34412D01*
X48700Y-34396D01*
X48729Y-34377D01*
X48757Y-34356D01*
X48782Y-34332D01*
X48806Y-34307D01*
X48827Y-34279D01*
X48846Y-34249D01*
X48862Y-34219D01*
X48875Y-34186D01*
X48886Y-34153D01*
X48893Y-34119D01*
X48898Y-34084D01*
X48900Y-34050D01*
G54D14*
X49113Y-33537D02*
X49066Y-33486D01*
X49015Y-33439D01*
X48960Y-33396D01*
X48901Y-33358D01*
X48839Y-33326D01*
X48774Y-33299D01*
X48708Y-33278D01*
X48640Y-33263D01*
X48571Y-33254D01*
X48501Y-33251D01*
X48500Y-33250D01*
X48500Y-33251D02*
X48431Y-33255D01*
X48362Y-33264D01*
X48294Y-33279D01*
X48227Y-33300D01*
X48163Y-33326D01*
X48101Y-33359D01*
X48042Y-33396D01*
X47987Y-33438D01*
X47936Y-33486D01*
X47888Y-33537D01*
X47846Y-33592D01*
X47809Y-33651D01*
X47796Y-33674D01*
X48501Y-34847D02*
X48570Y-34844D01*
X48639Y-34835D01*
X48707Y-34820D01*
X48774Y-34799D01*
X48838Y-34772D01*
X48900Y-34740D01*
X48958Y-34702D01*
X49014Y-34660D01*
X49065Y-34613D01*
X49109Y-34565D01*
X47806Y-34447D02*
X47844Y-34506D01*
X47886Y-34562D01*
X47933Y-34613D01*
X47984Y-34661D01*
X48039Y-34703D01*
X48098Y-34741D01*
X48160Y-34773D01*
X48224Y-34800D01*
X48291Y-34822D01*
X48359Y-34837D01*
X48428Y-34846D01*
X48498Y-34849D01*
X48500Y-34850D01*
X47796Y-33671D02*
X47766Y-33734D01*
X47741Y-33799D01*
X47722Y-33866D01*
X47709Y-33935D01*
X47702Y-34004D01*
X47700Y-34050D01*
X47701Y-34050D02*
X47705Y-34119D01*
X47714Y-34188D01*
X47729Y-34256D01*
X47750Y-34323D01*
X47776Y-34387D01*
X47809Y-34449D01*
X47820Y-34468D01*
X47300Y-44900D02*
X47300Y-45400D01*
X47300Y-45400D02*
X46300Y-45400D01*
X46300Y-45400D02*
X46300Y-44900D01*
X47800Y-44900D02*
X47800Y-48900D01*
X47800Y-48900D02*
X45800Y-48900D01*
X45800Y-48900D02*
X45800Y-44900D01*
X45800Y-44900D02*
X47800Y-44900D01*
G54D16*
X51600Y-36250D02*
X51600Y-44250D01*
X49600Y-44250D02*
X49600Y-36250D01*
X49600Y-36250D02*
X51600Y-36250D01*
X51100Y-36250D02*
X51100Y-36750D01*
X51100Y-36750D02*
X50100Y-36750D01*
X50100Y-36750D02*
X50100Y-36250D01*
X51600Y-44250D02*
X49600Y-44250D01*
G54D17*
X50250Y-47820D02*
X50250Y-49800D01*
X50250Y-49800D02*
X49250Y-49800D01*
X49250Y-49800D02*
X49250Y-47800D01*
X49250Y-47800D02*
X50250Y-47800D01*
X50000Y-47800D02*
X50250Y-48050D01*
X47300Y-46070D02*
X47300Y-48050D01*
X47300Y-48050D02*
X46300Y-48050D01*
X46300Y-48050D02*
X46300Y-46050D01*
X46300Y-46050D02*
X47300Y-46050D01*
X47050Y-46050D02*
X47300Y-46300D01*
X51100Y-36270D02*
X51100Y-38250D01*
X51100Y-38250D02*
X50100Y-38250D01*
X50100Y-38250D02*
X50100Y-36250D01*
X50100Y-36250D02*
X51100Y-36250D01*
X50850Y-36250D02*
X51100Y-36500D01*
X50100Y-42230D02*
X50100Y-40250D01*
X50100Y-40250D02*
X51100Y-40250D01*
X51100Y-40250D02*
X51100Y-42250D01*
X51100Y-42250D02*
X50100Y-42250D01*
X50350Y-42250D02*
X50100Y-42000D01*
X51100Y-42270D02*
X51100Y-44250D01*
X51100Y-44250D02*
X50100Y-44250D01*
X50100Y-44250D02*
X50100Y-42250D01*
X50100Y-42250D02*
X51100Y-42250D01*
X50850Y-42250D02*
X51100Y-42500D01*
X50100Y-40230D02*
X50100Y-38250D01*
X50100Y-38250D02*
X51100Y-38250D01*
X51100Y-38250D02*
X51100Y-40250D01*
X51100Y-40250D02*
X50100Y-40250D01*
X50350Y-40250D02*
X50100Y-40000D01*
G54D16*
X49000Y-35650D02*
X50000Y-35650D01*
X49559Y-35650D02*
X49548Y-35758D01*
X49516Y-35863D01*
X49465Y-35959D01*
X49396Y-36043D01*
X49312Y-36113D01*
X49216Y-36165D01*
X49112Y-36197D01*
X49003Y-36208D01*
X48896Y-36199D01*
X48791Y-36168D01*
X48694Y-36117D01*
X48609Y-36049D01*
X48539Y-35965D01*
X48487Y-35870D01*
X48454Y-35766D01*
X48442Y-35657D01*
X48451Y-35550D01*
X48481Y-35445D01*
X48531Y-35348D01*
X48598Y-35262D01*
X48681Y-35191D01*
X48777Y-35138D01*
X48880Y-35105D01*
X48989Y-35092D01*
X49097Y-35100D01*
X49202Y-35129D01*
X49299Y-35179D01*
X49385Y-35246D01*
X49456Y-35328D01*
X49510Y-35423D01*
X49545Y-35527D01*
X49558Y-35635D01*
X49559Y-35650D01*
X52950Y-35700D02*
X51950Y-35700D01*
X53509Y-35700D02*
X53498Y-35808D01*
X53466Y-35913D01*
X53415Y-36009D01*
X53346Y-36093D01*
X53262Y-36163D01*
X53166Y-36215D01*
X53062Y-36247D01*
X52953Y-36258D01*
X52846Y-36249D01*
X52741Y-36218D01*
X52644Y-36167D01*
X52559Y-36099D01*
X52489Y-36015D01*
X52437Y-35920D01*
X52404Y-35816D01*
X52392Y-35707D01*
X52401Y-35600D01*
X52431Y-35495D01*
X52481Y-35398D01*
X52548Y-35312D01*
X52631Y-35241D01*
X52727Y-35188D01*
X52830Y-35155D01*
X52939Y-35142D01*
X53047Y-35150D01*
X53152Y-35179D01*
X53249Y-35229D01*
X53335Y-35296D01*
X53406Y-35378D01*
X53460Y-35473D01*
X53495Y-35577D01*
X53508Y-35685D01*
X53509Y-35700D01*
X52900Y-44600D02*
X52900Y-43600D01*
X53459Y-44600D02*
X53448Y-44708D01*
X53416Y-44813D01*
X53365Y-44909D01*
X53296Y-44993D01*
X53212Y-45063D01*
X53116Y-45115D01*
X53012Y-45147D01*
X52903Y-45158D01*
X52796Y-45149D01*
X52691Y-45118D01*
X52594Y-45067D01*
X52509Y-44999D01*
X52439Y-44915D01*
X52387Y-44820D01*
X52354Y-44716D01*
X52342Y-44607D01*
X52351Y-44500D01*
X52381Y-44395D01*
X52431Y-44298D01*
X52498Y-44212D01*
X52581Y-44141D01*
X52677Y-44088D01*
X52780Y-44055D01*
X52889Y-44042D01*
X52997Y-44050D01*
X53102Y-44079D01*
X53199Y-44129D01*
X53285Y-44196D01*
X53356Y-44278D01*
X53410Y-44373D01*
X53445Y-44477D01*
X53458Y-44585D01*
X53459Y-44600D01*
X54200Y-44500D02*
X54200Y-43500D01*
X54759Y-44500D02*
X54748Y-44608D01*
X54716Y-44713D01*
X54665Y-44809D01*
X54596Y-44893D01*
X54512Y-44963D01*
X54416Y-45015D01*
X54312Y-45047D01*
X54203Y-45058D01*
X54096Y-45049D01*
X53991Y-45018D01*
X53894Y-44967D01*
X53809Y-44899D01*
X53739Y-44815D01*
X53687Y-44720D01*
X53654Y-44616D01*
X53642Y-44507D01*
X53651Y-44400D01*
X53681Y-44295D01*
X53731Y-44198D01*
X53798Y-44112D01*
X53881Y-44041D01*
X53977Y-43988D01*
X54080Y-43955D01*
X54189Y-43942D01*
X54297Y-43950D01*
X54402Y-43979D01*
X54499Y-44029D01*
X54585Y-44096D01*
X54656Y-44178D01*
X54710Y-44273D01*
X54745Y-44377D01*
X54758Y-44485D01*
X54759Y-44500D01*
X39650Y-36250D02*
X38650Y-36250D01*
X40209Y-36250D02*
X40198Y-36358D01*
X40166Y-36463D01*
X40115Y-36559D01*
X40046Y-36643D01*
X39962Y-36713D01*
X39866Y-36765D01*
X39762Y-36797D01*
X39653Y-36808D01*
X39546Y-36799D01*
X39441Y-36768D01*
X39344Y-36717D01*
X39259Y-36649D01*
X39189Y-36565D01*
X39137Y-36470D01*
X39104Y-36366D01*
X39092Y-36257D01*
X39101Y-36150D01*
X39131Y-36045D01*
X39181Y-35948D01*
X39248Y-35862D01*
X39331Y-35791D01*
X39427Y-35738D01*
X39530Y-35705D01*
X39639Y-35692D01*
X39747Y-35700D01*
X39852Y-35729D01*
X39949Y-35779D01*
X40035Y-35846D01*
X40106Y-35928D01*
X40160Y-36023D01*
X40195Y-36127D01*
X40208Y-36235D01*
X40209Y-36250D01*
X45950Y-36200D02*
X45950Y-35200D01*
X46509Y-36200D02*
X46498Y-36308D01*
X46466Y-36413D01*
X46415Y-36509D01*
X46346Y-36593D01*
X46262Y-36663D01*
X46166Y-36715D01*
X46062Y-36747D01*
X45953Y-36758D01*
X45846Y-36749D01*
X45741Y-36718D01*
X45644Y-36667D01*
X45559Y-36599D01*
X45489Y-36515D01*
X45437Y-36420D01*
X45404Y-36316D01*
X45392Y-36207D01*
X45401Y-36100D01*
X45431Y-35995D01*
X45481Y-35898D01*
X45548Y-35812D01*
X45631Y-35741D01*
X45727Y-35688D01*
X45830Y-35655D01*
X45939Y-35642D01*
X46047Y-35650D01*
X46152Y-35679D01*
X46249Y-35729D01*
X46335Y-35796D01*
X46406Y-35878D01*
X46460Y-35973D01*
X46495Y-36077D01*
X46508Y-36185D01*
X46509Y-36200D01*
X47500Y-36000D02*
X47500Y-35000D01*
X48059Y-36000D02*
X48048Y-36108D01*
X48016Y-36213D01*
X47965Y-36309D01*
X47896Y-36393D01*
X47812Y-36463D01*
X47716Y-36515D01*
X47612Y-36547D01*
X47503Y-36558D01*
X47396Y-36549D01*
X47291Y-36518D01*
X47194Y-36467D01*
X47109Y-36399D01*
X47039Y-36315D01*
X46987Y-36220D01*
X46954Y-36116D01*
X46942Y-36007D01*
X46951Y-35900D01*
X46981Y-35795D01*
X47031Y-35698D01*
X47098Y-35612D01*
X47181Y-35541D01*
X47277Y-35488D01*
X47380Y-35455D01*
X47489Y-35442D01*
X47597Y-35450D01*
X47702Y-35479D01*
X47799Y-35529D01*
X47885Y-35596D01*
X47956Y-35678D01*
X48010Y-35773D01*
X48045Y-35877D01*
X48058Y-35985D01*
X48059Y-36000D01*
X57850Y-43900D02*
X57826Y-44142D01*
X57755Y-44376D01*
X57641Y-44591D01*
X57486Y-44780D01*
X57298Y-44936D01*
X57084Y-45052D01*
X56851Y-45124D01*
X56608Y-45149D01*
X56366Y-45127D01*
X56132Y-45058D01*
X55916Y-44945D01*
X55726Y-44793D01*
X55569Y-44606D01*
X55452Y-44392D01*
X55378Y-44159D01*
X55351Y-43917D01*
X55371Y-43675D01*
X55438Y-43440D01*
X55550Y-43223D01*
X55701Y-43032D01*
X55887Y-42874D01*
X56100Y-42755D01*
X56332Y-42680D01*
X56574Y-42651D01*
X56817Y-42669D01*
X57052Y-42735D01*
X57269Y-42845D01*
X57462Y-42995D01*
X57621Y-43180D01*
X57741Y-43392D01*
X57818Y-43624D01*
X57849Y-43866D01*
X57850Y-43900D01*
G54D14*
X57150Y-44250D02*
X57150Y-44550D01*
X57000Y-44400D02*
X57325Y-44400D01*
G54D18*
X39200Y-43250D02*
X40200Y-43250D01*
X39200Y-44050D02*
X40200Y-44050D01*
X39200Y-43250D02*
X39166Y-43252D01*
X39131Y-43257D01*
X39097Y-43264D01*
X39064Y-43275D01*
X39031Y-43288D01*
X39001Y-43304D01*
X38971Y-43323D01*
X38943Y-43344D01*
X38918Y-43368D01*
X38894Y-43393D01*
X38873Y-43421D01*
X38854Y-43451D01*
X38838Y-43481D01*
X38825Y-43514D01*
X38814Y-43547D01*
X38807Y-43581D01*
X38802Y-43616D01*
X38800Y-43650D01*
X38800Y-43650D02*
X38802Y-43684D01*
X38807Y-43719D01*
X38814Y-43753D01*
X38825Y-43786D01*
X38838Y-43819D01*
X38854Y-43849D01*
X38873Y-43879D01*
X38894Y-43907D01*
X38918Y-43932D01*
X38943Y-43956D01*
X38971Y-43977D01*
X39001Y-43996D01*
X39031Y-44012D01*
X39064Y-44025D01*
X39097Y-44036D01*
X39131Y-44043D01*
X39166Y-44048D01*
X39200Y-44050D01*
X40600Y-43650D02*
X40598Y-43616D01*
X40593Y-43581D01*
X40586Y-43547D01*
X40575Y-43514D01*
X40562Y-43481D01*
X40546Y-43451D01*
X40527Y-43421D01*
X40506Y-43393D01*
X40482Y-43368D01*
X40457Y-43344D01*
X40429Y-43323D01*
X40400Y-43304D01*
X40369Y-43288D01*
X40336Y-43275D01*
X40303Y-43264D01*
X40269Y-43257D01*
X40234Y-43252D01*
X40200Y-43250D01*
X40200Y-44050D02*
X40234Y-44048D01*
X40269Y-44043D01*
X40303Y-44036D01*
X40336Y-44025D01*
X40369Y-44012D01*
X40400Y-43996D01*
X40429Y-43977D01*
X40457Y-43956D01*
X40482Y-43932D01*
X40506Y-43907D01*
X40527Y-43879D01*
X40546Y-43849D01*
X40562Y-43819D01*
X40575Y-43786D01*
X40586Y-43753D01*
X40593Y-43719D01*
X40598Y-43684D01*
X40600Y-43650D01*
G54D14*
X55650Y-42100D02*
X55650Y-42900D01*
X55650Y-42900D02*
X54250Y-42900D01*
X55650Y-42100D02*
X54250Y-42100D01*
X54653Y-42500D02*
X54645Y-42578D01*
X54622Y-42653D01*
X54585Y-42723D01*
X54535Y-42783D01*
X54475Y-42834D01*
X54406Y-42871D01*
X54331Y-42894D01*
X54252Y-42902D01*
X54175Y-42895D01*
X54100Y-42873D01*
X54030Y-42837D01*
X53969Y-42787D01*
X53918Y-42727D01*
X53880Y-42658D01*
X53856Y-42583D01*
X53848Y-42505D01*
X53854Y-42428D01*
X53876Y-42352D01*
X53912Y-42282D01*
X53961Y-42221D01*
X54021Y-42170D01*
X54089Y-42131D01*
X54164Y-42107D01*
X54242Y-42098D01*
X54319Y-42104D01*
X54395Y-42125D01*
X54465Y-42160D01*
X54527Y-42209D01*
X54579Y-42268D01*
X54618Y-42337D01*
X54642Y-42411D01*
X54652Y-42489D01*
X54653Y-42500D01*
X40100Y-42900D02*
X39300Y-42900D01*
X39300Y-42900D02*
X39300Y-41500D01*
X40100Y-42900D02*
X40100Y-41500D01*
X40103Y-41500D02*
X40095Y-41578D01*
X40072Y-41653D01*
X40035Y-41723D01*
X39985Y-41783D01*
X39925Y-41834D01*
X39856Y-41871D01*
X39781Y-41894D01*
X39702Y-41902D01*
X39625Y-41895D01*
X39550Y-41873D01*
X39480Y-41837D01*
X39419Y-41787D01*
X39368Y-41727D01*
X39330Y-41658D01*
X39306Y-41583D01*
X39298Y-41505D01*
X39304Y-41428D01*
X39326Y-41352D01*
X39362Y-41282D01*
X39411Y-41221D01*
X39471Y-41170D01*
X39539Y-41131D01*
X39614Y-41107D01*
X39692Y-41098D01*
X39769Y-41104D01*
X39845Y-41125D01*
X39915Y-41160D01*
X39977Y-41209D01*
X40029Y-41268D01*
X40068Y-41337D01*
X40092Y-41411D01*
X40102Y-41489D01*
X40103Y-41500D01*
X55750Y-40100D02*
X55750Y-40900D01*
X55750Y-40900D02*
X54350Y-40900D01*
X55750Y-40100D02*
X54350Y-40100D01*
X54753Y-40500D02*
X54745Y-40578D01*
X54722Y-40653D01*
X54685Y-40723D01*
X54635Y-40783D01*
X54575Y-40834D01*
X54506Y-40871D01*
X54431Y-40894D01*
X54352Y-40902D01*
X54275Y-40895D01*
X54200Y-40873D01*
X54130Y-40837D01*
X54069Y-40787D01*
X54018Y-40727D01*
X53980Y-40658D01*
X53956Y-40583D01*
X53948Y-40505D01*
X53954Y-40428D01*
X53976Y-40352D01*
X54012Y-40282D01*
X54061Y-40221D01*
X54121Y-40170D01*
X54189Y-40131D01*
X54264Y-40107D01*
X54342Y-40098D01*
X54419Y-40104D01*
X54495Y-40125D01*
X54565Y-40160D01*
X54627Y-40209D01*
X54679Y-40268D01*
X54718Y-40337D01*
X54742Y-40411D01*
X54752Y-40489D01*
X54753Y-40500D01*
X40100Y-40900D02*
X39300Y-40900D01*
X39300Y-40900D02*
X39300Y-39500D01*
X40100Y-40900D02*
X40100Y-39500D01*
X40103Y-39500D02*
X40095Y-39578D01*
X40072Y-39653D01*
X40035Y-39723D01*
X39985Y-39783D01*
X39925Y-39834D01*
X39856Y-39871D01*
X39781Y-39894D01*
X39702Y-39902D01*
X39625Y-39895D01*
X39550Y-39873D01*
X39480Y-39837D01*
X39419Y-39787D01*
X39368Y-39727D01*
X39330Y-39658D01*
X39306Y-39583D01*
X39298Y-39505D01*
X39304Y-39428D01*
X39326Y-39352D01*
X39362Y-39282D01*
X39411Y-39221D01*
X39471Y-39170D01*
X39539Y-39131D01*
X39614Y-39107D01*
X39692Y-39098D01*
X39769Y-39104D01*
X39845Y-39125D01*
X39915Y-39160D01*
X39977Y-39209D01*
X40029Y-39268D01*
X40068Y-39337D01*
X40092Y-39411D01*
X40102Y-39489D01*
X40103Y-39500D01*
X55650Y-38100D02*
X55650Y-38900D01*
X55650Y-38900D02*
X54250Y-38900D01*
X55650Y-38100D02*
X54250Y-38100D01*
X54653Y-38500D02*
X54645Y-38578D01*
X54622Y-38653D01*
X54585Y-38723D01*
X54535Y-38783D01*
X54475Y-38834D01*
X54406Y-38871D01*
X54331Y-38894D01*
X54252Y-38902D01*
X54175Y-38895D01*
X54100Y-38873D01*
X54030Y-38837D01*
X53969Y-38787D01*
X53918Y-38727D01*
X53880Y-38658D01*
X53856Y-38583D01*
X53848Y-38505D01*
X53854Y-38428D01*
X53876Y-38352D01*
X53912Y-38282D01*
X53961Y-38221D01*
X54021Y-38170D01*
X54089Y-38131D01*
X54164Y-38107D01*
X54242Y-38098D01*
X54319Y-38104D01*
X54395Y-38125D01*
X54465Y-38160D01*
X54527Y-38209D01*
X54579Y-38268D01*
X54618Y-38337D01*
X54642Y-38411D01*
X54652Y-38489D01*
X54653Y-38500D01*
X40100Y-38900D02*
X39300Y-38900D01*
X39300Y-38900D02*
X39300Y-37500D01*
X40100Y-38900D02*
X40100Y-37500D01*
X40103Y-37500D02*
X40095Y-37578D01*
X40072Y-37653D01*
X40035Y-37723D01*
X39985Y-37783D01*
X39925Y-37834D01*
X39856Y-37871D01*
X39781Y-37894D01*
X39702Y-37902D01*
X39625Y-37895D01*
X39550Y-37873D01*
X39480Y-37837D01*
X39419Y-37787D01*
X39368Y-37727D01*
X39330Y-37658D01*
X39306Y-37583D01*
X39298Y-37505D01*
X39304Y-37428D01*
X39326Y-37352D01*
X39362Y-37282D01*
X39411Y-37221D01*
X39471Y-37170D01*
X39539Y-37131D01*
X39614Y-37107D01*
X39692Y-37098D01*
X39769Y-37104D01*
X39845Y-37125D01*
X39915Y-37160D01*
X39977Y-37209D01*
X40029Y-37268D01*
X40068Y-37337D01*
X40092Y-37411D01*
X40102Y-37489D01*
X40103Y-37500D01*
G54D17*
X40250Y-39000D02*
X40250Y-37000D01*
X41250Y-37000D02*
X41250Y-39000D01*
X42250Y-39000D02*
X42250Y-37000D01*
X43250Y-37000D02*
X43250Y-39000D01*
X44250Y-39000D02*
X44250Y-37000D01*
X45250Y-37000D02*
X45250Y-39000D01*
X40250Y-41000D02*
X40250Y-39000D01*
X41250Y-39000D02*
X41250Y-41000D01*
X42250Y-41000D02*
X42250Y-39000D01*
X43250Y-39000D02*
X43250Y-41000D01*
X44250Y-41000D02*
X44250Y-39000D01*
X45250Y-39000D02*
X45250Y-41000D01*
X40250Y-43000D02*
X40250Y-41000D01*
X41250Y-41000D02*
X41250Y-43000D01*
X42250Y-43000D02*
X42250Y-41000D01*
X43250Y-41000D02*
X43250Y-43000D01*
X44250Y-43000D02*
X44250Y-41000D01*
X45250Y-41000D02*
X45250Y-43000D01*
G54D14*
X52700Y-49150D02*
X52678Y-49373D01*
X52613Y-49588D01*
X52507Y-49786D01*
X52366Y-49960D01*
X52193Y-50103D01*
X51995Y-50210D01*
X51781Y-50276D01*
X51558Y-50299D01*
X51335Y-50279D01*
X51120Y-50216D01*
X50921Y-50112D01*
X50746Y-49971D01*
X50602Y-49799D01*
X50493Y-49603D01*
X50426Y-49389D01*
X50401Y-49166D01*
X50419Y-48943D01*
X50481Y-48727D01*
X50584Y-48528D01*
X50723Y-48352D01*
X50894Y-48206D01*
X51090Y-48097D01*
X51304Y-48027D01*
X51526Y-48001D01*
X51749Y-48018D01*
X51965Y-48078D01*
X52166Y-48180D01*
X52343Y-48318D01*
X52489Y-48488D01*
X52600Y-48683D01*
X52671Y-48896D01*
X52699Y-49118D01*
X52700Y-49150D01*
X51900Y-48600D02*
X52200Y-48600D01*
X52050Y-48750D02*
X52050Y-48425D01*
X47300Y-33400D02*
X47278Y-33623D01*
X47213Y-33838D01*
X47107Y-34036D01*
X46966Y-34210D01*
X46793Y-34353D01*
X46595Y-34460D01*
X46381Y-34526D01*
X46158Y-34549D01*
X45935Y-34529D01*
X45720Y-34466D01*
X45521Y-34362D01*
X45346Y-34221D01*
X45202Y-34049D01*
X45093Y-33853D01*
X45026Y-33639D01*
X45001Y-33416D01*
X45019Y-33193D01*
X45081Y-32977D01*
X45184Y-32778D01*
X45323Y-32602D01*
X45494Y-32456D01*
X45690Y-32347D01*
X45904Y-32277D01*
X46126Y-32251D01*
X46349Y-32268D01*
X46565Y-32328D01*
X46766Y-32430D01*
X46943Y-32568D01*
X47089Y-32738D01*
X47200Y-32933D01*
X47271Y-33146D01*
X47299Y-33368D01*
X47300Y-33400D01*
X45800Y-33950D02*
X45500Y-33950D01*
X45650Y-33800D02*
X45650Y-34125D01*
X44950Y-32850D02*
X44928Y-33073D01*
X44863Y-33288D01*
X44757Y-33486D01*
X44616Y-33660D01*
X44443Y-33803D01*
X44245Y-33910D01*
X44031Y-33976D01*
X43808Y-33999D01*
X43585Y-33979D01*
X43370Y-33916D01*
X43171Y-33812D01*
X42996Y-33671D01*
X42852Y-33499D01*
X42743Y-33303D01*
X42676Y-33089D01*
X42651Y-32866D01*
X42669Y-32643D01*
X42731Y-32427D01*
X42834Y-32228D01*
X42973Y-32052D01*
X43144Y-31906D01*
X43340Y-31797D01*
X43554Y-31727D01*
X43776Y-31701D01*
X43999Y-31718D01*
X44215Y-31778D01*
X44416Y-31880D01*
X44593Y-32018D01*
X44739Y-32188D01*
X44850Y-32383D01*
X44921Y-32596D01*
X44949Y-32818D01*
X44950Y-32850D01*
X44350Y-33200D02*
X44350Y-33500D01*
X44200Y-33350D02*
X44525Y-33350D01*
X48400Y-42400D02*
X48378Y-42623D01*
X48313Y-42838D01*
X48207Y-43036D01*
X48066Y-43210D01*
X47893Y-43353D01*
X47695Y-43460D01*
X47481Y-43526D01*
X47258Y-43549D01*
X47035Y-43529D01*
X46820Y-43466D01*
X46621Y-43362D01*
X46446Y-43221D01*
X46302Y-43049D01*
X46193Y-42853D01*
X46126Y-42639D01*
X46101Y-42416D01*
X46119Y-42193D01*
X46181Y-41977D01*
X46284Y-41778D01*
X46423Y-41602D01*
X46594Y-41456D01*
X46790Y-41347D01*
X47004Y-41277D01*
X47226Y-41251D01*
X47449Y-41268D01*
X47665Y-41328D01*
X47866Y-41430D01*
X48043Y-41568D01*
X48189Y-41738D01*
X48300Y-41933D01*
X48371Y-42146D01*
X48399Y-42368D01*
X48400Y-42400D01*
X46700Y-42050D02*
X46700Y-41750D01*
X46850Y-41900D02*
X46525Y-41900D01*
X51650Y-30600D02*
X51628Y-30823D01*
X51563Y-31038D01*
X51457Y-31236D01*
X51316Y-31410D01*
X51143Y-31553D01*
X50945Y-31660D01*
X50731Y-31726D01*
X50508Y-31749D01*
X50285Y-31729D01*
X50070Y-31666D01*
X49871Y-31562D01*
X49696Y-31421D01*
X49552Y-31249D01*
X49443Y-31053D01*
X49376Y-30839D01*
X49351Y-30616D01*
X49369Y-30393D01*
X49431Y-30177D01*
X49534Y-29978D01*
X49673Y-29802D01*
X49844Y-29656D01*
X50040Y-29547D01*
X50254Y-29477D01*
X50476Y-29451D01*
X50699Y-29468D01*
X50915Y-29528D01*
X51116Y-29630D01*
X51293Y-29768D01*
X51439Y-29938D01*
X51550Y-30133D01*
X51621Y-30346D01*
X51649Y-30568D01*
X51650Y-30600D01*
X51050Y-30950D02*
X51050Y-31250D01*
X50900Y-31100D02*
X51225Y-31100D01*
X49350Y-31950D02*
X49328Y-32173D01*
X49263Y-32388D01*
X49157Y-32586D01*
X49016Y-32760D01*
X48843Y-32903D01*
X48645Y-33010D01*
X48431Y-33076D01*
X48208Y-33099D01*
X47985Y-33079D01*
X47770Y-33016D01*
X47571Y-32912D01*
X47396Y-32771D01*
X47252Y-32599D01*
X47143Y-32403D01*
X47076Y-32189D01*
X47051Y-31966D01*
X47069Y-31743D01*
X47131Y-31527D01*
X47234Y-31328D01*
X47373Y-31152D01*
X47544Y-31006D01*
X47740Y-30897D01*
X47954Y-30827D01*
X48176Y-30801D01*
X48399Y-30818D01*
X48615Y-30878D01*
X48816Y-30980D01*
X48993Y-31118D01*
X49139Y-31288D01*
X49250Y-31483D01*
X49321Y-31696D01*
X49349Y-31918D01*
X49350Y-31950D01*
X48550Y-31400D02*
X48850Y-31400D01*
X48700Y-31550D02*
X48700Y-31225D01*
X57700Y-36000D02*
X57678Y-36223D01*
X57613Y-36438D01*
X57507Y-36636D01*
X57366Y-36810D01*
X57193Y-36953D01*
X56995Y-37060D01*
X56781Y-37126D01*
X56558Y-37149D01*
X56335Y-37129D01*
X56120Y-37066D01*
X55921Y-36962D01*
X55746Y-36821D01*
X55602Y-36649D01*
X55493Y-36453D01*
X55426Y-36239D01*
X55401Y-36016D01*
X55419Y-35793D01*
X55481Y-35577D01*
X55584Y-35378D01*
X55723Y-35202D01*
X55894Y-35056D01*
X56090Y-34947D01*
X56304Y-34877D01*
X56526Y-34851D01*
X56749Y-34868D01*
X56965Y-34928D01*
X57166Y-35030D01*
X57343Y-35168D01*
X57489Y-35338D01*
X57600Y-35533D01*
X57671Y-35746D01*
X57699Y-35968D01*
X57700Y-36000D01*
X56200Y-36550D02*
X55900Y-36550D01*
X56050Y-36400D02*
X56050Y-36725D01*
X53750Y-40000D02*
X53750Y-39000D01*
X53750Y-39000D02*
X55750Y-39000D01*
X55750Y-39000D02*
X55750Y-40000D01*
X55750Y-40000D02*
X53750Y-40000D01*
X45450Y-36800D02*
X45449Y-36809D01*
X45446Y-36819D01*
X45441Y-36827D01*
X45435Y-36835D01*
X45427Y-36841D01*
X45419Y-36846D01*
X45410Y-36848D01*
X45400Y-36849D01*
X45391Y-36849D01*
X45382Y-36846D01*
X45373Y-36841D01*
X45366Y-36835D01*
X45359Y-36828D01*
X45355Y-36819D01*
X45352Y-36810D01*
X45351Y-36800D01*
X45351Y-36791D01*
X45354Y-36782D01*
X45358Y-36773D01*
X45365Y-36766D01*
X45372Y-36759D01*
X45380Y-36755D01*
X45390Y-36752D01*
X45399Y-36751D01*
X45408Y-36751D01*
X45418Y-36754D01*
X45426Y-36758D01*
X45434Y-36764D01*
X45440Y-36772D01*
X45445Y-36780D01*
X45448Y-36789D01*
X45449Y-36799D01*
X45450Y-36800D01*
X46250Y-37000D02*
X45250Y-37000D01*
X45250Y-37000D02*
X45250Y-41000D01*
X45250Y-41000D02*
X46250Y-41000D01*
X46250Y-41000D02*
X46250Y-37000D01*
X43450Y-36800D02*
X43449Y-36809D01*
X43446Y-36819D01*
X43441Y-36827D01*
X43435Y-36835D01*
X43427Y-36841D01*
X43419Y-36846D01*
X43410Y-36848D01*
X43400Y-36849D01*
X43391Y-36849D01*
X43382Y-36846D01*
X43373Y-36841D01*
X43366Y-36835D01*
X43359Y-36828D01*
X43355Y-36819D01*
X43352Y-36810D01*
X43351Y-36800D01*
X43351Y-36791D01*
X43354Y-36782D01*
X43358Y-36773D01*
X43365Y-36766D01*
X43372Y-36759D01*
X43380Y-36755D01*
X43390Y-36752D01*
X43399Y-36751D01*
X43408Y-36751D01*
X43418Y-36754D01*
X43426Y-36758D01*
X43434Y-36764D01*
X43440Y-36772D01*
X43445Y-36780D01*
X43448Y-36789D01*
X43449Y-36799D01*
X43450Y-36800D01*
X44250Y-37000D02*
X43250Y-37000D01*
X43250Y-37000D02*
X43250Y-41000D01*
X43250Y-41000D02*
X44250Y-41000D01*
X44250Y-41000D02*
X44250Y-37000D01*
X44700Y-44450D02*
X44699Y-44459D01*
X44696Y-44469D01*
X44691Y-44477D01*
X44685Y-44485D01*
X44677Y-44491D01*
X44669Y-44496D01*
X44660Y-44498D01*
X44650Y-44499D01*
X44641Y-44499D01*
X44632Y-44496D01*
X44623Y-44491D01*
X44616Y-44485D01*
X44609Y-44478D01*
X44605Y-44469D01*
X44602Y-44460D01*
X44601Y-44450D01*
X44601Y-44441D01*
X44604Y-44432D01*
X44608Y-44423D01*
X44615Y-44416D01*
X44622Y-44409D01*
X44630Y-44405D01*
X44640Y-44402D01*
X44649Y-44401D01*
X44658Y-44401D01*
X44668Y-44404D01*
X44676Y-44408D01*
X44684Y-44414D01*
X44690Y-44422D01*
X44695Y-44430D01*
X44698Y-44439D01*
X44699Y-44449D01*
X44700Y-44450D01*
X44850Y-43600D02*
X44850Y-44600D01*
X44850Y-44600D02*
X48850Y-44600D01*
X48850Y-44600D02*
X48850Y-43600D01*
X48850Y-43600D02*
X44850Y-43600D01*
X41450Y-36800D02*
X41449Y-36809D01*
X41446Y-36819D01*
X41441Y-36827D01*
X41435Y-36835D01*
X41427Y-36841D01*
X41419Y-36846D01*
X41410Y-36848D01*
X41400Y-36849D01*
X41391Y-36849D01*
X41382Y-36846D01*
X41373Y-36841D01*
X41366Y-36835D01*
X41359Y-36828D01*
X41355Y-36819D01*
X41352Y-36810D01*
X41351Y-36800D01*
X41351Y-36791D01*
X41354Y-36782D01*
X41358Y-36773D01*
X41365Y-36766D01*
X41372Y-36759D01*
X41380Y-36755D01*
X41390Y-36752D01*
X41399Y-36751D01*
X41408Y-36751D01*
X41418Y-36754D01*
X41426Y-36758D01*
X41434Y-36764D01*
X41440Y-36772D01*
X41445Y-36780D01*
X41448Y-36789D01*
X41449Y-36799D01*
X41450Y-36800D01*
X42250Y-37000D02*
X41250Y-37000D01*
X41250Y-37000D02*
X41250Y-41000D01*
X41250Y-41000D02*
X42250Y-41000D01*
X42250Y-41000D02*
X42250Y-37000D01*
X45650Y-50450D02*
X45650Y-50250D01*
X45750Y-50350D02*
X45550Y-50350D01*
X49450Y-50350D02*
X49250Y-50350D01*
X45900Y-50600D02*
X45650Y-50600D01*
X45900Y-49850D02*
X45900Y-50100D01*
X45900Y-49600D02*
X45900Y-49850D01*
X45650Y-50100D02*
X45900Y-50100D01*
X45400Y-50100D02*
X45650Y-50100D01*
X45400Y-50600D02*
X45400Y-50100D01*
X45650Y-50600D02*
X45400Y-50600D01*
X49350Y-50600D02*
X49100Y-50600D01*
X49100Y-50100D02*
X49100Y-49600D01*
X49100Y-50100D02*
X49350Y-50100D01*
X49350Y-50100D02*
X49600Y-50100D01*
X49600Y-50100D02*
X49600Y-50350D01*
X49600Y-50350D02*
X49600Y-50600D01*
X49600Y-50600D02*
X49350Y-50600D01*
G54D16*
X47697Y-53543D02*
X47697Y-52362D01*
X47697Y-52362D02*
X47303Y-52362D01*
X47303Y-52362D02*
X47303Y-53543D01*
X47106Y-55118D02*
X46319Y-55118D01*
X48681Y-55118D02*
X47894Y-55118D01*
X46713Y-55512D02*
X46713Y-54724D01*
X48287Y-55512D02*
X48287Y-54724D01*
X48680Y-55118D02*
X48672Y-55194D01*
X48650Y-55267D01*
X48614Y-55335D01*
X48565Y-55394D01*
X48506Y-55443D01*
X48439Y-55480D01*
X48366Y-55502D01*
X48289Y-55510D01*
X48214Y-55504D01*
X48140Y-55482D01*
X48072Y-55446D01*
X48013Y-55398D01*
X47963Y-55340D01*
X47926Y-55272D01*
X47903Y-55199D01*
X47895Y-55123D01*
X47901Y-55048D01*
X47922Y-54974D01*
X47957Y-54906D01*
X48005Y-54845D01*
X48063Y-54796D01*
X48130Y-54758D01*
X48203Y-54735D01*
X48279Y-54726D01*
X48355Y-54731D01*
X48429Y-54752D01*
X48497Y-54787D01*
X48558Y-54834D01*
X48608Y-54892D01*
X48646Y-54959D01*
X48670Y-55031D01*
X48679Y-55108D01*
X48680Y-55118D01*
X47107Y-55118D02*
X47099Y-55194D01*
X47077Y-55268D01*
X47041Y-55336D01*
X46992Y-55395D01*
X46933Y-55444D01*
X46865Y-55481D01*
X46792Y-55503D01*
X46715Y-55511D01*
X46640Y-55505D01*
X46566Y-55483D01*
X46498Y-55447D01*
X46438Y-55399D01*
X46388Y-55340D01*
X46351Y-55273D01*
X46328Y-55199D01*
X46320Y-55123D01*
X46326Y-55047D01*
X46347Y-54973D01*
X46382Y-54905D01*
X46430Y-54845D01*
X46489Y-54795D01*
X46556Y-54757D01*
X46629Y-54734D01*
X46705Y-54725D01*
X46781Y-54730D01*
X46855Y-54751D01*
X46924Y-54786D01*
X46984Y-54833D01*
X47034Y-54891D01*
X47072Y-54958D01*
X47097Y-55031D01*
X47106Y-55107D01*
X47107Y-55118D01*
X45925Y-53543D02*
X49075Y-53543D01*
X49075Y-50787D02*
X45925Y-50787D01*
X45925Y-56705D02*
X45925Y-49508D01*
X45925Y-49508D02*
X49075Y-49508D01*
X49075Y-49507D02*
X49075Y-56704D01*
X49075Y-56705D02*
X45925Y-56705D01*
G54D14*
X49350Y-29550D02*
X49350Y-29750D01*
X49250Y-29650D02*
X49450Y-29650D01*
X45550Y-29650D02*
X45750Y-29650D01*
X49100Y-29400D02*
X49350Y-29400D01*
X49100Y-30150D02*
X49100Y-29900D01*
X49100Y-30400D02*
X49100Y-30150D01*
X49350Y-29900D02*
X49100Y-29900D01*
X49600Y-29900D02*
X49350Y-29900D01*
X49600Y-29400D02*
X49600Y-29900D01*
X49350Y-29400D02*
X49600Y-29400D01*
X45650Y-29400D02*
X45900Y-29400D01*
X45900Y-29900D02*
X45900Y-30400D01*
X45900Y-29900D02*
X45650Y-29900D01*
X45650Y-29900D02*
X45400Y-29900D01*
X45400Y-29900D02*
X45400Y-29650D01*
X45400Y-29650D02*
X45400Y-29400D01*
X45400Y-29400D02*
X45650Y-29400D01*
G54D16*
X47303Y-26457D02*
X47303Y-27638D01*
X47303Y-27638D02*
X47697Y-27638D01*
X47697Y-27638D02*
X47697Y-26457D01*
X47894Y-24882D02*
X48681Y-24882D01*
X46319Y-24882D02*
X47106Y-24882D01*
X48287Y-24488D02*
X48287Y-25276D01*
X46713Y-24488D02*
X46713Y-25276D01*
X47106Y-24882D02*
X47098Y-24958D01*
X47076Y-25031D01*
X47040Y-25099D01*
X46991Y-25158D01*
X46932Y-25207D01*
X46865Y-25244D01*
X46792Y-25266D01*
X46715Y-25274D01*
X46640Y-25268D01*
X46566Y-25246D01*
X46498Y-25210D01*
X46439Y-25162D01*
X46389Y-25104D01*
X46352Y-25036D01*
X46329Y-24963D01*
X46321Y-24887D01*
X46327Y-24812D01*
X46348Y-24738D01*
X46383Y-24670D01*
X46431Y-24609D01*
X46489Y-24560D01*
X46556Y-24522D01*
X46629Y-24499D01*
X46705Y-24490D01*
X46781Y-24495D01*
X46855Y-24516D01*
X46923Y-24551D01*
X46984Y-24598D01*
X47034Y-24656D01*
X47072Y-24723D01*
X47096Y-24795D01*
X47105Y-24872D01*
X47106Y-24882D01*
X48681Y-24882D02*
X48673Y-24958D01*
X48651Y-25032D01*
X48615Y-25100D01*
X48566Y-25159D01*
X48507Y-25208D01*
X48439Y-25245D01*
X48366Y-25267D01*
X48289Y-25275D01*
X48214Y-25269D01*
X48140Y-25247D01*
X48072Y-25211D01*
X48012Y-25163D01*
X47962Y-25104D01*
X47925Y-25037D01*
X47902Y-24963D01*
X47894Y-24887D01*
X47900Y-24811D01*
X47921Y-24737D01*
X47956Y-24669D01*
X48004Y-24609D01*
X48063Y-24559D01*
X48130Y-24521D01*
X48203Y-24498D01*
X48279Y-24489D01*
X48355Y-24494D01*
X48429Y-24515D01*
X48498Y-24550D01*
X48558Y-24597D01*
X48608Y-24655D01*
X48646Y-24722D01*
X48671Y-24795D01*
X48680Y-24871D01*
X48681Y-24882D01*
X49075Y-26457D02*
X45925Y-26457D01*
X45925Y-29213D02*
X49075Y-29213D01*
X49075Y-23295D02*
X49075Y-30492D01*
X49075Y-30492D02*
X45925Y-30492D01*
X45925Y-30493D02*
X45925Y-23296D01*
X45925Y-23295D02*
X49075Y-23295D01*
G54D14*
X41546Y-46258D02*
X41540Y-46317D01*
X41523Y-46373D01*
X41495Y-46426D01*
X41457Y-46472D01*
X41411Y-46510D01*
X41359Y-46538D01*
X41303Y-46555D01*
X41244Y-46561D01*
X41186Y-46556D01*
X41129Y-46539D01*
X41076Y-46512D01*
X41030Y-46475D01*
X40992Y-46429D01*
X40963Y-46377D01*
X40945Y-46321D01*
X40939Y-46262D01*
X40943Y-46204D01*
X40960Y-46147D01*
X40987Y-46094D01*
X41024Y-46047D01*
X41069Y-46009D01*
X41121Y-45980D01*
X41177Y-45962D01*
X41236Y-45955D01*
X41294Y-45959D01*
X41351Y-45975D01*
X41404Y-46002D01*
X41451Y-46038D01*
X41490Y-46083D01*
X41519Y-46135D01*
X41538Y-46191D01*
X41545Y-46250D01*
X41546Y-46258D01*
X40182Y-45338D02*
X40323Y-45197D01*
X40323Y-45338D02*
X40182Y-45197D01*
X41985Y-47354D02*
X42056Y-47424D01*
X40076Y-45444D02*
X40040Y-45409D01*
X42268Y-47283D02*
X42126Y-47141D01*
X42020Y-47389D02*
X42197Y-47566D01*
X42197Y-47566D02*
X42551Y-47212D01*
X42551Y-47212D02*
X42374Y-47035D01*
X42374Y-47035D02*
X42197Y-46859D01*
X42197Y-46859D02*
X41844Y-47212D01*
X41844Y-47212D02*
X41985Y-47354D01*
X39899Y-45268D02*
X40040Y-45409D01*
X40253Y-44914D02*
X39899Y-45268D01*
X40429Y-45091D02*
X40253Y-44914D01*
X40606Y-45268D02*
X40429Y-45091D01*
X40253Y-45621D02*
X40606Y-45268D01*
X40076Y-45444D02*
X40253Y-45621D01*
G54D16*
X36046Y-49784D02*
X35489Y-49227D01*
X36602Y-50898D02*
X37160Y-50340D01*
X38273Y-52011D02*
X37716Y-51454D01*
X36046Y-48114D02*
X39386Y-51454D01*
X35211Y-50619D02*
X34654Y-50062D01*
X36325Y-51733D02*
X35767Y-51175D01*
X37438Y-52846D02*
X36881Y-52289D01*
X38389Y-51733D02*
X38381Y-51809D01*
X38359Y-51883D01*
X38323Y-51951D01*
X38274Y-52010D01*
X38215Y-52059D01*
X38147Y-52096D01*
X38074Y-52118D01*
X37997Y-52126D01*
X37922Y-52120D01*
X37848Y-52098D01*
X37780Y-52062D01*
X37720Y-52014D01*
X37670Y-51955D01*
X37633Y-51888D01*
X37610Y-51814D01*
X37602Y-51738D01*
X37608Y-51662D01*
X37629Y-51588D01*
X37664Y-51520D01*
X37712Y-51460D01*
X37771Y-51410D01*
X37838Y-51372D01*
X37911Y-51349D01*
X37987Y-51340D01*
X38063Y-51345D01*
X38137Y-51366D01*
X38206Y-51401D01*
X38266Y-51448D01*
X38316Y-51506D01*
X38354Y-51573D01*
X38379Y-51646D01*
X38388Y-51722D01*
X38389Y-51733D01*
X36160Y-49505D02*
X36152Y-49581D01*
X36130Y-49654D01*
X36094Y-49722D01*
X36045Y-49781D01*
X35986Y-49830D01*
X35919Y-49867D01*
X35846Y-49889D01*
X35769Y-49897D01*
X35694Y-49891D01*
X35620Y-49869D01*
X35552Y-49833D01*
X35493Y-49785D01*
X35443Y-49727D01*
X35406Y-49659D01*
X35383Y-49586D01*
X35375Y-49510D01*
X35381Y-49435D01*
X35402Y-49361D01*
X35437Y-49293D01*
X35485Y-49232D01*
X35543Y-49183D01*
X35610Y-49145D01*
X35683Y-49122D01*
X35759Y-49113D01*
X35835Y-49118D01*
X35909Y-49139D01*
X35977Y-49174D01*
X36038Y-49221D01*
X36088Y-49279D01*
X36126Y-49346D01*
X36150Y-49418D01*
X36159Y-49495D01*
X36160Y-49505D01*
X37275Y-50619D02*
X37267Y-50695D01*
X37245Y-50769D01*
X37209Y-50837D01*
X37160Y-50896D01*
X37101Y-50945D01*
X37033Y-50982D01*
X36960Y-51004D01*
X36883Y-51012D01*
X36808Y-51006D01*
X36734Y-50984D01*
X36666Y-50948D01*
X36606Y-50900D01*
X36556Y-50841D01*
X36519Y-50774D01*
X36496Y-50700D01*
X36488Y-50624D01*
X36494Y-50548D01*
X36515Y-50474D01*
X36550Y-50406D01*
X36598Y-50346D01*
X36657Y-50296D01*
X36724Y-50258D01*
X36797Y-50235D01*
X36873Y-50226D01*
X36949Y-50231D01*
X37023Y-50252D01*
X37092Y-50287D01*
X37152Y-50334D01*
X37202Y-50392D01*
X37240Y-50459D01*
X37265Y-50532D01*
X37274Y-50608D01*
X37275Y-50619D01*
X34166Y-50132D02*
X39178Y-45121D01*
X39178Y-45121D02*
X42379Y-48322D01*
X42379Y-48322D02*
X37368Y-53334D01*
X37368Y-53334D02*
X34166Y-50132D01*
G54D14*
X38854Y-40000D02*
X38848Y-40059D01*
X38831Y-40115D01*
X38803Y-40168D01*
X38765Y-40214D01*
X38719Y-40252D01*
X38667Y-40280D01*
X38611Y-40297D01*
X38552Y-40303D01*
X38494Y-40298D01*
X38437Y-40281D01*
X38384Y-40254D01*
X38338Y-40217D01*
X38300Y-40171D01*
X38271Y-40119D01*
X38253Y-40063D01*
X38247Y-40004D01*
X38251Y-39946D01*
X38268Y-39889D01*
X38295Y-39836D01*
X38332Y-39789D01*
X38377Y-39751D01*
X38429Y-39722D01*
X38485Y-39704D01*
X38544Y-39697D01*
X38602Y-39701D01*
X38659Y-39717D01*
X38712Y-39744D01*
X38759Y-39780D01*
X38798Y-39825D01*
X38827Y-39877D01*
X38846Y-39933D01*
X38853Y-39992D01*
X38854Y-40000D01*
X38450Y-38600D02*
X38650Y-38600D01*
X38550Y-38700D02*
X38550Y-38500D01*
X38300Y-41300D02*
X38300Y-41400D01*
X38300Y-38600D02*
X38300Y-38550D01*
X38550Y-41450D02*
X38550Y-41250D01*
X38300Y-41350D02*
X38300Y-41600D01*
X38300Y-41600D02*
X38800Y-41600D01*
X38800Y-41600D02*
X38800Y-41350D01*
X38800Y-41350D02*
X38800Y-41100D01*
X38800Y-41100D02*
X38300Y-41100D01*
X38300Y-41100D02*
X38300Y-41300D01*
X38300Y-38350D02*
X38300Y-38550D01*
X38800Y-38350D02*
X38300Y-38350D01*
X38800Y-38600D02*
X38800Y-38350D01*
X38800Y-38850D02*
X38800Y-38600D01*
X38300Y-38850D02*
X38800Y-38850D01*
X38300Y-38600D02*
X38300Y-38850D01*
G54D16*
X32382Y-38819D02*
X32382Y-38031D01*
X31988Y-40000D02*
X32776Y-40000D01*
X32382Y-41969D02*
X32382Y-41181D01*
X33563Y-37638D02*
X33563Y-42362D01*
X31201Y-38819D02*
X31201Y-38031D01*
X31201Y-40394D02*
X31201Y-39606D01*
X31201Y-41969D02*
X31201Y-41181D01*
X32776Y-41575D02*
X32768Y-41651D01*
X32746Y-41725D01*
X32710Y-41793D01*
X32661Y-41852D01*
X32602Y-41901D01*
X32534Y-41938D01*
X32461Y-41960D01*
X32384Y-41968D01*
X32309Y-41962D01*
X32235Y-41940D01*
X32167Y-41904D01*
X32107Y-41856D01*
X32057Y-41797D01*
X32020Y-41730D01*
X31997Y-41656D01*
X31989Y-41580D01*
X31995Y-41504D01*
X32016Y-41430D01*
X32051Y-41362D01*
X32099Y-41302D01*
X32158Y-41252D01*
X32225Y-41214D01*
X32298Y-41191D01*
X32374Y-41182D01*
X32450Y-41187D01*
X32524Y-41208D01*
X32593Y-41243D01*
X32653Y-41290D01*
X32703Y-41348D01*
X32741Y-41415D01*
X32766Y-41488D01*
X32775Y-41564D01*
X32776Y-41575D01*
X32776Y-38425D02*
X32768Y-38501D01*
X32746Y-38575D01*
X32710Y-38643D01*
X32661Y-38702D01*
X32602Y-38751D01*
X32534Y-38788D01*
X32461Y-38810D01*
X32384Y-38818D01*
X32309Y-38812D01*
X32235Y-38790D01*
X32167Y-38754D01*
X32107Y-38706D01*
X32057Y-38647D01*
X32020Y-38580D01*
X31997Y-38506D01*
X31989Y-38430D01*
X31995Y-38354D01*
X32016Y-38280D01*
X32051Y-38212D01*
X32099Y-38152D01*
X32158Y-38102D01*
X32225Y-38064D01*
X32298Y-38041D01*
X32374Y-38032D01*
X32450Y-38037D01*
X32524Y-38058D01*
X32593Y-38093D01*
X32653Y-38140D01*
X32703Y-38198D01*
X32741Y-38265D01*
X32766Y-38338D01*
X32775Y-38414D01*
X32776Y-38425D01*
X32776Y-40000D02*
X32768Y-40076D01*
X32746Y-40150D01*
X32710Y-40218D01*
X32661Y-40277D01*
X32602Y-40326D01*
X32534Y-40363D01*
X32461Y-40385D01*
X32384Y-40393D01*
X32309Y-40387D01*
X32235Y-40365D01*
X32167Y-40329D01*
X32107Y-40281D01*
X32057Y-40222D01*
X32020Y-40155D01*
X31997Y-40081D01*
X31989Y-40005D01*
X31995Y-39929D01*
X32016Y-39855D01*
X32051Y-39787D01*
X32099Y-39727D01*
X32158Y-39677D01*
X32225Y-39639D01*
X32298Y-39616D01*
X32374Y-39607D01*
X32450Y-39612D01*
X32524Y-39633D01*
X32593Y-39668D01*
X32653Y-39715D01*
X32703Y-39773D01*
X32741Y-39840D01*
X32766Y-39913D01*
X32775Y-39989D01*
X32776Y-40000D01*
X30807Y-37736D02*
X37894Y-37736D01*
X37894Y-37736D02*
X37894Y-42264D01*
X37894Y-42264D02*
X30807Y-42264D01*
X30807Y-42264D02*
X30807Y-37736D01*
G54D14*
X41546Y-33742D02*
X41540Y-33801D01*
X41523Y-33857D01*
X41495Y-33910D01*
X41457Y-33956D01*
X41411Y-33994D01*
X41359Y-34022D01*
X41303Y-34039D01*
X41244Y-34045D01*
X41186Y-34040D01*
X41129Y-34023D01*
X41076Y-33996D01*
X41030Y-33959D01*
X40992Y-33913D01*
X40963Y-33861D01*
X40945Y-33805D01*
X40939Y-33746D01*
X40943Y-33688D01*
X40960Y-33631D01*
X40987Y-33578D01*
X41024Y-33531D01*
X41069Y-33493D01*
X41121Y-33464D01*
X41177Y-33446D01*
X41236Y-33439D01*
X41294Y-33443D01*
X41351Y-33459D01*
X41404Y-33486D01*
X41451Y-33522D01*
X41490Y-33567D01*
X41519Y-33619D01*
X41538Y-33675D01*
X41545Y-33734D01*
X41546Y-33742D01*
X42162Y-32682D02*
X42303Y-32823D01*
X42162Y-32823D02*
X42303Y-32682D01*
X40146Y-34485D02*
X40076Y-34556D01*
X42056Y-32576D02*
X42091Y-32540D01*
X40217Y-34768D02*
X40359Y-34626D01*
X40111Y-34520D02*
X39934Y-34697D01*
X39934Y-34697D02*
X40288Y-35051D01*
X40288Y-35051D02*
X40465Y-34874D01*
X40465Y-34874D02*
X40641Y-34697D01*
X40641Y-34697D02*
X40288Y-34344D01*
X40288Y-34344D02*
X40146Y-34485D01*
X42232Y-32399D02*
X42091Y-32540D01*
X42586Y-32753D02*
X42232Y-32399D01*
X42409Y-32929D02*
X42586Y-32753D01*
X42232Y-33106D02*
X42409Y-32929D01*
X41879Y-32753D02*
X42232Y-33106D01*
X42056Y-32576D02*
X41879Y-32753D01*
G54D16*
X37716Y-28546D02*
X38273Y-27989D01*
X36602Y-29102D02*
X37160Y-29660D01*
X35489Y-30773D02*
X36046Y-30216D01*
X39386Y-28546D02*
X36046Y-31886D01*
X36881Y-27711D02*
X37438Y-27154D01*
X35767Y-28825D02*
X36325Y-28267D01*
X34654Y-29938D02*
X35211Y-29381D01*
X36161Y-30495D02*
X36153Y-30571D01*
X36131Y-30645D01*
X36095Y-30713D01*
X36046Y-30772D01*
X35987Y-30821D01*
X35919Y-30858D01*
X35846Y-30880D01*
X35769Y-30888D01*
X35694Y-30882D01*
X35620Y-30860D01*
X35552Y-30824D01*
X35492Y-30776D01*
X35442Y-30717D01*
X35405Y-30650D01*
X35382Y-30576D01*
X35374Y-30500D01*
X35380Y-30424D01*
X35401Y-30350D01*
X35436Y-30282D01*
X35484Y-30222D01*
X35543Y-30172D01*
X35610Y-30134D01*
X35683Y-30111D01*
X35759Y-30102D01*
X35835Y-30107D01*
X35909Y-30128D01*
X35978Y-30163D01*
X36038Y-30210D01*
X36088Y-30268D01*
X36126Y-30335D01*
X36151Y-30408D01*
X36160Y-30484D01*
X36161Y-30495D01*
X38388Y-28267D02*
X38380Y-28343D01*
X38358Y-28416D01*
X38322Y-28484D01*
X38273Y-28543D01*
X38214Y-28592D01*
X38147Y-28629D01*
X38074Y-28651D01*
X37997Y-28659D01*
X37922Y-28653D01*
X37848Y-28631D01*
X37780Y-28595D01*
X37721Y-28547D01*
X37671Y-28489D01*
X37634Y-28421D01*
X37611Y-28348D01*
X37603Y-28272D01*
X37609Y-28197D01*
X37630Y-28123D01*
X37665Y-28055D01*
X37713Y-27994D01*
X37771Y-27945D01*
X37838Y-27907D01*
X37911Y-27884D01*
X37987Y-27875D01*
X38063Y-27880D01*
X38137Y-27901D01*
X38205Y-27936D01*
X38266Y-27983D01*
X38316Y-28041D01*
X38354Y-28108D01*
X38378Y-28180D01*
X38387Y-28257D01*
X38388Y-28267D01*
X37275Y-29381D02*
X37267Y-29457D01*
X37245Y-29531D01*
X37209Y-29599D01*
X37160Y-29658D01*
X37101Y-29707D01*
X37033Y-29744D01*
X36960Y-29766D01*
X36883Y-29774D01*
X36808Y-29768D01*
X36734Y-29746D01*
X36666Y-29710D01*
X36606Y-29662D01*
X36556Y-29603D01*
X36519Y-29536D01*
X36496Y-29462D01*
X36488Y-29386D01*
X36494Y-29310D01*
X36515Y-29236D01*
X36550Y-29168D01*
X36598Y-29108D01*
X36657Y-29058D01*
X36724Y-29020D01*
X36797Y-28997D01*
X36873Y-28988D01*
X36949Y-28993D01*
X37023Y-29014D01*
X37092Y-29049D01*
X37152Y-29096D01*
X37202Y-29154D01*
X37240Y-29221D01*
X37265Y-29294D01*
X37274Y-29370D01*
X37275Y-29381D01*
X37368Y-26666D02*
X42379Y-31678D01*
X42379Y-31678D02*
X39178Y-34879D01*
X39178Y-34879D02*
X34166Y-29868D01*
X34166Y-29868D02*
X37368Y-26666D01*
G54D14*
X54062Y-33742D02*
X54056Y-33801D01*
X54039Y-33857D01*
X54011Y-33910D01*
X53973Y-33956D01*
X53927Y-33994D01*
X53875Y-34022D01*
X53819Y-34039D01*
X53760Y-34045D01*
X53702Y-34040D01*
X53645Y-34023D01*
X53592Y-33996D01*
X53546Y-33959D01*
X53508Y-33913D01*
X53479Y-33861D01*
X53461Y-33805D01*
X53455Y-33746D01*
X53459Y-33688D01*
X53476Y-33631D01*
X53503Y-33578D01*
X53540Y-33531D01*
X53585Y-33493D01*
X53637Y-33464D01*
X53693Y-33446D01*
X53752Y-33439D01*
X53810Y-33443D01*
X53867Y-33459D01*
X53920Y-33486D01*
X53967Y-33522D01*
X54006Y-33567D01*
X54035Y-33619D01*
X54054Y-33675D01*
X54061Y-33734D01*
X54062Y-33742D01*
X54818Y-34662D02*
X54677Y-34803D01*
X54677Y-34662D02*
X54818Y-34803D01*
X53015Y-32646D02*
X52944Y-32576D01*
X54924Y-34556D02*
X54960Y-34591D01*
X52732Y-32717D02*
X52874Y-32859D01*
X52980Y-32611D02*
X52803Y-32434D01*
X52803Y-32434D02*
X52449Y-32788D01*
X52449Y-32788D02*
X52626Y-32965D01*
X52626Y-32965D02*
X52803Y-33141D01*
X52803Y-33141D02*
X53156Y-32788D01*
X53156Y-32788D02*
X53015Y-32646D01*
X55101Y-34732D02*
X54960Y-34591D01*
X54747Y-35086D02*
X55101Y-34732D01*
X54571Y-34909D02*
X54747Y-35086D01*
X54394Y-34732D02*
X54571Y-34909D01*
X54747Y-34379D02*
X54394Y-34732D01*
X54924Y-34556D02*
X54747Y-34379D01*
G54D16*
X58954Y-30216D02*
X59511Y-30773D01*
X58398Y-29102D02*
X57840Y-29660D01*
X56727Y-27989D02*
X57284Y-28546D01*
X58954Y-31886D02*
X55614Y-28546D01*
X59789Y-29381D02*
X60346Y-29938D01*
X58675Y-28267D02*
X59233Y-28825D01*
X57562Y-27154D02*
X58119Y-27711D01*
X57399Y-28267D02*
X57391Y-28343D01*
X57369Y-28417D01*
X57333Y-28485D01*
X57284Y-28544D01*
X57225Y-28593D01*
X57157Y-28630D01*
X57084Y-28652D01*
X57007Y-28660D01*
X56932Y-28654D01*
X56858Y-28632D01*
X56790Y-28596D01*
X56730Y-28548D01*
X56680Y-28489D01*
X56643Y-28422D01*
X56620Y-28348D01*
X56612Y-28272D01*
X56618Y-28196D01*
X56639Y-28122D01*
X56674Y-28054D01*
X56722Y-27994D01*
X56781Y-27944D01*
X56848Y-27906D01*
X56921Y-27883D01*
X56997Y-27874D01*
X57073Y-27879D01*
X57147Y-27900D01*
X57216Y-27935D01*
X57276Y-27982D01*
X57326Y-28040D01*
X57364Y-28107D01*
X57389Y-28180D01*
X57398Y-28256D01*
X57399Y-28267D01*
X59626Y-30495D02*
X59618Y-30571D01*
X59596Y-30644D01*
X59560Y-30712D01*
X59511Y-30771D01*
X59452Y-30820D01*
X59385Y-30857D01*
X59312Y-30879D01*
X59235Y-30887D01*
X59160Y-30881D01*
X59086Y-30859D01*
X59018Y-30823D01*
X58959Y-30775D01*
X58909Y-30717D01*
X58872Y-30649D01*
X58849Y-30576D01*
X58841Y-30500D01*
X58847Y-30425D01*
X58868Y-30351D01*
X58903Y-30283D01*
X58951Y-30222D01*
X59009Y-30173D01*
X59076Y-30135D01*
X59149Y-30112D01*
X59225Y-30103D01*
X59301Y-30108D01*
X59375Y-30129D01*
X59443Y-30164D01*
X59504Y-30211D01*
X59554Y-30269D01*
X59592Y-30336D01*
X59616Y-30408D01*
X59625Y-30485D01*
X59626Y-30495D01*
X58513Y-29381D02*
X58505Y-29457D01*
X58483Y-29531D01*
X58447Y-29599D01*
X58398Y-29658D01*
X58339Y-29707D01*
X58271Y-29744D01*
X58198Y-29766D01*
X58121Y-29774D01*
X58046Y-29768D01*
X57972Y-29746D01*
X57904Y-29710D01*
X57844Y-29662D01*
X57794Y-29603D01*
X57757Y-29536D01*
X57734Y-29462D01*
X57726Y-29386D01*
X57732Y-29310D01*
X57753Y-29236D01*
X57788Y-29168D01*
X57836Y-29108D01*
X57895Y-29058D01*
X57962Y-29020D01*
X58035Y-28997D01*
X58111Y-28988D01*
X58187Y-28993D01*
X58261Y-29014D01*
X58330Y-29049D01*
X58390Y-29096D01*
X58440Y-29154D01*
X58478Y-29221D01*
X58503Y-29294D01*
X58512Y-29370D01*
X58513Y-29381D01*
X60834Y-29868D02*
X55822Y-34879D01*
X55822Y-34879D02*
X52621Y-31678D01*
X52621Y-31678D02*
X57632Y-26666D01*
X57632Y-26666D02*
X60834Y-29868D01*
G54D14*
X56754Y-40000D02*
X56748Y-40059D01*
X56731Y-40115D01*
X56703Y-40168D01*
X56665Y-40214D01*
X56619Y-40252D01*
X56567Y-40280D01*
X56511Y-40297D01*
X56452Y-40303D01*
X56394Y-40298D01*
X56337Y-40281D01*
X56284Y-40254D01*
X56238Y-40217D01*
X56200Y-40171D01*
X56171Y-40119D01*
X56153Y-40063D01*
X56147Y-40004D01*
X56151Y-39946D01*
X56168Y-39889D01*
X56195Y-39836D01*
X56232Y-39789D01*
X56277Y-39751D01*
X56329Y-39722D01*
X56385Y-39704D01*
X56444Y-39697D01*
X56502Y-39701D01*
X56559Y-39717D01*
X56612Y-39744D01*
X56659Y-39780D01*
X56698Y-39825D01*
X56727Y-39877D01*
X56746Y-39933D01*
X56753Y-39992D01*
X56754Y-40000D01*
X56550Y-41400D02*
X56350Y-41400D01*
X56450Y-41300D02*
X56450Y-41500D01*
X56700Y-38700D02*
X56700Y-38600D01*
X56700Y-41400D02*
X56700Y-41450D01*
X56450Y-38550D02*
X56450Y-38750D01*
X56700Y-38650D02*
X56700Y-38400D01*
X56700Y-38400D02*
X56200Y-38400D01*
X56200Y-38400D02*
X56200Y-38650D01*
X56200Y-38650D02*
X56200Y-38900D01*
X56200Y-38900D02*
X56700Y-38900D01*
X56700Y-38900D02*
X56700Y-38700D01*
X56700Y-41650D02*
X56700Y-41450D01*
X56200Y-41650D02*
X56700Y-41650D01*
X56200Y-41400D02*
X56200Y-41650D01*
X56200Y-41150D02*
X56200Y-41400D01*
X56700Y-41150D02*
X56200Y-41150D01*
X56700Y-41400D02*
X56700Y-41150D01*
G54D16*
X62618Y-41181D02*
X62618Y-41969D01*
X63012Y-40000D02*
X62224Y-40000D01*
X62618Y-38031D02*
X62618Y-38819D01*
X61437Y-42362D02*
X61437Y-37638D01*
X63799Y-41181D02*
X63799Y-41969D01*
X63799Y-39606D02*
X63799Y-40394D01*
X63799Y-38031D02*
X63799Y-38819D01*
X63012Y-38425D02*
X63004Y-38501D01*
X62982Y-38575D01*
X62946Y-38643D01*
X62897Y-38702D01*
X62838Y-38751D01*
X62770Y-38788D01*
X62697Y-38810D01*
X62620Y-38818D01*
X62545Y-38812D01*
X62471Y-38790D01*
X62403Y-38754D01*
X62343Y-38706D01*
X62293Y-38647D01*
X62256Y-38580D01*
X62233Y-38506D01*
X62225Y-38430D01*
X62231Y-38354D01*
X62252Y-38280D01*
X62287Y-38212D01*
X62335Y-38152D01*
X62394Y-38102D01*
X62461Y-38064D01*
X62534Y-38041D01*
X62610Y-38032D01*
X62686Y-38037D01*
X62760Y-38058D01*
X62829Y-38093D01*
X62889Y-38140D01*
X62939Y-38198D01*
X62977Y-38265D01*
X63002Y-38338D01*
X63011Y-38414D01*
X63012Y-38425D01*
X63012Y-41575D02*
X63004Y-41651D01*
X62982Y-41725D01*
X62946Y-41793D01*
X62897Y-41852D01*
X62838Y-41901D01*
X62770Y-41938D01*
X62697Y-41960D01*
X62620Y-41968D01*
X62545Y-41962D01*
X62471Y-41940D01*
X62403Y-41904D01*
X62343Y-41856D01*
X62293Y-41797D01*
X62256Y-41730D01*
X62233Y-41656D01*
X62225Y-41580D01*
X62231Y-41504D01*
X62252Y-41430D01*
X62287Y-41362D01*
X62335Y-41302D01*
X62394Y-41252D01*
X62461Y-41214D01*
X62534Y-41191D01*
X62610Y-41182D01*
X62686Y-41187D01*
X62760Y-41208D01*
X62829Y-41243D01*
X62889Y-41290D01*
X62939Y-41348D01*
X62977Y-41415D01*
X63002Y-41488D01*
X63011Y-41564D01*
X63012Y-41575D01*
X63012Y-40000D02*
X63004Y-40076D01*
X62982Y-40150D01*
X62946Y-40218D01*
X62897Y-40277D01*
X62838Y-40326D01*
X62770Y-40363D01*
X62697Y-40385D01*
X62620Y-40393D01*
X62545Y-40387D01*
X62471Y-40365D01*
X62403Y-40329D01*
X62343Y-40281D01*
X62293Y-40222D01*
X62256Y-40155D01*
X62233Y-40081D01*
X62225Y-40005D01*
X62231Y-39929D01*
X62252Y-39855D01*
X62287Y-39787D01*
X62335Y-39727D01*
X62394Y-39677D01*
X62461Y-39639D01*
X62534Y-39616D01*
X62610Y-39607D01*
X62686Y-39612D01*
X62760Y-39633D01*
X62829Y-39668D01*
X62889Y-39715D01*
X62939Y-39773D01*
X62977Y-39840D01*
X63002Y-39913D01*
X63011Y-39989D01*
X63012Y-40000D01*
X64193Y-42264D02*
X57106Y-42264D01*
X57106Y-42264D02*
X57106Y-37736D01*
X57106Y-37736D02*
X64193Y-37736D01*
X64193Y-37736D02*
X64193Y-42264D01*
G54D14*
X54062Y-46258D02*
X54056Y-46317D01*
X54039Y-46373D01*
X54011Y-46426D01*
X53973Y-46472D01*
X53927Y-46510D01*
X53875Y-46538D01*
X53819Y-46555D01*
X53760Y-46561D01*
X53702Y-46556D01*
X53645Y-46539D01*
X53592Y-46512D01*
X53546Y-46475D01*
X53508Y-46429D01*
X53479Y-46377D01*
X53461Y-46321D01*
X53455Y-46262D01*
X53459Y-46204D01*
X53476Y-46147D01*
X53503Y-46094D01*
X53540Y-46047D01*
X53585Y-46009D01*
X53637Y-45980D01*
X53693Y-45962D01*
X53752Y-45955D01*
X53810Y-45959D01*
X53867Y-45975D01*
X53920Y-46002D01*
X53967Y-46038D01*
X54006Y-46083D01*
X54035Y-46135D01*
X54054Y-46191D01*
X54061Y-46250D01*
X54062Y-46258D01*
X52838Y-47318D02*
X52697Y-47177D01*
X52838Y-47177D02*
X52697Y-47318D01*
X54854Y-45515D02*
X54924Y-45444D01*
X52944Y-47424D02*
X52909Y-47460D01*
X54783Y-45232D02*
X54641Y-45374D01*
X54889Y-45480D02*
X55066Y-45303D01*
X55066Y-45303D02*
X54712Y-44949D01*
X54712Y-44949D02*
X54535Y-45126D01*
X54535Y-45126D02*
X54359Y-45303D01*
X54359Y-45303D02*
X54712Y-45656D01*
X54712Y-45656D02*
X54854Y-45515D01*
X52768Y-47601D02*
X52909Y-47460D01*
X52414Y-47247D02*
X52768Y-47601D01*
X52591Y-47071D02*
X52414Y-47247D01*
X52768Y-46894D02*
X52591Y-47071D01*
X53121Y-47247D02*
X52768Y-46894D01*
X52944Y-47424D02*
X53121Y-47247D01*
G54D16*
X57284Y-51454D02*
X56727Y-52011D01*
X58398Y-50898D02*
X57840Y-50340D01*
X59511Y-49227D02*
X58954Y-49784D01*
X55614Y-51454D02*
X58954Y-48114D01*
X58119Y-52289D02*
X57562Y-52846D01*
X59233Y-51175D02*
X58675Y-51733D01*
X60346Y-50062D02*
X59789Y-50619D01*
X59627Y-49505D02*
X59619Y-49581D01*
X59597Y-49655D01*
X59561Y-49723D01*
X59512Y-49782D01*
X59453Y-49831D01*
X59385Y-49868D01*
X59312Y-49890D01*
X59235Y-49898D01*
X59160Y-49892D01*
X59086Y-49870D01*
X59018Y-49834D01*
X58958Y-49786D01*
X58908Y-49727D01*
X58871Y-49660D01*
X58848Y-49586D01*
X58840Y-49510D01*
X58846Y-49434D01*
X58867Y-49360D01*
X58902Y-49292D01*
X58950Y-49232D01*
X59009Y-49182D01*
X59076Y-49144D01*
X59149Y-49121D01*
X59225Y-49112D01*
X59301Y-49117D01*
X59375Y-49138D01*
X59444Y-49173D01*
X59504Y-49220D01*
X59554Y-49278D01*
X59592Y-49345D01*
X59617Y-49418D01*
X59626Y-49494D01*
X59627Y-49505D01*
X57398Y-51733D02*
X57390Y-51809D01*
X57368Y-51882D01*
X57332Y-51950D01*
X57283Y-52009D01*
X57224Y-52058D01*
X57157Y-52095D01*
X57084Y-52117D01*
X57007Y-52125D01*
X56932Y-52119D01*
X56858Y-52097D01*
X56790Y-52061D01*
X56731Y-52013D01*
X56681Y-51955D01*
X56644Y-51887D01*
X56621Y-51814D01*
X56613Y-51738D01*
X56619Y-51663D01*
X56640Y-51589D01*
X56675Y-51521D01*
X56723Y-51460D01*
X56781Y-51411D01*
X56848Y-51373D01*
X56921Y-51350D01*
X56997Y-51341D01*
X57073Y-51346D01*
X57147Y-51367D01*
X57215Y-51402D01*
X57276Y-51449D01*
X57326Y-51507D01*
X57364Y-51574D01*
X57388Y-51646D01*
X57397Y-51723D01*
X57398Y-51733D01*
X58513Y-50619D02*
X58505Y-50695D01*
X58483Y-50769D01*
X58447Y-50837D01*
X58398Y-50896D01*
X58339Y-50945D01*
X58271Y-50982D01*
X58198Y-51004D01*
X58121Y-51012D01*
X58046Y-51006D01*
X57972Y-50984D01*
X57904Y-50948D01*
X57844Y-50900D01*
X57794Y-50841D01*
X57757Y-50774D01*
X57734Y-50700D01*
X57726Y-50624D01*
X57732Y-50548D01*
X57753Y-50474D01*
X57788Y-50406D01*
X57836Y-50346D01*
X57895Y-50296D01*
X57962Y-50258D01*
X58035Y-50235D01*
X58111Y-50226D01*
X58187Y-50231D01*
X58261Y-50252D01*
X58330Y-50287D01*
X58390Y-50334D01*
X58440Y-50392D01*
X58478Y-50459D01*
X58503Y-50532D01*
X58512Y-50608D01*
X58513Y-50619D01*
X57632Y-53334D02*
X52621Y-48322D01*
X52621Y-48322D02*
X55822Y-45121D01*
X55822Y-45121D02*
X60834Y-50132D01*
X60834Y-50132D02*
X57632Y-53334D01*
G54D17*
X49450Y-35050D02*
X49450Y-34050D01*
X49450Y-34050D02*
X52450Y-34050D01*
X52450Y-34050D02*
X52450Y-35050D01*
X52450Y-35050D02*
X49450Y-35050D01*
X50450Y-34050D02*
X50450Y-35050D01*
X49450Y-34050D02*
X49450Y-33050D01*
X49450Y-33050D02*
X52450Y-33050D01*
X52450Y-33050D02*
X52450Y-34050D01*
X52450Y-34050D02*
X49450Y-34050D01*
X50450Y-33050D02*
X50450Y-34050D01*
X42250Y-37000D02*
X42250Y-36000D01*
X42250Y-36000D02*
X45250Y-36000D01*
X45250Y-36000D02*
X45250Y-37000D01*
X45250Y-37000D02*
X42250Y-37000D01*
X43250Y-36000D02*
X43250Y-37000D01*
X42250Y-36000D02*
X42250Y-35000D01*
X42250Y-35000D02*
X45250Y-35000D01*
X45250Y-35000D02*
X45250Y-36000D01*
X45250Y-36000D02*
X42250Y-36000D01*
X43250Y-35000D02*
X43250Y-36000D01*
X49250Y-46650D02*
X49250Y-45650D01*
X49250Y-45650D02*
X52250Y-45650D01*
X52250Y-45650D02*
X52250Y-46650D01*
X52250Y-46650D02*
X49250Y-46650D01*
X50250Y-45650D02*
X50250Y-46650D01*
X49250Y-47650D02*
X49250Y-46650D01*
X49250Y-46650D02*
X52250Y-46650D01*
X52250Y-46650D02*
X52250Y-47650D01*
X52250Y-47650D02*
X49250Y-47650D01*
X50250Y-46650D02*
X50250Y-47650D01*
X52700Y-40000D02*
X53700Y-40000D01*
X53700Y-40000D02*
X53700Y-43000D01*
X53700Y-43000D02*
X52700Y-43000D01*
X52700Y-43000D02*
X52700Y-40000D01*
X53700Y-41000D02*
X52700Y-41000D01*
M02*
