M48
;DRILL file {KiCad 5.0.2-bee76a0~70~ubuntu18.04.1} date Mon 08 Jul 2019 10:40:42 AM CEST
;FORMAT={3:3/ absolute / metric / suppress leading zeros}
FMAT,2
METRIC,TZ
T1C0.800
T2C0.900
T3C1.000
T4C1.100
T5C4.500
%
G90
G05
T1
X163144Y-32347
X163144Y-34887
X157406Y-32347
X159906Y-32347
X169368Y-45809
X171908Y-45809
X128156Y-38570
X128156Y-41110
X160732Y-57152
X160732Y-59652
X167780Y-42507
X170320Y-42507
X160732Y-40348
X160732Y-42848
X150952Y-62002
X150952Y-64542
X160732Y-52032
X160732Y-54532
X146571Y-41237
X149111Y-41237
X149111Y-43777
X151651Y-41237
X141237Y-46063
X141237Y-48603
X141237Y-51143
X143777Y-48603
X157430Y-36856
X159970Y-36856
X146444Y-29172
X146444Y-31712
X146444Y-34252
X146444Y-36792
X154064Y-29172
X154064Y-31712
X154064Y-34252
X154064Y-36792
X167970Y-57112
X167970Y-59652
X167820Y-38125
X170320Y-38125
X156922Y-40348
X156922Y-42888
X156922Y-45428
X156922Y-47968
X164542Y-40348
X164542Y-42888
X164542Y-45428
X164542Y-47968
X141872Y-38570
X141872Y-41070
X165938Y-63081
X168478Y-63081
X157406Y-26505
X159906Y-26505
X134506Y-53556
X137046Y-53556
X152222Y-56604
X152222Y-59104
X160604Y-62637
X163104Y-62637
X138443Y-70257
X138443Y-72797
X160732Y-45468
X160732Y-47968
X137300Y-38570
X137300Y-41110
X156922Y-52032
X156922Y-54572
X156922Y-57112
X156922Y-59652
X164542Y-52032
X164542Y-54572
X164542Y-57112
X164542Y-59652
X143078Y-30251
X143078Y-32792
X139840Y-56985
X139840Y-59525
X139840Y-62065
X139840Y-64605
X147460Y-56985
X147460Y-59525
X147460Y-62065
X147460Y-64605
X172542Y-57112
X172542Y-59612
X134506Y-50000
X137046Y-50000
X142126Y-70257
X142126Y-72797
X143650Y-56985
X143650Y-59485
X134506Y-46444
X137046Y-46444
X138951Y-67526
X141451Y-67526
X143650Y-62065
X143650Y-64565
X132728Y-38570
X132728Y-41070
X155270Y-63018
X157810Y-63018
T2
X169304Y-49810
X171844Y-49810
T3
X123457Y-47460
X123457Y-50000
X123457Y-52540
X167018Y-29426
X168814Y-31222
X170610Y-33018
X147460Y-23457
X150000Y-23457
X152540Y-23457
X135903Y-59525
X135903Y-62065
X129390Y-33018
X131186Y-31222
X132982Y-29426
X129490Y-66955
X131286Y-68751
X133082Y-70547
X176543Y-47460
X176543Y-50000
X176543Y-52540
X147460Y-76543
X150000Y-76543
X152540Y-76543
X167000Y-70592
X168796Y-68796
X170592Y-67000
T4
X129744Y-59525
X132284Y-59525
X140475Y-26886
X143015Y-26886
X128664Y-53556
X131204Y-53556
X128664Y-46444
X131204Y-46444
X128664Y-50000
X131204Y-50000
T5
X150000Y-50000
T0
M30
