G04 #@! TF.GenerationSoftware,KiCad,Pcbnew,5.0.2-bee76a0~70~ubuntu18.04.1*
G04 #@! TF.CreationDate,2019-07-06T23:51:27+02:00*
G04 #@! TF.ProjectId,neuromime_1.0.1,6e657572-6f6d-4696-9d65-5f312e302e31,rev?*
G04 #@! TF.SameCoordinates,Original*
G04 #@! TF.FileFunction,Legend,Top*
G04 #@! TF.FilePolarity,Positive*
%FSLAX46Y46*%
G04 Gerber Fmt 4.6, Leading zero omitted, Abs format (unit mm)*
G04 Created by KiCad (PCBNEW 5.0.2-bee76a0~70~ubuntu18.04.1) date Sat 06 Jul 2019 11:51:27 PM CEST*
%MOMM*%
%LPD*%
G01*
G04 APERTURE LIST*
%ADD10C,0.150000*%
%ADD11C,0.120000*%
G04 APERTURE END LIST*
D10*
G36*
X150635000Y-67145000D02*
X150635000Y-73495000D01*
X163335000Y-73495000D01*
X163335000Y-67145000D01*
X150635000Y-67145000D01*
G37*
X150635000Y-67145000D02*
X150635000Y-73495000D01*
X163335000Y-73495000D01*
X163335000Y-67145000D01*
X150635000Y-67145000D01*
D11*
G04 #@! TO.C,K1*
X153870000Y-24219000D02*
X153870000Y-25329000D01*
X153870000Y-25329000D02*
X152540000Y-25329000D01*
X153870000Y-14129000D02*
X146130000Y-14129000D01*
X146130000Y-14129000D02*
X146130000Y-22759000D01*
X153870000Y-22759000D02*
X146130000Y-22759000D01*
X153870000Y-14129000D02*
X153870000Y-22759000D01*
X148730000Y-14129000D02*
X148730000Y-22759000D01*
X151270000Y-14129000D02*
X151270000Y-22759000D01*
X147100000Y-22759000D02*
X147100000Y-23169000D01*
X147820000Y-22759000D02*
X147820000Y-23169000D01*
X149640000Y-22759000D02*
X149640000Y-23169000D01*
X150360000Y-22759000D02*
X150360000Y-23169000D01*
X152180000Y-22759000D02*
X152180000Y-23109000D01*
X152900000Y-22759000D02*
X152900000Y-23109000D01*
X151388100Y-14129000D02*
X151388100Y-22759000D01*
X151506195Y-14129000D02*
X151506195Y-22759000D01*
X151624290Y-14129000D02*
X151624290Y-22759000D01*
X151742385Y-14129000D02*
X151742385Y-22759000D01*
X151860480Y-14129000D02*
X151860480Y-22759000D01*
X151978575Y-14129000D02*
X151978575Y-22759000D01*
X152096670Y-14129000D02*
X152096670Y-22759000D01*
X152214765Y-14129000D02*
X152214765Y-22759000D01*
X152332860Y-14129000D02*
X152332860Y-22759000D01*
X152450955Y-14129000D02*
X152450955Y-22759000D01*
X152569050Y-14129000D02*
X152569050Y-22759000D01*
X152687145Y-14129000D02*
X152687145Y-22759000D01*
X152805240Y-14129000D02*
X152805240Y-22759000D01*
X152923335Y-14129000D02*
X152923335Y-22759000D01*
X153041430Y-14129000D02*
X153041430Y-22759000D01*
X153159525Y-14129000D02*
X153159525Y-22759000D01*
X153277620Y-14129000D02*
X153277620Y-22759000D01*
X153395715Y-14129000D02*
X153395715Y-22759000D01*
X153513810Y-14129000D02*
X153513810Y-22759000D01*
X153631905Y-14129000D02*
X153631905Y-22759000D01*
X153750000Y-14129000D02*
X153750000Y-22759000D01*
G04 #@! TO.C,D6*
X172500335Y-49810392D02*
G75*
G03X169268000Y-49653484I-1672335J-1078608D01*
G01*
X172500335Y-51967608D02*
G75*
G02X169268000Y-52124516I-1672335J1078608D01*
G01*
X171869130Y-49809163D02*
G75*
G03X169787039Y-49809000I-1041130J-1079837D01*
G01*
X171869130Y-51968837D02*
G75*
G02X169787039Y-51969000I-1041130J1079837D01*
G01*
X169268000Y-49653000D02*
X169268000Y-49809000D01*
X169268000Y-51969000D02*
X169268000Y-52125000D01*
G04 #@! TO.C,D5*
X129661551Y-58992634D02*
G75*
G03X129721153Y-61260000I-1251551J-1167366D01*
G01*
G04 #@! TO.C,D4*
X129063449Y-51167366D02*
G75*
G03X129003847Y-48900000I1251551J1167366D01*
G01*
G04 #@! TO.C,D3*
X129063449Y-54977366D02*
G75*
G03X129003847Y-52710000I1251551J1167366D01*
G01*
G04 #@! TO.C,W3*
X134065000Y-64030000D02*
X136725000Y-64030000D01*
X134065000Y-61430000D02*
X134065000Y-64030000D01*
X136725000Y-61430000D02*
X136725000Y-64030000D01*
X134065000Y-61430000D02*
X136725000Y-61430000D01*
X134065000Y-60160000D02*
X134065000Y-58830000D01*
X134065000Y-58830000D02*
X135395000Y-58830000D01*
G04 #@! TO.C,P2*
X164586949Y-30061000D02*
X165484974Y-29162974D01*
X165484974Y-30959026D02*
X164586949Y-30061000D01*
X170981265Y-33184341D02*
X171262037Y-32903569D01*
X170443864Y-32646940D02*
X170724636Y-32366168D01*
X177385582Y-26780025D02*
X173142941Y-31022665D01*
X176848180Y-26242623D02*
X177385582Y-26780025D01*
X172605540Y-30485264D02*
X176848180Y-26242623D01*
X170095311Y-31736843D02*
X171976215Y-29855939D01*
X169185214Y-31388290D02*
X169465986Y-31107518D01*
X168647813Y-30850888D02*
X168928584Y-30570117D01*
X175589530Y-24983973D02*
X171346890Y-29226614D01*
X175052129Y-24446572D02*
X175589530Y-24983973D01*
X170809488Y-28689213D02*
X175052129Y-24446572D01*
X168299259Y-29940792D02*
X170180163Y-28059888D01*
X167436589Y-29544812D02*
X167669934Y-29311467D01*
X166899188Y-29007411D02*
X167132533Y-28774066D01*
X169480128Y-27359852D02*
X173722768Y-23117211D01*
X169395275Y-27274999D02*
X173637916Y-23032359D01*
X169310422Y-27190146D02*
X173553063Y-22947506D01*
X169225569Y-27105294D02*
X173468210Y-22862653D01*
X169140716Y-27020441D02*
X173383357Y-22777800D01*
X169055864Y-26935588D02*
X173298504Y-22692947D01*
X173793479Y-23187922D02*
X169550838Y-27430563D01*
X173256078Y-22650521D02*
X173793479Y-23187922D01*
X169013437Y-26893162D02*
X173256078Y-22650521D01*
X168341686Y-26221410D02*
X166460782Y-28102314D01*
X173814692Y-31694417D02*
X168341686Y-26221410D01*
X171933788Y-33575321D02*
X173814692Y-31694417D01*
X166460782Y-28102314D02*
X171933788Y-33575321D01*
G04 #@! TO.C,P4*
X170066000Y-64713949D02*
X170964026Y-65611974D01*
X169167974Y-65611974D02*
X170066000Y-64713949D01*
X166942659Y-71108265D02*
X167223431Y-71389037D01*
X167480060Y-70570864D02*
X167760832Y-70851636D01*
X173346975Y-77512582D02*
X169104335Y-73269941D01*
X173884377Y-76975180D02*
X173346975Y-77512582D01*
X169641736Y-72732540D02*
X173884377Y-76975180D01*
X168390157Y-70222311D02*
X170271061Y-72103215D01*
X168738710Y-69312214D02*
X169019482Y-69592986D01*
X169276112Y-68774813D02*
X169556883Y-69055584D01*
X175143027Y-75716530D02*
X170900386Y-71473890D01*
X175680428Y-75179129D02*
X175143027Y-75716530D01*
X171437787Y-70936488D02*
X175680428Y-75179129D01*
X170186208Y-68426259D02*
X172067112Y-70307163D01*
X170582188Y-67563589D02*
X170815533Y-67796934D01*
X171119589Y-67026188D02*
X171352934Y-67259533D01*
X172767148Y-69607128D02*
X177009789Y-73849768D01*
X172852001Y-69522275D02*
X177094641Y-73764916D01*
X172936854Y-69437422D02*
X177179494Y-73680063D01*
X173021706Y-69352569D02*
X177264347Y-73595210D01*
X173106559Y-69267716D02*
X177349200Y-73510357D01*
X173191412Y-69182864D02*
X177434053Y-73425504D01*
X176939078Y-73920479D02*
X172696437Y-69677838D01*
X177476479Y-73383078D02*
X176939078Y-73920479D01*
X173233838Y-69140437D02*
X177476479Y-73383078D01*
X173905590Y-68468686D02*
X172024686Y-66587782D01*
X168432583Y-73941692D02*
X173905590Y-68468686D01*
X166551679Y-72060788D02*
X168432583Y-73941692D01*
X172024686Y-66587782D02*
X166551679Y-72060788D01*
G04 #@! TO.C,C4*
X134535225Y-32082500D02*
X134535225Y-32582500D01*
X134285225Y-32332500D02*
X134785225Y-32332500D01*
X139691000Y-33523500D02*
X139691000Y-34091500D01*
X139651000Y-33289500D02*
X139651000Y-34325500D01*
X139611000Y-33130500D02*
X139611000Y-34484500D01*
X139571000Y-33002500D02*
X139571000Y-34612500D01*
X139531000Y-32892500D02*
X139531000Y-34722500D01*
X139491000Y-32796500D02*
X139491000Y-34818500D01*
X139451000Y-32709500D02*
X139451000Y-34905500D01*
X139411000Y-32629500D02*
X139411000Y-34985500D01*
X139371000Y-34847500D02*
X139371000Y-35058500D01*
X139371000Y-32556500D02*
X139371000Y-32767500D01*
X139331000Y-34847500D02*
X139331000Y-35126500D01*
X139331000Y-32488500D02*
X139331000Y-32767500D01*
X139291000Y-34847500D02*
X139291000Y-35190500D01*
X139291000Y-32424500D02*
X139291000Y-32767500D01*
X139251000Y-34847500D02*
X139251000Y-35250500D01*
X139251000Y-32364500D02*
X139251000Y-32767500D01*
X139211000Y-34847500D02*
X139211000Y-35307500D01*
X139211000Y-32307500D02*
X139211000Y-32767500D01*
X139171000Y-34847500D02*
X139171000Y-35361500D01*
X139171000Y-32253500D02*
X139171000Y-32767500D01*
X139131000Y-34847500D02*
X139131000Y-35412500D01*
X139131000Y-32202500D02*
X139131000Y-32767500D01*
X139091000Y-34847500D02*
X139091000Y-35460500D01*
X139091000Y-32154500D02*
X139091000Y-32767500D01*
X139051000Y-34847500D02*
X139051000Y-35506500D01*
X139051000Y-32108500D02*
X139051000Y-32767500D01*
X139011000Y-34847500D02*
X139011000Y-35550500D01*
X139011000Y-32064500D02*
X139011000Y-32767500D01*
X138971000Y-34847500D02*
X138971000Y-35592500D01*
X138971000Y-32022500D02*
X138971000Y-32767500D01*
X138931000Y-34847500D02*
X138931000Y-35633500D01*
X138931000Y-31981500D02*
X138931000Y-32767500D01*
X138891000Y-34847500D02*
X138891000Y-35671500D01*
X138891000Y-31943500D02*
X138891000Y-32767500D01*
X138851000Y-34847500D02*
X138851000Y-35708500D01*
X138851000Y-31906500D02*
X138851000Y-32767500D01*
X138811000Y-34847500D02*
X138811000Y-35744500D01*
X138811000Y-31870500D02*
X138811000Y-32767500D01*
X138771000Y-34847500D02*
X138771000Y-35778500D01*
X138771000Y-31836500D02*
X138771000Y-32767500D01*
X138731000Y-34847500D02*
X138731000Y-35811500D01*
X138731000Y-31803500D02*
X138731000Y-32767500D01*
X138691000Y-34847500D02*
X138691000Y-35842500D01*
X138691000Y-31772500D02*
X138691000Y-32767500D01*
X138651000Y-34847500D02*
X138651000Y-35872500D01*
X138651000Y-31742500D02*
X138651000Y-32767500D01*
X138611000Y-34847500D02*
X138611000Y-35902500D01*
X138611000Y-31712500D02*
X138611000Y-32767500D01*
X138571000Y-34847500D02*
X138571000Y-35929500D01*
X138571000Y-31685500D02*
X138571000Y-32767500D01*
X138531000Y-34847500D02*
X138531000Y-35956500D01*
X138531000Y-31658500D02*
X138531000Y-32767500D01*
X138491000Y-34847500D02*
X138491000Y-35982500D01*
X138491000Y-31632500D02*
X138491000Y-32767500D01*
X138451000Y-34847500D02*
X138451000Y-36007500D01*
X138451000Y-31607500D02*
X138451000Y-32767500D01*
X138411000Y-34847500D02*
X138411000Y-36031500D01*
X138411000Y-31583500D02*
X138411000Y-32767500D01*
X138371000Y-34847500D02*
X138371000Y-36054500D01*
X138371000Y-31560500D02*
X138371000Y-32767500D01*
X138331000Y-34847500D02*
X138331000Y-36075500D01*
X138331000Y-31539500D02*
X138331000Y-32767500D01*
X138291000Y-34847500D02*
X138291000Y-36097500D01*
X138291000Y-31517500D02*
X138291000Y-32767500D01*
X138251000Y-34847500D02*
X138251000Y-36117500D01*
X138251000Y-31497500D02*
X138251000Y-32767500D01*
X138211000Y-34847500D02*
X138211000Y-36136500D01*
X138211000Y-31478500D02*
X138211000Y-32767500D01*
X138171000Y-34847500D02*
X138171000Y-36155500D01*
X138171000Y-31459500D02*
X138171000Y-32767500D01*
X138131000Y-34847500D02*
X138131000Y-36172500D01*
X138131000Y-31442500D02*
X138131000Y-32767500D01*
X138091000Y-34847500D02*
X138091000Y-36189500D01*
X138091000Y-31425500D02*
X138091000Y-32767500D01*
X138051000Y-34847500D02*
X138051000Y-36205500D01*
X138051000Y-31409500D02*
X138051000Y-32767500D01*
X138011000Y-34847500D02*
X138011000Y-36221500D01*
X138011000Y-31393500D02*
X138011000Y-32767500D01*
X137971000Y-34847500D02*
X137971000Y-36235500D01*
X137971000Y-31379500D02*
X137971000Y-32767500D01*
X137931000Y-34847500D02*
X137931000Y-36249500D01*
X137931000Y-31365500D02*
X137931000Y-32767500D01*
X137891000Y-34847500D02*
X137891000Y-36262500D01*
X137891000Y-31352500D02*
X137891000Y-32767500D01*
X137851000Y-34847500D02*
X137851000Y-36275500D01*
X137851000Y-31339500D02*
X137851000Y-32767500D01*
X137811000Y-34847500D02*
X137811000Y-36287500D01*
X137811000Y-31327500D02*
X137811000Y-32767500D01*
X137770000Y-34847500D02*
X137770000Y-36298500D01*
X137770000Y-31316500D02*
X137770000Y-32767500D01*
X137730000Y-34847500D02*
X137730000Y-36308500D01*
X137730000Y-31306500D02*
X137730000Y-32767500D01*
X137690000Y-34847500D02*
X137690000Y-36318500D01*
X137690000Y-31296500D02*
X137690000Y-32767500D01*
X137650000Y-34847500D02*
X137650000Y-36327500D01*
X137650000Y-31287500D02*
X137650000Y-32767500D01*
X137610000Y-34847500D02*
X137610000Y-36335500D01*
X137610000Y-31279500D02*
X137610000Y-32767500D01*
X137570000Y-34847500D02*
X137570000Y-36343500D01*
X137570000Y-31271500D02*
X137570000Y-32767500D01*
X137530000Y-34847500D02*
X137530000Y-36350500D01*
X137530000Y-31264500D02*
X137530000Y-32767500D01*
X137490000Y-34847500D02*
X137490000Y-36357500D01*
X137490000Y-31257500D02*
X137490000Y-32767500D01*
X137450000Y-34847500D02*
X137450000Y-36363500D01*
X137450000Y-31251500D02*
X137450000Y-32767500D01*
X137410000Y-34847500D02*
X137410000Y-36368500D01*
X137410000Y-31246500D02*
X137410000Y-32767500D01*
X137370000Y-34847500D02*
X137370000Y-36372500D01*
X137370000Y-31242500D02*
X137370000Y-32767500D01*
X137330000Y-34847500D02*
X137330000Y-36376500D01*
X137330000Y-31238500D02*
X137330000Y-32767500D01*
X137290000Y-31234500D02*
X137290000Y-36380500D01*
X137250000Y-31231500D02*
X137250000Y-36383500D01*
X137210000Y-31229500D02*
X137210000Y-36385500D01*
X137170000Y-31228500D02*
X137170000Y-36386500D01*
X137130000Y-31227500D02*
X137130000Y-36387500D01*
X137090000Y-31227500D02*
X137090000Y-36387500D01*
X139710000Y-33807500D02*
G75*
G03X139710000Y-33807500I-2620000J0D01*
G01*
G04 #@! TO.C,K2*
X134557452Y-29120548D02*
X135342341Y-29905437D01*
X135342341Y-29905437D02*
X134401889Y-30845889D01*
X127422745Y-21985841D02*
X121949738Y-27458847D01*
X121949738Y-27458847D02*
X128052070Y-33561179D01*
X133525076Y-28088172D02*
X128052070Y-33561179D01*
X127422745Y-21985841D02*
X133525076Y-28088172D01*
X123788216Y-25620369D02*
X129890547Y-31722701D01*
X125584267Y-23824318D02*
X131686598Y-29926650D01*
X128737963Y-32875285D02*
X129027877Y-33165199D01*
X129247080Y-32366168D02*
X129536994Y-32656082D01*
X130534014Y-31079234D02*
X130823928Y-31369148D01*
X131043131Y-30570117D02*
X131333045Y-30860031D01*
X132330066Y-29283183D02*
X132577553Y-29530670D01*
X132839183Y-28774066D02*
X133086670Y-29021553D01*
X125667776Y-23740809D02*
X131770108Y-29843140D01*
X125751282Y-23657303D02*
X131853614Y-29759635D01*
X125834788Y-23573797D02*
X131937119Y-29676129D01*
X125918294Y-23490292D02*
X132020625Y-29592623D01*
X126001799Y-23406786D02*
X132104131Y-29509117D01*
X126085305Y-23323280D02*
X132187637Y-29425612D01*
X126168811Y-23239774D02*
X132271142Y-29342106D01*
X126252317Y-23156268D02*
X132354648Y-29258600D01*
X126335822Y-23072763D02*
X132438154Y-29175094D01*
X126419328Y-22989257D02*
X132521660Y-29091588D01*
X126502834Y-22905751D02*
X132605166Y-29008083D01*
X126586340Y-22822245D02*
X132688671Y-28924577D01*
X126669846Y-22738740D02*
X132772177Y-28841071D01*
X126753351Y-22655234D02*
X132855683Y-28757565D01*
X126836857Y-22571728D02*
X132939189Y-28674060D01*
X126920363Y-22488222D02*
X133022694Y-28590554D01*
X127003869Y-22404716D02*
X133106200Y-28507048D01*
X127087374Y-22321211D02*
X133189706Y-28423542D01*
X127170880Y-22237705D02*
X133273212Y-28340036D01*
X127254386Y-22154199D02*
X133356718Y-28256531D01*
X127337892Y-22070693D02*
X133440223Y-28173025D01*
G04 #@! TO.C,R2*
X134660000Y-46190000D02*
X134590000Y-46190000D01*
X137400000Y-46190000D02*
G75*
G03X137400000Y-46190000I-1370000J0D01*
G01*
G04 #@! TO.C,U4*
X144650000Y-55655000D02*
G75*
G02X142650000Y-55655000I-1000000J0D01*
G01*
X142650000Y-55655000D02*
X141000000Y-55655000D01*
X141000000Y-55655000D02*
X141000000Y-65935000D01*
X141000000Y-65935000D02*
X146300000Y-65935000D01*
X146300000Y-65935000D02*
X146300000Y-55655000D01*
X146300000Y-55655000D02*
X144650000Y-55655000D01*
X138510000Y-55595000D02*
X138510000Y-65995000D01*
X138510000Y-65995000D02*
X148790000Y-65995000D01*
X148790000Y-65995000D02*
X148790000Y-55595000D01*
X148790000Y-55595000D02*
X138510000Y-55595000D01*
G04 #@! TO.C,C14*
X173618000Y-61049000D02*
G75*
G03X173618000Y-61049000I-2620000J0D01*
G01*
X170998000Y-58469000D02*
X170998000Y-63629000D01*
X171038000Y-58469000D02*
X171038000Y-63629000D01*
X171078000Y-58470000D02*
X171078000Y-63628000D01*
X171118000Y-58471000D02*
X171118000Y-63627000D01*
X171158000Y-58473000D02*
X171158000Y-63625000D01*
X171198000Y-58476000D02*
X171198000Y-63622000D01*
X171238000Y-58480000D02*
X171238000Y-60009000D01*
X171238000Y-62089000D02*
X171238000Y-63618000D01*
X171278000Y-58484000D02*
X171278000Y-60009000D01*
X171278000Y-62089000D02*
X171278000Y-63614000D01*
X171318000Y-58488000D02*
X171318000Y-60009000D01*
X171318000Y-62089000D02*
X171318000Y-63610000D01*
X171358000Y-58493000D02*
X171358000Y-60009000D01*
X171358000Y-62089000D02*
X171358000Y-63605000D01*
X171398000Y-58499000D02*
X171398000Y-60009000D01*
X171398000Y-62089000D02*
X171398000Y-63599000D01*
X171438000Y-58506000D02*
X171438000Y-60009000D01*
X171438000Y-62089000D02*
X171438000Y-63592000D01*
X171478000Y-58513000D02*
X171478000Y-60009000D01*
X171478000Y-62089000D02*
X171478000Y-63585000D01*
X171518000Y-58521000D02*
X171518000Y-60009000D01*
X171518000Y-62089000D02*
X171518000Y-63577000D01*
X171558000Y-58529000D02*
X171558000Y-60009000D01*
X171558000Y-62089000D02*
X171558000Y-63569000D01*
X171598000Y-58538000D02*
X171598000Y-60009000D01*
X171598000Y-62089000D02*
X171598000Y-63560000D01*
X171638000Y-58548000D02*
X171638000Y-60009000D01*
X171638000Y-62089000D02*
X171638000Y-63550000D01*
X171678000Y-58558000D02*
X171678000Y-60009000D01*
X171678000Y-62089000D02*
X171678000Y-63540000D01*
X171719000Y-58569000D02*
X171719000Y-60009000D01*
X171719000Y-62089000D02*
X171719000Y-63529000D01*
X171759000Y-58581000D02*
X171759000Y-60009000D01*
X171759000Y-62089000D02*
X171759000Y-63517000D01*
X171799000Y-58594000D02*
X171799000Y-60009000D01*
X171799000Y-62089000D02*
X171799000Y-63504000D01*
X171839000Y-58607000D02*
X171839000Y-60009000D01*
X171839000Y-62089000D02*
X171839000Y-63491000D01*
X171879000Y-58621000D02*
X171879000Y-60009000D01*
X171879000Y-62089000D02*
X171879000Y-63477000D01*
X171919000Y-58635000D02*
X171919000Y-60009000D01*
X171919000Y-62089000D02*
X171919000Y-63463000D01*
X171959000Y-58651000D02*
X171959000Y-60009000D01*
X171959000Y-62089000D02*
X171959000Y-63447000D01*
X171999000Y-58667000D02*
X171999000Y-60009000D01*
X171999000Y-62089000D02*
X171999000Y-63431000D01*
X172039000Y-58684000D02*
X172039000Y-60009000D01*
X172039000Y-62089000D02*
X172039000Y-63414000D01*
X172079000Y-58701000D02*
X172079000Y-60009000D01*
X172079000Y-62089000D02*
X172079000Y-63397000D01*
X172119000Y-58720000D02*
X172119000Y-60009000D01*
X172119000Y-62089000D02*
X172119000Y-63378000D01*
X172159000Y-58739000D02*
X172159000Y-60009000D01*
X172159000Y-62089000D02*
X172159000Y-63359000D01*
X172199000Y-58759000D02*
X172199000Y-60009000D01*
X172199000Y-62089000D02*
X172199000Y-63339000D01*
X172239000Y-58781000D02*
X172239000Y-60009000D01*
X172239000Y-62089000D02*
X172239000Y-63317000D01*
X172279000Y-58802000D02*
X172279000Y-60009000D01*
X172279000Y-62089000D02*
X172279000Y-63296000D01*
X172319000Y-58825000D02*
X172319000Y-60009000D01*
X172319000Y-62089000D02*
X172319000Y-63273000D01*
X172359000Y-58849000D02*
X172359000Y-60009000D01*
X172359000Y-62089000D02*
X172359000Y-63249000D01*
X172399000Y-58874000D02*
X172399000Y-60009000D01*
X172399000Y-62089000D02*
X172399000Y-63224000D01*
X172439000Y-58900000D02*
X172439000Y-60009000D01*
X172439000Y-62089000D02*
X172439000Y-63198000D01*
X172479000Y-58927000D02*
X172479000Y-60009000D01*
X172479000Y-62089000D02*
X172479000Y-63171000D01*
X172519000Y-58954000D02*
X172519000Y-60009000D01*
X172519000Y-62089000D02*
X172519000Y-63144000D01*
X172559000Y-58984000D02*
X172559000Y-60009000D01*
X172559000Y-62089000D02*
X172559000Y-63114000D01*
X172599000Y-59014000D02*
X172599000Y-60009000D01*
X172599000Y-62089000D02*
X172599000Y-63084000D01*
X172639000Y-59045000D02*
X172639000Y-60009000D01*
X172639000Y-62089000D02*
X172639000Y-63053000D01*
X172679000Y-59078000D02*
X172679000Y-60009000D01*
X172679000Y-62089000D02*
X172679000Y-63020000D01*
X172719000Y-59112000D02*
X172719000Y-60009000D01*
X172719000Y-62089000D02*
X172719000Y-62986000D01*
X172759000Y-59148000D02*
X172759000Y-60009000D01*
X172759000Y-62089000D02*
X172759000Y-62950000D01*
X172799000Y-59185000D02*
X172799000Y-60009000D01*
X172799000Y-62089000D02*
X172799000Y-62913000D01*
X172839000Y-59223000D02*
X172839000Y-60009000D01*
X172839000Y-62089000D02*
X172839000Y-62875000D01*
X172879000Y-59264000D02*
X172879000Y-60009000D01*
X172879000Y-62089000D02*
X172879000Y-62834000D01*
X172919000Y-59306000D02*
X172919000Y-60009000D01*
X172919000Y-62089000D02*
X172919000Y-62792000D01*
X172959000Y-59350000D02*
X172959000Y-60009000D01*
X172959000Y-62089000D02*
X172959000Y-62748000D01*
X172999000Y-59396000D02*
X172999000Y-60009000D01*
X172999000Y-62089000D02*
X172999000Y-62702000D01*
X173039000Y-59444000D02*
X173039000Y-60009000D01*
X173039000Y-62089000D02*
X173039000Y-62654000D01*
X173079000Y-59495000D02*
X173079000Y-60009000D01*
X173079000Y-62089000D02*
X173079000Y-62603000D01*
X173119000Y-59549000D02*
X173119000Y-60009000D01*
X173119000Y-62089000D02*
X173119000Y-62549000D01*
X173159000Y-59606000D02*
X173159000Y-60009000D01*
X173159000Y-62089000D02*
X173159000Y-62492000D01*
X173199000Y-59666000D02*
X173199000Y-60009000D01*
X173199000Y-62089000D02*
X173199000Y-62432000D01*
X173239000Y-59730000D02*
X173239000Y-60009000D01*
X173239000Y-62089000D02*
X173239000Y-62368000D01*
X173279000Y-59798000D02*
X173279000Y-60009000D01*
X173279000Y-62089000D02*
X173279000Y-62300000D01*
X173319000Y-59871000D02*
X173319000Y-62227000D01*
X173359000Y-59951000D02*
X173359000Y-62147000D01*
X173399000Y-60038000D02*
X173399000Y-62060000D01*
X173439000Y-60134000D02*
X173439000Y-61964000D01*
X173479000Y-60244000D02*
X173479000Y-61854000D01*
X173519000Y-60372000D02*
X173519000Y-61726000D01*
X173559000Y-60531000D02*
X173559000Y-61567000D01*
X173599000Y-60765000D02*
X173599000Y-61333000D01*
X168193225Y-59574000D02*
X168693225Y-59574000D01*
X168443225Y-59324000D02*
X168443225Y-59824000D01*
G04 #@! TO.C,R14*
X173341000Y-56286500D02*
G75*
G03X173341000Y-56286500I-1370000J0D01*
G01*
X173341000Y-56286500D02*
X173411000Y-56286500D01*
G04 #@! TO.C,C11*
X136501000Y-66479000D02*
X137759000Y-66479000D01*
X136501000Y-68319000D02*
X137759000Y-68319000D01*
G04 #@! TO.C,C12*
X160066000Y-52653000D02*
X160066000Y-53911000D01*
X161906000Y-52653000D02*
X161906000Y-53911000D01*
G04 #@! TO.C,C13*
X160066000Y-40969000D02*
X160066000Y-42227000D01*
X161906000Y-40969000D02*
X161906000Y-42227000D01*
G04 #@! TO.C,C15*
X160066000Y-59031000D02*
X160066000Y-57773000D01*
X161906000Y-59031000D02*
X161906000Y-57773000D01*
G04 #@! TO.C,C16*
X142730000Y-63944000D02*
X142730000Y-62686000D01*
X144570000Y-63944000D02*
X144570000Y-62686000D01*
G04 #@! TO.C,C17*
X149775225Y-56212500D02*
X149775225Y-56712500D01*
X149525225Y-56462500D02*
X150025225Y-56462500D01*
X154931000Y-57653500D02*
X154931000Y-58221500D01*
X154891000Y-57419500D02*
X154891000Y-58455500D01*
X154851000Y-57260500D02*
X154851000Y-58614500D01*
X154811000Y-57132500D02*
X154811000Y-58742500D01*
X154771000Y-57022500D02*
X154771000Y-58852500D01*
X154731000Y-56926500D02*
X154731000Y-58948500D01*
X154691000Y-56839500D02*
X154691000Y-59035500D01*
X154651000Y-56759500D02*
X154651000Y-59115500D01*
X154611000Y-58977500D02*
X154611000Y-59188500D01*
X154611000Y-56686500D02*
X154611000Y-56897500D01*
X154571000Y-58977500D02*
X154571000Y-59256500D01*
X154571000Y-56618500D02*
X154571000Y-56897500D01*
X154531000Y-58977500D02*
X154531000Y-59320500D01*
X154531000Y-56554500D02*
X154531000Y-56897500D01*
X154491000Y-58977500D02*
X154491000Y-59380500D01*
X154491000Y-56494500D02*
X154491000Y-56897500D01*
X154451000Y-58977500D02*
X154451000Y-59437500D01*
X154451000Y-56437500D02*
X154451000Y-56897500D01*
X154411000Y-58977500D02*
X154411000Y-59491500D01*
X154411000Y-56383500D02*
X154411000Y-56897500D01*
X154371000Y-58977500D02*
X154371000Y-59542500D01*
X154371000Y-56332500D02*
X154371000Y-56897500D01*
X154331000Y-58977500D02*
X154331000Y-59590500D01*
X154331000Y-56284500D02*
X154331000Y-56897500D01*
X154291000Y-58977500D02*
X154291000Y-59636500D01*
X154291000Y-56238500D02*
X154291000Y-56897500D01*
X154251000Y-58977500D02*
X154251000Y-59680500D01*
X154251000Y-56194500D02*
X154251000Y-56897500D01*
X154211000Y-58977500D02*
X154211000Y-59722500D01*
X154211000Y-56152500D02*
X154211000Y-56897500D01*
X154171000Y-58977500D02*
X154171000Y-59763500D01*
X154171000Y-56111500D02*
X154171000Y-56897500D01*
X154131000Y-58977500D02*
X154131000Y-59801500D01*
X154131000Y-56073500D02*
X154131000Y-56897500D01*
X154091000Y-58977500D02*
X154091000Y-59838500D01*
X154091000Y-56036500D02*
X154091000Y-56897500D01*
X154051000Y-58977500D02*
X154051000Y-59874500D01*
X154051000Y-56000500D02*
X154051000Y-56897500D01*
X154011000Y-58977500D02*
X154011000Y-59908500D01*
X154011000Y-55966500D02*
X154011000Y-56897500D01*
X153971000Y-58977500D02*
X153971000Y-59941500D01*
X153971000Y-55933500D02*
X153971000Y-56897500D01*
X153931000Y-58977500D02*
X153931000Y-59972500D01*
X153931000Y-55902500D02*
X153931000Y-56897500D01*
X153891000Y-58977500D02*
X153891000Y-60002500D01*
X153891000Y-55872500D02*
X153891000Y-56897500D01*
X153851000Y-58977500D02*
X153851000Y-60032500D01*
X153851000Y-55842500D02*
X153851000Y-56897500D01*
X153811000Y-58977500D02*
X153811000Y-60059500D01*
X153811000Y-55815500D02*
X153811000Y-56897500D01*
X153771000Y-58977500D02*
X153771000Y-60086500D01*
X153771000Y-55788500D02*
X153771000Y-56897500D01*
X153731000Y-58977500D02*
X153731000Y-60112500D01*
X153731000Y-55762500D02*
X153731000Y-56897500D01*
X153691000Y-58977500D02*
X153691000Y-60137500D01*
X153691000Y-55737500D02*
X153691000Y-56897500D01*
X153651000Y-58977500D02*
X153651000Y-60161500D01*
X153651000Y-55713500D02*
X153651000Y-56897500D01*
X153611000Y-58977500D02*
X153611000Y-60184500D01*
X153611000Y-55690500D02*
X153611000Y-56897500D01*
X153571000Y-58977500D02*
X153571000Y-60205500D01*
X153571000Y-55669500D02*
X153571000Y-56897500D01*
X153531000Y-58977500D02*
X153531000Y-60227500D01*
X153531000Y-55647500D02*
X153531000Y-56897500D01*
X153491000Y-58977500D02*
X153491000Y-60247500D01*
X153491000Y-55627500D02*
X153491000Y-56897500D01*
X153451000Y-58977500D02*
X153451000Y-60266500D01*
X153451000Y-55608500D02*
X153451000Y-56897500D01*
X153411000Y-58977500D02*
X153411000Y-60285500D01*
X153411000Y-55589500D02*
X153411000Y-56897500D01*
X153371000Y-58977500D02*
X153371000Y-60302500D01*
X153371000Y-55572500D02*
X153371000Y-56897500D01*
X153331000Y-58977500D02*
X153331000Y-60319500D01*
X153331000Y-55555500D02*
X153331000Y-56897500D01*
X153291000Y-58977500D02*
X153291000Y-60335500D01*
X153291000Y-55539500D02*
X153291000Y-56897500D01*
X153251000Y-58977500D02*
X153251000Y-60351500D01*
X153251000Y-55523500D02*
X153251000Y-56897500D01*
X153211000Y-58977500D02*
X153211000Y-60365500D01*
X153211000Y-55509500D02*
X153211000Y-56897500D01*
X153171000Y-58977500D02*
X153171000Y-60379500D01*
X153171000Y-55495500D02*
X153171000Y-56897500D01*
X153131000Y-58977500D02*
X153131000Y-60392500D01*
X153131000Y-55482500D02*
X153131000Y-56897500D01*
X153091000Y-58977500D02*
X153091000Y-60405500D01*
X153091000Y-55469500D02*
X153091000Y-56897500D01*
X153051000Y-58977500D02*
X153051000Y-60417500D01*
X153051000Y-55457500D02*
X153051000Y-56897500D01*
X153010000Y-58977500D02*
X153010000Y-60428500D01*
X153010000Y-55446500D02*
X153010000Y-56897500D01*
X152970000Y-58977500D02*
X152970000Y-60438500D01*
X152970000Y-55436500D02*
X152970000Y-56897500D01*
X152930000Y-58977500D02*
X152930000Y-60448500D01*
X152930000Y-55426500D02*
X152930000Y-56897500D01*
X152890000Y-58977500D02*
X152890000Y-60457500D01*
X152890000Y-55417500D02*
X152890000Y-56897500D01*
X152850000Y-58977500D02*
X152850000Y-60465500D01*
X152850000Y-55409500D02*
X152850000Y-56897500D01*
X152810000Y-58977500D02*
X152810000Y-60473500D01*
X152810000Y-55401500D02*
X152810000Y-56897500D01*
X152770000Y-58977500D02*
X152770000Y-60480500D01*
X152770000Y-55394500D02*
X152770000Y-56897500D01*
X152730000Y-58977500D02*
X152730000Y-60487500D01*
X152730000Y-55387500D02*
X152730000Y-56897500D01*
X152690000Y-58977500D02*
X152690000Y-60493500D01*
X152690000Y-55381500D02*
X152690000Y-56897500D01*
X152650000Y-58977500D02*
X152650000Y-60498500D01*
X152650000Y-55376500D02*
X152650000Y-56897500D01*
X152610000Y-58977500D02*
X152610000Y-60502500D01*
X152610000Y-55372500D02*
X152610000Y-56897500D01*
X152570000Y-58977500D02*
X152570000Y-60506500D01*
X152570000Y-55368500D02*
X152570000Y-56897500D01*
X152530000Y-55364500D02*
X152530000Y-60510500D01*
X152490000Y-55361500D02*
X152490000Y-60513500D01*
X152450000Y-55359500D02*
X152450000Y-60515500D01*
X152410000Y-55358500D02*
X152410000Y-60516500D01*
X152370000Y-55357500D02*
X152370000Y-60517500D01*
X152330000Y-55357500D02*
X152330000Y-60517500D01*
X154950000Y-57937500D02*
G75*
G03X154950000Y-57937500I-2620000J0D01*
G01*
G04 #@! TO.C,U1*
X151000000Y-27080000D02*
G75*
G02X149000000Y-27080000I-1000000J0D01*
G01*
X149000000Y-27080000D02*
X147350000Y-27080000D01*
X147350000Y-27080000D02*
X147350000Y-37360000D01*
X147350000Y-37360000D02*
X152650000Y-37360000D01*
X152650000Y-37360000D02*
X152650000Y-27080000D01*
X152650000Y-27080000D02*
X151000000Y-27080000D01*
X144860000Y-27020000D02*
X144860000Y-37420000D01*
X144860000Y-37420000D02*
X155140000Y-37420000D01*
X155140000Y-37420000D02*
X155140000Y-27020000D01*
X155140000Y-27020000D02*
X144860000Y-27020000D01*
G04 #@! TO.C,U2*
X166126000Y-38958000D02*
X155846000Y-38958000D01*
X166126000Y-49358000D02*
X166126000Y-38958000D01*
X155846000Y-49358000D02*
X166126000Y-49358000D01*
X155846000Y-38958000D02*
X155846000Y-49358000D01*
X163636000Y-39018000D02*
X161986000Y-39018000D01*
X163636000Y-49298000D02*
X163636000Y-39018000D01*
X158336000Y-49298000D02*
X163636000Y-49298000D01*
X158336000Y-39018000D02*
X158336000Y-49298000D01*
X159986000Y-39018000D02*
X158336000Y-39018000D01*
X161986000Y-39018000D02*
G75*
G02X159986000Y-39018000I-1000000J0D01*
G01*
G04 #@! TO.C,U3*
X161986000Y-50702000D02*
G75*
G02X159986000Y-50702000I-1000000J0D01*
G01*
X159986000Y-50702000D02*
X158336000Y-50702000D01*
X158336000Y-50702000D02*
X158336000Y-60982000D01*
X158336000Y-60982000D02*
X163636000Y-60982000D01*
X163636000Y-60982000D02*
X163636000Y-50702000D01*
X163636000Y-50702000D02*
X161986000Y-50702000D01*
X155846000Y-50642000D02*
X155846000Y-61042000D01*
X155846000Y-61042000D02*
X166126000Y-61042000D01*
X166126000Y-61042000D02*
X166126000Y-50642000D01*
X166126000Y-50642000D02*
X155846000Y-50642000D01*
G04 #@! TO.C,R12*
X157048000Y-64578000D02*
X157048000Y-64648000D01*
X158418000Y-63208000D02*
G75*
G03X158418000Y-63208000I-1370000J0D01*
G01*
G04 #@! TO.C,RV1*
X153475000Y-40017500D02*
X153475000Y-43122500D01*
X153475000Y-38382500D02*
X153475000Y-39027500D01*
X146525000Y-40017500D02*
X146525000Y-43122500D01*
X146525000Y-38382500D02*
X146525000Y-39027500D01*
X146525000Y-43122500D02*
X153475000Y-43122500D01*
X146525000Y-38382500D02*
X153475000Y-38382500D01*
G04 #@! TO.C,R4*
X137400000Y-50000000D02*
G75*
G03X137400000Y-50000000I-1370000J0D01*
G01*
X134660000Y-50000000D02*
X134590000Y-50000000D01*
G04 #@! TO.C,K4*
X114129000Y-46250000D02*
X122759000Y-46250000D01*
X114129000Y-46368095D02*
X122759000Y-46368095D01*
X114129000Y-46486190D02*
X122759000Y-46486190D01*
X114129000Y-46604285D02*
X122759000Y-46604285D01*
X114129000Y-46722380D02*
X122759000Y-46722380D01*
X114129000Y-46840475D02*
X122759000Y-46840475D01*
X114129000Y-46958570D02*
X122759000Y-46958570D01*
X114129000Y-47076665D02*
X122759000Y-47076665D01*
X114129000Y-47194760D02*
X122759000Y-47194760D01*
X114129000Y-47312855D02*
X122759000Y-47312855D01*
X114129000Y-47430950D02*
X122759000Y-47430950D01*
X114129000Y-47549045D02*
X122759000Y-47549045D01*
X114129000Y-47667140D02*
X122759000Y-47667140D01*
X114129000Y-47785235D02*
X122759000Y-47785235D01*
X114129000Y-47903330D02*
X122759000Y-47903330D01*
X114129000Y-48021425D02*
X122759000Y-48021425D01*
X114129000Y-48139520D02*
X122759000Y-48139520D01*
X114129000Y-48257615D02*
X122759000Y-48257615D01*
X114129000Y-48375710D02*
X122759000Y-48375710D01*
X114129000Y-48493805D02*
X122759000Y-48493805D01*
X114129000Y-48611900D02*
X122759000Y-48611900D01*
X122759000Y-47100000D02*
X123109000Y-47100000D01*
X122759000Y-47820000D02*
X123109000Y-47820000D01*
X122759000Y-49640000D02*
X123169000Y-49640000D01*
X122759000Y-50360000D02*
X123169000Y-50360000D01*
X122759000Y-52180000D02*
X123169000Y-52180000D01*
X122759000Y-52900000D02*
X123169000Y-52900000D01*
X114129000Y-48730000D02*
X122759000Y-48730000D01*
X114129000Y-51270000D02*
X122759000Y-51270000D01*
X114129000Y-46130000D02*
X122759000Y-46130000D01*
X122759000Y-46130000D02*
X122759000Y-53870000D01*
X114129000Y-53870000D02*
X122759000Y-53870000D01*
X114129000Y-46130000D02*
X114129000Y-53870000D01*
X125329000Y-46130000D02*
X125329000Y-47460000D01*
X124219000Y-46130000D02*
X125329000Y-46130000D01*
G04 #@! TO.C,C5*
X145869000Y-41491000D02*
G75*
G03X145869000Y-41491000I-2620000J0D01*
G01*
X143249000Y-38911000D02*
X143249000Y-44071000D01*
X143289000Y-38911000D02*
X143289000Y-44071000D01*
X143329000Y-38912000D02*
X143329000Y-44070000D01*
X143369000Y-38913000D02*
X143369000Y-44069000D01*
X143409000Y-38915000D02*
X143409000Y-44067000D01*
X143449000Y-38918000D02*
X143449000Y-44064000D01*
X143489000Y-38922000D02*
X143489000Y-40451000D01*
X143489000Y-42531000D02*
X143489000Y-44060000D01*
X143529000Y-38926000D02*
X143529000Y-40451000D01*
X143529000Y-42531000D02*
X143529000Y-44056000D01*
X143569000Y-38930000D02*
X143569000Y-40451000D01*
X143569000Y-42531000D02*
X143569000Y-44052000D01*
X143609000Y-38935000D02*
X143609000Y-40451000D01*
X143609000Y-42531000D02*
X143609000Y-44047000D01*
X143649000Y-38941000D02*
X143649000Y-40451000D01*
X143649000Y-42531000D02*
X143649000Y-44041000D01*
X143689000Y-38948000D02*
X143689000Y-40451000D01*
X143689000Y-42531000D02*
X143689000Y-44034000D01*
X143729000Y-38955000D02*
X143729000Y-40451000D01*
X143729000Y-42531000D02*
X143729000Y-44027000D01*
X143769000Y-38963000D02*
X143769000Y-40451000D01*
X143769000Y-42531000D02*
X143769000Y-44019000D01*
X143809000Y-38971000D02*
X143809000Y-40451000D01*
X143809000Y-42531000D02*
X143809000Y-44011000D01*
X143849000Y-38980000D02*
X143849000Y-40451000D01*
X143849000Y-42531000D02*
X143849000Y-44002000D01*
X143889000Y-38990000D02*
X143889000Y-40451000D01*
X143889000Y-42531000D02*
X143889000Y-43992000D01*
X143929000Y-39000000D02*
X143929000Y-40451000D01*
X143929000Y-42531000D02*
X143929000Y-43982000D01*
X143970000Y-39011000D02*
X143970000Y-40451000D01*
X143970000Y-42531000D02*
X143970000Y-43971000D01*
X144010000Y-39023000D02*
X144010000Y-40451000D01*
X144010000Y-42531000D02*
X144010000Y-43959000D01*
X144050000Y-39036000D02*
X144050000Y-40451000D01*
X144050000Y-42531000D02*
X144050000Y-43946000D01*
X144090000Y-39049000D02*
X144090000Y-40451000D01*
X144090000Y-42531000D02*
X144090000Y-43933000D01*
X144130000Y-39063000D02*
X144130000Y-40451000D01*
X144130000Y-42531000D02*
X144130000Y-43919000D01*
X144170000Y-39077000D02*
X144170000Y-40451000D01*
X144170000Y-42531000D02*
X144170000Y-43905000D01*
X144210000Y-39093000D02*
X144210000Y-40451000D01*
X144210000Y-42531000D02*
X144210000Y-43889000D01*
X144250000Y-39109000D02*
X144250000Y-40451000D01*
X144250000Y-42531000D02*
X144250000Y-43873000D01*
X144290000Y-39126000D02*
X144290000Y-40451000D01*
X144290000Y-42531000D02*
X144290000Y-43856000D01*
X144330000Y-39143000D02*
X144330000Y-40451000D01*
X144330000Y-42531000D02*
X144330000Y-43839000D01*
X144370000Y-39162000D02*
X144370000Y-40451000D01*
X144370000Y-42531000D02*
X144370000Y-43820000D01*
X144410000Y-39181000D02*
X144410000Y-40451000D01*
X144410000Y-42531000D02*
X144410000Y-43801000D01*
X144450000Y-39201000D02*
X144450000Y-40451000D01*
X144450000Y-42531000D02*
X144450000Y-43781000D01*
X144490000Y-39223000D02*
X144490000Y-40451000D01*
X144490000Y-42531000D02*
X144490000Y-43759000D01*
X144530000Y-39244000D02*
X144530000Y-40451000D01*
X144530000Y-42531000D02*
X144530000Y-43738000D01*
X144570000Y-39267000D02*
X144570000Y-40451000D01*
X144570000Y-42531000D02*
X144570000Y-43715000D01*
X144610000Y-39291000D02*
X144610000Y-40451000D01*
X144610000Y-42531000D02*
X144610000Y-43691000D01*
X144650000Y-39316000D02*
X144650000Y-40451000D01*
X144650000Y-42531000D02*
X144650000Y-43666000D01*
X144690000Y-39342000D02*
X144690000Y-40451000D01*
X144690000Y-42531000D02*
X144690000Y-43640000D01*
X144730000Y-39369000D02*
X144730000Y-40451000D01*
X144730000Y-42531000D02*
X144730000Y-43613000D01*
X144770000Y-39396000D02*
X144770000Y-40451000D01*
X144770000Y-42531000D02*
X144770000Y-43586000D01*
X144810000Y-39426000D02*
X144810000Y-40451000D01*
X144810000Y-42531000D02*
X144810000Y-43556000D01*
X144850000Y-39456000D02*
X144850000Y-40451000D01*
X144850000Y-42531000D02*
X144850000Y-43526000D01*
X144890000Y-39487000D02*
X144890000Y-40451000D01*
X144890000Y-42531000D02*
X144890000Y-43495000D01*
X144930000Y-39520000D02*
X144930000Y-40451000D01*
X144930000Y-42531000D02*
X144930000Y-43462000D01*
X144970000Y-39554000D02*
X144970000Y-40451000D01*
X144970000Y-42531000D02*
X144970000Y-43428000D01*
X145010000Y-39590000D02*
X145010000Y-40451000D01*
X145010000Y-42531000D02*
X145010000Y-43392000D01*
X145050000Y-39627000D02*
X145050000Y-40451000D01*
X145050000Y-42531000D02*
X145050000Y-43355000D01*
X145090000Y-39665000D02*
X145090000Y-40451000D01*
X145090000Y-42531000D02*
X145090000Y-43317000D01*
X145130000Y-39706000D02*
X145130000Y-40451000D01*
X145130000Y-42531000D02*
X145130000Y-43276000D01*
X145170000Y-39748000D02*
X145170000Y-40451000D01*
X145170000Y-42531000D02*
X145170000Y-43234000D01*
X145210000Y-39792000D02*
X145210000Y-40451000D01*
X145210000Y-42531000D02*
X145210000Y-43190000D01*
X145250000Y-39838000D02*
X145250000Y-40451000D01*
X145250000Y-42531000D02*
X145250000Y-43144000D01*
X145290000Y-39886000D02*
X145290000Y-40451000D01*
X145290000Y-42531000D02*
X145290000Y-43096000D01*
X145330000Y-39937000D02*
X145330000Y-40451000D01*
X145330000Y-42531000D02*
X145330000Y-43045000D01*
X145370000Y-39991000D02*
X145370000Y-40451000D01*
X145370000Y-42531000D02*
X145370000Y-42991000D01*
X145410000Y-40048000D02*
X145410000Y-40451000D01*
X145410000Y-42531000D02*
X145410000Y-42934000D01*
X145450000Y-40108000D02*
X145450000Y-40451000D01*
X145450000Y-42531000D02*
X145450000Y-42874000D01*
X145490000Y-40172000D02*
X145490000Y-40451000D01*
X145490000Y-42531000D02*
X145490000Y-42810000D01*
X145530000Y-40240000D02*
X145530000Y-40451000D01*
X145530000Y-42531000D02*
X145530000Y-42742000D01*
X145570000Y-40313000D02*
X145570000Y-42669000D01*
X145610000Y-40393000D02*
X145610000Y-42589000D01*
X145650000Y-40480000D02*
X145650000Y-42502000D01*
X145690000Y-40576000D02*
X145690000Y-42406000D01*
X145730000Y-40686000D02*
X145730000Y-42296000D01*
X145770000Y-40814000D02*
X145770000Y-42168000D01*
X145810000Y-40973000D02*
X145810000Y-42009000D01*
X145850000Y-41207000D02*
X145850000Y-41775000D01*
X140444225Y-40016000D02*
X140944225Y-40016000D01*
X140694225Y-39766000D02*
X140694225Y-40266000D01*
G04 #@! TO.C,R13*
X139559000Y-70129500D02*
G75*
G03X139559000Y-70129500I-1370000J0D01*
G01*
X138189000Y-71499500D02*
X138189000Y-71569500D01*
G04 #@! TO.C,C1*
X148980000Y-69177000D02*
G75*
G03X148980000Y-69177000I-2620000J0D01*
G01*
X146360000Y-66597000D02*
X146360000Y-71757000D01*
X146400000Y-66597000D02*
X146400000Y-71757000D01*
X146440000Y-66598000D02*
X146440000Y-71756000D01*
X146480000Y-66599000D02*
X146480000Y-71755000D01*
X146520000Y-66601000D02*
X146520000Y-71753000D01*
X146560000Y-66604000D02*
X146560000Y-71750000D01*
X146600000Y-66608000D02*
X146600000Y-68137000D01*
X146600000Y-70217000D02*
X146600000Y-71746000D01*
X146640000Y-66612000D02*
X146640000Y-68137000D01*
X146640000Y-70217000D02*
X146640000Y-71742000D01*
X146680000Y-66616000D02*
X146680000Y-68137000D01*
X146680000Y-70217000D02*
X146680000Y-71738000D01*
X146720000Y-66621000D02*
X146720000Y-68137000D01*
X146720000Y-70217000D02*
X146720000Y-71733000D01*
X146760000Y-66627000D02*
X146760000Y-68137000D01*
X146760000Y-70217000D02*
X146760000Y-71727000D01*
X146800000Y-66634000D02*
X146800000Y-68137000D01*
X146800000Y-70217000D02*
X146800000Y-71720000D01*
X146840000Y-66641000D02*
X146840000Y-68137000D01*
X146840000Y-70217000D02*
X146840000Y-71713000D01*
X146880000Y-66649000D02*
X146880000Y-68137000D01*
X146880000Y-70217000D02*
X146880000Y-71705000D01*
X146920000Y-66657000D02*
X146920000Y-68137000D01*
X146920000Y-70217000D02*
X146920000Y-71697000D01*
X146960000Y-66666000D02*
X146960000Y-68137000D01*
X146960000Y-70217000D02*
X146960000Y-71688000D01*
X147000000Y-66676000D02*
X147000000Y-68137000D01*
X147000000Y-70217000D02*
X147000000Y-71678000D01*
X147040000Y-66686000D02*
X147040000Y-68137000D01*
X147040000Y-70217000D02*
X147040000Y-71668000D01*
X147081000Y-66697000D02*
X147081000Y-68137000D01*
X147081000Y-70217000D02*
X147081000Y-71657000D01*
X147121000Y-66709000D02*
X147121000Y-68137000D01*
X147121000Y-70217000D02*
X147121000Y-71645000D01*
X147161000Y-66722000D02*
X147161000Y-68137000D01*
X147161000Y-70217000D02*
X147161000Y-71632000D01*
X147201000Y-66735000D02*
X147201000Y-68137000D01*
X147201000Y-70217000D02*
X147201000Y-71619000D01*
X147241000Y-66749000D02*
X147241000Y-68137000D01*
X147241000Y-70217000D02*
X147241000Y-71605000D01*
X147281000Y-66763000D02*
X147281000Y-68137000D01*
X147281000Y-70217000D02*
X147281000Y-71591000D01*
X147321000Y-66779000D02*
X147321000Y-68137000D01*
X147321000Y-70217000D02*
X147321000Y-71575000D01*
X147361000Y-66795000D02*
X147361000Y-68137000D01*
X147361000Y-70217000D02*
X147361000Y-71559000D01*
X147401000Y-66812000D02*
X147401000Y-68137000D01*
X147401000Y-70217000D02*
X147401000Y-71542000D01*
X147441000Y-66829000D02*
X147441000Y-68137000D01*
X147441000Y-70217000D02*
X147441000Y-71525000D01*
X147481000Y-66848000D02*
X147481000Y-68137000D01*
X147481000Y-70217000D02*
X147481000Y-71506000D01*
X147521000Y-66867000D02*
X147521000Y-68137000D01*
X147521000Y-70217000D02*
X147521000Y-71487000D01*
X147561000Y-66887000D02*
X147561000Y-68137000D01*
X147561000Y-70217000D02*
X147561000Y-71467000D01*
X147601000Y-66909000D02*
X147601000Y-68137000D01*
X147601000Y-70217000D02*
X147601000Y-71445000D01*
X147641000Y-66930000D02*
X147641000Y-68137000D01*
X147641000Y-70217000D02*
X147641000Y-71424000D01*
X147681000Y-66953000D02*
X147681000Y-68137000D01*
X147681000Y-70217000D02*
X147681000Y-71401000D01*
X147721000Y-66977000D02*
X147721000Y-68137000D01*
X147721000Y-70217000D02*
X147721000Y-71377000D01*
X147761000Y-67002000D02*
X147761000Y-68137000D01*
X147761000Y-70217000D02*
X147761000Y-71352000D01*
X147801000Y-67028000D02*
X147801000Y-68137000D01*
X147801000Y-70217000D02*
X147801000Y-71326000D01*
X147841000Y-67055000D02*
X147841000Y-68137000D01*
X147841000Y-70217000D02*
X147841000Y-71299000D01*
X147881000Y-67082000D02*
X147881000Y-68137000D01*
X147881000Y-70217000D02*
X147881000Y-71272000D01*
X147921000Y-67112000D02*
X147921000Y-68137000D01*
X147921000Y-70217000D02*
X147921000Y-71242000D01*
X147961000Y-67142000D02*
X147961000Y-68137000D01*
X147961000Y-70217000D02*
X147961000Y-71212000D01*
X148001000Y-67173000D02*
X148001000Y-68137000D01*
X148001000Y-70217000D02*
X148001000Y-71181000D01*
X148041000Y-67206000D02*
X148041000Y-68137000D01*
X148041000Y-70217000D02*
X148041000Y-71148000D01*
X148081000Y-67240000D02*
X148081000Y-68137000D01*
X148081000Y-70217000D02*
X148081000Y-71114000D01*
X148121000Y-67276000D02*
X148121000Y-68137000D01*
X148121000Y-70217000D02*
X148121000Y-71078000D01*
X148161000Y-67313000D02*
X148161000Y-68137000D01*
X148161000Y-70217000D02*
X148161000Y-71041000D01*
X148201000Y-67351000D02*
X148201000Y-68137000D01*
X148201000Y-70217000D02*
X148201000Y-71003000D01*
X148241000Y-67392000D02*
X148241000Y-68137000D01*
X148241000Y-70217000D02*
X148241000Y-70962000D01*
X148281000Y-67434000D02*
X148281000Y-68137000D01*
X148281000Y-70217000D02*
X148281000Y-70920000D01*
X148321000Y-67478000D02*
X148321000Y-68137000D01*
X148321000Y-70217000D02*
X148321000Y-70876000D01*
X148361000Y-67524000D02*
X148361000Y-68137000D01*
X148361000Y-70217000D02*
X148361000Y-70830000D01*
X148401000Y-67572000D02*
X148401000Y-68137000D01*
X148401000Y-70217000D02*
X148401000Y-70782000D01*
X148441000Y-67623000D02*
X148441000Y-68137000D01*
X148441000Y-70217000D02*
X148441000Y-70731000D01*
X148481000Y-67677000D02*
X148481000Y-68137000D01*
X148481000Y-70217000D02*
X148481000Y-70677000D01*
X148521000Y-67734000D02*
X148521000Y-68137000D01*
X148521000Y-70217000D02*
X148521000Y-70620000D01*
X148561000Y-67794000D02*
X148561000Y-68137000D01*
X148561000Y-70217000D02*
X148561000Y-70560000D01*
X148601000Y-67858000D02*
X148601000Y-68137000D01*
X148601000Y-70217000D02*
X148601000Y-70496000D01*
X148641000Y-67926000D02*
X148641000Y-68137000D01*
X148641000Y-70217000D02*
X148641000Y-70428000D01*
X148681000Y-67999000D02*
X148681000Y-70355000D01*
X148721000Y-68079000D02*
X148721000Y-70275000D01*
X148761000Y-68166000D02*
X148761000Y-70188000D01*
X148801000Y-68262000D02*
X148801000Y-70092000D01*
X148841000Y-68372000D02*
X148841000Y-69982000D01*
X148881000Y-68500000D02*
X148881000Y-69854000D01*
X148921000Y-68659000D02*
X148921000Y-69695000D01*
X148961000Y-68893000D02*
X148961000Y-69461000D01*
X143555225Y-67702000D02*
X144055225Y-67702000D01*
X143805225Y-67452000D02*
X143805225Y-67952000D01*
G04 #@! TO.C,R10*
X166737000Y-63208000D02*
G75*
G03X166737000Y-63208000I-1370000J0D01*
G01*
X165367000Y-64578000D02*
X165367000Y-64648000D01*
G04 #@! TO.C,R15*
X170601000Y-46825000D02*
X170531000Y-46825000D01*
X173341000Y-46825000D02*
G75*
G03X173341000Y-46825000I-1370000J0D01*
G01*
G04 #@! TO.C,RV2*
X143139000Y-46525000D02*
X143139000Y-53475000D01*
X138399000Y-46525000D02*
X138399000Y-53475000D01*
X143139000Y-46525000D02*
X142494000Y-46525000D01*
X141504000Y-46525000D02*
X138399000Y-46525000D01*
X143139000Y-53475000D02*
X142494000Y-53475000D01*
X141504000Y-53475000D02*
X138399000Y-53475000D01*
G04 #@! TO.C,P5*
X153870000Y-77348000D02*
X146130000Y-77348000D01*
X146130000Y-77348000D02*
X146130000Y-80008000D01*
X146130000Y-80008000D02*
X153870000Y-80008000D01*
X153870000Y-80008000D02*
X153870000Y-77348000D01*
X152920000Y-80008000D02*
X152920000Y-86008000D01*
X152920000Y-86008000D02*
X152160000Y-86008000D01*
X152160000Y-86008000D02*
X152160000Y-80008000D01*
X152860000Y-80008000D02*
X152860000Y-86008000D01*
X152740000Y-80008000D02*
X152740000Y-86008000D01*
X152620000Y-80008000D02*
X152620000Y-86008000D01*
X152500000Y-80008000D02*
X152500000Y-86008000D01*
X152380000Y-80008000D02*
X152380000Y-86008000D01*
X152260000Y-80008000D02*
X152260000Y-86008000D01*
X152920000Y-77018000D02*
X152920000Y-77348000D01*
X152160000Y-77018000D02*
X152160000Y-77348000D01*
X151270000Y-77348000D02*
X151270000Y-80008000D01*
X150380000Y-80008000D02*
X150380000Y-86008000D01*
X150380000Y-86008000D02*
X149620000Y-86008000D01*
X149620000Y-86008000D02*
X149620000Y-80008000D01*
X150380000Y-76950929D02*
X150380000Y-77348000D01*
X149620000Y-76950929D02*
X149620000Y-77348000D01*
X148730000Y-77348000D02*
X148730000Y-80008000D01*
X147840000Y-80008000D02*
X147840000Y-86008000D01*
X147840000Y-86008000D02*
X147080000Y-86008000D01*
X147080000Y-86008000D02*
X147080000Y-80008000D01*
X147840000Y-76950929D02*
X147840000Y-77348000D01*
X147080000Y-76950929D02*
X147080000Y-77348000D01*
X152540000Y-74638000D02*
X153810000Y-74638000D01*
X153810000Y-74638000D02*
X153810000Y-75908000D01*
G04 #@! TO.C,C7*
X142730000Y-57606000D02*
X142730000Y-58864000D01*
X144570000Y-57606000D02*
X144570000Y-58864000D01*
G04 #@! TO.C,C8*
X168634225Y-37226000D02*
X168634225Y-37726000D01*
X168384225Y-37476000D02*
X168884225Y-37476000D01*
X173790000Y-38667000D02*
X173790000Y-39235000D01*
X173750000Y-38433000D02*
X173750000Y-39469000D01*
X173710000Y-38274000D02*
X173710000Y-39628000D01*
X173670000Y-38146000D02*
X173670000Y-39756000D01*
X173630000Y-38036000D02*
X173630000Y-39866000D01*
X173590000Y-37940000D02*
X173590000Y-39962000D01*
X173550000Y-37853000D02*
X173550000Y-40049000D01*
X173510000Y-37773000D02*
X173510000Y-40129000D01*
X173470000Y-39991000D02*
X173470000Y-40202000D01*
X173470000Y-37700000D02*
X173470000Y-37911000D01*
X173430000Y-39991000D02*
X173430000Y-40270000D01*
X173430000Y-37632000D02*
X173430000Y-37911000D01*
X173390000Y-39991000D02*
X173390000Y-40334000D01*
X173390000Y-37568000D02*
X173390000Y-37911000D01*
X173350000Y-39991000D02*
X173350000Y-40394000D01*
X173350000Y-37508000D02*
X173350000Y-37911000D01*
X173310000Y-39991000D02*
X173310000Y-40451000D01*
X173310000Y-37451000D02*
X173310000Y-37911000D01*
X173270000Y-39991000D02*
X173270000Y-40505000D01*
X173270000Y-37397000D02*
X173270000Y-37911000D01*
X173230000Y-39991000D02*
X173230000Y-40556000D01*
X173230000Y-37346000D02*
X173230000Y-37911000D01*
X173190000Y-39991000D02*
X173190000Y-40604000D01*
X173190000Y-37298000D02*
X173190000Y-37911000D01*
X173150000Y-39991000D02*
X173150000Y-40650000D01*
X173150000Y-37252000D02*
X173150000Y-37911000D01*
X173110000Y-39991000D02*
X173110000Y-40694000D01*
X173110000Y-37208000D02*
X173110000Y-37911000D01*
X173070000Y-39991000D02*
X173070000Y-40736000D01*
X173070000Y-37166000D02*
X173070000Y-37911000D01*
X173030000Y-39991000D02*
X173030000Y-40777000D01*
X173030000Y-37125000D02*
X173030000Y-37911000D01*
X172990000Y-39991000D02*
X172990000Y-40815000D01*
X172990000Y-37087000D02*
X172990000Y-37911000D01*
X172950000Y-39991000D02*
X172950000Y-40852000D01*
X172950000Y-37050000D02*
X172950000Y-37911000D01*
X172910000Y-39991000D02*
X172910000Y-40888000D01*
X172910000Y-37014000D02*
X172910000Y-37911000D01*
X172870000Y-39991000D02*
X172870000Y-40922000D01*
X172870000Y-36980000D02*
X172870000Y-37911000D01*
X172830000Y-39991000D02*
X172830000Y-40955000D01*
X172830000Y-36947000D02*
X172830000Y-37911000D01*
X172790000Y-39991000D02*
X172790000Y-40986000D01*
X172790000Y-36916000D02*
X172790000Y-37911000D01*
X172750000Y-39991000D02*
X172750000Y-41016000D01*
X172750000Y-36886000D02*
X172750000Y-37911000D01*
X172710000Y-39991000D02*
X172710000Y-41046000D01*
X172710000Y-36856000D02*
X172710000Y-37911000D01*
X172670000Y-39991000D02*
X172670000Y-41073000D01*
X172670000Y-36829000D02*
X172670000Y-37911000D01*
X172630000Y-39991000D02*
X172630000Y-41100000D01*
X172630000Y-36802000D02*
X172630000Y-37911000D01*
X172590000Y-39991000D02*
X172590000Y-41126000D01*
X172590000Y-36776000D02*
X172590000Y-37911000D01*
X172550000Y-39991000D02*
X172550000Y-41151000D01*
X172550000Y-36751000D02*
X172550000Y-37911000D01*
X172510000Y-39991000D02*
X172510000Y-41175000D01*
X172510000Y-36727000D02*
X172510000Y-37911000D01*
X172470000Y-39991000D02*
X172470000Y-41198000D01*
X172470000Y-36704000D02*
X172470000Y-37911000D01*
X172430000Y-39991000D02*
X172430000Y-41219000D01*
X172430000Y-36683000D02*
X172430000Y-37911000D01*
X172390000Y-39991000D02*
X172390000Y-41241000D01*
X172390000Y-36661000D02*
X172390000Y-37911000D01*
X172350000Y-39991000D02*
X172350000Y-41261000D01*
X172350000Y-36641000D02*
X172350000Y-37911000D01*
X172310000Y-39991000D02*
X172310000Y-41280000D01*
X172310000Y-36622000D02*
X172310000Y-37911000D01*
X172270000Y-39991000D02*
X172270000Y-41299000D01*
X172270000Y-36603000D02*
X172270000Y-37911000D01*
X172230000Y-39991000D02*
X172230000Y-41316000D01*
X172230000Y-36586000D02*
X172230000Y-37911000D01*
X172190000Y-39991000D02*
X172190000Y-41333000D01*
X172190000Y-36569000D02*
X172190000Y-37911000D01*
X172150000Y-39991000D02*
X172150000Y-41349000D01*
X172150000Y-36553000D02*
X172150000Y-37911000D01*
X172110000Y-39991000D02*
X172110000Y-41365000D01*
X172110000Y-36537000D02*
X172110000Y-37911000D01*
X172070000Y-39991000D02*
X172070000Y-41379000D01*
X172070000Y-36523000D02*
X172070000Y-37911000D01*
X172030000Y-39991000D02*
X172030000Y-41393000D01*
X172030000Y-36509000D02*
X172030000Y-37911000D01*
X171990000Y-39991000D02*
X171990000Y-41406000D01*
X171990000Y-36496000D02*
X171990000Y-37911000D01*
X171950000Y-39991000D02*
X171950000Y-41419000D01*
X171950000Y-36483000D02*
X171950000Y-37911000D01*
X171910000Y-39991000D02*
X171910000Y-41431000D01*
X171910000Y-36471000D02*
X171910000Y-37911000D01*
X171869000Y-39991000D02*
X171869000Y-41442000D01*
X171869000Y-36460000D02*
X171869000Y-37911000D01*
X171829000Y-39991000D02*
X171829000Y-41452000D01*
X171829000Y-36450000D02*
X171829000Y-37911000D01*
X171789000Y-39991000D02*
X171789000Y-41462000D01*
X171789000Y-36440000D02*
X171789000Y-37911000D01*
X171749000Y-39991000D02*
X171749000Y-41471000D01*
X171749000Y-36431000D02*
X171749000Y-37911000D01*
X171709000Y-39991000D02*
X171709000Y-41479000D01*
X171709000Y-36423000D02*
X171709000Y-37911000D01*
X171669000Y-39991000D02*
X171669000Y-41487000D01*
X171669000Y-36415000D02*
X171669000Y-37911000D01*
X171629000Y-39991000D02*
X171629000Y-41494000D01*
X171629000Y-36408000D02*
X171629000Y-37911000D01*
X171589000Y-39991000D02*
X171589000Y-41501000D01*
X171589000Y-36401000D02*
X171589000Y-37911000D01*
X171549000Y-39991000D02*
X171549000Y-41507000D01*
X171549000Y-36395000D02*
X171549000Y-37911000D01*
X171509000Y-39991000D02*
X171509000Y-41512000D01*
X171509000Y-36390000D02*
X171509000Y-37911000D01*
X171469000Y-39991000D02*
X171469000Y-41516000D01*
X171469000Y-36386000D02*
X171469000Y-37911000D01*
X171429000Y-39991000D02*
X171429000Y-41520000D01*
X171429000Y-36382000D02*
X171429000Y-37911000D01*
X171389000Y-36378000D02*
X171389000Y-41524000D01*
X171349000Y-36375000D02*
X171349000Y-41527000D01*
X171309000Y-36373000D02*
X171309000Y-41529000D01*
X171269000Y-36372000D02*
X171269000Y-41530000D01*
X171229000Y-36371000D02*
X171229000Y-41531000D01*
X171189000Y-36371000D02*
X171189000Y-41531000D01*
X173809000Y-38951000D02*
G75*
G03X173809000Y-38951000I-2620000J0D01*
G01*
G04 #@! TO.C,C9*
X160066000Y-47347000D02*
X160066000Y-46089000D01*
X161906000Y-47347000D02*
X161906000Y-46089000D01*
G04 #@! TO.C,C10*
X160654000Y-61843500D02*
X161912000Y-61843500D01*
X160654000Y-63683500D02*
X161912000Y-63683500D01*
G04 #@! TO.C,R1*
X142520000Y-33309500D02*
X142520000Y-33239500D01*
X143890000Y-34679500D02*
G75*
G03X143890000Y-34679500I-1370000J0D01*
G01*
G04 #@! TO.C,R3*
X137400000Y-53810000D02*
G75*
G03X137400000Y-53810000I-1370000J0D01*
G01*
X134660000Y-53810000D02*
X134590000Y-53810000D01*
G04 #@! TO.C,R11*
X141872000Y-72261500D02*
X141872000Y-72331500D01*
X143242000Y-70891500D02*
G75*
G03X143242000Y-70891500I-1370000J0D01*
G01*
G04 #@! TO.C,W1*
X161407975Y-29759382D02*
X162404428Y-27293073D01*
X158997297Y-28785405D02*
X161407975Y-29759382D01*
X159993750Y-26319096D02*
X162404428Y-27293073D01*
X158997297Y-28785405D02*
X159993750Y-26319096D01*
X157819773Y-28309655D02*
X156586619Y-27811428D01*
X156586619Y-27811428D02*
X157084845Y-26578273D01*
G04 #@! TO.C,R16*
X152450000Y-63271500D02*
G75*
G03X152450000Y-63271500I-1370000J0D01*
G01*
X152450000Y-63271500D02*
X152520000Y-63271500D01*
G04 #@! TO.C,D2*
X129063449Y-47166866D02*
G75*
G03X129003847Y-44899500I1251551J1167366D01*
G01*
G04 #@! TO.C,D1*
X141352634Y-27712949D02*
G75*
G03X143620000Y-27653347I1167366J-1251551D01*
G01*
G04 #@! TO.C,R9*
X173087000Y-43650000D02*
X173157000Y-43650000D01*
X173087000Y-43650000D02*
G75*
G03X173087000Y-43650000I-1370000J0D01*
G01*
G04 #@! TO.C,P3*
X177221000Y-46130000D02*
X177221000Y-53870000D01*
X177221000Y-53870000D02*
X179881000Y-53870000D01*
X179881000Y-53870000D02*
X179881000Y-46130000D01*
X179881000Y-46130000D02*
X177221000Y-46130000D01*
X179881000Y-47080000D02*
X185881000Y-47080000D01*
X185881000Y-47080000D02*
X185881000Y-47840000D01*
X185881000Y-47840000D02*
X179881000Y-47840000D01*
X179881000Y-47140000D02*
X185881000Y-47140000D01*
X179881000Y-47260000D02*
X185881000Y-47260000D01*
X179881000Y-47380000D02*
X185881000Y-47380000D01*
X179881000Y-47500000D02*
X185881000Y-47500000D01*
X179881000Y-47620000D02*
X185881000Y-47620000D01*
X179881000Y-47740000D02*
X185881000Y-47740000D01*
X176891000Y-47080000D02*
X177221000Y-47080000D01*
X176891000Y-47840000D02*
X177221000Y-47840000D01*
X177221000Y-48730000D02*
X179881000Y-48730000D01*
X179881000Y-49620000D02*
X185881000Y-49620000D01*
X185881000Y-49620000D02*
X185881000Y-50380000D01*
X185881000Y-50380000D02*
X179881000Y-50380000D01*
X176823929Y-49620000D02*
X177221000Y-49620000D01*
X176823929Y-50380000D02*
X177221000Y-50380000D01*
X177221000Y-51270000D02*
X179881000Y-51270000D01*
X179881000Y-52160000D02*
X185881000Y-52160000D01*
X185881000Y-52160000D02*
X185881000Y-52920000D01*
X185881000Y-52920000D02*
X179881000Y-52920000D01*
X176823929Y-52160000D02*
X177221000Y-52160000D01*
X176823929Y-52920000D02*
X177221000Y-52920000D01*
X174511000Y-47460000D02*
X174511000Y-46190000D01*
X174511000Y-46190000D02*
X175781000Y-46190000D01*
G04 #@! TO.C,W2*
X127357072Y-37029119D02*
X128590227Y-37527345D01*
X126858845Y-38262273D02*
X127357072Y-37029119D01*
X126383095Y-39439797D02*
X128849404Y-40436250D01*
X128849404Y-40436250D02*
X127875427Y-42846928D01*
X126383095Y-39439797D02*
X125409118Y-41850475D01*
X125409118Y-41850475D02*
X127875427Y-42846928D01*
G04 #@! TO.C,C6*
X161002000Y-32430500D02*
G75*
G03X161002000Y-32430500I-2620000J0D01*
G01*
X155802000Y-32430500D02*
X160962000Y-32430500D01*
X155802000Y-32390500D02*
X160962000Y-32390500D01*
X155803000Y-32350500D02*
X160961000Y-32350500D01*
X155804000Y-32310500D02*
X160960000Y-32310500D01*
X155806000Y-32270500D02*
X160958000Y-32270500D01*
X155809000Y-32230500D02*
X160955000Y-32230500D01*
X155813000Y-32190500D02*
X157342000Y-32190500D01*
X159422000Y-32190500D02*
X160951000Y-32190500D01*
X155817000Y-32150500D02*
X157342000Y-32150500D01*
X159422000Y-32150500D02*
X160947000Y-32150500D01*
X155821000Y-32110500D02*
X157342000Y-32110500D01*
X159422000Y-32110500D02*
X160943000Y-32110500D01*
X155826000Y-32070500D02*
X157342000Y-32070500D01*
X159422000Y-32070500D02*
X160938000Y-32070500D01*
X155832000Y-32030500D02*
X157342000Y-32030500D01*
X159422000Y-32030500D02*
X160932000Y-32030500D01*
X155839000Y-31990500D02*
X157342000Y-31990500D01*
X159422000Y-31990500D02*
X160925000Y-31990500D01*
X155846000Y-31950500D02*
X157342000Y-31950500D01*
X159422000Y-31950500D02*
X160918000Y-31950500D01*
X155854000Y-31910500D02*
X157342000Y-31910500D01*
X159422000Y-31910500D02*
X160910000Y-31910500D01*
X155862000Y-31870500D02*
X157342000Y-31870500D01*
X159422000Y-31870500D02*
X160902000Y-31870500D01*
X155871000Y-31830500D02*
X157342000Y-31830500D01*
X159422000Y-31830500D02*
X160893000Y-31830500D01*
X155881000Y-31790500D02*
X157342000Y-31790500D01*
X159422000Y-31790500D02*
X160883000Y-31790500D01*
X155891000Y-31750500D02*
X157342000Y-31750500D01*
X159422000Y-31750500D02*
X160873000Y-31750500D01*
X155902000Y-31709500D02*
X157342000Y-31709500D01*
X159422000Y-31709500D02*
X160862000Y-31709500D01*
X155914000Y-31669500D02*
X157342000Y-31669500D01*
X159422000Y-31669500D02*
X160850000Y-31669500D01*
X155927000Y-31629500D02*
X157342000Y-31629500D01*
X159422000Y-31629500D02*
X160837000Y-31629500D01*
X155940000Y-31589500D02*
X157342000Y-31589500D01*
X159422000Y-31589500D02*
X160824000Y-31589500D01*
X155954000Y-31549500D02*
X157342000Y-31549500D01*
X159422000Y-31549500D02*
X160810000Y-31549500D01*
X155968000Y-31509500D02*
X157342000Y-31509500D01*
X159422000Y-31509500D02*
X160796000Y-31509500D01*
X155984000Y-31469500D02*
X157342000Y-31469500D01*
X159422000Y-31469500D02*
X160780000Y-31469500D01*
X156000000Y-31429500D02*
X157342000Y-31429500D01*
X159422000Y-31429500D02*
X160764000Y-31429500D01*
X156017000Y-31389500D02*
X157342000Y-31389500D01*
X159422000Y-31389500D02*
X160747000Y-31389500D01*
X156034000Y-31349500D02*
X157342000Y-31349500D01*
X159422000Y-31349500D02*
X160730000Y-31349500D01*
X156053000Y-31309500D02*
X157342000Y-31309500D01*
X159422000Y-31309500D02*
X160711000Y-31309500D01*
X156072000Y-31269500D02*
X157342000Y-31269500D01*
X159422000Y-31269500D02*
X160692000Y-31269500D01*
X156092000Y-31229500D02*
X157342000Y-31229500D01*
X159422000Y-31229500D02*
X160672000Y-31229500D01*
X156114000Y-31189500D02*
X157342000Y-31189500D01*
X159422000Y-31189500D02*
X160650000Y-31189500D01*
X156135000Y-31149500D02*
X157342000Y-31149500D01*
X159422000Y-31149500D02*
X160629000Y-31149500D01*
X156158000Y-31109500D02*
X157342000Y-31109500D01*
X159422000Y-31109500D02*
X160606000Y-31109500D01*
X156182000Y-31069500D02*
X157342000Y-31069500D01*
X159422000Y-31069500D02*
X160582000Y-31069500D01*
X156207000Y-31029500D02*
X157342000Y-31029500D01*
X159422000Y-31029500D02*
X160557000Y-31029500D01*
X156233000Y-30989500D02*
X157342000Y-30989500D01*
X159422000Y-30989500D02*
X160531000Y-30989500D01*
X156260000Y-30949500D02*
X157342000Y-30949500D01*
X159422000Y-30949500D02*
X160504000Y-30949500D01*
X156287000Y-30909500D02*
X157342000Y-30909500D01*
X159422000Y-30909500D02*
X160477000Y-30909500D01*
X156317000Y-30869500D02*
X157342000Y-30869500D01*
X159422000Y-30869500D02*
X160447000Y-30869500D01*
X156347000Y-30829500D02*
X157342000Y-30829500D01*
X159422000Y-30829500D02*
X160417000Y-30829500D01*
X156378000Y-30789500D02*
X157342000Y-30789500D01*
X159422000Y-30789500D02*
X160386000Y-30789500D01*
X156411000Y-30749500D02*
X157342000Y-30749500D01*
X159422000Y-30749500D02*
X160353000Y-30749500D01*
X156445000Y-30709500D02*
X157342000Y-30709500D01*
X159422000Y-30709500D02*
X160319000Y-30709500D01*
X156481000Y-30669500D02*
X157342000Y-30669500D01*
X159422000Y-30669500D02*
X160283000Y-30669500D01*
X156518000Y-30629500D02*
X157342000Y-30629500D01*
X159422000Y-30629500D02*
X160246000Y-30629500D01*
X156556000Y-30589500D02*
X157342000Y-30589500D01*
X159422000Y-30589500D02*
X160208000Y-30589500D01*
X156597000Y-30549500D02*
X157342000Y-30549500D01*
X159422000Y-30549500D02*
X160167000Y-30549500D01*
X156639000Y-30509500D02*
X157342000Y-30509500D01*
X159422000Y-30509500D02*
X160125000Y-30509500D01*
X156683000Y-30469500D02*
X157342000Y-30469500D01*
X159422000Y-30469500D02*
X160081000Y-30469500D01*
X156729000Y-30429500D02*
X157342000Y-30429500D01*
X159422000Y-30429500D02*
X160035000Y-30429500D01*
X156777000Y-30389500D02*
X157342000Y-30389500D01*
X159422000Y-30389500D02*
X159987000Y-30389500D01*
X156828000Y-30349500D02*
X157342000Y-30349500D01*
X159422000Y-30349500D02*
X159936000Y-30349500D01*
X156882000Y-30309500D02*
X157342000Y-30309500D01*
X159422000Y-30309500D02*
X159882000Y-30309500D01*
X156939000Y-30269500D02*
X157342000Y-30269500D01*
X159422000Y-30269500D02*
X159825000Y-30269500D01*
X156999000Y-30229500D02*
X157342000Y-30229500D01*
X159422000Y-30229500D02*
X159765000Y-30229500D01*
X157063000Y-30189500D02*
X157342000Y-30189500D01*
X159422000Y-30189500D02*
X159701000Y-30189500D01*
X157131000Y-30149500D02*
X157342000Y-30149500D01*
X159422000Y-30149500D02*
X159633000Y-30149500D01*
X157204000Y-30109500D02*
X159560000Y-30109500D01*
X157284000Y-30069500D02*
X159480000Y-30069500D01*
X157371000Y-30029500D02*
X159393000Y-30029500D01*
X157467000Y-29989500D02*
X159297000Y-29989500D01*
X157577000Y-29949500D02*
X159187000Y-29949500D01*
X157705000Y-29909500D02*
X159059000Y-29909500D01*
X157864000Y-29869500D02*
X158900000Y-29869500D01*
X158098000Y-29829500D02*
X158666000Y-29829500D01*
X156907000Y-35235275D02*
X156907000Y-34735275D01*
X156657000Y-34985275D02*
X157157000Y-34985275D01*
G04 #@! TO.C,R5*
X133554000Y-38987500D02*
X133554000Y-39057500D01*
X134924000Y-37617500D02*
G75*
G03X134924000Y-37617500I-1370000J0D01*
G01*
G04 #@! TO.C,R7*
X165150000Y-34315500D02*
G75*
G03X165150000Y-34315500I-1370000J0D01*
G01*
X163780000Y-35685500D02*
X163780000Y-35755500D01*
G04 #@! TO.C,R8*
X159688000Y-36919000D02*
G75*
G03X159688000Y-36919000I-1370000J0D01*
G01*
X159688000Y-36919000D02*
X159758000Y-36919000D01*
G04 #@! TO.C,K3*
X122070693Y-72662108D02*
X128173025Y-66559777D01*
X122154199Y-72745614D02*
X128256531Y-66643282D01*
X122237705Y-72829120D02*
X128340036Y-66726788D01*
X122321211Y-72912626D02*
X128423542Y-66810294D01*
X122404716Y-72996131D02*
X128507048Y-66893800D01*
X122488222Y-73079637D02*
X128590554Y-66977306D01*
X122571728Y-73163143D02*
X128674060Y-67060811D01*
X122655234Y-73246649D02*
X128757565Y-67144317D01*
X122738740Y-73330154D02*
X128841071Y-67227823D01*
X122822245Y-73413660D02*
X128924577Y-67311329D01*
X122905751Y-73497166D02*
X129008083Y-67394834D01*
X122989257Y-73580672D02*
X129091588Y-67478340D01*
X123072763Y-73664178D02*
X129175094Y-67561846D01*
X123156268Y-73747683D02*
X129258600Y-67645352D01*
X123239774Y-73831189D02*
X129342106Y-67728858D01*
X123323280Y-73914695D02*
X129425612Y-67812363D01*
X123406786Y-73998201D02*
X129509117Y-67895869D01*
X123490292Y-74081706D02*
X129592623Y-67979375D01*
X123573797Y-74165212D02*
X129676129Y-68062881D01*
X123657303Y-74248718D02*
X129759635Y-68146386D01*
X123740809Y-74332224D02*
X129843140Y-68229892D01*
X128774066Y-67160817D02*
X129021553Y-66913330D01*
X129283183Y-67669934D02*
X129530670Y-67422447D01*
X130570117Y-68956869D02*
X130860031Y-68666955D01*
X131079234Y-69465986D02*
X131369148Y-69176072D01*
X132366168Y-70752920D02*
X132656082Y-70463006D01*
X132875285Y-71262037D02*
X133165199Y-70972123D01*
X123824318Y-74415733D02*
X129926650Y-68313402D01*
X125620369Y-76211784D02*
X131722701Y-70109453D01*
X121985841Y-72577255D02*
X128088172Y-66474924D01*
X128088172Y-66474924D02*
X133561179Y-71947930D01*
X127458847Y-78050262D02*
X133561179Y-71947930D01*
X121985841Y-72577255D02*
X127458847Y-78050262D01*
X129905437Y-64657659D02*
X130845889Y-65598111D01*
X129120548Y-65442548D02*
X129905437Y-64657659D01*
G04 #@! TO.C,R6*
X136919000Y-41327500D02*
X136919000Y-41257500D01*
X138289000Y-42697500D02*
G75*
G03X138289000Y-42697500I-1370000J0D01*
G01*
G04 #@! TO.C,D5*
D10*
X132788095Y-60612380D02*
X132788095Y-59612380D01*
X133359523Y-60612380D02*
X132930952Y-60040952D01*
X133359523Y-59612380D02*
X132788095Y-60183809D01*
G04 #@! TO.C,D4*
X125413095Y-50452380D02*
X125413095Y-49452380D01*
X125984523Y-50452380D02*
X125555952Y-49880952D01*
X125984523Y-49452380D02*
X125413095Y-50023809D01*
G04 #@! TO.C,D3*
X125413095Y-54262380D02*
X125413095Y-53262380D01*
X125984523Y-54262380D02*
X125555952Y-53690952D01*
X125984523Y-53262380D02*
X125413095Y-53833809D01*
G04 #@! TO.C,D2*
X125413095Y-46451880D02*
X125413095Y-45451880D01*
X125984523Y-46451880D02*
X125555952Y-45880452D01*
X125984523Y-45451880D02*
X125413095Y-46023309D01*
G04 #@! TO.C,D1*
X142972380Y-24586404D02*
X141972380Y-24586404D01*
X142972380Y-24014976D02*
X142400952Y-24443547D01*
X141972380Y-24014976D02*
X142543809Y-24586404D01*
G04 #@! TD*
M02*
